#N canvas 1208 -8 2067 1116 10;
#X text 147 16 BPM (60-640);
#X obj 147 41 inlet;
#X obj 148 250 /;
#X floatatom 148 165 5 0 0 0 - - -, f 5;
#X obj 148 195 t b f;
#X obj 121 278 metro;
#X obj 53 47 tgl 15 0 empty empty empty 17 7 0 10 #fcfcfc #000000 #000000
0 1;
#X msg 148 220 60000;
#X obj 149 303 + 1;
#X obj 49 19 inlet;
#X floatatom 121 328 5 0 0 0 - - -, f 5;
#X msg 166 140 60;
#X floatatom 316 485 5 0 0 0 - - -, f 5;
#X obj 344 374 + 1;
#X floatatom 316 399 5 0 0 0 - - -, f 5;
#X obj 121 355 ==;
#X obj 121 380 sel 0 1;
#X obj 121 303 f 0;
#X msg 320 103 0;
#X text 363 464 n(n+1)/2 + 1;
#X obj 316 435 expr $f1 * ($f1 + 1) / 2;
#X obj 316 374 f 0;
#X obj 316 462 + 1;
#X obj 140 405 t b b;
#X obj 320 78 sel 0 1;
#X msg 353 104 0;
#X obj 162 543 outlet;
#X obj 241 532 bng 15 250 50 0 empty empty empty 17 7 0 10 #fcfcfc
#000000 #000000;
#X obj 52 154 t f f;
#X connect 1 0 3 0;
#X connect 2 0 5 1;
#X connect 3 0 4 0;
#X connect 4 0 7 0;
#X connect 4 1 2 1;
#X connect 5 0 17 0;
#X connect 6 0 28 0;
#X connect 7 0 2 0;
#X connect 8 0 17 1;
#X connect 9 0 6 0;
#X connect 10 0 15 0;
#X connect 11 0 3 0;
#X connect 12 0 15 1;
#X connect 13 0 21 1;
#X connect 14 0 20 0;
#X connect 15 0 16 0;
#X connect 16 1 23 0;
#X connect 17 0 8 0;
#X connect 17 0 10 0;
#X connect 18 0 17 1;
#X connect 18 0 21 1;
#X connect 20 0 12 0;
#X connect 21 0 13 0;
#X connect 21 0 14 0;
#X connect 22 0 12 0;
#X connect 23 0 21 0;
#X connect 23 1 26 0;
#X connect 23 1 27 0;
#X connect 24 0 18 0;
#X connect 24 1 25 0;
#X connect 24 1 21 0;
#X connect 28 0 5 0;
#X connect 28 1 24 0;
