#N canvas 242 48 1208 754 10;
#X obj 926 401 line;
#X msg 782 315 \$1 \$2;
#X obj 871 269 delay;
#X obj 782 290 pack;
#X obj 873 296 f;
#X msg 926 351 \$1 \, \$2 \$3;
#X obj 926 326 pack f f f;
#X obj 977 221 expr ($f1 * $f2) / 100;
#X obj 977 192 pack;
#X floatatom 977 250 5 0 0 0 - - -, f 5;
#X obj 1123 244 f;
#X obj 78 537 + 10;
#X obj 155 537 + 10;
#X obj 282 535 + 10;
#X obj 77 299 spigot;
#X floatatom 925 426 5 0 0 0 - - -, f 5;
#X obj 782 239 t f b;
#X obj 809 265 f;
#X obj 1124 215 sel 0;
#X obj 978 166 f;
#X obj 1037 173 t b f;
#X obj 781 216 spigot;
#X obj 781 165 change;
#X obj 781 190 t f f;
#X obj 1037 149 spigot;
#X obj 1037 98 change;
#X obj 1037 123 t f f;
#X obj 912 277 spigot;
#X obj 912 226 change;
#X obj 912 251 t f f;
#X obj 315 481 + 5;
#X obj 78 416 t b b;
#X obj 314 455 random 15;
#X msg 1124 300 \$1 \, 0 \$2;
#X obj 1123 269 pack;
#X text 35 202 CREATES RANDOM CHANGES TO ADSR;
#X obj 154 46 inlet;
#X obj 154 91 random 61;
#X obj 154 116 + 40;
#X text 155 27 bang passthrough;
#X text 193 115 generates peak;
#X obj 326 45 inlet;
#X obj 326 140 tgl 15 0 empty empty empty 17 7 0 10 #fcfcfc #000000
#000000 0 1;
#X obj 326 163 s \$0-rand-adsr;
#X obj 376 65 r ale20;
#X obj 229 68 r ale10;
#X msg 229 93 seed \$1;
#X obj 376 90 mod 3;
#X obj 376 115 sel 0 1 2;
#X msg 376 140 0;
#X msg 406 140 1;
#X text 324 26 toggle random adsr changes;
#X obj 154 141 / 100;
#X obj 154 166 s \$0-peak;
#X obj 77 224 r \$0-peak;
#X obj 33 298 mod 3;
#X obj 33 323 sel 0 1 2;
#X msg 63 348 1;
#X obj 33 223 r ale1;
#X msg 323 432 seed \$1;
#X obj 323 407 r ale11;
#X obj 117 674 + 10;
#X obj 192 674 + 10;
#X obj 329 674 + 10;
#X obj 117 648 random 200;
#X obj 192 649 random 200;
#X obj 329 649 random 500;
#X msg 320 616 seed \$1;
#X obj 246 589 r ale2;
#X msg 157 616 seed \$1;
#X msg 212 616 seed \$1;
#X msg 267 616 seed \$1;
#X obj 217 591 + 1;
#X obj 187 591 + 1;
#X obj 157 591 + 1;
#X msg 33 348 2;
#X obj 78 388 gate 2;
#X obj 117 618 bng 15 250 50 0 empty empty empty 17 7 0 10 #fcfcfc
#000000 #000000;
#X msg 251 480 seed \$1;
#X obj 177 453 r ale2;
#X msg 88 480 seed \$1;
#X msg 143 480 seed \$1;
#X msg 198 480 seed \$1;
#X obj 148 455 + 1;
#X obj 118 455 + 1;
#X obj 88 455 + 1;
#X obj 141 224 r \$0-rand-adsr;
#X obj 781 140 r \$0-peak;
#X obj 824 239 r \$0-attack;
#X obj 897 172 r \$0-attack;
#X obj 912 200 r \$0-peak;
#X obj 978 139 r \$0-sus;
#X obj 985 273 r \$0-decay;
#X obj 1037 73 r \$0-peak;
#X obj 1124 159 r \$0-peak;
#X obj 1165 216 r \$0-rel;
#X text 909 32 APPLIES CHANGES TO ADSR;
#X obj 78 562 s \$0-attack;
#X obj 155 562 s \$0-decay;
#X obj 223 561 s \$0-sus;
#X obj 282 560 s \$0-rel;
#X obj 117 699 s \$0-attack;
#X obj 192 699 s \$0-decay;
#X obj 265 699 s \$0-sus;
#X obj 329 699 s \$0-rel;
#X obj 932 681 outlet;
#X text 928 703 to right inlet of *~;
#X text 454 55 If not random \, generates adsr;
#X obj 223 536 + 0;
#X obj 458 176 + 10;
#X obj 533 176 + 10;
#X obj 670 176 + 10;
#X obj 458 150 random 200;
#X obj 533 151 random 200;
#X obj 670 151 random 500;
#X msg 661 118 seed \$1;
#X obj 637 71 r ale2;
#X msg 498 118 seed \$1;
#X msg 553 118 seed \$1;
#X msg 608 118 seed \$1;
#X obj 558 93 + 1;
#X obj 528 93 + 1;
#X obj 498 93 + 1;
#X obj 458 201 s \$0-attack;
#X obj 533 201 s \$0-decay;
#X obj 606 201 s \$0-sus;
#X obj 670 201 s \$0-rel;
#X obj 606 175 + 0;
#X obj 606 150 random 90;
#X obj 458 651 r \$0-attack;
#X floatatom 458 676 5 0 0 0 - - -, f 5;
#X floatatom 538 676 5 0 0 0 - - -, f 5;
#X obj 538 651 r \$0-decay;
#X floatatom 608 676 5 0 0 0 - - -, f 5;
#X obj 608 651 r \$0-sus;
#X floatatom 668 676 5 0 0 0 - - -, f 5;
#X obj 668 651 r \$0-rel;
#X text 458 628 Results;
#X floatatom 350 559 5 0 0 0 - - -, f 5;
#X obj 265 648 random 81;
#X obj 265 673 + 20;
#X obj 60 20 r choron;
#X obj 60 45 sel 0;
#X obj 60 70 del 10;
#X msg 60 95 0;
#X obj 20 20 inlet;
#X obj 10 70 del 100;
#X obj 33 268 f;
#X obj 77 269 f;
#X obj 141 249 t b b f;
#X obj 120 0 r start-sect;
#X obj 50 0 r end;
#X obj 220 290 loadbang;
#X obj 220 315 del 450;
#X msg 220 340 200;
#X msg 230 360 90;
#X msg 240 380 500;
#X obj 78 511 myDrunk;
#X obj 155 512 myDrunk;
#X obj 223 511 myDrunk;
#X obj 282 510 myDrunk;
#X obj 637 96 f;
#X obj 444 88 t b b;
#X connect 0 0 15 0;
#X connect 1 0 0 0;
#X connect 2 0 4 0;
#X connect 3 0 1 0;
#X connect 4 0 6 0;
#X connect 5 0 0 0;
#X connect 6 0 5 0;
#X connect 7 0 9 0;
#X connect 8 0 7 0;
#X connect 9 0 6 1;
#X connect 10 0 34 0;
#X connect 11 0 97 0;
#X connect 12 0 98 0;
#X connect 13 0 100 0;
#X connect 13 0 138 0;
#X connect 14 0 76 1;
#X connect 15 0 10 1;
#X connect 15 0 105 0;
#X connect 16 0 3 0;
#X connect 16 1 17 0;
#X connect 16 1 2 0;
#X connect 17 0 3 1;
#X connect 18 0 10 0;
#X connect 19 0 8 0;
#X connect 20 0 19 0;
#X connect 20 1 8 1;
#X connect 21 0 16 0;
#X connect 22 0 23 0;
#X connect 23 0 21 0;
#X connect 23 1 21 1;
#X connect 24 0 20 0;
#X connect 25 0 26 0;
#X connect 26 0 24 0;
#X connect 26 1 24 1;
#X connect 27 0 4 1;
#X connect 28 0 29 0;
#X connect 29 0 27 0;
#X connect 29 1 27 1;
#X connect 30 0 157 2;
#X connect 30 0 158 2;
#X connect 30 0 159 2;
#X connect 30 0 160 2;
#X connect 31 0 157 0;
#X connect 31 0 158 0;
#X connect 31 0 159 0;
#X connect 31 0 160 0;
#X connect 31 1 32 0;
#X connect 32 0 30 0;
#X connect 33 0 0 0;
#X connect 34 0 33 0;
#X connect 36 0 37 0;
#X connect 37 0 38 0;
#X connect 38 0 52 0;
#X connect 41 0 42 0;
#X connect 42 0 43 0;
#X connect 44 0 47 0;
#X connect 45 0 46 0;
#X connect 46 0 37 0;
#X connect 47 0 48 0;
#X connect 48 0 49 0;
#X connect 48 0 162 0;
#X connect 48 1 50 0;
#X connect 48 2 50 0;
#X connect 49 0 42 0;
#X connect 50 0 42 0;
#X connect 52 0 53 0;
#X connect 54 0 148 0;
#X connect 55 0 56 0;
#X connect 56 0 75 0;
#X connect 56 1 57 0;
#X connect 56 2 57 0;
#X connect 57 0 76 0;
#X connect 58 0 147 0;
#X connect 59 0 32 0;
#X connect 60 0 59 0;
#X connect 61 0 101 0;
#X connect 62 0 102 0;
#X connect 63 0 104 0;
#X connect 64 0 61 0;
#X connect 65 0 62 0;
#X connect 66 0 63 0;
#X connect 67 0 66 0;
#X connect 68 0 67 0;
#X connect 68 0 72 0;
#X connect 69 0 64 0;
#X connect 70 0 65 0;
#X connect 71 0 139 0;
#X connect 72 0 71 0;
#X connect 72 0 73 0;
#X connect 73 0 70 0;
#X connect 73 0 74 0;
#X connect 74 0 69 0;
#X connect 75 0 76 0;
#X connect 76 0 31 0;
#X connect 76 1 77 0;
#X connect 77 0 64 0;
#X connect 77 0 65 0;
#X connect 77 0 66 0;
#X connect 77 0 139 0;
#X connect 78 0 160 0;
#X connect 79 0 78 0;
#X connect 79 0 83 0;
#X connect 80 0 157 0;
#X connect 81 0 158 0;
#X connect 82 0 159 0;
#X connect 83 0 82 0;
#X connect 83 0 84 0;
#X connect 84 0 81 0;
#X connect 84 0 85 0;
#X connect 85 0 80 0;
#X connect 86 0 149 0;
#X connect 87 0 22 0;
#X connect 88 0 17 1;
#X connect 89 0 2 1;
#X connect 90 0 28 0;
#X connect 91 0 19 1;
#X connect 92 0 6 2;
#X connect 93 0 25 0;
#X connect 94 0 18 0;
#X connect 95 0 34 1;
#X connect 108 0 99 0;
#X connect 109 0 123 0;
#X connect 110 0 124 0;
#X connect 111 0 126 0;
#X connect 112 0 109 0;
#X connect 113 0 110 0;
#X connect 114 0 111 0;
#X connect 115 0 114 0;
#X connect 116 0 161 1;
#X connect 117 0 112 0;
#X connect 118 0 113 0;
#X connect 119 0 128 0;
#X connect 120 0 119 0;
#X connect 120 0 121 0;
#X connect 121 0 118 0;
#X connect 121 0 122 0;
#X connect 122 0 117 0;
#X connect 127 0 125 0;
#X connect 128 0 127 0;
#X connect 129 0 130 0;
#X connect 132 0 131 0;
#X connect 134 0 133 0;
#X connect 136 0 135 0;
#X connect 139 0 140 0;
#X connect 140 0 103 0;
#X connect 141 0 142 0;
#X connect 142 0 143 0;
#X connect 142 0 146 0;
#X connect 143 0 144 0;
#X connect 144 0 53 0;
#X connect 145 0 142 0;
#X connect 146 0 144 0;
#X connect 147 0 55 0;
#X connect 148 0 14 0;
#X connect 149 0 147 0;
#X connect 149 1 148 0;
#X connect 149 2 14 1;
#X connect 150 0 144 0;
#X connect 151 0 144 0;
#X connect 152 0 153 0;
#X connect 153 0 154 0;
#X connect 153 0 156 0;
#X connect 153 0 155 0;
#X connect 154 0 157 1;
#X connect 154 0 158 1;
#X connect 155 0 159 1;
#X connect 156 0 160 1;
#X connect 157 0 11 0;
#X connect 158 0 12 0;
#X connect 159 0 108 0;
#X connect 160 0 13 0;
#X connect 161 0 115 0;
#X connect 161 0 120 1;
#X connect 162 0 112 0;
#X connect 162 0 128 0;
#X connect 162 0 114 0;
#X connect 162 0 113 0;
#X connect 162 1 161 0;
