#N canvas 0 0 1691 848 10;
#X obj 274 131 bng 99 250 50 0 empty empty START 17 7 0 10 #00ff00
#000000 #000000;
#X text 274 71 Input your number here (0 TO 1000000) \, than click
the start button;
#X obj 245 456 main;
#X obj 490 630 output~;
#X obj 37 13 loadbang;
#X msg 37 38 set;
#X obj 245 597 writesf~ 2;
#X msg 657 385 start;
#X msg 691 278 \; pd dsp 1;
#X obj 37 703 bng 15 250 50 0 empty empty empty 17 7 0 10 #fcfcfc #000000
#000000;
#X msg 119 767 stop;
#X msg 37 792 Recording finished;
#X obj 37 817 print;
#X msg 676 339 Recording for \$1 started;
#X obj 676 362 print;
#X msg 53 755 \; pd dsp 0;
#X obj 640 255 t f b f b;
#X obj 245 531 *~;
#X obj 275 531 *~;
#X obj 290 507 line;
#X obj 260 410 t f b;
#X obj 290 454 pipe 10;
#X msg 290 479 1 20;
#X msg 330 479 0 20;
#X obj 37 726 t b b b;
#X obj 119 744 del 20;
#X obj 112 718 r end-cage;
#X obj 514 165 sel 0;
#X msg 514 190 0;
#X msg 434 288 open BYON-\$1.wav;
#X msg 405 358 start;
#X msg 439 251 \; pd dsp 1;
#X msg 424 312 Recording for \$1 started;
#X obj 424 335 print;
#X obj 388 228 t f b f b;
#X obj 40 670 r stop-rec;
#N canvas -35 75 1373 843 OSCY 0;
#X obj 590 380 list prepend send;
#X obj 590 405 list trim;
#N canvas 0 0 1354 826 all-noty 0;
#X obj 30 65 *;
#X obj 30 90 *;
#X obj 60 66 r ale1;
#X obj 105 66 *;
#X obj 105 91 *;
#X obj 185 66 *;
#X obj 185 91 *;
#X obj 265 66 *;
#X obj 265 91 *;
#X obj 30 145 pack f f f f;
#X obj 105 116 t b f;
#X obj 185 116 t b f;
#X obj 265 116 t b f;
#X obj 30 230 oscformat samph1L;
#X obj 135 67 r ale2;
#X obj 215 67 r ale3;
#X obj 295 67 r ale4;
#X obj 300 20 r samph1adsr;
#X obj 132 20 r samph1L;
#X obj 350 65 *;
#X obj 350 90 *;
#X obj 380 66 r ale1;
#X obj 425 66 *;
#X obj 425 91 *;
#X obj 505 66 *;
#X obj 505 91 *;
#X obj 585 66 *;
#X obj 585 91 *;
#X obj 350 145 pack f f f f;
#X obj 425 116 t b f;
#X obj 505 116 t b f;
#X obj 585 116 t b f;
#X obj 455 67 r ale2;
#X obj 535 67 r ale3;
#X obj 615 67 r ale4;
#X obj 452 20 r samph1R;
#X obj 670 65 *;
#X obj 670 90 *;
#X obj 745 66 *;
#X obj 745 91 *;
#X obj 825 66 *;
#X obj 825 91 *;
#X obj 905 66 *;
#X obj 905 91 *;
#X obj 670 145 pack f f f f;
#X obj 745 116 t b f;
#X obj 825 116 t b f;
#X obj 905 116 t b f;
#X obj 990 65 *;
#X obj 990 90 *;
#X obj 1065 66 *;
#X obj 1065 91 *;
#X obj 1145 66 *;
#X obj 1145 91 *;
#X obj 1225 66 *;
#X obj 1225 91 *;
#X obj 990 145 pack f f f f;
#X obj 1065 116 t b f;
#X obj 1145 116 t b f;
#X obj 1225 116 t b f;
#X obj 772 20 r samph2L;
#X obj 1092 20 r samph2R;
#X obj 940 20 r samph2adsr;
#X obj 670 230 oscformat samph2L;
#X obj 990 230 oscformat samph2R;
#X obj 1310 65 *;
#X obj 1310 90 *;
#X obj 1385 66 *;
#X obj 1385 91 *;
#X obj 1465 66 *;
#X obj 1465 91 *;
#X obj 1545 66 *;
#X obj 1545 91 *;
#X obj 1310 145 pack f f f f;
#X obj 1385 116 t b f;
#X obj 1465 116 t b f;
#X obj 1545 116 t b f;
#X obj 1630 65 *;
#X obj 1630 90 *;
#X obj 1705 66 *;
#X obj 1705 91 *;
#X obj 1785 66 *;
#X obj 1785 91 *;
#X obj 1865 66 *;
#X obj 1865 91 *;
#X obj 1630 145 pack f f f f;
#X obj 1705 116 t b f;
#X obj 1785 116 t b f;
#X obj 1865 116 t b f;
#X obj 1950 65 *;
#X obj 1950 90 *;
#X obj 2025 66 *;
#X obj 2025 91 *;
#X obj 2105 66 *;
#X obj 2105 91 *;
#X obj 2185 66 *;
#X obj 2185 91 *;
#X obj 1950 145 pack f f f f;
#X obj 2025 116 t b f;
#X obj 2105 116 t b f;
#X obj 2185 116 t b f;
#X obj 2270 65 *;
#X obj 2270 90 *;
#X obj 2345 66 *;
#X obj 2345 91 *;
#X obj 2425 66 *;
#X obj 2425 91 *;
#X obj 2505 66 *;
#X obj 2505 91 *;
#X obj 2270 145 pack f f f f;
#X obj 2345 116 t b f;
#X obj 2425 116 t b f;
#X obj 2505 116 t b f;
#X obj 1412 20 r samph3L;
#X obj 1732 20 r samph3R;
#X obj 1580 20 r samph3adsr;
#X obj 2052 20 r samph4L;
#X obj 2220 20 r samph4adsr;
#X obj 2372 20 r samph4R;
#X obj 2270 220 oscformat samph4R;
#X obj 1950 220 oscformat samph4L;
#X obj 1630 220 oscformat samph3R;
#X obj 1310 220 oscformat samph3L;
#X obj 208 805 *;
#X obj 208 830 *;
#X obj 283 806 *;
#X obj 283 831 *;
#X obj 363 806 *;
#X obj 363 831 *;
#X obj 443 806 *;
#X obj 443 831 *;
#X obj 208 885 pack f f f f;
#X obj 283 856 t b f;
#X obj 363 856 t b f;
#X obj 443 856 t b f;
#X obj 528 805 *;
#X obj 528 830 *;
#X obj 603 806 *;
#X obj 603 831 *;
#X obj 683 806 *;
#X obj 683 831 *;
#X obj 763 806 *;
#X obj 763 831 *;
#X obj 528 885 pack f f f f;
#X obj 603 856 t b f;
#X obj 683 856 t b f;
#X obj 763 856 t b f;
#X obj 848 805 *;
#X obj 848 830 *;
#X obj 923 806 *;
#X obj 923 831 *;
#X obj 1003 806 *;
#X obj 1003 831 *;
#X obj 1083 806 *;
#X obj 1083 831 *;
#X obj 848 885 pack f f f f;
#X obj 923 856 t b f;
#X obj 1003 856 t b f;
#X obj 1083 856 t b f;
#X obj 1168 805 *;
#X obj 1168 830 *;
#X obj 1243 806 *;
#X obj 1243 831 *;
#X obj 1323 806 *;
#X obj 1323 831 *;
#X obj 1403 806 *;
#X obj 1403 831 *;
#X obj 1168 885 pack f f f f;
#X obj 1243 856 t b f;
#X obj 1323 856 t b f;
#X obj 1403 856 t b f;
#X obj 1268 760 r simph2R;
#X obj 950 760 r simph2L;
#X obj 630 760 r simph1R;
#X obj 478 760 r simph1adsr;
#X obj 310 760 r simph1L;
#X obj 1118 760 r simph2adsr;
#X obj 1168 980 oscformat simph2R;
#X obj 848 980 oscformat simph2L;
#X obj 528 980 oscformat simph1R;
#X obj 208 980 oscformat simph1L;
#X obj 710 310 r diceTone1OSC;
#X obj 743 362 random 4;
#X msg 753 337 seed \$1;
#X msg 580 355 seed \$1;
#X obj 743 387 + 1;
#X obj 743 412 gate 4;
#X obj 580 415 pack;
#X obj 660 330 r ale8;
#X obj 660 355 * 48;
#X obj 660 380 + 200;
#X obj 710 335 t b b;
#X obj 82 507 *;
#X obj 82 532 *;
#X obj 157 508 *;
#X obj 157 533 *;
#X obj 237 508 *;
#X obj 237 533 *;
#X obj 317 508 *;
#X obj 317 533 *;
#X obj 82 617 pack f f f f;
#X obj 157 588 t b f;
#X obj 237 588 t b f;
#X obj 317 588 t b f;
#X obj 402 507 *;
#X obj 402 532 *;
#X obj 477 508 *;
#X obj 477 533 *;
#X obj 557 508 *;
#X obj 557 533 *;
#X obj 637 508 *;
#X obj 637 533 *;
#X obj 402 617 pack f f f f;
#X obj 477 588 t b f;
#X obj 557 588 t b f;
#X obj 637 588 t b f;
#X obj 184 462 r diceTone1L;
#X obj 504 462 r diceTone1R;
#X obj 352 462 r diceTone1adsr;
#X obj 82 702 oscformat diceTone1L;
#X obj 402 702 oscformat diceTone1R;
#X obj 842 507 *;
#X obj 842 532 *;
#X obj 872 508 r ale1;
#X obj 917 508 *;
#X obj 917 533 *;
#X obj 997 508 *;
#X obj 997 533 *;
#X obj 1077 508 *;
#X obj 1077 533 *;
#X obj 842 617 pack f f f f;
#X obj 917 588 t b f;
#X obj 997 588 t b f;
#X obj 1077 588 t b f;
#X obj 1162 507 *;
#X obj 1162 532 *;
#X obj 1192 508 r ale1;
#X obj 1237 508 *;
#X obj 1237 533 *;
#X obj 1317 508 *;
#X obj 1317 533 *;
#X obj 1397 508 *;
#X obj 1397 533 *;
#X obj 1162 617 pack f f f f;
#X obj 1237 588 t b f;
#X obj 1317 588 t b f;
#X obj 1397 588 t b f;
#X obj 944 462 r diceTone2L;
#X obj 1264 462 r diceTone2R;
#X obj 842 702 oscformat diceTone2L;
#X obj 1162 702 oscformat diceTone2R;
#X obj 700 66 r ale5;
#X obj 775 67 r ale6;
#X obj 855 67 r ale7;
#X obj 935 67 r ale8;
#X obj 1020 66 r ale5;
#X obj 1095 67 r ale6;
#X obj 1175 67 r ale7;
#X obj 1255 67 r ale8;
#X obj 1340 66 r ale9;
#X obj 1415 67 r ale10;
#X obj 1495 67 r ale11;
#X obj 1575 67 r ale12;
#X obj 1660 66 r ale9;
#X obj 1735 67 r ale10;
#X obj 1815 67 r ale11;
#X obj 1895 67 r ale12;
#X obj 2055 67 r ale14;
#X obj 2135 67 r ale15;
#X obj 2215 67 r ale16;
#X obj 2300 66 r ale13;
#X obj 1980 66 r ale13;
#X obj 2375 67 r ale14;
#X obj 2455 67 r ale15;
#X obj 2535 67 r ale16;
#X obj 112 508 r ale17;
#X obj 187 509 r ale18;
#X obj 267 509 r ale19;
#X obj 347 509 r ale20;
#X obj 432 508 r ale17;
#X obj 507 509 r ale18;
#X obj 587 509 r ale19;
#X obj 667 509 r ale20;
#X obj 580 330 r ale1;
#X obj 947 509 r ale3;
#X obj 1030 510 r ale5;
#X obj 1107 509 r ale7;
#X obj 1267 509 r ale3;
#X obj 1347 509 r ale5;
#X obj 1427 509 r ale7;
#X obj 238 806 r ale9;
#X obj 313 807 r ale11;
#X obj 393 807 r ale13;
#X obj 473 807 r ale15;
#X obj 558 806 r ale9;
#X obj 633 807 r ale11;
#X obj 713 807 r ale13;
#X obj 793 807 r ale15;
#X obj 878 806 r ale17;
#X obj 953 807 r ale19;
#X obj 1033 807 r ale20;
#X obj 1113 807 r ale18;
#X obj 1198 806 r ale7;
#X obj 1273 807 r ale19;
#X obj 1353 807 r ale20;
#X obj 1433 807 r ale18;
#X obj 886 1062 outlet;
#X obj 193 147 r width;
#X obj 30 174 list-math *;
#X obj 510 155 r width;
#X obj 350 174 list-math *;
#X obj 833 147 r width;
#X obj 670 174 list-math *;
#X obj 1153 147 r width;
#X obj 990 174 list-math *;
#X obj 350 230 oscformat samph1R;
#X obj 1493 147 r width;
#X obj 1310 174 list-math *;
#X obj 1813 147 r width;
#X obj 1630 174 list-math *;
#X obj 2133 147 r width;
#X obj 1950 174 list-math *;
#X obj 2453 147 r width;
#X obj 2270 174 list-math *;
#X obj 264 619 r width;
#X obj 80 644 list-math *;
#X obj 590 620 r width;
#X obj 400 644 list-math *;
#X obj 1030 625 r width;
#X obj 840 644 list-math *;
#X obj 1350 625 r width;
#X obj 1160 644 list-math *;
#X obj 380 895 r width;
#X obj 210 914 list-math *;
#X obj 700 895 r width;
#X obj 530 914 list-math *;
#X obj 1020 895 r width;
#X obj 850 914 list-math *;
#X obj 1336 888 r width;
#X obj 1170 914 list-math *;
#X obj 1550 875 oscformat lineW;
#X obj 193 172 / 800;
#X obj 510 180 / 800;
#X obj 833 172 / 800;
#X obj 1152 172 / 800;
#X obj 1493 172 / 800;
#X obj 1813 172 / 800;
#X obj 2133 172 / 800;
#X obj 2453 172 / 800;
#X obj 264 644 / 800;
#X obj 590 645 / 800;
#X obj 1030 650 / 800;
#X obj 1350 650 / 800;
#X obj 380 920 / 800;
#X obj 700 920 / 800;
#X obj 1020 920 / 800;
#X obj 1336 913 / 800;
#X obj 112 533 line;
#X obj 580 380 random 101;
#X obj 187 534 line;
#X obj 267 534 line;
#X obj 347 534 line;
#X obj 432 533 line;
#X obj 507 534 line;
#X obj 587 534 line;
#X obj 667 534 line;
#X obj 1453 362 random 4;
#X msg 1463 337 seed \$1;
#X msg 1290 355 seed \$1;
#X obj 1453 387 + 1;
#X obj 1453 412 gate 4;
#X obj 1290 415 pack;
#X obj 1370 330 r ale8;
#X obj 1370 355 * 48;
#X obj 1370 380 + 200;
#X obj 1420 335 t b b;
#X obj 1290 330 r ale1;
#X obj 1290 380 random 101;
#X obj 1420 310 r diceTone2OSC;
#X obj 872 533 line;
#X obj 947 534 line;
#X obj 1030 535 line;
#X obj 1107 534 line;
#X obj 1192 533 line;
#X obj 1267 534 line;
#X obj 1347 534 line;
#X obj 1427 534 line;
#X obj 1550 825 r ale7;
#X obj 1550 850 / 20;
#X floatatom 1500 870 5 0 0 0 - - -, f 5;
#X text 1550 800 lineWeight;
#X obj 1112 462 r diceTone2adsr;
#X obj 1393 197 *;
#X obj 1713 197 *;
#X obj 2033 197 *;
#X obj 2353 197 *;
#X obj 1400 170 r offSamph3;
#X obj 1740 160 r offSamph3;
#X obj 2370 170 r offSamph4;
#X obj 2050 170 r offSamph4;
#X obj 1075 171 r offSamph2;
#X obj 760 170 r offSamph2;
#X obj 430 160 r offSamph1;
#X obj 110 170 r offSamph1;
#X obj 113 197 *;
#X obj 433 197 *;
#X obj 753 197 *;
#X obj 1072 197 *;
#X obj 163 667 *;
#X obj 483 667 *;
#X obj 923 667 *;
#X obj 1243 667 *;
#X obj 170 640 r offDiceTone1;
#X obj 488 641 r offDiceTone1;
#X obj 930 640 r offDiceTone2;
#X obj 1240 640 r offDiceTone2;
#X obj 293 937 *;
#X obj 613 937 *;
#X obj 933 937 *;
#X obj 1253 937 *;
#X obj 300 910 r offSimph1;
#X obj 620 910 r offSimph1;
#X obj 940 910 r offSimph2;
#X obj 1250 900 r offSimph2;
#X connect 0 0 1 0;
#X connect 1 0 9 0;
#X connect 2 0 1 1;
#X connect 3 0 4 0;
#X connect 4 0 10 0;
#X connect 5 0 6 0;
#X connect 6 0 11 0;
#X connect 7 0 8 0;
#X connect 8 0 12 0;
#X connect 9 0 308 0;
#X connect 10 0 9 0;
#X connect 10 1 9 1;
#X connect 11 0 9 0;
#X connect 11 1 9 2;
#X connect 12 0 9 0;
#X connect 12 1 9 3;
#X connect 13 0 306 0;
#X connect 14 0 4 1;
#X connect 15 0 6 1;
#X connect 16 0 8 1;
#X connect 17 0 0 0;
#X connect 17 0 7 0;
#X connect 17 0 26 0;
#X connect 17 0 24 0;
#X connect 17 0 19 0;
#X connect 17 0 22 0;
#X connect 17 0 3 0;
#X connect 17 0 5 0;
#X connect 18 0 0 1;
#X connect 18 0 3 1;
#X connect 18 0 5 1;
#X connect 18 0 7 1;
#X connect 19 0 20 0;
#X connect 20 0 28 0;
#X connect 21 0 20 1;
#X connect 22 0 23 0;
#X connect 23 0 29 0;
#X connect 24 0 25 0;
#X connect 25 0 30 0;
#X connect 26 0 27 0;
#X connect 27 0 31 0;
#X connect 28 0 310 0;
#X connect 29 0 28 0;
#X connect 29 1 28 1;
#X connect 30 0 28 0;
#X connect 30 1 28 2;
#X connect 31 0 28 0;
#X connect 31 1 28 3;
#X connect 32 0 23 1;
#X connect 33 0 25 1;
#X connect 34 0 27 1;
#X connect 35 0 19 1;
#X connect 35 0 22 1;
#X connect 35 0 24 1;
#X connect 35 0 26 1;
#X connect 36 0 37 0;
#X connect 37 0 44 0;
#X connect 38 0 39 0;
#X connect 39 0 45 0;
#X connect 40 0 41 0;
#X connect 41 0 46 0;
#X connect 42 0 43 0;
#X connect 43 0 47 0;
#X connect 44 0 312 0;
#X connect 45 0 44 0;
#X connect 45 1 44 1;
#X connect 46 0 44 0;
#X connect 46 1 44 2;
#X connect 47 0 44 0;
#X connect 47 1 44 3;
#X connect 48 0 49 0;
#X connect 49 0 56 0;
#X connect 50 0 51 0;
#X connect 51 0 57 0;
#X connect 52 0 53 0;
#X connect 53 0 58 0;
#X connect 54 0 55 0;
#X connect 55 0 59 0;
#X connect 56 0 314 0;
#X connect 57 0 56 0;
#X connect 57 1 56 1;
#X connect 58 0 56 0;
#X connect 58 1 56 2;
#X connect 59 0 56 0;
#X connect 59 1 56 3;
#X connect 60 0 36 1;
#X connect 60 0 38 1;
#X connect 60 0 40 1;
#X connect 60 0 42 1;
#X connect 61 0 48 1;
#X connect 61 0 50 1;
#X connect 61 0 52 1;
#X connect 61 0 54 1;
#X connect 62 0 36 0;
#X connect 62 0 42 0;
#X connect 62 0 54 0;
#X connect 62 0 52 0;
#X connect 62 0 48 0;
#X connect 62 0 50 0;
#X connect 62 0 38 0;
#X connect 62 0 40 0;
#X connect 63 0 306 0;
#X connect 64 0 306 0;
#X connect 65 0 66 0;
#X connect 66 0 73 0;
#X connect 67 0 68 0;
#X connect 68 0 74 0;
#X connect 69 0 70 0;
#X connect 70 0 75 0;
#X connect 71 0 72 0;
#X connect 72 0 76 0;
#X connect 73 0 317 0;
#X connect 74 0 73 0;
#X connect 74 1 73 1;
#X connect 75 0 73 0;
#X connect 75 1 73 2;
#X connect 76 0 73 0;
#X connect 76 1 73 3;
#X connect 77 0 78 0;
#X connect 78 0 85 0;
#X connect 79 0 80 0;
#X connect 80 0 86 0;
#X connect 81 0 82 0;
#X connect 82 0 87 0;
#X connect 83 0 84 0;
#X connect 84 0 88 0;
#X connect 85 0 319 0;
#X connect 86 0 85 0;
#X connect 86 1 85 1;
#X connect 87 0 85 0;
#X connect 87 1 85 2;
#X connect 88 0 85 0;
#X connect 88 1 85 3;
#X connect 89 0 90 0;
#X connect 90 0 97 0;
#X connect 91 0 92 0;
#X connect 92 0 98 0;
#X connect 93 0 94 0;
#X connect 94 0 99 0;
#X connect 95 0 96 0;
#X connect 96 0 100 0;
#X connect 97 0 321 0;
#X connect 98 0 97 0;
#X connect 98 1 97 1;
#X connect 99 0 97 0;
#X connect 99 1 97 2;
#X connect 100 0 97 0;
#X connect 100 1 97 3;
#X connect 101 0 102 0;
#X connect 102 0 109 0;
#X connect 103 0 104 0;
#X connect 104 0 110 0;
#X connect 105 0 106 0;
#X connect 106 0 111 0;
#X connect 107 0 108 0;
#X connect 108 0 112 0;
#X connect 109 0 323 0;
#X connect 110 0 109 0;
#X connect 110 1 109 1;
#X connect 111 0 109 0;
#X connect 111 1 109 2;
#X connect 112 0 109 0;
#X connect 112 1 109 3;
#X connect 113 0 65 1;
#X connect 113 0 67 1;
#X connect 113 0 69 1;
#X connect 113 0 71 1;
#X connect 114 0 77 1;
#X connect 114 0 79 1;
#X connect 114 0 81 1;
#X connect 114 0 83 1;
#X connect 115 0 65 0;
#X connect 115 0 71 0;
#X connect 115 0 83 0;
#X connect 115 0 81 0;
#X connect 115 0 77 0;
#X connect 115 0 79 0;
#X connect 115 0 67 0;
#X connect 115 0 69 0;
#X connect 116 0 89 1;
#X connect 116 0 91 1;
#X connect 116 0 93 1;
#X connect 116 0 95 1;
#X connect 117 0 89 0;
#X connect 117 0 95 0;
#X connect 117 0 107 0;
#X connect 117 0 105 0;
#X connect 117 0 101 0;
#X connect 117 0 103 0;
#X connect 117 0 91 0;
#X connect 117 0 93 0;
#X connect 118 0 101 1;
#X connect 118 0 103 1;
#X connect 118 0 105 1;
#X connect 118 0 107 1;
#X connect 119 0 306 0;
#X connect 120 0 306 0;
#X connect 121 0 306 0;
#X connect 122 0 306 0;
#X connect 123 0 124 0;
#X connect 124 0 131 0;
#X connect 125 0 126 0;
#X connect 126 0 132 0;
#X connect 127 0 128 0;
#X connect 128 0 133 0;
#X connect 129 0 130 0;
#X connect 130 0 134 0;
#X connect 131 0 333 0;
#X connect 132 0 131 0;
#X connect 132 1 131 1;
#X connect 133 0 131 0;
#X connect 133 1 131 2;
#X connect 134 0 131 0;
#X connect 134 1 131 3;
#X connect 135 0 136 0;
#X connect 136 0 143 0;
#X connect 137 0 138 0;
#X connect 138 0 144 0;
#X connect 139 0 140 0;
#X connect 140 0 145 0;
#X connect 141 0 142 0;
#X connect 142 0 146 0;
#X connect 143 0 335 0;
#X connect 144 0 143 0;
#X connect 144 1 143 1;
#X connect 145 0 143 0;
#X connect 145 1 143 2;
#X connect 146 0 143 0;
#X connect 146 1 143 3;
#X connect 147 0 148 0;
#X connect 148 0 155 0;
#X connect 149 0 150 0;
#X connect 150 0 156 0;
#X connect 151 0 152 0;
#X connect 152 0 157 0;
#X connect 153 0 154 0;
#X connect 154 0 158 0;
#X connect 155 0 337 0;
#X connect 156 0 155 0;
#X connect 156 1 155 1;
#X connect 157 0 155 0;
#X connect 157 1 155 2;
#X connect 158 0 155 0;
#X connect 158 1 155 3;
#X connect 159 0 160 0;
#X connect 160 0 167 0;
#X connect 161 0 162 0;
#X connect 162 0 168 0;
#X connect 163 0 164 0;
#X connect 164 0 169 0;
#X connect 165 0 166 0;
#X connect 166 0 170 0;
#X connect 167 0 339 0;
#X connect 168 0 167 0;
#X connect 168 1 167 1;
#X connect 169 0 167 0;
#X connect 169 1 167 2;
#X connect 170 0 167 0;
#X connect 170 1 167 3;
#X connect 171 0 159 1;
#X connect 171 0 161 1;
#X connect 171 0 163 1;
#X connect 171 0 165 1;
#X connect 172 0 147 1;
#X connect 172 0 149 1;
#X connect 172 0 151 1;
#X connect 172 0 153 1;
#X connect 173 0 135 1;
#X connect 173 0 137 1;
#X connect 173 0 139 1;
#X connect 173 0 141 1;
#X connect 174 0 123 0;
#X connect 174 0 129 0;
#X connect 174 0 141 0;
#X connect 174 0 139 0;
#X connect 174 0 135 0;
#X connect 174 0 137 0;
#X connect 174 0 125 0;
#X connect 174 0 127 0;
#X connect 175 0 123 1;
#X connect 175 0 125 1;
#X connect 175 0 127 1;
#X connect 175 0 129 1;
#X connect 176 0 147 0;
#X connect 176 0 153 0;
#X connect 176 0 165 0;
#X connect 176 0 163 0;
#X connect 176 0 159 0;
#X connect 176 0 161 0;
#X connect 176 0 149 0;
#X connect 176 0 151 0;
#X connect 177 0 306 0;
#X connect 178 0 306 0;
#X connect 179 0 306 0;
#X connect 180 0 306 0;
#X connect 181 0 191 0;
#X connect 182 0 185 0;
#X connect 183 0 182 0;
#X connect 184 0 358 0;
#X connect 185 0 186 0;
#X connect 186 0 357 0;
#X connect 186 0 362 0;
#X connect 186 1 359 0;
#X connect 186 1 363 0;
#X connect 186 2 364 0;
#X connect 186 2 360 0;
#X connect 186 3 361 0;
#X connect 186 3 365 0;
#X connect 187 0 186 1;
#X connect 188 0 189 0;
#X connect 189 0 190 0;
#X connect 190 0 187 1;
#X connect 191 0 358 0;
#X connect 191 1 182 0;
#X connect 192 0 193 0;
#X connect 193 0 200 0;
#X connect 194 0 195 0;
#X connect 195 0 201 0;
#X connect 196 0 197 0;
#X connect 197 0 202 0;
#X connect 198 0 199 0;
#X connect 199 0 203 0;
#X connect 200 0 325 0;
#X connect 201 0 200 0;
#X connect 201 1 200 1;
#X connect 202 0 200 0;
#X connect 202 1 200 2;
#X connect 203 0 200 0;
#X connect 203 1 200 3;
#X connect 204 0 205 0;
#X connect 205 0 212 0;
#X connect 206 0 207 0;
#X connect 207 0 213 0;
#X connect 208 0 209 0;
#X connect 209 0 214 0;
#X connect 210 0 211 0;
#X connect 211 0 215 0;
#X connect 212 0 327 0;
#X connect 213 0 212 0;
#X connect 213 1 212 1;
#X connect 214 0 212 0;
#X connect 214 1 212 2;
#X connect 215 0 212 0;
#X connect 215 1 212 3;
#X connect 216 0 192 1;
#X connect 216 0 194 1;
#X connect 216 0 196 1;
#X connect 216 0 198 1;
#X connect 217 0 204 1;
#X connect 217 0 206 1;
#X connect 217 0 208 1;
#X connect 217 0 210 1;
#X connect 218 0 192 0;
#X connect 218 0 198 0;
#X connect 218 0 210 0;
#X connect 218 0 208 0;
#X connect 218 0 204 0;
#X connect 218 0 206 0;
#X connect 218 0 194 0;
#X connect 218 0 196 0;
#X connect 219 0 306 0;
#X connect 220 0 306 0;
#X connect 221 0 222 0;
#X connect 222 0 230 0;
#X connect 223 0 379 0;
#X connect 224 0 225 0;
#X connect 225 0 231 0;
#X connect 226 0 227 0;
#X connect 227 0 232 0;
#X connect 228 0 229 0;
#X connect 229 0 233 0;
#X connect 230 0 329 0;
#X connect 231 0 230 0;
#X connect 231 1 230 1;
#X connect 232 0 230 0;
#X connect 232 1 230 2;
#X connect 233 0 230 0;
#X connect 233 1 230 3;
#X connect 234 0 235 0;
#X connect 235 0 243 0;
#X connect 236 0 383 0;
#X connect 237 0 238 0;
#X connect 238 0 244 0;
#X connect 239 0 240 0;
#X connect 240 0 245 0;
#X connect 241 0 242 0;
#X connect 242 0 246 0;
#X connect 243 0 331 0;
#X connect 244 0 243 0;
#X connect 244 1 243 1;
#X connect 245 0 243 0;
#X connect 245 1 243 2;
#X connect 246 0 243 0;
#X connect 246 1 243 3;
#X connect 247 0 221 1;
#X connect 247 0 224 1;
#X connect 247 0 226 1;
#X connect 247 0 228 1;
#X connect 248 0 234 1;
#X connect 248 0 237 1;
#X connect 248 0 239 1;
#X connect 248 0 241 1;
#X connect 249 0 306 0;
#X connect 250 0 306 0;
#X connect 251 0 37 1;
#X connect 252 0 39 1;
#X connect 253 0 41 1;
#X connect 254 0 43 1;
#X connect 255 0 49 1;
#X connect 256 0 51 1;
#X connect 257 0 53 1;
#X connect 258 0 55 1;
#X connect 259 0 66 1;
#X connect 260 0 68 1;
#X connect 261 0 70 1;
#X connect 262 0 72 1;
#X connect 263 0 78 1;
#X connect 264 0 80 1;
#X connect 265 0 82 1;
#X connect 266 0 84 1;
#X connect 267 0 92 1;
#X connect 268 0 94 1;
#X connect 269 0 96 1;
#X connect 270 0 102 1;
#X connect 271 0 90 1;
#X connect 272 0 104 1;
#X connect 273 0 106 1;
#X connect 274 0 108 1;
#X connect 275 0 357 0;
#X connect 276 0 359 0;
#X connect 277 0 360 0;
#X connect 278 0 361 0;
#X connect 279 0 362 0;
#X connect 280 0 363 0;
#X connect 281 0 364 0;
#X connect 282 0 365 0;
#X connect 283 0 184 0;
#X connect 284 0 380 0;
#X connect 285 0 381 0;
#X connect 286 0 382 0;
#X connect 287 0 384 0;
#X connect 288 0 385 0;
#X connect 289 0 386 0;
#X connect 290 0 124 1;
#X connect 291 0 126 1;
#X connect 292 0 128 1;
#X connect 293 0 130 1;
#X connect 294 0 136 1;
#X connect 295 0 138 1;
#X connect 296 0 140 1;
#X connect 297 0 142 1;
#X connect 298 0 148 1;
#X connect 299 0 150 1;
#X connect 300 0 152 1;
#X connect 301 0 154 1;
#X connect 302 0 160 1;
#X connect 303 0 162 1;
#X connect 304 0 164 1;
#X connect 305 0 166 1;
#X connect 307 0 341 0;
#X connect 308 0 13 0;
#X connect 309 0 342 0;
#X connect 310 0 315 0;
#X connect 311 0 343 0;
#X connect 312 0 63 0;
#X connect 313 0 344 0;
#X connect 314 0 64 0;
#X connect 315 0 306 0;
#X connect 316 0 345 0;
#X connect 317 0 122 0;
#X connect 318 0 346 0;
#X connect 319 0 121 0;
#X connect 320 0 347 0;
#X connect 321 0 120 0;
#X connect 322 0 348 0;
#X connect 323 0 119 0;
#X connect 324 0 349 0;
#X connect 325 0 219 0;
#X connect 326 0 350 0;
#X connect 327 0 220 0;
#X connect 328 0 351 0;
#X connect 329 0 249 0;
#X connect 330 0 352 0;
#X connect 331 0 250 0;
#X connect 332 0 353 0;
#X connect 333 0 180 0;
#X connect 334 0 354 0;
#X connect 335 0 179 0;
#X connect 336 0 355 0;
#X connect 337 0 178 0;
#X connect 338 0 356 0;
#X connect 339 0 177 0;
#X connect 340 0 306 0;
#X connect 341 0 404 1;
#X connect 342 0 405 1;
#X connect 343 0 406 1;
#X connect 344 0 407 1;
#X connect 345 0 392 1;
#X connect 346 0 393 1;
#X connect 347 0 394 1;
#X connect 348 0 395 1;
#X connect 349 0 408 1;
#X connect 350 0 409 1;
#X connect 351 0 410 1;
#X connect 352 0 411 1;
#X connect 353 0 416 1;
#X connect 354 0 417 1;
#X connect 355 0 418 1;
#X connect 356 0 419 1;
#X connect 357 0 193 1;
#X connect 358 0 187 0;
#X connect 359 0 195 1;
#X connect 360 0 197 1;
#X connect 361 0 199 1;
#X connect 362 0 205 1;
#X connect 363 0 207 1;
#X connect 364 0 209 1;
#X connect 365 0 211 1;
#X connect 366 0 369 0;
#X connect 367 0 366 0;
#X connect 368 0 377 0;
#X connect 369 0 370 0;
#X connect 370 0 379 0;
#X connect 370 0 383 0;
#X connect 370 1 384 0;
#X connect 370 1 380 0;
#X connect 370 2 385 0;
#X connect 370 2 381 0;
#X connect 370 3 386 0;
#X connect 370 3 382 0;
#X connect 371 0 370 1;
#X connect 372 0 373 0;
#X connect 373 0 374 0;
#X connect 374 0 371 1;
#X connect 375 0 377 0;
#X connect 375 1 366 0;
#X connect 376 0 368 0;
#X connect 377 0 371 0;
#X connect 378 0 375 0;
#X connect 379 0 222 1;
#X connect 380 0 225 1;
#X connect 381 0 227 1;
#X connect 382 0 229 1;
#X connect 383 0 235 1;
#X connect 384 0 238 1;
#X connect 385 0 240 1;
#X connect 386 0 242 1;
#X connect 387 0 388 0;
#X connect 388 0 340 0;
#X connect 388 0 389 0;
#X connect 391 0 221 0;
#X connect 391 0 228 0;
#X connect 391 0 241 0;
#X connect 391 0 239 0;
#X connect 391 0 234 0;
#X connect 391 0 237 0;
#X connect 391 0 224 0;
#X connect 391 0 226 0;
#X connect 392 0 317 1;
#X connect 393 0 319 1;
#X connect 394 0 321 1;
#X connect 395 0 323 1;
#X connect 396 0 392 0;
#X connect 397 0 393 0;
#X connect 398 0 395 0;
#X connect 399 0 394 0;
#X connect 400 0 407 0;
#X connect 401 0 406 0;
#X connect 402 0 405 0;
#X connect 403 0 404 0;
#X connect 404 0 308 1;
#X connect 405 0 310 1;
#X connect 406 0 312 1;
#X connect 407 0 314 1;
#X connect 408 0 325 1;
#X connect 409 0 327 1;
#X connect 410 0 329 1;
#X connect 411 0 331 1;
#X connect 412 0 408 0;
#X connect 413 0 409 0;
#X connect 414 0 410 0;
#X connect 415 0 411 0;
#X connect 416 0 333 1;
#X connect 417 0 335 1;
#X connect 418 0 337 1;
#X connect 419 0 339 1;
#X connect 420 0 416 0;
#X connect 421 0 417 0;
#X connect 422 0 418 0;
#X connect 423 0 419 0;
#X restore 600 40 pd all-noty;
#N canvas 242 48 1208 754 eclipse 0;
#X obj 138 507 oscformat eclipse;
#X obj 480 710 outlet;
#X obj 138 123 r ale20;
#X obj 198 123 r ale18;
#X obj 138 148 * 4;
#X obj 138 173 / 25;
#X obj 198 148 * 4;
#X obj 198 173 / 25;
#X obj 138 198 - 8;
#X obj 198 198 - 8;
#X obj 504 130 r ale5;
#X msg 504 155 seed \$1;
#X obj 494 205 + 2000;
#X obj 494 180 random 58000;
#X obj 494 310 line;
#X obj 505 20 r ale1;
#X msg 505 45 seed \$1;
#X obj 495 70 random 2;
#X obj 495 95 sel 0 1;
#X obj 620 310 sel 0 360;
#X obj 510 610 oscformat moonR;
#X obj 494 230 f;
#X msg 594 155 seed \$1;
#X obj 584 205 + 2000;
#X obj 584 180 random 58000;
#X obj 584 230 f;
#X obj 594 130 r ale6;
#X msg 494 260 359 \, 0 \$1;
#X msg 584 260 1 \, 360 \$1;
#X obj 258 123 r ale15;
#X obj 258 148 t b f;
#X obj 258 198 random 2;
#X obj 138 232 pack f f f;
#X msg 285 173 seed \$1;
#X obj 701 -18 r start-sect;
#X obj 701 7 bng 15 250 50 0 empty empty empty 17 7 0 10 #fcfcfc #000000
#000000;
#X obj 781 112 spigot;
#X obj 737 24 f 0;
#X obj 771 25 + 1;
#X obj 737 49 sel 0;
#X msg 737 74 1;
#X obj 771 72 bng 15 250 50 0 empty empty empty 17 7 0 10 #fcfcfc #000000
#000000;
#X obj 400 14 r colors;
#X connect 0 0 1 0;
#X connect 2 0 4 0;
#X connect 3 0 6 0;
#X connect 4 0 5 0;
#X connect 5 0 8 0;
#X connect 6 0 7 0;
#X connect 7 0 9 0;
#X connect 8 0 32 0;
#X connect 9 0 32 1;
#X connect 10 0 11 0;
#X connect 11 0 13 0;
#X connect 12 0 21 0;
#X connect 13 0 12 0;
#X connect 14 0 19 0;
#X connect 14 0 20 0;
#X connect 15 0 16 0;
#X connect 16 0 17 0;
#X connect 17 0 18 0;
#X connect 18 0 13 0;
#X connect 18 1 24 0;
#X connect 19 0 21 0;
#X connect 19 1 25 0;
#X connect 20 0 1 0;
#X connect 21 0 27 0;
#X connect 22 0 24 0;
#X connect 23 0 25 0;
#X connect 24 0 23 0;
#X connect 25 0 28 0;
#X connect 26 0 22 0;
#X connect 27 0 14 0;
#X connect 28 0 14 0;
#X connect 29 0 30 0;
#X connect 30 0 31 0;
#X connect 30 1 33 0;
#X connect 31 0 32 2;
#X connect 32 0 0 0;
#X connect 33 0 31 0;
#X connect 34 0 35 0;
#X connect 35 0 37 0;
#X connect 36 0 17 0;
#X connect 37 0 38 0;
#X connect 37 0 39 0;
#X connect 38 0 37 1;
#X connect 39 0 40 0;
#X connect 39 1 41 0;
#X connect 40 0 36 1;
#X connect 41 0 36 0;
#X connect 42 0 17 0;
#X restore 590 20 pd eclipse;
#N canvas 0 0 1693 850 nm 0;
#X text 310 127 speed(1-10);
#X text 660 127 n of strips(1-4);
#X obj 640 241 r ale11;
#X obj 690 241 r ale12;
#X obj 740 241 r ale13;
#X obj 790 241 r ale14;
#X obj 640 266 mod 4;
#X obj 690 266 mod 4;
#X obj 740 266 mod 4;
#X obj 790 266 mod 4;
#X obj 640 291 + 1;
#X obj 690 291 + 1;
#X obj 740 291 + 1;
#X obj 790 291 + 1;
#X obj 545 291 t b f;
#X obj 585 291 t b f;
#X text 540 127 lean (-100-100);
#X obj 280 202 random 9;
#X obj 280 227 + 1;
#X msg 280 178 seed \$1;
#X obj 340 202 random 9;
#X obj 340 227 + 1;
#X msg 340 178 seed \$1;
#X obj 400 202 random 9;
#X obj 400 227 + 1;
#X msg 400 178 seed \$1;
#X obj 460 202 random 9;
#X obj 460 227 + 1;
#X msg 460 178 seed \$1;
#X obj 280 153 r ale5;
#X obj 340 153 r ale10;
#X obj 400 153 r ale15;
#X obj 460 153 r ale20;
#X msg 80 156 seed \$1;
#X obj 80 180 random 359;
#X msg 160 156 seed \$1;
#X obj 160 205 + 10000;
#X obj 199 80 t b f b f b;
#X obj 170 245 pack;
#X obj 170 270 line;
#X obj 179 45 r nmData;
#X obj 339 396 oscformat nmData;
#X obj 339 371 pack f f f f f f f;
#X obj 680 327 f;
#X obj 710 327 f;
#X obj 740 327 f;
#X obj 770 327 f;
#X obj 671 54 r nmOnOff;
#X obj 671 79 sel 0 1;
#X msg 640 327 0;
#X obj 640 352 t f f;
#X obj 640 377 pack f f f f;
#X obj 690 103 t b b;
#X obj 640 402 oscformat nmOnOff;
#X obj 160 180 random 50000;
#X obj 545 152 r nmR;
#X obj 545 177 * 2;
#X obj 545 202 - 100;
#X obj 585 177 * 2;
#X obj 585 202 - 100;
#X obj 585 152 r nmL;
#X obj 367 475 outlet;
#X text 100 120 Rotation angle;
#X text 390 70 Controls faixa;
#X connect 2 0 6 0;
#X connect 3 0 7 0;
#X connect 4 0 8 0;
#X connect 5 0 9 0;
#X connect 6 0 10 0;
#X connect 7 0 11 0;
#X connect 8 0 12 0;
#X connect 9 0 13 0;
#X connect 10 0 43 1;
#X connect 11 0 44 1;
#X connect 12 0 45 1;
#X connect 13 0 46 1;
#X connect 14 0 42 0;
#X connect 14 1 42 5;
#X connect 15 0 42 0;
#X connect 15 1 42 6;
#X connect 17 0 18 0;
#X connect 18 0 42 1;
#X connect 19 0 17 0;
#X connect 20 0 21 0;
#X connect 21 0 42 2;
#X connect 22 0 20 0;
#X connect 23 0 24 0;
#X connect 24 0 42 3;
#X connect 25 0 23 0;
#X connect 26 0 27 0;
#X connect 27 0 42 4;
#X connect 28 0 26 0;
#X connect 29 0 19 0;
#X connect 30 0 22 0;
#X connect 31 0 25 0;
#X connect 32 0 28 0;
#X connect 33 0 34 0;
#X connect 34 0 38 0;
#X connect 35 0 54 0;
#X connect 36 0 38 1;
#X connect 37 0 34 0;
#X connect 37 1 33 0;
#X connect 37 2 54 0;
#X connect 37 3 35 0;
#X connect 37 4 17 0;
#X connect 37 4 26 0;
#X connect 37 4 23 0;
#X connect 37 4 20 0;
#X connect 38 0 39 0;
#X connect 39 0 42 0;
#X connect 40 0 37 0;
#X connect 41 0 61 0;
#X connect 42 0 41 0;
#X connect 43 0 51 0;
#X connect 44 0 51 1;
#X connect 45 0 51 2;
#X connect 46 0 51 3;
#X connect 47 0 48 0;
#X connect 48 0 49 0;
#X connect 48 1 52 0;
#X connect 49 0 50 0;
#X connect 50 0 51 0;
#X connect 50 1 51 3;
#X connect 50 1 51 2;
#X connect 50 1 51 1;
#X connect 51 0 53 0;
#X connect 52 0 43 0;
#X connect 52 1 46 0;
#X connect 52 1 45 0;
#X connect 52 1 44 0;
#X connect 53 0 61 0;
#X connect 54 0 36 0;
#X connect 55 0 56 0;
#X connect 56 0 57 0;
#X connect 57 0 14 0;
#X connect 58 0 59 0;
#X connect 59 0 15 0;
#X connect 60 0 58 0;
#X restore 609 60 pd nm;
#N canvas 420 224 852 402 walker1 0;
#X obj 100 132 r grains1hit;
#X obj 420 70 r grains1onOff;
#X obj 418 170 r ale3;
#X msg 428 221 seed \$1;
#X obj 418 195 t b f;
#X obj 418 247 random 100000;
#X obj 110 200 r ale7;
#X msg 110 225 seed \$1;
#X obj 100 250 random;
#X obj 158 202 r width;
#X msg 220 225 seed \$1;
#X obj 210 250 random;
#X obj 220 200 r ale10;
#X msg 339 225 seed \$1;
#X obj 339 200 r ale13;
#X obj 218 387 oscformat walkerData;
#X obj 518 170 r ale3;
#X msg 528 221 seed \$1;
#X obj 518 195 t b f;
#X obj 518 272 + 1;
#X obj 419 105 sel 0 1;
#X obj 100 157 t b b b;
#X obj 278 202 r height;
#X obj 518 247 random 100;
#X obj 327 277 + 1;
#X obj 328 252 random 29;
#X obj 218 412 outlet;
#X text 350 340 x \, y \, size \, seed \, spd \, color squeme;
#X msg 610 250 0;
#X obj 218 332 pack f f f f f f;
#X obj 390 403 print walker1;
#X connect 0 0 21 0;
#X connect 1 0 20 0;
#X connect 2 0 4 0;
#X connect 3 0 5 0;
#X connect 4 0 5 0;
#X connect 4 1 3 0;
#X connect 5 0 29 3;
#X connect 6 0 7 0;
#X connect 7 0 8 0;
#X connect 8 0 29 0;
#X connect 9 0 8 1;
#X connect 10 0 11 0;
#X connect 11 0 29 1;
#X connect 12 0 10 0;
#X connect 13 0 25 0;
#X connect 14 0 13 0;
#X connect 15 0 26 0;
#X connect 16 0 18 0;
#X connect 17 0 23 0;
#X connect 18 0 23 0;
#X connect 18 1 17 0;
#X connect 19 0 29 4;
#X connect 20 1 23 0;
#X connect 20 1 25 0;
#X connect 20 1 28 0;
#X connect 21 0 8 0;
#X connect 21 1 11 0;
#X connect 21 2 5 0;
#X connect 22 0 11 1;
#X connect 23 0 19 0;
#X connect 24 0 29 2;
#X connect 25 0 24 0;
#X connect 28 0 29 5;
#X connect 29 0 15 0;
#X restore 619 80 pd walker1;
#N canvas 334 0 1024 850 walker2 0;
#X obj 418 170 r ale3;
#X msg 428 221 seed \$1;
#X obj 418 195 t b f;
#X obj 418 247 random 100000;
#X obj 110 200 r ale7;
#X msg 110 225 seed \$1;
#X obj 100 250 random;
#X obj 158 202 r width;
#X msg 220 225 seed \$1;
#X obj 210 250 random;
#X obj 220 200 r ale10;
#X msg 339 225 seed \$1;
#X obj 339 200 r ale13;
#X obj 218 387 oscformat walkerData;
#X obj 518 170 r ale3;
#X msg 528 221 seed \$1;
#X obj 518 195 t b f;
#X obj 518 272 + 1;
#X obj 419 105 sel 0 1;
#X obj 436 130 t b b;
#X obj 100 157 t b b b;
#X obj 278 202 r height;
#X obj 518 247 random 100;
#X obj 327 277 + 1;
#X obj 328 252 random 29;
#X obj 218 412 outlet;
#X obj 100 132 r grains2hit;
#X obj 420 70 r grains2onOff;
#X msg 617 239 1;
#X obj 218 332 pack f f f f f f;
#X obj 350 360 print walker2;
#X connect 0 0 2 0;
#X connect 1 0 3 0;
#X connect 2 0 3 0;
#X connect 2 1 1 0;
#X connect 3 0 29 3;
#X connect 4 0 5 0;
#X connect 5 0 6 0;
#X connect 6 0 29 0;
#X connect 7 0 6 1;
#X connect 8 0 9 0;
#X connect 9 0 29 1;
#X connect 10 0 8 0;
#X connect 11 0 24 0;
#X connect 12 0 11 0;
#X connect 13 0 25 0;
#X connect 14 0 16 0;
#X connect 15 0 22 0;
#X connect 16 0 22 0;
#X connect 16 1 15 0;
#X connect 17 0 29 4;
#X connect 18 1 19 0;
#X connect 19 1 22 0;
#X connect 19 1 24 0;
#X connect 19 1 28 0;
#X connect 20 0 6 0;
#X connect 20 1 9 0;
#X connect 20 2 3 0;
#X connect 21 0 9 1;
#X connect 22 0 17 0;
#X connect 23 0 29 2;
#X connect 24 0 23 0;
#X connect 26 0 20 0;
#X connect 27 0 18 0;
#X connect 28 0 29 5;
#X connect 29 0 13 0;
#X restore 629 100 pd walker2;
#N canvas 420 224 852 402 ripples 0;
#X obj 23 324 r noise-popsPan;
#X obj 122 326 r ale18;
#X msg 122 351 seed \$1;
#X obj 122 376 random;
#X obj 178 353 r height;
#X obj 240 300 r ale16;
#X obj 180 465 oscformat rippleData;
#X obj 23 404 f;
#X obj 83 303 t b b;
#X obj 23 379 *;
#X obj 58 358 r width;
#X obj 320 360 r ale19;
#X obj 320 385 * 10;
#X obj 122 401 + 1;
#X obj 178 378 - 1;
#X obj 180 490 outlet;
#X obj 81 21 r noise-popsHit;
#X obj 239 326 maxlib/scale 0 100 1.4 0.4 1;
#X obj 320 410 * 1;
#X text 270 440 x y fadingVariable del growthRate;
#X obj 180 440 pack f f f f f;
#X obj 380 360 r ale20;
#X obj 380 385 mod 5;
#X obj 380 410 + 1;
#X obj 100 150 tgl 15 0 empty empty empty 17 7 0 10 #fcfcfc #000000
#000000 1 1;
#X obj 100 199 f 0;
#X obj 130 199 + 1;
#X floatatom 100 224 5 0 0 0 - - -, f 5;
#X msg 220 208 0;
#X obj 100 173 metro 1000;
#X obj 201 159 tgl 15 0 empty empty empty 17 7 0 10 #fcfcfc #000000
#000000 0 1;
#X obj 81 49 spigot;
#X obj 81 74 bng 15 250 50 0 empty empty empty 17 7 0 10 #fcfcfc #000000
#000000;
#X obj 81 97 t b b b;
#X msg 130 122 0;
#X msg 100 122 1;
#X obj 100 273 t b b;
#X msg 250 208 1;
#X obj 201 46 loadbang;
#X msg 201 71 1;
#X text 230 98 limits the time between the ripples in seconds;
#X text 230 123 to reduce computational strain;
#X text 230 148 edit [sel 5] variable to increase time;
#X obj 239 351 * 100;
#X obj 239 376 int;
#X obj 239 401 / 100;
#X obj 100 248 sel 5;
#X connect 0 0 9 0;
#X connect 1 0 2 0;
#X connect 2 0 3 0;
#X connect 3 0 13 0;
#X connect 4 0 14 0;
#X connect 5 0 17 0;
#X connect 6 0 15 0;
#X connect 7 0 20 0;
#X connect 8 0 7 0;
#X connect 8 1 3 0;
#X connect 9 0 7 1;
#X connect 10 0 9 1;
#X connect 11 0 12 0;
#X connect 12 0 18 0;
#X connect 13 0 20 1;
#X connect 14 0 3 1;
#X connect 16 0 31 0;
#X connect 17 0 43 0;
#X connect 18 0 20 3;
#X connect 20 0 6 0;
#X connect 21 0 22 0;
#X connect 22 0 23 0;
#X connect 23 0 20 4;
#X connect 24 0 29 0;
#X connect 25 0 26 0;
#X connect 25 0 27 0;
#X connect 26 0 25 1;
#X connect 27 0 46 0;
#X connect 28 0 25 1;
#X connect 28 0 24 0;
#X connect 29 0 25 0;
#X connect 30 0 31 1;
#X connect 31 0 32 0;
#X connect 32 0 33 0;
#X connect 33 0 8 0;
#X connect 33 1 35 0;
#X connect 33 2 34 0;
#X connect 34 0 30 0;
#X connect 35 0 24 0;
#X connect 36 0 28 0;
#X connect 36 1 37 0;
#X connect 37 0 30 0;
#X connect 38 0 39 0;
#X connect 39 0 30 0;
#X connect 43 0 44 0;
#X connect 44 0 45 0;
#X connect 45 0 20 2;
#X connect 46 0 36 0;
#X restore 639 120 pd ripples;
#N canvas 0 0 852 856 star1 0;
#X obj 420 390 t b f;
#X floatatom 180 220 5 0 0 0 - - -, f 5;
#X obj 220 220 tgl 15 0 empty empty empty 17 7 0 10 #fcfcfc #000000
#000000 0 1;
#X obj 80 315 oscformat starData1;
#X floatatom 260 220 5 0 0 0 - - -, f 5;
#X obj 80 290 pack f f f f f;
#X obj 550 126 r star1rad;
#X obj 550 150 * 1.5;
#X obj 107 141 pi;
#X obj 80 115 t f b;
#X obj 107 166 * 2;
#X obj 80 190 *;
#X obj 80 215 / 100;
#X floatatom 80 240 5 0 0 0 - - -, f 5;
#X obj 80 90 r star1dist;
#X obj 80 340 outlet;
#X obj 190 96 r ale3;
#X obj 240 96 r ale1;
#X obj 290 96 r ale4;
#X obj 190 121 / 2;
#X obj 190 146 int;
#X obj 190 171 + 2;
#X obj 240 121 mod 2;
#X text 80 50 distortion (0-2PI) \, radius (0-150) \, npoints 2-50
\, midCircle(0or1) \, lineW (1-9);
#X obj 290 121 * 2;
#X obj 290 146 / 25;
#X obj 290 171 + 1;
#X obj 420 100 r star1off;
#X obj 650 200 r width;
#X obj 420 125 pipe 100;
#X obj 420 285 t b b;
#X obj 447 310 f;
#X obj 420 361 line;
#X obj 650 230 / -18;
#X obj 420 310 f;
#X msg 420 336 \$1 500;
#X obj 420 150 sel 0 1;
#X obj 550 250 spigot;
#X msg 620 220 0;
#X obj 510 210 f;
#X obj 480 210 f;
#X msg 440 210 1;
#X obj 440 180 t b b b;
#X text 420 80 handles on/off animation;
#X obj 290 196 int;
#X connect 0 0 5 0;
#X connect 0 1 5 1;
#X connect 0 1 31 1;
#X connect 1 0 5 2;
#X connect 2 0 5 3;
#X connect 3 0 15 0;
#X connect 4 0 5 4;
#X connect 5 0 3 0;
#X connect 6 0 7 0;
#X connect 7 0 37 0;
#X connect 7 0 40 1;
#X connect 8 0 10 0;
#X connect 9 0 11 0;
#X connect 9 1 8 0;
#X connect 10 0 11 1;
#X connect 11 0 12 0;
#X connect 12 0 13 0;
#X connect 13 0 5 0;
#X connect 14 0 9 0;
#X connect 16 0 19 0;
#X connect 17 0 22 0;
#X connect 18 0 24 0;
#X connect 19 0 20 0;
#X connect 20 0 21 0;
#X connect 21 0 1 0;
#X connect 22 0 2 0;
#X connect 24 0 25 0;
#X connect 25 0 26 0;
#X connect 26 0 44 0;
#X connect 27 0 29 0;
#X connect 28 0 33 0;
#X connect 29 0 36 0;
#X connect 30 0 34 0;
#X connect 30 1 31 0;
#X connect 30 1 38 0;
#X connect 31 0 32 0;
#X connect 32 0 0 0;
#X connect 33 0 34 1;
#X connect 33 0 32 0;
#X connect 33 0 39 1;
#X connect 34 0 35 0;
#X connect 35 0 32 0;
#X connect 36 0 30 0;
#X connect 36 1 42 0;
#X connect 37 0 0 0;
#X connect 38 0 37 1;
#X connect 39 0 32 0;
#X connect 40 0 35 0;
#X connect 41 0 37 1;
#X connect 42 0 41 0;
#X connect 42 1 40 0;
#X connect 42 2 39 0;
#X connect 44 0 4 0;
#X restore 649 140 pd star1;
#N canvas 251 0 852 826 star2 0;
#X obj 360 360 t b f;
#X floatatom 120 190 5 0 0 0 - - -, f 5;
#X obj 160 190 tgl 15 0 empty empty empty 17 7 0 10 #fcfcfc #000000
#000000 1 1;
#X floatatom 200 190 5 0 0 0 - - -, f 5;
#X obj 20 260 pack f f f f f;
#X obj 490 120 * 1.5;
#X obj 47 111 pi;
#X obj 20 85 t f b;
#X obj 47 136 * 2;
#X obj 20 160 *;
#X obj 20 185 / 100;
#X floatatom 20 210 5 0 0 0 - - -, f 5;
#X obj 20 310 outlet;
#X obj 130 91 / 2;
#X obj 130 116 int;
#X obj 130 141 + 2;
#X obj 180 91 mod 2;
#X text 20 20 distortion (0-2PI) \, radius (0-150) \, npoints 2-50
\, midCircle(0or1) \, lineW (1-9);
#X obj 230 91 * 2;
#X obj 230 116 / 25;
#X obj 230 141 + 1;
#X obj 590 170 r width;
#X obj 360 95 pipe 100;
#X obj 360 255 t b b;
#X obj 387 280 f;
#X obj 360 331 line;
#X obj 590 200 / -18;
#X obj 360 280 f;
#X msg 360 306 \$1 500;
#X obj 360 120 sel 0 1;
#X obj 490 220 spigot;
#X msg 560 190 0;
#X obj 450 180 f;
#X obj 420 180 f;
#X msg 380 180 1;
#X obj 380 150 t b b b;
#X text 360 50 handles on/off animation;
#X obj 360 70 r star2off;
#X obj 20 60 r star2dist;
#X obj 20 285 oscformat starData2;
#X obj 490 96 r star2rad;
#X obj 130 66 r ale6;
#X obj 180 66 r ale2;
#X obj 230 66 r ale8;
#X obj 230 166 int;
#X connect 0 0 4 0;
#X connect 0 1 4 1;
#X connect 0 1 24 1;
#X connect 1 0 4 2;
#X connect 2 0 4 3;
#X connect 3 0 4 4;
#X connect 4 0 39 0;
#X connect 5 0 30 0;
#X connect 5 0 33 1;
#X connect 6 0 8 0;
#X connect 7 0 9 0;
#X connect 7 1 6 0;
#X connect 8 0 9 1;
#X connect 9 0 10 0;
#X connect 10 0 11 0;
#X connect 11 0 4 0;
#X connect 13 0 14 0;
#X connect 14 0 15 0;
#X connect 15 0 1 0;
#X connect 16 0 2 0;
#X connect 18 0 19 0;
#X connect 19 0 20 0;
#X connect 20 0 44 0;
#X connect 21 0 26 0;
#X connect 22 0 29 0;
#X connect 23 0 27 0;
#X connect 23 1 24 0;
#X connect 23 1 31 0;
#X connect 24 0 25 0;
#X connect 25 0 0 0;
#X connect 26 0 27 1;
#X connect 26 0 25 0;
#X connect 26 0 32 1;
#X connect 27 0 28 0;
#X connect 28 0 25 0;
#X connect 29 0 23 0;
#X connect 29 1 35 0;
#X connect 30 0 0 0;
#X connect 31 0 30 1;
#X connect 32 0 25 0;
#X connect 33 0 28 0;
#X connect 34 0 30 1;
#X connect 35 0 34 0;
#X connect 35 1 33 0;
#X connect 35 2 32 0;
#X connect 37 0 22 0;
#X connect 38 0 7 0;
#X connect 39 0 12 0;
#X connect 40 0 5 0;
#X connect 41 0 13 0;
#X connect 42 0 16 0;
#X connect 43 0 18 0;
#X connect 44 0 3 0;
#X restore 659 160 pd star2;
#N canvas 30 124 864 828 camControl 0;
#X obj 242 528 oscformat camData;
#X floatatom 127 420 5 0 0 0 - - -, f 5;
#X floatatom 237 420 5 0 0 0 - - -, f 5;
#X floatatom 337 420 5 0 0 0 - - -, f 5;
#X text 0 40 Eye position (xyz);
#X text 20 60 x (w to -w);
#X obj 176 264 r width;
#X obj 161 313 t f f;
#X obj 161 338 * 2;
#X obj 127 371 random;
#X obj 127 396 -;
#X obj 161 289 f;
#X obj 103 322 r ale1;
#X msg 103 347 seed \$1;
#X obj 177 370 t b f;
#X obj 330 200 r height;
#X text 20 80 y (-2h to h/3);
#X obj 287 262 t f f;
#X obj 317 289 / 3;
#X obj 287 289 * 2;
#X obj 287 314 t f f;
#X obj 287 339 +;
#X obj 237 394 -;
#X text 20 100 x (0 to h/3);
#X obj 287 237 f;
#X obj 287 364 t b f;
#X obj 237 364 random;
#X msg 226 337 seed \$1;
#X obj 226 312 r ale2;
#X obj 357 364 random;
#X msg 346 337 seed \$1;
#X obj 346 312 r ale3;
#X obj 397 310 f;
#X obj 412 286 / 3;
#X obj 407 364 t b f;
#X obj 219 85 f 0;
#X obj 249 85 + 1;
#X floatatom 219 110 5 0 0 0 - - -, f 5;
#X obj 219 134 sel 10;
#X msg 279 84 seed \$1;
#X msg 185 159 0;
#X obj 342 107 t b f;
#X obj 342 82 r ale4;
#X text 160 0 Changes the camera angle randomly every x bangs;
#X obj 242 553 outlet;
#X text 20 120 seed for random movement;
#X obj 240 490 pack f f f f;
#X floatatom 447 420 5 0 0 0 - - -, f 5;
#X msg 476 247 seed \$1;
#X obj 476 222 r ale3;
#X obj 467 274 random 80000;
#X obj 227 180 t b b b b;
#X obj 279 134 + 5;
#X obj 279 109 random 30;
#X obj 220 20 r simph-delHit;
#X obj 220 45 spigot;
#X obj 370 30 r monoN;
#X msg 370 55 1;
#X obj 312 26 r noMono;
#X connect 0 0 44 0;
#X connect 1 0 46 0;
#X connect 2 0 46 1;
#X connect 3 0 46 2;
#X connect 6 0 11 1;
#X connect 7 0 8 0;
#X connect 7 1 10 1;
#X connect 8 0 14 0;
#X connect 9 0 10 0;
#X connect 10 0 1 0;
#X connect 11 0 7 0;
#X connect 12 0 13 0;
#X connect 13 0 9 0;
#X connect 14 0 9 0;
#X connect 14 1 9 1;
#X connect 15 0 24 1;
#X connect 15 0 33 0;
#X connect 17 0 19 0;
#X connect 17 1 18 0;
#X connect 18 0 21 1;
#X connect 19 0 20 0;
#X connect 20 0 21 0;
#X connect 20 1 22 1;
#X connect 21 0 25 0;
#X connect 22 0 2 0;
#X connect 24 0 17 0;
#X connect 25 0 26 0;
#X connect 25 1 26 1;
#X connect 26 0 22 0;
#X connect 27 0 26 0;
#X connect 28 0 27 0;
#X connect 29 0 3 0;
#X connect 30 0 29 0;
#X connect 31 0 30 0;
#X connect 32 0 34 0;
#X connect 33 0 32 1;
#X connect 34 0 29 0;
#X connect 34 1 29 1;
#X connect 35 0 36 0;
#X connect 35 0 37 0;
#X connect 36 0 35 1;
#X connect 37 0 38 0;
#X connect 38 0 40 0;
#X connect 38 0 51 0;
#X connect 39 0 53 0;
#X connect 40 0 35 0;
#X connect 41 0 53 0;
#X connect 41 1 39 0;
#X connect 42 0 41 0;
#X connect 46 0 0 0;
#X connect 47 0 46 3;
#X connect 48 0 50 0;
#X connect 49 0 48 0;
#X connect 50 0 47 0;
#X connect 51 0 11 0;
#X connect 51 1 24 0;
#X connect 51 2 32 0;
#X connect 51 3 50 0;
#X connect 52 0 38 1;
#X connect 53 0 52 0;
#X connect 54 0 55 0;
#X connect 55 0 35 0;
#X connect 56 0 57 0;
#X connect 57 0 55 1;
#X connect 58 0 55 1;
#X restore 679 200 pd camControl;
#N canvas 268 258 462 330 monoData 0;
#X obj 20 160 oscformat monoData;
#X obj 20 185 outlet;
#X msg 29 83 seed \$1;
#X obj 29 58 r ale13;
#X obj 20 110 random 9;
#X obj 20 135 + 1;
#X obj 20 30 r monoN;
#X obj 109 127 r noMono;
#X obj 132 92 bng 15 250 50 0 empty empty empty 17 7 0 10 #fcfcfc #000000
#000000;
#X connect 0 0 1 0;
#X connect 2 0 4 0;
#X connect 3 0 2 0;
#X connect 4 0 5 0;
#X connect 5 0 0 0;
#X connect 6 0 4 0;
#X connect 7 0 0 0;
#X connect 8 0 4 0;
#X restore 669 180 pd monoData;
#N canvas 434 478 852 404 grainboids1 0;
#X obj 190 193 r width;
#X obj 166 216 random;
#X obj 226 216 random;
#X obj 250 193 r height;
#X obj 122 213 f;
#X obj 172 108 t b b;
#X msg 172 168 seed \$1;
#X msg 232 168 seed \$1;
#X obj 232 143 r ale7;
#X obj 172 143 r ale5;
#X msg 312 168 seed \$1;
#X obj 306 216 random 50000;
#X obj 312 143 r ale13;
#X obj 502 193 + 1;
#X obj 452 143 r ale19;
#X obj 452 193 + 1;
#X obj 452 168 / 3;
#X msg 542 193 0;
#X text 182 43 boidsOn \, x \, y \, seed \, force \, spd (1-33) \,
size(1-10) \, color squeme;
#X obj 392 143 r ale11;
#X obj 392 168 mod 9;
#X obj 392 193 + 1;
#X obj 392 218 / 10;
#X obj 122 273 pack f f f f f f f f;
#X obj 122 298 oscformat boidsData;
#X obj 502 143 r ale20;
#X msg 62 143 0;
#X obj 62 83 sel 0 1;
#X obj 120 93 r ale1;
#X obj 120 118 mod 5;
#X obj 120 143 + 1;
#X obj 125 57 t f f;
#X obj 120 168 f;
#X obj 552 143 loadbang;
#X obj 502 168 mod 20;
#X obj 122 323 outlet;
#X obj 130 20 r boidsOnOff1;
#X obj 566 30 tgl 15 0 empty empty empty 17 7 0 10 #fcfcfc #000000
#000000 0 1;
#X obj 172 83 metro 500;
#X text 660 30 Defines speed of BOTH boids creation;
#X obj 660 55 r ale15;
#X obj 660 80 t b f;
#X msg 687 105 seed \$1;
#X obj 660 130 random 300;
#X obj 660 155 + 200;
#X obj 660 180 s boids2creationSpeed;
#X connect 0 0 1 1;
#X connect 1 0 23 1;
#X connect 2 0 23 2;
#X connect 3 0 2 1;
#X connect 4 0 23 0;
#X connect 5 0 4 0;
#X connect 5 1 1 0;
#X connect 5 1 11 0;
#X connect 5 1 2 0;
#X connect 6 0 1 0;
#X connect 7 0 2 0;
#X connect 8 0 7 0;
#X connect 9 0 6 0;
#X connect 10 0 11 0;
#X connect 11 0 23 3;
#X connect 12 0 10 0;
#X connect 13 0 23 6;
#X connect 14 0 16 0;
#X connect 15 0 23 5;
#X connect 16 0 15 0;
#X connect 17 0 23 7;
#X connect 19 0 20 0;
#X connect 20 0 21 0;
#X connect 21 0 22 0;
#X connect 22 0 23 4;
#X connect 23 0 24 0;
#X connect 24 0 35 0;
#X connect 25 0 34 0;
#X connect 26 0 23 0;
#X connect 26 0 4 1;
#X connect 27 0 26 0;
#X connect 27 1 32 0;
#X connect 28 0 29 0;
#X connect 29 0 30 0;
#X connect 30 0 32 1;
#X connect 31 0 38 0;
#X connect 31 1 27 0;
#X connect 32 0 4 1;
#X connect 33 0 17 0;
#X connect 34 0 13 0;
#X connect 36 0 31 0;
#X connect 37 0 31 0;
#X connect 38 0 5 0;
#X connect 40 0 41 0;
#X connect 41 0 43 0;
#X connect 41 1 42 0;
#X connect 42 0 43 0;
#X connect 43 0 44 0;
#X connect 44 0 38 1;
#X connect 44 0 45 0;
#X restore 687 222 pd grainboids1;
#N canvas 420 0 852 850 grainboids2 0;
#X obj 190 233 r width;
#X obj 166 256 random;
#X obj 226 256 random;
#X obj 250 233 r height;
#X obj 122 253 f;
#X obj 172 148 t b b;
#X msg 172 208 seed \$1;
#X msg 232 208 seed \$1;
#X msg 312 208 seed \$1;
#X obj 306 256 random 50000;
#X obj 502 233 + 1;
#X obj 452 233 + 1;
#X obj 452 208 / 3;
#X text 182 83 boidsOn \, x \, y \, seed \, force \, spd (1-33) \,
size(1-10) \, color squeme;
#X obj 392 208 mod 9;
#X obj 392 233 + 1;
#X obj 392 258 / 10;
#X obj 122 313 pack f f f f f f f f;
#X obj 122 338 oscformat boidsData;
#X msg 62 183 0;
#X obj 62 123 sel 0 1;
#X obj 120 158 mod 5;
#X obj 120 183 + 1;
#X obj 125 97 t f f;
#X obj 120 208 f;
#X obj 552 183 loadbang;
#X obj 502 208 mod 20;
#X obj 172 123 metro 250;
#X obj 122 363 outlet;
#X obj 172 183 r ale6;
#X obj 120 133 r ale2;
#X obj 232 183 r ale8;
#X obj 312 183 r ale14;
#X obj 392 183 r ale12;
#X obj 452 183 r ale20;
#X obj 502 183 r ale18;
#X msg 542 233 1;
#X obj 145 57 pipe 125;
#X obj 152 12 r boidsOnOff2;
#X obj 582 70 r boids2creationSpeed;
#X obj 582 95 / 2;
#X connect 0 0 1 1;
#X connect 1 0 17 1;
#X connect 2 0 17 2;
#X connect 3 0 2 1;
#X connect 4 0 17 0;
#X connect 5 0 4 0;
#X connect 5 1 1 0;
#X connect 5 1 9 0;
#X connect 5 1 2 0;
#X connect 6 0 1 0;
#X connect 7 0 2 0;
#X connect 8 0 9 0;
#X connect 9 0 17 3;
#X connect 10 0 17 6;
#X connect 11 0 17 5;
#X connect 12 0 11 0;
#X connect 14 0 15 0;
#X connect 15 0 16 0;
#X connect 16 0 17 4;
#X connect 17 0 18 0;
#X connect 18 0 28 0;
#X connect 19 0 17 0;
#X connect 19 0 4 1;
#X connect 20 0 19 0;
#X connect 20 1 24 0;
#X connect 21 0 22 0;
#X connect 22 0 24 1;
#X connect 23 0 27 0;
#X connect 23 1 20 0;
#X connect 24 0 4 1;
#X connect 25 0 36 0;
#X connect 26 0 10 0;
#X connect 27 0 5 0;
#X connect 29 0 6 0;
#X connect 30 0 21 0;
#X connect 31 0 7 0;
#X connect 32 0 8 0;
#X connect 33 0 14 0;
#X connect 34 0 12 0;
#X connect 35 0 26 0;
#X connect 36 0 17 7;
#X connect 37 0 23 0;
#X connect 38 0 37 0;
#X connect 39 0 27 1;
#X connect 39 0 40 0;
#X connect 40 0 37 1;
#X restore 695 243 pd grainboids2;
#N canvas 0 0 1354 826 colors 0;
#X text 320 320 n of colors;
#X text 356 474 my adaptation on list-random;
#N canvas 780 198 738 508 list-urn 0;
#X obj 28 67 inlet;
#X msg 28 273 seed \$1;
#X obj 166 364 list prepend;
#X obj 259 365 t a;
#X obj 166 268 until;
#X obj 143 121 t b b b;
#X obj 143 385 list;
#X obj 224 65 inlet;
#X obj 297 66 inlet;
#X obj 297 145 f \$2;
#X obj 308 117 loadbang;
#X obj 143 438 outlet;
#X text 28 41 seed/bang;
#X text 225 43 range;
#X text 298 42 length;
#X obj 166 247 f 1;
#X obj 297 165 max 1;
#X obj 166 302 urn \$1;
#X obj 143 410 t l b;
#X text 40 10 like list-random \, but no repeating numbers are generated
and ARGUMENTS DONT WORK UNLESS COMING THROUGH INLETS;
#X obj 28 98 route seed;
#X obj 278 307 t b b;
#X msg 290 340 clear;
#X obj 28 123 sel 0;
#X msg 28 148 1;
#X obj 28 173 t f b;
#X connect 0 0 20 0;
#X connect 1 0 17 0;
#X connect 2 0 3 0;
#X connect 2 0 6 1;
#X connect 3 0 2 1;
#X connect 4 0 17 0;
#X connect 5 0 6 0;
#X connect 5 1 15 0;
#X connect 5 2 2 1;
#X connect 6 0 18 0;
#X connect 7 0 17 1;
#X connect 8 0 9 0;
#X connect 9 0 16 0;
#X connect 10 0 9 0;
#X connect 15 0 4 0;
#X connect 16 0 15 1;
#X connect 17 0 2 0;
#X connect 17 1 21 0;
#X connect 18 0 11 0;
#X connect 20 0 23 0;
#X connect 20 1 5 0;
#X connect 21 0 17 0;
#X connect 21 1 22 0;
#X connect 22 0 17 0;
#X connect 23 0 24 0;
#X connect 23 1 25 0;
#X connect 24 0 25 0;
#X connect 25 0 1 0;
#X connect 25 1 22 0;
#X restore 280 475 pd list-urn;
#X obj 311 425 loadbang;
#X msg 311 450 8;
#X obj 381 546 random 45;
#X obj 280 502 list-math * 45;
#X obj 280 527 list-math +;
#X obj 280 971 oscformat hues;
#X obj 330 629 l;
#X obj 330 654 list-extend;
#X obj 280 349 t b b f;
#X obj 299 602 until;
#X obj 280 677 l;
#X obj 280 552 t b b l;
#X obj 299 876 l;
#X obj 299 901 list-swap;
#X msg 299 797 50;
#X obj 299 822 until;
#X obj 280 943 l;
#X obj 299 848 t b b;
#X obj 280 772 t b b l;
#X obj 280 1026 outlet;
#X msg 299 577 15;
#X obj 330 880 random 15;
#X obj 402 876 random 15;
#X obj 280 747 list split 15;
#X floatatom 280 320 5 0 0 0 - - -, f 5;
#X msg 300 401 seed \$1;
#X msg 381 521 seed \$1;
#X msg 342 851 seed \$1;
#X msg 410 850 seed \$1;
#X obj 300 380 r ale17;
#X obj 380 500 r ale13;
#X obj 340 820 r ale7;
#X obj 420 820 r ale3;
#X obj 280 135 moses 341;
#X obj 280 160 bng 15 250 50 0 empty empty empty 17 7 0 10 #fcfcfc
#000000 #000000;
#X msg 280 183 3;
#X obj 331 185 bng 15 250 50 0 empty empty empty 17 7 0 10 #fcfcfc
#000000 #000000;
#X msg 331 208 4;
#X obj 331 160 moses 682;
#X obj 382 210 bng 15 250 50 0 empty empty empty 17 7 0 10 #fcfcfc
#000000 #000000;
#X obj 433 235 bng 15 250 50 0 empty empty empty 17 7 0 10 #fcfcfc
#000000 #000000;
#X msg 382 233 5;
#X msg 433 258 2;
#X obj 382 185 moses 818;
#X obj 433 210 moses 954;
#X obj 484 260 bng 15 250 50 0 empty empty empty 17 7 0 10 #fcfcfc
#000000 #000000;
#X obj 535 285 bng 15 250 50 0 empty empty empty 17 7 0 10 #fcfcfc
#000000 #000000;
#X msg 484 283 6;
#X msg 535 308 7;
#X obj 586 310 bng 15 250 50 0 empty empty empty 17 7 0 10 #fcfcfc
#000000 #000000;
#X msg 586 333 1;
#X text 680 430 fully random;
#X obj 484 235 moses 975;
#X obj 535 260 moses 996;
#X obj 586 285 moses 998;
#X msg 280 85 seed \$1;
#X obj 280 110 random 1000;
#X msg 664 338 15;
#X obj 664 363 until;
#X obj 664 388 random 360;
#X obj 710 340 r ale9;
#X msg 710 365 seed \$1;
#X obj 664 413 list-extend;
#X obj 637 437 l;
#X msg 810 365 15;
#X obj 810 390 until;
#X obj 783 339 t b b;
#X msg 856 392 seed \$1;
#X obj 810 470 list-extend;
#X obj 783 494 l;
#X obj 856 367 r ale10;
#X text 290 10 HUE;
#X text 806 317 SAT;
#X msg 990 365 15;
#X obj 990 390 until;
#X obj 963 339 t b b;
#X msg 1036 392 seed \$1;
#X obj 990 470 list-extend;
#X obj 963 494 l;
#X text 986 317 BRI;
#X obj 783 859 oscformat sats;
#X obj 963 859 oscformat bris;
#X text 600 -20 AUTOMATIC COLOR SELECTION;
#X obj 560 10 r colors;
#X msg 412 374 \$1 colors;
#X obj 412 399 print COLORS;
#X obj 1036 367 r ale12;
#X obj 25 183 prime;
#X obj 810 415 random 81;
#X obj 810 440 + 20;
#X obj 990 415 random 81;
#X obj 990 440 + 20;
#X obj 25 208 t f b;
#X obj 80 230 random 3;
#X msg 544 407 all colors;
#X obj 544 380 bng 15 250 50 0 empty empty empty 17 7 0 10 #fcfcfc
#000000 #000000;
#X obj 30 130 f;
#X obj 175 831 oscformat bkgData;
#X text 20 460 changes blurness randomly at each section;
#X obj 174 480 r ale3;
#X msg 174 531 seed \$1;
#X obj 145 556 random 100;
#X obj 145 581 * 0.7;
#X obj 145 606 + 10;
#X obj 0 500 r start-sect;
#X obj 145 631 oscformat bkgBlur;
#X obj 0 525 bng 15 250 50 0 empty empty empty 17 7 0 10 #fcfcfc #000000
#000000;
#X obj 637 312 t b b b;
#X obj 25 273 pack;
#X obj 130 510 t b f;
#X obj 80 630 spigot;
#X obj 36 542 f 0;
#X obj 70 543 + 1;
#X obj 36 567 sel 0;
#X msg 36 592 1;
#X obj 70 590 bng 15 250 50 0 empty empty empty 17 7 0 10 #fcfcfc #000000
#000000;
#X obj 26 93 del 100;
#X obj 790 785 pack f f f;
#X obj 870 755 t b f;
#X obj 950 755 t b f;
#X obj 571 40 t b b b b;
#X obj 79 114 r colorSeed;
#X obj 280 33 r ale13;
#X text 10 300 is prime? \, black or white;
#X obj 790 810 print star2C;
#X obj 790 730 list-idx 12;
#X obj 870 730 list-idx 12;
#X obj 950 730 list-idx 12;
#X connect 2 0 6 0;
#X connect 3 0 4 0;
#X connect 4 0 2 1;
#X connect 5 0 7 1;
#X connect 6 0 7 0;
#X connect 7 0 14 0;
#X connect 8 0 22 0;
#X connect 9 0 10 0;
#X connect 10 0 13 1;
#X connect 11 0 2 0;
#X connect 11 1 5 0;
#X connect 11 2 2 2;
#X connect 12 0 9 0;
#X connect 13 0 26 0;
#X connect 14 0 13 0;
#X connect 14 0 10 1;
#X connect 14 1 23 0;
#X connect 14 2 9 1;
#X connect 15 0 16 0;
#X connect 16 0 19 1;
#X connect 17 0 18 0;
#X connect 18 0 20 0;
#X connect 19 0 8 0;
#X connect 19 0 128 0;
#X connect 20 0 15 0;
#X connect 20 1 24 0;
#X connect 20 1 25 0;
#X connect 21 0 19 0;
#X connect 21 1 17 0;
#X connect 21 2 15 1;
#X connect 23 0 12 0;
#X connect 24 0 16 1;
#X connect 25 0 16 2;
#X connect 26 0 21 0;
#X connect 27 0 11 0;
#X connect 27 0 87 0;
#X connect 28 0 2 0;
#X connect 29 0 5 0;
#X connect 30 0 24 0;
#X connect 31 0 25 0;
#X connect 32 0 28 0;
#X connect 33 0 29 0;
#X connect 34 0 30 0;
#X connect 35 0 31 0;
#X connect 36 0 37 0;
#X connect 36 1 41 0;
#X connect 37 0 38 0;
#X connect 38 0 27 0;
#X connect 39 0 40 0;
#X connect 40 0 27 0;
#X connect 41 0 39 0;
#X connect 41 1 46 0;
#X connect 42 0 44 0;
#X connect 43 0 45 0;
#X connect 44 0 27 0;
#X connect 45 0 27 0;
#X connect 46 0 42 0;
#X connect 46 1 47 0;
#X connect 47 0 43 0;
#X connect 47 1 55 0;
#X connect 48 0 50 0;
#X connect 49 0 51 0;
#X connect 50 0 27 0;
#X connect 51 0 27 0;
#X connect 52 0 53 0;
#X connect 53 0 27 0;
#X connect 55 0 48 0;
#X connect 55 1 56 0;
#X connect 56 0 49 0;
#X connect 56 1 57 0;
#X connect 57 0 52 0;
#X connect 57 1 110 0;
#X connect 58 0 59 0;
#X connect 58 0 96 0;
#X connect 59 0 36 0;
#X connect 60 0 61 0;
#X connect 61 0 62 0;
#X connect 62 0 65 0;
#X connect 63 0 64 0;
#X connect 64 0 62 0;
#X connect 65 0 66 1;
#X connect 66 0 97 0;
#X connect 66 0 8 0;
#X connect 66 0 128 0;
#X connect 67 0 68 0;
#X connect 68 0 91 0;
#X connect 69 0 72 0;
#X connect 69 0 71 1;
#X connect 69 1 67 0;
#X connect 70 0 91 0;
#X connect 71 0 72 1;
#X connect 72 0 83 0;
#X connect 72 0 129 0;
#X connect 73 0 70 0;
#X connect 76 0 77 0;
#X connect 77 0 93 0;
#X connect 78 0 81 0;
#X connect 78 0 80 1;
#X connect 78 1 76 0;
#X connect 79 0 93 0;
#X connect 80 0 81 1;
#X connect 81 0 84 0;
#X connect 81 0 130 0;
#X connect 83 0 22 0;
#X connect 84 0 22 0;
#X connect 86 0 123 0;
#X connect 87 0 88 0;
#X connect 89 0 79 0;
#X connect 90 0 95 0;
#X connect 91 0 92 0;
#X connect 92 0 71 0;
#X connect 93 0 94 0;
#X connect 94 0 80 0;
#X connect 95 0 111 0;
#X connect 95 1 96 0;
#X connect 96 0 111 1;
#X connect 97 0 88 0;
#X connect 98 0 97 0;
#X connect 99 0 90 0;
#X connect 100 0 22 0;
#X connect 102 0 112 0;
#X connect 103 0 104 0;
#X connect 104 0 105 0;
#X connect 105 0 106 0;
#X connect 106 0 108 0;
#X connect 107 0 109 0;
#X connect 108 0 22 0;
#X connect 109 0 114 0;
#X connect 110 0 66 0;
#X connect 110 0 65 1;
#X connect 110 1 60 0;
#X connect 111 0 100 0;
#X connect 112 0 104 0;
#X connect 112 1 103 0;
#X connect 113 0 104 0;
#X connect 114 0 115 0;
#X connect 114 0 116 0;
#X connect 115 0 114 1;
#X connect 116 0 117 0;
#X connect 116 1 118 0;
#X connect 117 0 113 1;
#X connect 118 0 113 0;
#X connect 119 0 99 0;
#X connect 121 0 120 0;
#X connect 121 1 120 1;
#X connect 122 0 120 0;
#X connect 122 1 120 2;
#X connect 123 0 119 0;
#X connect 123 1 59 0;
#X connect 123 3 78 0;
#X connect 123 3 69 0;
#X connect 124 0 99 1;
#X connect 125 0 58 0;
#X connect 128 0 120 0;
#X connect 129 0 121 0;
#X connect 130 0 122 0;
#X restore 709 283 pd colors;
#N canvas 48 124 1376 818 bkgTexture 0;
#X obj 316 357 oscformat ellipseData;
#N canvas 420 0 852 850 elli1 0;
#X obj 32 42 r elli1;
#X obj 157 127 r ale13;
#X msg 157 152 seed \$1;
#X obj 157 177 random;
#X obj 212 152 r width;
#X obj 32 67 sel 0 1;
#X msg 32 92 0;
#X msg 62 92 1;
#X msg 217 202 seed \$1;
#X obj 217 177 r ale8;
#X obj 207 227 random 5000;
#X obj 207 252 + 1000;
#X obj 157 202 t f b;
#X obj 157 237 pack;
#X obj 157 262 line;
#X msg 287 152 seed \$1;
#X obj 287 177 random;
#X msg 347 202 seed \$1;
#X obj 337 227 random 5000;
#X obj 337 252 + 1000;
#X obj 287 202 t f b;
#X obj 287 237 pack;
#X obj 287 262 line;
#X obj 287 127 r ale14;
#X obj 347 177 r ale9;
#X obj 342 152 r height;
#X msg 477 202 seed \$1;
#X obj 467 147 r ale9;
#X obj 157 327 outlet;
#X obj 207 327 outlet;
#X obj 257 327 outlet;
#X obj 307 327 outlet;
#X obj 467 227 random 500;
#X obj 467 252 + 500;
#X obj 467 172 t b f;
#X obj 62 117 t f b b;
#X connect 0 0 5 0;
#X connect 1 0 2 0;
#X connect 2 0 3 0;
#X connect 3 0 12 0;
#X connect 4 0 3 1;
#X connect 5 0 6 0;
#X connect 5 1 7 0;
#X connect 6 0 28 0;
#X connect 7 0 35 0;
#X connect 8 0 10 0;
#X connect 9 0 8 0;
#X connect 10 0 11 0;
#X connect 11 0 13 1;
#X connect 12 0 13 0;
#X connect 12 1 10 0;
#X connect 13 0 14 0;
#X connect 14 0 29 0;
#X connect 15 0 16 0;
#X connect 16 0 20 0;
#X connect 17 0 18 0;
#X connect 18 0 19 0;
#X connect 19 0 21 1;
#X connect 20 0 21 0;
#X connect 20 1 18 0;
#X connect 21 0 22 0;
#X connect 22 0 30 0;
#X connect 23 0 15 0;
#X connect 24 0 17 0;
#X connect 25 0 16 1;
#X connect 26 0 32 0;
#X connect 27 0 34 0;
#X connect 32 0 33 0;
#X connect 33 0 31 0;
#X connect 34 0 32 0;
#X connect 34 1 26 0;
#X connect 35 0 28 0;
#X connect 35 1 3 0;
#X connect 35 2 16 0;
#X restore 317 225 pd elli1;
#X obj 325 250 t b f;
#X obj 316 302 pack 0 0 0 0 0 0 0 0 0 0 0 0 0 0 0 0 0 0 0 0 0 0 0 0
0 0 0 0 0 0 0 0 0 0 0 0;
#X obj 380 250 t b f;
#N canvas 440 100 854 852 elli2 0;
#X msg 157 152 seed \$1;
#X obj 157 177 random;
#X obj 212 152 r width;
#X obj 32 67 sel 0 1;
#X msg 32 92 0;
#X msg 62 92 1;
#X msg 217 202 seed \$1;
#X obj 207 227 random 5000;
#X obj 207 252 + 1000;
#X obj 157 202 t f b;
#X obj 157 237 pack;
#X obj 157 262 line;
#X msg 287 152 seed \$1;
#X obj 287 177 random;
#X msg 347 202 seed \$1;
#X obj 337 227 random 5000;
#X obj 337 252 + 1000;
#X obj 287 202 t f b;
#X obj 287 237 pack;
#X obj 287 262 line;
#X obj 342 152 r height;
#X obj 157 327 outlet;
#X obj 207 327 outlet;
#X obj 257 327 outlet;
#X obj 307 327 outlet;
#X obj 32 42 r elli2;
#X obj 157 127 r ale18;
#X obj 217 177 r ale3;
#X obj 287 127 r ale19;
#X obj 347 177 r ale4;
#X msg 510 210 seed \$1;
#X obj 500 235 random 500;
#X obj 500 260 + 500;
#X obj 500 180 t b f;
#X obj 500 155 r ale4;
#X obj 62 117 t f b b;
#X connect 0 0 1 0;
#X connect 1 0 9 0;
#X connect 2 0 1 1;
#X connect 3 0 4 0;
#X connect 3 1 5 0;
#X connect 4 0 21 0;
#X connect 5 0 35 0;
#X connect 6 0 7 0;
#X connect 7 0 8 0;
#X connect 8 0 10 1;
#X connect 9 0 10 0;
#X connect 9 1 7 0;
#X connect 10 0 11 0;
#X connect 11 0 22 0;
#X connect 12 0 13 0;
#X connect 13 0 17 0;
#X connect 14 0 15 0;
#X connect 15 0 16 0;
#X connect 16 0 18 1;
#X connect 17 0 18 0;
#X connect 17 1 15 0;
#X connect 18 0 19 0;
#X connect 19 0 23 0;
#X connect 20 0 13 1;
#X connect 25 0 3 0;
#X connect 26 0 0 0;
#X connect 27 0 6 0;
#X connect 28 0 12 0;
#X connect 29 0 14 0;
#X connect 30 0 31 0;
#X connect 31 0 32 0;
#X connect 32 0 24 0;
#X connect 33 0 31 0;
#X connect 33 1 30 0;
#X connect 34 0 33 0;
#X connect 35 0 21 0;
#X connect 35 1 1 0;
#X connect 35 2 13 0;
#X restore 372 225 pd elli2;
#X obj 436 250 t b f;
#X obj 492 250 t b f;
#N canvas 420 0 852 850 elli3 0;
#X msg 157 152 seed \$1;
#X obj 157 177 random;
#X obj 212 152 r width;
#X obj 32 67 sel 0 1;
#X msg 32 92 0;
#X msg 62 92 1;
#X msg 217 202 seed \$1;
#X obj 207 227 random 5000;
#X obj 207 252 + 1000;
#X obj 157 202 t f b;
#X obj 157 237 pack;
#X obj 157 262 line;
#X msg 287 152 seed \$1;
#X obj 287 177 random;
#X msg 347 202 seed \$1;
#X obj 337 227 random 5000;
#X obj 337 252 + 1000;
#X obj 287 202 t f b;
#X obj 287 237 pack;
#X obj 287 262 line;
#X obj 342 152 r height;
#X obj 157 327 outlet;
#X obj 207 327 outlet;
#X obj 257 327 outlet;
#X obj 307 327 outlet;
#X obj 157 127 r ale4;
#X obj 217 177 r ale17;
#X obj 287 127 r ale5;
#X obj 347 177 r ale18;
#X obj 30 40 r elli3;
#X msg 520 210 seed \$1;
#X obj 510 235 random 500;
#X obj 510 260 + 500;
#X obj 510 180 t b f;
#X obj 510 155 r ale18;
#X obj 62 117 t f b b;
#X connect 0 0 1 0;
#X connect 1 0 9 0;
#X connect 2 0 1 1;
#X connect 3 0 4 0;
#X connect 3 1 5 0;
#X connect 4 0 21 0;
#X connect 5 0 35 0;
#X connect 6 0 7 0;
#X connect 7 0 8 0;
#X connect 8 0 10 1;
#X connect 9 0 10 0;
#X connect 9 1 7 0;
#X connect 10 0 11 0;
#X connect 11 0 22 0;
#X connect 12 0 13 0;
#X connect 13 0 17 0;
#X connect 14 0 15 0;
#X connect 15 0 16 0;
#X connect 16 0 18 1;
#X connect 17 0 18 0;
#X connect 17 1 15 0;
#X connect 18 0 19 0;
#X connect 19 0 23 0;
#X connect 20 0 13 1;
#X connect 25 0 0 0;
#X connect 26 0 6 0;
#X connect 27 0 12 0;
#X connect 28 0 14 0;
#X connect 29 0 3 0;
#X connect 30 0 31 0;
#X connect 31 0 32 0;
#X connect 32 0 24 0;
#X connect 33 0 31 0;
#X connect 33 1 30 0;
#X connect 34 0 33 0;
#X connect 35 0 21 0;
#X connect 35 1 1 0;
#X connect 35 2 13 0;
#X restore 428 225 pd elli3;
#N canvas 440 100 854 852 elli4 0;
#X msg 157 152 seed \$1;
#X obj 157 177 random;
#X obj 212 152 r width;
#X obj 32 67 sel 0 1;
#X msg 32 92 0;
#X msg 62 92 1;
#X msg 217 202 seed \$1;
#X obj 207 227 random 5000;
#X obj 207 252 + 1000;
#X obj 157 202 t f b;
#X obj 157 237 pack;
#X obj 157 262 line;
#X msg 287 152 seed \$1;
#X obj 287 177 random;
#X msg 347 202 seed \$1;
#X obj 337 227 random 5000;
#X obj 337 252 + 1000;
#X obj 287 202 t f b;
#X obj 287 237 pack;
#X obj 287 262 line;
#X obj 342 152 r height;
#X obj 157 327 outlet;
#X obj 207 327 outlet;
#X obj 257 327 outlet;
#X obj 307 327 outlet;
#X obj 157 127 r ale9;
#X obj 217 177 r ale12;
#X obj 287 127 r ale10;
#X obj 347 177 r ale13;
#X obj 32 42 r elli4;
#X msg 510 210 seed \$1;
#X obj 500 235 random 500;
#X obj 500 260 + 500;
#X obj 500 180 t b f;
#X obj 500 155 r ale13;
#X obj 62 117 t f b b;
#X connect 0 0 1 0;
#X connect 1 0 9 0;
#X connect 2 0 1 1;
#X connect 3 0 4 0;
#X connect 3 1 5 0;
#X connect 4 0 21 0;
#X connect 5 0 35 0;
#X connect 6 0 7 0;
#X connect 7 0 8 0;
#X connect 8 0 10 1;
#X connect 9 0 10 0;
#X connect 9 1 7 0;
#X connect 10 0 11 0;
#X connect 11 0 22 0;
#X connect 12 0 13 0;
#X connect 13 0 17 0;
#X connect 14 0 15 0;
#X connect 15 0 16 0;
#X connect 16 0 18 1;
#X connect 17 0 18 0;
#X connect 17 1 15 0;
#X connect 18 0 19 0;
#X connect 19 0 23 0;
#X connect 20 0 13 1;
#X connect 25 0 0 0;
#X connect 26 0 6 0;
#X connect 27 0 12 0;
#X connect 28 0 14 0;
#X connect 29 0 3 0;
#X connect 30 0 31 0;
#X connect 31 0 32 0;
#X connect 32 0 24 0;
#X connect 33 0 31 0;
#X connect 33 1 30 0;
#X connect 34 0 33 0;
#X connect 35 0 21 0;
#X connect 35 1 1 0;
#X connect 35 2 13 0;
#X restore 484 225 pd elli4;
#X obj 548 250 t b f;
#X obj 604 250 t b f;
#X obj 660 250 t b f;
#X obj 716 250 t b f;
#N canvas 420 0 852 850 elli5 0;
#X msg 157 152 seed \$1;
#X obj 157 177 random;
#X obj 212 152 r width;
#X obj 32 67 sel 0 1;
#X msg 32 92 0;
#X msg 62 92 1;
#X msg 217 202 seed \$1;
#X obj 207 227 random 5000;
#X obj 207 252 + 1000;
#X obj 157 202 t f b;
#X obj 157 237 pack;
#X obj 157 262 line;
#X msg 287 152 seed \$1;
#X obj 287 177 random;
#X msg 347 202 seed \$1;
#X obj 337 227 random 5000;
#X obj 337 252 + 1000;
#X obj 287 202 t f b;
#X obj 287 237 pack;
#X obj 287 262 line;
#X obj 342 152 r height;
#X obj 157 327 outlet;
#X obj 207 327 outlet;
#X obj 257 327 outlet;
#X obj 307 327 outlet;
#X obj 157 127 r ale14;
#X obj 217 177 r ale7;
#X obj 287 127 r ale15;
#X obj 347 177 r ale8;
#X obj 32 42 r elli5;
#X msg 510 210 seed \$1;
#X obj 500 235 random 500;
#X obj 500 260 + 500;
#X obj 500 180 t b f;
#X obj 500 155 r ale8;
#X obj 62 117 t f b b;
#X connect 0 0 1 0;
#X connect 1 0 9 0;
#X connect 2 0 1 1;
#X connect 3 0 4 0;
#X connect 3 1 5 0;
#X connect 4 0 21 0;
#X connect 5 0 35 0;
#X connect 6 0 7 0;
#X connect 7 0 8 0;
#X connect 8 0 10 1;
#X connect 9 0 10 0;
#X connect 9 1 7 0;
#X connect 10 0 11 0;
#X connect 11 0 22 0;
#X connect 12 0 13 0;
#X connect 13 0 17 0;
#X connect 14 0 15 0;
#X connect 15 0 16 0;
#X connect 16 0 18 1;
#X connect 17 0 18 0;
#X connect 17 1 15 0;
#X connect 18 0 19 0;
#X connect 19 0 23 0;
#X connect 20 0 13 1;
#X connect 25 0 0 0;
#X connect 26 0 6 0;
#X connect 27 0 12 0;
#X connect 28 0 14 0;
#X connect 29 0 3 0;
#X connect 30 0 31 0;
#X connect 31 0 32 0;
#X connect 32 0 24 0;
#X connect 33 0 31 0;
#X connect 33 1 30 0;
#X connect 34 0 33 0;
#X connect 35 0 21 0;
#X connect 35 1 1 0;
#X connect 35 2 13 0;
#X restore 540 225 pd elli5;
#N canvas 440 100 854 852 elli6 0;
#X msg 157 152 seed \$1;
#X obj 157 177 random;
#X obj 212 152 r width;
#X obj 32 67 sel 0 1;
#X msg 32 92 0;
#X msg 62 92 1;
#X msg 217 202 seed \$1;
#X obj 207 227 random 5000;
#X obj 207 252 + 1000;
#X obj 157 202 t f b;
#X obj 157 237 pack;
#X obj 157 262 line;
#X msg 287 152 seed \$1;
#X obj 287 177 random;
#X msg 347 202 seed \$1;
#X obj 337 227 random 5000;
#X obj 337 252 + 1000;
#X obj 287 202 t f b;
#X obj 287 237 pack;
#X obj 287 262 line;
#X obj 342 152 r height;
#X obj 157 327 outlet;
#X obj 207 327 outlet;
#X obj 257 327 outlet;
#X obj 307 327 outlet;
#X obj 157 127 r ale19;
#X obj 217 177 r ale2;
#X obj 287 127 r ale20;
#X obj 347 177 r ale3;
#X obj 32 42 r elli6;
#X msg 510 210 seed \$1;
#X obj 500 235 random 500;
#X obj 500 260 + 500;
#X obj 500 180 t b f;
#X obj 500 155 r ale3;
#X obj 62 117 t f b b;
#X connect 0 0 1 0;
#X connect 1 0 9 0;
#X connect 2 0 1 1;
#X connect 3 0 4 0;
#X connect 3 1 5 0;
#X connect 4 0 21 0;
#X connect 5 0 35 0;
#X connect 6 0 7 0;
#X connect 7 0 8 0;
#X connect 8 0 10 1;
#X connect 9 0 10 0;
#X connect 9 1 7 0;
#X connect 10 0 11 0;
#X connect 11 0 22 0;
#X connect 12 0 13 0;
#X connect 13 0 17 0;
#X connect 14 0 15 0;
#X connect 15 0 16 0;
#X connect 16 0 18 1;
#X connect 17 0 18 0;
#X connect 17 1 15 0;
#X connect 18 0 19 0;
#X connect 19 0 23 0;
#X connect 20 0 13 1;
#X connect 25 0 0 0;
#X connect 26 0 6 0;
#X connect 27 0 12 0;
#X connect 28 0 14 0;
#X connect 29 0 3 0;
#X connect 30 0 31 0;
#X connect 31 0 32 0;
#X connect 32 0 24 0;
#X connect 33 0 31 0;
#X connect 33 1 30 0;
#X connect 34 0 33 0;
#X connect 35 0 21 0;
#X connect 35 1 1 0;
#X connect 35 2 13 0;
#X restore 596 225 pd elli6;
#N canvas 420 0 852 850 elli7 0;
#X msg 157 152 seed \$1;
#X obj 157 177 random;
#X obj 212 152 r width;
#X obj 32 67 sel 0 1;
#X msg 32 92 0;
#X msg 62 92 1;
#X msg 217 202 seed \$1;
#X obj 207 227 random 5000;
#X obj 207 252 + 1000;
#X obj 157 202 t f b;
#X obj 157 237 pack;
#X obj 157 262 line;
#X msg 287 152 seed \$1;
#X obj 287 177 random;
#X msg 347 202 seed \$1;
#X obj 337 227 random 5000;
#X obj 337 252 + 1000;
#X obj 287 202 t f b;
#X obj 287 237 pack;
#X obj 287 262 line;
#X obj 342 152 r height;
#X obj 157 327 outlet;
#X obj 207 327 outlet;
#X obj 257 327 outlet;
#X obj 307 327 outlet;
#X obj 157 127 r ale5;
#X obj 217 177 r ale16;
#X obj 287 127 r ale6;
#X obj 347 177 r ale17;
#X obj 32 42 r elli7;
#X msg 510 210 seed \$1;
#X obj 500 235 random 500;
#X obj 500 260 + 500;
#X obj 500 180 t b f;
#X obj 500 155 r ale17;
#X obj 62 117 t f b b;
#X connect 0 0 1 0;
#X connect 1 0 9 0;
#X connect 2 0 1 1;
#X connect 3 0 4 0;
#X connect 3 1 5 0;
#X connect 4 0 21 0;
#X connect 5 0 35 0;
#X connect 6 0 7 0;
#X connect 7 0 8 0;
#X connect 8 0 10 1;
#X connect 9 0 10 0;
#X connect 9 1 7 0;
#X connect 10 0 11 0;
#X connect 11 0 22 0;
#X connect 12 0 13 0;
#X connect 13 0 17 0;
#X connect 14 0 15 0;
#X connect 15 0 16 0;
#X connect 16 0 18 1;
#X connect 17 0 18 0;
#X connect 17 1 15 0;
#X connect 18 0 19 0;
#X connect 19 0 23 0;
#X connect 20 0 13 1;
#X connect 25 0 0 0;
#X connect 26 0 6 0;
#X connect 27 0 12 0;
#X connect 28 0 14 0;
#X connect 29 0 3 0;
#X connect 30 0 31 0;
#X connect 31 0 32 0;
#X connect 32 0 24 0;
#X connect 33 0 31 0;
#X connect 33 1 30 0;
#X connect 34 0 33 0;
#X connect 35 0 21 0;
#X connect 35 1 1 0;
#X connect 35 2 13 0;
#X restore 652 225 pd elli7;
#N canvas 440 100 854 852 elli8 0;
#X msg 157 152 seed \$1;
#X obj 157 177 random;
#X obj 212 152 r width;
#X obj 32 67 sel 0 1;
#X msg 32 92 0;
#X msg 62 92 1;
#X msg 217 202 seed \$1;
#X obj 207 227 random 5000;
#X obj 207 252 + 1000;
#X obj 157 202 t f b;
#X obj 157 237 pack;
#X obj 157 262 line;
#X msg 287 152 seed \$1;
#X obj 287 177 random;
#X msg 347 202 seed \$1;
#X obj 337 227 random 5000;
#X obj 337 252 + 1000;
#X obj 287 202 t f b;
#X obj 287 237 pack;
#X obj 287 262 line;
#X obj 342 152 r height;
#X obj 157 327 outlet;
#X obj 207 327 outlet;
#X obj 257 327 outlet;
#X obj 307 327 outlet;
#X obj 157 127 r ale10;
#X obj 217 177 r ale11;
#X obj 287 127 r ale11;
#X obj 347 177 r ale12;
#X obj 32 42 r elli8;
#X msg 500 210 seed \$1;
#X obj 490 235 random 500;
#X obj 490 260 + 500;
#X obj 490 180 t b f;
#X obj 490 155 r ale12;
#X obj 62 117 t f b b;
#X connect 0 0 1 0;
#X connect 1 0 9 0;
#X connect 2 0 1 1;
#X connect 3 0 4 0;
#X connect 3 1 5 0;
#X connect 4 0 21 0;
#X connect 5 0 35 0;
#X connect 6 0 7 0;
#X connect 7 0 8 0;
#X connect 8 0 10 1;
#X connect 9 0 10 0;
#X connect 9 1 7 0;
#X connect 10 0 11 0;
#X connect 11 0 22 0;
#X connect 12 0 13 0;
#X connect 13 0 17 0;
#X connect 14 0 15 0;
#X connect 15 0 16 0;
#X connect 16 0 18 1;
#X connect 17 0 18 0;
#X connect 17 1 15 0;
#X connect 18 0 19 0;
#X connect 19 0 23 0;
#X connect 20 0 13 1;
#X connect 25 0 0 0;
#X connect 26 0 6 0;
#X connect 27 0 12 0;
#X connect 28 0 14 0;
#X connect 29 0 3 0;
#X connect 30 0 31 0;
#X connect 31 0 32 0;
#X connect 32 0 24 0;
#X connect 33 0 31 0;
#X connect 33 1 30 0;
#X connect 34 0 33 0;
#X connect 35 0 21 0;
#X connect 35 1 1 0;
#X connect 35 2 13 0;
#X restore 708 225 pd elli8;
#X obj 772 250 t b f;
#N canvas 440 100 854 852 elli9 0;
#X msg 157 152 seed \$1;
#X obj 157 177 random;
#X obj 212 152 r width;
#X obj 32 67 sel 0 1;
#X msg 32 92 0;
#X msg 62 92 1;
#X msg 217 202 seed \$1;
#X obj 207 227 random 5000;
#X obj 207 252 + 1000;
#X obj 157 202 t f b;
#X obj 157 237 pack;
#X obj 157 262 line;
#X msg 287 152 seed \$1;
#X obj 287 177 random;
#X msg 347 202 seed \$1;
#X obj 337 227 random 5000;
#X obj 337 252 + 1000;
#X obj 287 202 t f b;
#X obj 287 237 pack;
#X obj 287 262 line;
#X obj 342 152 r height;
#X obj 157 327 outlet;
#X obj 207 327 outlet;
#X obj 257 327 outlet;
#X obj 307 327 outlet;
#X obj 157 127 r ale15;
#X obj 217 177 r ale6;
#X obj 287 127 r ale16;
#X obj 347 177 r ale7;
#X obj 32 42 r elli9;
#X msg 510 200 seed \$1;
#X obj 500 225 random 500;
#X obj 500 250 + 500;
#X obj 500 170 t b f;
#X obj 500 145 r ale7;
#X obj 62 117 t f b b;
#X connect 0 0 1 0;
#X connect 1 0 9 0;
#X connect 2 0 1 1;
#X connect 3 0 4 0;
#X connect 3 1 5 0;
#X connect 4 0 21 0;
#X connect 5 0 35 0;
#X connect 6 0 7 0;
#X connect 7 0 8 0;
#X connect 8 0 10 1;
#X connect 9 0 10 0;
#X connect 9 1 7 0;
#X connect 10 0 11 0;
#X connect 11 0 22 0;
#X connect 12 0 13 0;
#X connect 13 0 17 0;
#X connect 14 0 15 0;
#X connect 15 0 16 0;
#X connect 16 0 18 1;
#X connect 17 0 18 0;
#X connect 17 1 15 0;
#X connect 18 0 19 0;
#X connect 19 0 23 0;
#X connect 20 0 13 1;
#X connect 25 0 0 0;
#X connect 26 0 6 0;
#X connect 27 0 12 0;
#X connect 28 0 14 0;
#X connect 29 0 3 0;
#X connect 30 0 31 0;
#X connect 31 0 32 0;
#X connect 32 0 24 0;
#X connect 33 0 31 0;
#X connect 33 1 30 0;
#X connect 34 0 33 0;
#X connect 35 0 21 0;
#X connect 35 1 1 0;
#X connect 35 2 13 0;
#X restore 764 225 pd elli9;
#X obj 70 45 r elliColorChange;
#X msg 168 121 seed \$1;
#X obj 168 96 r ale8;
#X msg 113 121 seed \$1;
#X obj 130 195 pack;
#X obj 87 170 t f b;
#X obj 113 96 r ale13;
#X obj 168 171 + 200;
#X obj 168 146 random 6000;
#X obj 87 145 random 30;
#X obj 124 171 + 20;
#X obj 130 220 line;
#X obj 130 245 oscformat elliColorChange;
#X obj 70 70 t b b;
#X obj 130 490 outlet;
#X connect 0 0 34 0;
#X connect 1 0 3 0;
#X connect 1 1 2 0;
#X connect 1 2 3 2;
#X connect 1 3 3 3;
#X connect 2 0 3 0;
#X connect 2 1 3 1;
#X connect 3 0 0 0;
#X connect 4 0 3 0;
#X connect 4 1 3 5;
#X connect 5 0 3 4;
#X connect 5 1 4 0;
#X connect 5 2 3 6;
#X connect 5 3 3 7;
#X connect 6 0 3 0;
#X connect 6 1 3 9;
#X connect 7 0 3 0;
#X connect 7 1 3 13;
#X connect 8 0 3 8;
#X connect 8 1 6 0;
#X connect 8 2 3 10;
#X connect 8 3 3 11;
#X connect 9 0 3 12;
#X connect 9 1 7 0;
#X connect 9 2 3 14;
#X connect 9 3 3 15;
#X connect 10 0 3 0;
#X connect 10 1 3 17;
#X connect 11 0 3 0;
#X connect 11 1 3 21;
#X connect 12 0 3 0;
#X connect 12 1 3 25;
#X connect 13 0 3 0;
#X connect 13 1 3 29;
#X connect 14 0 3 16;
#X connect 14 1 10 0;
#X connect 14 2 3 18;
#X connect 14 3 3 19;
#X connect 15 0 3 20;
#X connect 15 1 11 0;
#X connect 15 2 3 22;
#X connect 15 3 3 23;
#X connect 16 0 3 24;
#X connect 16 1 12 0;
#X connect 16 2 3 26;
#X connect 16 3 3 27;
#X connect 17 0 3 28;
#X connect 17 1 13 0;
#X connect 17 2 3 30;
#X connect 17 3 3 31;
#X connect 18 0 3 0;
#X connect 18 1 3 33;
#X connect 19 0 3 32;
#X connect 19 1 18 0;
#X connect 19 2 3 34;
#X connect 19 3 3 35;
#X connect 20 0 33 0;
#X connect 21 0 28 0;
#X connect 22 0 21 0;
#X connect 23 0 29 0;
#X connect 24 0 31 0;
#X connect 25 0 30 0;
#X connect 25 1 28 0;
#X connect 26 0 23 0;
#X connect 27 0 24 1;
#X connect 28 0 27 0;
#X connect 29 0 25 0;
#X connect 30 0 24 0;
#X connect 31 0 32 0;
#X connect 32 0 34 0;
#X connect 33 0 29 0;
#X connect 33 1 3 0;
#X restore 702 263 pd bkgTexture;
#X obj 30 59 oscparse;
#X obj 30 84 list trim;
#X floatatom 30 134 7 0 0 0 - - -, f 7;
#X floatatom 88 134 7 0 0 0 - - -, f 7;
#X obj 30 160 s width;
#X obj 88 158 s height;
#X obj 30 34 netreceive -b -u 8000;
#X floatatom 148 134 7 0 0 0 - - -, f 7;
#X obj 148 158 s inputN;
#X floatatom 208 134 7 0 0 0 - - -, f 7;
#X obj 208 158 bng 15 250 50 0 empty empty empty 17 7 0 10 #fcfcfc
#000000 #000000;
#X msg 292 217 disconnect;
#X obj 281 247 netsend -u -b;
#X obj 281 307 sel 0 1;
#X obj 332 487 outlet;
#X msg 302 382 symbol OSC_Connected;
#X msg 362 332 1;
#X obj 330 357 oscformat oscConnected;
#X obj 281 164 bng 15 250 50 0 empty empty empty 17 7 0 10 #fcfcfc
#000000 #000000;
#X msg 329 333 0;
#X msg 281 407 symbol OSC_Disconnected;
#X obj 281 272 change;
#X obj 720 305 r nextStage;
#X obj 720 330 oscformat next;
#X obj 30 109 route width height inputN oscOff startMain;
#X obj 260 130 s startMusic;
#X msg 281 197 connect localhost 12000;
#X text 300 155 If you have problems with OSC \, substitute localhost
by the IP of the computer running the processing sketch;
#X connect 0 0 1 0;
#X connect 1 0 28 0;
#X connect 2 0 0 0;
#X connect 3 0 0 0;
#X connect 4 0 0 0;
#X connect 5 0 0 0;
#X connect 6 0 0 0;
#X connect 7 0 0 0;
#X connect 8 0 0 0;
#X connect 9 0 0 0;
#X connect 10 0 0 0;
#X connect 11 0 0 0;
#X connect 12 0 0 0;
#X connect 13 0 0 0;
#X connect 14 0 0 0;
#X connect 15 0 0 0;
#X connect 16 0 17 0;
#X connect 17 0 40 0;
#X connect 18 0 20 0;
#X connect 18 0 34 0;
#X connect 19 0 21 0;
#X connect 22 0 16 0;
#X connect 23 0 24 0;
#X connect 25 0 26 0;
#X connect 26 0 27 0;
#X connect 27 0 28 0;
#X connect 28 0 37 0;
#X connect 29 0 35 0;
#X connect 29 0 36 0;
#X connect 29 1 31 0;
#X connect 29 1 32 0;
#X connect 31 0 30 0;
#X connect 32 0 33 0;
#X connect 33 0 0 0;
#X connect 34 0 42 0;
#X connect 35 0 33 0;
#X connect 36 0 30 0;
#X connect 37 0 29 0;
#X connect 38 0 39 0;
#X connect 39 0 0 0;
#X connect 40 0 18 0;
#X connect 40 1 19 0;
#X connect 40 2 23 0;
#X connect 40 3 25 0;
#X connect 40 4 41 0;
#X connect 42 0 28 0;
#X restore 740 180 pd OSCY;
#X symbolatom 740 205 17 0 0 0 - - -, f 17;
#X obj 420 130 s colorSeed;
#X obj 620 150 r inputN;
#X floatatom 620 175 10 0 0 0 - - -, f 10;
#X obj 660 682 bng 15 250 50 0 empty empty empty 17 7 0 10 #fcfcfc
#000000 #000000;
#X msg 660 705 1;
#X obj 660 730 s nextStage;
#X obj 730 690 print NEXT;
#X obj 624 566 loadbang;
#X msg 624 591 1;
#X obj 120 230 r startMusic;
#X obj 120 255 sel 1;
#X obj 120 280 bng 15 250 50 0 empty empty empty 17 7 0 10 #fcfcfc
#000000 #000000;
#X obj 120 303 del 100;
#X msg 100 410 1;
#X obj 60 440 t f f;
#X obj 100 440 t f f;
#X msg 60 410 0;
#X obj 60 465 metro 60000;
#X obj 140 465 metro 1000;
#X obj 60 516 mod 60;
#X obj 140 516 mod 60;
#X obj 60 571 pack;
#X obj 60 630 print LENGTH;
#X obj 140 541 t b f;
#X obj 60 541 f;
#X obj 60 490 f 0;
#X obj 90 490 + 1;
#X obj 140 490 f 0;
#X obj 170 490 + 1;
#X obj 156 628 tgl 15 0 empty empty empty 17 7 0 10 #fcfcfc #000000
#000000 0 1;
#X obj 60 600 spigot;
#X msg 686 315 open BYON-\$1.wav;
#X text 180 640 turn on time on terminal;
#X msg 275 104 1, f 15;
#X connect 0 0 71 0;
#X connect 2 0 17 0;
#X connect 2 1 18 0;
#X connect 4 0 5 0;
#X connect 5 0 71 0;
#X connect 7 0 6 0;
#X connect 9 0 24 0;
#X connect 9 0 41 0;
#X connect 10 0 6 0;
#X connect 11 0 12 0;
#X connect 13 0 14 0;
#X connect 16 0 20 0;
#X connect 16 1 7 0;
#X connect 16 1 51 0;
#X connect 16 2 69 0;
#X connect 16 2 13 0;
#X connect 16 3 8 0;
#X connect 17 0 6 0;
#X connect 17 0 3 0;
#X connect 18 0 6 1;
#X connect 18 0 3 1;
#X connect 19 0 18 1;
#X connect 19 0 17 1;
#X connect 20 0 2 0;
#X connect 20 1 21 0;
#X connect 21 0 22 0;
#X connect 22 0 19 0;
#X connect 23 0 19 0;
#X connect 24 0 11 0;
#X connect 24 0 15 0;
#X connect 24 1 25 0;
#X connect 24 2 23 0;
#X connect 25 0 10 0;
#X connect 25 0 54 0;
#X connect 26 0 9 0;
#X connect 27 0 28 0;
#X connect 27 1 16 0;
#X connect 28 0 34 0;
#X connect 29 0 6 0;
#X connect 30 0 6 0;
#X connect 32 0 33 0;
#X connect 34 0 20 0;
#X connect 34 1 30 0;
#X connect 34 1 51 0;
#X connect 34 2 29 0;
#X connect 34 2 32 0;
#X connect 34 3 31 0;
#X connect 35 0 9 0;
#X connect 36 0 37 0;
#X connect 39 0 40 0;
#X connect 40 0 27 0;
#X connect 40 0 38 0;
#X connect 41 0 42 0;
#X connect 41 0 44 0;
#X connect 42 0 43 0;
#X connect 45 0 46 0;
#X connect 46 0 3 2;
#X connect 47 0 48 0;
#X connect 48 0 49 0;
#X connect 49 0 50 0;
#X connect 51 0 53 0;
#X connect 52 0 55 0;
#X connect 52 1 56 0;
#X connect 53 0 55 0;
#X connect 53 1 56 0;
#X connect 54 0 52 0;
#X connect 55 0 63 0;
#X connect 56 0 65 0;
#X connect 57 0 62 1;
#X connect 58 0 61 0;
#X connect 59 0 68 0;
#X connect 61 0 62 0;
#X connect 61 1 59 1;
#X connect 62 0 59 0;
#X connect 63 0 64 0;
#X connect 63 0 57 0;
#X connect 64 0 63 1;
#X connect 65 0 66 0;
#X connect 65 0 58 0;
#X connect 66 0 65 1;
#X connect 67 0 68 1;
#X connect 68 0 60 0;
#X connect 69 0 6 0;
#X connect 71 0 27 0;
#X connect 71 0 38 0;
