#N canvas -8 -8 1708 866 10;
#X obj 463 67 random 100;
#X obj 463 121 / 50;
#X obj 463 146 - 1;
#X floatatom 463 171 5 0 0 0 - - -, f 5;
#X floatatom 550 145 5 0 0 0 - - -, f 5;
#X obj 556 338 line;
#X floatatom 556 363 5 0 0 0 - - -, f 5;
#X floatatom 463 92 5 0 0 0 - - -, f 5;
#X obj 556 209 delay;
#X obj 556 180 t b f;
#X obj 463 -58 bng 15 250 50 0 empty empty empty 17 7 0 10 #fcfcfc
#000000 #000000;
#X obj 463 -35 t b b b;
#X floatatom 624 143 5 0 0 0 - - -, f 5;
#X obj 553 245 spigot;
#X obj 624 90 t f f;
#X obj 556 288 pack f f f;
#X msg 556 313 \$1 \, \$2 \$3;
#X obj 544 67 random 500;
#X obj 543 113 + 100;
#X obj 24 -196 s \$0-patchon;
#X obj 407 -88 r \$0-patchon;
#X obj 571 -36 / 10;
#X floatatom 571 -63 5 0 0 0 - - -, f 5;
#X obj 106 258 osc~;
#N canvas 0 0 450 300 (subpatch) 0;
#X array \$0-spect 25 float 1 black #ff0000;
#A 0 -0.5 0.56 0.58 0.96 -0.56 -0.1 -0.44 -0.66 -0.74 0.22 0.58 -0.78
-0.54 0.2 0.3 -0.5 -0.36 -0.1 0.22 0.52 0.4 -0.72 -0.38 -0.56 -0.58
;
#X coords 0 1 24 -1 200 140 1;
#X restore 744 3 graph;
#X obj 624 66 random 25;
#X obj 231 547 +~ 1;
#X obj 230 572 *~ 10;
#X obj 194 253 phasor~;
#X obj 194 278 *~ 2;
#X obj 194 303 -~ 1;
#X obj 208 354 sel 0 1 2;
#X msg 245 410 0 20;
#X obj 193 472 *~;
#X msg 208 411 1 20;
#X msg 321 409 0 20;
#X obj 269 471 *~;
#X msg 281 408 1 20;
#X msg 171 410 0 20;
#X obj 119 472 *~;
#X msg 134 411 1 20;
#X obj 134 436 line;
#X obj 207 444 line;
#X obj 281 443 line;
#X obj 288 251 phasor~;
#X text 951 60 random shaping function;
#X text 412 -122 CREATES RANDOM CHANGES TO SHAPING FUNCTION;
#X obj 461 -240 loadbang;
#X msg 490 -210 400;
#X msg 459 -210 0;
#X obj 317 280 -~ 0.5;
#X obj 317 305 abs~;
#X obj 317 330 *~ 4;
#X obj 317 355 -~ 1;
#X obj 24 -253 inlet;
#X text 745 -217 INLETS:;
#X text 745 -192 1 - patch on/off (tgl);
#X floatatom 409 -185 5 0 0 0 - - -, f 5;
#X obj 226 755 outlet~;
#X text 745 -57 OUTLETS;
#X text 745 -32 1 - Synth sound out (~);
#X obj 106 221 mtof;
#X text 745 -162 2 - notein;
#X obj 409 -156 s \$0-input-wave;
#X obj 510 -155 s \$0-change-rate;
#X obj 209 325 r \$0-input-wave;
#X obj 230 599 tabread~ \$0-spect;
#X obj 571 -85 r \$0-change-rate;
#X obj 624 118 tabread \$0-spect;
#X obj 555 389 tabwrite \$0-spect;
#X msg 450 40 seed \$1;
#X msg 550 40 seed \$1;
#X msg 630 40 seed \$1;
#X obj 631 -48 r inp-n;
#X obj 230 630 *~ 1;
#X obj 510 -185 maxlib/scale 0 100 20 2000;
#X obj 107 184 notifier-trunc;
#X obj 201 183 notifier-trunc2;
#X obj 305 182 notifier-mess;
#X text 173 -98 choose which scale (3);
#X obj 313 159 mod 5;
#X obj 358 159 mod 4;
#X obj 259 159 mod 4;
#X obj 114 159 mod 5;
#X obj 159 159 mod 4;
#X obj 214 159 mod 4;
#X obj 104 -74 gate 3;
#X obj 104 -101 mod 3;
#X obj 142 -100 + 1;
#X obj 142 32 + 1;
#X obj 104 31 mod 2;
#X obj 104 58 gate 2;
#X obj 104 83 random 7;
#X obj 238 32 + 1;
#X obj 200 31 mod 2;
#X obj 200 58 gate 2;
#X obj 344 32 + 1;
#X obj 306 31 mod 2;
#X obj 306 58 gate 2;
#X obj 200 83 random 13;
#X obj 306 83 random 10;
#X msg 160 0 seed \$1;
#X obj 104 -124 r ale2;
#X obj 104 -42 r ale4;
#X obj 114 134 r ale6;
#X obj 159 134 r ale10;
#X obj 214 134 r ale6;
#X obj 259 134 r ale10;
#X obj 313 134 r ale16;
#X obj 358 134 r ale10;
#X obj 140 -247 inlet;
#X obj 523 -207 r ale8;
#X obj 409 -237 r ale12;
#X obj 409 -212 mod 3;
#X obj 393 486 r \$0-patchon;
#X obj 393 511 tgl 15 0 empty empty empty 17 7 0 10 #fcfcfc #000000
#000000 0 1;
#X obj 407 -63 t b f;
#X obj 376 737 outlet;
#X text 376 762 passtru;
#X obj 391 538 sel 0 1;
#X obj 406 567 r sect-del;
#X obj 391 622 f;
#X obj 406 592 pipe 1000;
#X msg 391 647 0 \$1;
#X msg 411 671 1 30;
#X obj 391 702 line;
#X msg 701 273 seed \$1;
#X obj 664 148 r ale1;
#X obj 664 173 t b f;
#X obj 664 300 random 100;
#X obj 664 325 / 50;
#X obj 664 350 - 1;
#X obj 664 224 until;
#X obj 664 248 f 0;
#X obj 689 248 + 1;
#X msg 694 199 0;
#X msg 664 199 25;
#X obj 727 228 sel 24;
#X obj 664 273 t b f;
#X text 690 349 define initial table;
#X obj 631 -13 + 15;
#X obj 664 -13 + 25;
#X obj 697 -13 + 35;
#X obj 40 250 change;
#X obj 40 275 bng 15 250 50 0 empty empty empty 17 7 0 10 #fcfcfc #000000
#000000;
#X obj 40 298 s diceTone1OSC;
#X obj 24 -228 change;
#X obj 175 -212 s offDiceTone1;
#X obj 300 210 r phaRes;
#X msg 20 -15 7;
#X msg 30 15 13;
#X msg 40 45 10;
#X obj 20 -40 del 500;
#X obj 20 -70 loadbang;
#X obj 137 104 myDrunk;
#X obj 233 104 myDrunk;
#X obj 339 104 myDrunk;
#X obj 104 -17 t f f;
#X connect 0 0 7 0;
#X connect 1 0 2 0;
#X connect 2 0 3 0;
#X connect 3 0 15 1;
#X connect 4 0 9 0;
#X connect 4 0 15 2;
#X connect 5 0 6 0;
#X connect 6 0 69 0;
#X connect 7 0 1 0;
#X connect 8 0 13 0;
#X connect 9 0 8 0;
#X connect 9 1 8 1;
#X connect 10 0 11 0;
#X connect 11 0 0 0;
#X connect 11 1 17 0;
#X connect 11 2 25 0;
#X connect 12 0 15 0;
#X connect 13 0 10 0;
#X connect 14 0 68 0;
#X connect 14 1 69 1;
#X connect 15 0 16 0;
#X connect 16 0 5 0;
#X connect 17 0 18 0;
#X connect 18 0 4 0;
#X connect 20 0 116 0;
#X connect 21 0 18 1;
#X connect 22 0 21 0;
#X connect 22 0 17 1;
#X connect 23 0 39 0;
#X connect 25 0 14 0;
#X connect 26 0 27 0;
#X connect 27 0 66 0;
#X connect 28 0 29 0;
#X connect 29 0 30 0;
#X connect 30 0 33 0;
#X connect 31 0 40 0;
#X connect 31 0 32 0;
#X connect 31 0 35 0;
#X connect 31 1 34 0;
#X connect 31 1 38 0;
#X connect 31 1 35 0;
#X connect 31 2 37 0;
#X connect 31 2 32 0;
#X connect 31 2 38 0;
#X connect 32 0 42 0;
#X connect 33 0 26 0;
#X connect 34 0 42 0;
#X connect 35 0 43 0;
#X connect 36 0 26 0;
#X connect 37 0 43 0;
#X connect 38 0 41 0;
#X connect 39 0 26 0;
#X connect 40 0 41 0;
#X connect 41 0 39 1;
#X connect 42 0 33 1;
#X connect 43 0 36 1;
#X connect 44 0 50 0;
#X connect 47 0 48 0;
#X connect 47 0 49 0;
#X connect 48 0 64 0;
#X connect 49 0 57 0;
#X connect 50 0 51 0;
#X connect 51 0 52 0;
#X connect 52 0 53 0;
#X connect 53 0 36 0;
#X connect 54 0 146 0;
#X connect 54 0 147 0;
#X connect 57 0 63 0;
#X connect 61 0 44 0;
#X connect 61 0 28 0;
#X connect 61 0 23 0;
#X connect 61 0 143 0;
#X connect 65 0 31 0;
#X connect 66 0 74 0;
#X connect 67 0 22 0;
#X connect 68 0 12 0;
#X connect 70 0 0 0;
#X connect 71 0 17 0;
#X connect 72 0 25 0;
#X connect 73 0 140 0;
#X connect 73 0 141 0;
#X connect 73 0 142 0;
#X connect 74 0 58 0;
#X connect 75 0 64 0;
#X connect 76 0 61 0;
#X connect 77 0 61 0;
#X connect 78 0 61 0;
#X connect 80 0 78 1;
#X connect 81 0 78 2;
#X connect 82 0 77 2;
#X connect 83 0 76 1;
#X connect 84 0 76 2;
#X connect 85 0 77 1;
#X connect 86 0 91 1;
#X connect 86 1 95 1;
#X connect 86 2 98 1;
#X connect 87 0 88 0;
#X connect 88 0 86 0;
#X connect 89 0 91 0;
#X connect 90 0 89 0;
#X connect 91 0 92 0;
#X connect 91 1 154 0;
#X connect 92 0 76 0;
#X connect 93 0 95 0;
#X connect 94 0 93 0;
#X connect 95 0 99 0;
#X connect 95 1 155 0;
#X connect 96 0 98 0;
#X connect 97 0 96 0;
#X connect 98 0 100 0;
#X connect 98 1 156 0;
#X connect 99 0 77 0;
#X connect 100 0 78 0;
#X connect 101 0 99 0;
#X connect 101 0 100 0;
#X connect 101 0 92 0;
#X connect 101 0 154 0;
#X connect 101 0 155 0;
#X connect 101 0 156 0;
#X connect 102 0 87 0;
#X connect 103 0 157 0;
#X connect 104 0 83 0;
#X connect 105 0 84 0;
#X connect 106 0 85 0;
#X connect 107 0 82 0;
#X connect 108 0 80 0;
#X connect 109 0 81 0;
#X connect 110 0 86 1;
#X connect 110 0 117 0;
#X connect 111 0 75 0;
#X connect 112 0 113 0;
#X connect 113 0 57 0;
#X connect 114 0 115 0;
#X connect 115 0 119 0;
#X connect 116 0 10 0;
#X connect 116 1 13 1;
#X connect 119 0 121 0;
#X connect 119 1 124 0;
#X connect 120 0 122 0;
#X connect 121 0 123 0;
#X connect 122 0 121 1;
#X connect 123 0 125 0;
#X connect 124 0 125 0;
#X connect 125 0 74 1;
#X connect 126 0 129 0;
#X connect 127 0 128 0;
#X connect 128 0 136 0;
#X connect 128 1 126 0;
#X connect 129 0 130 0;
#X connect 130 0 131 0;
#X connect 131 0 69 0;
#X connect 132 0 133 0;
#X connect 133 0 134 0;
#X connect 133 0 138 0;
#X connect 134 0 133 1;
#X connect 135 0 133 1;
#X connect 136 0 132 0;
#X connect 137 0 135 0;
#X connect 138 0 129 0;
#X connect 138 1 137 0;
#X connect 138 1 69 1;
#X connect 140 0 70 0;
#X connect 141 0 71 0;
#X connect 142 0 72 0;
#X connect 143 0 144 0;
#X connect 144 0 145 0;
#X connect 146 0 19 0;
#X connect 148 0 44 1;
#X connect 148 0 23 1;
#X connect 148 0 28 1;
#X connect 149 0 154 1;
#X connect 150 0 155 1;
#X connect 151 0 156 1;
#X connect 152 0 149 0;
#X connect 152 0 151 0;
#X connect 152 0 150 0;
#X connect 153 0 152 0;
#X connect 154 0 76 0;
#X connect 155 0 77 0;
#X connect 156 0 78 0;
#X connect 157 0 90 0;
#X connect 157 0 94 0;
#X connect 157 0 97 0;
#X connect 157 1 101 0;
