#N canvas 0 0 1220 759 10;
#X obj 463 67 random 100;
#X obj 463 121 / 50;
#X obj 463 146 - 1;
#X floatatom 463 171 5 0 0 0 - - -, f 5;
#X floatatom 550 145 5 0 0 0 - - -, f 5;
#X obj 556 338 line;
#X floatatom 556 363 5 0 0 0 - - -, f 5;
#X floatatom 463 92 5 0 0 0 - - -, f 5;
#X obj 556 209 delay;
#X obj 556 180 t b f;
#X obj 463 -58 bng 15 250 50 0 empty empty empty 17 7 0 10 #fcfcfc
#000000 #000000;
#X obj 463 -35 t b b b;
#X floatatom 624 143 5 0 0 0 - - -, f 5;
#X obj 557 243 spigot;
#X obj 624 90 t f f;
#X obj 556 288 pack f f f;
#X msg 556 313 \$1 \, \$2 \$3;
#X obj 544 67 random 500;
#X obj 543 113 + 100;
#X obj 24 -226 s \$0-patchon;
#X obj 407 -88 r \$0-patchon;
#X obj 571 -36 / 10;
#X floatatom 571 -63 5 0 0 0 - - -, f 5;
#X obj 106 258 osc~;
#N canvas 0 0 450 300 (subpatch) 0;
#X array \$0-spect 25 float 1 black #ff0000;
#A 0 0.524471 -0.56 -0.7 0.369057 0.24 -0.610549 -0.4 -0.42 -0.0424837
0.36 -0.275408 -0.141818 -0.734108 0.607097 -0.324385 -0.0368749 0.58
0.327633 0.377822 -0.44 -0.86 -0.214005 0.462151 -0.4 0.192306;
#X coords 0 1 24 -1 200 140 1;
#X restore 744 3 graph;
#X obj 624 66 random 25;
#X obj 231 547 +~ 1;
#X obj 230 572 *~ 10;
#X obj 194 253 phasor~;
#X obj 194 278 *~ 2;
#X obj 194 303 -~ 1;
#X obj 208 354 sel 0 1 2;
#X msg 245 410 0 20;
#X obj 193 472 *~;
#X msg 208 411 1 20;
#X msg 321 409 0 20;
#X obj 269 471 *~;
#X msg 281 408 1 20;
#X msg 171 410 0 20;
#X obj 119 472 *~;
#X msg 134 411 1 20;
#X obj 134 436 line;
#X obj 207 444 line;
#X obj 281 443 line;
#X obj 288 251 phasor~;
#X text 951 60 random shaping function;
#X text 412 -122 CREATES RANDOM CHANGES TO SHAPING FUNCTION;
#X obj 461 -240 loadbang;
#X msg 490 -210 400;
#X msg 459 -210 0;
#X obj 317 280 -~ 0.5;
#X obj 317 305 abs~;
#X obj 317 330 *~ 4;
#X obj 317 355 -~ 1;
#X obj 24 -253 inlet;
#X text 745 -217 INLETS:;
#X text 745 -192 1 - patch on/off (tgl);
#X floatatom 409 -185 5 0 0 0 - - -, f 5;
#X obj 226 755 outlet~;
#X text 745 -57 OUTLETS;
#X text 745 -32 1 - Synth sound out (~);
#X obj 106 221 mtof;
#X text 745 -162 2 - notein;
#X obj 409 -156 s \$0-input-wave;
#X obj 510 -155 s \$0-change-rate;
#X obj 209 325 r \$0-input-wave;
#X obj 230 599 tabread~ \$0-spect;
#X obj 571 -85 r \$0-change-rate;
#X obj 624 118 tabread \$0-spect;
#X obj 555 389 tabwrite \$0-spect;
#X msg 450 40 seed \$1;
#X msg 550 40 seed \$1;
#X msg 630 40 seed \$1;
#X obj 631 -48 r inp-n;
#X obj 631 -13 + 10;
#X obj 664 -13 + 20;
#X obj 697 -13 + 30;
#X obj 230 630 *~ 1;
#X obj 510 -185 maxlib/scale 0 100 20 2000;
#X obj 302 488 r \$0-patchon;
#X msg 302 538 0 20;
#X obj 302 563 line;
#X obj 302 513 sel 0 1;
#X msg 339 538 1 20;
#X obj 107 184 notifier-trunc;
#X obj 201 183 notifier-trunc2;
#X obj 305 182 notifier-mess;
#X text 173 -98 choose which scale (3);
#X obj 313 159 mod 5;
#X obj 358 159 mod 4;
#X obj 259 159 mod 4;
#X obj 114 159 mod 5;
#X obj 159 159 mod 4;
#X obj 214 159 mod 4;
#X obj 104 -74 gate 3;
#X obj 104 -101 mod 3;
#X obj 142 -100 + 1;
#X obj 142 -18 + 1;
#X obj 104 -19 mod 2;
#X obj 104 8 gate 2;
#X obj 104 83 random 7;
#X obj 137 104 drunk 7;
#X obj 238 -18 + 1;
#X obj 200 -19 mod 2;
#X obj 200 8 gate 2;
#X obj 344 -18 + 1;
#X obj 306 -19 mod 2;
#X obj 306 8 gate 2;
#X obj 200 83 random 13;
#X obj 233 104 drunk 13;
#X obj 306 83 random 10;
#X obj 104 50 bng 15 250 50 0 empty empty empty 17 7 0 10 #fcfcfc #000000
#000000;
#X obj 339 104 drunk 10;
#X msg 132 47 seed \$1;
#X obj 140 -247 inlet;
#X obj 523 -207 r ale8;
#X obj 409 -237 r ale12;
#X obj 409 -212 mod 3;
#X obj 358 134 r ale2;
#X obj 313 134 r ale4;
#X obj 259 134 r ale2;
#X obj 214 134 r ale4;
#X obj 159 134 r ale3;
#X obj 114 134 r ale4;
#X obj 306 -42 r ale6;
#X obj 104 -42 r ale6;
#X obj 200 -42 r ale6;
#X obj 104 -124 r ale8;
#X connect 0 0 7 0;
#X connect 1 0 2 0;
#X connect 2 0 3 0;
#X connect 3 0 15 1;
#X connect 4 0 9 0;
#X connect 4 0 15 2;
#X connect 5 0 6 0;
#X connect 6 0 69 0;
#X connect 7 0 1 0;
#X connect 8 0 13 0;
#X connect 9 0 8 0;
#X connect 9 1 8 1;
#X connect 10 0 11 0;
#X connect 11 0 0 0;
#X connect 11 1 17 0;
#X connect 11 2 25 0;
#X connect 12 0 15 0;
#X connect 13 0 10 0;
#X connect 14 0 68 0;
#X connect 14 1 69 1;
#X connect 15 0 16 0;
#X connect 16 0 5 0;
#X connect 17 0 18 0;
#X connect 18 0 4 0;
#X connect 20 0 13 1;
#X connect 20 0 10 0;
#X connect 21 0 18 1;
#X connect 22 0 21 0;
#X connect 22 0 17 1;
#X connect 23 0 39 0;
#X connect 25 0 14 0;
#X connect 26 0 27 0;
#X connect 27 0 66 0;
#X connect 28 0 29 0;
#X connect 29 0 30 0;
#X connect 30 0 33 0;
#X connect 31 0 40 0;
#X connect 31 0 32 0;
#X connect 31 0 35 0;
#X connect 31 1 34 0;
#X connect 31 1 38 0;
#X connect 31 1 35 0;
#X connect 31 2 37 0;
#X connect 31 2 32 0;
#X connect 31 2 38 0;
#X connect 32 0 42 0;
#X connect 33 0 26 0;
#X connect 34 0 42 0;
#X connect 35 0 43 0;
#X connect 36 0 26 0;
#X connect 37 0 43 0;
#X connect 38 0 41 0;
#X connect 39 0 26 0;
#X connect 40 0 41 0;
#X connect 41 0 39 1;
#X connect 42 0 33 1;
#X connect 43 0 36 1;
#X connect 44 0 50 0;
#X connect 47 0 48 0;
#X connect 47 0 49 0;
#X connect 48 0 64 0;
#X connect 49 0 57 0;
#X connect 50 0 51 0;
#X connect 51 0 52 0;
#X connect 52 0 53 0;
#X connect 53 0 36 0;
#X connect 54 0 19 0;
#X connect 57 0 63 0;
#X connect 61 0 44 0;
#X connect 61 0 28 0;
#X connect 61 0 23 0;
#X connect 65 0 31 0;
#X connect 66 0 77 0;
#X connect 67 0 22 0;
#X connect 68 0 12 0;
#X connect 70 0 0 0;
#X connect 71 0 17 0;
#X connect 72 0 25 0;
#X connect 73 0 74 0;
#X connect 73 0 75 0;
#X connect 73 0 76 0;
#X connect 74 0 70 0;
#X connect 75 0 71 0;
#X connect 76 0 72 0;
#X connect 77 0 58 0;
#X connect 78 0 64 0;
#X connect 79 0 82 0;
#X connect 80 0 81 0;
#X connect 81 0 77 1;
#X connect 82 0 80 0;
#X connect 82 1 83 0;
#X connect 83 0 81 0;
#X connect 84 0 61 0;
#X connect 85 0 61 0;
#X connect 86 0 61 0;
#X connect 88 0 86 1;
#X connect 89 0 86 2;
#X connect 90 0 85 2;
#X connect 91 0 84 1;
#X connect 92 0 84 2;
#X connect 93 0 85 1;
#X connect 94 0 99 1;
#X connect 94 1 104 1;
#X connect 94 2 107 1;
#X connect 95 0 96 0;
#X connect 96 0 94 0;
#X connect 97 0 99 0;
#X connect 98 0 97 0;
#X connect 99 0 111 0;
#X connect 99 1 111 0;
#X connect 100 0 84 0;
#X connect 101 0 84 0;
#X connect 102 0 104 0;
#X connect 103 0 102 0;
#X connect 104 0 111 0;
#X connect 104 1 111 0;
#X connect 105 0 107 0;
#X connect 106 0 105 0;
#X connect 107 0 111 0;
#X connect 107 1 111 0;
#X connect 108 0 85 0;
#X connect 109 0 85 0;
#X connect 110 0 86 0;
#X connect 111 0 108 0;
#X connect 111 0 112 0;
#X connect 111 0 110 0;
#X connect 111 0 109 0;
#X connect 111 0 101 0;
#X connect 111 0 100 0;
#X connect 112 0 86 0;
#X connect 113 0 108 0;
#X connect 113 0 112 0;
#X connect 113 0 110 0;
#X connect 113 0 109 0;
#X connect 113 0 101 0;
#X connect 113 0 100 0;
#X connect 114 0 94 1;
#X connect 115 0 78 0;
#X connect 116 0 117 0;
#X connect 117 0 57 0;
#X connect 118 0 89 0;
#X connect 119 0 88 0;
#X connect 120 0 90 0;
#X connect 121 0 93 0;
#X connect 122 0 92 0;
#X connect 123 0 91 0;
#X connect 124 0 106 0;
#X connect 124 0 113 0;
#X connect 125 0 98 0;
#X connect 126 0 103 0;
#X connect 127 0 95 0;
