#N canvas 296 8 628 740 10;
#X obj 285 189 /;
#X floatatom 285 104 5 0 0 0 - - -, f 5;
#X obj 285 134 t b f;
#X obj 258 217 metro;
#X obj 180 56 tgl 15 0 empty empty empty 17 7 0 10 #fcfcfc #000000
#000000 0 1;
#X msg 285 159 60000;
#X obj 258 242 f 0;
#X obj 286 242 + 1;
#X obj 258 273 % 5;
#X obj 332 38 r inp-n;
#X obj 332 116 + 100;
#X msg 332 141 seed \$1;
#X obj 332 166 t b a;
#X floatatom 332 241 5 0 0 0 - - -, f 5;
#X obj 258 414 moses 1;
#X obj 168 577 outlet;
#X text 168 602 downbeat;
#X obj 238 578 outlet;
#X text 238 603 otherbeats;
#X obj 247 135 sel 0;
#X msg 247 160 0;
#X obj 307 349 + 0;
#X text 540 38 offfset;
#X obj 540 63 inlet;
#X obj 410 165 random 15;
#X obj 412 190 + 1;
#X floatatom 412 215 5 0 0 0 - - -, f 5;
#X msg 422 141 seed \$1;
#X obj 422 115 + 13;
#X obj 360 370 *;
#X obj 360 397 % 5;
#X obj 360 422 <;
#X obj 360 447 sel 1;
#X obj 344 572 outlet;
#X text 344 597 euclidean;
#X obj 444 578 outlet;
#X text 444 603 nohits;
#X obj 202 535 bng 15 250 50 0 empty empty empty 17 7 0 10 #fcfcfc
#000000 #000000;
#X obj 232 535 bng 15 250 50 0 empty empty empty 17 7 0 10 #fcfcfc
#000000 #000000;
#X obj 362 525 bng 15 250 50 0 empty empty empty 17 7 0 10 #fcfcfc
#000000 #000000;
#X obj 392 525 bng 15 250 50 0 empty empty empty 17 7 0 10 #fcfcfc
#000000 #000000;
#X obj 366 270 - 1;
#X obj 332 191 random 14;
#X obj 332 216 + 3;
#X obj 435 310 t b f b;
#X obj 332 91 f;
#X obj 332 63 t b f;
#X text 262 24 BPM;
#X obj 262 42 inlet;
#X obj 176 28 inlet;
#X obj 84 77 loadbang;
#X msg 84 102 60;
#X obj 388 38 r inp-p;
#X connect 0 0 3 1;
#X connect 1 0 2 0;
#X connect 2 0 5 0;
#X connect 2 1 0 1;
#X connect 3 0 6 0;
#X connect 4 0 3 0;
#X connect 4 0 19 0;
#X connect 5 0 0 0;
#X connect 6 0 7 0;
#X connect 6 0 8 0;
#X connect 7 0 6 1;
#X connect 8 0 14 0;
#X connect 8 0 21 0;
#X connect 9 0 46 0;
#X connect 10 0 11 0;
#X connect 11 0 12 0;
#X connect 12 0 42 0;
#X connect 12 1 42 0;
#X connect 13 0 8 1;
#X connect 13 0 30 1;
#X connect 13 0 41 0;
#X connect 14 0 37 0;
#X connect 14 1 38 0;
#X connect 19 0 20 0;
#X connect 20 0 6 1;
#X connect 21 0 29 0;
#X connect 23 0 21 1;
#X connect 24 0 25 0;
#X connect 25 0 26 0;
#X connect 26 0 29 1;
#X connect 26 0 31 1;
#X connect 27 0 24 0;
#X connect 28 0 27 0;
#X connect 29 0 30 0;
#X connect 30 0 31 0;
#X connect 31 0 32 0;
#X connect 32 0 39 0;
#X connect 32 1 40 0;
#X connect 37 0 15 0;
#X connect 38 0 17 0;
#X connect 39 0 33 0;
#X connect 40 0 35 0;
#X connect 41 0 44 0;
#X connect 42 0 43 0;
#X connect 43 0 13 0;
#X connect 44 0 24 0;
#X connect 44 1 24 1;
#X connect 45 0 10 0;
#X connect 45 0 28 0;
#X connect 46 0 45 0;
#X connect 46 1 45 1;
#X connect 48 0 1 0;
#X connect 49 0 4 0;
#X connect 50 0 51 0;
#X connect 51 0 1 0;
#X connect 52 0 46 0;
