#N canvas 0 0 1691 848 10;
#X obj 483 362 soundfiler;
#X floatatom 483 387 17 0 0 0 - - -, f 17;
#N canvas 0 0 450 300 (subpatch) 0;
#X array graintx2 540000 float 0 black #ff0000;
#X coords 0 1 539999 -1 200 140 1;
#X restore 28 30 graph;
#X obj 320 74 vradio 20 0 0 4 empty empty empty 0 -8 0 10 #fcfcfc #000000
#000000 0;
#X text 343 137 swarmNoise.wav;
#X text 343 115 noiseTalker.wav;
#X text 343 93 noisePoly.wav;
#X text 343 75 bell.wav;
#X obj 483 185 sel 0 1 2 3;
#X msg 483 210 bell.wav;
#X msg 498 235 noisePoly.wav;
#X msg 514 260 noiseTalker.wav;
#X msg 532 281 swarmNoise.wav;
#X obj 483 281 symbol;
#X text 443 529 Start;
#X floatatom 394 530 7 0 0 0 - - -, f 7;
#X obj 393 477 metro 100;
#X obj 393 502 random 540000;
#X text 602 531 Start;
#X floatatom 553 532 7 0 0 0 - - -, f 7;
#X obj 552 479 metro 100;
#X obj 552 504 random 540000;
#X text 420 448 L;
#X text 581 454 R;
#X msg 130 373 seed \$1;
#X obj 265 92 tgl 15 0 empty empty empty 17 7 0 10 #fcfcfc #000000
#000000 0 1;
#X obj 265 45 inlet;
#X msg 394 554 next \$1;
#X msg 553 556 next \$1;
#X obj 394 1048 outlet~;
#X obj 553 1044 outlet~;
#X obj 950 227 maxlib/scale 0 100 50 170;
#X obj 1126 228 maxlib/scale 0 100 0.1 2.5;
#X obj 29 371 mod 4;
#X msg 188 373 seed \$1;
#X obj 463 60 mod 4;
#X floatatom 1126 253 5 0 0 0 - - -, f 5;
#X floatatom 950 252 5 0 0 0 - - -, f 5;
#X obj 393 667 *~ 1;
#X obj 552 669 *~ 1;
#X obj 951 271 s grainDurtx2;
#X obj 1126 273 s grainSpeedtx2;
#X obj 28 395 s wavelopetx2;
#X obj 394 577 clone grain-txb 32;
#X obj 553 579 clone grain-txb 32;
#X obj 463 35 r ale2;
#X obj 29 346 r ale5;
#X obj 130 348 r ale8;
#X obj 188 348 r ale11;
#X obj 945 19 r sect-t;
#X obj 950 202 line;
#X obj 946 121 / 2;
#X obj 946 146 f;
#X obj 900 121 r ale1;
#X obj 900 146 f;
#X obj 220 247 sel 1;
#X obj 220 272 s start-ramps;
#X obj 944 40 r start-ramps;
#X obj 976 146 del;
#X obj 1005 146 f;
#X obj 950 179 pack;
#X obj 900 93 t b b;
#X obj 1005 121 r ale2;
#X obj 1122 148 f;
#X obj 1076 148 f;
#X obj 1150 149 del;
#X obj 1176 149 f;
#X obj 1126 181 pack;
#X obj 1122 123 / 3;
#X obj 906 203 r ale3;
#X obj 1076 99 t b b;
#X obj 1176 174 t f b;
#X obj 1231 149 f;
#X obj 1205 149 del;
#X obj 1082 203 r ale4;
#X obj 1126 203 line;
#X obj 1076 123 r ale5;
#X obj 1168 123 r ale6;
#X obj 1212 123 r ale7;
#X obj 265 70 change;
#X msg 483 307 read -resize samples/\$1 graintx2;
#X connect 0 0 1 0;
#X connect 1 0 17 1;
#X connect 1 0 21 1;
#X connect 3 0 8 0;
#X connect 8 0 9 0;
#X connect 8 1 10 0;
#X connect 8 2 11 0;
#X connect 8 3 12 0;
#X connect 9 0 13 0;
#X connect 10 0 13 0;
#X connect 11 0 13 0;
#X connect 12 0 13 0;
#X connect 13 0 80 0;
#X connect 15 0 27 0;
#X connect 16 0 17 0;
#X connect 17 0 15 0;
#X connect 19 0 28 0;
#X connect 20 0 21 0;
#X connect 21 0 19 0;
#X connect 24 0 17 0;
#X connect 25 0 16 0;
#X connect 25 0 20 0;
#X connect 25 0 55 0;
#X connect 26 0 79 0;
#X connect 27 0 43 0;
#X connect 28 0 44 0;
#X connect 31 0 37 0;
#X connect 32 0 36 0;
#X connect 33 0 42 0;
#X connect 34 0 21 0;
#X connect 35 0 3 0;
#X connect 36 0 41 0;
#X connect 37 0 40 0;
#X connect 38 0 29 0;
#X connect 39 0 30 0;
#X connect 43 0 38 0;
#X connect 44 0 39 0;
#X connect 45 0 35 0;
#X connect 46 0 33 0;
#X connect 47 0 24 0;
#X connect 48 0 34 0;
#X connect 49 0 51 0;
#X connect 49 0 68 0;
#X connect 50 0 31 0;
#X connect 51 0 52 1;
#X connect 51 0 58 1;
#X connect 52 0 60 1;
#X connect 53 0 54 1;
#X connect 54 0 60 0;
#X connect 55 0 56 0;
#X connect 57 0 61 0;
#X connect 57 0 70 0;
#X connect 58 0 59 0;
#X connect 59 0 60 0;
#X connect 60 0 50 0;
#X connect 61 0 54 0;
#X connect 61 0 58 0;
#X connect 61 1 52 0;
#X connect 62 0 59 1;
#X connect 63 0 67 1;
#X connect 64 0 67 0;
#X connect 65 0 66 0;
#X connect 66 0 71 0;
#X connect 67 0 75 0;
#X connect 68 0 63 1;
#X connect 68 0 65 1;
#X connect 68 0 73 1;
#X connect 69 0 31 0;
#X connect 70 0 64 0;
#X connect 70 0 65 0;
#X connect 70 1 63 0;
#X connect 71 0 67 0;
#X connect 71 1 73 0;
#X connect 72 0 67 0;
#X connect 73 0 72 0;
#X connect 74 0 32 0;
#X connect 75 0 32 0;
#X connect 76 0 64 1;
#X connect 77 0 66 1;
#X connect 78 0 72 1;
#X connect 79 0 25 0;
#X connect 80 0 0 0;
