#N canvas 504 8 923 834 10;
#X obj 483 362 soundfiler;
#X floatatom 483 387 17 0 0 0 - - -, f 17;
#N canvas 0 0 450 300 (subpatch) 0;
#X array graintx1 540000 float 0 black #ff0000;
#X coords 0 1 539999 -1 200 140 1;
#X restore 28 30 graph;
#X obj 320 74 vradio 20 0 0 4 empty empty empty 0 -8 0 10 #fcfcfc #000000
#000000 0;
#X text 343 137 swarmNoise.wav;
#X text 343 115 noiseTalker.wav;
#X text 343 93 noisePoly.wav;
#X text 343 75 bell.wav;
#X obj 483 185 sel 0 1 2 3;
#X msg 483 210 bell.wav;
#X msg 498 235 noisePoly.wav;
#X msg 514 260 noiseTalker.wav;
#X msg 532 281 swarmNoise.wav;
#X obj 483 281 symbol;
#X text 443 529 Start;
#X floatatom 394 530 7 0 0 0 - - -, f 7;
#X obj 393 477 metro 100;
#X obj 393 502 random 540000;
#X text 602 531 Start;
#X floatatom 553 532 7 0 0 0 - - -, f 7;
#X obj 552 479 metro 100;
#X obj 552 504 random 540000;
#X text 420 448 L;
#X text 581 454 R;
#X msg 130 373 seed \$1;
#X obj 265 92 tgl 15 0 empty empty empty 17 7 0 10 #fcfcfc #000000
#000000 0 1;
#X obj 265 45 inlet;
#X msg 394 554 next \$1;
#X msg 553 556 next \$1;
#X obj 394 1048 outlet~;
#X obj 553 1044 outlet~;
#X obj 29 371 mod 4;
#X msg 188 373 seed \$1;
#X obj 463 60 mod 4;
#X obj 394 577 clone grain-txa 32;
#X obj 553 579 clone grain-txa 32;
#X obj 28 395 s wavelopetx1;
#X obj 463 35 r ale1;
#X obj 29 346 r ale3;
#X obj 130 348 r ale5;
#X obj 188 348 r ale7;
#X obj 393 667 *~ 1;
#X obj 552 669 *~ 1;
#X obj 1028 258 maxlib/scale 0 100 50 170;
#X obj 1204 259 maxlib/scale 0 100 0.1 2.5;
#X floatatom 1204 284 5 0 0 0 - - -, f 5;
#X floatatom 1028 283 5 0 0 0 - - -, f 5;
#X obj 1023 50 r sect-t;
#X obj 1028 233 line;
#X obj 1024 152 / 2;
#X obj 1024 177 f;
#X obj 978 177 f;
#X obj 1022 71 r start-ramps;
#X obj 1054 177 del;
#X obj 1083 177 f;
#X obj 1028 210 pack;
#X obj 978 124 t b b;
#X obj 1200 179 f;
#X obj 1154 179 f;
#X obj 1228 180 del;
#X obj 1254 180 f;
#X obj 1204 212 pack;
#X obj 1200 154 / 3;
#X obj 1154 130 t b b;
#X obj 1254 205 t f b;
#X obj 1309 180 f;
#X obj 1283 180 del;
#X obj 1204 234 line;
#X obj 1029 302 s grainDurtx1;
#X obj 1204 304 s grainSpeedtx1;
#X obj 978 152 r ale20;
#X obj 1083 152 r ale19;
#X obj 1154 154 r ale18;
#X obj 1246 154 r ale17;
#X obj 1290 154 r ale16;
#X obj 984 234 r ale15;
#X obj 1160 234 r ale14;
#X floatatom 948 82 5 0 0 0 - - -, f 5;
#X obj 252 198 s start-ramps;
#X obj 251 173 sel 1;
#X obj 249 516 s boids1;
#X obj 268 68 change;
#X msg 483 307 read -resize samples/\$1 graintx1;
#X connect 0 0 1 0;
#X connect 1 0 17 1;
#X connect 1 0 21 1;
#X connect 3 0 8 0;
#X connect 8 0 9 0;
#X connect 8 1 10 0;
#X connect 8 2 11 0;
#X connect 8 3 12 0;
#X connect 9 0 13 0;
#X connect 10 0 13 0;
#X connect 11 0 13 0;
#X connect 12 0 13 0;
#X connect 13 0 82 0;
#X connect 15 0 27 0;
#X connect 16 0 17 0;
#X connect 16 0 80 0;
#X connect 17 0 15 0;
#X connect 19 0 28 0;
#X connect 20 0 21 0;
#X connect 21 0 19 0;
#X connect 24 0 17 0;
#X connect 25 0 16 0;
#X connect 25 0 20 0;
#X connect 25 0 79 0;
#X connect 26 0 81 0;
#X connect 27 0 34 0;
#X connect 28 0 35 0;
#X connect 31 0 36 0;
#X connect 32 0 21 0;
#X connect 33 0 3 0;
#X connect 34 0 41 0;
#X connect 35 0 42 0;
#X connect 37 0 33 0;
#X connect 38 0 31 0;
#X connect 39 0 24 0;
#X connect 40 0 32 0;
#X connect 41 0 29 0;
#X connect 42 0 30 0;
#X connect 43 0 46 0;
#X connect 44 0 45 0;
#X connect 45 0 69 0;
#X connect 46 0 68 0;
#X connect 47 0 49 0;
#X connect 47 0 62 0;
#X connect 47 0 77 0;
#X connect 48 0 43 0;
#X connect 49 0 50 1;
#X connect 49 0 53 1;
#X connect 50 0 55 1;
#X connect 51 0 55 0;
#X connect 52 0 56 0;
#X connect 52 0 63 0;
#X connect 53 0 54 0;
#X connect 54 0 55 0;
#X connect 55 0 48 0;
#X connect 56 0 51 0;
#X connect 56 0 53 0;
#X connect 56 1 50 0;
#X connect 57 0 61 1;
#X connect 58 0 61 0;
#X connect 59 0 60 0;
#X connect 60 0 64 0;
#X connect 61 0 67 0;
#X connect 62 0 57 1;
#X connect 62 0 59 1;
#X connect 62 0 66 1;
#X connect 63 0 58 0;
#X connect 63 0 59 0;
#X connect 63 1 57 0;
#X connect 64 0 61 0;
#X connect 64 1 66 0;
#X connect 65 0 61 0;
#X connect 66 0 65 0;
#X connect 67 0 44 0;
#X connect 70 0 51 1;
#X connect 71 0 54 1;
#X connect 72 0 58 1;
#X connect 73 0 60 1;
#X connect 74 0 65 1;
#X connect 75 0 43 0;
#X connect 76 0 44 0;
#X connect 79 0 78 0;
#X connect 81 0 25 0;
#X connect 82 0 0 0;
