#N canvas 0 0 1220 759 10;
#X obj 483 362 soundfiler;
#X floatatom 483 387 17 0 0 0 - - -, f 17;
#N canvas 0 0 450 300 (subpatch) 0;
#X array grainSample2 540000 float 0 black #ff0000;
#X coords 0 1 539999 -1 200 140 1;
#X restore 28 30 graph;
#X obj 320 74 vradio 20 0 0 4 empty empty empty 0 -8 0 10 #fcfcfc #000000
#000000 0;
#X text 343 137 swarmNoise.wav;
#X text 343 115 noiseTalker.wav;
#X text 343 93 noisePoly.wav;
#X text 343 75 bell.wav;
#X obj 483 185 sel 0 1 2 3;
#X msg 483 210 bell.wav;
#X msg 498 235 noisePoly.wav;
#X msg 514 260 noiseTalker.wav;
#X msg 532 281 swarmNoise.wav;
#X obj 483 281 symbol;
#X obj 393 667 *~;
#X text 443 529 Start;
#X floatatom 394 530 7 0 0 0 - - -, f 7;
#X obj 393 477 metro 100;
#X obj 393 502 random 540000;
#X obj 552 669 *~;
#X text 602 531 Start;
#X floatatom 553 532 7 0 0 0 - - -, f 7;
#X obj 552 479 metro 100;
#X obj 552 504 random 540000;
#X text 420 448 L;
#X text 581 454 R;
#X msg 130 373 seed \$1;
#X obj 265 92 tgl 15 0 empty empty empty 17 7 0 10 #fcfcfc #000000
#000000 0 1;
#X obj 654 47 inlet;
#X obj 265 45 inlet;
#X msg 394 554 next \$1;
#X msg 553 556 next \$1;
#X obj 394 1048 outlet~;
#X obj 553 1044 outlet~;
#X obj 575 642 vline~;
#X msg 577 615 1 10 \, 0 200 25;
#X obj 335 845 *~;
#X obj 662 879 *~;
#X obj 679 849 maxlib/scale 0 100 0.1 0.8;
#X obj 187 807 maxlib/scale 0 100 0.1 0.8;
#X obj 322 747 * 10;
#X obj 322 722 r ale3;
#X obj 651 763 * 10;
#X obj 29 205 maxlib/scale 0 100 50 170;
#X obj 30 287 maxlib/scale 0 100 0.1 2.5;
#X obj 29 371 mod 4;
#X msg 188 373 seed \$1;
#X obj 463 60 mod 4;
#X obj 30 229 s grainDur2;
#X obj 30 312 s grainSpeed2;
#X obj 28 395 s wavelope2;
#X msg 483 307 read -resize C:/Users/rober/Desktop/Stuff/beto_bkp/PD_patches/working/BYON/samples/\$1
grainSample2;
#X obj 394 577 clone grain-v2b 32;
#X obj 553 579 clone grain-v2b 32;
#X obj 463 35 r ale1;
#X obj 651 738 r ale2;
#X obj 187 782 r ale4;
#X obj 679 824 r ale5;
#X obj 29 346 r ale6;
#X obj 130 348 r ale7;
#X obj 188 348 r ale8;
#X obj 30 262 r ale9;
#X obj 29 180 r ale10;
#X obj 445 700 delwrite~ grain2-L 1000;
#X obj 592 700 delwrite~ grain2-R 1000;
#X obj 400 816 delread~ grain2-L 0;
#X obj 523 816 delread~ grain2-R 0;
#X obj 336 970 *~;
#X obj 366 970 *~;
#X obj 586 970 *~;
#X obj 616 970 *~;
#X obj 776 376 sel 0 1;
#X obj 791 405 r sect-del;
#X obj 776 460 f;
#X obj 791 430 pipe 1000;
#X msg 776 485 0 \$1;
#X msg 796 509 1 30;
#X obj 776 540 line;
#X connect 0 0 1 0;
#X connect 1 0 18 1;
#X connect 1 0 23 1;
#X connect 3 0 8 0;
#X connect 8 0 9 0;
#X connect 8 1 10 0;
#X connect 8 2 11 0;
#X connect 8 3 12 0;
#X connect 9 0 13 0;
#X connect 10 0 13 0;
#X connect 11 0 13 0;
#X connect 12 0 13 0;
#X connect 13 0 51 0;
#X connect 14 0 63 0;
#X connect 14 0 67 0;
#X connect 16 0 30 0;
#X connect 17 0 18 0;
#X connect 18 0 16 0;
#X connect 19 0 64 0;
#X connect 19 0 70 0;
#X connect 21 0 31 0;
#X connect 22 0 23 0;
#X connect 23 0 21 0;
#X connect 26 0 18 0;
#X connect 27 0 71 0;
#X connect 28 0 35 0;
#X connect 29 0 27 0;
#X connect 30 0 52 0;
#X connect 31 0 53 0;
#X connect 34 0 19 1;
#X connect 34 0 14 1;
#X connect 35 0 34 0;
#X connect 36 0 63 0;
#X connect 37 0 64 0;
#X connect 38 0 37 1;
#X connect 39 0 36 1;
#X connect 40 0 65 0;
#X connect 41 0 40 0;
#X connect 42 0 66 0;
#X connect 43 0 48 0;
#X connect 44 0 49 0;
#X connect 45 0 50 0;
#X connect 46 0 23 0;
#X connect 47 0 3 0;
#X connect 51 0 0 0;
#X connect 52 0 14 0;
#X connect 53 0 19 0;
#X connect 54 0 47 0;
#X connect 55 0 42 0;
#X connect 56 0 39 0;
#X connect 57 0 38 0;
#X connect 58 0 45 0;
#X connect 59 0 26 0;
#X connect 60 0 46 0;
#X connect 61 0 44 0;
#X connect 62 0 43 0;
#X connect 65 0 36 0;
#X connect 65 0 68 0;
#X connect 66 0 37 0;
#X connect 66 0 69 0;
#X connect 67 0 32 0;
#X connect 68 0 32 0;
#X connect 69 0 33 0;
#X connect 70 0 33 0;
#X connect 71 0 73 0;
#X connect 71 1 76 0;
#X connect 72 0 74 0;
#X connect 73 0 75 0;
#X connect 74 0 73 1;
#X connect 75 0 77 0;
#X connect 76 0 77 0;
#X connect 77 0 70 1;
#X connect 77 0 69 1;
#X connect 77 0 68 1;
#X connect 77 0 67 1;
#X connect 77 0 22 0;
#X connect 77 0 17 0;
