#N canvas 167 0 1356 848 10;
#X obj 483 362 soundfiler;
#X floatatom 483 387 17 0 0 0 - - -, f 17;
#N canvas 0 0 450 300 (subpatch) 0;
#X array grainSamplep 540000 float 0 black #ff0000;
#X coords 0 1 539999 -1 200 140 1;
#X restore 28 30 graph;
#X obj 320 74 vradio 20 0 0 4 empty empty empty 0 -8 0 10 #fcfcfc #000000
#000000 0;
#X text 343 137 swarmNoise.wav;
#X text 343 115 noiseTalker.wav;
#X text 343 93 noisePoly.wav;
#X text 343 75 bell.wav;
#X obj 483 185 sel 0 1 2 3;
#X msg 483 210 bell.wav;
#X msg 498 235 noisePoly.wav;
#X msg 514 260 noiseTalker.wav;
#X msg 532 281 swarmNoise.wav;
#X obj 483 281 symbol;
#X obj 393 667 *~;
#X text 443 529 Start;
#X floatatom 394 530 7 0 0 0 - - -, f 7;
#X obj 393 477 metro 100;
#X obj 393 502 random 540000;
#X obj 552 669 *~;
#X text 602 531 Start;
#X floatatom 553 532 7 0 0 0 - - -, f 7;
#X obj 552 479 metro 100;
#X obj 552 504 random 540000;
#X text 420 448 L;
#X text 581 454 R;
#X msg 130 373 seed \$1;
#X obj 265 92 tgl 15 0 empty empty empty 17 7 0 10 #fcfcfc #000000
#000000 0 1;
#X obj 654 47 inlet;
#X obj 265 45 inlet;
#X msg 394 554 next \$1;
#X msg 553 556 next \$1;
#X obj 394 1048 outlet~;
#X obj 553 1044 outlet~;
#X obj 575 642 vline~;
#X msg 577 615 1 10 \, 0 200 25;
#X obj 311 841 *~;
#X obj 667 859 *~;
#X obj 680 797 r ale1;
#X obj 680 822 maxlib/scale 0 100 0.1 0.8;
#X obj 166 804 maxlib/scale 0 100 0.1 0.8;
#X obj 166 779 r ale2;
#X obj 322 747 * 10;
#X obj 322 722 r ale3;
#X obj 651 763 * 10;
#X obj 651 738 r ale4;
#X obj 29 205 maxlib/scale 0 100 50 170;
#X obj 30 287 maxlib/scale 0 100 0.1 2.5;
#X obj 29 180 r ale5;
#X obj 30 262 r ale6;
#X obj 29 371 mod 4;
#X obj 29 346 r ale7;
#X msg 188 373 seed \$1;
#X obj 130 348 r ale8;
#X obj 188 348 r ale9;
#X obj 463 60 mod 4;
#X obj 463 35 r ale9;
#X obj 322 960 *~;
#X obj 352 960 *~;
#X obj 572 960 *~;
#X obj 602 960 *~;
#X obj 827 365 sel 0 1;
#X obj 842 394 r sect-del;
#X obj 827 449 f;
#X obj 842 419 pipe 1000;
#X msg 827 474 0 \$1;
#X msg 847 498 1 30;
#X obj 827 529 line;
#X obj 30 229 s grainDurp;
#X obj 30 312 s grainSpeedp;
#X obj 28 395 s wavelopep;
#X obj 445 701 delwrite~ grainp-L 1000;
#X obj 592 700 delwrite~ grainp-R 1000;
#X obj 524 816 delread~ grainp-R 0;
#X obj 400 816 delread~ grainp-L 0;
#X obj 394 577 clone grain-v2p 32;
#X obj 553 579 clone grain-v2p 32;
#X obj 250 140 s grains1onOff;
#X obj 670 80 s grains1hit;
#X obj 265 70 change;
#X msg 483 307 read -resize samples/\$1 grainSamplep;
#X connect 0 0 1 0;
#X connect 1 0 18 1;
#X connect 1 0 23 1;
#X connect 3 0 8 0;
#X connect 8 0 9 0;
#X connect 8 1 10 0;
#X connect 8 2 11 0;
#X connect 8 3 12 0;
#X connect 9 0 13 0;
#X connect 10 0 13 0;
#X connect 11 0 13 0;
#X connect 12 0 13 0;
#X connect 13 0 80 0;
#X connect 14 0 57 0;
#X connect 14 0 71 0;
#X connect 16 0 30 0;
#X connect 17 0 18 0;
#X connect 18 0 16 0;
#X connect 19 0 60 0;
#X connect 19 0 72 0;
#X connect 21 0 31 0;
#X connect 22 0 23 0;
#X connect 23 0 21 0;
#X connect 26 0 18 0;
#X connect 27 0 61 0;
#X connect 27 0 77 0;
#X connect 28 0 35 0;
#X connect 28 0 78 0;
#X connect 29 0 79 0;
#X connect 30 0 75 0;
#X connect 31 0 76 0;
#X connect 34 0 19 1;
#X connect 34 0 14 1;
#X connect 35 0 34 0;
#X connect 36 0 71 0;
#X connect 37 0 72 0;
#X connect 38 0 39 0;
#X connect 39 0 37 1;
#X connect 40 0 36 1;
#X connect 41 0 40 0;
#X connect 42 0 74 0;
#X connect 43 0 42 0;
#X connect 44 0 73 0;
#X connect 45 0 44 0;
#X connect 46 0 68 0;
#X connect 47 0 69 0;
#X connect 48 0 46 0;
#X connect 49 0 47 0;
#X connect 50 0 70 0;
#X connect 51 0 50 0;
#X connect 52 0 23 0;
#X connect 53 0 26 0;
#X connect 54 0 52 0;
#X connect 55 0 3 0;
#X connect 56 0 55 0;
#X connect 57 0 32 0;
#X connect 58 0 32 0;
#X connect 59 0 33 0;
#X connect 60 0 33 0;
#X connect 61 0 63 0;
#X connect 61 1 66 0;
#X connect 62 0 64 0;
#X connect 63 0 65 0;
#X connect 64 0 63 1;
#X connect 65 0 67 0;
#X connect 66 0 67 0;
#X connect 67 0 60 1;
#X connect 67 0 59 1;
#X connect 67 0 58 1;
#X connect 67 0 57 1;
#X connect 67 0 22 0;
#X connect 67 0 17 0;
#X connect 73 0 37 0;
#X connect 73 0 59 0;
#X connect 74 0 36 0;
#X connect 74 0 58 0;
#X connect 75 0 14 0;
#X connect 76 0 19 0;
#X connect 79 0 27 0;
#X connect 80 0 0 0;
