#N canvas 1548 195 1221 759 10;
#X obj 17 151 pack f f f;
#X msg 17 176 \$1 \, \$2 \$3;
#X obj 17 201 vline~;
#X floatatom 18 72 5 0 0 0 - - -, f 5;
#X obj 18 96 t f f;
#X obj 45 120 +;
#X floatatom 60 73 5 0 0 0 - - -, f 5;
#X text 63 53 Dur;
#X floatatom 99 74 5 0 0 0 - - -, f 5;
#X text 99 54 Speed;
#X obj 99 96 t b f;
#X obj 85 119 / 1;
#X obj 60 96 * 48;
#X text 78 176 start \, end dur;
#X obj 47 373 *~;
#X obj 224 232 bng 15 250 50 0 empty empty empty 17 7 0 10 #fcfcfc
#000000 #000000;
#X obj 47 398 outlet~;
#X obj 18 14 inlet;
#X obj 405 384 vline~;
#X text 419 309 saw;
#X text 509 309 inf-saw;
#X obj 591 234 / 2;
#X msg 589 288 1 \$1 \, 0 \$1 \$1;
#X text 601 308 ramp;
#X text 686 314 crown;
#X obj 316 148 gate 4;
#X obj 316 105 + 1;
#X obj 405 259 f;
#X obj 495 260 f;
#X obj 591 259 f;
#X obj 688 263 f;
#X floatatom 147 123 25 0 0 0 - - -, f 25;
#X msg 405 289 1 \$1 \, 0 10 \$1;
#X obj 405 234 - 10;
#X msg 497 289 1 10 \, 0 \$1 10;
#X obj 495 235 - 10;
#X obj 884 244 abs;
#X msg 688 288 1 8 \, 0 8 \$1;
#X obj 688 238 - 16;
#X obj 122 33 r grainSpeedp;
#X obj 30 35 r grainDurp;
#X obj 316 80 r wavelopep;
#X obj 17 226 tabread4~ grainSamplep;
#X connect 0 0 1 0;
#X connect 1 0 2 0;
#X connect 1 0 15 0;
#X connect 2 0 42 0;
#X connect 3 0 4 0;
#X connect 4 0 0 0;
#X connect 4 1 5 0;
#X connect 5 0 0 1;
#X connect 6 0 11 0;
#X connect 6 0 12 0;
#X connect 8 0 10 0;
#X connect 10 0 11 0;
#X connect 10 1 11 1;
#X connect 11 0 0 2;
#X connect 11 0 21 0;
#X connect 11 0 31 0;
#X connect 11 0 33 0;
#X connect 11 0 35 0;
#X connect 11 0 38 0;
#X connect 12 0 5 1;
#X connect 14 0 16 0;
#X connect 15 0 25 1;
#X connect 17 0 3 0;
#X connect 18 0 14 1;
#X connect 21 0 29 1;
#X connect 22 0 18 0;
#X connect 25 0 27 0;
#X connect 25 1 28 0;
#X connect 25 2 29 0;
#X connect 25 3 30 0;
#X connect 26 0 25 0;
#X connect 27 0 32 0;
#X connect 28 0 34 0;
#X connect 29 0 22 0;
#X connect 30 0 36 0;
#X connect 32 0 18 0;
#X connect 33 0 27 1;
#X connect 34 0 18 0;
#X connect 35 0 28 1;
#X connect 36 0 37 0;
#X connect 37 0 18 0;
#X connect 38 0 30 1;
#X connect 39 0 8 0;
#X connect 40 0 6 0;
#X connect 41 0 26 0;
#X connect 42 0 14 0;
