#N canvas -7 -7 1234 772 10;
#X obj 81 257 tgl 15 0 empty empty empty 17 7 0 10 #fcfcfc #000000
#000000 1 1;
#X floatatom 345 208 5 0 0 0 - - -, f 5;
#X text 396 161 Dur;
#X obj 279 377 bng 15 250 50 0 empty empty empty 17 7 0 10 #fcfcfc
#000000 #000000;
#X obj 32 756 outlet~;
#X text 115 392 saw;
#X text 279 500 ramp;
#X obj 248 401 gate 4;
#X obj 247 376 + 1;
#X obj 80 287 metro 100;
#X obj 163 290 + 80;
#X obj 163 265 random 70;
#X obj 111 617 random 50;
#X obj 111 642 + 50;
#X obj 111 667 / 100;
#X obj 120 413 - 20;
#X obj 163 212 r ale17;
#X msg 163 237 seed \$1;
#X floatatom 203 116 5 0 0 0 - - -, f 5;
#X obj 265 162 r ale18;
#X obj 265 187 mod 4;
#X obj 28 162 inlet~;
#X obj 33 645 *~;
#X obj 61 595 line;
#X obj 255 141 hradio 15 0 0 4 empty empty empty 0 -8 0 10 #fcfcfc
#000000 #000000 3;
#X obj 345 158 r ale19;
#X obj 345 183 maxlib/scale 0 100 50 120;
#X text 175 189 density;
#X obj 110 467 t f b f;
#X msg 148 522 0 20;
#X msg 110 497 1 \$1;
#X obj 197 467 - 10;
#X msg 187 551 1 10;
#X obj 148 497 pipe;
#X obj 187 521 t f f;
#X msg 225 576 0 \$1;
#X obj 225 551 pipe 10;
#X msg 318 632 0 \$1;
#X text 180 448 inv-saw;
#X obj 290 523 / 2;
#X msg 280 607 1 \$1;
#X obj 280 577 t f f f;
#X obj 318 607 pipe;
#X obj 396 663 pipe;
#X text 357 556 crown;
#X obj 368 579 - 16;
#X msg 358 663 1 8;
#X obj 358 633 t f b f;
#X msg 396 688 0 8;
#X obj 110 438 f;
#X obj 187 492 f;
#X obj 280 548 f;
#X obj 358 604 f;
#X obj 31 695 *~;
#X connect 0 0 9 0;
#X connect 1 0 15 0;
#X connect 1 0 31 0;
#X connect 1 0 45 0;
#X connect 1 0 39 0;
#X connect 3 0 7 1;
#X connect 7 0 49 0;
#X connect 7 1 50 0;
#X connect 7 2 51 0;
#X connect 7 3 52 0;
#X connect 8 0 7 0;
#X connect 9 0 3 0;
#X connect 9 0 11 0;
#X connect 9 0 12 0;
#X connect 10 0 9 1;
#X connect 11 0 10 0;
#X connect 12 0 13 0;
#X connect 13 0 14 0;
#X connect 14 0 53 1;
#X connect 15 0 49 1;
#X connect 16 0 17 0;
#X connect 17 0 11 0;
#X connect 18 0 11 1;
#X connect 19 0 20 0;
#X connect 20 0 8 0;
#X connect 21 0 22 0;
#X connect 22 0 53 0;
#X connect 23 0 22 1;
#X connect 24 0 8 0;
#X connect 25 0 26 0;
#X connect 26 0 1 0;
#X connect 28 0 30 0;
#X connect 28 1 33 0;
#X connect 28 2 33 1;
#X connect 29 0 23 0;
#X connect 30 0 23 0;
#X connect 31 0 50 1;
#X connect 32 0 23 0;
#X connect 33 0 29 0;
#X connect 34 0 32 0;
#X connect 34 1 36 0;
#X connect 35 0 23 0;
#X connect 36 0 35 0;
#X connect 37 0 23 0;
#X connect 39 0 51 1;
#X connect 40 0 23 0;
#X connect 41 0 40 0;
#X connect 41 1 42 0;
#X connect 41 2 42 1;
#X connect 42 0 37 0;
#X connect 43 0 48 0;
#X connect 45 0 52 1;
#X connect 46 0 23 0;
#X connect 47 0 46 0;
#X connect 47 1 43 0;
#X connect 47 2 43 1;
#X connect 48 0 23 0;
#X connect 49 0 28 0;
#X connect 50 0 34 0;
#X connect 51 0 41 0;
#X connect 52 0 47 0;
#X connect 53 0 4 0;
