#N canvas 0 0 1691 848 10;
#X text 18 17 1 - Handles output and;
#X obj 22 414 *;
#X obj 22 438 mod 4;
#X obj 21 482 sel 0 1 2 3;
#X obj 33 250 s pf-ls;
#X obj 22 364 r pf-ls;
#X obj 88 249 s inp-n;
#X obj 15 642 r inp-n;
#X obj 15 667 mod 2;
#X obj 15 692 sel 0 1;
#X text 14 617 sections overlap;
#X obj 71 275 s done;
#X text 20 321 2 - Form (2-5 sections) and;
#X text 20 340 length of sections;
#X obj 33 171 prime;
#X obj 33 196 sel 0 1;
#X obj 34 147 t f f;
#X obj 88 225 f;
#X obj 139 224 f;
#X text 14 600 3 - Define if;
#X obj 21 528 s 2sect;
#X obj 34 571 s 3sect;
#X obj 70 528 s 4sect;
#X obj 84 571 s 5sect;
#X obj 22 390 list-minmax;
#X obj 119 104 f;
#X msg 21 505 2;
#X msg 34 549 3;
#X msg 70 507 4;
#X msg 84 550 5;
#X obj 34 750 s overl;
#X msg 16 719 1;
#X msg 46 719 0;
#X obj 15 97 sel 0 1;
#X obj 62 124 s unit;
#X obj 19 275 s sct-p;
#X obj 258 40 r inp-n;
#X msg 295 90 seed \$1;
#X msg 258 90 20;
#X obj 258 115 until;
#X obj 362 115 counter;
#X obj 295 139 t f b;
#X obj 255 184 gate 20;
#X obj 295 114 random 100;
#X obj 258 65 t b f;
#X obj 390 84 t b b;
#X obj 390 218 s;
#X msg 362 162 symbol ale\$1;
#X obj 362 140 t f f;
#X obj 224 241 r ale1;
#X obj 268 241 r ale2;
#X obj 312 241 r ale3;
#X obj 356 241 r ale4;
#X obj 400 241 r ale5;
#X obj 444 241 r ale6;
#X obj 488 241 r ale7;
#X obj 224 265 r ale9;
#X obj 532 241 r ale8;
#X obj 266 265 r ale10;
#X obj 314 265 r ale11;
#X obj 362 265 r ale12;
#X obj 410 265 r ale13;
#X obj 458 265 r ale14;
#X obj 506 265 r ale15;
#X obj 224 287 r ale16;
#X obj 273 287 r ale17;
#X obj 322 287 r ale18;
#X obj 371 287 r ale19;
#X obj 420 287 r ale20;
#X obj 498 214 t b a;
#X text 18 38 extract main data;
#X text 260 16 4 - 20 randoms;
#X text 216 437 5 - Stablish form;
#N canvas 10 52 1206 760 formality2 0;
#X obj 34 -426 r pf-ls;
#X obj 34 -403 list-minmax;
#X floatatom 34 -307 14 0 0 0 - - -, f 14;
#X obj 34 -332 expr (30 * $f1) / ($f1 + $f2);
#X obj 34 -358 f;
#X obj 34 -380 t b f;
#X obj 220 -428 r pf-ls;
#X obj 220 -405 list-minmax;
#X floatatom 220 -309 14 0 0 0 - - -, f 14;
#X obj 220 -360 f;
#X obj 220 -382 t b f;
#X obj 220 -334 expr (30 * $f2) / ($f1 + $f2);
#X obj 589 -429 r pf-ls;
#X obj 589 -406 list-minmax;
#X floatatom 589 -310 14 0 0 0 - - -, f 14;
#X obj 589 -361 f;
#X obj 589 -383 t b f;
#X obj 407 -429 r pf-ls;
#X obj 407 -406 list-minmax;
#X floatatom 407 -310 14 0 0 0 - - -, f 14;
#X obj 407 -361 f;
#X obj 407 -383 t b f;
#X obj 589 -335 expr (30 * $f1) / ($f1 * $f2);
#X obj 407 -335 expr (30 * $f2) / ($f1 * $f2);
#X obj 355 -166 demux 0 1 2 3;
#X obj 75 -279 r inp-n;
#X obj 75 -254 mod 4;
#X obj 75 -229 f;
#X obj 34 -280 t f b;
#X obj 261 -281 r inp-n;
#X obj 261 -256 mod 4;
#X obj 261 -231 f;
#X obj 220 -282 t f b;
#X obj 234 -231 + 1;
#X obj 448 -286 r inp-n;
#X obj 448 -261 mod 4;
#X obj 448 -236 f;
#X obj 407 -287 t f b;
#X obj 421 -236 + 2;
#X obj 630 -285 r inp-n;
#X obj 630 -260 mod 4;
#X obj 630 -235 f;
#X obj 589 -286 t f b;
#X obj 603 -235 + 3;
#X text 25 -454 4 - Enforce section lengths and overlaps (1'30'' to
2'' each section), f 124;
#X obj 544 -81 r 2sect;
#X obj 654 -4 f;
#X obj 654 21 * 1000;
#X obj 654 109 + 90000;
#X obj 654 134 t b f;
#X obj 654 159 del;
#X obj 830 -11 del 90000;
#X obj 796 -59 bng 15 250 50 0 empty empty empty 17 7 0 10 #fcfcfc
#000000 #000000;
#X text 981 153 finish it;
#X obj 544 -56 bng 15 250 50 0 empty empty empty 17 7 0 10 #fcfcfc
#000000 #000000;
#X obj 571 135 pack;
#X obj 654 46 int;
#X obj 981 135 outlet;
#X obj 798 115 pack;
#X msg 829 92 90000;
#X obj 798 140 outlet;
#X obj 828 70 loadbang;
#X obj 575 112 f;
#X obj 605 60 + 5000;
#X obj 602 113 f;
#X obj 605 85 +;
#X obj 551 84 sel 0 1;
#X obj 586 38 r overl;
#X msg 545 112 1;
#X msg 799 91 1;
#X obj 571 62 f;
#X obj 544 39 t b b;
#X obj 484 -4 f;
#X obj 484 21 * 1000;
#X obj 484 109 + 90000;
#X obj 484 134 t b f;
#X obj 484 159 del;
#X obj 374 -56 bng 15 250 50 0 empty empty empty 17 7 0 10 #fcfcfc
#000000 #000000;
#X obj 401 135 pack;
#X obj 484 46 int;
#X obj 405 112 f;
#X obj 435 60 + 5000;
#X obj 432 113 f;
#X obj 435 85 +;
#X obj 381 84 sel 0 1;
#X obj 416 38 r overl;
#X msg 375 112 1;
#X obj 401 62 f;
#X obj 374 39 t b b;
#X obj 322 0 f;
#X obj 322 25 * 1000;
#X obj 322 113 + 90000;
#X obj 322 138 t b f;
#X obj 322 163 del;
#X obj 212 -52 bng 15 250 50 0 empty empty empty 17 7 0 10 #fcfcfc
#000000 #000000;
#X obj 239 139 pack;
#X obj 322 50 int;
#X obj 243 116 f;
#X obj 273 64 + 5000;
#X obj 270 117 f;
#X obj 273 89 +;
#X obj 219 88 sel 0 1;
#X obj 254 42 r overl;
#X msg 213 116 1;
#X obj 239 66 f;
#X obj 212 43 t b b;
#X obj 152 0 f;
#X obj 152 25 * 1000;
#X obj 152 113 + 90000;
#X obj 152 138 t b f;
#X obj 152 163 del;
#X obj 42 -52 bng 15 250 50 0 empty empty empty 17 7 0 10 #fcfcfc #000000
#000000;
#X obj 66 143 pack;
#X obj 152 50 int;
#X obj 73 116 f;
#X obj 103 64 + 5000;
#X obj 100 117 f;
#X obj 103 89 +;
#X obj 49 88 sel 0 1;
#X obj 84 42 r overl;
#X msg 43 116 1;
#X obj 69 66 f;
#X obj 42 43 t b b;
#X obj 374 -81 r 3sect;
#X obj 212 -77 r 4sect;
#X obj 42 -77 r 5sect;
#X obj 571 160 outlet;
#X obj 401 160 outlet;
#X obj 239 164 outlet;
#X obj 64 173 outlet;
#X obj 152 85 t f f;
#X obj 322 85 t f f;
#X obj 484 81 t f f;
#X obj 654 81 t f f;
#X obj 748 49 s 1sect;
#X obj 917 143 outlet;
#X msg 820 27 0;
#X connect 0 0 1 0;
#X connect 1 0 5 0;
#X connect 1 1 4 1;
#X connect 2 0 28 0;
#X connect 3 0 2 0;
#X connect 4 0 3 0;
#X connect 5 0 4 0;
#X connect 5 1 3 1;
#X connect 6 0 7 0;
#X connect 7 0 10 0;
#X connect 7 1 9 1;
#X connect 8 0 32 0;
#X connect 9 0 11 0;
#X connect 10 0 9 0;
#X connect 10 1 11 1;
#X connect 11 0 8 0;
#X connect 12 0 13 0;
#X connect 13 0 16 0;
#X connect 13 1 15 1;
#X connect 14 0 42 0;
#X connect 15 0 22 0;
#X connect 16 0 15 0;
#X connect 16 1 22 1;
#X connect 17 0 18 0;
#X connect 18 0 21 0;
#X connect 18 1 20 1;
#X connect 19 0 37 0;
#X connect 20 0 23 0;
#X connect 21 0 20 0;
#X connect 21 1 23 1;
#X connect 22 0 14 0;
#X connect 23 0 19 0;
#X connect 24 0 106 1;
#X connect 24 1 89 1;
#X connect 24 2 72 1;
#X connect 24 3 46 1;
#X connect 25 0 26 0;
#X connect 26 0 27 1;
#X connect 27 0 24 1;
#X connect 28 0 24 0;
#X connect 28 1 27 0;
#X connect 29 0 30 0;
#X connect 30 0 31 1;
#X connect 31 0 33 0;
#X connect 32 0 24 0;
#X connect 32 1 31 0;
#X connect 33 0 24 1;
#X connect 34 0 35 0;
#X connect 35 0 36 1;
#X connect 36 0 38 0;
#X connect 37 0 24 0;
#X connect 37 1 36 0;
#X connect 38 0 24 1;
#X connect 39 0 40 0;
#X connect 40 0 41 1;
#X connect 41 0 43 0;
#X connect 42 0 24 0;
#X connect 42 1 41 0;
#X connect 43 0 24 1;
#X connect 45 0 54 0;
#X connect 46 0 47 0;
#X connect 47 0 56 0;
#X connect 48 0 49 0;
#X connect 48 0 63 0;
#X connect 49 0 50 0;
#X connect 49 1 50 1;
#X connect 49 1 62 1;
#X connect 50 0 52 0;
#X connect 51 0 57 0;
#X connect 52 0 51 0;
#X connect 52 0 69 0;
#X connect 52 0 134 0;
#X connect 52 0 136 0;
#X connect 54 0 46 0;
#X connect 54 0 71 0;
#X connect 55 0 126 0;
#X connect 56 0 133 0;
#X connect 56 0 135 0;
#X connect 58 0 60 0;
#X connect 59 0 58 1;
#X connect 61 0 59 0;
#X connect 62 0 55 1;
#X connect 63 0 65 0;
#X connect 64 0 55 1;
#X connect 65 0 64 1;
#X connect 66 0 62 0;
#X connect 66 1 64 0;
#X connect 67 0 70 1;
#X connect 68 0 55 0;
#X connect 69 0 58 0;
#X connect 70 0 66 0;
#X connect 71 0 68 0;
#X connect 71 1 70 0;
#X connect 72 0 73 0;
#X connect 73 0 79 0;
#X connect 74 0 75 0;
#X connect 74 0 81 0;
#X connect 75 0 76 0;
#X connect 75 1 76 1;
#X connect 75 1 80 1;
#X connect 76 0 54 0;
#X connect 77 0 72 0;
#X connect 77 0 88 0;
#X connect 78 0 127 0;
#X connect 79 0 132 0;
#X connect 79 0 135 0;
#X connect 80 0 78 1;
#X connect 81 0 83 0;
#X connect 82 0 78 1;
#X connect 83 0 82 1;
#X connect 84 0 80 0;
#X connect 84 1 82 0;
#X connect 85 0 87 1;
#X connect 86 0 78 0;
#X connect 87 0 84 0;
#X connect 88 0 86 0;
#X connect 88 1 87 0;
#X connect 89 0 90 0;
#X connect 90 0 96 0;
#X connect 91 0 92 0;
#X connect 91 0 98 0;
#X connect 92 0 93 0;
#X connect 92 1 93 1;
#X connect 92 1 97 1;
#X connect 93 0 77 0;
#X connect 94 0 89 0;
#X connect 94 0 105 0;
#X connect 95 0 128 0;
#X connect 96 0 131 0;
#X connect 96 0 135 0;
#X connect 97 0 95 1;
#X connect 98 0 100 0;
#X connect 99 0 95 1;
#X connect 100 0 99 1;
#X connect 101 0 97 0;
#X connect 101 1 99 0;
#X connect 102 0 104 1;
#X connect 103 0 95 0;
#X connect 104 0 101 0;
#X connect 105 0 103 0;
#X connect 105 1 104 0;
#X connect 106 0 107 0;
#X connect 107 0 113 0;
#X connect 108 0 109 0;
#X connect 108 0 115 0;
#X connect 109 0 110 0;
#X connect 109 1 110 1;
#X connect 109 1 114 1;
#X connect 110 0 94 0;
#X connect 111 0 106 0;
#X connect 111 0 122 0;
#X connect 112 0 129 0;
#X connect 113 0 130 0;
#X connect 113 0 135 0;
#X connect 114 0 112 1;
#X connect 115 0 117 0;
#X connect 116 0 112 1;
#X connect 117 0 116 1;
#X connect 118 0 114 0;
#X connect 118 1 116 0;
#X connect 119 0 121 1;
#X connect 120 0 112 0;
#X connect 121 0 118 0;
#X connect 122 0 120 0;
#X connect 122 1 121 0;
#X connect 123 0 77 0;
#X connect 124 0 94 0;
#X connect 125 0 111 0;
#X connect 130 0 108 0;
#X connect 130 1 117 1;
#X connect 131 0 91 0;
#X connect 131 1 100 1;
#X connect 132 0 74 0;
#X connect 132 1 83 1;
#X connect 133 0 48 0;
#X connect 133 1 65 1;
#X connect 136 0 135 0;
#X restore 217 462 pd formality2;
#X obj 22 461 pipe 10;
#X obj 217 501 unpack;
#X obj 261 501 unpack;
#X obj 305 501 unpack;
#X obj 348 501 unpack;
#X obj 391 501 unpack;
#X obj 285 539 == 1;
#X obj 285 564 s start-sect;
#X obj 318 539 s sect-t;
#N canvas 162 4 1368 841 khrony 0;
#X obj 121 626 r sct-p;
#X obj 121 651 f2bin;
#X obj 121 676 list-extend;
#X obj 110 702 l;
#X obj 171 626 r done;
#X obj 171 651 t b b;
#X obj 33 632 list-dripslow;
#X obj 71 726 t b b;
#X obj 33 604 metro 500;
#X obj 109 750 l;
#X obj 109 726 t b l;
#X obj 30 553 % 1000;
#X obj 15 441 tgl 15 0 empty empty empty 17 7 0 10 #fcfcfc #000000
#000000 0 1;
#X obj 30 577 maxlib/scale 0 999 500 100;
#X obj 348 594 r inp-n;
#X obj 348 619 f2bin;
#X obj 235 627 list-dripslow;
#X obj 282 661 t b b;
#X obj 236 602 metro 500;
#X obj 348 673 l;
#X obj 348 644 t b l;
#X obj 234 548 % 1000;
#X obj 234 572 maxlib/scale 0 999 100 500;
#X obj 221 443 tgl 15 0 empty empty empty 17 7 0 10 #fcfcfc #000000
#000000 0 1;
#X text 421 500 3-7 - temporizers;
#X obj 423 622 temporizer1;
#X obj 409 445 tgl 15 0 empty empty empty 17 7 0 10 #fcfcfc #000000
#000000 0 1;
#X obj 511 441 tgl 15 0 empty empty empty 17 7 0 10 #fcfcfc #000000
#000000 0 1;
#X obj 606 441 tgl 15 0 empty empty empty 17 7 0 10 #fcfcfc #000000
#000000 0 1;
#X obj 714 439 tgl 15 0 empty empty empty 17 7 0 10 #fcfcfc #000000
#000000 0 1;
#X obj 806 437 tgl 15 0 empty empty empty 17 7 0 10 #fcfcfc #000000
#000000 0 1;
#X obj 524 623 temporizer2;
#X obj 625 622 temporizer3;
#X obj 722 621 temporizer4;
#X obj 822 619 temporizer5;
#X obj 432 557 r ale-ls;
#X obj 535 572 list-rot 3;
#X obj 636 572 list-rot 3;
#X obj 743 574 list-rot 3;
#X obj 828 572 list-rot 3;
#X obj 30 530 r inp-n;
#X obj 234 525 r inp-n;
#X obj 424 527 r ale20;
#X obj 475 528 maxlib/scale 0 100 50 160;
#X obj 912 437 tgl 15 0 empty empty empty 17 7 0 10 #fcfcfc #000000
#000000 0 1;
#X obj 1113 436 tgl 15 0 empty empty empty 17 7 0 10 #fcfcfc #000000
#000000 0 1;
#X obj 1137 532 maxlib/scale 0 100 50 160;
#X obj 920 590 tattarrattat1;
#X obj 952 502 r ale19;
#X obj 1148 503 r ale18;
#X obj 937 534 maxlib/scale 0 100 50 160;
#X obj 1124 574 tattarrattat2;
#X text 916 483 8-9 - tattarrattats;
#X obj 1323 582 euclidean1;
#X obj 1525 582 euclidean2;
#X obj 1314 436 tgl 15 0 empty empty empty 17 7 0 10 #fcfcfc #000000
#000000 0 1;
#X obj 1512 436 tgl 15 0 empty empty empty 17 7 0 10 #fcfcfc #000000
#000000 0 1;
#X obj 1719 434 tgl 15 0 empty empty empty 17 7 0 10 #fcfcfc #000000
#000000 0 1;
#X obj 1811 433 tgl 15 0 empty empty empty 17 7 0 10 #fcfcfc #000000
#000000 0 1;
#X text 1324 470 10-11 euclidean;
#X obj 1347 525 maxlib/scale 0 100 50 160;
#X obj 1529 524 maxlib/scale 0 100 50 160;
#X obj 1364 496 r ale16;
#X obj 1546 495 r ale17;
#X obj 1724 570 bakery;
#X text 1725 546 12 - Bakery;
#X obj 1830 610 ostinato;
#X text 1822 584 13 - Ostinato;
#X obj 285 713 sel 1;
#X obj 71 779 sel 1;
#X obj 13 865 outlet;
#X obj 229 864 outlet;
#X obj 410 865 outlet;
#X obj 510 865 outlet;
#X obj 607 862 outlet;
#X obj 710 862 outlet;
#X obj 814 861 outlet;
#X obj 912 863 outlet;
#X obj 1112 855 outlet;
#X obj 1312 864 outlet;
#X obj 1512 862 outlet;
#X obj 1716 859 outlet;
#X obj 1817 861 outlet;
#X obj 1918 859 outlet;
#X obj 1969 859 outlet;
#X obj 2014 859 outlet;
#X obj 2059 859 outlet;
#X obj 2105 858 outlet;
#X obj 78 279 route 0 1 2 3 4 5 6 7 8 9 10 11 12 13 14 15 16 17;
#X text 25 497 1 - drips p factors in bin;
#X text 81 554 control speed;
#X text 275 548 control speed;
#X text 232 499 2 - drips input n in bin;
#X obj 1917 435 tgl 15 0 empty empty empty 17 7 0 10 #fcfcfc #000000
#000000 0 1;
#X obj 1937 435 tgl 15 0 empty empty empty 17 7 0 10 #fcfcfc #000000
#000000 0 1;
#X obj 1957 435 tgl 15 0 empty empty empty 17 7 0 10 #fcfcfc #000000
#000000 0 1;
#X obj 1977 435 tgl 15 0 empty empty empty 17 7 0 10 #fcfcfc #000000
#000000 0 1;
#X obj 1997 435 tgl 15 0 empty empty empty 17 7 0 10 #fcfcfc #000000
#000000 0 1;
#X msg 78 128 18;
#X obj 78 153 until;
#X obj 78 177 f 0;
#X obj 103 177 + 1;
#X msg 108 128 0;
#X obj 141 157 sel 17;
#X obj 78 203 t f f;
#X obj 78 253 list prepend;
#X obj 78 228 tabread whoplays;
#X obj 31 99 t b b;
#X obj 21 128 s orc-on;
#X obj 438 584 list-splat 16;
#X obj 30 50 pipe 10000;
#X obj 33 -43 bng 15 250 50 0 empty empty empty 17 7 0 10 #fcfcfc #000000
#000000;
#X obj 113 62 spigot;
#X obj 69 -26 f 0;
#X obj 103 -25 + 1;
#X obj 69 -1 sel 0;
#X obj 103 22 bng 15 250 50 0 empty empty empty 17 7 0 10 #fcfcfc #000000
#000000;
#X obj 33 -68 r uparray;
#X msg 69 24 1;
#X connect 0 0 1 0;
#X connect 1 0 2 0;
#X connect 2 0 3 1;
#X connect 3 0 10 0;
#X connect 4 0 5 0;
#X connect 5 0 2 1;
#X connect 5 1 3 0;
#X connect 6 0 69 0;
#X connect 6 1 7 0;
#X connect 7 0 6 0;
#X connect 7 1 9 0;
#X connect 8 0 6 0;
#X connect 9 0 6 1;
#X connect 10 0 9 0;
#X connect 10 1 9 1;
#X connect 11 0 13 0;
#X connect 12 0 8 0;
#X connect 13 0 8 1;
#X connect 14 0 15 0;
#X connect 15 0 20 0;
#X connect 16 0 68 0;
#X connect 16 1 17 0;
#X connect 17 0 16 0;
#X connect 17 1 19 0;
#X connect 18 0 16 0;
#X connect 19 0 16 1;
#X connect 20 0 19 0;
#X connect 20 1 19 1;
#X connect 21 0 22 0;
#X connect 22 0 18 1;
#X connect 23 0 18 0;
#X connect 25 0 72 0;
#X connect 26 0 25 0;
#X connect 27 0 31 0;
#X connect 28 0 32 0;
#X connect 29 0 33 0;
#X connect 30 0 34 0;
#X connect 31 0 73 0;
#X connect 32 0 74 0;
#X connect 33 0 75 0;
#X connect 34 0 76 0;
#X connect 35 0 109 0;
#X connect 36 0 37 0;
#X connect 36 0 31 2;
#X connect 37 0 32 2;
#X connect 37 0 38 0;
#X connect 38 0 33 2;
#X connect 38 0 39 0;
#X connect 39 0 34 2;
#X connect 40 0 11 0;
#X connect 41 0 21 0;
#X connect 42 0 43 0;
#X connect 43 0 34 1;
#X connect 43 0 33 1;
#X connect 43 0 32 1;
#X connect 43 0 25 1;
#X connect 43 0 31 1;
#X connect 44 0 47 0;
#X connect 45 0 51 0;
#X connect 46 0 51 1;
#X connect 47 0 77 0;
#X connect 48 0 50 0;
#X connect 49 0 46 0;
#X connect 50 0 47 1;
#X connect 51 0 78 0;
#X connect 53 2 79 0;
#X connect 54 2 80 0;
#X connect 55 0 53 0;
#X connect 56 0 54 0;
#X connect 57 0 64 0;
#X connect 58 0 66 0;
#X connect 60 0 53 1;
#X connect 60 0 66 1;
#X connect 61 0 54 1;
#X connect 61 0 64 1;
#X connect 62 0 60 0;
#X connect 63 0 61 0;
#X connect 64 0 81 0;
#X connect 66 0 82 0;
#X connect 68 0 71 0;
#X connect 69 0 70 0;
#X connect 88 0 12 0;
#X connect 88 1 23 0;
#X connect 88 2 26 0;
#X connect 88 3 27 0;
#X connect 88 4 28 0;
#X connect 88 5 29 0;
#X connect 88 6 30 0;
#X connect 88 7 44 0;
#X connect 88 8 45 0;
#X connect 88 9 55 0;
#X connect 88 10 56 0;
#X connect 88 11 57 0;
#X connect 88 12 58 0;
#X connect 88 13 93 0;
#X connect 88 14 94 0;
#X connect 88 15 95 0;
#X connect 88 16 96 0;
#X connect 88 17 97 0;
#X connect 93 0 83 0;
#X connect 94 0 84 0;
#X connect 95 0 85 0;
#X connect 96 0 86 0;
#X connect 97 0 87 0;
#X connect 98 0 99 0;
#X connect 99 0 100 0;
#X connect 100 0 101 0;
#X connect 100 0 104 0;
#X connect 101 0 100 1;
#X connect 102 0 100 1;
#X connect 103 0 102 0;
#X connect 104 0 106 0;
#X connect 104 1 103 0;
#X connect 104 1 105 1;
#X connect 105 0 88 0;
#X connect 106 0 105 0;
#X connect 107 0 108 0;
#X connect 107 1 98 0;
#X connect 109 0 36 0;
#X connect 109 0 25 2;
#X connect 110 0 107 0;
#X connect 111 0 113 0;
#X connect 112 0 107 0;
#X connect 113 0 114 0;
#X connect 113 0 115 0;
#X connect 114 0 113 1;
#X connect 115 0 110 0;
#X connect 115 0 118 0;
#X connect 115 1 116 0;
#X connect 116 0 112 0;
#X connect 117 0 111 0;
#X connect 118 0 112 1;
#X restore 614 390 pd khrony;
#X obj 420 312 t b f b;
#X obj 314 314 list-extend;
#X obj 314 339 spigot;
#X obj 362 339 tgl 15 0 empty empty empty 17 7 0 10 #fcfcfc #000000
#000000 0 1;
#X obj 354 364 s ale-ls;
#X text 403 391 7 - Organize tempo within sections;
#X obj 19 226 factory2;
#X obj 337 626 r 2sect;
#X obj 286 626 r 3sect;
#X obj 234 626 r 4sect;
#X obj 180 626 r 5sect;
#X obj 394 626 r 1sect;
#X obj 180 651 print section-5;
#X obj 394 650 print section-1;
#X obj 337 680 print section-2;
#X obj 286 651 print section-3;
#X obj 234 680 print section-4;
#X obj 380 574 r sect-t;
#X obj 380 599 print time;
#X text 506 433 8 - The orchestra;
#X obj 377 540 s sect-del;
#X obj 616 489 fxy;
#X obj 667 100 table whoplays 18;
#X obj 316 463 s end;
#X obj 650 156 r inp-n;
#X msg 650 183 seed \$1;
#X obj 618 215 random 4;
#X obj 618 240 + 3;
#X obj 618 267 until;
#X msg 703 164 clear;
#X obj 619 324 tabwrite whoplays;
#X msg 732 224 18;
#X obj 732 249 until;
#X obj 732 273 f 0;
#X obj 757 273 + 1;
#X obj 732 298 t b f;
#X msg 762 224 0;
#X obj 795 253 sel 17;
#X msg 732 323 0;
#X msg 619 296 1;
#X obj 732 198 loadbang;
#X obj 601 130 t b b b b;
#X obj 602 345 s uparray;
#X text 469 488 9 - FX \, panning \, mixing;
#N canvas 0 0 1708 866 coda 0;
#X obj 88 385 r ale1;
#X obj 78 435 random 21;
#X obj 78 460 + 5;
#X obj 78 485 * 1000;
#X obj 148 435 random 21;
#X obj 148 460 + 5;
#X obj 148 485 * 1000;
#X msg 148 670 0 \$1;
#X obj 218 435 random 21;
#X obj 218 460 + 5;
#X obj 218 485 * 1000;
#X msg 218 670 0 \$1;
#X obj 288 435 random 21;
#X obj 288 460 + 5;
#X obj 288 485 * 1000;
#X msg 288 670 0 \$1;
#X obj 358 435 random 21;
#X obj 358 460 + 5;
#X obj 358 485 * 1000;
#X msg 358 670 0 \$1;
#X obj 428 435 random 21;
#X obj 428 460 + 5;
#X obj 428 485 * 1000;
#X msg 428 670 0 \$1;
#X obj 498 435 random 21;
#X obj 498 460 + 5;
#X obj 498 485 * 1000;
#X msg 498 670 0 \$1;
#X obj 568 435 random 21;
#X obj 568 460 + 5;
#X obj 568 485 * 1000;
#X msg 568 670 0 \$1;
#X obj 638 435 random 21;
#X obj 638 460 + 5;
#X obj 638 485 * 1000;
#X msg 638 670 0 \$1;
#X obj 708 435 random 21;
#X obj 708 460 + 5;
#X obj 708 485 * 1000;
#X msg 708 670 0 \$1;
#X obj 778 435 random 21;
#X obj 778 460 + 5;
#X obj 778 485 * 1000;
#X msg 778 670 0 \$1;
#X obj 848 435 random 21;
#X obj 848 460 + 5;
#X obj 848 485 * 1000;
#X msg 848 670 0 \$1;
#X obj 918 435 random 21;
#X obj 918 460 + 5;
#X obj 918 485 * 1000;
#X msg 918 670 0 \$1;
#X obj 988 435 random 21;
#X obj 988 460 + 5;
#X obj 988 485 * 1000;
#X msg 988 670 0 \$1;
#X obj 1058 435 random 21;
#X obj 1058 460 + 5;
#X obj 1058 485 * 1000;
#X msg 1058 670 0 \$1;
#X obj 1128 435 random 21;
#X obj 1128 460 + 5;
#X obj 1128 485 * 1000;
#X msg 1128 670 0 \$1;
#X obj 1198 435 random 21;
#X obj 1198 460 + 5;
#X obj 1198 485 * 1000;
#X msg 1198 670 0 \$1;
#X obj 1268 435 random 21;
#X obj 1268 460 + 5;
#X obj 1268 485 * 1000;
#X msg 1268 670 0 \$1;
#X obj 158 385 r ale2;
#X obj 228 385 r ale3;
#X obj 298 385 r ale4;
#X obj 368 385 r ale5;
#X obj 438 385 r ale6;
#X obj 508 385 r ale7;
#X obj 578 385 r ale8;
#X obj 648 385 r ale9;
#X obj 718 385 r ale10;
#X obj 788 385 r ale11;
#X obj 858 385 r ale12;
#X obj 928 385 r ale13;
#X obj 998 385 r ale14;
#X obj 1068 385 r ale15;
#X obj 1138 385 r ale16;
#X obj 1208 385 r ale17;
#X obj 1278 385 r ale18;
#X obj 61 718 *~ 1;
#X obj 131 718 *~ 1;
#X obj 201 718 *~ 1;
#X obj 271 718 *~ 1;
#X obj 341 718 *~ 1;
#X obj 411 718 *~ 1;
#X obj 481 718 *~ 1;
#X obj 551 718 *~ 1;
#X obj 621 718 *~ 1;
#X obj 691 718 *~ 1;
#X obj 761 718 *~ 1;
#X obj 831 718 *~ 1;
#X obj 901 718 *~ 1;
#X obj 971 718 *~ 1;
#X obj 1041 718 *~ 1;
#X obj 1111 718 *~ 1;
#X obj 1181 718 *~ 1;
#X obj 1251 718 *~ 1;
#X obj 61 893 outlet~;
#X obj 131 893 outlet~;
#X obj 201 893 outlet~;
#X obj 271 893 outlet~;
#X obj 341 893 outlet~;
#X obj 411 893 outlet~;
#X obj 481 893 outlet~;
#X obj 551 893 outlet~;
#X obj 621 893 outlet~;
#X obj 691 893 outlet~;
#X obj 761 893 outlet~;
#X obj 831 893 outlet~;
#X obj 901 893 outlet~;
#X obj 971 893 outlet~;
#X obj 1041 893 outlet~;
#X obj 1111 893 outlet~;
#X obj 1181 893 outlet~;
#X obj 1251 893 outlet~;
#X obj 1363 52 r ale20;
#X obj 1348 102 mod 2;
#X msg 88 410 seed \$1;
#X msg 158 410 seed \$1;
#X msg 228 410 seed \$1;
#X msg 298 410 seed \$1;
#X msg 368 410 seed \$1;
#X msg 438 410 seed \$1;
#X msg 508 410 seed \$1;
#X msg 578 410 seed \$1;
#X msg 648 410 seed \$1;
#X msg 718 410 seed \$1;
#X msg 788 410 seed \$1;
#X msg 858 410 seed \$1;
#X msg 928 410 seed \$1;
#X msg 998 410 seed \$1;
#X msg 1068 410 seed \$1;
#X msg 1138 410 seed \$1;
#X msg 1208 410 seed \$1;
#X msg 1278 410 seed \$1;
#X obj 77 249 inlet~;
#X obj 141 248 inlet~;
#X obj 211 248 inlet~;
#X obj 281 248 inlet~;
#X obj 351 247 inlet~;
#X obj 422 248 inlet~;
#X obj 491 248 inlet~;
#X obj 561 248 inlet~;
#X obj 631 248 inlet~;
#X obj 701 248 inlet~;
#X obj 771 248 inlet~;
#X obj 841 248 inlet~;
#X obj 911 248 inlet~;
#X obj 981 248 inlet~;
#X obj 1051 248 inlet~;
#X obj 1121 248 inlet~;
#X obj 1191 248 inlet~;
#X obj 1261 248 inlet~;
#X obj 1510 435 random 21;
#X obj 1510 460 + 5;
#X obj 1510 485 * 1000;
#X msg 1510 670 0 \$1;
#X obj 1580 435 random 21;
#X obj 1580 460 + 5;
#X obj 1580 485 * 1000;
#X msg 1580 670 0 \$1;
#X obj 1650 435 random 21;
#X obj 1650 460 + 5;
#X obj 1650 485 * 1000;
#X msg 1650 670 0 \$1;
#X obj 1720 435 random 21;
#X obj 1720 460 + 5;
#X obj 1720 485 * 1000;
#X msg 1720 670 0 \$1;
#X obj 1790 435 random 21;
#X obj 1790 460 + 5;
#X obj 1790 485 * 1000;
#X msg 1790 670 0 \$1;
#X obj 1860 435 random 21;
#X obj 1860 460 + 5;
#X obj 1860 485 * 1000;
#X msg 1860 670 0 \$1;
#X obj 1930 435 random 21;
#X obj 1930 460 + 5;
#X obj 1930 485 * 1000;
#X msg 1930 670 0 \$1;
#X obj 2000 435 random 21;
#X obj 2000 460 + 5;
#X obj 2000 485 * 1000;
#X msg 2000 670 0 \$1;
#X obj 2070 435 random 21;
#X obj 2070 460 + 5;
#X obj 2070 485 * 1000;
#X msg 2070 670 0 \$1;
#X obj 2140 435 random 21;
#X obj 2140 460 + 5;
#X obj 2140 485 * 1000;
#X msg 2140 670 0 \$1;
#X obj 2210 435 random 21;
#X obj 2210 460 + 5;
#X obj 2210 485 * 1000;
#X msg 2210 670 0 \$1;
#X obj 2280 435 random 21;
#X obj 2280 460 + 5;
#X obj 2280 485 * 1000;
#X msg 2280 670 0 \$1;
#X obj 2350 435 random 21;
#X obj 2350 460 + 5;
#X obj 2350 485 * 1000;
#X msg 2350 670 0 \$1;
#X obj 2420 435 random 21;
#X obj 2420 460 + 5;
#X obj 2420 485 * 1000;
#X msg 2420 670 0 \$1;
#X obj 2490 435 random 21;
#X obj 2490 460 + 5;
#X obj 2490 485 * 1000;
#X msg 2490 670 0 \$1;
#X obj 2560 435 random 21;
#X obj 2560 460 + 5;
#X obj 2560 485 * 1000;
#X msg 2560 670 0 \$1;
#X obj 2630 435 random 21;
#X obj 2630 460 + 5;
#X obj 2630 485 * 1000;
#X msg 2630 670 0 \$1;
#X obj 2700 435 random 21;
#X obj 2700 460 + 5;
#X obj 2700 485 * 1000;
#X msg 2700 670 0 \$1;
#X obj 2220 385 r ale11;
#X obj 1493 718 *~ 1;
#X obj 1563 718 *~ 1;
#X obj 1633 718 *~ 1;
#X obj 1703 718 *~ 1;
#X obj 1773 718 *~ 1;
#X obj 1843 718 *~ 1;
#X obj 1913 718 *~ 1;
#X obj 1983 718 *~ 1;
#X obj 2053 718 *~ 1;
#X obj 2123 718 *~ 1;
#X obj 2193 718 *~ 1;
#X obj 2263 718 *~ 1;
#X obj 2333 718 *~ 1;
#X obj 2403 718 *~ 1;
#X obj 2473 718 *~ 1;
#X obj 2543 718 *~ 1;
#X obj 2613 718 *~ 1;
#X obj 2683 718 *~ 1;
#X obj 1493 893 outlet~;
#X obj 1563 893 outlet~;
#X obj 1633 893 outlet~;
#X obj 1703 893 outlet~;
#X obj 1773 893 outlet~;
#X obj 1843 893 outlet~;
#X obj 1913 893 outlet~;
#X obj 1983 893 outlet~;
#X obj 2053 893 outlet~;
#X obj 2123 893 outlet~;
#X obj 2193 893 outlet~;
#X obj 2263 893 outlet~;
#X obj 2333 893 outlet~;
#X obj 2403 893 outlet~;
#X obj 2473 893 outlet~;
#X obj 2543 893 outlet~;
#X obj 2613 893 outlet~;
#X obj 2683 893 outlet~;
#X msg 1520 410 seed \$1;
#X msg 1590 410 seed \$1;
#X msg 1660 410 seed \$1;
#X msg 1730 410 seed \$1;
#X msg 1800 410 seed \$1;
#X msg 1870 410 seed \$1;
#X msg 1940 410 seed \$1;
#X msg 2010 410 seed \$1;
#X msg 2080 410 seed \$1;
#X msg 2150 410 seed \$1;
#X msg 2220 410 seed \$1;
#X msg 2290 410 seed \$1;
#X msg 2360 410 seed \$1;
#X msg 2430 410 seed \$1;
#X msg 2500 410 seed \$1;
#X msg 2570 410 seed \$1;
#X msg 2640 410 seed \$1;
#X msg 2710 410 seed \$1;
#X obj 1509 249 inlet~;
#X obj 1573 248 inlet~;
#X obj 1643 248 inlet~;
#X obj 1713 248 inlet~;
#X obj 1783 247 inlet~;
#X obj 1854 248 inlet~;
#X obj 1923 248 inlet~;
#X obj 1993 248 inlet~;
#X obj 2063 248 inlet~;
#X obj 2133 248 inlet~;
#X obj 2203 248 inlet~;
#X obj 2273 248 inlet~;
#X obj 2343 248 inlet~;
#X obj 2413 248 inlet~;
#X obj 2483 248 inlet~;
#X obj 2553 248 inlet~;
#X obj 2623 248 inlet~;
#X obj 2693 248 inlet~;
#X obj 1520 385 r ale19;
#X obj 1590 385 r ale20;
#X obj 1660 385 r ale19;
#X obj 1730 385 r ale18;
#X obj 1800 385 r ale17;
#X obj 1870 385 r ale16;
#X obj 1940 385 r ale15;
#X obj 2010 385 r ale14;
#X obj 2080 385 r ale13;
#X obj 2150 385 r ale12;
#X obj 2290 385 r ale10;
#X obj 2360 385 r ale9;
#X obj 2430 384 r ale8;
#X obj 2500 385 r ale7;
#X obj 2571 385 r ale6;
#X obj 2640 385 r ale5;
#X obj 2710 385 r ale4;
#X obj 1348 77 f;
#X obj 1380 453 print;
#X obj 1359 475 del 25000;
#X msg 1380 430 coda: starting;
#X obj 1348 127 sel 0 1;
#X obj 1315 565 print;
#X obj 1348 26 r end;
#X msg 1315 540 Done!;
#X obj 1374 660 tabwrite whoplays;
#X msg 1374 536 18;
#X obj 1374 561 until;
#X obj 1374 585 f 0;
#X obj 1399 585 + 1;
#X obj 1374 610 t b f;
#X msg 1404 536 0;
#X obj 1437 565 sel 17;
#X msg 1374 635 0;
#X obj 1355 684 s uparray;
#X msg 78 669 0 \$1;
#X obj 78 695 line 1;
#X obj 148 695 line 1;
#X obj 218 695 line 1;
#X obj 288 695 line 1;
#X obj 358 695 line 1;
#X obj 428 695 line 1;
#X obj 498 695 line 1;
#X obj 568 695 line 1;
#X obj 638 695 line 1;
#X obj 708 695 line 1;
#X obj 778 695 line 1;
#X obj 848 695 line 1;
#X obj 918 695 line 1;
#X obj 988 695 line 1;
#X obj 1058 695 line 1;
#X obj 1128 694 line 1;
#X obj 1198 695 line 1;
#X obj 1268 695 line 1;
#X obj 1510 695 line 1;
#X obj 1580 695 line 1;
#X obj 1650 695 line 1;
#X obj 1720 695 line 1;
#X obj 1790 695 line 1;
#X obj 1860 695 line 1;
#X obj 1930 694 line 1;
#X obj 2000 695 line 1;
#X obj 2070 695 line 1;
#X obj 2140 695 line 1;
#X obj 2210 695 line 1;
#X obj 2280 694 line 1;
#X obj 2350 695 line 1;
#X obj 2420 695 line 1;
#X obj 2490 695 line 1;
#X obj 2560 695 line 1;
#X obj 2630 695 line 1;
#X obj 2700 695 line 1;
#X obj 1303 629 s primeoff;
#X msg 1430 510 100;
#X obj 1340 500 t b b b;
#X obj 1440 370 t b b;
#X obj 1420 790 del 2100;
#X obj 1420 815 s stop-rec;
#X obj 1380 350 s compoff;
#X connect 0 0 127 0;
#X connect 1 0 2 0;
#X connect 2 0 3 0;
#X connect 3 0 343 0;
#X connect 4 0 5 0;
#X connect 5 0 6 0;
#X connect 6 0 7 0;
#X connect 7 0 345 0;
#X connect 8 0 9 0;
#X connect 9 0 10 0;
#X connect 10 0 11 0;
#X connect 11 0 346 0;
#X connect 12 0 13 0;
#X connect 13 0 14 0;
#X connect 14 0 15 0;
#X connect 15 0 347 0;
#X connect 16 0 17 0;
#X connect 17 0 18 0;
#X connect 18 0 19 0;
#X connect 19 0 348 0;
#X connect 20 0 21 0;
#X connect 21 0 22 0;
#X connect 22 0 23 0;
#X connect 23 0 349 0;
#X connect 24 0 25 0;
#X connect 25 0 26 0;
#X connect 26 0 27 0;
#X connect 27 0 350 0;
#X connect 28 0 29 0;
#X connect 29 0 30 0;
#X connect 30 0 31 0;
#X connect 31 0 351 0;
#X connect 32 0 33 0;
#X connect 33 0 34 0;
#X connect 34 0 35 0;
#X connect 35 0 352 0;
#X connect 36 0 37 0;
#X connect 37 0 38 0;
#X connect 38 0 39 0;
#X connect 39 0 353 0;
#X connect 40 0 41 0;
#X connect 41 0 42 0;
#X connect 42 0 43 0;
#X connect 43 0 354 0;
#X connect 44 0 45 0;
#X connect 45 0 46 0;
#X connect 46 0 47 0;
#X connect 47 0 355 0;
#X connect 48 0 49 0;
#X connect 49 0 50 0;
#X connect 50 0 51 0;
#X connect 51 0 356 0;
#X connect 52 0 53 0;
#X connect 53 0 54 0;
#X connect 54 0 55 0;
#X connect 55 0 357 0;
#X connect 56 0 57 0;
#X connect 57 0 58 0;
#X connect 58 0 59 0;
#X connect 59 0 358 0;
#X connect 60 0 61 0;
#X connect 61 0 62 0;
#X connect 62 0 63 0;
#X connect 63 0 359 0;
#X connect 64 0 65 0;
#X connect 65 0 66 0;
#X connect 66 0 67 0;
#X connect 67 0 360 0;
#X connect 68 0 69 0;
#X connect 69 0 70 0;
#X connect 70 0 71 0;
#X connect 71 0 361 0;
#X connect 72 0 128 0;
#X connect 73 0 129 0;
#X connect 74 0 130 0;
#X connect 75 0 131 0;
#X connect 76 0 132 0;
#X connect 77 0 133 0;
#X connect 78 0 134 0;
#X connect 79 0 135 0;
#X connect 80 0 136 0;
#X connect 81 0 137 0;
#X connect 82 0 138 0;
#X connect 83 0 139 0;
#X connect 84 0 140 0;
#X connect 85 0 141 0;
#X connect 86 0 142 0;
#X connect 87 0 143 0;
#X connect 88 0 144 0;
#X connect 89 0 107 0;
#X connect 90 0 108 0;
#X connect 91 0 109 0;
#X connect 92 0 110 0;
#X connect 93 0 111 0;
#X connect 94 0 112 0;
#X connect 95 0 113 0;
#X connect 96 0 114 0;
#X connect 97 0 115 0;
#X connect 98 0 116 0;
#X connect 99 0 117 0;
#X connect 100 0 118 0;
#X connect 101 0 119 0;
#X connect 102 0 120 0;
#X connect 103 0 121 0;
#X connect 104 0 122 0;
#X connect 105 0 123 0;
#X connect 106 0 124 0;
#X connect 125 0 325 1;
#X connect 126 0 329 0;
#X connect 127 0 1 0;
#X connect 128 0 4 0;
#X connect 129 0 8 0;
#X connect 130 0 12 0;
#X connect 131 0 16 0;
#X connect 132 0 20 0;
#X connect 133 0 24 0;
#X connect 134 0 28 0;
#X connect 135 0 32 0;
#X connect 136 0 36 0;
#X connect 137 0 40 0;
#X connect 138 0 44 0;
#X connect 139 0 48 0;
#X connect 140 0 52 0;
#X connect 141 0 56 0;
#X connect 142 0 60 0;
#X connect 143 0 64 0;
#X connect 144 0 68 0;
#X connect 145 0 89 0;
#X connect 146 0 90 0;
#X connect 147 0 91 0;
#X connect 148 0 92 0;
#X connect 149 0 93 0;
#X connect 150 0 94 0;
#X connect 151 0 95 0;
#X connect 152 0 96 0;
#X connect 153 0 97 0;
#X connect 154 0 98 0;
#X connect 155 0 99 0;
#X connect 156 0 100 0;
#X connect 157 0 101 0;
#X connect 158 0 102 0;
#X connect 159 0 103 0;
#X connect 160 0 104 0;
#X connect 161 0 105 0;
#X connect 162 0 106 0;
#X connect 163 0 164 0;
#X connect 164 0 165 0;
#X connect 165 0 166 0;
#X connect 166 0 362 0;
#X connect 167 0 168 0;
#X connect 168 0 169 0;
#X connect 169 0 170 0;
#X connect 170 0 363 0;
#X connect 171 0 172 0;
#X connect 172 0 173 0;
#X connect 173 0 174 0;
#X connect 174 0 364 0;
#X connect 175 0 176 0;
#X connect 176 0 177 0;
#X connect 177 0 178 0;
#X connect 178 0 365 0;
#X connect 179 0 180 0;
#X connect 180 0 181 0;
#X connect 181 0 182 0;
#X connect 182 0 366 0;
#X connect 183 0 184 0;
#X connect 184 0 185 0;
#X connect 185 0 186 0;
#X connect 186 0 367 0;
#X connect 187 0 188 0;
#X connect 188 0 189 0;
#X connect 189 0 190 0;
#X connect 190 0 368 0;
#X connect 191 0 192 0;
#X connect 192 0 193 0;
#X connect 193 0 194 0;
#X connect 194 0 369 0;
#X connect 195 0 196 0;
#X connect 196 0 197 0;
#X connect 197 0 198 0;
#X connect 198 0 370 0;
#X connect 199 0 200 0;
#X connect 200 0 201 0;
#X connect 201 0 202 0;
#X connect 202 0 371 0;
#X connect 203 0 204 0;
#X connect 204 0 205 0;
#X connect 205 0 206 0;
#X connect 206 0 372 0;
#X connect 207 0 208 0;
#X connect 208 0 209 0;
#X connect 209 0 210 0;
#X connect 210 0 373 0;
#X connect 211 0 212 0;
#X connect 212 0 213 0;
#X connect 213 0 214 0;
#X connect 214 0 374 0;
#X connect 215 0 216 0;
#X connect 216 0 217 0;
#X connect 217 0 218 0;
#X connect 218 0 375 0;
#X connect 219 0 220 0;
#X connect 220 0 221 0;
#X connect 221 0 222 0;
#X connect 222 0 376 0;
#X connect 223 0 224 0;
#X connect 224 0 225 0;
#X connect 225 0 226 0;
#X connect 226 0 377 0;
#X connect 227 0 228 0;
#X connect 228 0 229 0;
#X connect 229 0 230 0;
#X connect 230 0 378 0;
#X connect 231 0 232 0;
#X connect 232 0 233 0;
#X connect 233 0 234 0;
#X connect 234 0 379 0;
#X connect 235 0 282 0;
#X connect 236 0 254 0;
#X connect 237 0 255 0;
#X connect 238 0 256 0;
#X connect 239 0 257 0;
#X connect 240 0 258 0;
#X connect 241 0 259 0;
#X connect 242 0 260 0;
#X connect 243 0 261 0;
#X connect 244 0 262 0;
#X connect 245 0 263 0;
#X connect 246 0 264 0;
#X connect 247 0 265 0;
#X connect 248 0 266 0;
#X connect 249 0 267 0;
#X connect 250 0 268 0;
#X connect 251 0 269 0;
#X connect 252 0 270 0;
#X connect 253 0 271 0;
#X connect 272 0 163 0;
#X connect 273 0 167 0;
#X connect 274 0 171 0;
#X connect 275 0 175 0;
#X connect 276 0 179 0;
#X connect 277 0 183 0;
#X connect 278 0 187 0;
#X connect 279 0 191 0;
#X connect 280 0 195 0;
#X connect 281 0 199 0;
#X connect 282 0 203 0;
#X connect 283 0 207 0;
#X connect 284 0 211 0;
#X connect 285 0 215 0;
#X connect 286 0 219 0;
#X connect 287 0 223 0;
#X connect 288 0 227 0;
#X connect 289 0 231 0;
#X connect 290 0 236 0;
#X connect 291 0 237 0;
#X connect 292 0 238 0;
#X connect 293 0 239 0;
#X connect 294 0 240 0;
#X connect 295 0 241 0;
#X connect 296 0 242 0;
#X connect 297 0 243 0;
#X connect 298 0 244 0;
#X connect 299 0 245 0;
#X connect 300 0 246 0;
#X connect 301 0 247 0;
#X connect 302 0 248 0;
#X connect 303 0 249 0;
#X connect 304 0 250 0;
#X connect 305 0 251 0;
#X connect 306 0 252 0;
#X connect 307 0 253 0;
#X connect 308 0 272 0;
#X connect 309 0 273 0;
#X connect 310 0 274 0;
#X connect 311 0 275 0;
#X connect 312 0 276 0;
#X connect 313 0 277 0;
#X connect 314 0 278 0;
#X connect 315 0 279 0;
#X connect 316 0 280 0;
#X connect 317 0 281 0;
#X connect 318 0 283 0;
#X connect 319 0 284 0;
#X connect 320 0 285 0;
#X connect 321 0 286 0;
#X connect 322 0 287 0;
#X connect 323 0 288 0;
#X connect 324 0 289 0;
#X connect 325 0 126 0;
#X connect 327 0 382 0;
#X connect 328 0 326 0;
#X connect 329 0 1 0;
#X connect 329 0 68 0;
#X connect 329 0 64 0;
#X connect 329 0 60 0;
#X connect 329 0 56 0;
#X connect 329 0 52 0;
#X connect 329 0 48 0;
#X connect 329 0 44 0;
#X connect 329 0 40 0;
#X connect 329 0 36 0;
#X connect 329 0 32 0;
#X connect 329 0 28 0;
#X connect 329 0 24 0;
#X connect 329 0 20 0;
#X connect 329 0 16 0;
#X connect 329 0 12 0;
#X connect 329 0 8 0;
#X connect 329 0 4 0;
#X connect 329 0 163 0;
#X connect 329 0 231 0;
#X connect 329 0 227 0;
#X connect 329 0 223 0;
#X connect 329 0 219 0;
#X connect 329 0 215 0;
#X connect 329 0 211 0;
#X connect 329 0 207 0;
#X connect 329 0 203 0;
#X connect 329 0 199 0;
#X connect 329 0 195 0;
#X connect 329 0 191 0;
#X connect 329 0 187 0;
#X connect 329 0 183 0;
#X connect 329 0 179 0;
#X connect 329 0 175 0;
#X connect 329 0 171 0;
#X connect 329 0 167 0;
#X connect 329 0 328 0;
#X connect 329 0 327 0;
#X connect 329 0 386 0;
#X connect 329 1 383 0;
#X connect 331 0 325 0;
#X connect 332 0 330 0;
#X connect 334 0 335 0;
#X connect 335 0 336 0;
#X connect 336 0 337 0;
#X connect 336 0 338 0;
#X connect 337 0 336 1;
#X connect 338 0 341 0;
#X connect 338 1 333 1;
#X connect 338 1 340 0;
#X connect 339 0 336 1;
#X connect 340 0 339 0;
#X connect 341 0 333 0;
#X connect 343 0 344 0;
#X connect 344 0 89 1;
#X connect 345 0 90 1;
#X connect 346 0 91 1;
#X connect 347 0 92 1;
#X connect 348 0 93 1;
#X connect 349 0 94 1;
#X connect 350 0 95 1;
#X connect 351 0 96 1;
#X connect 352 0 97 1;
#X connect 353 0 98 1;
#X connect 354 0 99 1;
#X connect 355 0 100 1;
#X connect 356 0 101 1;
#X connect 357 0 102 1;
#X connect 358 0 103 1;
#X connect 359 0 104 1;
#X connect 360 0 105 1;
#X connect 361 0 106 1;
#X connect 362 0 236 1;
#X connect 363 0 237 1;
#X connect 364 0 238 1;
#X connect 365 0 239 1;
#X connect 366 0 240 1;
#X connect 367 0 241 1;
#X connect 368 0 242 1;
#X connect 369 0 243 1;
#X connect 370 0 244 1;
#X connect 371 0 245 1;
#X connect 372 0 246 1;
#X connect 373 0 247 1;
#X connect 374 0 248 1;
#X connect 375 0 249 1;
#X connect 376 0 250 1;
#X connect 377 0 251 1;
#X connect 378 0 252 1;
#X connect 379 0 253 1;
#X connect 381 0 166 0;
#X connect 381 0 234 0;
#X connect 381 0 230 0;
#X connect 381 0 226 0;
#X connect 381 0 222 0;
#X connect 381 0 218 0;
#X connect 381 0 214 0;
#X connect 381 0 210 0;
#X connect 381 0 206 0;
#X connect 381 0 202 0;
#X connect 381 0 198 0;
#X connect 381 0 194 0;
#X connect 381 0 190 0;
#X connect 381 0 186 0;
#X connect 381 0 182 0;
#X connect 381 0 178 0;
#X connect 381 0 174 0;
#X connect 381 0 170 0;
#X connect 381 0 71 0;
#X connect 381 0 67 0;
#X connect 381 0 63 0;
#X connect 381 0 59 0;
#X connect 381 0 55 0;
#X connect 381 0 51 0;
#X connect 381 0 47 0;
#X connect 381 0 43 0;
#X connect 381 0 39 0;
#X connect 381 0 35 0;
#X connect 381 0 31 0;
#X connect 381 0 27 0;
#X connect 381 0 23 0;
#X connect 381 0 19 0;
#X connect 381 0 15 0;
#X connect 381 0 11 0;
#X connect 381 0 7 0;
#X connect 381 0 343 0;
#X connect 382 0 332 0;
#X connect 382 0 380 0;
#X connect 382 0 384 0;
#X connect 382 1 342 0;
#X connect 382 2 334 0;
#X connect 383 0 382 0;
#X connect 383 1 381 0;
#X connect 383 1 384 0;
#X connect 384 0 385 0;
#X restore 614 566 pd coda;
#N canvas 347 132 1205 752 postit 0;
#X obj 21 325 outlet~;
#X obj 21 12 inlet~;
#X obj 31 196 rev2~;
#X obj 21 284 clip~ -1 1;
#X obj 241 325 outlet~;
#X obj 241 12 inlet~;
#X obj 251 196 rev2~;
#X obj 241 284 clip~ -1 1;
#X obj 21 221 *~ 1;
#X obj 241 221 *~ 1;
#X msg 171 95 0;
#X msg 171 135 30;
#X msg 171 115 50;
#X obj 146 61 loadbang;
#X connect 1 0 2 0;
#X connect 1 0 8 0;
#X connect 2 0 8 0;
#X connect 3 0 0 0;
#X connect 5 0 6 0;
#X connect 5 0 9 0;
#X connect 6 0 9 0;
#X connect 7 0 4 0;
#X connect 8 0 3 0;
#X connect 9 0 7 0;
#X connect 10 0 2 4;
#X connect 10 0 2 3;
#X connect 10 0 6 3;
#X connect 10 0 6 4;
#X connect 11 0 2 2;
#X connect 11 0 6 2;
#X connect 12 0 2 1;
#X connect 12 0 6 1;
#X connect 13 0 10 0;
#X connect 13 0 12 0;
#X connect 13 0 11 0;
#X restore 836 638 pd postit;
#X obj 308 40 r inp-p;
#X text 599 36 6a - Chooses who plays;
#X obj 139 249 s inp-p;
#X obj 657 267 t b f;
#X obj 924 434 primary;
#X text 929 418 Handles prime inputs;
#X obj 601 61 r start-sect-n;
#X obj 189 565 s start-sect-n;
#X obj 364 41 r unit;
#X msg 364 66 1;
#X obj 835 852 outlet~;
#X obj 885 852 outlet~;
#X obj 118 63 inlet;
#X text 852 94 Handles 0;
#X obj 855 120 r cage;
#X obj 855 145 del 273000;
#X obj 855 170 s end-cage;
#X obj 15 122 s cage;
#X obj 270 368 bng 15 250 50 0 empty empty empty 17 7 0 10 #fcfcfc
#000000 #000000;
#X obj 270 391 s colors;
#X obj 601 106 del 2000;
#X obj 348 387 print ALES;
#X obj 657 244 myUrn;
#X msg 702 224 18;
#X text 870 250 reset phases;
#X obj 870 270 loadbang;
#X msg 870 320 0;
#X obj 870 295 del 750;
#X obj 870 345 s phaRes;
#X msg 448 45 260399;
#X obj 615 434 orchestry7;
#X connect 1 0 2 0;
#X connect 2 0 74 0;
#X connect 3 0 26 0;
#X connect 3 1 27 0;
#X connect 3 2 28 0;
#X connect 3 3 29 0;
#X connect 5 0 24 0;
#X connect 7 0 8 0;
#X connect 8 0 9 0;
#X connect 9 0 31 0;
#X connect 9 1 32 0;
#X connect 14 0 15 0;
#X connect 15 0 17 0;
#X connect 15 1 18 0;
#X connect 16 0 14 0;
#X connect 16 1 17 1;
#X connect 16 1 18 1;
#X connect 17 0 6 0;
#X connect 18 0 132 0;
#X connect 24 0 1 0;
#X connect 24 1 1 1;
#X connect 25 0 16 0;
#X connect 25 0 33 0;
#X connect 25 0 90 0;
#X connect 26 0 20 0;
#X connect 27 0 21 0;
#X connect 28 0 22 0;
#X connect 29 0 23 0;
#X connect 31 0 30 0;
#X connect 32 0 30 0;
#X connect 33 0 147 0;
#X connect 33 1 34 0;
#X connect 36 0 44 0;
#X connect 37 0 43 0;
#X connect 38 0 39 0;
#X connect 39 0 43 0;
#X connect 40 0 48 0;
#X connect 41 0 42 1;
#X connect 41 1 40 0;
#X connect 42 0 46 0;
#X connect 42 1 46 0;
#X connect 42 2 46 0;
#X connect 42 3 46 0;
#X connect 42 4 46 0;
#X connect 42 5 46 0;
#X connect 42 6 46 0;
#X connect 42 7 46 0;
#X connect 42 8 46 0;
#X connect 42 9 46 0;
#X connect 42 10 46 0;
#X connect 42 11 46 0;
#X connect 42 12 46 0;
#X connect 42 13 46 0;
#X connect 42 14 46 0;
#X connect 42 15 46 0;
#X connect 42 16 46 0;
#X connect 42 17 46 0;
#X connect 42 18 46 0;
#X connect 42 19 69 0;
#X connect 43 0 41 0;
#X connect 44 0 38 0;
#X connect 44 1 37 0;
#X connect 45 0 40 0;
#X connect 45 1 40 2;
#X connect 47 0 46 1;
#X connect 48 0 42 0;
#X connect 48 1 47 0;
#X connect 49 0 85 0;
#X connect 50 0 85 0;
#X connect 51 0 85 0;
#X connect 52 0 85 0;
#X connect 53 0 85 0;
#X connect 54 0 85 0;
#X connect 55 0 85 0;
#X connect 56 0 85 0;
#X connect 57 0 85 0;
#X connect 58 0 85 0;
#X connect 59 0 85 0;
#X connect 60 0 85 0;
#X connect 61 0 85 0;
#X connect 62 0 85 0;
#X connect 63 0 85 0;
#X connect 64 0 85 0;
#X connect 65 0 85 0;
#X connect 66 0 85 0;
#X connect 67 0 85 0;
#X connect 68 0 84 0;
#X connect 69 0 45 0;
#X connect 69 1 46 0;
#X connect 73 0 75 0;
#X connect 73 1 76 0;
#X connect 73 2 77 0;
#X connect 73 3 78 0;
#X connect 73 4 79 0;
#X connect 73 5 104 0;
#X connect 73 6 107 0;
#X connect 74 0 3 0;
#X connect 75 0 80 0;
#X connect 75 1 82 0;
#X connect 76 0 80 0;
#X connect 76 1 82 0;
#X connect 77 0 80 0;
#X connect 77 1 82 0;
#X connect 78 0 80 0;
#X connect 78 1 82 0;
#X connect 79 0 80 0;
#X connect 79 1 82 0;
#X connect 80 0 81 0;
#X connect 80 0 137 0;
#X connect 83 0 160 0;
#X connect 83 1 160 1;
#X connect 83 2 160 2;
#X connect 83 3 160 3;
#X connect 83 4 160 4;
#X connect 83 5 160 5;
#X connect 83 6 160 6;
#X connect 83 7 160 7;
#X connect 83 8 160 8;
#X connect 83 9 160 9;
#X connect 83 10 160 10;
#X connect 83 11 160 11;
#X connect 83 12 160 12;
#X connect 83 13 160 13;
#X connect 83 14 160 14;
#X connect 83 15 160 15;
#X connect 83 16 160 16;
#X connect 83 17 160 17;
#X connect 84 0 87 0;
#X connect 84 0 85 1;
#X connect 84 1 85 0;
#X connect 84 2 87 0;
#X connect 85 0 86 0;
#X connect 86 0 88 0;
#X connect 86 0 148 0;
#X connect 86 0 151 0;
#X connect 87 0 86 1;
#X connect 90 0 35 0;
#X connect 90 1 4 0;
#X connect 90 3 11 0;
#X connect 91 0 98 0;
#X connect 92 0 99 0;
#X connect 93 0 100 0;
#X connect 94 0 96 0;
#X connect 95 0 97 0;
#X connect 101 0 102 0;
#X connect 105 0 128 0;
#X connect 105 1 128 18;
#X connect 105 2 128 1;
#X connect 105 3 128 19;
#X connect 105 4 128 2;
#X connect 105 5 128 20;
#X connect 105 6 128 3;
#X connect 105 7 128 21;
#X connect 105 8 128 4;
#X connect 105 9 128 22;
#X connect 105 10 128 5;
#X connect 105 11 128 23;
#X connect 105 12 128 6;
#X connect 105 13 128 24;
#X connect 105 14 128 7;
#X connect 105 15 128 25;
#X connect 105 16 128 8;
#X connect 105 17 128 26;
#X connect 105 18 128 9;
#X connect 105 19 128 27;
#X connect 105 20 128 10;
#X connect 105 21 128 28;
#X connect 105 22 128 11;
#X connect 105 23 128 29;
#X connect 105 24 128 12;
#X connect 105 25 128 30;
#X connect 105 26 128 13;
#X connect 105 27 128 31;
#X connect 105 28 128 14;
#X connect 105 29 128 32;
#X connect 105 30 128 15;
#X connect 105 31 128 33;
#X connect 105 32 128 16;
#X connect 105 33 128 34;
#X connect 105 34 128 17;
#X connect 105 35 128 35;
#X connect 108 0 109 0;
#X connect 109 0 110 0;
#X connect 109 0 152 0;
#X connect 110 0 111 0;
#X connect 111 0 112 0;
#X connect 112 0 152 0;
#X connect 113 0 152 0;
#X connect 115 0 116 0;
#X connect 116 0 117 0;
#X connect 117 0 118 0;
#X connect 117 0 119 0;
#X connect 118 0 117 1;
#X connect 119 0 122 0;
#X connect 119 1 114 1;
#X connect 119 1 121 0;
#X connect 120 0 117 1;
#X connect 121 0 120 0;
#X connect 122 0 114 0;
#X connect 123 0 114 0;
#X connect 124 0 115 0;
#X connect 124 0 153 0;
#X connect 125 0 126 0;
#X connect 125 1 110 0;
#X connect 125 2 113 0;
#X connect 125 3 115 0;
#X connect 128 0 129 0;
#X connect 128 1 129 0;
#X connect 128 2 129 0;
#X connect 128 3 129 0;
#X connect 128 4 129 0;
#X connect 128 5 129 0;
#X connect 128 6 129 0;
#X connect 128 7 129 0;
#X connect 128 8 129 0;
#X connect 128 9 129 0;
#X connect 128 10 129 0;
#X connect 128 11 129 0;
#X connect 128 12 129 0;
#X connect 128 13 129 0;
#X connect 128 14 129 0;
#X connect 128 15 129 0;
#X connect 128 16 129 0;
#X connect 128 17 129 0;
#X connect 128 18 129 1;
#X connect 128 19 129 1;
#X connect 128 20 129 1;
#X connect 128 21 129 1;
#X connect 128 22 129 1;
#X connect 128 23 129 1;
#X connect 128 24 129 1;
#X connect 128 25 129 1;
#X connect 128 26 129 1;
#X connect 128 27 129 1;
#X connect 128 28 129 1;
#X connect 128 29 129 1;
#X connect 128 30 129 1;
#X connect 128 31 129 1;
#X connect 128 32 129 1;
#X connect 128 33 129 1;
#X connect 128 34 129 1;
#X connect 128 35 129 1;
#X connect 129 0 140 0;
#X connect 129 1 141 0;
#X connect 130 0 44 0;
#X connect 133 0 123 0;
#X connect 133 1 114 1;
#X connect 134 0 105 0;
#X connect 134 1 105 1;
#X connect 134 2 105 2;
#X connect 134 3 105 3;
#X connect 134 4 105 4;
#X connect 134 5 105 5;
#X connect 134 6 105 12;
#X connect 134 7 105 13;
#X connect 134 8 105 6;
#X connect 134 9 105 7;
#X connect 134 10 105 11;
#X connect 134 11 105 14;
#X connect 136 0 150 0;
#X connect 138 0 139 0;
#X connect 139 0 44 0;
#X connect 142 0 25 0;
#X connect 144 0 145 0;
#X connect 145 0 146 0;
#X connect 148 0 149 0;
#X connect 150 0 125 0;
#X connect 152 0 133 0;
#X connect 153 0 152 1;
#X connect 155 0 157 0;
#X connect 156 0 158 0;
#X connect 157 0 156 0;
#X connect 159 0 44 0;
#X connect 160 0 105 0;
#X connect 160 1 105 1;
#X connect 160 2 105 2;
#X connect 160 3 105 3;
#X connect 160 4 105 4;
#X connect 160 5 105 5;
#X connect 160 6 105 6;
#X connect 160 7 105 7;
#X connect 160 8 105 8;
#X connect 160 9 105 9;
#X connect 160 10 105 10;
#X connect 160 11 105 11;
#X connect 160 12 105 12;
#X connect 160 13 105 13;
#X connect 160 14 105 14;
#X connect 160 15 105 15;
#X connect 160 16 105 16;
#X connect 160 17 105 17;
#X connect 160 18 105 18;
#X connect 160 19 105 19;
#X connect 160 20 105 20;
#X connect 160 21 105 21;
