#N canvas 148 44 1220 762 10;
#X obj 211 75 env~ 1024;
#X floatatom 211 100 5 0 0 0 - - -, f 5;
#X obj 256 149 expr (($f1 - $f3) / $f2) - $f1 + $f3;
#X floatatom 256 174 5 0 0 0 - - -, f 5;
#X floatatom 256 223 10 0 0 0 - - -, f 10;
#X obj 256 247 dbtorms;
#X floatatom 256 272 10 0 0 0 - - -, f 10;
#X obj 362 75 loadbang;
#X floatatom 362 125 5 0 0 0 - - -, f 5;
#X text 385 100 limit;
#X obj 211 149 bng 15 250 50 0 empty empty empty 17 7 0 10 #fcfcfc
#000000 #000000;
#X msg 211 172 1;
#X obj 91 260 line;
#X obj 76 296 *~;
#X msg 362 100 10;
#X obj 256 198 expr 100 + $f1;
#X obj 468 75 loadbang;
#X floatatom 468 125 5 0 0 0 - - -, f 5;
#X obj 46 30 inlet~;
#X obj 46 471 outlet~;
#X obj 76 105 loadbang;
#X msg 76 130 23.22;
#X obj 76 75 delwrite~ \$0-comp 100;
#X obj 76 155 delread~ \$0-comp;
#X msg 111 210 \$1 30;
#X msg 91 235 \$1 30;
#X msg 468 98 80;
#X obj 211 124 moses 5;
#X text 570 10 toggle to bypass;
#X obj 570 55 tgl 15 0 empty empty empty 17 7 0 10 #fcfcfc #000000
#000000 0 1;
#X obj 76 431 *~;
#X obj 46 431 *~;
#X obj 570 78 sel 0 1;
#X obj 61 400 line;
#X msg 71 375 1 30;
#X msg 61 355 0 30;
#X obj 111 400 line;
#X msg 121 375 1 30;
#X msg 111 355 0 30;
#X obj 170 220 loadbang;
#X obj 170 245 del 100;
#X msg 170 270 0;
#X msg 180 290 1;
#X obj 570 35 inlet;
#X obj 194 451 env~;
#X floatatom 194 476 5 0 0 0 - - -, f 5;
#X obj 154 451 env~;
#X floatatom 154 476 5 0 0 0 - - -, f 5;
#X connect 0 0 1 0;
#X connect 1 0 27 0;
#X connect 2 0 3 0;
#X connect 3 0 15 0;
#X connect 4 0 5 0;
#X connect 5 0 6 0;
#X connect 6 0 25 0;
#X connect 7 0 14 0;
#X connect 8 0 2 1;
#X connect 10 0 11 0;
#X connect 11 0 24 0;
#X connect 12 0 13 1;
#X connect 13 0 30 0;
#X connect 14 0 8 0;
#X connect 15 0 4 0;
#X connect 16 0 26 0;
#X connect 17 0 2 2;
#X connect 18 0 0 0;
#X connect 18 0 22 0;
#X connect 18 0 31 0;
#X connect 20 0 21 0;
#X connect 21 0 23 0;
#X connect 23 0 13 0;
#X connect 24 0 12 0;
#X connect 25 0 12 0;
#X connect 26 0 17 0;
#X connect 27 0 10 0;
#X connect 27 1 2 0;
#X connect 29 0 32 0;
#X connect 30 0 19 0;
#X connect 30 0 44 0;
#X connect 31 0 19 0;
#X connect 31 0 46 0;
#X connect 32 0 37 0;
#X connect 32 0 35 0;
#X connect 32 1 38 0;
#X connect 32 1 34 0;
#X connect 33 0 31 1;
#X connect 34 0 33 0;
#X connect 35 0 33 0;
#X connect 36 0 30 1;
#X connect 37 0 36 0;
#X connect 38 0 36 0;
#X connect 39 0 40 0;
#X connect 40 0 41 0;
#X connect 40 0 42 0;
#X connect 41 0 33 0;
#X connect 42 0 36 0;
#X connect 43 0 29 0;
#X connect 44 0 45 0;
#X connect 46 0 47 0;
