#N canvas 1002 184 530 522 10;
#X msg 80 205 seed \$1;
#X obj 80 155 sel 0;
#X msg 80 180 1;
#X obj 79 95 inlet;
#X obj 79 120 route seed;
#X obj 151 97 inlet;
#X obj 80 265 outlet;
#X obj 80 240 drunk;
#X obj 191 97 inlet;
#X connect 0 0 7 0;
#X connect 1 0 2 0;
#X connect 1 1 0 0;
#X connect 2 0 0 0;
#X connect 3 0 4 0;
#X connect 4 0 1 0;
#X connect 4 1 7 0;
#X connect 5 0 7 1;
#X connect 7 0 6 0;
#X connect 8 0 7 2;
