#N canvas 621 274 451 301 10;
#X msg 60 160 seed \$1;
#X obj 60 110 sel 0;
#X msg 60 135 1;
#X obj 106 125 t f b;
#X msg 133 152 clear;
#X obj 59 50 inlet;
#X obj 59 75 route seed;
#X obj 131 52 inlet;
#X obj 60 220 outlet;
#X obj 110 220 outlet;
#X obj 60 195 urn;
#X connect 0 0 10 0;
#X connect 1 0 2 0;
#X connect 1 1 3 0;
#X connect 2 0 0 0;
#X connect 2 0 3 0;
#X connect 3 0 0 0;
#X connect 3 1 4 0;
#X connect 4 0 10 0;
#X connect 5 0 6 0;
#X connect 6 0 1 0;
#X connect 6 1 10 0;
#X connect 7 0 10 1;
#X connect 10 0 8 0;
#X connect 10 1 9 0;
