#N canvas 0 0 1691 848 10;
#X obj 27 329 soundfiler;
#X obj 27 152 sel 0 1 2 3;
#X msg 27 177 bell.wav;
#X msg 42 202 noisePoly.wav;
#X msg 58 227 noiseTalker.wav;
#X msg 76 248 swarmNoise.wav;
#X obj 27 248 symbol;
#N canvas 0 0 450 300 (subpatch) 0;
#X array \$0-nmtx1 540000 float 0 black #ff0000;
#X coords 0 1 539999 -1 200 140 1;
#X restore 180 120 graph;
#X floatatom 494 387 5 0 0 0 - - -, f 5;
#X obj 493 440 mtof;
#X floatatom 493 465 5 0 0 0 - - -, f 5;
#X obj 493 489 phasor~;
#X obj 493 514 *~ 100;
#X floatatom 50 274 5 0 0 0 - - -, f 5;
#X floatatom 592 387 5 0 0 0 - - -, f 5;
#X obj 591 410 * 1000;
#X obj 27 127 mod 4;
#X obj 92 14 inlet;
#X obj 512 977 outlet~;
#X obj 493 650 *~;
#X obj 92 79 tgl 15 0 empty empty empty 17 7 0 10 #fcfcfc #000000 #000000
0 1;
#X obj 536 631 line;
#X obj 724 114 r sect-t;
#X obj 726 262 line;
#X obj 722 181 / 2;
#X obj 722 206 f;
#X obj 676 206 f;
#X obj 752 206 del;
#X obj 781 206 f;
#X obj 726 239 pack;
#X obj 676 153 t b b;
#X obj 538 204 f;
#X obj 492 204 f;
#X obj 566 205 del;
#X obj 592 205 f;
#X obj 542 237 pack;
#X obj 538 179 / 3;
#X obj 492 155 t b b;
#X obj 592 230 t f b;
#X obj 647 205 f;
#X obj 621 205 del;
#X obj 542 259 line;
#X obj 492 179 r ale5;
#X obj 573 179 r ale10;
#X obj 623 179 r ale15;
#X obj 676 181 r ale20;
#X obj 781 181 r ale1;
#X obj 542 287 maxlib/scale 0 100 5 114;
#X obj 726 287 maxlib/scale 0 100 20 33;
#X obj 584 115 sel 1;
#X obj 493 539 tabread4~ \$0-nmtx1;
#X obj 27 102 r ale18;
#X obj 598 595 sel 0 1;
#X msg 598 620 0 100;
#X msg 617 644 1 30;
#X obj 410 80 t f f;
#X obj 430 313 spigot;
#X obj 764 355 spigot;
#X obj 430 338 s star1dist;
#X obj 764 380 s star1rad;
#X obj 180 41 s star1off;
#X obj 92 39 change;
#X obj 590 460 r phaRes;
#X msg 27 274 read -resize samples/\$1 \$0-nmtx1;
#X connect 1 0 2 0;
#X connect 1 1 3 0;
#X connect 1 2 4 0;
#X connect 1 3 5 0;
#X connect 2 0 6 0;
#X connect 3 0 6 0;
#X connect 4 0 6 0;
#X connect 5 0 6 0;
#X connect 6 0 63 0;
#X connect 8 0 9 0;
#X connect 9 0 10 0;
#X connect 10 0 11 0;
#X connect 11 0 12 0;
#X connect 12 0 50 0;
#X connect 14 0 15 0;
#X connect 15 0 12 1;
#X connect 16 0 1 0;
#X connect 17 0 61 0;
#X connect 19 0 18 0;
#X connect 20 0 52 0;
#X connect 20 0 55 0;
#X connect 20 0 60 0;
#X connect 21 0 19 1;
#X connect 22 0 24 0;
#X connect 22 0 36 0;
#X connect 23 0 48 0;
#X connect 23 0 57 0;
#X connect 24 0 25 1;
#X connect 24 0 27 1;
#X connect 25 0 29 1;
#X connect 26 0 29 0;
#X connect 27 0 28 0;
#X connect 28 0 29 0;
#X connect 29 0 23 0;
#X connect 30 0 26 0;
#X connect 30 0 27 0;
#X connect 30 1 25 0;
#X connect 31 0 35 1;
#X connect 32 0 35 0;
#X connect 33 0 34 0;
#X connect 34 0 38 0;
#X connect 35 0 41 0;
#X connect 36 0 31 1;
#X connect 36 0 33 1;
#X connect 36 0 40 1;
#X connect 37 0 32 0;
#X connect 37 0 33 0;
#X connect 37 1 31 0;
#X connect 38 0 35 0;
#X connect 38 1 40 0;
#X connect 39 0 35 0;
#X connect 40 0 39 0;
#X connect 41 0 47 0;
#X connect 41 0 56 0;
#X connect 42 0 32 1;
#X connect 43 0 34 1;
#X connect 44 0 39 1;
#X connect 45 0 26 1;
#X connect 46 0 28 1;
#X connect 47 0 8 0;
#X connect 48 0 14 0;
#X connect 49 0 30 0;
#X connect 49 0 37 0;
#X connect 50 0 19 0;
#X connect 51 0 16 0;
#X connect 52 0 53 0;
#X connect 52 1 54 0;
#X connect 53 0 21 0;
#X connect 54 0 21 0;
#X connect 55 0 49 0;
#X connect 55 1 56 1;
#X connect 55 1 57 1;
#X connect 56 0 58 0;
#X connect 57 0 59 0;
#X connect 61 0 20 0;
#X connect 62 0 11 1;
#X connect 63 0 0 0;
