#N canvas 66 44 1222 762 10;
#X obj 27 329 soundfiler;
#X obj 27 152 sel 0 1 2 3;
#X msg 27 177 bell.wav;
#X msg 42 202 noisePoly.wav;
#X msg 58 227 noiseTalker.wav;
#X msg 76 248 swarmNoise.wav;
#X obj 27 248 symbol;
#N canvas 0 0 450 300 (subpatch) 0;
#X array \$0-shapeSample2 540000 float 0 black #ff0000;
#X coords 0 1 539999 -1 200 140 1;
#X restore 180 120 graph;
#X floatatom 493 216 5 0 0 0 - - -, f 5;
#X obj 493 240 mtof;
#X floatatom 493 265 5 0 0 0 - - -, f 5;
#X obj 493 289 phasor~;
#X obj 493 314 *~ 100;
#X floatatom 50 274 5 0 0 0 - - -, f 5;
#X obj 493 171 + 5;
#X obj 493 146 random 115;
#X floatatom 592 187 5 0 0 0 - - -, f 5;
#X obj 591 210 * 1000;
#X obj 588 135 random 34;
#X obj 588 160 + 20;
#X obj 27 127 mod 4;
#X obj 496 12 inlet;
#X msg 504 122 seed \$1;
#X msg 596 111 seed \$1;
#X obj 596 86 r ale20;
#X obj 504 97 r ale17;
#X obj 27 101 r ale18;
#X obj 552 589 *~;
#X obj 567 563 maxlib/scale 0 100 0.1 0.8;
#X obj 553 490 * 10;
#X obj 496 62 t b b b;
#X obj 540 435 vline~;
#X msg 542 408 1 10 \, 0 200 25;
#X obj 493 450 *~;
#X obj 553 465 r ale19;
#X obj 567 538 r ale16;
#X obj 492 687 *~;
#X obj 492 712 outlet~;
#X obj 266 26 inlet;
#X obj 266 81 tgl 15 0 empty empty empty 17 7 0 10 #fcfcfc #000000
#000000 0 1;
#X obj 766 445 sel 0 1;
#X obj 781 474 r sect-del;
#X obj 766 529 f;
#X obj 781 499 pipe 1000;
#X msg 766 554 0 \$1;
#X msg 786 578 1 30;
#X obj 766 609 line;
#X obj 493 339 tabread4~ \$0-shapeSample2;
#X obj 552 516 delread~ \$0-pops 0;
#X obj 540 611 delwrite~ \$0-pops 1000;
#X floatatom 640 690 5 0 0 0 - - -, f 5;
#X obj 266 51 change;
#X obj 654 50 s noise-popsHit;
#X obj 590 260 r phaRes;
#X msg 27 274 read -resize samples/\$1 \$0-shapeSample2;
#X connect 1 0 2 0;
#X connect 1 1 3 0;
#X connect 1 2 4 0;
#X connect 1 3 5 0;
#X connect 2 0 6 0;
#X connect 3 0 6 0;
#X connect 4 0 6 0;
#X connect 5 0 6 0;
#X connect 6 0 54 0;
#X connect 8 0 9 0;
#X connect 9 0 10 0;
#X connect 10 0 11 0;
#X connect 11 0 12 0;
#X connect 12 0 47 0;
#X connect 14 0 8 0;
#X connect 15 0 14 0;
#X connect 16 0 17 0;
#X connect 17 0 12 1;
#X connect 18 0 19 0;
#X connect 19 0 16 0;
#X connect 20 0 1 0;
#X connect 21 0 30 0;
#X connect 21 0 52 0;
#X connect 22 0 15 0;
#X connect 23 0 18 0;
#X connect 24 0 23 0;
#X connect 25 0 22 0;
#X connect 26 0 20 0;
#X connect 27 0 49 0;
#X connect 28 0 27 1;
#X connect 29 0 48 0;
#X connect 30 0 32 0;
#X connect 30 1 15 0;
#X connect 30 2 18 0;
#X connect 31 0 33 1;
#X connect 32 0 31 0;
#X connect 33 0 36 0;
#X connect 33 0 49 0;
#X connect 34 0 29 0;
#X connect 35 0 28 0;
#X connect 35 0 50 0;
#X connect 36 0 37 0;
#X connect 38 0 51 0;
#X connect 39 0 40 0;
#X connect 40 0 42 0;
#X connect 40 1 45 0;
#X connect 41 0 43 0;
#X connect 42 0 44 0;
#X connect 43 0 42 1;
#X connect 44 0 46 0;
#X connect 45 0 46 0;
#X connect 46 0 36 1;
#X connect 47 0 33 0;
#X connect 48 0 27 0;
#X connect 48 0 36 0;
#X connect 51 0 39 0;
#X connect 53 0 11 1;
#X connect 54 0 0 0;
