#N canvas 0 0 1220 759 10;
#X obj 522 114 noise~;
#X obj 528 353 hsl 128 15 0 127 0 0 empty empty empty -2 -8 0 10 #fcfcfc
#000000 #000000 12700 1;
#X obj 528 378 / 127;
#X obj 494 410 *~;
#X obj 724 540 output~;
#X obj 606 59 tgl 15 0 empty empty empty 17 7 0 10 #fcfcfc #000000
#000000 1 1;
#X obj 606 82 metro 100;
#X floatatom 632 58 5 0 0 0 - - -, f 5;
#X obj 605 107 random 19800;
#X obj 605 132 + 2000;
#X obj 497 484 clip~;
#X obj 541 460 * -1;
#X floatatom 543 435 5 0 0 0 - - -, f 5;
#X connect 0 0 3 0;
#X connect 1 0 2 0;
#X connect 2 0 3 1;
#X connect 3 0 10 0;
#X connect 5 0 6 0;
#X connect 6 0 8 0;
#X connect 7 0 6 1;
#X connect 8 0 9 0;
#X connect 10 0 4 0;
#X connect 10 0 4 1;
#X connect 11 0 10 1;
#X connect 12 0 11 0;
#X connect 12 0 10 2;
