#N canvas 66 44 1222 762 10;
#X obj 27 329 soundfiler;
#X obj 27 152 sel 0 1 2 3;
#X msg 27 177 bell.wav;
#X msg 42 202 noisePoly.wav;
#X msg 58 227 noiseTalker.wav;
#X msg 76 248 swarmNoise.wav;
#X obj 27 248 symbol;
#N canvas 0 0 450 300 (subpatch) 0;
#X array \$0-shapeSample 540000 float 0 black #ff0000;
#X coords 0 1 539999 -1 200 140 1;
#X restore 180 120 graph;
#X floatatom 493 216 5 0 0 0 - - -, f 5;
#X obj 493 240 mtof;
#X floatatom 493 265 5 0 0 0 - - -, f 5;
#X obj 493 289 phasor~;
#X obj 493 314 *~ 100;
#X floatatom 50 274 5 0 0 0 - - -, f 5;
#X obj 493 171 + 5;
#X obj 493 146 random 115;
#X floatatom 592 187 5 0 0 0 - - -, f 5;
#X obj 591 210 * 1000;
#X obj 588 135 random 34;
#X obj 588 160 + 20;
#X obj 27 102 r ale20;
#X obj 27 127 mod 4;
#X obj 496 12 inlet;
#X obj 496 62 t b b;
#X msg 504 122 seed \$1;
#X obj 504 97 r ale19;
#X msg 596 111 seed \$1;
#X obj 596 86 r ale18;
#X obj 92 14 inlet;
#X obj 93 71 tgl 15 0 empty empty empty 17 7 0 10 #fcfcfc #000000 #000000
0 1;
#X obj 493 450 *~;
#X obj 512 777 outlet~;
#X floatatom 92 117 5 0 0 0 - - -, f 5;
#X floatatom 117 142 5 0 0 0 - - -, f 5;
#X obj 493 339 tabread4~ \$0-shapeSample;
#X obj 674 361 sel 0 1;
#X obj 689 390 r sect-del;
#X obj 674 445 f;
#X obj 689 415 pipe 1000;
#X msg 674 470 0 \$1;
#X msg 694 494 1 30;
#X obj 674 525 line;
#X obj 666 176 s nmData;
#X obj 92 39 change;
#X obj 600 260 r phaRes;
#X msg 27 274 read -resize samples/\$1 \$0-shapeSample;
#X connect 1 0 2 0;
#X connect 1 1 3 0;
#X connect 1 2 4 0;
#X connect 1 3 5 0;
#X connect 2 0 6 0;
#X connect 3 0 6 0;
#X connect 4 0 6 0;
#X connect 5 0 6 0;
#X connect 6 0 45 0;
#X connect 8 0 9 0;
#X connect 9 0 10 0;
#X connect 10 0 11 0;
#X connect 11 0 12 0;
#X connect 12 0 34 0;
#X connect 14 0 8 0;
#X connect 15 0 14 0;
#X connect 16 0 17 0;
#X connect 17 0 12 1;
#X connect 18 0 19 0;
#X connect 18 0 42 0;
#X connect 19 0 16 0;
#X connect 20 0 21 0;
#X connect 20 0 32 0;
#X connect 21 0 1 0;
#X connect 21 0 33 0;
#X connect 22 0 23 0;
#X connect 23 0 15 0;
#X connect 23 1 18 0;
#X connect 24 0 15 0;
#X connect 25 0 24 0;
#X connect 26 0 18 0;
#X connect 27 0 26 0;
#X connect 28 0 43 0;
#X connect 29 0 35 0;
#X connect 30 0 31 0;
#X connect 34 0 30 0;
#X connect 35 0 37 0;
#X connect 35 1 40 0;
#X connect 36 0 38 0;
#X connect 37 0 39 0;
#X connect 38 0 37 1;
#X connect 39 0 41 0;
#X connect 40 0 41 0;
#X connect 41 0 30 1;
#X connect 43 0 29 0;
#X connect 44 0 11 1;
#X connect 45 0 0 0;
