#N canvas 0 0 1693 850 10;
#X obj 622 794 bp~;
#X obj 622 819 clip~ -1 1;
#X obj 622 884 outlet~;
#X floatatom 91 413 5 0 0 0 - - -, f 5;
#X obj 91 460 *~;
#X obj 129 317 + 100;
#X obj 91 436 osc~;
#X msg 129 267 seed \$1;
#X obj 129 242 r ale8;
#X obj 91 317 + 100;
#X msg 74 267 seed \$1;
#X obj 91 341 pack;
#X obj 48 257 bng 15 250 50 0 empty empty empty 17 7 0 10 #fcfcfc #000000
#000000;
#X obj 48 316 t f b;
#X obj 48 291 random 19000;
#X obj 129 292 random 5000;
#X msg 91 365 \$1 \$2;
#X obj 91 389 line;
#X floatatom 203 314 5 0 0 0 - - -, f 5;
#X obj 203 361 *~;
#X obj 241 218 + 100;
#X obj 203 337 osc~;
#X msg 241 168 seed \$1;
#X obj 203 218 + 100;
#X msg 186 168 seed \$1;
#X obj 203 242 pack;
#X obj 160 158 bng 15 250 50 0 empty empty empty 17 7 0 10 #fcfcfc
#000000 #000000;
#X obj 160 217 t f b;
#X obj 160 192 random 19000;
#X obj 241 193 random 5000;
#X msg 203 266 \$1 \$2;
#X obj 203 290 line;
#X floatatom 295 413 5 0 0 0 - - -, f 5;
#X obj 295 460 *~;
#X obj 333 317 + 100;
#X obj 295 436 osc~;
#X msg 333 267 seed \$1;
#X obj 295 317 + 100;
#X msg 278 267 seed \$1;
#X obj 295 341 pack;
#X obj 252 257 bng 15 250 50 0 empty empty empty 17 7 0 10 #fcfcfc
#000000 #000000;
#X obj 252 316 t f b;
#X obj 252 291 random 19000;
#X obj 333 292 random 5000;
#X msg 295 365 \$1 \$2;
#X obj 295 389 line;
#X floatatom 407 317 5 0 0 0 - - -, f 5;
#X obj 407 364 *~;
#X obj 445 221 + 100;
#X obj 407 340 osc~;
#X msg 445 171 seed \$1;
#X obj 407 221 + 100;
#X msg 390 171 seed \$1;
#X obj 407 245 pack;
#X obj 364 161 bng 15 250 50 0 empty empty empty 17 7 0 10 #fcfcfc
#000000 #000000;
#X obj 364 220 t f b;
#X obj 364 195 random 19000;
#X obj 445 196 random 5000;
#X msg 407 269 \$1 \$2;
#X obj 407 293 line;
#X floatatom 492 415 5 0 0 0 - - -, f 5;
#X obj 492 462 *~;
#X obj 530 319 + 100;
#X obj 492 438 osc~;
#X msg 530 269 seed \$1;
#X obj 492 319 + 100;
#X msg 475 269 seed \$1;
#X obj 492 343 pack;
#X obj 449 259 bng 15 250 50 0 empty empty empty 17 7 0 10 #fcfcfc
#000000 #000000;
#X obj 449 318 t f b;
#X obj 449 293 random 19000;
#X obj 530 294 random 5000;
#X msg 492 367 \$1 \$2;
#X obj 492 391 line;
#X floatatom 605 318 5 0 0 0 - - -, f 5;
#X obj 605 365 *~;
#X obj 643 222 + 100;
#X obj 605 341 osc~;
#X msg 643 172 seed \$1;
#X obj 605 222 + 100;
#X msg 588 172 seed \$1;
#X obj 605 246 pack;
#X obj 562 162 bng 15 250 50 0 empty empty empty 17 7 0 10 #fcfcfc
#000000 #000000;
#X obj 562 221 t f b;
#X obj 562 196 random 19000;
#X obj 643 197 random 5000;
#X msg 605 270 \$1 \$2;
#X obj 605 294 line;
#X floatatom 690 416 5 0 0 0 - - -, f 5;
#X obj 690 463 *~;
#X obj 728 320 + 100;
#X obj 690 439 osc~;
#X msg 728 270 seed \$1;
#X obj 690 320 + 100;
#X msg 673 270 seed \$1;
#X obj 690 344 pack;
#X obj 647 260 bng 15 250 50 0 empty empty empty 17 7 0 10 #fcfcfc
#000000 #000000;
#X obj 647 319 t f b;
#X obj 647 294 random 19000;
#X obj 728 295 random 5000;
#X msg 690 368 \$1 \$2;
#X obj 690 392 line;
#X floatatom 802 319 5 0 0 0 - - -, f 5;
#X obj 802 366 *~;
#X obj 840 223 + 100;
#X obj 802 342 osc~;
#X msg 840 173 seed \$1;
#X obj 802 223 + 100;
#X msg 785 173 seed \$1;
#X obj 802 247 pack;
#X obj 759 163 bng 15 250 50 0 empty empty empty 17 7 0 10 #fcfcfc
#000000 #000000;
#X obj 759 222 t f b;
#X obj 759 197 random 19000;
#X obj 840 198 random 5000;
#X msg 802 271 \$1 \$2;
#X obj 802 295 line;
#X floatatom 885 417 5 0 0 0 - - -, f 5;
#X obj 885 464 *~;
#X obj 923 321 + 100;
#X obj 885 440 osc~;
#X msg 923 271 seed \$1;
#X obj 885 321 + 100;
#X msg 868 271 seed \$1;
#X obj 885 345 pack;
#X obj 842 261 bng 15 250 50 0 empty empty empty 17 7 0 10 #fcfcfc
#000000 #000000;
#X obj 842 320 t f b;
#X obj 842 295 random 19000;
#X obj 923 296 random 5000;
#X msg 885 369 \$1 \$2;
#X obj 885 393 line;
#X obj 1022 146 r ale1;
#X obj 919 440 maxlib/scale 1 100 20 100;
#X obj 923 246 r ale6;
#X obj 840 148 r ale11;
#X obj 728 245 r ale16;
#X obj 643 147 r ale2;
#X obj 530 244 r ale7;
#X obj 445 146 r ale12;
#X obj 241 143 r ale3;
#X obj 333 242 r ale17;
#X obj 74 242 r ale13;
#X obj 186 143 r ale18;
#X obj 278 242 r ale4;
#X obj 390 146 r ale9;
#X obj 475 244 r ale14;
#X obj 588 149 r ale19;
#X obj 673 245 r ale5;
#X obj 785 148 r ale10;
#X obj 868 246 r ale15;
#X msg 598 567 seed \$1;
#X obj 598 542 r ale8;
#X msg 543 567 seed \$1;
#X obj 560 641 pack;
#X obj 517 557 bng 15 250 50 0 empty empty empty 17 7 0 10 #fcfcfc
#000000 #000000;
#X obj 517 616 t f b;
#X msg 560 665 \$1 \$2;
#X obj 560 689 line;
#X obj 543 542 r ale13;
#X obj 554 617 + 5000;
#X obj 517 591 random 20000;
#X obj 598 617 + 200;
#X obj 598 592 random 6000;
#X msg 752 568 seed \$1;
#X obj 752 543 r ale8;
#X msg 697 568 seed \$1;
#X obj 714 642 pack;
#X obj 671 558 bng 15 250 50 0 empty empty empty 17 7 0 10 #fcfcfc
#000000 #000000;
#X obj 714 619 t f b;
#X msg 714 666 \$1 \$2;
#X obj 714 690 line;
#X obj 697 543 r ale13;
#X obj 752 618 + 200;
#X obj 752 593 random 6000;
#X obj 687 592 random 51;
#X msg 1240 126 seed \$1;
#X obj 1240 102 r inp-n;
#X obj 1230 150 random 11;
#X obj 760 50 sel 0 1 2 3 4 5 6 7 8 9 10 11 12;
#X msg 1427 193 seed \$1;
#X obj 1417 116 r inp-n;
#X obj 1417 141 + 2;
#X obj 1407 216 random 5000;
#X obj 1407 241 + 100;
#X obj 1158 140 metro;
#X obj 1417 167 t b f;
#X obj 1158 40 inlet;
#X obj 1158 105 tgl 15 0 empty empty empty 17 7 0 10 #fcfcfc #000000
#000000 1 1;
#X obj 1150 170 counter;
#X obj 1158 215 sel 4;
#X obj 1158 190 mod 5;
#X obj 622 854 *~;
#X obj 712 854 line;
#X obj 818 744 sel 0 1;
#X msg 818 769 0 100;
#X msg 837 793 1 30;
#X obj 1158 65 change;
#X obj 1156 419 spigot;
#X msg 1156 444 1;
#X obj 1156 469 s elli1;
#X obj 1206 419 spigot;
#X msg 1206 444 1;
#X obj 1256 419 spigot;
#X msg 1256 444 1;
#X obj 1306 419 spigot;
#X msg 1306 444 1;
#X obj 1356 419 spigot;
#X msg 1356 444 1;
#X obj 1406 419 spigot;
#X msg 1406 444 1;
#X obj 1456 419 spigot;
#X msg 1456 444 1;
#X obj 1506 419 spigot;
#X msg 1506 444 1;
#X obj 1556 419 spigot;
#X msg 1556 444 1;
#X text 1390 500 handles osc messages;
#X obj 1206 469 s elli2;
#X obj 1256 469 s elli3;
#X obj 1306 469 s elli4;
#X obj 1356 469 s elli5;
#X obj 1406 469 s elli6;
#X obj 1456 469 s elli7;
#X obj 1506 469 s elli8;
#X obj 1556 469 s elli9;
#X obj 1110 260 sel 0 1;
#X msg 1110 285 0;
#X obj 370 590 s elliColorChange;
#X obj 1079 87 s elliOnOff;
#X obj 100 610 r phaRes;
#X connect 0 0 1 0;
#X connect 1 0 190 0;
#X connect 3 0 6 0;
#X connect 4 0 0 0;
#X connect 5 0 11 1;
#X connect 6 0 4 0;
#X connect 7 0 15 0;
#X connect 8 0 7 0;
#X connect 9 0 11 0;
#X connect 10 0 14 0;
#X connect 11 0 16 0;
#X connect 12 0 14 0;
#X connect 13 0 9 0;
#X connect 13 1 15 0;
#X connect 14 0 13 0;
#X connect 15 0 5 0;
#X connect 16 0 17 0;
#X connect 17 0 3 0;
#X connect 18 0 21 0;
#X connect 19 0 4 1;
#X connect 20 0 25 1;
#X connect 21 0 19 0;
#X connect 22 0 29 0;
#X connect 23 0 25 0;
#X connect 24 0 28 0;
#X connect 25 0 30 0;
#X connect 26 0 28 0;
#X connect 27 0 23 0;
#X connect 27 1 29 0;
#X connect 28 0 27 0;
#X connect 29 0 20 0;
#X connect 30 0 31 0;
#X connect 31 0 18 0;
#X connect 32 0 35 0;
#X connect 33 0 19 1;
#X connect 34 0 39 1;
#X connect 35 0 33 0;
#X connect 36 0 43 0;
#X connect 37 0 39 0;
#X connect 38 0 42 0;
#X connect 39 0 44 0;
#X connect 40 0 42 0;
#X connect 41 0 37 0;
#X connect 41 1 43 0;
#X connect 42 0 41 0;
#X connect 43 0 34 0;
#X connect 44 0 45 0;
#X connect 45 0 32 0;
#X connect 46 0 49 0;
#X connect 47 0 33 1;
#X connect 48 0 53 1;
#X connect 49 0 47 0;
#X connect 50 0 57 0;
#X connect 51 0 53 0;
#X connect 52 0 56 0;
#X connect 53 0 58 0;
#X connect 54 0 56 0;
#X connect 55 0 51 0;
#X connect 55 1 57 0;
#X connect 56 0 55 0;
#X connect 57 0 48 0;
#X connect 58 0 59 0;
#X connect 59 0 46 0;
#X connect 60 0 63 0;
#X connect 61 0 47 1;
#X connect 62 0 67 1;
#X connect 63 0 61 0;
#X connect 64 0 71 0;
#X connect 65 0 67 0;
#X connect 66 0 70 0;
#X connect 67 0 72 0;
#X connect 68 0 70 0;
#X connect 69 0 65 0;
#X connect 69 1 71 0;
#X connect 70 0 69 0;
#X connect 71 0 62 0;
#X connect 72 0 73 0;
#X connect 73 0 60 0;
#X connect 74 0 77 0;
#X connect 75 0 61 1;
#X connect 76 0 81 1;
#X connect 77 0 75 0;
#X connect 78 0 85 0;
#X connect 79 0 81 0;
#X connect 80 0 84 0;
#X connect 81 0 86 0;
#X connect 82 0 84 0;
#X connect 83 0 79 0;
#X connect 83 1 85 0;
#X connect 84 0 83 0;
#X connect 85 0 76 0;
#X connect 86 0 87 0;
#X connect 87 0 74 0;
#X connect 88 0 91 0;
#X connect 89 0 75 1;
#X connect 90 0 95 1;
#X connect 91 0 89 0;
#X connect 92 0 99 0;
#X connect 93 0 95 0;
#X connect 94 0 98 0;
#X connect 95 0 100 0;
#X connect 96 0 98 0;
#X connect 97 0 93 0;
#X connect 97 1 99 0;
#X connect 98 0 97 0;
#X connect 99 0 90 0;
#X connect 100 0 101 0;
#X connect 101 0 88 0;
#X connect 102 0 105 0;
#X connect 103 0 89 1;
#X connect 104 0 109 1;
#X connect 105 0 103 0;
#X connect 106 0 113 0;
#X connect 107 0 109 0;
#X connect 108 0 112 0;
#X connect 109 0 114 0;
#X connect 110 0 112 0;
#X connect 111 0 107 0;
#X connect 111 1 113 0;
#X connect 112 0 111 0;
#X connect 113 0 104 0;
#X connect 114 0 115 0;
#X connect 115 0 102 0;
#X connect 116 0 119 0;
#X connect 117 0 103 1;
#X connect 118 0 123 1;
#X connect 119 0 117 0;
#X connect 120 0 127 0;
#X connect 121 0 123 0;
#X connect 122 0 126 0;
#X connect 123 0 128 0;
#X connect 124 0 126 0;
#X connect 125 0 121 0;
#X connect 125 1 127 0;
#X connect 126 0 125 0;
#X connect 127 0 118 0;
#X connect 128 0 129 0;
#X connect 129 0 116 0;
#X connect 130 0 131 0;
#X connect 131 0 117 1;
#X connect 132 0 120 0;
#X connect 133 0 106 0;
#X connect 134 0 92 0;
#X connect 135 0 78 0;
#X connect 136 0 64 0;
#X connect 137 0 50 0;
#X connect 138 0 22 0;
#X connect 139 0 36 0;
#X connect 140 0 10 0;
#X connect 141 0 24 0;
#X connect 142 0 38 0;
#X connect 143 0 52 0;
#X connect 144 0 66 0;
#X connect 145 0 80 0;
#X connect 146 0 94 0;
#X connect 147 0 108 0;
#X connect 148 0 122 0;
#X connect 149 0 161 0;
#X connect 150 0 149 0;
#X connect 151 0 159 0;
#X connect 152 0 155 0;
#X connect 153 0 159 0;
#X connect 153 0 226 0;
#X connect 154 0 158 0;
#X connect 154 1 161 0;
#X connect 155 0 156 0;
#X connect 156 0 0 1;
#X connect 157 0 151 0;
#X connect 158 0 152 0;
#X connect 159 0 154 0;
#X connect 160 0 152 1;
#X connect 161 0 160 0;
#X connect 162 0 172 0;
#X connect 163 0 162 0;
#X connect 164 0 173 0;
#X connect 165 0 168 0;
#X connect 166 0 173 0;
#X connect 166 0 226 0;
#X connect 167 0 165 0;
#X connect 167 1 172 0;
#X connect 168 0 169 0;
#X connect 169 0 0 2;
#X connect 170 0 164 0;
#X connect 171 0 165 1;
#X connect 172 0 171 0;
#X connect 173 0 167 0;
#X connect 174 0 176 0;
#X connect 175 0 174 0;
#X connect 176 0 177 0;
#X connect 177 0 12 0;
#X connect 177 0 196 0;
#X connect 177 1 26 0;
#X connect 177 1 199 0;
#X connect 177 2 40 0;
#X connect 177 2 201 0;
#X connect 177 3 54 0;
#X connect 177 3 203 0;
#X connect 177 4 68 0;
#X connect 177 4 205 0;
#X connect 177 5 82 0;
#X connect 177 5 207 0;
#X connect 177 6 96 0;
#X connect 177 6 209 0;
#X connect 177 7 110 0;
#X connect 177 7 211 0;
#X connect 177 8 124 0;
#X connect 177 8 213 0;
#X connect 177 9 153 0;
#X connect 177 10 166 0;
#X connect 178 0 181 0;
#X connect 179 0 180 0;
#X connect 180 0 184 0;
#X connect 181 0 182 0;
#X connect 182 0 183 1;
#X connect 183 0 176 0;
#X connect 183 0 187 0;
#X connect 184 0 181 0;
#X connect 184 1 178 0;
#X connect 185 0 195 0;
#X connect 186 0 183 0;
#X connect 186 0 192 0;
#X connect 186 0 224 0;
#X connect 186 0 196 1;
#X connect 186 0 213 1;
#X connect 186 0 211 1;
#X connect 186 0 209 1;
#X connect 186 0 207 1;
#X connect 186 0 205 1;
#X connect 186 0 203 1;
#X connect 186 0 201 1;
#X connect 186 0 199 1;
#X connect 186 0 227 0;
#X connect 187 0 189 0;
#X connect 188 0 181 0;
#X connect 189 0 188 0;
#X connect 190 0 2 0;
#X connect 191 0 190 1;
#X connect 192 0 193 0;
#X connect 192 1 194 0;
#X connect 193 0 191 0;
#X connect 194 0 191 0;
#X connect 195 0 186 0;
#X connect 196 0 197 0;
#X connect 197 0 198 0;
#X connect 199 0 200 0;
#X connect 200 0 216 0;
#X connect 201 0 202 0;
#X connect 202 0 217 0;
#X connect 203 0 204 0;
#X connect 204 0 218 0;
#X connect 205 0 206 0;
#X connect 206 0 219 0;
#X connect 207 0 208 0;
#X connect 208 0 220 0;
#X connect 209 0 210 0;
#X connect 210 0 221 0;
#X connect 211 0 212 0;
#X connect 212 0 222 0;
#X connect 213 0 214 0;
#X connect 214 0 223 0;
#X connect 224 0 225 0;
#X connect 224 1 166 0;
#X connect 224 1 153 0;
#X connect 225 0 198 0;
#X connect 225 0 223 0;
#X connect 225 0 222 0;
#X connect 225 0 221 0;
#X connect 225 0 220 0;
#X connect 225 0 219 0;
#X connect 225 0 218 0;
#X connect 225 0 217 0;
#X connect 225 0 216 0;
#X connect 228 0 6 1;
#X connect 228 0 119 1;
#X connect 228 0 105 1;
#X connect 228 0 91 1;
#X connect 228 0 77 1;
#X connect 228 0 63 1;
#X connect 228 0 49 1;
#X connect 228 0 35 1;
#X connect 228 0 21 1;
