#N canvas 0 0 1220 759 10;
#X msg 46 282 0;
#X msg 86 282 1;
#X msg 126 282 4;
#X msg 166 282 5;
#X msg 206 282 8;
#X msg 246 282 9;
#X msg 294 282 12;
#X obj 46 243 sel 0 1 2 3 4 5 6;
#X obj 46 43 inlet;
#X obj 46 317 + 60;
#X obj 46 342 + 0;
#X obj 136 199 hradio 15 0 0 5 empty empty empty 0 -8 0 10 #fcfcfc
#000000 #000000 0;
#X obj 145 150 loadbang;
#X obj 95 317 sel 0 1 2 3 4;
#X msg 95 342 -24;
#X msg 110 364 -12;
#X msg 125 343 0;
#X msg 155 342 24;
#X msg 140 364 12;
#X obj 46 405 + 0;
#X obj 219 199 hradio 15 0 0 4 empty empty empty 0 -8 0 10 #fcfcfc
#000000 #000000 3;
#X obj 228 150 loadbang;
#X obj 44 690 outlet;
#X msg 145 175 0;
#X msg 228 175 0;
#X obj 146 45 inlet;
#X obj 228 46 inlet;
#X text 24 16 rand number (0-6);
#X text 141 14 octave (0-4);
#X text 224 16 transposition (0-3);
#X connect 0 0 9 0;
#X connect 1 0 9 0;
#X connect 2 0 9 0;
#X connect 3 0 9 0;
#X connect 4 0 9 0;
#X connect 5 0 9 0;
#X connect 6 0 9 0;
#X connect 7 0 0 0;
#X connect 7 1 1 0;
#X connect 7 2 2 0;
#X connect 7 3 3 0;
#X connect 7 4 4 0;
#X connect 7 5 5 0;
#X connect 7 6 6 0;
#X connect 8 0 7 0;
#X connect 9 0 10 0;
#X connect 10 0 19 0;
#X connect 11 0 13 0;
#X connect 12 0 23 0;
#X connect 13 0 14 0;
#X connect 13 1 15 0;
#X connect 13 2 16 0;
#X connect 13 3 18 0;
#X connect 13 4 17 0;
#X connect 14 0 10 1;
#X connect 15 0 10 1;
#X connect 16 0 10 1;
#X connect 17 0 10 1;
#X connect 18 0 10 1;
#X connect 19 0 22 0;
#X connect 20 0 19 1;
#X connect 21 0 24 0;
#X connect 23 0 11 0;
#X connect 24 0 20 0;
#X connect 25 0 11 0;
#X connect 26 0 20 0;
