#N canvas 236 44 1220 762 10;
#X msg 46 282 0;
#X obj 46 43 inlet;
#X obj 46 437 + 60;
#X obj 46 462 + 0;
#X obj 136 199 hradio 15 0 0 5 empty empty empty 0 -8 0 10 #fcfcfc
#000000 #000000 0;
#X obj 145 150 loadbang;
#X msg 95 462 -24;
#X msg 110 484 -12;
#X msg 125 463 0;
#X msg 140 484 12;
#X obj 46 525 + 0;
#X obj 219 199 hradio 15 0 0 4 empty empty empty 0 -8 0 10 #fcfcfc
#000000 #000000 0;
#X obj 228 150 loadbang;
#X obj 44 690 outlet;
#X msg 145 175 0;
#X msg 228 175 0;
#X obj 146 45 inlet;
#X obj 228 46 inlet;
#X text 224 16 transposition (0-3);
#X msg 86 282 2;
#X msg 126 282 3;
#X msg 166 282 4;
#X msg 206 282 6;
#X msg 57 328 7;
#X msg 91 328 8;
#X msg 136 329 10;
#X msg 176 329 11;
#X msg 216 329 12;
#X obj 46 243 sel 0 1 2 3 4 5 6 7 8 9;
#X msg 156 462 24;
#X obj 95 437 sel 0 1 2 3 4;
#X text 140 13 octave (0-4);
#X text 24 16 rand number (0-9);
#X connect 0 0 2 0;
#X connect 1 0 28 0;
#X connect 2 0 3 0;
#X connect 3 0 10 0;
#X connect 4 0 30 0;
#X connect 5 0 14 0;
#X connect 6 0 3 1;
#X connect 7 0 3 1;
#X connect 8 0 3 1;
#X connect 9 0 3 1;
#X connect 10 0 13 0;
#X connect 11 0 10 1;
#X connect 12 0 15 0;
#X connect 14 0 4 0;
#X connect 15 0 11 0;
#X connect 16 0 4 0;
#X connect 17 0 11 0;
#X connect 19 0 2 0;
#X connect 20 0 2 0;
#X connect 21 0 2 0;
#X connect 22 0 2 0;
#X connect 23 0 2 0;
#X connect 24 0 2 0;
#X connect 25 0 2 0;
#X connect 26 0 2 0;
#X connect 27 0 2 0;
#X connect 28 0 0 0;
#X connect 28 1 19 0;
#X connect 28 2 20 0;
#X connect 28 3 21 0;
#X connect 28 4 22 0;
#X connect 28 5 23 0;
#X connect 28 6 24 0;
#X connect 28 7 25 0;
#X connect 28 8 26 0;
#X connect 28 9 27 0;
#X connect 29 0 3 1;
#X connect 30 0 6 0;
#X connect 30 1 7 0;
#X connect 30 2 8 0;
#X connect 30 3 9 0;
#X connect 30 4 29 0;
