#N canvas 236 45 1220 760 10;
#X msg 46 282 0;
#X msg 86 282 1;
#X msg 126 282 4;
#X msg 166 282 5;
#X msg 206 282 8;
#X msg 246 282 9;
#X msg 58 334 12;
#X obj 46 43 inlet;
#X obj 46 437 + 60;
#X obj 46 462 + 0;
#X obj 136 199 hradio 15 0 0 4 empty empty empty 0 -8 0 10 #fcfcfc
#000000 #000000 0;
#X obj 145 150 loadbang;
#X msg 95 462 -24;
#X msg 110 484 -12;
#X msg 125 463 0;
#X msg 140 484 12;
#X obj 46 525 + 0;
#X obj 219 199 hradio 15 0 0 4 empty empty empty 0 -8 0 10 #fcfcfc
#000000 #000000 0;
#X obj 228 150 loadbang;
#X obj 44 690 outlet;
#X msg 145 175 0;
#X msg 228 175 0;
#X obj 146 45 inlet;
#X obj 228 46 inlet;
#X text 224 16 transposition (0-3);
#X msg 143 335 16;
#X msg 223 335 20;
#X msg 311 335 24;
#X obj 46 243 sel 0 1 2 3 4 5 6 7 8 9 10 11 12;
#X obj 95 437 sel 0 1 2 3;
#X text 141 14 octave (0-3);
#X msg 103 335 15;
#X msg 183 335 19;
#X msg 263 335 23;
#X text 24 16 rand number (0-12);
#X connect 0 0 8 0;
#X connect 1 0 8 0;
#X connect 2 0 8 0;
#X connect 3 0 8 0;
#X connect 4 0 8 0;
#X connect 5 0 8 0;
#X connect 6 0 8 0;
#X connect 7 0 28 0;
#X connect 8 0 9 0;
#X connect 9 0 16 0;
#X connect 10 0 29 0;
#X connect 11 0 20 0;
#X connect 12 0 9 1;
#X connect 13 0 9 1;
#X connect 14 0 9 1;
#X connect 15 0 9 1;
#X connect 16 0 19 0;
#X connect 17 0 16 1;
#X connect 18 0 21 0;
#X connect 20 0 10 0;
#X connect 21 0 17 0;
#X connect 22 0 10 0;
#X connect 23 0 17 0;
#X connect 25 0 8 0;
#X connect 26 0 8 0;
#X connect 27 0 8 0;
#X connect 28 0 0 0;
#X connect 28 1 1 0;
#X connect 28 2 2 0;
#X connect 28 3 3 0;
#X connect 28 4 4 0;
#X connect 28 5 5 0;
#X connect 28 6 6 0;
#X connect 28 7 31 0;
#X connect 28 8 25 0;
#X connect 28 9 32 0;
#X connect 28 10 26 0;
#X connect 28 11 33 0;
#X connect 28 12 27 0;
#X connect 29 0 12 0;
#X connect 29 1 13 0;
#X connect 29 2 14 0;
#X connect 29 3 15 0;
#X connect 31 0 8 0;
#X connect 32 0 8 0;
#X connect 33 0 8 0;
