#N canvas 0 0 1708 866 10;
#N canvas 0 0 1691 848 samphs 1;
#X obj 142 637 samph1;
#X obj 83 480 notifier-trunc;
#X obj 177 479 notifier-trunc2;
#X obj 281 478 notifier-mess;
#X text 149 128 choose which scale (3);
#X obj 186 551 r ale1;
#X obj 186 576 mod 4;
#X obj 231 576 mod 5;
#X obj 231 551 r ale2;
#X obj 140 577 r ale3;
#X obj 140 602 maxlib/scale 0 100 1 50;
#X obj 289 430 r ale4;
#X obj 334 430 r ale5;
#X obj 289 455 mod 5;
#X obj 334 455 mod 4;
#X obj 190 430 r ale4;
#X obj 235 430 r ale5;
#X obj 235 455 mod 4;
#X obj 90 430 r ale4;
#X obj 135 430 r ale5;
#X obj 90 455 mod 5;
#X obj 135 455 mod 4;
#X obj 190 455 mod 4;
#X obj 80 152 gate 3;
#X obj 80 102 r ale6;
#X obj 80 125 mod 3;
#X obj 118 126 + 1;
#X obj 118 278 + 1;
#X obj 80 277 mod 2;
#X obj 80 304 gate 2;
#X obj 80 190 r ale7;
#X obj 80 379 random 7;
#X obj 214 278 + 1;
#X obj 176 277 mod 2;
#X obj 176 304 gate 2;
#X obj 320 278 + 1;
#X obj 282 277 mod 2;
#X obj 282 304 gate 2;
#X obj 176 379 random 13;
#X obj 282 379 random 10;
#X text 346 325 random/drunk;
#X text 347 310 choose;
#X msg 110 240 seed \$1;
#X obj 513 490 notifier-trunc;
#X obj 607 489 notifier-trunc2;
#X obj 711 488 notifier-mess;
#X text 579 138 choose which scale (3);
#X obj 616 586 mod 4;
#X obj 661 586 mod 5;
#X obj 570 612 maxlib/scale 0 100 1 50;
#X obj 719 465 mod 5;
#X obj 764 465 mod 4;
#X obj 665 465 mod 4;
#X obj 520 465 mod 5;
#X obj 565 465 mod 4;
#X obj 620 465 mod 4;
#X obj 510 162 gate 3;
#X obj 510 135 mod 3;
#X obj 548 136 + 1;
#X obj 548 288 + 1;
#X obj 510 287 mod 2;
#X obj 510 314 gate 2;
#X obj 510 389 random 7;
#X obj 644 288 + 1;
#X obj 606 287 mod 2;
#X obj 606 314 gate 2;
#X obj 750 288 + 1;
#X obj 712 287 mod 2;
#X obj 712 314 gate 2;
#X obj 606 389 random 13;
#X obj 712 389 random 10;
#X text 775 297 random/drunk;
#X text 776 280 choose;
#X msg 560 250 seed \$1;
#X obj 510 112 r ale7;
#X obj 510 194 r ale6;
#X obj 520 440 r ale5;
#X obj 565 440 r ale4;
#X obj 620 440 r ale5;
#X obj 665 440 r ale4;
#X obj 719 440 r ale5;
#X obj 764 440 r ale4;
#X obj 661 561 r ale3;
#X obj 616 561 r ale2;
#X obj 570 587 r ale1;
#X obj 572 647 samph2;
#X obj 883 490 notifier-trunc;
#X obj 977 489 notifier-trunc2;
#X obj 1081 488 notifier-mess;
#X text 949 138 choose which scale (3);
#X obj 986 586 mod 4;
#X obj 1031 586 mod 5;
#X obj 940 612 maxlib/scale 0 100 1 50;
#X obj 1089 465 mod 5;
#X obj 1134 465 mod 4;
#X obj 1035 465 mod 4;
#X obj 890 465 mod 5;
#X obj 935 465 mod 4;
#X obj 990 465 mod 4;
#X obj 880 162 gate 3;
#X obj 880 135 mod 3;
#X obj 918 136 + 1;
#X obj 918 288 + 1;
#X obj 880 287 mod 2;
#X obj 880 314 gate 2;
#X obj 880 389 random 7;
#X obj 1014 288 + 1;
#X obj 976 287 mod 2;
#X obj 976 314 gate 2;
#X obj 1120 288 + 1;
#X obj 1082 287 mod 2;
#X obj 1082 314 gate 2;
#X obj 976 389 random 13;
#X obj 1082 389 random 10;
#X text 1146 335 random/drunk;
#X text 1147 320 choose;
#X msg 910 250 seed \$1;
#X obj 1313 500 notifier-trunc;
#X obj 1407 499 notifier-trunc2;
#X obj 1511 498 notifier-mess;
#X text 1379 148 choose which scale (3);
#X obj 1416 596 mod 4;
#X obj 1461 596 mod 5;
#X obj 1370 622 maxlib/scale 0 100 1 50;
#X obj 1519 475 mod 5;
#X obj 1564 475 mod 4;
#X obj 1465 475 mod 4;
#X obj 1320 475 mod 5;
#X obj 1365 475 mod 4;
#X obj 1420 475 mod 4;
#X obj 1310 172 gate 3;
#X obj 1310 145 mod 3;
#X obj 1348 146 + 1;
#X obj 1348 298 + 1;
#X obj 1310 297 mod 2;
#X obj 1310 324 gate 2;
#X obj 1310 399 random 7;
#X obj 1444 298 + 1;
#X obj 1406 297 mod 2;
#X obj 1406 324 gate 2;
#X obj 1550 298 + 1;
#X obj 1512 297 mod 2;
#X obj 1512 324 gate 2;
#X obj 1406 399 random 13;
#X obj 1512 399 random 10;
#X text 1576 345 random/drunk;
#X text 1577 330 choose;
#X msg 1340 260 seed \$1;
#X obj 880 112 r ale8;
#X obj 880 194 r ale9;
#X obj 890 440 r ale10;
#X obj 935 440 r ale11;
#X obj 990 440 r ale10;
#X obj 1035 440 r ale11;
#X obj 1089 440 r ale10;
#X obj 1134 440 r ale11;
#X obj 940 587 r ale12;
#X obj 986 561 r ale13;
#X obj 1031 561 r ale14;
#X obj 1370 597 r ale8;
#X obj 1416 571 r ale9;
#X obj 1320 450 r ale11;
#X obj 1365 450 r ale12;
#X obj 1420 450 r ale11;
#X obj 1465 450 r ale412;
#X obj 1519 450 r ale11;
#X obj 1564 450 r ale12;
#X obj 1310 204 r ale13;
#X obj 1310 122 r ale14;
#X obj 159 751 outlet~;
#X obj 591 747 outlet~;
#X obj 967 731 outlet~;
#X obj 1393 735 outlet~;
#X obj 121 14 inlet;
#X obj 515 15 inlet;
#X obj 885 15 inlet;
#X obj 1315 15 inlet;
#X obj 1396 692 *~ 1;
#X obj 966 682 *~ 1;
#X obj 596 682 *~ 1;
#X obj 166 672 *~ 1;
#X obj 1461 571 r ale10;
#X obj 942 647 samph3;
#X obj 1372 657 samph4;
#X text 216 771 bng passtru;
#X text 650 770 bng passtru;
#X text 1030 754 bng passtru;
#X text 1451 759 bng passtru;
#X obj 215 751 outlet;
#X obj 649 750 outlet;
#X obj 1029 734 outlet;
#X obj 1450 739 outlet;
#X obj 295 525 sel 0 1;
#X obj 310 554 r sect-del;
#X obj 295 609 f;
#X obj 310 579 pipe 1000;
#X msg 295 634 0 \$1;
#X msg 315 658 1 30;
#X obj 295 689 line;
#X obj 725 525 sel 0 1;
#X obj 740 554 r sect-del;
#X obj 725 609 f;
#X obj 740 579 pipe 1000;
#X msg 725 634 0 \$1;
#X msg 745 658 1 30;
#X obj 725 689 line;
#X obj 1095 536 sel 0 1;
#X obj 1110 565 r sect-del;
#X obj 1095 620 f;
#X obj 1110 590 pipe 1000;
#X msg 1095 645 0 \$1;
#X msg 1115 669 1 30;
#X obj 1095 700 line;
#X obj 1525 536 sel 0 1;
#X obj 1540 565 r sect-del;
#X obj 1525 620 f;
#X obj 1540 590 pipe 1000;
#X msg 1525 645 0 \$1;
#X msg 1545 669 1 30;
#X obj 1525 700 line;
#X obj 71 14 inlet;
#X obj 465 15 inlet;
#X obj 835 15 inlet;
#X obj 1265 15 inlet;
#X obj 66 54 change;
#X obj 450 56 change;
#X obj 820 60 change;
#X obj 1270 60 change;
#X obj 240 90 s offSamph1;
#X obj 1350 60 s offSamph4;
#X obj 930 80 s offSamph3;
#X obj 600 80 s offSamph2;
#X obj 113 400 myDrunk;
#X msg 360 115 7;
#X msg 370 145 13;
#X msg 380 175 10;
#X obj 209 400 myDrunk;
#X obj 315 400 myDrunk;
#X obj 543 410 myDrunk;
#X obj 639 410 myDrunk;
#X obj 745 410 myDrunk;
#X obj 913 410 myDrunk;
#X obj 1009 410 myDrunk;
#X obj 1115 410 myDrunk;
#X obj 1343 420 myDrunk;
#X obj 1439 420 myDrunk;
#X obj 1545 420 myDrunk;
#X obj 360 90 del 500;
#X obj 360 60 loadbang;
#X obj 80 215 t f f;
#X obj 510 219 t f f;
#X obj 880 219 t f f;
#X obj 1310 229 t f f;
#X connect 0 0 180 0;
#X connect 1 0 0 0;
#X connect 2 0 0 0;
#X connect 3 0 0 0;
#X connect 5 0 6 0;
#X connect 6 0 0 1;
#X connect 7 0 0 3;
#X connect 8 0 7 0;
#X connect 9 0 10 0;
#X connect 10 0 0 2;
#X connect 11 0 13 0;
#X connect 12 0 14 0;
#X connect 13 0 3 1;
#X connect 14 0 3 2;
#X connect 15 0 22 0;
#X connect 16 0 17 0;
#X connect 17 0 2 2;
#X connect 18 0 20 0;
#X connect 19 0 21 0;
#X connect 20 0 1 1;
#X connect 21 0 1 2;
#X connect 22 0 2 1;
#X connect 23 0 29 1;
#X connect 23 1 34 1;
#X connect 23 2 37 1;
#X connect 24 0 25 0;
#X connect 25 0 26 0;
#X connect 26 0 23 0;
#X connect 27 0 29 0;
#X connect 28 0 27 0;
#X connect 29 0 31 0;
#X connect 29 1 232 0;
#X connect 30 0 249 0;
#X connect 31 0 1 0;
#X connect 32 0 34 0;
#X connect 33 0 32 0;
#X connect 34 0 38 0;
#X connect 34 1 236 0;
#X connect 35 0 37 0;
#X connect 36 0 35 0;
#X connect 37 0 39 0;
#X connect 37 1 237 0;
#X connect 38 0 2 0;
#X connect 39 0 3 0;
#X connect 42 0 38 0;
#X connect 42 0 39 0;
#X connect 42 0 31 0;
#X connect 42 0 232 0;
#X connect 42 0 236 0;
#X connect 42 0 237 0;
#X connect 43 0 85 0;
#X connect 44 0 85 0;
#X connect 45 0 85 0;
#X connect 47 0 85 1;
#X connect 48 0 85 3;
#X connect 49 0 85 2;
#X connect 50 0 45 1;
#X connect 51 0 45 2;
#X connect 52 0 44 2;
#X connect 53 0 43 1;
#X connect 54 0 43 2;
#X connect 55 0 44 1;
#X connect 56 0 61 1;
#X connect 56 1 65 1;
#X connect 56 2 68 1;
#X connect 57 0 58 0;
#X connect 58 0 56 0;
#X connect 59 0 61 0;
#X connect 60 0 59 0;
#X connect 61 0 62 0;
#X connect 61 1 238 0;
#X connect 62 0 43 0;
#X connect 63 0 65 0;
#X connect 64 0 63 0;
#X connect 65 0 69 0;
#X connect 65 1 239 0;
#X connect 66 0 68 0;
#X connect 67 0 66 0;
#X connect 68 0 70 0;
#X connect 68 1 240 0;
#X connect 69 0 44 0;
#X connect 70 0 45 0;
#X connect 73 0 69 0;
#X connect 73 0 70 0;
#X connect 73 0 62 0;
#X connect 73 0 238 0;
#X connect 73 0 239 0;
#X connect 73 0 240 0;
#X connect 74 0 57 0;
#X connect 75 0 250 0;
#X connect 76 0 53 0;
#X connect 77 0 54 0;
#X connect 78 0 55 0;
#X connect 79 0 52 0;
#X connect 80 0 50 0;
#X connect 81 0 51 0;
#X connect 82 0 48 0;
#X connect 83 0 47 0;
#X connect 84 0 49 0;
#X connect 85 0 179 0;
#X connect 86 0 182 0;
#X connect 87 0 182 0;
#X connect 88 0 182 0;
#X connect 90 0 182 1;
#X connect 91 0 182 3;
#X connect 92 0 182 2;
#X connect 93 0 88 1;
#X connect 94 0 88 2;
#X connect 95 0 87 2;
#X connect 96 0 86 1;
#X connect 97 0 86 2;
#X connect 98 0 87 1;
#X connect 99 0 104 1;
#X connect 99 1 108 1;
#X connect 99 2 111 1;
#X connect 100 0 101 0;
#X connect 101 0 99 0;
#X connect 102 0 104 0;
#X connect 103 0 102 0;
#X connect 104 0 105 0;
#X connect 104 1 241 0;
#X connect 105 0 86 0;
#X connect 106 0 108 0;
#X connect 107 0 106 0;
#X connect 108 0 112 0;
#X connect 108 1 242 0;
#X connect 109 0 111 0;
#X connect 110 0 109 0;
#X connect 111 0 113 0;
#X connect 111 1 243 0;
#X connect 112 0 87 0;
#X connect 113 0 88 0;
#X connect 116 0 112 0;
#X connect 116 0 113 0;
#X connect 116 0 105 0;
#X connect 116 0 241 0;
#X connect 116 0 242 0;
#X connect 116 0 243 0;
#X connect 117 0 183 0;
#X connect 118 0 183 0;
#X connect 119 0 183 0;
#X connect 121 0 183 1;
#X connect 122 0 183 3;
#X connect 123 0 183 2;
#X connect 124 0 119 1;
#X connect 125 0 119 2;
#X connect 126 0 118 2;
#X connect 127 0 117 1;
#X connect 128 0 117 2;
#X connect 129 0 118 1;
#X connect 130 0 135 1;
#X connect 130 1 139 1;
#X connect 130 2 142 1;
#X connect 131 0 132 0;
#X connect 132 0 130 0;
#X connect 133 0 135 0;
#X connect 134 0 133 0;
#X connect 135 0 136 0;
#X connect 135 1 244 0;
#X connect 136 0 117 0;
#X connect 137 0 139 0;
#X connect 138 0 137 0;
#X connect 139 0 143 0;
#X connect 139 1 245 0;
#X connect 140 0 142 0;
#X connect 141 0 140 0;
#X connect 142 0 144 0;
#X connect 142 1 246 0;
#X connect 143 0 118 0;
#X connect 144 0 119 0;
#X connect 147 0 143 0;
#X connect 147 0 144 0;
#X connect 147 0 136 0;
#X connect 147 0 244 0;
#X connect 147 0 245 0;
#X connect 147 0 246 0;
#X connect 148 0 100 0;
#X connect 149 0 251 0;
#X connect 150 0 96 0;
#X connect 151 0 97 0;
#X connect 152 0 98 0;
#X connect 153 0 95 0;
#X connect 154 0 93 0;
#X connect 155 0 94 0;
#X connect 156 0 92 0;
#X connect 157 0 90 0;
#X connect 158 0 91 0;
#X connect 159 0 123 0;
#X connect 160 0 121 0;
#X connect 161 0 127 0;
#X connect 162 0 128 0;
#X connect 163 0 129 0;
#X connect 164 0 126 0;
#X connect 165 0 124 0;
#X connect 166 0 125 0;
#X connect 167 0 252 0;
#X connect 168 0 131 0;
#X connect 173 0 23 1;
#X connect 173 0 188 0;
#X connect 174 0 56 1;
#X connect 174 0 189 0;
#X connect 175 0 99 1;
#X connect 175 0 190 0;
#X connect 176 0 130 1;
#X connect 176 0 191 0;
#X connect 177 0 172 0;
#X connect 178 0 171 0;
#X connect 179 0 170 0;
#X connect 180 0 169 0;
#X connect 181 0 122 0;
#X connect 182 0 178 0;
#X connect 183 0 177 0;
#X connect 192 0 194 0;
#X connect 192 1 197 0;
#X connect 193 0 195 0;
#X connect 194 0 196 0;
#X connect 195 0 194 1;
#X connect 196 0 198 0;
#X connect 197 0 198 0;
#X connect 198 0 180 1;
#X connect 199 0 201 0;
#X connect 199 1 204 0;
#X connect 200 0 202 0;
#X connect 201 0 203 0;
#X connect 202 0 201 1;
#X connect 203 0 205 0;
#X connect 204 0 205 0;
#X connect 205 0 179 1;
#X connect 206 0 208 0;
#X connect 206 1 211 0;
#X connect 207 0 209 0;
#X connect 208 0 210 0;
#X connect 209 0 208 1;
#X connect 210 0 212 0;
#X connect 211 0 212 0;
#X connect 212 0 178 1;
#X connect 213 0 215 0;
#X connect 213 1 218 0;
#X connect 214 0 216 0;
#X connect 215 0 217 0;
#X connect 216 0 215 1;
#X connect 217 0 219 0;
#X connect 218 0 219 0;
#X connect 219 0 177 1;
#X connect 220 0 224 0;
#X connect 220 0 228 0;
#X connect 221 0 225 0;
#X connect 221 0 231 0;
#X connect 222 0 226 0;
#X connect 222 0 230 0;
#X connect 223 0 227 0;
#X connect 223 0 229 0;
#X connect 224 0 192 0;
#X connect 225 0 199 0;
#X connect 226 0 206 0;
#X connect 227 0 213 0;
#X connect 232 0 1 0;
#X connect 233 0 232 1;
#X connect 233 0 238 1;
#X connect 233 0 244 1;
#X connect 233 0 241 1;
#X connect 234 0 236 1;
#X connect 234 0 239 1;
#X connect 234 0 245 1;
#X connect 234 0 242 1;
#X connect 235 0 243 1;
#X connect 235 0 246 1;
#X connect 235 0 240 1;
#X connect 235 0 237 1;
#X connect 236 0 2 0;
#X connect 237 0 3 0;
#X connect 238 0 43 0;
#X connect 239 0 44 0;
#X connect 240 0 45 0;
#X connect 241 0 86 0;
#X connect 242 0 87 0;
#X connect 243 0 88 0;
#X connect 244 0 117 0;
#X connect 245 0 118 0;
#X connect 246 0 119 0;
#X connect 247 0 233 0;
#X connect 247 0 235 0;
#X connect 247 0 234 0;
#X connect 248 0 247 0;
#X connect 249 0 28 0;
#X connect 249 0 36 0;
#X connect 249 0 33 0;
#X connect 249 1 42 0;
#X connect 250 0 60 0;
#X connect 250 0 67 0;
#X connect 250 0 64 0;
#X connect 250 1 73 0;
#X connect 251 0 103 0;
#X connect 251 0 110 0;
#X connect 251 0 107 0;
#X connect 251 1 116 0;
#X connect 252 0 134 0;
#X connect 252 0 141 0;
#X connect 252 0 138 0;
#X connect 252 1 147 0;
#X restore 441 753 pd samphs;
#X obj 455 1035 outlet~;
#X obj 505 1035 outlet~;
#X obj 555 1035 outlet~;
#X obj 605 1035 outlet~;
#X obj 658 1036 outlet~;
#X obj 708 1036 outlet~;
#X obj 642 751 diceTone;
#X obj 722 751 diceTone2;
#X obj 758 1036 outlet~;
#X obj 808 1046 outlet~;
#X obj 788 797 grains1;
#X obj 838 797 grains2;
#X obj 860 1037 outlet~;
#X obj 910 1047 outlet~;
#X text 472 1056 1;
#X text 519 1056 2;
#X text 570 1055 3;
#X text 620 1056 4;
#X text 673 1057 5;
#X text 717 1058 6;
#X text 768 1057 7L;
#X text 825 1064 7R;
#X text 875 1056 8L;
#X text 924 1063 8R;
#X obj 914 801 noise-machine;
#X obj 961 1036 outlet~;
#X obj 1011 1036 outlet~;
#X text 978 1057 9;
#X text 1025 1057 10;
#X obj 1006 802 noise-pops;
#X obj 1085 752 simph;
#X obj 1144 752 simph2;
#X obj 1061 1036 outlet~;
#X obj 1111 1036 outlet~;
#X text 1078 1057 11;
#X text 1125 1057 12;
#X obj 1161 1036 outlet~;
#X obj 1174 812 simph-del;
#X obj 820 524 route 1 2 3 4 5 6 7 8 9 10 11 12 13;
#X obj 1471 846 outlet~;
#X obj 1521 856 outlet~;
#X text 1175 1057 13;
#X text 1485 867 14L;
#X text 1535 876 14R;
#X obj 1571 846 outlet~;
#X obj 1621 856 outlet~;
#X obj 1574 812 grains-tx2;
#X text 1585 867 15L;
#X text 1635 875 15R;
#X obj 1506 812 grains-tx1;
#X obj 1671 846 outlet~;
#X obj 1721 846 outlet~;
#X text 1685 866 16;
#X text 1735 867 17;
#X obj 1671 813 nm-tx1;
#X obj 1721 813 nm-tx2;
#X obj 1771 846 outlet~;
#X text 1785 867 18;
#X obj 1771 814 noise-osc;
#X obj 1585 727 tgl 15 0 empty empty empty 17 7 0 10 #fcfcfc #000000
#000000 0 1;
#X obj 1605 727 tgl 15 0 empty empty empty 17 7 0 10 #fcfcfc #000000
#000000 0 1;
#X obj 1625 727 tgl 15 0 empty empty empty 17 7 0 10 #fcfcfc #000000
#000000 0 1;
#X obj 1645 727 tgl 15 0 empty empty empty 17 7 0 10 #fcfcfc #000000
#000000 0 1;
#X obj 1665 727 tgl 15 0 empty empty empty 17 7 0 10 #fcfcfc #000000
#000000 0 1;
#X obj 373 807 *~ 0;
#X obj 443 807 *~ 0;
#X obj 513 807 *~ 0;
#X obj 583 807 *~ 0;
#X obj 649 801 *~ 0;
#X obj 699 801 *~ 0;
#X obj 1084 802 *~ 0;
#X obj 1134 802 *~ 0;
#X obj 1607 23 inlet;
#X obj 1698 23 inlet;
#X obj 1788 24 inlet;
#X obj 1880 24 inlet;
#X obj 1959 23 inlet;
#X obj 441 723 tgl 15 0 empty empty empty 17 7 0 10 #fcfcfc #000000
#000000 0 1;
#X obj 469 723 tgl 15 0 empty empty empty 17 7 0 10 #fcfcfc #000000
#000000 0 1;
#X obj 497 723 tgl 15 0 empty empty empty 17 7 0 10 #fcfcfc #000000
#000000 0 1;
#X obj 525 723 tgl 15 0 empty empty empty 17 7 0 10 #fcfcfc #000000
#000000 0 1;
#X obj 642 723 tgl 15 0 empty empty empty 17 7 0 10 #fcfcfc #000000
#000000 0 1;
#X obj 730 720 tgl 15 0 empty empty empty 17 7 0 10 #fcfcfc #000000
#000000 0 1;
#X obj 798 723 tgl 15 0 empty empty empty 17 7 0 10 #fcfcfc #000000
#000000 0 1;
#X obj 848 723 tgl 15 0 empty empty empty 17 7 0 10 #fcfcfc #000000
#000000 0 1;
#X obj 924 723 tgl 15 0 empty empty empty 17 7 0 10 #fcfcfc #000000
#000000 0 1;
#X obj 1016 723 tgl 15 0 empty empty empty 17 7 0 10 #fcfcfc #000000
#000000 0 1;
#X obj 1085 723 tgl 15 0 empty empty empty 17 7 0 10 #fcfcfc #000000
#000000 0 1;
#X obj 1124 723 tgl 15 0 empty empty empty 17 7 0 10 #fcfcfc #000000
#000000 0 1;
#X obj 1174 723 tgl 15 0 empty empty empty 17 7 0 10 #fcfcfc #000000
#000000 0 1;
#X obj 1296 98 r inp-n;
#X obj 1296 120 / 2;
#X obj 1296 145 int;
#X msg 1295 211 seed \$1;
#X obj 1255 206 until;
#X obj 1296 265 counter;
#X obj 1255 230 t b b;
#X obj 1296 290 mod 15;
#X msg 1306 243 clear;
#X obj 1236 340 gate 13;
#X obj 1296 315 + 1;
#X obj 1252 279 + 1;
#X msg 1255 180 14;
#X obj 1254 73 r start-sect;
#X obj 1254 98 t b b;
#X obj 1295 188 random 100;
#X msg 1303 168 seed \$1;
#X text 1322 146 random identity for route/sel;
#X obj 284 414 f;
#X obj 230 438 list prepend;
#X obj 374 414 f;
#X obj 320 438 list prepend;
#X obj 454 414 f;
#X obj 400 438 list prepend;
#X obj 544 414 f;
#X obj 490 438 list prepend;
#X obj 634 414 f;
#X obj 580 438 list prepend;
#X obj 724 414 f;
#X obj 670 438 list prepend;
#X obj 804 414 f;
#X obj 750 438 list prepend;
#X obj 894 414 f;
#X obj 840 438 list prepend;
#X obj 984 414 f;
#X obj 930 438 list prepend;
#X obj 1074 414 f;
#X obj 1020 438 list prepend;
#X obj 1164 414 f;
#X obj 1110 438 list prepend;
#X obj 1244 414 f;
#X obj 1190 438 list prepend;
#X obj 201 414 f;
#X obj 147 438 list prepend;
#X obj 147 415 t a b;
#X obj 230 415 t a b;
#X obj 320 415 t a b;
#X obj 400 415 t a b;
#X obj 490 415 t a b;
#X obj 670 415 t a b;
#X obj 580 415 t a b;
#X obj 750 413 t a b;
#X obj 840 415 t a b;
#X obj 930 415 t a b;
#X obj 1020 415 t a b;
#X obj 1110 415 t a b;
#X obj 1190 415 t a b;
#X msg 148 308 0;
#X msg 232 308 1;
#X msg 322 310 2;
#X msg 401 311 3;
#X msg 488 310 4;
#X msg 580 310 5;
#X msg 668 312 6;
#X msg 744 312 7;
#X msg 837 310 8;
#X msg 928 311 9;
#X msg 1016 311 10;
#X msg 1108 310 11;
#X msg 1184 311 12;
#X obj 144 266 r orc-on;
#X obj 140 41 inlet;
#X obj 221 41 inlet;
#X obj 313 42 inlet;
#X obj 391 42 inlet;
#X obj 477 41 inlet;
#X obj 568 41 inlet;
#X obj 658 42 inlet;
#X obj 737 42 inlet;
#X obj 825 41 inlet;
#X obj 916 40 inlet;
#X obj 1007 42 inlet;
#X obj 1177 41 inlet;
#X obj 1098 42 inlet;
#X obj 106 597 route float bang;
#X obj 152 642 bng 15 250 50 0 empty empty empty 17 7 0 10 #fcfcfc
#000000 #000000;
#X obj 216 597 route float bang;
#X obj 262 642 bng 15 250 50 0 empty empty empty 17 7 0 10 #fcfcfc
#000000 #000000;
#X obj 326 597 route float bang;
#X obj 372 642 bng 15 250 50 0 empty empty empty 17 7 0 10 #fcfcfc
#000000 #000000;
#X obj 436 597 route float bang;
#X obj 482 642 bng 15 250 50 0 empty empty empty 17 7 0 10 #fcfcfc
#000000 #000000;
#X obj 546 597 route float bang;
#X obj 592 642 bng 15 250 50 0 empty empty empty 17 7 0 10 #fcfcfc
#000000 #000000;
#X obj 656 597 route float bang;
#X obj 702 642 bng 15 250 50 0 empty empty empty 17 7 0 10 #fcfcfc
#000000 #000000;
#X obj 766 597 route float bang;
#X obj 812 642 bng 15 250 50 0 empty empty empty 17 7 0 10 #fcfcfc
#000000 #000000;
#X obj 876 597 route float bang;
#X obj 922 642 bng 15 250 50 0 empty empty empty 17 7 0 10 #fcfcfc
#000000 #000000;
#X obj 986 597 route float bang;
#X obj 1032 642 bng 15 250 50 0 empty empty empty 17 7 0 10 #fcfcfc
#000000 #000000;
#X obj 1096 597 route float bang;
#X obj 1142 642 bng 15 250 50 0 empty empty empty 17 7 0 10 #fcfcfc
#000000 #000000;
#X obj 1206 597 route float bang;
#X obj 1252 642 bng 15 250 50 0 empty empty empty 17 7 0 10 #fcfcfc
#000000 #000000;
#X obj 1316 597 route float bang;
#X obj 1362 642 bng 15 250 50 0 empty empty empty 17 7 0 10 #fcfcfc
#000000 #000000;
#X obj 1426 597 route float bang;
#X obj 1472 642 bng 15 250 50 0 empty empty empty 17 7 0 10 #fcfcfc
#000000 #000000;
#X obj 106 622 tabread whoplays;
#X obj 216 622 tabread whoplays;
#X obj 326 622 tabread whoplays;
#X obj 436 622 tabread whoplays;
#X obj 546 622 tabread whoplays;
#X obj 656 622 tabread whoplays;
#X obj 766 622 tabread whoplays;
#X obj 876 622 tabread whoplays;
#X obj 986 622 tabread whoplays;
#X obj 1096 622 tabread whoplays;
#X obj 1206 622 tabread whoplays;
#X obj 1316 622 tabread whoplays;
#X obj 1426 622 tabread whoplays;
#X obj 1398 418 unity2;
#X obj 380 785 byon-adsr;
#X obj 450 785 byon-adsr;
#X obj 520 785 byon-adsr;
#X obj 590 785 byon-adsr;
#X obj 1091 780 byon-adsr;
#X obj 1161 780 byon-adsr;
#X obj 656 779 byon-adsr;
#X obj 726 779 byon-adsr;
#X obj 430 870 s samph1adsr;
#X obj 520 870 s samph2adsr;
#X obj 610 870 s samph3adsr;
#X obj 700 870 s samph4adsr;
#X obj 790 870 s diceTone1adsr;
#X obj 990 870 s simph1adsr;
#X obj 1080 870 s simph2adsr;
#X obj 890 870 s diceTone2adsr;
#X obj 930 780 s nmOnOff;
#X obj 1500 760 s boidsOnOff1;
#X obj 1605 758 s boidsOnOff2;
#X obj 1230 255 myUrn;
#X obj 1378 212 loadbang;
#X msg 1378 237 13;
#X obj 1344 73 loadbang;
#X text 1360 90 to t b b;
#X connect 0 0 65 0;
#X connect 0 1 215 1;
#X connect 0 2 66 0;
#X connect 0 3 216 1;
#X connect 0 4 67 0;
#X connect 0 5 217 1;
#X connect 0 6 68 0;
#X connect 0 7 218 1;
#X connect 7 0 69 0;
#X connect 7 1 221 1;
#X connect 8 0 70 0;
#X connect 8 1 222 1;
#X connect 11 0 9 0;
#X connect 11 1 10 0;
#X connect 12 0 13 0;
#X connect 12 1 14 0;
#X connect 25 0 26 0;
#X connect 30 0 27 0;
#X connect 31 0 71 0;
#X connect 31 1 219 1;
#X connect 32 0 72 0;
#X connect 32 1 220 1;
#X connect 38 0 37 0;
#X connect 39 0 175 0;
#X connect 39 1 177 0;
#X connect 39 2 179 0;
#X connect 39 3 181 0;
#X connect 39 4 183 0;
#X connect 39 5 185 0;
#X connect 39 6 187 0;
#X connect 39 7 189 0;
#X connect 39 8 191 0;
#X connect 39 9 193 0;
#X connect 39 10 195 0;
#X connect 39 11 197 0;
#X connect 39 12 199 0;
#X connect 47 0 45 0;
#X connect 47 1 46 0;
#X connect 50 0 40 0;
#X connect 50 1 41 0;
#X connect 55 0 51 0;
#X connect 56 0 52 0;
#X connect 59 0 57 0;
#X connect 60 0 50 0;
#X connect 60 0 232 0;
#X connect 61 0 47 0;
#X connect 61 0 233 0;
#X connect 62 0 55 0;
#X connect 63 0 56 0;
#X connect 64 0 59 0;
#X connect 65 0 1 0;
#X connect 66 0 2 0;
#X connect 67 0 3 0;
#X connect 68 0 4 0;
#X connect 69 0 5 0;
#X connect 70 0 6 0;
#X connect 71 0 33 0;
#X connect 72 0 34 0;
#X connect 73 0 60 0;
#X connect 74 0 61 0;
#X connect 75 0 62 0;
#X connect 76 0 63 0;
#X connect 77 0 64 0;
#X connect 78 0 215 0;
#X connect 78 0 0 0;
#X connect 79 0 216 0;
#X connect 79 0 0 2;
#X connect 80 0 217 0;
#X connect 80 0 0 4;
#X connect 81 0 218 0;
#X connect 81 0 0 6;
#X connect 82 0 7 0;
#X connect 82 0 221 0;
#X connect 83 0 8 0;
#X connect 83 0 222 0;
#X connect 84 0 11 0;
#X connect 85 0 12 0;
#X connect 86 0 25 0;
#X connect 86 0 231 0;
#X connect 87 0 30 0;
#X connect 88 0 31 0;
#X connect 88 0 219 0;
#X connect 89 0 32 0;
#X connect 89 0 220 0;
#X connect 90 0 38 0;
#X connect 91 0 92 0;
#X connect 92 0 93 0;
#X connect 93 0 107 0;
#X connect 94 0 234 0;
#X connect 95 0 97 0;
#X connect 96 0 98 0;
#X connect 97 0 234 0;
#X connect 97 1 96 0;
#X connect 98 0 101 0;
#X connect 99 0 234 0;
#X connect 100 0 133 1;
#X connect 100 1 109 1;
#X connect 100 2 111 1;
#X connect 100 3 113 1;
#X connect 100 4 115 1;
#X connect 100 5 117 1;
#X connect 100 6 119 1;
#X connect 100 7 121 1;
#X connect 100 8 123 1;
#X connect 100 9 125 1;
#X connect 100 10 127 1;
#X connect 100 11 129 1;
#X connect 100 12 131 1;
#X connect 101 0 100 0;
#X connect 102 0 100 1;
#X connect 103 0 95 0;
#X connect 104 0 105 0;
#X connect 105 0 103 0;
#X connect 105 1 106 0;
#X connect 106 0 94 0;
#X connect 107 0 106 0;
#X connect 109 0 110 1;
#X connect 110 0 39 0;
#X connect 111 0 112 1;
#X connect 112 0 39 0;
#X connect 113 0 114 1;
#X connect 114 0 39 0;
#X connect 115 0 116 1;
#X connect 116 0 39 0;
#X connect 117 0 118 1;
#X connect 118 0 39 0;
#X connect 119 0 120 1;
#X connect 120 0 39 0;
#X connect 121 0 122 1;
#X connect 122 0 39 0;
#X connect 123 0 124 1;
#X connect 124 0 39 0;
#X connect 125 0 126 1;
#X connect 126 0 39 0;
#X connect 127 0 128 1;
#X connect 128 0 39 0;
#X connect 129 0 130 1;
#X connect 130 0 39 0;
#X connect 131 0 132 1;
#X connect 132 0 39 0;
#X connect 133 0 134 1;
#X connect 134 0 39 0;
#X connect 135 0 134 0;
#X connect 135 1 133 0;
#X connect 136 0 110 0;
#X connect 136 1 109 0;
#X connect 137 0 112 0;
#X connect 137 1 111 0;
#X connect 138 0 114 0;
#X connect 138 1 113 0;
#X connect 139 0 116 0;
#X connect 139 1 115 0;
#X connect 140 0 120 0;
#X connect 140 1 119 0;
#X connect 141 0 118 0;
#X connect 141 1 117 0;
#X connect 142 0 122 0;
#X connect 142 1 121 0;
#X connect 143 0 124 0;
#X connect 143 1 123 0;
#X connect 144 0 126 0;
#X connect 144 1 125 0;
#X connect 145 0 128 0;
#X connect 145 1 127 0;
#X connect 146 0 130 0;
#X connect 146 1 129 0;
#X connect 147 0 132 0;
#X connect 147 1 131 0;
#X connect 148 0 135 0;
#X connect 149 0 136 0;
#X connect 150 0 137 0;
#X connect 151 0 138 0;
#X connect 152 0 139 0;
#X connect 153 0 141 0;
#X connect 154 0 140 0;
#X connect 155 0 142 0;
#X connect 156 0 143 0;
#X connect 157 0 144 0;
#X connect 158 0 145 0;
#X connect 159 0 146 0;
#X connect 160 0 147 0;
#X connect 161 0 148 0;
#X connect 161 0 160 0;
#X connect 161 0 159 0;
#X connect 161 0 158 0;
#X connect 161 0 157 0;
#X connect 161 0 156 0;
#X connect 161 0 155 0;
#X connect 161 0 154 0;
#X connect 161 0 153 0;
#X connect 161 0 152 0;
#X connect 161 0 151 0;
#X connect 161 0 150 0;
#X connect 161 0 149 0;
#X connect 162 0 135 0;
#X connect 163 0 136 0;
#X connect 164 0 137 0;
#X connect 165 0 138 0;
#X connect 166 0 139 0;
#X connect 167 0 141 0;
#X connect 168 0 140 0;
#X connect 169 0 142 0;
#X connect 170 0 143 0;
#X connect 171 0 144 0;
#X connect 172 0 145 0;
#X connect 173 0 147 0;
#X connect 174 0 146 0;
#X connect 175 0 201 0;
#X connect 175 1 176 0;
#X connect 176 0 0 1;
#X connect 177 0 202 0;
#X connect 177 1 178 0;
#X connect 178 0 0 3;
#X connect 179 0 203 0;
#X connect 179 1 180 0;
#X connect 180 0 0 5;
#X connect 181 0 204 0;
#X connect 181 1 182 0;
#X connect 182 0 0 7;
#X connect 183 0 205 0;
#X connect 183 1 184 0;
#X connect 184 0 7 1;
#X connect 185 0 206 0;
#X connect 185 1 186 0;
#X connect 186 0 8 1;
#X connect 187 0 207 0;
#X connect 187 1 188 0;
#X connect 188 0 11 1;
#X connect 189 0 208 0;
#X connect 189 1 190 0;
#X connect 190 0 12 1;
#X connect 191 0 209 0;
#X connect 191 1 192 0;
#X connect 192 0 25 1;
#X connect 193 0 210 0;
#X connect 193 1 194 0;
#X connect 194 0 30 1;
#X connect 195 0 211 0;
#X connect 195 1 196 0;
#X connect 196 0 31 1;
#X connect 197 0 212 0;
#X connect 197 1 198 0;
#X connect 198 0 32 1;
#X connect 199 0 213 0;
#X connect 199 1 200 0;
#X connect 200 0 38 1;
#X connect 201 0 78 0;
#X connect 202 0 79 0;
#X connect 203 0 80 0;
#X connect 204 0 81 0;
#X connect 205 0 82 0;
#X connect 206 0 83 0;
#X connect 207 0 84 0;
#X connect 208 0 85 0;
#X connect 209 0 86 0;
#X connect 210 0 87 0;
#X connect 211 0 88 0;
#X connect 212 0 89 0;
#X connect 213 0 90 0;
#X connect 214 0 39 0;
#X connect 214 1 39 0;
#X connect 214 2 39 0;
#X connect 214 3 39 0;
#X connect 214 4 39 0;
#X connect 214 5 60 0;
#X connect 214 5 64 0;
#X connect 214 5 63 0;
#X connect 214 5 62 0;
#X connect 214 5 61 0;
#X connect 214 5 84 0;
#X connect 214 5 85 0;
#X connect 214 5 86 0;
#X connect 214 5 87 0;
#X connect 214 5 90 0;
#X connect 215 0 65 1;
#X connect 215 0 223 0;
#X connect 216 0 66 1;
#X connect 216 0 224 0;
#X connect 217 0 67 1;
#X connect 217 0 225 0;
#X connect 218 0 68 1;
#X connect 218 0 226 0;
#X connect 219 0 71 1;
#X connect 219 0 228 0;
#X connect 220 0 72 1;
#X connect 220 0 229 0;
#X connect 221 0 69 1;
#X connect 221 0 227 0;
#X connect 222 0 70 1;
#X connect 222 0 230 0;
#X connect 234 0 102 0;
#X connect 234 1 96 2;
#X connect 234 1 99 0;
#X connect 235 0 236 0;
#X connect 236 0 234 1;
#X connect 237 0 105 0;
