#N canvas 188 34 1028 778 10;
#X obj 205 346 prime-time;
#X obj 205 371 primer3;
#X obj 56 33 r inp-p;
#X obj 56 88 bng 15 250 50 0 empty empty empty 17 7 0 10 #fcfcfc #000000
#000000;
#X obj 205 316 tgl 15 0 empty empty empty 17 7 0 10 #fcfcfc #000000
#000000 0 1;
#X text 223 317 choral;
#X obj 345 316 tgl 15 0 empty empty empty 17 7 0 10 #fcfcfc #000000
#000000 1 1;
#X text 363 315 texture;
#X obj 243 53 r ale1;
#X obj 243 78 maxlib/scale 0 100 60000 120000;
#X obj 241 117 del;
#X obj 453 77 maxlib/scale 0 100 60000 120000;
#X obj 451 117 del;
#X obj 453 52 r ale2;
#X obj 55 181 f;
#X obj 55 206 mod 3;
#X obj 55 231 sel 0 1 2;
#X msg 44 263 0;
#X msg 74 263 1;
#X obj 652 83 maxlib/scale 0 100 60000 120000;
#X obj 651 117 del;
#X obj 651 142 s end;
#X msg 104 263 0;
#X msg 134 263 1;
#X msg 164 263 1;
#X obj 255 181 f;
#X obj 255 206 mod 3;
#X obj 255 231 sel 0 1 2;
#X msg 244 263 0;
#X msg 274 263 1;
#X msg 304 263 0;
#X msg 334 263 1;
#X msg 364 263 1;
#X obj 475 181 f;
#X obj 475 206 mod 3;
#X obj 475 231 sel 0 1 2;
#X msg 464 263 0;
#X msg 494 263 1;
#X msg 524 263 0;
#X msg 554 263 1;
#X msg 584 263 1;
#X obj 652 57 r ale3;
#X obj 70 155 r ale4;
#X obj 270 154 r ale5;
#X obj 490 155 r ale6;
#X obj 16 478 outlet~;
#X obj 65 478 outlet~;
#X obj 114 478 outlet~;
#X obj 163 478 outlet~;
#X obj 222 478 outlet~;
#X obj 271 478 outlet~;
#X obj 330 478 outlet~;
#X obj 379 478 outlet~;
#X obj 438 478 outlet~;
#X obj 487 488 outlet~;
#X obj 546 478 outlet~;
#X obj 605 478 outlet~;
#X text 32 500 1;
#X text 82 500 2;
#X text 132 500 3;
#X text 172 500 4;
#X text 242 500 5;
#X text 282 500 6;
#X text 342 500 11;
#X text 392 500 12;
#X text 452 500 7L;
#X text 502 510 7R;
#X text 562 500 10;
#X text 622 500 13;
#X obj 160 156 s start-sect;
#X obj 352 157 s sect-t;
#X obj 272 117 f;
#X obj 482 116 f;
#X obj 684 120 f;
#X obj 496 329 r primeoff;
#X msg 496 354 0;
#X obj 56 58 pipe 10000;
#X connect 0 0 1 0;
#X connect 0 1 1 1;
#X connect 0 2 1 2;
#X connect 0 3 1 3;
#X connect 0 4 1 4;
#X connect 0 5 1 5;
#X connect 0 6 1 6;
#X connect 0 7 1 7;
#X connect 0 8 1 8;
#X connect 0 9 1 9;
#X connect 0 10 1 10;
#X connect 1 0 45 0;
#X connect 1 1 46 0;
#X connect 1 2 47 0;
#X connect 1 3 48 0;
#X connect 1 4 49 0;
#X connect 1 5 50 0;
#X connect 1 6 51 0;
#X connect 1 7 52 0;
#X connect 1 8 53 0;
#X connect 1 9 54 0;
#X connect 1 10 55 0;
#X connect 1 11 56 0;
#X connect 2 0 76 0;
#X connect 3 0 10 0;
#X connect 3 0 14 0;
#X connect 3 0 69 0;
#X connect 3 0 71 0;
#X connect 4 0 0 0;
#X connect 6 0 0 1;
#X connect 8 0 9 0;
#X connect 9 0 10 1;
#X connect 9 0 71 1;
#X connect 10 0 12 0;
#X connect 10 0 25 0;
#X connect 10 0 69 0;
#X connect 11 0 12 1;
#X connect 11 0 72 1;
#X connect 12 0 20 0;
#X connect 12 0 33 0;
#X connect 12 0 69 0;
#X connect 12 0 73 0;
#X connect 13 0 11 0;
#X connect 14 0 15 0;
#X connect 15 0 16 0;
#X connect 16 0 17 0;
#X connect 16 0 18 0;
#X connect 16 1 22 0;
#X connect 16 1 23 0;
#X connect 16 2 24 0;
#X connect 17 0 6 0;
#X connect 18 0 4 0;
#X connect 19 0 20 1;
#X connect 19 0 73 1;
#X connect 20 0 21 0;
#X connect 22 0 4 0;
#X connect 23 0 6 0;
#X connect 24 0 4 0;
#X connect 24 0 6 0;
#X connect 25 0 26 0;
#X connect 26 0 27 0;
#X connect 27 0 28 0;
#X connect 27 0 29 0;
#X connect 27 1 30 0;
#X connect 27 1 31 0;
#X connect 27 2 32 0;
#X connect 28 0 6 0;
#X connect 29 0 4 0;
#X connect 30 0 4 0;
#X connect 31 0 6 0;
#X connect 32 0 6 0;
#X connect 32 0 4 0;
#X connect 33 0 34 0;
#X connect 34 0 35 0;
#X connect 35 0 36 0;
#X connect 35 0 37 0;
#X connect 35 1 38 0;
#X connect 35 1 39 0;
#X connect 35 2 40 0;
#X connect 36 0 6 0;
#X connect 37 0 4 0;
#X connect 38 0 4 0;
#X connect 39 0 6 0;
#X connect 40 0 6 0;
#X connect 40 0 4 0;
#X connect 41 0 19 0;
#X connect 42 0 14 1;
#X connect 43 0 25 1;
#X connect 44 0 33 1;
#X connect 71 0 72 0;
#X connect 71 0 70 0;
#X connect 72 0 70 0;
#X connect 73 0 70 0;
#X connect 74 0 75 0;
#X connect 75 0 6 0;
#X connect 75 0 4 0;
#X connect 76 0 3 0;
