#N canvas 244 48 1204 753 10;
#X obj 333 536 temporizer1;
#X obj 733 536 euclidean1;
#X obj 803 536 tattarrattat1;
#X obj 893 536 ostinato;
#X obj 413 536 temporizer2;
#X obj 493 536 temporizer3;
#X obj 573 536 temporizer4;
#X obj 653 536 temporizer5;
#X obj 134 752 f;
#X obj 80 776 list prepend;
#X obj 80 753 t a b;
#X obj 144 801 f;
#X obj 90 825 list prepend;
#X obj 90 800 t a b;
#X obj 224 752 f;
#X obj 170 776 list prepend;
#X obj 170 753 t a b;
#X obj 234 801 f;
#X obj 180 825 list prepend;
#X obj 180 802 t a b;
#X obj 314 752 f;
#X obj 260 776 list prepend;
#X obj 260 753 t a b;
#X obj 324 801 f;
#X obj 270 825 list prepend;
#X obj 270 802 t a b;
#X obj 404 752 f;
#X obj 350 776 list prepend;
#X obj 350 753 t a b;
#X obj 414 801 f;
#X obj 360 825 list prepend;
#X obj 360 802 t a b;
#X obj 494 752 f;
#X obj 440 776 list prepend;
#X obj 440 753 t a b;
#X obj 504 801 f;
#X obj 450 825 list prepend;
#X obj 450 802 t a b;
#X obj 584 752 f;
#X obj 530 776 list prepend;
#X obj 530 753 t a b;
#X obj 594 801 f;
#X obj 540 825 list prepend;
#X obj 540 802 t a b;
#X obj 674 752 f;
#X obj 620 775 list prepend;
#X obj 620 753 t a b;
#X obj 684 801 f;
#X obj 630 825 list prepend;
#X obj 630 802 t a b;
#X obj 764 752 f;
#X obj 710 776 list prepend;
#X obj 710 753 t a b;
#X obj 774 801 f;
#X obj 720 825 list prepend;
#X obj 720 802 t a b;
#X msg 92 249 -1 -1 -1 -1 -1 -1 -1 -1 0 1 2 3 4 5 6 7;
#X obj 166 327 + 1;
#X obj 136 326 f 0;
#X obj 163 301 sel 15;
#X msg 135 301 0;
#X obj 76 388 gate 16;
#X obj 136 351 + 1;
#X obj 92 300 t f b;
#X obj 92 274 list-idx;
#X obj 33 93 r ale20;
#X msg 92 167 seed \$1;
#X obj 33 118 t b b f;
#X msg 53 168 16;
#X obj 53 193 until;
#X msg 33 143 clear;
#X obj 92 217 t b f;
#X obj 275 873 route 0 1 2 3 4 5 6 7;
#X obj 274 906 bng 15 250 50 0 empty empty empty 17 7 0 10 #fcfcfc
#000000 #000000;
#X obj 294 906 bng 15 250 50 0 empty empty empty 17 7 0 10 #fcfcfc
#000000 #000000;
#X obj 314 906 bng 15 250 50 0 empty empty empty 17 7 0 10 #fcfcfc
#000000 #000000;
#X obj 334 906 bng 15 250 50 0 empty empty empty 17 7 0 10 #fcfcfc
#000000 #000000;
#X obj 354 906 bng 15 250 50 0 empty empty empty 17 7 0 10 #fcfcfc
#000000 #000000;
#X obj 374 906 bng 15 250 50 0 empty empty empty 17 7 0 10 #fcfcfc
#000000 #000000;
#X obj 394 906 bng 15 250 50 0 empty empty empty 17 7 0 10 #fcfcfc
#000000 #000000;
#X obj 414 906 bng 15 250 50 0 empty empty empty 17 7 0 10 #fcfcfc
#000000 #000000;
#X obj 354 229 r ale1;
#X msg 381 309 1;
#X obj 454 406 gate 8;
#X obj 404 229 r ale2;
#X obj 454 229 r ale3;
#X obj 504 229 r ale4;
#X obj 554 229 r ale5;
#X obj 604 229 r ale6;
#X obj 654 229 r ale7;
#X obj 704 229 r ale8;
#X msg 431 309 2;
#X msg 481 309 3;
#X msg 531 309 4;
#X msg 581 309 5;
#X msg 631 309 6;
#X msg 681 309 7;
#X msg 731 309 8;
#X obj 565 407 maxlib/scale 0 100 0 60000;
#X obj 29 64 s choron;
#X obj 255 68 r ale19;
#X msg 255 93 seed \$1;
#X obj 235 118 random 8;
#X obj 235 143 + 1;
#X msg 269 193 0;
#X obj 29 11 inlet;
#X obj 210 10 r choron;
#X obj 66 932 outlet;
#X obj 116 932 outlet;
#X obj 166 932 outlet;
#X obj 216 932 outlet;
#X obj 266 932 outlet;
#X obj 316 932 outlet;
#X obj 366 932 outlet;
#X obj 416 932 outlet;
#X obj 1101 528 f2bin;
#X obj 988 536 list-dripslow;
#X obj 1035 570 t b b;
#X obj 989 511 metro 500;
#X obj 1101 582 l;
#X obj 1101 553 t b l;
#X obj 989 383 tgl 15 0 empty empty empty 17 7 0 10 #fcfcfc #000000
#000000 0 1;
#X obj 988 618 sel 1;
#X obj 1101 503 r inp-p;
#X obj 1220 380 tgl 15 0 empty empty empty 17 7 0 10 #fcfcfc #000000
#000000 0 1;
#X obj 810 410 maxlib/scale 0 100 50 160;
#X obj 810 385 r ale17;
#X obj 1221 518 bakery;
#X obj 1383 380 tgl 15 0 empty empty empty 17 7 0 10 #fcfcfc #000000
#000000 0 1;
#X obj 920 321 maxlib/scale 0 100 50 160;
#X obj 1383 518 bakery;
#X obj 920 296 r ale18;
#X obj 1730 483 + 1;
#X obj 1700 482 f 0;
#X msg 1699 457 0;
#X obj 1700 507 + 1;
#X obj 1656 456 t f b;
#X obj 1656 430 list-idx;
#X msg 1656 323 seed \$1;
#X obj 1597 274 t b b f;
#X obj 1617 349 until;
#X msg 1597 299 clear;
#X obj 1656 373 t b f;
#X msg 1617 324 3;
#X msg 1656 405 0 1 2;
#X obj 1727 457 sel 2;
#X obj 1640 544 gate 3;
#X obj 1238 721 f;
#X obj 1184 745 list prepend;
#X obj 1184 722 t a b;
#X obj 1328 721 f;
#X obj 1274 745 list prepend;
#X obj 1274 722 t a b;
#X obj 1418 721 f;
#X obj 1364 745 list prepend;
#X obj 1364 722 t a b;
#X obj 1184 830 route 0 1 2;
#X obj 1194 856 bng 15 250 50 0 empty empty empty 17 7 0 10 #fcfcfc
#000000 #000000;
#X obj 1214 856 bng 15 250 50 0 empty empty empty 17 7 0 10 #fcfcfc
#000000 #000000;
#X obj 1234 856 bng 15 250 50 0 empty empty empty 17 7 0 10 #fcfcfc
#000000 #000000;
#X obj 1156 892 outlet;
#X obj 1206 892 outlet;
#X obj 1256 892 outlet;
#X obj 1523 277 r ale20;
#X msg 1522 304 seed \$1;
#X obj 1495 329 random 3;
#X obj 1495 354 sel 0 1 2;
#X msg 1512 379 2;
#X msg 1542 379 3;
#X obj 1512 404 until;
#X obj 1571 404 r ale15;
#X msg 1571 429 seed \$1;
#X obj 1512 429 random 3;
#X obj 1512 454 sel 0 1 2;
#X msg 1512 479 1;
#X msg 1542 479 1;
#X msg 1572 479 1;
#X obj 1288 230 inlet;
#X obj 1288 255 sel 0 1;
#X msg 1288 280 0;
#X obj 1038 487 /;
#X obj 1038 432 t b f;
#X msg 1038 457 60000;
#X obj 971 344 * 2;
#X obj 326 500 r ale-ls;
#X obj 390 500 list-splat 15;
#X obj 484 500 list-rot 3;
#X obj 560 500 list-rot 3;
#X obj 636 500 list-rot 3;
#X obj 712 500 list-rot 3;
#X obj 1597 246 r inp-p;
#X obj 333 561 pipe;
#X obj 413 561 pipe;
#X obj 493 561 pipe;
#X obj 573 561 pipe;
#X obj 653 561 pipe;
#X obj 733 561 pipe;
#X obj 803 561 pipe;
#X obj 893 561 pipe;
#X obj 210 35 sel 0 1;
#X msg 210 220 0;
#X obj 354 254 f;
#X obj 404 254 f;
#X obj 454 254 f;
#X obj 504 254 f;
#X obj 554 254 f;
#X obj 604 254 f;
#X obj 704 254 f;
#X obj 654 254 f;
#X obj 390 163 gate 8;
#X obj 235 168 t b b b f;
#X obj 704 284 t f b;
#X obj 654 284 t f b;
#X obj 604 284 t f b;
#X obj 554 284 t f b;
#X obj 504 284 t f b;
#X obj 454 284 t f b;
#X obj 404 284 t f b;
#X obj 354 284 t f b;
#X msg 235 193 1;
#X obj 154 161 loadbang;
#X msg 154 186 16;
#X obj 92 192 myUrn;
#X obj 1708 358 loadbang;
#X msg 1708 383 3;
#X obj 1656 347 myUrn;
#X connect 0 0 191 0;
#X connect 1 0 196 0;
#X connect 2 0 197 0;
#X connect 3 0 198 0;
#X connect 4 0 192 0;
#X connect 5 0 193 0;
#X connect 6 0 194 0;
#X connect 7 0 195 0;
#X connect 8 0 9 1;
#X connect 9 0 72 0;
#X connect 10 0 9 0;
#X connect 10 1 8 0;
#X connect 11 0 12 1;
#X connect 12 0 72 0;
#X connect 13 0 12 0;
#X connect 13 1 11 0;
#X connect 14 0 15 1;
#X connect 15 0 72 0;
#X connect 16 0 15 0;
#X connect 16 1 14 0;
#X connect 17 0 18 1;
#X connect 18 0 72 0;
#X connect 19 0 18 0;
#X connect 19 1 17 0;
#X connect 20 0 21 1;
#X connect 21 0 72 0;
#X connect 22 0 21 0;
#X connect 22 1 20 0;
#X connect 23 0 24 1;
#X connect 24 0 72 0;
#X connect 25 0 24 0;
#X connect 25 1 23 0;
#X connect 26 0 27 1;
#X connect 27 0 72 0;
#X connect 28 0 27 0;
#X connect 28 1 26 0;
#X connect 29 0 30 1;
#X connect 30 0 72 0;
#X connect 31 0 30 0;
#X connect 31 1 29 0;
#X connect 32 0 33 1;
#X connect 33 0 72 0;
#X connect 34 0 33 0;
#X connect 34 1 32 0;
#X connect 35 0 36 1;
#X connect 36 0 72 0;
#X connect 37 0 36 0;
#X connect 37 1 35 0;
#X connect 38 0 39 1;
#X connect 39 0 72 0;
#X connect 40 0 39 0;
#X connect 40 1 38 0;
#X connect 41 0 42 1;
#X connect 42 0 72 0;
#X connect 43 0 42 0;
#X connect 43 1 41 0;
#X connect 44 0 45 1;
#X connect 45 0 72 0;
#X connect 46 0 45 0;
#X connect 46 1 44 0;
#X connect 47 0 48 1;
#X connect 48 0 72 0;
#X connect 49 0 48 0;
#X connect 49 1 47 0;
#X connect 50 0 51 1;
#X connect 51 0 72 0;
#X connect 52 0 51 0;
#X connect 52 1 50 0;
#X connect 53 0 54 1;
#X connect 54 0 72 0;
#X connect 55 0 54 0;
#X connect 55 1 53 0;
#X connect 56 0 64 0;
#X connect 57 0 58 1;
#X connect 58 0 57 0;
#X connect 58 0 59 0;
#X connect 58 0 62 0;
#X connect 59 0 60 0;
#X connect 60 0 58 1;
#X connect 61 0 8 1;
#X connect 61 1 14 1;
#X connect 61 2 20 1;
#X connect 61 3 26 1;
#X connect 61 4 32 1;
#X connect 61 5 38 1;
#X connect 61 6 44 1;
#X connect 61 7 50 1;
#X connect 61 8 11 1;
#X connect 61 9 17 1;
#X connect 61 10 23 1;
#X connect 61 11 29 1;
#X connect 61 12 35 1;
#X connect 61 13 41 1;
#X connect 61 14 47 1;
#X connect 61 15 53 1;
#X connect 62 0 61 0;
#X connect 63 0 61 1;
#X connect 63 1 58 0;
#X connect 64 0 63 0;
#X connect 65 0 67 0;
#X connect 66 0 222 0;
#X connect 67 0 70 0;
#X connect 67 1 68 0;
#X connect 67 2 66 0;
#X connect 68 0 69 0;
#X connect 69 0 222 0;
#X connect 70 0 222 0;
#X connect 71 0 56 0;
#X connect 71 1 64 1;
#X connect 72 0 73 0;
#X connect 72 1 74 0;
#X connect 72 2 75 0;
#X connect 72 3 76 0;
#X connect 72 4 77 0;
#X connect 72 5 78 0;
#X connect 72 6 79 0;
#X connect 72 7 80 0;
#X connect 73 0 107 0;
#X connect 74 0 108 0;
#X connect 75 0 109 0;
#X connect 76 0 110 0;
#X connect 77 0 111 0;
#X connect 78 0 112 0;
#X connect 79 0 113 0;
#X connect 80 0 114 0;
#X connect 81 0 201 1;
#X connect 82 0 83 0;
#X connect 83 0 191 1;
#X connect 83 1 192 1;
#X connect 83 2 193 1;
#X connect 83 3 194 1;
#X connect 83 4 195 1;
#X connect 83 5 196 1;
#X connect 83 6 197 1;
#X connect 83 7 198 1;
#X connect 84 0 202 1;
#X connect 85 0 203 1;
#X connect 86 0 204 1;
#X connect 87 0 205 1;
#X connect 88 0 206 1;
#X connect 89 0 208 1;
#X connect 90 0 207 1;
#X connect 91 0 83 0;
#X connect 92 0 83 0;
#X connect 93 0 83 0;
#X connect 94 0 83 0;
#X connect 95 0 83 0;
#X connect 96 0 83 0;
#X connect 97 0 83 0;
#X connect 98 0 83 1;
#X connect 100 0 101 0;
#X connect 101 0 102 0;
#X connect 102 0 103 0;
#X connect 103 0 210 0;
#X connect 104 0 209 1;
#X connect 105 0 99 0;
#X connect 106 0 199 0;
#X connect 115 0 120 0;
#X connect 116 0 122 0;
#X connect 116 1 117 0;
#X connect 117 0 116 0;
#X connect 117 1 119 0;
#X connect 118 0 116 0;
#X connect 119 0 116 1;
#X connect 120 0 119 0;
#X connect 120 1 119 1;
#X connect 121 0 118 0;
#X connect 121 0 149 0;
#X connect 122 0 149 0;
#X connect 123 0 115 0;
#X connect 124 0 127 0;
#X connect 124 0 152 0;
#X connect 125 0 1 1;
#X connect 125 0 7 1;
#X connect 125 0 6 1;
#X connect 125 0 5 1;
#X connect 125 0 4 1;
#X connect 125 0 0 1;
#X connect 125 0 2 1;
#X connect 125 0 3 1;
#X connect 126 0 125 0;
#X connect 127 0 152 0;
#X connect 128 0 130 0;
#X connect 128 0 155 0;
#X connect 129 0 181 0;
#X connect 129 0 127 1;
#X connect 129 0 183 0;
#X connect 130 0 155 0;
#X connect 131 0 129 0;
#X connect 132 0 133 1;
#X connect 133 0 132 0;
#X connect 133 0 135 0;
#X connect 133 0 145 0;
#X connect 134 0 133 1;
#X connect 135 0 146 0;
#X connect 136 0 146 1;
#X connect 136 1 133 0;
#X connect 137 0 136 0;
#X connect 138 0 225 0;
#X connect 139 0 141 0;
#X connect 139 1 143 0;
#X connect 139 2 138 0;
#X connect 140 0 225 0;
#X connect 141 0 225 0;
#X connect 142 0 144 0;
#X connect 142 1 137 1;
#X connect 143 0 140 0;
#X connect 144 0 137 0;
#X connect 145 0 134 0;
#X connect 146 0 147 1;
#X connect 146 1 150 1;
#X connect 146 2 153 1;
#X connect 147 0 148 1;
#X connect 148 0 156 0;
#X connect 149 0 148 0;
#X connect 149 1 147 0;
#X connect 150 0 151 1;
#X connect 151 0 156 0;
#X connect 152 0 151 0;
#X connect 152 1 150 0;
#X connect 153 0 154 1;
#X connect 154 0 156 0;
#X connect 155 0 154 0;
#X connect 155 1 153 0;
#X connect 156 0 157 0;
#X connect 156 0 160 0;
#X connect 156 1 158 0;
#X connect 156 1 161 0;
#X connect 156 2 159 0;
#X connect 156 2 162 0;
#X connect 163 0 164 0;
#X connect 164 0 165 0;
#X connect 165 0 166 0;
#X connect 166 0 172 0;
#X connect 166 1 167 0;
#X connect 166 2 168 0;
#X connect 167 0 169 0;
#X connect 168 0 169 0;
#X connect 169 0 172 0;
#X connect 170 0 171 0;
#X connect 171 0 172 0;
#X connect 172 0 173 0;
#X connect 173 0 174 0;
#X connect 173 1 175 0;
#X connect 173 2 176 0;
#X connect 174 0 121 0;
#X connect 175 0 124 0;
#X connect 176 0 128 0;
#X connect 177 0 178 0;
#X connect 178 0 179 0;
#X connect 178 1 165 0;
#X connect 179 0 128 0;
#X connect 179 0 124 0;
#X connect 179 0 121 0;
#X connect 180 0 118 1;
#X connect 181 0 182 0;
#X connect 181 1 180 1;
#X connect 182 0 180 0;
#X connect 183 0 130 1;
#X connect 184 0 185 0;
#X connect 185 0 186 0;
#X connect 185 0 0 2;
#X connect 186 0 187 0;
#X connect 186 0 4 2;
#X connect 187 0 188 0;
#X connect 187 0 5 2;
#X connect 188 0 189 0;
#X connect 188 0 6 2;
#X connect 189 0 7 2;
#X connect 190 0 139 0;
#X connect 191 0 10 0;
#X connect 191 0 13 0;
#X connect 192 0 16 0;
#X connect 192 0 19 0;
#X connect 193 0 22 0;
#X connect 193 0 25 0;
#X connect 194 0 28 0;
#X connect 194 0 31 0;
#X connect 195 0 34 0;
#X connect 195 0 37 0;
#X connect 196 0 40 0;
#X connect 196 0 43 0;
#X connect 197 0 46 0;
#X connect 197 0 49 0;
#X connect 198 0 52 0;
#X connect 198 0 55 0;
#X connect 199 0 200 0;
#X connect 199 1 102 0;
#X connect 200 0 0 0;
#X connect 200 0 7 0;
#X connect 200 0 6 0;
#X connect 200 0 5 0;
#X connect 200 0 4 0;
#X connect 200 0 3 0;
#X connect 200 0 2 0;
#X connect 200 0 1 0;
#X connect 201 0 218 0;
#X connect 202 0 217 0;
#X connect 203 0 216 0;
#X connect 204 0 215 0;
#X connect 205 0 214 0;
#X connect 206 0 213 0;
#X connect 207 0 211 0;
#X connect 208 0 212 0;
#X connect 209 0 201 1;
#X connect 209 1 202 1;
#X connect 209 2 203 1;
#X connect 209 3 204 1;
#X connect 209 4 205 1;
#X connect 209 5 206 1;
#X connect 209 6 208 1;
#X connect 209 7 207 1;
#X connect 210 0 219 0;
#X connect 210 1 201 0;
#X connect 210 1 208 0;
#X connect 210 1 207 0;
#X connect 210 1 206 0;
#X connect 210 1 205 0;
#X connect 210 1 204 0;
#X connect 210 1 203 0;
#X connect 210 1 202 0;
#X connect 210 2 104 0;
#X connect 210 3 209 0;
#X connect 211 0 98 0;
#X connect 211 1 97 0;
#X connect 212 0 98 0;
#X connect 212 1 96 0;
#X connect 213 0 98 0;
#X connect 213 1 95 0;
#X connect 214 0 98 0;
#X connect 214 1 94 0;
#X connect 215 0 98 0;
#X connect 215 1 93 0;
#X connect 216 0 98 0;
#X connect 216 1 92 0;
#X connect 217 0 98 0;
#X connect 217 1 91 0;
#X connect 218 0 98 0;
#X connect 218 1 82 0;
#X connect 219 0 0 0;
#X connect 219 0 7 0;
#X connect 219 0 6 0;
#X connect 219 0 5 0;
#X connect 219 0 4 0;
#X connect 219 0 3 0;
#X connect 219 0 2 0;
#X connect 219 0 1 0;
#X connect 220 0 221 0;
#X connect 221 0 222 1;
#X connect 222 0 71 0;
#X connect 223 0 224 0;
#X connect 224 0 225 1;
#X connect 225 0 142 0;
