#N canvas 168 10 1354 827 10;
#X obj 865 771 *~ 0;
#X obj 935 771 *~ 0;
#X obj 1013 772 *~ 0;
#X obj 1062 772 *~ 0;
#X obj 618 772 *~ 0;
#X obj 677 772 *~ 0;
#X obj 618 592 samph1;
#X obj 677 592 samph2;
#X obj 738 772 *~ 0;
#X obj 797 772 *~ 0;
#X obj 25 408 notifier-trunc;
#X obj 123 406 notifier-mess;
#X obj 618 514 mod 4;
#X obj 663 514 mod 5;
#X obj 572 540 maxlib/scale 0 100 1 50;
#X obj 131 383 mod 5;
#X obj 176 383 mod 4;
#X obj 32 383 mod 5;
#X obj 77 383 mod 4;
#X obj 22 124 + 1;
#X obj 60 256 + 1;
#X obj 22 255 mod 2;
#X obj 22 282 gate 2;
#X obj 22 307 random 7;
#X obj 162 256 + 1;
#X obj 124 255 mod 2;
#X obj 124 282 gate 2;
#X obj 124 307 random 10;
#X msg 68 282 seed \$1;
#X obj 20 52 inlet;
#X obj 22 150 gate 2;
#X obj 215 408 notifier-trunc;
#X obj 313 406 notifier-mess;
#X obj 321 383 mod 5;
#X obj 366 383 mod 4;
#X obj 222 383 mod 5;
#X obj 267 383 mod 4;
#X obj 212 124 + 1;
#X obj 250 256 + 1;
#X obj 212 255 mod 2;
#X obj 212 282 gate 2;
#X obj 212 307 random 7;
#X obj 352 256 + 1;
#X obj 314 255 mod 2;
#X obj 314 282 gate 2;
#X obj 314 307 random 10;
#X msg 258 282 seed \$1;
#X obj 210 52 inlet;
#X obj 212 150 gate 2;
#X obj 405 408 notifier-trunc;
#X obj 503 406 notifier-mess;
#X obj 511 383 mod 5;
#X obj 556 383 mod 4;
#X obj 412 383 mod 5;
#X obj 457 383 mod 4;
#X obj 402 124 + 1;
#X obj 440 256 + 1;
#X obj 402 255 mod 2;
#X obj 402 282 gate 2;
#X obj 402 307 random 7;
#X obj 542 256 + 1;
#X obj 504 255 mod 2;
#X obj 504 282 gate 2;
#X obj 504 307 random 10;
#X msg 448 282 seed \$1;
#X obj 400 52 inlet;
#X obj 402 150 gate 2;
#X obj 595 408 notifier-trunc;
#X obj 693 406 notifier-mess;
#X obj 701 383 mod 5;
#X obj 746 383 mod 4;
#X obj 602 383 mod 5;
#X obj 647 383 mod 4;
#X obj 592 124 + 1;
#X obj 630 256 + 1;
#X obj 592 255 mod 2;
#X obj 592 282 gate 2;
#X obj 592 307 random 7;
#X obj 732 256 + 1;
#X obj 694 255 mod 2;
#X obj 694 282 gate 2;
#X obj 694 307 random 10;
#X msg 638 282 seed \$1;
#X obj 590 52 inlet;
#X obj 592 150 gate 2;
#X obj 785 408 notifier-trunc;
#X obj 883 406 notifier-mess;
#X obj 891 383 mod 5;
#X obj 936 383 mod 4;
#X obj 792 383 mod 5;
#X obj 837 383 mod 4;
#X obj 782 124 + 1;
#X obj 820 256 + 1;
#X obj 782 255 mod 2;
#X obj 782 282 gate 2;
#X obj 782 307 random 7;
#X obj 922 256 + 1;
#X obj 884 255 mod 2;
#X obj 884 282 gate 2;
#X obj 884 307 random 10;
#X msg 828 282 seed \$1;
#X obj 780 52 inlet;
#X obj 782 150 gate 2;
#X obj 975 408 notifier-trunc;
#X obj 1073 406 notifier-mess;
#X obj 1081 383 mod 5;
#X obj 1126 383 mod 4;
#X obj 982 383 mod 5;
#X obj 1027 383 mod 4;
#X obj 972 78 r ale6;
#X obj 972 124 + 1;
#X obj 1010 256 + 1;
#X obj 972 255 mod 2;
#X obj 972 282 gate 2;
#X obj 972 307 random 7;
#X obj 1112 256 + 1;
#X obj 1074 255 mod 2;
#X obj 1074 282 gate 2;
#X obj 1074 307 random 10;
#X msg 1018 282 seed \$1;
#X obj 970 50 inlet;
#X obj 972 150 gate 2;
#X obj 1165 408 notifier-trunc;
#X obj 1263 406 notifier-mess;
#X obj 1271 383 mod 5;
#X obj 1316 383 mod 4;
#X obj 1172 383 mod 5;
#X obj 1217 383 mod 4;
#X obj 1162 124 + 1;
#X obj 1200 256 + 1;
#X obj 1162 255 mod 2;
#X obj 1162 282 gate 2;
#X obj 1162 307 random 7;
#X obj 1302 256 + 1;
#X obj 1264 255 mod 2;
#X obj 1264 282 gate 2;
#X obj 1264 307 random 10;
#X msg 1208 282 seed \$1;
#X obj 1160 52 inlet;
#X obj 1162 150 gate 2;
#X obj 1355 408 notifier-trunc;
#X obj 1453 406 notifier-mess;
#X obj 1461 383 mod 5;
#X obj 1506 383 mod 4;
#X obj 1362 383 mod 5;
#X obj 1407 383 mod 4;
#X obj 1352 124 + 1;
#X obj 1390 256 + 1;
#X obj 1352 255 mod 2;
#X obj 1352 282 gate 2;
#X obj 1352 307 random 7;
#X obj 1492 256 + 1;
#X obj 1454 255 mod 2;
#X obj 1454 282 gate 2;
#X obj 1454 307 random 10;
#X msg 1398 282 seed \$1;
#X obj 1350 52 inlet;
#X obj 1352 150 gate 2;
#X obj 865 591 diceTone-p;
#X obj 935 591 diceTone-p2;
#X obj 1013 592 simph-p;
#X obj 1062 592 simph-p2;
#X obj 618 847 outlet~;
#X obj 677 847 outlet~;
#X obj 738 847 outlet~;
#X obj 797 847 outlet~;
#X obj 865 846 outlet~;
#X obj 935 846 outlet~;
#X obj 1013 847 outlet~;
#X obj 1062 847 outlet~;
#X obj 768 514 mod 4;
#X obj 813 514 mod 5;
#X obj 722 540 maxlib/scale 0 100 1 50;
#X obj 918 514 mod 4;
#X obj 963 514 mod 5;
#X obj 872 540 maxlib/scale 0 100 1 50;
#X obj 1068 514 mod 4;
#X obj 1113 514 mod 5;
#X obj 1022 540 maxlib/scale 0 100 1 50;
#X obj 22 78 r ale1;
#X obj 212 78 r ale2;
#X obj 402 78 r ale3;
#X obj 592 78 r ale4;
#X obj 782 78 r ale5;
#X obj 1162 78 r ale7;
#X obj 1352 78 r ale8;
#X obj 22 182 r ale9;
#X obj 212 182 r ale10;
#X obj 402 182 r ale11;
#X obj 592 182 r ale12;
#X obj 782 182 r ale13;
#X obj 960 180 r ale14;
#X obj 1162 182 r ale15;
#X obj 1352 182 r ale16;
#X obj 32 358 r ale17;
#X obj 77 358 r ale18;
#X obj 131 358 r ale17;
#X obj 176 358 r ale18;
#X obj 222 358 r ale19;
#X obj 267 358 r ale20;
#X obj 321 358 r ale19;
#X obj 366 358 r ale20;
#X obj 412 358 r ale1;
#X obj 457 358 r ale2;
#X obj 511 358 r ale1;
#X obj 556 358 r ale2;
#X obj 602 358 r ale3;
#X obj 647 358 r ale4;
#X obj 701 358 r ale3;
#X obj 746 358 r ale4;
#X obj 792 358 r ale5;
#X obj 837 358 r ale6;
#X obj 891 358 r ale5;
#X obj 936 358 r ale6;
#X obj 982 358 r ale7;
#X obj 1027 358 r ale8;
#X obj 1081 358 r ale7;
#X obj 1126 358 r ale8;
#X obj 1172 358 r ale9;
#X obj 1271 358 r ale9;
#X obj 1217 358 r ale10;
#X obj 1316 358 r ale10;
#X obj 1362 358 r ale11;
#X obj 1407 358 r ale12;
#X obj 1461 358 r ale11;
#X obj 1506 358 r ale12;
#X obj 572 515 r ale13;
#X obj 618 489 r ale14;
#X obj 663 489 r ale15;
#X obj 722 515 r ale16;
#X obj 768 489 r ale17;
#X obj 813 489 r ale18;
#X obj 872 515 r ale19;
#X obj 918 489 r ale20;
#X obj 963 489 r ale1;
#X obj 1022 515 r ale2;
#X obj 1068 489 r ale3;
#X obj 1113 489 r ale4;
#X obj 1220 550 tgl 15 0 empty empty empty 17 7 0 10 #fcfcfc #000000
#000000 0 1;
#X obj 738 592 samph3;
#X obj 797 592 samph4;
#X obj 1717 602 noise-pops;
#X obj 1793 602 simph-del;
#X obj 1655 578 tgl 15 0 empty empty empty 17 7 0 10 #fcfcfc #000000
#000000 0 1;
#X obj 1717 578 tgl 15 0 empty empty empty 17 7 0 10 #fcfcfc #000000
#000000 0 1;
#X obj 1793 578 tgl 15 0 empty empty empty 17 7 0 10 #fcfcfc #000000
#000000 0 1;
#X obj 1260 547 r choron;
#X obj 1624 54 inlet;
#X obj 1684 54 inlet;
#X obj 1764 54 inlet;
#X obj 1575 726 outlet~;
#X obj 1625 736 outlet~;
#X obj 1723 727 outlet~;
#X obj 1802 727 outlet~;
#X obj 575 813 *~;
#X msg 603 796 \$1 15;
#X obj 603 821 line;
#X obj 645 813 *~;
#X msg 673 796 \$1 15;
#X obj 673 821 line;
#X obj 715 813 *~;
#X msg 743 796 \$1 15;
#X obj 743 821 line;
#X obj 785 813 *~;
#X msg 813 796 \$1 15;
#X obj 813 821 line;
#X obj 1534 457 route float bang;
#X obj 1644 457 route float bang;
#X obj 1754 457 route float bang;
#X obj 1655 602 grains-p1;
#X obj 639 620 byon-adsr;
#X obj 698 620 byon-adsr;
#X obj 759 620 byon-adsr;
#X obj 818 620 byon-adsr;
#X obj 886 624 byon-adsr;
#X obj 956 624 byon-adsr;
#X obj 1030 620 byon-adsr;
#X obj 1083 620 byon-adsr;
#X obj 520 699 s samph1adsr;
#X obj 610 699 s samph2adsr;
#X obj 700 699 s samph3adsr;
#X obj 790 699 s samph4adsr;
#X obj 880 699 s diceTone1adsr;
#X obj 1080 699 s simph1adsr;
#X obj 1170 699 s simph2adsr;
#X obj 980 699 s diceTone2adsr;
#X obj 1700 530 s noise-popsHit;
#X obj 1560 610 s boidsOnOff1;
#X obj 1260 572 change;
#X obj 1210 600 s offSamph1;
#X obj 1220 620 s offSamph2;
#X obj 1230 640 s offSamph3;
#X obj 1240 660 s offSamph4;
#X obj 1250 680 s offDiceTone1;
#X obj 1260 700 s offDiceTone2;
#X obj 1270 720 s offSimph1;
#X obj 1280 740 s offSimph2;
#X msg 700 65 7;
#X msg 730 70 10;
#X obj 700 40 del 500;
#X obj 700 10 loadbang;
#X obj 55 328 myDrunk;
#X obj 157 328 myDrunk;
#X obj 245 328 myDrunk;
#X obj 347 328 myDrunk;
#X obj 435 328 myDrunk;
#X obj 537 328 myDrunk;
#X obj 625 328 myDrunk;
#X obj 727 328 myDrunk;
#X obj 815 328 myDrunk;
#X obj 917 328 myDrunk;
#X obj 1005 328 myDrunk;
#X obj 1107 328 myDrunk;
#X obj 1195 328 myDrunk;
#X obj 1297 328 myDrunk;
#X obj 1385 328 myDrunk;
#X obj 1487 328 myDrunk;
#X obj 22 101 mod 2;
#X obj 212 101 mod 2;
#X obj 402 101 mod 2;
#X obj 590 100 mod 2;
#X obj 782 101 mod 2;
#X obj 972 101 mod 2;
#X obj 1162 101 mod 2;
#X obj 1352 101 mod 2;
#X obj 152 26 bng 15 250 50 0 empty empty empty 17 7 0 10 #fcfcfc #000000
#000000;
#X obj 80 17 bng 15 250 50 0 empty empty empty 17 7 0 10 #fcfcfc #000000
#000000;
#X obj 80 40 t b b;
#X obj 22 207 t f f;
#X obj 212 207 t f f;
#X obj 402 207 t f f;
#X obj 592 207 t f f;
#X obj 782 207 t f f;
#X obj 960 205 t f f;
#X obj 1162 207 t f f;
#X obj 1352 207 t f f;
#X connect 0 0 166 0;
#X connect 1 0 167 0;
#X connect 2 0 168 0;
#X connect 3 0 169 0;
#X connect 4 0 254 0;
#X connect 5 0 257 0;
#X connect 6 0 4 0;
#X connect 7 0 5 0;
#X connect 8 0 260 0;
#X connect 9 0 263 0;
#X connect 10 0 6 0;
#X connect 11 0 6 0;
#X connect 12 0 6 1;
#X connect 13 0 6 3;
#X connect 14 0 6 2;
#X connect 15 0 11 1;
#X connect 16 0 11 2;
#X connect 17 0 10 1;
#X connect 18 0 10 2;
#X connect 19 0 30 0;
#X connect 20 0 22 0;
#X connect 21 0 20 0;
#X connect 22 0 23 0;
#X connect 22 1 301 0;
#X connect 23 0 10 0;
#X connect 24 0 26 0;
#X connect 25 0 24 0;
#X connect 26 0 27 0;
#X connect 26 1 302 0;
#X connect 27 0 11 0;
#X connect 28 0 27 0;
#X connect 28 0 23 0;
#X connect 28 0 301 0;
#X connect 28 0 302 0;
#X connect 29 0 30 1;
#X connect 29 0 270 1;
#X connect 30 0 22 1;
#X connect 30 1 26 1;
#X connect 31 0 7 0;
#X connect 32 0 7 0;
#X connect 33 0 32 1;
#X connect 34 0 32 2;
#X connect 35 0 31 1;
#X connect 36 0 31 2;
#X connect 37 0 48 0;
#X connect 38 0 40 0;
#X connect 39 0 38 0;
#X connect 40 0 41 0;
#X connect 40 1 303 0;
#X connect 41 0 31 0;
#X connect 42 0 44 0;
#X connect 43 0 42 0;
#X connect 44 0 45 0;
#X connect 44 1 304 0;
#X connect 45 0 32 0;
#X connect 46 0 45 0;
#X connect 46 0 41 0;
#X connect 46 0 303 0;
#X connect 46 0 304 0;
#X connect 47 0 48 1;
#X connect 47 0 271 1;
#X connect 48 0 40 1;
#X connect 48 1 44 1;
#X connect 49 0 239 0;
#X connect 50 0 239 0;
#X connect 51 0 50 1;
#X connect 52 0 50 2;
#X connect 53 0 49 1;
#X connect 54 0 49 2;
#X connect 55 0 66 0;
#X connect 56 0 58 0;
#X connect 57 0 56 0;
#X connect 58 0 59 0;
#X connect 58 1 305 0;
#X connect 59 0 49 0;
#X connect 60 0 62 0;
#X connect 61 0 60 0;
#X connect 62 0 63 0;
#X connect 62 1 306 0;
#X connect 63 0 50 0;
#X connect 64 0 63 0;
#X connect 64 0 59 0;
#X connect 64 0 305 0;
#X connect 64 0 306 0;
#X connect 65 0 66 1;
#X connect 65 0 272 1;
#X connect 66 0 58 1;
#X connect 66 1 62 1;
#X connect 67 0 240 0;
#X connect 68 0 240 0;
#X connect 69 0 68 1;
#X connect 70 0 68 2;
#X connect 71 0 67 1;
#X connect 72 0 67 2;
#X connect 73 0 84 0;
#X connect 74 0 76 0;
#X connect 75 0 74 0;
#X connect 76 0 77 0;
#X connect 76 1 307 0;
#X connect 77 0 67 0;
#X connect 78 0 80 0;
#X connect 79 0 78 0;
#X connect 80 0 81 0;
#X connect 80 1 308 0;
#X connect 81 0 68 0;
#X connect 82 0 81 0;
#X connect 82 0 77 0;
#X connect 82 0 307 0;
#X connect 82 0 308 0;
#X connect 83 0 84 1;
#X connect 83 0 273 1;
#X connect 84 0 76 1;
#X connect 84 1 80 1;
#X connect 85 0 158 1;
#X connect 86 0 158 1;
#X connect 87 0 86 1;
#X connect 88 0 86 2;
#X connect 89 0 85 1;
#X connect 90 0 85 2;
#X connect 91 0 102 0;
#X connect 92 0 94 0;
#X connect 93 0 92 0;
#X connect 94 0 95 0;
#X connect 94 1 309 0;
#X connect 95 0 85 0;
#X connect 96 0 98 0;
#X connect 97 0 96 0;
#X connect 98 0 99 0;
#X connect 98 1 310 0;
#X connect 99 0 86 0;
#X connect 100 0 99 0;
#X connect 100 0 95 0;
#X connect 100 0 309 0;
#X connect 100 0 310 0;
#X connect 101 0 102 1;
#X connect 101 0 274 1;
#X connect 102 0 94 1;
#X connect 102 1 98 1;
#X connect 103 0 159 1;
#X connect 104 0 159 1;
#X connect 105 0 104 1;
#X connect 106 0 104 2;
#X connect 107 0 103 1;
#X connect 108 0 103 2;
#X connect 109 0 322 0;
#X connect 110 0 121 0;
#X connect 111 0 113 0;
#X connect 112 0 111 0;
#X connect 113 0 114 0;
#X connect 113 1 311 0;
#X connect 114 0 103 0;
#X connect 115 0 117 0;
#X connect 116 0 115 0;
#X connect 117 0 118 0;
#X connect 117 1 312 0;
#X connect 118 0 104 0;
#X connect 119 0 118 0;
#X connect 119 0 114 0;
#X connect 119 0 311 0;
#X connect 119 0 312 0;
#X connect 120 0 121 1;
#X connect 120 0 275 1;
#X connect 121 0 113 1;
#X connect 121 1 117 1;
#X connect 122 0 160 1;
#X connect 123 0 160 1;
#X connect 124 0 123 1;
#X connect 125 0 123 2;
#X connect 126 0 122 1;
#X connect 127 0 122 2;
#X connect 128 0 139 0;
#X connect 129 0 131 0;
#X connect 130 0 129 0;
#X connect 131 0 132 0;
#X connect 131 1 313 0;
#X connect 132 0 122 0;
#X connect 133 0 135 0;
#X connect 134 0 133 0;
#X connect 135 0 136 0;
#X connect 135 1 314 0;
#X connect 136 0 123 0;
#X connect 137 0 136 0;
#X connect 137 0 132 0;
#X connect 137 0 313 0;
#X connect 137 0 314 0;
#X connect 138 0 139 1;
#X connect 138 0 276 1;
#X connect 139 0 131 1;
#X connect 139 1 135 1;
#X connect 140 0 161 1;
#X connect 141 0 161 1;
#X connect 142 0 141 1;
#X connect 143 0 141 2;
#X connect 144 0 140 1;
#X connect 145 0 140 2;
#X connect 146 0 157 0;
#X connect 147 0 149 0;
#X connect 148 0 147 0;
#X connect 149 0 150 0;
#X connect 149 1 315 0;
#X connect 150 0 140 0;
#X connect 151 0 153 0;
#X connect 152 0 151 0;
#X connect 153 0 154 0;
#X connect 153 1 316 0;
#X connect 154 0 141 0;
#X connect 155 0 154 0;
#X connect 155 0 150 0;
#X connect 155 0 315 0;
#X connect 155 0 316 0;
#X connect 156 0 157 1;
#X connect 156 0 277 1;
#X connect 157 0 149 1;
#X connect 157 1 153 1;
#X connect 158 0 0 0;
#X connect 159 0 1 0;
#X connect 160 0 2 0;
#X connect 161 0 3 0;
#X connect 170 0 7 1;
#X connect 171 0 7 3;
#X connect 172 0 7 2;
#X connect 173 0 239 1;
#X connect 174 0 239 3;
#X connect 175 0 239 2;
#X connect 176 0 240 1;
#X connect 177 0 240 3;
#X connect 178 0 240 2;
#X connect 179 0 317 0;
#X connect 180 0 318 0;
#X connect 181 0 319 0;
#X connect 182 0 320 0;
#X connect 183 0 321 0;
#X connect 184 0 323 0;
#X connect 185 0 324 0;
#X connect 186 0 328 0;
#X connect 187 0 329 0;
#X connect 188 0 330 0;
#X connect 189 0 331 0;
#X connect 190 0 332 0;
#X connect 191 0 333 0;
#X connect 192 0 334 0;
#X connect 193 0 335 0;
#X connect 194 0 17 0;
#X connect 195 0 18 0;
#X connect 196 0 15 0;
#X connect 197 0 16 0;
#X connect 198 0 35 0;
#X connect 199 0 36 0;
#X connect 200 0 33 0;
#X connect 201 0 34 0;
#X connect 202 0 53 0;
#X connect 203 0 54 0;
#X connect 204 0 51 0;
#X connect 205 0 52 0;
#X connect 206 0 71 0;
#X connect 207 0 72 0;
#X connect 208 0 69 0;
#X connect 209 0 70 0;
#X connect 210 0 89 0;
#X connect 211 0 90 0;
#X connect 212 0 87 0;
#X connect 213 0 88 0;
#X connect 214 0 107 0;
#X connect 215 0 108 0;
#X connect 216 0 105 0;
#X connect 217 0 106 0;
#X connect 218 0 126 0;
#X connect 219 0 124 0;
#X connect 220 0 127 0;
#X connect 221 0 125 0;
#X connect 222 0 144 0;
#X connect 223 0 145 0;
#X connect 224 0 142 0;
#X connect 225 0 143 0;
#X connect 226 0 14 0;
#X connect 227 0 12 0;
#X connect 228 0 13 0;
#X connect 229 0 172 0;
#X connect 230 0 170 0;
#X connect 231 0 171 0;
#X connect 232 0 175 0;
#X connect 233 0 173 0;
#X connect 234 0 174 0;
#X connect 235 0 178 0;
#X connect 236 0 176 0;
#X connect 237 0 177 0;
#X connect 238 0 161 0;
#X connect 238 0 160 0;
#X connect 238 0 159 0;
#X connect 238 0 158 0;
#X connect 238 0 264 0;
#X connect 238 0 261 0;
#X connect 238 0 258 0;
#X connect 238 0 255 0;
#X connect 238 0 289 0;
#X connect 238 0 296 0;
#X connect 238 0 295 0;
#X connect 238 0 294 0;
#X connect 238 0 293 0;
#X connect 238 0 292 0;
#X connect 238 0 291 0;
#X connect 238 0 290 0;
#X connect 239 0 8 0;
#X connect 240 0 9 0;
#X connect 241 0 252 0;
#X connect 242 0 253 0;
#X connect 243 0 269 0;
#X connect 243 0 287 0;
#X connect 244 0 241 0;
#X connect 245 0 242 0;
#X connect 246 0 288 0;
#X connect 247 0 266 0;
#X connect 248 0 267 0;
#X connect 249 0 268 0;
#X connect 254 0 162 0;
#X connect 255 0 256 0;
#X connect 256 0 254 1;
#X connect 257 0 163 0;
#X connect 258 0 259 0;
#X connect 259 0 257 1;
#X connect 260 0 164 0;
#X connect 261 0 262 0;
#X connect 262 0 260 1;
#X connect 263 0 165 0;
#X connect 264 0 265 0;
#X connect 265 0 263 1;
#X connect 266 0 243 0;
#X connect 266 1 269 1;
#X connect 267 0 244 0;
#X connect 267 1 286 0;
#X connect 267 1 241 1;
#X connect 268 0 245 0;
#X connect 268 1 242 1;
#X connect 269 0 250 0;
#X connect 269 1 251 0;
#X connect 270 0 4 1;
#X connect 270 0 278 0;
#X connect 271 0 5 1;
#X connect 271 0 279 0;
#X connect 272 0 8 1;
#X connect 272 0 280 0;
#X connect 273 0 9 1;
#X connect 273 0 281 0;
#X connect 274 0 0 1;
#X connect 274 0 282 0;
#X connect 275 0 1 1;
#X connect 275 0 285 0;
#X connect 276 0 2 1;
#X connect 276 0 283 0;
#X connect 277 0 3 1;
#X connect 277 0 284 0;
#X connect 288 0 238 0;
#X connect 297 0 301 1;
#X connect 297 0 303 1;
#X connect 297 0 305 1;
#X connect 297 0 307 1;
#X connect 297 0 309 1;
#X connect 297 0 311 1;
#X connect 297 0 313 1;
#X connect 297 0 315 1;
#X connect 298 0 302 1;
#X connect 298 0 304 1;
#X connect 298 0 306 1;
#X connect 298 0 308 1;
#X connect 298 0 310 1;
#X connect 298 0 312 1;
#X connect 298 0 314 1;
#X connect 298 0 316 1;
#X connect 299 0 297 0;
#X connect 299 0 298 0;
#X connect 300 0 299 0;
#X connect 301 0 10 0;
#X connect 302 0 11 0;
#X connect 303 0 31 0;
#X connect 304 0 32 0;
#X connect 305 0 49 0;
#X connect 306 0 50 0;
#X connect 307 0 67 0;
#X connect 308 0 68 0;
#X connect 309 0 85 0;
#X connect 310 0 86 0;
#X connect 311 0 103 0;
#X connect 312 0 104 0;
#X connect 313 0 122 0;
#X connect 314 0 123 0;
#X connect 315 0 140 0;
#X connect 316 0 141 0;
#X connect 317 0 19 0;
#X connect 318 0 37 0;
#X connect 319 0 55 0;
#X connect 320 0 73 0;
#X connect 321 0 91 0;
#X connect 322 0 110 0;
#X connect 323 0 128 0;
#X connect 324 0 146 0;
#X connect 325 0 157 1;
#X connect 325 0 139 1;
#X connect 325 0 121 1;
#X connect 325 0 102 1;
#X connect 325 0 84 1;
#X connect 325 0 66 1;
#X connect 325 0 48 1;
#X connect 325 0 277 1;
#X connect 325 0 276 1;
#X connect 325 0 275 1;
#X connect 325 0 274 1;
#X connect 325 0 273 1;
#X connect 325 0 272 1;
#X connect 325 0 271 1;
#X connect 326 0 327 0;
#X connect 327 0 30 1;
#X connect 327 0 270 1;
#X connect 327 1 325 0;
#X connect 328 0 21 0;
#X connect 328 0 25 0;
#X connect 328 1 28 0;
#X connect 329 0 39 0;
#X connect 329 0 43 0;
#X connect 329 1 46 0;
#X connect 330 0 57 0;
#X connect 330 0 61 0;
#X connect 330 1 64 0;
#X connect 331 0 75 0;
#X connect 331 0 79 0;
#X connect 331 1 82 0;
#X connect 332 0 93 0;
#X connect 332 0 97 0;
#X connect 332 1 100 0;
#X connect 333 0 112 0;
#X connect 333 0 116 0;
#X connect 333 1 119 0;
#X connect 334 0 130 0;
#X connect 334 0 134 0;
#X connect 334 1 137 0;
#X connect 335 0 148 0;
#X connect 335 0 152 0;
#X connect 335 1 155 0;
