#N canvas -8 -8 1708 866 10;
#X obj 394 179 osc~;
#X obj 470 174 phasor~;
#X obj 470 370 *~;
#X obj 546 369 *~;
#X obj 396 370 *~;
#X obj 547 172 phasor~;
#X obj 547 196 -~ 0.5;
#X obj 547 221 abs~;
#X obj 547 246 *~ 4;
#X obj 547 271 -~ 1;
#X obj 340 55 mtof;
#X floatatom 340 31 5 0 0 0 - - -, f 5;
#X obj 485 349 line;
#X msg 485 301 0;
#X msg 485 326 \$1 10;
#X msg 517 301 1;
#X obj 561 347 line;
#X msg 561 299 0;
#X msg 561 324 \$1 10;
#X msg 593 299 1;
#X obj 411 349 line;
#X msg 411 301 0;
#X msg 411 326 \$1 10;
#X msg 443 301 1;
#X obj 411 273 sel 0 1 2;
#X obj 612 197 osc~;
#X obj 688 192 phasor~;
#X obj 688 388 *~;
#X obj 764 387 *~;
#X obj 614 388 *~;
#X obj 765 190 phasor~;
#X obj 765 214 -~ 0.5;
#X obj 765 239 abs~;
#X obj 765 264 *~ 4;
#X obj 765 289 -~ 1;
#X obj 703 367 line;
#X msg 703 319 0;
#X msg 703 344 \$1 10;
#X msg 735 319 1;
#X obj 779 365 line;
#X msg 779 317 0;
#X msg 779 342 \$1 10;
#X msg 812 317 1;
#X obj 629 367 line;
#X msg 629 319 0;
#X msg 629 344 \$1 10;
#X msg 661 319 1;
#X obj 629 291 sel 0 1 2;
#X obj 538 473 *~ 1;
#X obj 828 193 osc~;
#X obj 904 188 phasor~;
#X obj 904 384 *~;
#X obj 980 383 *~;
#X obj 830 384 *~;
#X obj 981 186 phasor~;
#X obj 981 210 -~ 0.5;
#X obj 981 235 abs~;
#X obj 981 260 *~ 4;
#X obj 981 285 -~ 1;
#X obj 919 363 line;
#X msg 919 315 0;
#X msg 919 340 \$1 10;
#X msg 951 315 1;
#X obj 995 361 line;
#X msg 995 313 0;
#X msg 995 338 \$1 10;
#X msg 1027 313 1;
#X obj 845 363 line;
#X msg 845 315 0;
#X msg 845 340 \$1 10;
#X msg 877 315 1;
#X obj 845 287 sel 0 1 2;
#X obj 830 168 * 2;
#X obj 614 172 * 1.02;
#X obj 1058 198 osc~;
#X obj 1134 193 phasor~;
#X obj 1134 389 *~;
#X obj 1210 388 *~;
#X obj 1060 389 *~;
#X obj 1211 191 phasor~;
#X obj 1211 215 -~ 0.5;
#X obj 1211 240 abs~;
#X obj 1211 265 *~ 4;
#X obj 1211 290 -~ 1;
#X obj 1149 368 line;
#X msg 1149 320 0;
#X msg 1149 345 \$1 10;
#X msg 1181 320 1;
#X obj 1225 366 line;
#X msg 1225 318 0;
#X msg 1225 343 \$1 10;
#X msg 1257 318 1;
#X obj 1075 368 line;
#X msg 1075 320 0;
#X msg 1075 345 \$1 10;
#X msg 1107 320 1;
#X obj 1075 292 sel 0 1 2;
#X obj 111 218 noise~;
#X obj 111 243 bp~;
#X obj 111 267 *~ 50;
#X obj 1060 172 * 2.002;
#X obj 111 359 *~;
#X obj 126 336 vline~;
#X obj 71 217 t b f;
#X obj 397 409 *~ 0.4;
#X obj 612 424 *~ 0.2;
#X obj 831 426 *~ 0.3;
#X obj 1059 431 *~ 0.2;
#X obj 111 292 clip~ -0.3 0.3;
#X obj 538 498 clip~ -1 1;
#X msg 126 314 1 10 \, 0.5 40 20;
#X obj 410 64 mod 3;
#X obj 630 63 mod 3;
#X obj 844 61 mod 3;
#X obj 1077 66 mod 3;
#X obj 165 194 maxlib/scale 0 100 4 50;
#X obj 172 9 inlet;
#X msg 111 194 seed \$1;
#X obj 165 169 r ale1;
#X obj 410 39 r ale2;
#X obj 630 38 r ale3;
#X obj 844 36 r ale4;
#X obj 1077 41 r ale5;
#X obj 556 616 *~;
#X obj 556 681 outlet~;
#X obj 68 10 inlet;
#X obj 68 35 tgl 15 0 empty empty empty 17 7 0 10 #fcfcfc #000000 #000000
0 1;
#X obj 640 472 sel 0 1;
#X obj 655 501 r sect-del;
#X obj 640 556 f;
#X obj 655 526 pipe 1000;
#X msg 640 581 0 \$1;
#X msg 660 605 1 30;
#X obj 640 636 line;
#X obj 111 169 r inp-p;
#X obj 770 100 r phaRes;
#X connect 0 0 4 0;
#X connect 1 0 2 0;
#X connect 2 0 104 0;
#X connect 3 0 104 0;
#X connect 4 0 104 0;
#X connect 5 0 6 0;
#X connect 6 0 7 0;
#X connect 7 0 8 0;
#X connect 8 0 9 0;
#X connect 9 0 3 0;
#X connect 10 0 5 0;
#X connect 10 0 1 0;
#X connect 10 0 0 0;
#X connect 10 0 72 0;
#X connect 10 0 73 0;
#X connect 10 0 100 0;
#X connect 10 0 103 0;
#X connect 11 0 10 0;
#X connect 12 0 2 1;
#X connect 13 0 14 0;
#X connect 14 0 12 0;
#X connect 15 0 14 0;
#X connect 16 0 3 1;
#X connect 17 0 18 0;
#X connect 18 0 16 0;
#X connect 19 0 18 0;
#X connect 20 0 4 1;
#X connect 21 0 22 0;
#X connect 22 0 20 0;
#X connect 23 0 22 0;
#X connect 24 0 23 0;
#X connect 24 0 13 0;
#X connect 24 0 17 0;
#X connect 24 1 15 0;
#X connect 24 1 21 0;
#X connect 24 1 17 0;
#X connect 24 2 19 0;
#X connect 24 2 13 0;
#X connect 24 2 21 0;
#X connect 25 0 29 0;
#X connect 26 0 27 0;
#X connect 27 0 105 0;
#X connect 28 0 105 0;
#X connect 29 0 105 0;
#X connect 30 0 31 0;
#X connect 31 0 32 0;
#X connect 32 0 33 0;
#X connect 33 0 34 0;
#X connect 34 0 28 0;
#X connect 35 0 27 1;
#X connect 36 0 37 0;
#X connect 37 0 35 0;
#X connect 38 0 37 0;
#X connect 39 0 28 1;
#X connect 40 0 41 0;
#X connect 41 0 39 0;
#X connect 42 0 41 0;
#X connect 43 0 29 1;
#X connect 44 0 45 0;
#X connect 45 0 43 0;
#X connect 46 0 45 0;
#X connect 47 0 46 0;
#X connect 47 0 36 0;
#X connect 47 0 40 0;
#X connect 47 1 38 0;
#X connect 47 1 44 0;
#X connect 47 1 40 0;
#X connect 47 2 42 0;
#X connect 47 2 36 0;
#X connect 47 2 44 0;
#X connect 48 0 109 0;
#X connect 49 0 53 0;
#X connect 50 0 51 0;
#X connect 51 0 106 0;
#X connect 52 0 106 0;
#X connect 53 0 106 0;
#X connect 54 0 55 0;
#X connect 55 0 56 0;
#X connect 56 0 57 0;
#X connect 57 0 58 0;
#X connect 58 0 52 0;
#X connect 59 0 51 1;
#X connect 60 0 61 0;
#X connect 61 0 59 0;
#X connect 62 0 61 0;
#X connect 63 0 52 1;
#X connect 64 0 65 0;
#X connect 65 0 63 0;
#X connect 66 0 65 0;
#X connect 67 0 53 1;
#X connect 68 0 69 0;
#X connect 69 0 67 0;
#X connect 70 0 69 0;
#X connect 71 0 70 0;
#X connect 71 0 60 0;
#X connect 71 0 64 0;
#X connect 71 1 62 0;
#X connect 71 1 68 0;
#X connect 71 1 64 0;
#X connect 71 2 66 0;
#X connect 71 2 60 0;
#X connect 71 2 68 0;
#X connect 72 0 49 0;
#X connect 72 0 50 0;
#X connect 72 0 54 0;
#X connect 73 0 25 0;
#X connect 73 0 26 0;
#X connect 73 0 30 0;
#X connect 74 0 78 0;
#X connect 75 0 76 0;
#X connect 76 0 107 0;
#X connect 77 0 107 0;
#X connect 78 0 107 0;
#X connect 79 0 80 0;
#X connect 80 0 81 0;
#X connect 81 0 82 0;
#X connect 82 0 83 0;
#X connect 83 0 77 0;
#X connect 84 0 76 1;
#X connect 85 0 86 0;
#X connect 86 0 84 0;
#X connect 87 0 86 0;
#X connect 88 0 77 1;
#X connect 89 0 90 0;
#X connect 90 0 88 0;
#X connect 91 0 90 0;
#X connect 92 0 78 1;
#X connect 93 0 94 0;
#X connect 94 0 92 0;
#X connect 95 0 94 0;
#X connect 96 0 95 0;
#X connect 96 0 85 0;
#X connect 96 0 89 0;
#X connect 96 1 87 0;
#X connect 96 1 93 0;
#X connect 96 1 89 0;
#X connect 96 2 91 0;
#X connect 96 2 85 0;
#X connect 96 2 93 0;
#X connect 97 0 98 0;
#X connect 98 0 99 0;
#X connect 99 0 108 0;
#X connect 100 0 74 0;
#X connect 100 0 75 0;
#X connect 100 0 79 0;
#X connect 101 0 48 0;
#X connect 102 0 101 1;
#X connect 103 0 110 0;
#X connect 103 1 98 1;
#X connect 104 0 48 0;
#X connect 105 0 48 0;
#X connect 106 0 48 0;
#X connect 107 0 48 0;
#X connect 108 0 101 0;
#X connect 109 0 123 0;
#X connect 110 0 102 0;
#X connect 111 0 24 0;
#X connect 112 0 47 0;
#X connect 113 0 71 0;
#X connect 114 0 96 0;
#X connect 115 0 98 2;
#X connect 116 0 11 0;
#X connect 117 0 97 0;
#X connect 118 0 115 0;
#X connect 119 0 111 0;
#X connect 120 0 112 0;
#X connect 121 0 113 0;
#X connect 122 0 114 0;
#X connect 123 0 124 0;
#X connect 125 0 126 0;
#X connect 126 0 127 0;
#X connect 127 0 129 0;
#X connect 127 1 132 0;
#X connect 128 0 130 0;
#X connect 129 0 131 0;
#X connect 130 0 129 1;
#X connect 131 0 133 0;
#X connect 132 0 133 0;
#X connect 133 0 123 1;
#X connect 134 0 117 0;
#X connect 135 0 1 1;
#X connect 135 0 79 1;
#X connect 135 0 75 1;
#X connect 135 0 74 1;
#X connect 135 0 54 1;
#X connect 135 0 50 1;
#X connect 135 0 49 1;
#X connect 135 0 30 1;
#X connect 135 0 26 1;
#X connect 135 0 25 1;
#X connect 135 0 5 1;
#X connect 135 0 0 1;
