#N canvas 0 0 1693 850 10;
#X obj 474 179 osc~;
#X obj 550 174 phasor~;
#X obj 550 370 *~;
#X obj 626 369 *~;
#X obj 476 370 *~;
#X obj 627 172 phasor~;
#X obj 627 196 -~ 0.5;
#X obj 627 221 abs~;
#X obj 627 246 *~ 4;
#X obj 627 271 -~ 1;
#X obj 420 55 mtof;
#X floatatom 420 31 5 0 0 0 - - -, f 5;
#X obj 565 349 line;
#X msg 565 301 0;
#X msg 565 326 \$1 10;
#X msg 597 301 1;
#X obj 641 347 line;
#X msg 641 299 0;
#X msg 641 324 \$1 10;
#X msg 673 299 1;
#X obj 491 349 line;
#X msg 491 301 0;
#X msg 491 326 \$1 10;
#X msg 523 301 1;
#X obj 491 273 sel 0 1 2;
#X obj 692 197 osc~;
#X obj 768 192 phasor~;
#X obj 768 388 *~;
#X obj 844 387 *~;
#X obj 694 388 *~;
#X obj 845 190 phasor~;
#X obj 845 214 -~ 0.5;
#X obj 845 239 abs~;
#X obj 845 264 *~ 4;
#X obj 845 289 -~ 1;
#X obj 783 367 line;
#X msg 783 319 0;
#X msg 783 344 \$1 10;
#X msg 815 319 1;
#X obj 859 365 line;
#X msg 859 317 0;
#X msg 859 342 \$1 10;
#X msg 892 317 1;
#X obj 709 367 line;
#X msg 709 319 0;
#X msg 709 344 \$1 10;
#X msg 741 319 1;
#X obj 709 291 sel 0 1 2;
#X obj 618 473 *~ 1;
#X obj 908 193 osc~;
#X obj 984 188 phasor~;
#X obj 984 384 *~;
#X obj 1060 383 *~;
#X obj 910 384 *~;
#X obj 1061 186 phasor~;
#X obj 1061 210 -~ 0.5;
#X obj 1061 235 abs~;
#X obj 1061 260 *~ 4;
#X obj 1061 285 -~ 1;
#X obj 999 363 line;
#X msg 999 315 0;
#X msg 999 340 \$1 10;
#X msg 1031 315 1;
#X obj 1075 361 line;
#X msg 1075 313 0;
#X msg 1075 338 \$1 10;
#X msg 1107 313 1;
#X obj 925 363 line;
#X msg 925 315 0;
#X msg 925 340 \$1 10;
#X msg 957 315 1;
#X obj 925 287 sel 0 1 2;
#X obj 910 168 * 2;
#X obj 694 172 * 1.02;
#X obj 1138 198 osc~;
#X obj 1214 193 phasor~;
#X obj 1214 389 *~;
#X obj 1290 388 *~;
#X obj 1140 389 *~;
#X obj 1291 191 phasor~;
#X obj 1291 215 -~ 0.5;
#X obj 1291 240 abs~;
#X obj 1291 265 *~ 4;
#X obj 1291 290 -~ 1;
#X obj 1229 368 line;
#X msg 1229 320 0;
#X msg 1229 345 \$1 10;
#X msg 1261 320 1;
#X obj 1305 366 line;
#X msg 1305 318 0;
#X msg 1305 343 \$1 10;
#X msg 1337 318 1;
#X obj 1155 368 line;
#X msg 1155 320 0;
#X msg 1155 345 \$1 10;
#X msg 1187 320 1;
#X obj 1155 292 sel 0 1 2;
#X obj 191 488 noise~;
#X obj 191 513 bp~;
#X obj 191 537 *~ 50;
#X obj 1140 172 * 2.002;
#X obj 191 629 *~;
#X obj 206 606 vline~;
#X obj 151 487 t b f;
#X obj 477 409 *~ 0.4;
#X obj 692 424 *~ 0.2;
#X obj 911 426 *~ 0.3;
#X obj 1139 431 *~ 0.2;
#X obj 191 562 clip~ -0.3 0.3;
#X obj 618 498 clip~ -1 1;
#X msg 206 584 1 10 \, 0.5 40 20;
#X obj 490 64 mod 3;
#X obj 710 63 mod 3;
#X obj 924 61 mod 3;
#X obj 1157 66 mod 3;
#X obj 245 464 maxlib/scale 0 100 4 50;
#X obj 221 14 inlet;
#X obj 640 676 outlet~;
#X obj 191 439 r inp-n;
#X msg 191 464 seed \$1;
#X obj 119 377 notifier-trunc;
#X obj 213 376 notifier-trunc2;
#X obj 317 375 notifier-mess;
#X text 185 95 choose which scale (3);
#X obj 325 352 mod 5;
#X obj 370 352 mod 4;
#X obj 271 352 mod 4;
#X obj 126 352 mod 5;
#X obj 171 352 mod 4;
#X obj 226 352 mod 4;
#X obj 116 119 gate 3;
#X obj 116 92 mod 3;
#X obj 154 93 + 1;
#X obj 154 225 + 1;
#X obj 116 224 mod 2;
#X obj 116 251 gate 2;
#X obj 116 276 random 7;
#X obj 250 225 + 1;
#X obj 212 224 mod 2;
#X obj 212 251 gate 2;
#X obj 356 225 + 1;
#X obj 318 224 mod 2;
#X obj 318 251 gate 2;
#X obj 212 276 random 13;
#X obj 318 276 random 10;
#X text 380 250 random/drunk;
#X text 380 270 choose;
#X msg 160 200 seed \$1;
#X obj 116 69 r ale10;
#X obj 116 151 r ale11;
#X obj 126 327 r ale12;
#X obj 171 327 r ale13;
#X obj 226 327 r ale12;
#X obj 271 327 r ale13;
#X obj 325 327 r ale12;
#X obj 370 327 r ale13;
#X obj 245 439 r ale14;
#X obj 490 39 r ale15;
#X obj 710 38 r ale16;
#X obj 924 36 r ale17;
#X obj 1157 41 r ale18;
#X obj 648 584 *~;
#X obj 161 14 inlet;
#X obj 181 69 tgl 15 0 empty empty empty 17 7 0 10 #fcfcfc #000000
#000000 0 1;
#X obj 764 592 outlet;
#X text 764 617 passtru;
#X obj 701 477 sel 0 1;
#X obj 716 506 r sect-del;
#X obj 701 561 f;
#X obj 716 531 pipe 1000;
#X msg 701 586 0 \$1;
#X msg 721 610 1 30;
#X obj 701 641 line;
#X obj 161 39 change;
#X obj 270 50 s offSimph2;
#X obj 560 120 r phaRes;
#X obj 790 120 r phaRes;
#X obj 1010 120 r phaRes;
#X obj 1230 130 r phaRes;
#X msg 10 235 7;
#X msg 20 265 13;
#X msg 30 295 10;
#X obj 10 210 del 500;
#X obj 10 180 loadbang;
#X obj 149 297 myDrunk;
#X obj 245 297 myDrunk;
#X obj 351 297 myDrunk;
#X obj 116 176 t f f;
#X connect 0 0 4 0;
#X connect 1 0 2 0;
#X connect 2 0 104 0;
#X connect 3 0 104 0;
#X connect 4 0 104 0;
#X connect 5 0 6 0;
#X connect 6 0 7 0;
#X connect 7 0 8 0;
#X connect 8 0 9 0;
#X connect 9 0 3 0;
#X connect 10 0 5 0;
#X connect 10 0 1 0;
#X connect 10 0 0 0;
#X connect 10 0 72 0;
#X connect 10 0 73 0;
#X connect 10 0 100 0;
#X connect 10 0 103 0;
#X connect 11 0 10 0;
#X connect 12 0 2 1;
#X connect 13 0 14 0;
#X connect 14 0 12 0;
#X connect 15 0 14 0;
#X connect 16 0 3 1;
#X connect 17 0 18 0;
#X connect 18 0 16 0;
#X connect 19 0 18 0;
#X connect 20 0 4 1;
#X connect 21 0 22 0;
#X connect 22 0 20 0;
#X connect 23 0 22 0;
#X connect 24 0 23 0;
#X connect 24 0 13 0;
#X connect 24 0 17 0;
#X connect 24 1 15 0;
#X connect 24 1 21 0;
#X connect 24 1 17 0;
#X connect 24 2 19 0;
#X connect 24 2 13 0;
#X connect 24 2 21 0;
#X connect 25 0 29 0;
#X connect 26 0 27 0;
#X connect 27 0 105 0;
#X connect 28 0 105 0;
#X connect 29 0 105 0;
#X connect 30 0 31 0;
#X connect 31 0 32 0;
#X connect 32 0 33 0;
#X connect 33 0 34 0;
#X connect 34 0 28 0;
#X connect 35 0 27 1;
#X connect 36 0 37 0;
#X connect 37 0 35 0;
#X connect 38 0 37 0;
#X connect 39 0 28 1;
#X connect 40 0 41 0;
#X connect 41 0 39 0;
#X connect 42 0 41 0;
#X connect 43 0 29 1;
#X connect 44 0 45 0;
#X connect 45 0 43 0;
#X connect 46 0 45 0;
#X connect 47 0 46 0;
#X connect 47 0 36 0;
#X connect 47 0 40 0;
#X connect 47 1 38 0;
#X connect 47 1 44 0;
#X connect 47 1 40 0;
#X connect 47 2 42 0;
#X connect 47 2 36 0;
#X connect 47 2 44 0;
#X connect 48 0 109 0;
#X connect 49 0 53 0;
#X connect 50 0 51 0;
#X connect 51 0 106 0;
#X connect 52 0 106 0;
#X connect 53 0 106 0;
#X connect 54 0 55 0;
#X connect 55 0 56 0;
#X connect 56 0 57 0;
#X connect 57 0 58 0;
#X connect 58 0 52 0;
#X connect 59 0 51 1;
#X connect 60 0 61 0;
#X connect 61 0 59 0;
#X connect 62 0 61 0;
#X connect 63 0 52 1;
#X connect 64 0 65 0;
#X connect 65 0 63 0;
#X connect 66 0 65 0;
#X connect 67 0 53 1;
#X connect 68 0 69 0;
#X connect 69 0 67 0;
#X connect 70 0 69 0;
#X connect 71 0 70 0;
#X connect 71 0 60 0;
#X connect 71 0 64 0;
#X connect 71 1 62 0;
#X connect 71 1 68 0;
#X connect 71 1 64 0;
#X connect 71 2 66 0;
#X connect 71 2 60 0;
#X connect 71 2 68 0;
#X connect 72 0 49 0;
#X connect 72 0 50 0;
#X connect 72 0 54 0;
#X connect 73 0 25 0;
#X connect 73 0 26 0;
#X connect 73 0 30 0;
#X connect 74 0 78 0;
#X connect 75 0 76 0;
#X connect 76 0 107 0;
#X connect 77 0 107 0;
#X connect 78 0 107 0;
#X connect 79 0 80 0;
#X connect 80 0 81 0;
#X connect 81 0 82 0;
#X connect 82 0 83 0;
#X connect 83 0 77 0;
#X connect 84 0 76 1;
#X connect 85 0 86 0;
#X connect 86 0 84 0;
#X connect 87 0 86 0;
#X connect 88 0 77 1;
#X connect 89 0 90 0;
#X connect 90 0 88 0;
#X connect 91 0 90 0;
#X connect 92 0 78 1;
#X connect 93 0 94 0;
#X connect 94 0 92 0;
#X connect 95 0 94 0;
#X connect 96 0 95 0;
#X connect 96 0 85 0;
#X connect 96 0 89 0;
#X connect 96 1 87 0;
#X connect 96 1 93 0;
#X connect 96 1 89 0;
#X connect 96 2 91 0;
#X connect 96 2 85 0;
#X connect 96 2 93 0;
#X connect 97 0 98 0;
#X connect 98 0 99 0;
#X connect 99 0 108 0;
#X connect 100 0 74 0;
#X connect 100 0 75 0;
#X connect 100 0 79 0;
#X connect 101 0 48 0;
#X connect 102 0 101 1;
#X connect 103 0 110 0;
#X connect 103 1 98 1;
#X connect 104 0 48 0;
#X connect 105 0 48 0;
#X connect 106 0 48 0;
#X connect 107 0 48 0;
#X connect 108 0 101 0;
#X connect 109 0 161 0;
#X connect 110 0 102 0;
#X connect 111 0 24 0;
#X connect 112 0 47 0;
#X connect 113 0 71 0;
#X connect 114 0 96 0;
#X connect 115 0 98 2;
#X connect 116 0 130 1;
#X connect 116 0 164 0;
#X connect 118 0 119 0;
#X connect 119 0 97 0;
#X connect 120 0 11 0;
#X connect 121 0 11 0;
#X connect 122 0 11 0;
#X connect 124 0 122 1;
#X connect 125 0 122 2;
#X connect 126 0 121 2;
#X connect 127 0 120 1;
#X connect 128 0 120 2;
#X connect 129 0 121 1;
#X connect 130 0 135 1;
#X connect 130 1 139 1;
#X connect 130 2 142 1;
#X connect 131 0 132 0;
#X connect 132 0 130 0;
#X connect 133 0 135 0;
#X connect 134 0 133 0;
#X connect 135 0 136 0;
#X connect 135 1 184 0;
#X connect 136 0 120 0;
#X connect 137 0 139 0;
#X connect 138 0 137 0;
#X connect 139 0 143 0;
#X connect 139 1 185 0;
#X connect 140 0 142 0;
#X connect 141 0 140 0;
#X connect 142 0 144 0;
#X connect 142 1 186 0;
#X connect 143 0 121 0;
#X connect 144 0 122 0;
#X connect 147 0 143 0;
#X connect 147 0 144 0;
#X connect 147 0 136 0;
#X connect 147 0 184 0;
#X connect 147 0 185 0;
#X connect 147 0 186 0;
#X connect 148 0 131 0;
#X connect 149 0 187 0;
#X connect 150 0 127 0;
#X connect 151 0 128 0;
#X connect 152 0 129 0;
#X connect 153 0 126 0;
#X connect 154 0 124 0;
#X connect 155 0 125 0;
#X connect 156 0 115 0;
#X connect 157 0 111 0;
#X connect 158 0 112 0;
#X connect 159 0 113 0;
#X connect 160 0 114 0;
#X connect 161 0 117 0;
#X connect 162 0 173 0;
#X connect 162 0 174 0;
#X connect 163 0 166 0;
#X connect 166 0 168 0;
#X connect 166 1 171 0;
#X connect 167 0 169 0;
#X connect 168 0 170 0;
#X connect 169 0 168 1;
#X connect 170 0 172 0;
#X connect 171 0 172 0;
#X connect 172 0 161 1;
#X connect 173 0 163 0;
#X connect 175 0 1 1;
#X connect 175 0 0 1;
#X connect 175 0 5 1;
#X connect 176 0 26 1;
#X connect 176 0 25 1;
#X connect 176 0 30 1;
#X connect 177 0 50 1;
#X connect 177 0 49 1;
#X connect 177 0 54 1;
#X connect 178 0 75 1;
#X connect 178 0 74 1;
#X connect 178 0 79 1;
#X connect 179 0 184 1;
#X connect 180 0 185 1;
#X connect 181 0 186 1;
#X connect 182 0 179 0;
#X connect 182 0 181 0;
#X connect 182 0 180 0;
#X connect 183 0 182 0;
#X connect 184 0 120 0;
#X connect 185 0 121 0;
#X connect 186 0 122 0;
#X connect 187 0 134 0;
#X connect 187 0 141 0;
#X connect 187 0 138 0;
#X connect 187 1 147 0;
