#N canvas 0 0 1693 850 10;
#X obj 180 343 tgl 15 0 empty empty empty 17 7 0 10 #fcfcfc #000000
#000000 0 1;
#X obj 260 343 tgl 15 0 empty empty empty 17 7 0 10 #fcfcfc #000000
#000000 0 1;
#X obj 340 343 tgl 15 0 empty empty empty 17 7 0 10 #fcfcfc #000000
#000000 0 1;
#X obj 420 343 tgl 15 0 empty empty empty 17 7 0 10 #fcfcfc #000000
#000000 0 1;
#X obj 100 343 tgl 15 0 empty empty empty 17 7 0 10 #fcfcfc #000000
#000000 0 1;
#X obj 180 366 temporizer2;
#X obj 260 365 temporizer3;
#X obj 340 366 temporizer4;
#X obj 420 366 temporizer5;
#X obj 100 366 temporizer1;
#X obj 108 418 list prepend;
#X obj 108 395 t a b;
#X msg 158 395 7;
#X obj 188 418 list prepend;
#X obj 188 395 t a b;
#X obj 268 418 list prepend;
#X obj 268 395 t a b;
#X obj 348 418 list prepend;
#X obj 348 395 t a b;
#X obj 428 418 list prepend;
#X obj 428 395 t a b;
#X msg 238 395 8;
#X msg 318 395 9;
#X msg 398 395 10;
#X msg 478 395 13;
#X obj 108 443 outlet;
#X obj 188 443 outlet;
#X obj 268 443 outlet;
#X obj 348 443 outlet;
#X obj 428 443 outlet;
#X obj 185 227 tgl 15 0 empty empty empty 17 7 0 10 #fcfcfc #000000
#000000 0 1;
#X obj 568 343 tgl 15 0 empty empty empty 17 7 0 10 #fcfcfc #000000
#000000 0 1;
#X obj 568 443 outlet;
#X obj 176 58 r unit;
#X msg 352 164 300000;
#X obj 352 189 s sect-t;
#X msg 317 164 1;
#X obj 246 164 del 300000;
#X obj 176 164 del 310000;
#X obj 176 189 s end;
#X msg 246 189 0;
#X msg 418 165 0 0 0 0 1 1 0 1 1 1 1 1 1 0 1 1;
#X obj 176 108 t b b b b b;
#X obj 460 194 r ale1;
#X obj 460 219 maxlib/scale 0 100 130 180;
#X obj 176 83 pipe 10000;
#X connect 0 0 5 0;
#X connect 1 0 6 0;
#X connect 2 0 7 0;
#X connect 3 0 8 0;
#X connect 4 0 9 0;
#X connect 5 0 14 0;
#X connect 6 0 16 0;
#X connect 7 0 18 0;
#X connect 8 0 20 0;
#X connect 9 0 11 0;
#X connect 10 0 25 0;
#X connect 11 0 10 0;
#X connect 11 0 12 0;
#X connect 12 0 10 1;
#X connect 13 0 26 0;
#X connect 14 0 13 0;
#X connect 14 0 21 0;
#X connect 15 0 27 0;
#X connect 16 0 15 0;
#X connect 16 0 22 0;
#X connect 17 0 28 0;
#X connect 18 0 17 0;
#X connect 18 0 23 0;
#X connect 19 0 29 0;
#X connect 20 0 19 0;
#X connect 20 0 24 0;
#X connect 21 0 13 1;
#X connect 22 0 15 1;
#X connect 23 0 17 1;
#X connect 24 0 19 1;
#X connect 30 0 0 0;
#X connect 30 0 31 0;
#X connect 30 0 4 0;
#X connect 30 0 3 0;
#X connect 30 0 2 0;
#X connect 30 0 1 0;
#X connect 31 0 32 0;
#X connect 33 0 45 0;
#X connect 34 0 35 0;
#X connect 36 0 30 0;
#X connect 37 0 40 0;
#X connect 38 0 39 0;
#X connect 40 0 30 0;
#X connect 41 0 8 2;
#X connect 41 0 9 2;
#X connect 41 0 7 2;
#X connect 41 0 6 2;
#X connect 41 0 5 2;
#X connect 42 0 38 0;
#X connect 42 1 37 0;
#X connect 42 2 36 0;
#X connect 42 3 34 0;
#X connect 42 4 41 0;
#X connect 43 0 44 0;
#X connect 44 0 8 1;
#X connect 44 0 9 1;
#X connect 44 0 7 1;
#X connect 44 0 6 1;
#X connect 44 0 5 1;
#X connect 45 0 42 0;
