#N canvas 827 239 734 565 12;
#N canvas 0 50 450 300 syn 0;
#X obj 540 724 +~ 1;
#X obj 540 695 *~;
#X obj 590 594 *~;
#X obj 635 594 *~;
#X obj 700 1279 outlet~;
#X obj 539 749 *~ 15;
#N canvas 0 50 450 300 waveGen1 0;
#X obj 47 314 *~;
#X msg 69 247 1 20;
#X obj 47 364 outlet~;
#X obj 47 27 inlet~;
#X obj 163 113 hv.osc~ saw;
#X obj 47 113 hv.osc~ sine;
#X obj 161 314 *~;
#X msg 176 247 1 20;
#X msg 219 247 0 20;
#X obj 267 314 *~;
#X msg 287 247 1 20;
#X msg 335 247 0 20;
#X obj 183 155 r inputWave1;
#X floatatom 183 183 5 0 0 0 - - - 12;
#X obj 183 206 sel 0 1 2;
#X obj 69 278 line~;
#X obj 176 278 line~;
#X obj 287 278 line~;
#X msg 115 247 0 20;
#X obj 296 113 phasor~;
#X obj 296 142 -~ 0.5;
#X obj 296 202 *~ 2;
#X obj 296 172 abs~;
#X text 296 89 triangle;
#X connect 0 0 2 0;
#X connect 1 0 15 0;
#X connect 3 0 5 0;
#X connect 3 0 4 0;
#X connect 3 0 19 0;
#X connect 4 0 6 0;
#X connect 5 0 0 0;
#X connect 6 0 2 0;
#X connect 7 0 16 0;
#X connect 8 0 16 0;
#X connect 9 0 2 0;
#X connect 10 0 17 0;
#X connect 11 0 17 0;
#X connect 12 0 13 0;
#X connect 13 0 14 0;
#X connect 14 0 1 0;
#X connect 14 0 8 0;
#X connect 14 0 11 0;
#X connect 14 1 7 0;
#X connect 14 1 18 0;
#X connect 14 1 11 0;
#X connect 14 2 10 0;
#X connect 14 2 8 0;
#X connect 14 2 18 0;
#X connect 15 0 0 1;
#X connect 16 0 6 1;
#X connect 17 0 9 1;
#X connect 18 0 15 0;
#X connect 19 0 20 0;
#X connect 20 0 22 0;
#X connect 21 0 9 0;
#X connect 22 0 21 0;
#X restore 590 497 pd waveGen1;
#N canvas 0 50 450 300 waveGen2 0;
#X obj 47 314 *~;
#X msg 69 247 1 20;
#X obj 47 364 outlet~;
#X obj 47 27 inlet~;
#X obj 163 113 hv.osc~ saw;
#X obj 47 113 hv.osc~ sine;
#X obj 161 314 *~;
#X msg 176 247 1 20;
#X msg 219 247 0 20;
#X obj 267 314 *~;
#X msg 287 247 1 20;
#X msg 335 247 0 20;
#X floatatom 183 183 5 0 0 0 - - - 12;
#X obj 183 206 sel 0 1 2;
#X obj 69 278 line~;
#X obj 176 278 line~;
#X obj 287 278 line~;
#X msg 115 247 0 20;
#X obj 296 113 phasor~;
#X obj 296 142 -~ 0.5;
#X obj 296 202 *~ 2;
#X obj 296 172 abs~;
#X text 296 89 triangle;
#X obj 183 155 r inputWave2;
#X connect 0 0 2 0;
#X connect 1 0 14 0;
#X connect 3 0 5 0;
#X connect 3 0 4 0;
#X connect 3 0 18 0;
#X connect 4 0 6 0;
#X connect 5 0 0 0;
#X connect 6 0 2 0;
#X connect 7 0 15 0;
#X connect 8 0 15 0;
#X connect 9 0 2 0;
#X connect 10 0 16 0;
#X connect 11 0 16 0;
#X connect 12 0 13 0;
#X connect 13 0 1 0;
#X connect 13 0 8 0;
#X connect 13 0 11 0;
#X connect 13 1 7 0;
#X connect 13 1 17 0;
#X connect 13 1 11 0;
#X connect 13 2 10 0;
#X connect 13 2 8 0;
#X connect 13 2 17 0;
#X connect 14 0 0 1;
#X connect 15 0 6 1;
#X connect 16 0 9 1;
#X connect 17 0 14 0;
#X connect 18 0 19 0;
#X connect 19 0 21 0;
#X connect 20 0 9 0;
#X connect 21 0 20 0;
#X connect 23 0 12 0;
#X restore 685 497 pd waveGen2;
#X text 600 919 antialliasing filter;
#X obj 486 432 r~ waveMix;
#X obj 512 457 r~ lfoWaveMixMaster;
#X obj 486 505 +~;
#X obj 490 536 *~ -1;
#X obj 490 562 +~ 1;
#X obj 700 1126 *~;
#X obj 511 1081 hv.hip~;
#X obj 511 1046 hv.hip~;
#X obj 511 1011 hv.hip~;
#X obj 511 976 hv.hip~;
#X obj 605 970 r~ filterFreq;
#X obj 490 588 clip~ 0 1;
#X obj 623 545 clip~ 0 1;
#N canvas 0 50 450 300 myEnvelope 0;
#X obj 160 601 delay;
#X obj 91 622 pack;
#X obj 160 638 f;
#X obj 358 351 + 10;
#X obj 455 349 + 10;
#X obj 667 349 + 10;
#X obj 406 162 spigot;
#X obj 91 571 t f b;
#X obj 118 597 f;
#X obj 90 459 r peak;
#X obj 133 571 r attack;
#X obj 316 618 r decay;
#X obj 267 437 r sus;
#X obj 493 491 r rel;
#X obj 413 547 sel 0;
#X obj 178 505 r attack;
#X obj 267 498 f;
#X obj 316 505 t b f;
#X obj 90 548 spigot;
#X obj 316 405 r peak;
#X obj 316 481 spigot;
#X obj 316 455 t f f;
#X obj 201 530 r peak;
#X obj 201 609 spigot;
#X obj 201 583 t f f;
#X obj 373 45 r peak;
#X obj 373 100 spigot;
#X obj 373 74 t f f;
#X obj 413 491 r peak;
#X obj 513 229 + 5;
#X obj 513 196 random 15;
#X obj 546 349 + 50;
#X text 383 458 APPLIES RANDOM CHANGES TO ADSR;
#X obj 401 196 t b b b b b;
#X obj 201 736 spigot;
#X obj 285 673 loadbang;
#X msg 285 699 1;
#X obj 413 573 t b b b;
#X msg 469 601 0;
#X msg 395 689 stop;
#X obj 455 682 f;
#X msg 455 717 0 \$1;
#X obj 90 522 t f f b;
#X obj 90 488 sel 0;
#X obj 201 556 sel 0;
#X obj 429 94 r randEnv;
#X obj 267 530 *;
#X obj 267 556 / 100;
#X obj 358 325 hv.drunk 200;
#X obj 455 324 hv.drunk 200;
#X obj 546 323 hv.drunk 45;
#X obj 667 323 hv.drunk 500;
#X obj 667 373 s releaseRand;
#X obj 546 373 s sustainRand;
#X obj 455 373 s decayRand;
#X obj 358 376 s attackRand;
#X obj 201 796 line~;
#X obj 260 866 s comp-adsr;
#X obj 260 800 line;
#X obj 275 647 pack;
#X obj 267 618 f;
#X obj 160 664 t b f;
#X obj 201 913 outlet~;
#X obj 373 126 bang;
#X obj 201 822 pow~ 2;
#X obj 260 826 pow 2;
#X connect 0 0 2 0;
#X connect 1 0 56 0;
#X connect 1 0 58 0;
#X connect 2 0 61 0;
#X connect 3 0 55 0;
#X connect 4 0 54 0;
#X connect 5 0 52 0;
#X connect 6 0 33 0;
#X connect 7 0 1 0;
#X connect 7 1 8 0;
#X connect 7 1 0 0;
#X connect 8 0 1 1;
#X connect 9 0 43 0;
#X connect 10 0 8 1;
#X connect 11 0 59 1;
#X connect 12 0 16 1;
#X connect 13 0 40 1;
#X connect 14 0 37 0;
#X connect 15 0 0 1;
#X connect 16 0 46 0;
#X connect 17 0 16 0;
#X connect 17 1 46 1;
#X connect 18 0 7 0;
#X connect 19 0 21 0;
#X connect 20 0 17 0;
#X connect 21 0 20 0;
#X connect 21 1 20 1;
#X connect 22 0 44 0;
#X connect 23 0 2 1;
#X connect 24 0 23 0;
#X connect 24 1 23 1;
#X connect 25 0 27 0;
#X connect 26 0 63 0;
#X connect 27 0 26 0;
#X connect 27 1 26 1;
#X connect 28 0 14 0;
#X connect 29 0 48 2;
#X connect 29 0 49 2;
#X connect 29 0 50 2;
#X connect 29 0 51 2;
#X connect 30 0 29 0;
#X connect 31 0 53 0;
#X connect 33 0 48 0;
#X connect 33 1 49 0;
#X connect 33 2 50 0;
#X connect 33 3 51 0;
#X connect 33 4 30 0;
#X connect 34 0 56 0;
#X connect 34 0 58 0;
#X connect 35 0 36 0;
#X connect 36 0 34 1;
#X connect 37 0 40 0;
#X connect 37 1 39 0;
#X connect 37 2 38 0;
#X connect 38 0 34 1;
#X connect 39 0 58 0;
#X connect 40 0 41 0;
#X connect 41 0 56 0;
#X connect 41 0 58 0;
#X connect 42 0 18 0;
#X connect 42 1 18 1;
#X connect 42 2 36 0;
#X connect 42 2 39 0;
#X connect 43 1 42 0;
#X connect 44 1 24 0;
#X connect 45 0 6 1;
#X connect 46 0 47 0;
#X connect 47 0 60 1;
#X connect 48 0 3 0;
#X connect 49 0 4 0;
#X connect 50 0 31 0;
#X connect 51 0 5 0;
#X connect 56 0 64 0;
#X connect 58 0 65 0;
#X connect 59 0 34 0;
#X connect 60 0 59 0;
#X connect 61 0 60 0;
#X connect 61 1 34 0;
#X connect 63 0 6 0;
#X connect 64 0 62 0;
#X connect 65 0 57 0;
#X restore 733 1081 pd myEnvelope;
#X text 916 266 Controls the envelope of the waveshaping modulation;
#X obj 972 489 pack;
#X obj 1025 399 del;
#X obj 916 304 r wsPeak;
#X obj 987 304 r wsAttack;
#X obj 905 399 f;
#X obj 861 268 r peak;
#X obj 994 366 t f f;
#X obj 1157 304 r wsDecay;
#X obj 1071 489 pack;
#X obj 1071 304 r wsSustain;
#X obj 1071 431 f;
#X obj 1117 365 / 100;
#X obj 1071 457 *;
#X obj 861 330 sel 0;
#X obj 922 572 line~;
#X obj 972 515 spigot;
#X obj 876 366 t b f;
#X msg 863 399 0;
#X obj 802 935 random 100;
#X obj 802 989 / 50;
#X obj 802 1014 - 1;
#X obj 907 1212 line;
#X obj 920 1077 delay;
#X obj 920 1048 t b f;
#X obj 802 883 t b b b;
#X obj 921 1111 spigot;
#X obj 1013 958 t f f;
#X obj 907 1162 pack f f f;
#X msg 907 1187 \$1 \, \$2 \$3;
#X obj 908 935 random 500;
#X obj 907 981 + 100;
#X obj 885 882 / 10;
#X obj 1013 934 random 25;
#X obj 910 833 r change-rate;
#X text 751 786 CREATES RANDOM CHANGES TO SHAPING FUNCTION;
#X obj 802 826 loadbang;
#X msg 980 1087 1;
#X obj 1177 528 + 10;
#X obj 1177 413 spigot;
#X obj 1382 330 spigot;
#X obj 1382 304 t f f;
#X obj 1599 447 + 5;
#X obj 1382 413 spigot;
#X obj 1243 413 r randWsEnv;
#X obj 1177 559 s wsAttack;
#X obj 1391 558 s wsSustain;
#X obj 1286 557 s wsDecay;
#X obj 1177 502 hv.drunk 9980;
#X obj 1286 502 hv.drunk 9500;
#X obj 1286 527 + 500;
#X obj 1391 528 + 10;
#X obj 1391 502 hv.drunk 90;
#X obj 1177 447 t b b b;
#X obj 1382 356 t b b b;
#X obj 1556 447 * 15;
#X obj 1556 413 random 20;
#X obj 1484 558 s wsPeak;
#X obj 1441 413 r randWsPeak;
#X obj 1484 502 hv.drunk 1000;
#X obj 1484 528 / 1000;
#X text 1354 277 Randomizes it;
#X obj 1021 602 loadbang;
#X obj 848 571 sel 0 1;
#X obj 742 694 *~;
#X obj 782 660 line~;
#X msg 796 629 1 10;
#X msg 782 602 0 10;
#X obj 928 694 *~;
#X obj 968 660 line~;
#X msg 982 629 1 10;
#X msg 968 602 0 10;
#X obj 848 545 r wsCtl;
#X obj 725 551 r~ lfoWsMaster;
#X obj 725 577 clip~ 0.1 1;
#X obj 562 259 / 127;
#X obj 802 465 s peak;
#X obj 562 311 r~ lfoPitchMaster;
#X msg 512 259 \$1 10;
#X obj 512 294 line~;
#X obj 512 322 +~;
#X obj 512 348 mtof~;
#X obj 590 356 -~ 5;
#X obj 590 382 s~ filterFreq;
#X obj 922 598 pow~ 2;
#X obj 710 181 r no-sens;
#X obj 710 207 sel 0 1;
#X obj 641 250 spigot;
#X msg 693 259 0;
#X msg 693 231 1;
#X obj 609 181 loadbang;
#X obj 720 287 spigot;
#X msg 772 296 0;
#X msg 772 268 1;
#X msg 725 399 1;
#X obj 722 366 bng 25 250 50 0 empty empty empty 17 7 0 10 #191919 #e1e1e1 #e1e1e1;
#X msg 693 399 0;
#X obj 720 313 sel 0;
#X obj 789 406 sqrt;
#X obj 1013 986 tabread \$0-shapeFunction;
#X obj 906 1263 tabwrite \$0-shapeFunction;
#X obj 525 849 tabread~ \$0-shapeFunction;
#X obj 512 181 inlet;
#X obj 512 222 unpack;
#X connect 0 0 5 0;
#X connect 1 0 0 0;
#X connect 2 0 1 0;
#X connect 3 0 1 0;
#X connect 5 0 124 0;
#X connect 6 0 2 0;
#X connect 7 0 3 0;
#X connect 9 0 11 0;
#X connect 10 0 11 1;
#X connect 11 0 12 0;
#X connect 11 0 21 0;
#X connect 12 0 13 0;
#X connect 13 0 20 0;
#X connect 14 0 4 0;
#X connect 15 0 14 0;
#X connect 16 0 15 0;
#X connect 17 0 16 0;
#X connect 18 0 17 0;
#X connect 19 0 18 1;
#X connect 19 0 17 1;
#X connect 19 0 16 1;
#X connect 19 0 15 1;
#X connect 20 0 2 1;
#X connect 21 0 3 1;
#X connect 22 0 14 1;
#X connect 24 0 39 0;
#X connect 25 0 34 0;
#X connect 26 0 28 1;
#X connect 26 0 34 1;
#X connect 27 0 30 0;
#X connect 28 0 24 0;
#X connect 29 0 37 0;
#X connect 29 0 64 0;
#X connect 30 0 24 1;
#X connect 30 1 25 1;
#X connect 31 0 32 1;
#X connect 32 0 39 0;
#X connect 33 0 35 0;
#X connect 34 0 36 0;
#X connect 35 0 36 1;
#X connect 36 0 32 0;
#X connect 37 0 41 0;
#X connect 37 1 40 0;
#X connect 38 0 107 0;
#X connect 39 0 38 0;
#X connect 40 0 28 0;
#X connect 40 0 25 0;
#X connect 40 1 39 1;
#X connect 41 0 39 1;
#X connect 42 0 43 0;
#X connect 43 0 44 0;
#X connect 44 0 51 1;
#X connect 45 0 123 0;
#X connect 46 0 49 0;
#X connect 47 0 46 0;
#X connect 47 1 46 1;
#X connect 48 0 42 0;
#X connect 48 1 53 0;
#X connect 48 2 56 0;
#X connect 49 0 48 0;
#X connect 50 0 122 0;
#X connect 50 1 123 1;
#X connect 51 0 52 0;
#X connect 52 0 45 0;
#X connect 53 0 54 0;
#X connect 54 0 47 0;
#X connect 54 0 51 2;
#X connect 55 0 54 1;
#X connect 56 0 50 0;
#X connect 57 0 53 1;
#X connect 57 0 55 0;
#X connect 59 0 60 0;
#X connect 59 0 48 0;
#X connect 60 0 49 1;
#X connect 61 0 68 0;
#X connect 62 0 76 0;
#X connect 63 0 77 0;
#X connect 64 0 63 0;
#X connect 64 1 63 1;
#X connect 65 0 75 2;
#X connect 66 0 82 0;
#X connect 67 0 62 1;
#X connect 71 0 61 0;
#X connect 72 0 73 0;
#X connect 73 0 70 0;
#X connect 74 0 69 0;
#X connect 75 0 74 0;
#X connect 76 0 71 0;
#X connect 76 1 72 0;
#X connect 76 2 75 0;
#X connect 77 0 62 0;
#X connect 77 1 66 0;
#X connect 77 2 79 0;
#X connect 78 0 72 2;
#X connect 78 0 71 2;
#X connect 78 0 82 2;
#X connect 79 0 65 0;
#X connect 79 0 78 0;
#X connect 81 0 66 1;
#X connect 82 0 83 0;
#X connect 83 0 80 0;
#X connect 85 0 93 0;
#X connect 86 0 89 0;
#X connect 86 0 94 0;
#X connect 86 1 93 0;
#X connect 86 1 90 0;
#X connect 87 0 1 1;
#X connect 88 0 87 1;
#X connect 89 0 88 0;
#X connect 90 0 88 0;
#X connect 91 0 1 1;
#X connect 92 0 91 1;
#X connect 93 0 92 0;
#X connect 94 0 92 0;
#X connect 95 0 86 0;
#X connect 96 0 97 0;
#X connect 97 0 87 0;
#X connect 98 0 110 0;
#X connect 98 0 114 0;
#X connect 100 0 103 1;
#X connect 101 0 102 0;
#X connect 102 0 103 0;
#X connect 103 0 104 0;
#X connect 104 0 6 0;
#X connect 104 0 7 0;
#X connect 104 0 105 0;
#X connect 105 0 106 0;
#X connect 107 0 91 0;
#X connect 108 0 109 0;
#X connect 109 0 112 0;
#X connect 109 0 115 0;
#X connect 109 1 116 0;
#X connect 109 1 111 0;
#X connect 110 0 121 0;
#X connect 111 0 110 1;
#X connect 112 0 110 1;
#X connect 113 0 112 0;
#X connect 114 0 120 0;
#X connect 115 0 114 1;
#X connect 116 0 114 1;
#X connect 117 0 99 0;
#X connect 118 0 117 0;
#X connect 119 0 99 0;
#X connect 120 0 119 0;
#X connect 120 1 118 0;
#X connect 121 0 99 0;
#X connect 122 0 51 0;
#X connect 124 0 18 0;
#X connect 125 0 126 0;
#X connect 126 0 101 0;
#X connect 126 1 98 0;
#X restore 62 406 pd syn;
#N canvas 0 50 450 300 naiveFilter 0;
#X obj 267 222 *~;
#X obj 267 597 delwrite~ naive 1000;
#X obj 71 877 outlet~;
#X obj 71 29 inlet~;
#X obj 71 753 *~;
#X obj 172 753 *~;
#X obj 71 805 *~ 1;
#X obj 71 843 *~ 0.5;
#X obj 402 161 r~ fbk;
#X obj 324 399 r~ lop4;
#X obj 109 560 r~ filterMix;
#X obj 464 161 r~ lfoFeedMaster;
#X obj 402 199 +~;
#X obj 402 222 clip~ 0 99;
#X obj 324 222 /~ 100;
#X obj 393 399 r~ lfoLopMaster;
#X obj 342 441 +~;
#X obj 135 585 r~ lfoFilterMixMaster;
#X obj 109 633 +~;
#X obj 109 686 *~ -1;
#X obj 109 712 +~ 1;
#X obj 267 413 hv.hip~;
#X obj 267 527 hv.lop~;
#X obj 267 501 hv.lop~;
#X obj 267 475 hv.lop~;
#X obj 267 449 hv.lop~;
#X obj 303 307 r~ fbkHip;
#X obj 377 307 r~ lfoHipMaster;
#X obj 303 370 pow~ 2;
#X obj 303 342 +~;
#X obj 267 128 +~;
#X obj 267 75 r~ fbkDel;
#X obj 346 75 r~ lfoDelMaster;
#X obj 267 161 delread4~ naive 0;
#X connect 0 0 21 0;
#X connect 3 0 4 0;
#X connect 3 0 21 0;
#X connect 4 0 6 0;
#X connect 5 0 6 0;
#X connect 6 0 7 0;
#X connect 7 0 2 0;
#X connect 8 0 12 0;
#X connect 9 0 16 0;
#X connect 10 0 18 0;
#X connect 11 0 12 1;
#X connect 12 0 13 0;
#X connect 13 0 14 0;
#X connect 14 0 0 1;
#X connect 15 0 16 1;
#X connect 16 0 22 1;
#X connect 16 0 23 1;
#X connect 16 0 24 1;
#X connect 16 0 25 1;
#X connect 17 0 18 1;
#X connect 18 0 5 1;
#X connect 18 0 19 0;
#X connect 19 0 20 0;
#X connect 20 0 4 1;
#X connect 21 0 25 0;
#X connect 22 0 1 0;
#X connect 22 0 5 0;
#X connect 23 0 22 0;
#X connect 24 0 23 0;
#X connect 25 0 24 0;
#X connect 26 0 29 0;
#X connect 27 0 29 1;
#X connect 28 0 21 1;
#X connect 29 0 28 0;
#X connect 30 0 33 0;
#X connect 31 0 30 0;
#X connect 32 0 30 1;
#X connect 33 0 0 0;
#X restore 62 431 pd naiveFilter;
#N canvas 0 50 450 300 lfoMixer 0;
#X obj 21 32 r~ lfoWaveMix-1;
#X obj 136 32 r~ lfoWaveMix-2;
#X obj 256 32 r~ lfoWaveMix-3;
#X obj 374 32 r~ lfoWaveMix-4;
#X obj 492 32 r~ lfoFilterMix-1;
#X obj 604 32 r~ lfoFilterMix-2;
#X obj 722 32 r~ lfoFilterMix-3;
#X obj 834 32 r~ lfoFilterMix-4;
#X obj 947 32 r~ lfoLop-1;
#X obj 1036 32 r~ lfoLop-2;
#X obj 1120 32 r~ lfoLop-3;
#X obj 1208 32 r~ lfoLop-4;
#X obj 1292 32 r~ lfoFeed-1;
#X obj 1471 32 r~ lfoFeed-3;
#X obj 1565 32 r~ lfoFeed-4;
#X obj 1378 32 r~ lfoFeed-2;
#X obj 21 58 +~;
#X obj 256 58 +~;
#X obj 492 66 +~;
#X obj 722 58 +~;
#X obj 947 58 +~;
#X obj 1120 58 +~;
#X obj 1292 58 +~;
#X obj 1471 58 +~;
#X obj 21 84 +~;
#X obj 492 92 +~;
#X obj 947 84 +~;
#X obj 1292 84 +~;
#X obj 21 118 s~ lfoWaveMixMaster;
#X obj 492 139 s~ lfoFilterMixMaster;
#X obj 947 118 s~ lfoLopMaster;
#X obj 1292 118 s~ lfoFeedMaster;
#X obj 699 290 r~ lfoPitch-1;
#X obj 791 290 r~ lfoPitch-2;
#X obj 886 290 r~ lfoPitch-3;
#X obj 978 290 r~ lfoPitch-4;
#X obj 699 316 +~;
#X obj 886 316 +~;
#X obj 699 342 +~;
#X obj 699 376 s~ lfoPitchMaster;
#X obj 21 290 r~ lfoDel-1;
#X obj 99 290 r~ lfoDel-2;
#X obj 265 290 r~ lfoDel-4;
#X obj 355 290 r~ lfoHip-1;
#X obj 436 290 r~ lfoHip-2;
#X obj 522 290 r~ lfoHip-3;
#X obj 604 290 r~ lfoHip-4;
#X obj 185 290 r~ lfoDel-3;
#X obj 21 316 +~;
#X obj 185 316 +~;
#X obj 355 316 +~;
#X obj 522 316 +~;
#X obj 21 342 +~;
#X obj 355 342 +~;
#X obj 355 376 s~ lfoHipMaster;
#X obj 21 376 s~ lfoDelMaster;
#X obj 1073 376 s~ lfoWsMaster;
#X obj 1073 290 r~ lfoWs-1;
#X connect 0 0 16 0;
#X connect 1 0 16 1;
#X connect 2 0 17 0;
#X connect 3 0 17 1;
#X connect 4 0 18 0;
#X connect 5 0 18 1;
#X connect 6 0 19 0;
#X connect 7 0 19 1;
#X connect 8 0 20 0;
#X connect 9 0 20 1;
#X connect 10 0 21 0;
#X connect 11 0 21 1;
#X connect 12 0 22 0;
#X connect 13 0 23 0;
#X connect 14 0 23 1;
#X connect 15 0 22 1;
#X connect 16 0 24 0;
#X connect 17 0 24 1;
#X connect 18 0 25 0;
#X connect 19 0 25 1;
#X connect 20 0 26 0;
#X connect 21 0 26 1;
#X connect 22 0 27 0;
#X connect 23 0 27 1;
#X connect 24 0 28 0;
#X connect 25 0 29 0;
#X connect 26 0 30 0;
#X connect 27 0 31 0;
#X connect 32 0 36 0;
#X connect 33 0 36 1;
#X connect 34 0 37 0;
#X connect 35 0 37 1;
#X connect 36 0 38 0;
#X connect 37 0 38 1;
#X connect 38 0 39 0;
#X connect 40 0 48 0;
#X connect 41 0 48 1;
#X connect 42 0 49 1;
#X connect 43 0 50 0;
#X connect 44 0 50 1;
#X connect 45 0 51 0;
#X connect 46 0 51 1;
#X connect 47 0 49 0;
#X connect 48 0 52 0;
#X connect 49 0 52 1;
#X connect 50 0 53 0;
#X connect 51 0 53 1;
#X connect 52 0 55 0;
#X connect 53 0 54 0;
#X connect 57 0 56 0;
#X restore 345 444 pd lfoMixer;
#N canvas 0 50 450 300 LFO1 0;
#X obj 1008 342 delay;
#X obj 1008 313 t b f;
#X obj 1009 376 spigot;
#X obj 996 200 random 500;
#X obj 995 246 + 100;
#X obj 996 148 / 10;
#X msg 1068 352 1;
#X obj 890 200 random 2000;
#X obj 890 232 / 100;
#X obj 890 66 sel 0 1;
#X msg 1068 324 0;
#X obj 890 429 pack f f;
#X obj 928 93 t b b;
#X obj 840 237 f;
#X obj 1304 329 delay;
#X obj 1304 300 t b f;
#X obj 1305 363 spigot;
#X obj 1292 187 random 500;
#X obj 1291 233 + 100;
#X obj 1292 135 / 10;
#X msg 1364 339 1;
#X obj 1186 187 random 2000;
#X obj 1186 53 sel 0 1;
#X msg 1364 311 0;
#X obj 1186 416 pack f f;
#X obj 1224 80 t b b;
#X obj 1186 219 / 1000;
#X obj 1142 246 f;
#X obj 890 148 t b b;
#X obj 1186 135 t b b;
#X obj 398 14 r lfoFreq-1;
#X obj 1106 187 r lfoAmp-1;
#X obj 890 14 r lfoRand-1;
#X obj 1292 72 r lfoChangeRate-1;
#X obj 996 66 r lfoChangeRate-1;
#X obj 653 54 r lfoWave-1;
#X obj 28 106 hv.lfo sine;
#X obj 107 106 hv.lfo ramp;
#X obj 195 106 hv.lfo saw;
#X obj 280 106 hv.lfo triangle;
#X obj 382 106 hv.lfo square;
#X msg 499 14 0;
#X obj 28 132 * -1;
#X obj 28 158 + 1;
#X obj 28 184 sig~;
#X obj 107 184 sig~;
#X obj 195 184 sig~;
#X obj 280 184 sig~;
#X obj 382 184 sig~;
#X obj 28 315 *~;
#X obj 56 286 line~;
#X obj 107 315 *~;
#X obj 135 286 line~;
#X msg 56 228 0 10;
#X msg 135 228 0 10;
#X msg 67 253 1 10;
#X msg 146 253 1 10;
#X obj 195 315 *~;
#X obj 223 286 line~;
#X obj 274 315 *~;
#X obj 302 286 line~;
#X msg 223 228 0 10;
#X msg 302 228 0 10;
#X msg 234 253 1 10;
#X msg 313 253 1 10;
#X obj 382 315 *~;
#X obj 410 286 line~;
#X msg 410 228 0 10;
#X msg 421 253 1 10;
#X obj 653 80 t f b;
#X obj 653 106 sel 0 1 2 3 4 5;
#X obj 524 300 r lfoAmp-1;
#X msg 524 326 \$1 10;
#X obj 524 352 line~;
#X obj 28 369 *~;
#X obj 541 544 r lfoRoute-1;
#X obj 28 744 *~;
#X obj 56 715 line~;
#X obj 155 744 *~;
#X obj 183 715 line~;
#X msg 56 657 0 10;
#X msg 183 657 0 10;
#X msg 67 682 1 10;
#X msg 194 682 1 10;
#X obj 277 744 *~;
#X obj 305 715 line~;
#X obj 369 744 *~;
#X obj 397 715 line~;
#X msg 305 657 0 10;
#X msg 397 657 0 10;
#X msg 316 682 1 10;
#X msg 408 682 1 10;
#X obj 485 744 *~;
#X obj 513 715 line~;
#X msg 513 657 0 10;
#X msg 524 682 1 10;
#X obj 584 744 *~;
#X obj 612 715 line~;
#X msg 612 657 0 10;
#X msg 623 682 1 10;
#X obj 669 744 *~;
#X obj 697 715 line~;
#X msg 697 657 0 10;
#X msg 708 682 1 10;
#X obj 155 461 *~ 2;
#X obj 584 461 *~ 46;
#X obj 669 461 *~ -0.5;
#X obj 155 487 -~ 1;
#X obj 584 487 -~ 23;
#X obj 669 772 s~ lfoPitch-1;
#X obj 584 772 s~ lfoHip-1;
#X obj 485 772 s~ lfoDel-1;
#X obj 369 773 s~ lfoFeed-1;
#X obj 277 773 s~ lfoLop-1;
#X obj 155 773 s~ lfoFilterMix-1;
#X obj 28 773 s~ lfoWaveMix-1;
#X obj 812 200 r lfoFreq-1;
#X obj 890 537 s lfoFreq-1;
#X obj 1186 537 s lfoAmp-1;
#X obj 890 511 line;
#X obj 1186 511 line;
#X obj 767 594 del 100;
#X obj 802 537 f;
#X obj 485 461 *~ 20;
#X obj 485 487 -~ 10;
#X obj 369 461 *~ 40;
#X obj 369 487 -~ 20;
#X obj 277 461 *~ 2000;
#X obj 277 487 -~ 1000;
#X obj 277 513 abs~;
#X obj 541 573 sel 0 1 2 3 4 5 6 7;
#X obj 778 744 *~;
#X obj 806 715 line~;
#X msg 806 657 0 10;
#X msg 817 682 1 10;
#X obj 778 772 s~ lfoWs-1;
#X msg 936 682 0;
#X msg 965 682 1;
#X obj 934 708 s wsCtl;
#X connect 0 0 2 0;
#X connect 1 0 0 0;
#X connect 1 1 0 1;
#X connect 2 0 28 0;
#X connect 3 0 4 0;
#X connect 4 0 1 0;
#X connect 4 0 11 1;
#X connect 5 0 4 1;
#X connect 6 0 2 1;
#X connect 7 0 8 0;
#X connect 8 0 11 0;
#X connect 9 0 10 0;
#X connect 9 1 12 0;
#X connect 10 0 2 1;
#X connect 11 0 119 0;
#X connect 12 0 28 0;
#X connect 12 0 6 0;
#X connect 12 1 13 0;
#X connect 13 0 119 0;
#X connect 14 0 16 0;
#X connect 15 0 14 0;
#X connect 15 1 14 1;
#X connect 16 0 29 0;
#X connect 17 0 18 0;
#X connect 18 0 15 0;
#X connect 18 0 24 1;
#X connect 19 0 18 1;
#X connect 20 0 16 1;
#X connect 21 0 26 0;
#X connect 22 0 23 0;
#X connect 22 1 25 0;
#X connect 23 0 16 1;
#X connect 24 0 120 0;
#X connect 25 0 29 0;
#X connect 25 0 20 0;
#X connect 25 1 27 0;
#X connect 26 0 24 0;
#X connect 27 0 120 0;
#X connect 28 0 7 0;
#X connect 28 1 3 0;
#X connect 29 0 21 0;
#X connect 29 1 17 0;
#X connect 30 0 40 0;
#X connect 30 0 39 0;
#X connect 30 0 38 0;
#X connect 30 0 37 0;
#X connect 30 0 36 0;
#X connect 31 0 27 1;
#X connect 32 0 22 0;
#X connect 32 0 9 0;
#X connect 33 0 17 1;
#X connect 33 0 19 0;
#X connect 34 0 3 1;
#X connect 34 0 5 0;
#X connect 35 0 69 0;
#X connect 36 0 42 0;
#X connect 37 0 45 0;
#X connect 38 0 46 0;
#X connect 39 0 47 0;
#X connect 40 0 48 0;
#X connect 41 0 40 1;
#X connect 41 0 39 1;
#X connect 41 0 38 1;
#X connect 41 0 37 1;
#X connect 41 0 36 1;
#X connect 42 0 43 0;
#X connect 43 0 44 0;
#X connect 44 0 49 0;
#X connect 45 0 51 0;
#X connect 46 0 57 0;
#X connect 47 0 59 0;
#X connect 48 0 65 0;
#X connect 49 0 74 0;
#X connect 50 0 49 1;
#X connect 51 0 74 0;
#X connect 52 0 51 1;
#X connect 53 0 50 0;
#X connect 54 0 52 0;
#X connect 55 0 50 0;
#X connect 56 0 52 0;
#X connect 57 0 74 0;
#X connect 58 0 57 1;
#X connect 59 0 74 0;
#X connect 60 0 59 1;
#X connect 61 0 58 0;
#X connect 62 0 60 0;
#X connect 63 0 58 0;
#X connect 64 0 60 0;
#X connect 65 0 74 0;
#X connect 66 0 65 1;
#X connect 67 0 66 0;
#X connect 68 0 66 0;
#X connect 69 0 70 0;
#X connect 69 1 41 0;
#X connect 70 0 53 0;
#X connect 70 0 54 0;
#X connect 70 0 61 0;
#X connect 70 0 62 0;
#X connect 70 0 67 0;
#X connect 70 0 121 0;
#X connect 70 1 67 0;
#X connect 70 1 62 0;
#X connect 70 1 61 0;
#X connect 70 1 54 0;
#X connect 70 1 55 0;
#X connect 70 1 122 0;
#X connect 70 2 67 0;
#X connect 70 2 62 0;
#X connect 70 2 61 0;
#X connect 70 2 53 0;
#X connect 70 2 56 0;
#X connect 70 2 122 0;
#X connect 70 3 67 0;
#X connect 70 3 62 0;
#X connect 70 3 53 0;
#X connect 70 3 54 0;
#X connect 70 3 63 0;
#X connect 70 3 122 0;
#X connect 70 4 67 0;
#X connect 70 4 53 0;
#X connect 70 4 54 0;
#X connect 70 4 61 0;
#X connect 70 4 64 0;
#X connect 70 4 122 0;
#X connect 70 5 53 0;
#X connect 70 5 54 0;
#X connect 70 5 61 0;
#X connect 70 5 62 0;
#X connect 70 5 68 0;
#X connect 70 5 122 0;
#X connect 71 0 72 0;
#X connect 72 0 73 0;
#X connect 73 0 74 1;
#X connect 74 0 104 0;
#X connect 74 0 105 0;
#X connect 74 0 106 0;
#X connect 74 0 123 0;
#X connect 74 0 125 0;
#X connect 74 0 127 0;
#X connect 74 0 76 0;
#X connect 74 0 131 0;
#X connect 75 0 122 1;
#X connect 75 0 130 0;
#X connect 76 0 115 0;
#X connect 77 0 76 1;
#X connect 78 0 114 0;
#X connect 79 0 78 1;
#X connect 80 0 77 0;
#X connect 81 0 79 0;
#X connect 82 0 77 0;
#X connect 83 0 79 0;
#X connect 84 0 113 0;
#X connect 85 0 84 1;
#X connect 86 0 112 0;
#X connect 87 0 86 1;
#X connect 88 0 85 0;
#X connect 89 0 87 0;
#X connect 90 0 85 0;
#X connect 91 0 87 0;
#X connect 92 0 111 0;
#X connect 93 0 92 1;
#X connect 94 0 93 0;
#X connect 95 0 93 0;
#X connect 96 0 110 0;
#X connect 97 0 96 1;
#X connect 98 0 97 0;
#X connect 99 0 97 0;
#X connect 100 0 109 0;
#X connect 101 0 100 1;
#X connect 102 0 101 0;
#X connect 103 0 101 0;
#X connect 104 0 107 0;
#X connect 105 0 108 0;
#X connect 106 0 100 0;
#X connect 107 0 78 0;
#X connect 108 0 96 0;
#X connect 116 0 13 1;
#X connect 119 0 117 0;
#X connect 120 0 118 0;
#X connect 121 0 102 0;
#X connect 121 0 98 0;
#X connect 121 0 94 0;
#X connect 121 0 89 0;
#X connect 121 0 88 0;
#X connect 121 0 81 0;
#X connect 121 0 80 0;
#X connect 121 0 133 0;
#X connect 122 0 130 0;
#X connect 123 0 124 0;
#X connect 124 0 92 0;
#X connect 125 0 126 0;
#X connect 126 0 86 0;
#X connect 127 0 128 0;
#X connect 128 0 129 0;
#X connect 129 0 84 0;
#X connect 130 0 81 0;
#X connect 130 0 88 0;
#X connect 130 0 89 0;
#X connect 130 0 94 0;
#X connect 130 0 98 0;
#X connect 130 0 102 0;
#X connect 130 0 82 0;
#X connect 130 0 133 0;
#X connect 130 0 137 0;
#X connect 130 1 88 0;
#X connect 130 1 89 0;
#X connect 130 1 94 0;
#X connect 130 1 98 0;
#X connect 130 1 102 0;
#X connect 130 1 80 0;
#X connect 130 1 83 0;
#X connect 130 1 133 0;
#X connect 130 1 137 0;
#X connect 130 2 89 0;
#X connect 130 2 94 0;
#X connect 130 2 98 0;
#X connect 130 2 102 0;
#X connect 130 2 80 0;
#X connect 130 2 81 0;
#X connect 130 2 90 0;
#X connect 130 2 133 0;
#X connect 130 2 137 0;
#X connect 130 3 94 0;
#X connect 130 3 98 0;
#X connect 130 3 102 0;
#X connect 130 3 80 0;
#X connect 130 3 81 0;
#X connect 130 3 88 0;
#X connect 130 3 91 0;
#X connect 130 3 133 0;
#X connect 130 3 137 0;
#X connect 130 4 98 0;
#X connect 130 4 102 0;
#X connect 130 4 80 0;
#X connect 130 4 81 0;
#X connect 130 4 88 0;
#X connect 130 4 89 0;
#X connect 130 4 95 0;
#X connect 130 4 133 0;
#X connect 130 4 137 0;
#X connect 130 5 102 0;
#X connect 130 5 80 0;
#X connect 130 5 81 0;
#X connect 130 5 88 0;
#X connect 130 5 89 0;
#X connect 130 5 94 0;
#X connect 130 5 99 0;
#X connect 130 5 133 0;
#X connect 130 5 137 0;
#X connect 130 6 80 0;
#X connect 130 6 81 0;
#X connect 130 6 88 0;
#X connect 130 6 89 0;
#X connect 130 6 94 0;
#X connect 130 6 98 0;
#X connect 130 6 103 0;
#X connect 130 6 133 0;
#X connect 130 6 137 0;
#X connect 130 7 134 0;
#X connect 130 7 102 0;
#X connect 130 7 98 0;
#X connect 130 7 94 0;
#X connect 130 7 89 0;
#X connect 130 7 88 0;
#X connect 130 7 81 0;
#X connect 130 7 80 0;
#X connect 130 7 136 0;
#X connect 131 0 135 0;
#X connect 132 0 131 1;
#X connect 133 0 132 0;
#X connect 134 0 132 0;
#X connect 136 0 138 0;
#X connect 137 0 138 0;
#X restore 201 431 pd LFO1;
#N canvas 0 50 450 300 LFO2 0;
#X obj 1008 342 delay;
#X obj 1008 313 t b f;
#X obj 1009 376 spigot;
#X obj 996 200 random 500;
#X obj 995 246 + 100;
#X obj 996 148 / 10;
#X msg 1068 352 1;
#X obj 890 200 random 2000;
#X obj 890 232 / 100;
#X obj 890 66 sel 0 1;
#X msg 1068 324 0;
#X obj 890 429 pack f f;
#X obj 928 93 t b b;
#X obj 840 237 f;
#X obj 1304 329 delay;
#X obj 1304 300 t b f;
#X obj 1305 363 spigot;
#X obj 1292 187 random 500;
#X obj 1291 233 + 100;
#X obj 1292 135 / 10;
#X msg 1364 339 1;
#X obj 1186 187 random 2000;
#X obj 1186 53 sel 0 1;
#X msg 1364 311 0;
#X obj 1186 416 pack f f;
#X obj 1224 80 t b b;
#X obj 1186 219 / 1000;
#X obj 1142 246 f;
#X obj 890 148 t b b;
#X obj 1186 135 t b b;
#X obj 28 106 hv.lfo sine;
#X obj 107 106 hv.lfo ramp;
#X obj 195 106 hv.lfo saw;
#X obj 280 106 hv.lfo triangle;
#X obj 382 106 hv.lfo square;
#X msg 499 14 0;
#X obj 28 132 * -1;
#X obj 382 132 * -1;
#X obj 382 158 + 1;
#X obj 28 158 + 1;
#X obj 28 184 sig~;
#X obj 107 184 sig~;
#X obj 195 184 sig~;
#X obj 280 184 sig~;
#X obj 382 184 sig~;
#X obj 28 315 *~;
#X obj 56 286 line~;
#X obj 107 315 *~;
#X obj 135 286 line~;
#X msg 56 228 0 10;
#X msg 135 228 0 10;
#X msg 67 253 1 10;
#X msg 146 253 1 10;
#X obj 195 315 *~;
#X obj 223 286 line~;
#X obj 274 315 *~;
#X obj 302 286 line~;
#X msg 223 228 0 10;
#X msg 302 228 0 10;
#X msg 234 253 1 10;
#X msg 313 253 1 10;
#X obj 382 315 *~;
#X obj 410 286 line~;
#X msg 410 228 0 10;
#X msg 421 253 1 10;
#X obj 653 80 t f b;
#X obj 653 106 sel 0 1 2 3 4 5;
#X msg 524 326 \$1 10;
#X obj 524 352 line~;
#X obj 28 369 *~;
#X obj 28 744 *~;
#X obj 56 715 line~;
#X obj 155 744 *~;
#X obj 183 715 line~;
#X msg 56 657 0 10;
#X msg 183 657 0 10;
#X msg 67 682 1 10;
#X msg 194 682 1 10;
#X obj 277 744 *~;
#X obj 305 715 line~;
#X obj 369 744 *~;
#X obj 397 715 line~;
#X msg 305 657 0 10;
#X msg 397 657 0 10;
#X msg 316 682 1 10;
#X msg 408 682 1 10;
#X obj 485 744 *~;
#X obj 513 715 line~;
#X msg 513 657 0 10;
#X msg 524 682 1 10;
#X obj 541 576 sel 0 1 2 3 4 5 6;
#X obj 584 744 *~;
#X obj 612 715 line~;
#X msg 612 657 0 10;
#X msg 623 682 1 10;
#X obj 669 744 *~;
#X obj 697 715 line~;
#X msg 697 657 0 10;
#X msg 708 682 1 10;
#X obj 28 461 *~ 2;
#X obj 155 461 *~ 2;
#X obj 277 461 *~ 46;
#X obj 369 461 *~ 20;
#X obj 485 461 *~ 20;
#X obj 584 461 *~ 46;
#X obj 669 461 *~ -0.5;
#X obj 28 490 -~ 1;
#X obj 155 487 -~ 1;
#X obj 277 487 -~ 23;
#X obj 369 487 -~ 10;
#X obj 485 487 -~ 10;
#X obj 584 487 -~ 23;
#X obj 890 511 line;
#X obj 1186 511 line;
#X obj 398 14 r lfoFreq-2;
#X obj 890 14 r lfoRand-2;
#X obj 1292 72 r lfoChangeRate-2;
#X obj 996 66 r lfoChangeRate-2;
#X obj 812 200 r lfoFreq-2;
#X obj 1106 187 r lfoAmp-2;
#X obj 1186 537 s lfoAmp-2;
#X obj 890 537 s lfoFreq-2;
#X obj 669 772 s~ lfoPitch-2;
#X obj 584 772 s~ lfoHip-2;
#X obj 485 772 s~ lfoDel-2;
#X obj 369 773 s~ lfoFeed-2;
#X obj 277 773 s~ lfoLop-2;
#X obj 155 773 s~ lfoFilterMix-2;
#X obj 28 773 s~ lfoWaveMix-2;
#X obj 524 300 r lfoAmp-2;
#X obj 653 54 r lfoWave-2;
#X obj 541 544 r lfoRoute-2;
#X obj 748 572 del 100;
#X connect 0 0 2 0;
#X connect 1 0 0 0;
#X connect 1 1 0 1;
#X connect 2 0 28 0;
#X connect 3 0 4 0;
#X connect 4 0 1 0;
#X connect 4 0 11 1;
#X connect 5 0 4 1;
#X connect 6 0 2 1;
#X connect 7 0 8 0;
#X connect 8 0 11 0;
#X connect 9 0 10 0;
#X connect 9 1 12 0;
#X connect 10 0 2 1;
#X connect 11 0 112 0;
#X connect 12 0 28 0;
#X connect 12 0 6 0;
#X connect 12 1 13 0;
#X connect 13 0 112 0;
#X connect 14 0 16 0;
#X connect 15 0 14 0;
#X connect 15 1 14 1;
#X connect 16 0 29 0;
#X connect 17 0 18 0;
#X connect 18 0 15 0;
#X connect 18 0 24 1;
#X connect 19 0 18 1;
#X connect 20 0 16 1;
#X connect 21 0 26 0;
#X connect 22 0 23 0;
#X connect 22 1 25 0;
#X connect 23 0 16 1;
#X connect 24 0 113 0;
#X connect 25 0 29 0;
#X connect 25 0 20 0;
#X connect 25 1 27 0;
#X connect 26 0 24 0;
#X connect 27 0 113 0;
#X connect 28 0 7 0;
#X connect 28 1 3 0;
#X connect 29 0 21 0;
#X connect 29 1 17 0;
#X connect 30 0 36 0;
#X connect 31 0 41 0;
#X connect 32 0 42 0;
#X connect 33 0 43 0;
#X connect 34 0 37 0;
#X connect 35 0 34 1;
#X connect 35 0 33 1;
#X connect 35 0 32 1;
#X connect 35 0 31 1;
#X connect 35 0 30 1;
#X connect 36 0 39 0;
#X connect 37 0 38 0;
#X connect 38 0 44 0;
#X connect 39 0 40 0;
#X connect 40 0 45 0;
#X connect 41 0 47 0;
#X connect 42 0 53 0;
#X connect 43 0 55 0;
#X connect 44 0 61 0;
#X connect 45 0 69 0;
#X connect 46 0 45 1;
#X connect 47 0 69 0;
#X connect 48 0 47 1;
#X connect 49 0 46 0;
#X connect 50 0 48 0;
#X connect 51 0 46 0;
#X connect 52 0 48 0;
#X connect 53 0 69 0;
#X connect 54 0 53 1;
#X connect 55 0 69 0;
#X connect 56 0 55 1;
#X connect 57 0 54 0;
#X connect 58 0 56 0;
#X connect 59 0 54 0;
#X connect 60 0 56 0;
#X connect 61 0 69 0;
#X connect 62 0 61 1;
#X connect 63 0 62 0;
#X connect 64 0 62 0;
#X connect 65 0 66 0;
#X connect 65 1 35 0;
#X connect 66 0 49 0;
#X connect 66 0 50 0;
#X connect 66 0 57 0;
#X connect 66 0 58 0;
#X connect 66 0 63 0;
#X connect 66 0 132 0;
#X connect 66 1 63 0;
#X connect 66 1 58 0;
#X connect 66 1 57 0;
#X connect 66 1 50 0;
#X connect 66 1 51 0;
#X connect 66 2 63 0;
#X connect 66 2 58 0;
#X connect 66 2 57 0;
#X connect 66 2 49 0;
#X connect 66 2 52 0;
#X connect 66 3 63 0;
#X connect 66 3 58 0;
#X connect 66 3 49 0;
#X connect 66 3 50 0;
#X connect 66 3 59 0;
#X connect 66 4 63 0;
#X connect 66 4 49 0;
#X connect 66 4 50 0;
#X connect 66 4 57 0;
#X connect 66 4 60 0;
#X connect 66 5 49 0;
#X connect 66 5 50 0;
#X connect 66 5 57 0;
#X connect 66 5 58 0;
#X connect 66 5 64 0;
#X connect 67 0 68 0;
#X connect 68 0 69 1;
#X connect 69 0 99 0;
#X connect 69 0 100 0;
#X connect 69 0 101 0;
#X connect 69 0 102 0;
#X connect 69 0 103 0;
#X connect 69 0 104 0;
#X connect 69 0 105 0;
#X connect 70 0 128 0;
#X connect 71 0 70 1;
#X connect 72 0 127 0;
#X connect 73 0 72 1;
#X connect 74 0 71 0;
#X connect 75 0 73 0;
#X connect 76 0 71 0;
#X connect 77 0 73 0;
#X connect 78 0 126 0;
#X connect 79 0 78 1;
#X connect 80 0 125 0;
#X connect 81 0 80 1;
#X connect 82 0 79 0;
#X connect 83 0 81 0;
#X connect 84 0 79 0;
#X connect 85 0 81 0;
#X connect 86 0 124 0;
#X connect 87 0 86 1;
#X connect 88 0 87 0;
#X connect 89 0 87 0;
#X connect 90 0 75 0;
#X connect 90 0 82 0;
#X connect 90 0 83 0;
#X connect 90 0 88 0;
#X connect 90 0 93 0;
#X connect 90 0 97 0;
#X connect 90 0 76 0;
#X connect 90 1 82 0;
#X connect 90 1 83 0;
#X connect 90 1 88 0;
#X connect 90 1 93 0;
#X connect 90 1 97 0;
#X connect 90 1 74 0;
#X connect 90 1 77 0;
#X connect 90 2 83 0;
#X connect 90 2 88 0;
#X connect 90 2 93 0;
#X connect 90 2 97 0;
#X connect 90 2 74 0;
#X connect 90 2 75 0;
#X connect 90 2 84 0;
#X connect 90 3 88 0;
#X connect 90 3 93 0;
#X connect 90 3 97 0;
#X connect 90 3 74 0;
#X connect 90 3 75 0;
#X connect 90 3 82 0;
#X connect 90 3 85 0;
#X connect 90 4 93 0;
#X connect 90 4 97 0;
#X connect 90 4 74 0;
#X connect 90 4 75 0;
#X connect 90 4 82 0;
#X connect 90 4 83 0;
#X connect 90 4 89 0;
#X connect 90 5 97 0;
#X connect 90 5 74 0;
#X connect 90 5 75 0;
#X connect 90 5 82 0;
#X connect 90 5 83 0;
#X connect 90 5 88 0;
#X connect 90 5 94 0;
#X connect 90 6 74 0;
#X connect 90 6 75 0;
#X connect 90 6 82 0;
#X connect 90 6 83 0;
#X connect 90 6 88 0;
#X connect 90 6 93 0;
#X connect 90 6 98 0;
#X connect 91 0 123 0;
#X connect 92 0 91 1;
#X connect 93 0 92 0;
#X connect 94 0 92 0;
#X connect 95 0 122 0;
#X connect 96 0 95 1;
#X connect 97 0 96 0;
#X connect 98 0 96 0;
#X connect 99 0 106 0;
#X connect 100 0 107 0;
#X connect 101 0 108 0;
#X connect 102 0 109 0;
#X connect 103 0 110 0;
#X connect 104 0 111 0;
#X connect 105 0 95 0;
#X connect 106 0 70 0;
#X connect 107 0 72 0;
#X connect 108 0 78 0;
#X connect 109 0 80 0;
#X connect 110 0 86 0;
#X connect 111 0 91 0;
#X connect 112 0 121 0;
#X connect 113 0 120 0;
#X connect 114 0 34 0;
#X connect 114 0 33 0;
#X connect 114 0 32 0;
#X connect 114 0 31 0;
#X connect 114 0 30 0;
#X connect 115 0 22 0;
#X connect 115 0 9 0;
#X connect 116 0 17 1;
#X connect 116 0 19 0;
#X connect 117 0 3 1;
#X connect 117 0 5 0;
#X connect 118 0 13 1;
#X connect 119 0 27 1;
#X connect 129 0 67 0;
#X connect 130 0 65 0;
#X connect 131 0 90 0;
#X connect 132 0 97 0;
#X connect 132 0 93 0;
#X connect 132 0 88 0;
#X connect 132 0 83 0;
#X connect 132 0 82 0;
#X connect 132 0 75 0;
#X connect 132 0 74 0;
#X restore 269 431 pd LFO2;
#N canvas 0 50 450 300 LFO3 0;
#X obj 1008 342 delay;
#X obj 1008 313 t b f;
#X obj 1009 376 spigot;
#X obj 996 200 random 500;
#X obj 995 246 + 100;
#X obj 996 148 / 10;
#X msg 1068 352 1;
#X obj 890 200 random 2000;
#X obj 890 232 / 100;
#X obj 890 66 sel 0 1;
#X msg 1068 324 0;
#X obj 890 429 pack f f;
#X obj 928 93 t b b;
#X obj 840 237 f;
#X obj 1304 329 delay;
#X obj 1304 300 t b f;
#X obj 1305 363 spigot;
#X obj 1292 187 random 500;
#X obj 1291 233 + 100;
#X obj 1292 135 / 10;
#X msg 1364 339 1;
#X obj 1186 187 random 2000;
#X obj 1186 53 sel 0 1;
#X msg 1364 311 0;
#X obj 1186 416 pack f f;
#X obj 1224 80 t b b;
#X obj 1186 219 / 1000;
#X obj 1142 246 f;
#X obj 890 148 t b b;
#X obj 1186 135 t b b;
#X obj 28 106 hv.lfo sine;
#X obj 107 106 hv.lfo ramp;
#X obj 195 106 hv.lfo saw;
#X obj 280 106 hv.lfo triangle;
#X obj 382 106 hv.lfo square;
#X msg 499 14 0;
#X obj 28 132 * -1;
#X obj 382 132 * -1;
#X obj 382 158 + 1;
#X obj 28 158 + 1;
#X obj 28 184 sig~;
#X obj 107 184 sig~;
#X obj 195 184 sig~;
#X obj 280 184 sig~;
#X obj 382 184 sig~;
#X obj 28 315 *~;
#X obj 56 286 line~;
#X obj 107 315 *~;
#X obj 135 286 line~;
#X msg 56 228 0 10;
#X msg 135 228 0 10;
#X msg 67 253 1 10;
#X msg 146 253 1 10;
#X obj 195 315 *~;
#X obj 223 286 line~;
#X obj 274 315 *~;
#X obj 302 286 line~;
#X msg 223 228 0 10;
#X msg 302 228 0 10;
#X msg 234 253 1 10;
#X msg 313 253 1 10;
#X obj 382 315 *~;
#X obj 410 286 line~;
#X msg 410 228 0 10;
#X msg 421 253 1 10;
#X obj 653 80 t f b;
#X obj 653 106 sel 0 1 2 3 4 5;
#X msg 524 326 \$1 10;
#X obj 524 352 line~;
#X obj 28 369 *~;
#X obj 28 744 *~;
#X obj 56 715 line~;
#X obj 155 744 *~;
#X obj 183 715 line~;
#X msg 56 657 0 10;
#X msg 183 657 0 10;
#X msg 67 682 1 10;
#X msg 194 682 1 10;
#X obj 277 744 *~;
#X obj 305 715 line~;
#X obj 369 744 *~;
#X obj 397 715 line~;
#X msg 305 657 0 10;
#X msg 397 657 0 10;
#X msg 316 682 1 10;
#X msg 408 682 1 10;
#X obj 485 744 *~;
#X obj 513 715 line~;
#X msg 513 657 0 10;
#X msg 524 682 1 10;
#X obj 541 576 sel 0 1 2 3 4 5 6;
#X obj 584 744 *~;
#X obj 612 715 line~;
#X msg 612 657 0 10;
#X msg 623 682 1 10;
#X obj 669 744 *~;
#X obj 697 715 line~;
#X msg 697 657 0 10;
#X msg 708 682 1 10;
#X obj 28 461 *~ 2;
#X obj 155 461 *~ 2;
#X obj 277 461 *~ 46;
#X obj 369 461 *~ 20;
#X obj 485 461 *~ 20;
#X obj 584 461 *~ 46;
#X obj 669 461 *~ -0.5;
#X obj 28 490 -~ 1;
#X obj 155 487 -~ 1;
#X obj 277 487 -~ 23;
#X obj 369 487 -~ 10;
#X obj 485 487 -~ 10;
#X obj 584 487 -~ 23;
#X obj 890 511 line;
#X obj 1186 511 line;
#X obj 398 14 r lfoFreq-3;
#X obj 890 14 r lfoRand-3;
#X obj 1292 72 r lfoChangeRate-3;
#X obj 996 66 r lfoChangeRate-3;
#X obj 1186 537 s lfoAmp-3;
#X obj 890 537 s lfoFreq-3;
#X obj 812 200 r lfoFreq-3;
#X obj 1106 187 r lfoAmp-3;
#X obj 653 54 r lfoWave-3;
#X obj 524 300 r lfoAmp-3;
#X obj 669 772 s~ lfoPitch-3;
#X obj 584 772 s~ lfoHip-3;
#X obj 485 772 s~ lfoDel-3;
#X obj 369 773 s~ lfoFeed-3;
#X obj 277 773 s~ lfoLop-3;
#X obj 155 773 s~ lfoFilterMix-3;
#X obj 28 773 s~ lfoWaveMix-3;
#X obj 541 544 r lfoRoute-3;
#X obj 709 580 del 100;
#X connect 0 0 2 0;
#X connect 1 0 0 0;
#X connect 1 1 0 1;
#X connect 2 0 28 0;
#X connect 3 0 4 0;
#X connect 4 0 1 0;
#X connect 4 0 11 1;
#X connect 5 0 4 1;
#X connect 6 0 2 1;
#X connect 7 0 8 0;
#X connect 8 0 11 0;
#X connect 9 0 10 0;
#X connect 9 1 12 0;
#X connect 10 0 2 1;
#X connect 11 0 112 0;
#X connect 12 0 28 0;
#X connect 12 0 6 0;
#X connect 12 1 13 0;
#X connect 13 0 112 0;
#X connect 14 0 16 0;
#X connect 15 0 14 0;
#X connect 15 1 14 1;
#X connect 16 0 29 0;
#X connect 17 0 18 0;
#X connect 18 0 15 0;
#X connect 18 0 24 1;
#X connect 19 0 18 1;
#X connect 20 0 16 1;
#X connect 21 0 26 0;
#X connect 22 0 23 0;
#X connect 22 1 25 0;
#X connect 23 0 16 1;
#X connect 24 0 113 0;
#X connect 25 0 29 0;
#X connect 25 0 20 0;
#X connect 25 1 27 0;
#X connect 26 0 24 0;
#X connect 27 0 113 0;
#X connect 28 0 7 0;
#X connect 28 1 3 0;
#X connect 29 0 21 0;
#X connect 29 1 17 0;
#X connect 30 0 36 0;
#X connect 31 0 41 0;
#X connect 32 0 42 0;
#X connect 33 0 43 0;
#X connect 34 0 37 0;
#X connect 35 0 34 1;
#X connect 35 0 33 1;
#X connect 35 0 32 1;
#X connect 35 0 31 1;
#X connect 35 0 30 1;
#X connect 36 0 39 0;
#X connect 37 0 38 0;
#X connect 38 0 44 0;
#X connect 39 0 40 0;
#X connect 40 0 45 0;
#X connect 41 0 47 0;
#X connect 42 0 53 0;
#X connect 43 0 55 0;
#X connect 44 0 61 0;
#X connect 45 0 69 0;
#X connect 46 0 45 1;
#X connect 47 0 69 0;
#X connect 48 0 47 1;
#X connect 49 0 46 0;
#X connect 50 0 48 0;
#X connect 51 0 46 0;
#X connect 52 0 48 0;
#X connect 53 0 69 0;
#X connect 54 0 53 1;
#X connect 55 0 69 0;
#X connect 56 0 55 1;
#X connect 57 0 54 0;
#X connect 58 0 56 0;
#X connect 59 0 54 0;
#X connect 60 0 56 0;
#X connect 61 0 69 0;
#X connect 62 0 61 1;
#X connect 63 0 62 0;
#X connect 64 0 62 0;
#X connect 65 0 66 0;
#X connect 65 1 35 0;
#X connect 66 0 49 0;
#X connect 66 0 50 0;
#X connect 66 0 57 0;
#X connect 66 0 58 0;
#X connect 66 0 63 0;
#X connect 66 0 132 0;
#X connect 66 1 63 0;
#X connect 66 1 58 0;
#X connect 66 1 57 0;
#X connect 66 1 50 0;
#X connect 66 1 51 0;
#X connect 66 2 63 0;
#X connect 66 2 58 0;
#X connect 66 2 57 0;
#X connect 66 2 49 0;
#X connect 66 2 52 0;
#X connect 66 3 63 0;
#X connect 66 3 58 0;
#X connect 66 3 49 0;
#X connect 66 3 50 0;
#X connect 66 3 59 0;
#X connect 66 4 63 0;
#X connect 66 4 49 0;
#X connect 66 4 50 0;
#X connect 66 4 57 0;
#X connect 66 4 60 0;
#X connect 66 5 49 0;
#X connect 66 5 50 0;
#X connect 66 5 57 0;
#X connect 66 5 58 0;
#X connect 66 5 64 0;
#X connect 67 0 68 0;
#X connect 68 0 69 1;
#X connect 69 0 99 0;
#X connect 69 0 100 0;
#X connect 69 0 101 0;
#X connect 69 0 102 0;
#X connect 69 0 103 0;
#X connect 69 0 104 0;
#X connect 69 0 105 0;
#X connect 70 0 130 0;
#X connect 71 0 70 1;
#X connect 72 0 129 0;
#X connect 73 0 72 1;
#X connect 74 0 71 0;
#X connect 75 0 73 0;
#X connect 76 0 71 0;
#X connect 77 0 73 0;
#X connect 78 0 128 0;
#X connect 79 0 78 1;
#X connect 80 0 127 0;
#X connect 81 0 80 1;
#X connect 82 0 79 0;
#X connect 83 0 81 0;
#X connect 84 0 79 0;
#X connect 85 0 81 0;
#X connect 86 0 126 0;
#X connect 87 0 86 1;
#X connect 88 0 87 0;
#X connect 89 0 87 0;
#X connect 90 0 75 0;
#X connect 90 0 82 0;
#X connect 90 0 83 0;
#X connect 90 0 88 0;
#X connect 90 0 93 0;
#X connect 90 0 97 0;
#X connect 90 0 76 0;
#X connect 90 1 82 0;
#X connect 90 1 83 0;
#X connect 90 1 88 0;
#X connect 90 1 93 0;
#X connect 90 1 97 0;
#X connect 90 1 74 0;
#X connect 90 1 77 0;
#X connect 90 2 83 0;
#X connect 90 2 88 0;
#X connect 90 2 93 0;
#X connect 90 2 97 0;
#X connect 90 2 74 0;
#X connect 90 2 75 0;
#X connect 90 2 84 0;
#X connect 90 3 88 0;
#X connect 90 3 93 0;
#X connect 90 3 97 0;
#X connect 90 3 74 0;
#X connect 90 3 75 0;
#X connect 90 3 82 0;
#X connect 90 3 85 0;
#X connect 90 4 93 0;
#X connect 90 4 97 0;
#X connect 90 4 74 0;
#X connect 90 4 75 0;
#X connect 90 4 82 0;
#X connect 90 4 83 0;
#X connect 90 4 89 0;
#X connect 90 5 97 0;
#X connect 90 5 74 0;
#X connect 90 5 75 0;
#X connect 90 5 82 0;
#X connect 90 5 83 0;
#X connect 90 5 88 0;
#X connect 90 5 94 0;
#X connect 90 6 74 0;
#X connect 90 6 75 0;
#X connect 90 6 82 0;
#X connect 90 6 83 0;
#X connect 90 6 88 0;
#X connect 90 6 93 0;
#X connect 90 6 98 0;
#X connect 91 0 125 0;
#X connect 92 0 91 1;
#X connect 93 0 92 0;
#X connect 94 0 92 0;
#X connect 95 0 124 0;
#X connect 96 0 95 1;
#X connect 97 0 96 0;
#X connect 98 0 96 0;
#X connect 99 0 106 0;
#X connect 100 0 107 0;
#X connect 101 0 108 0;
#X connect 102 0 109 0;
#X connect 103 0 110 0;
#X connect 104 0 111 0;
#X connect 105 0 95 0;
#X connect 106 0 70 0;
#X connect 107 0 72 0;
#X connect 108 0 78 0;
#X connect 109 0 80 0;
#X connect 110 0 86 0;
#X connect 111 0 91 0;
#X connect 112 0 119 0;
#X connect 113 0 118 0;
#X connect 114 0 34 0;
#X connect 114 0 33 0;
#X connect 114 0 32 0;
#X connect 114 0 31 0;
#X connect 114 0 30 0;
#X connect 115 0 22 0;
#X connect 115 0 9 0;
#X connect 116 0 17 1;
#X connect 116 0 19 0;
#X connect 117 0 3 1;
#X connect 117 0 5 0;
#X connect 120 0 13 1;
#X connect 121 0 27 1;
#X connect 122 0 65 0;
#X connect 123 0 67 0;
#X connect 131 0 90 0;
#X connect 132 0 97 0;
#X connect 132 0 93 0;
#X connect 132 0 88 0;
#X connect 132 0 83 0;
#X connect 132 0 82 0;
#X connect 132 0 75 0;
#X connect 132 0 74 0;
#X restore 201 455 pd LFO3;
#N canvas 0 50 450 300 LFO4 0;
#X obj 1008 342 delay;
#X obj 1008 313 t b f;
#X obj 1009 376 spigot;
#X obj 996 200 random 500;
#X obj 995 246 + 100;
#X obj 996 148 / 10;
#X msg 1068 352 1;
#X obj 890 200 random 2000;
#X obj 890 232 / 100;
#X obj 890 66 sel 0 1;
#X msg 1068 324 0;
#X obj 890 429 pack f f;
#X obj 928 93 t b b;
#X obj 840 237 f;
#X obj 1304 329 delay;
#X obj 1304 300 t b f;
#X obj 1305 363 spigot;
#X obj 1292 187 random 500;
#X obj 1291 233 + 100;
#X obj 1292 135 / 10;
#X msg 1364 339 1;
#X obj 1186 187 random 2000;
#X obj 1186 53 sel 0 1;
#X msg 1364 311 0;
#X obj 1186 416 pack f f;
#X obj 1224 80 t b b;
#X obj 1186 219 / 1000;
#X obj 1142 246 f;
#X obj 890 148 t b b;
#X obj 1186 135 t b b;
#X obj 28 106 hv.lfo sine;
#X obj 107 106 hv.lfo ramp;
#X obj 195 106 hv.lfo saw;
#X obj 280 106 hv.lfo triangle;
#X obj 382 106 hv.lfo square;
#X msg 499 14 0;
#X obj 28 132 * -1;
#X obj 382 132 * -1;
#X obj 382 158 + 1;
#X obj 28 158 + 1;
#X obj 28 184 sig~;
#X obj 107 184 sig~;
#X obj 195 184 sig~;
#X obj 280 184 sig~;
#X obj 382 184 sig~;
#X obj 28 315 *~;
#X obj 56 286 line~;
#X obj 107 315 *~;
#X obj 135 286 line~;
#X msg 56 228 0 10;
#X msg 135 228 0 10;
#X msg 67 253 1 10;
#X msg 146 253 1 10;
#X obj 195 315 *~;
#X obj 223 286 line~;
#X obj 274 315 *~;
#X obj 302 286 line~;
#X msg 223 228 0 10;
#X msg 302 228 0 10;
#X msg 234 253 1 10;
#X msg 313 253 1 10;
#X obj 382 315 *~;
#X obj 410 286 line~;
#X msg 410 228 0 10;
#X msg 421 253 1 10;
#X obj 653 80 t f b;
#X obj 653 106 sel 0 1 2 3 4 5;
#X msg 524 326 \$1 10;
#X obj 524 352 line~;
#X obj 28 369 *~;
#X obj 28 744 *~;
#X obj 56 715 line~;
#X obj 155 744 *~;
#X obj 183 715 line~;
#X msg 56 657 0 10;
#X msg 183 657 0 10;
#X msg 67 682 1 10;
#X msg 194 682 1 10;
#X obj 277 744 *~;
#X obj 305 715 line~;
#X obj 369 744 *~;
#X obj 397 715 line~;
#X msg 305 657 0 10;
#X msg 397 657 0 10;
#X msg 316 682 1 10;
#X msg 408 682 1 10;
#X obj 485 744 *~;
#X obj 513 715 line~;
#X msg 513 657 0 10;
#X msg 524 682 1 10;
#X obj 541 576 sel 0 1 2 3 4 5 6;
#X obj 584 744 *~;
#X obj 612 715 line~;
#X msg 612 657 0 10;
#X msg 623 682 1 10;
#X obj 669 744 *~;
#X obj 697 715 line~;
#X msg 697 657 0 10;
#X msg 708 682 1 10;
#X obj 28 461 *~ 2;
#X obj 155 461 *~ 2;
#X obj 277 461 *~ 46;
#X obj 369 461 *~ 20;
#X obj 485 461 *~ 20;
#X obj 584 461 *~ 46;
#X obj 669 461 *~ -0.5;
#X obj 28 490 -~ 1;
#X obj 155 487 -~ 1;
#X obj 277 487 -~ 23;
#X obj 369 487 -~ 10;
#X obj 485 487 -~ 10;
#X obj 584 487 -~ 23;
#X obj 890 511 line;
#X obj 1186 511 line;
#X obj 398 14 r lfoFreq-4;
#X obj 890 14 r lfoRand-4;
#X obj 653 54 r lfoWave-4;
#X obj 996 66 r lfoChangeRate-4;
#X obj 1292 72 r lfoChangeRate-4;
#X obj 812 200 r lfoFreq-4;
#X obj 1106 187 r lfoAmp-4;
#X obj 1186 537 s lfoAmp-4;
#X obj 890 537 s lfoFreq-4;
#X obj 524 300 r lfoAmp-4;
#X obj 541 544 r lfoRoute-4;
#X obj 28 773 s~ lfoWaveMix-4;
#X obj 155 773 s~ lfoFilterMix-4;
#X obj 277 773 s~ lfoLop-4;
#X obj 369 773 s~ lfoFeed-4;
#X obj 485 772 s~ lfoDel-4;
#X obj 584 772 s~ lfoHip-4;
#X obj 669 772 s~ lfoPitch-4;
#X obj 737 578 del 100;
#X connect 0 0 2 0;
#X connect 1 0 0 0;
#X connect 1 1 0 1;
#X connect 2 0 28 0;
#X connect 3 0 4 0;
#X connect 4 0 1 0;
#X connect 4 0 11 1;
#X connect 5 0 4 1;
#X connect 6 0 2 1;
#X connect 7 0 8 0;
#X connect 8 0 11 0;
#X connect 9 0 10 0;
#X connect 9 1 12 0;
#X connect 10 0 2 1;
#X connect 11 0 112 0;
#X connect 12 0 28 0;
#X connect 12 0 6 0;
#X connect 12 1 13 0;
#X connect 13 0 112 0;
#X connect 14 0 16 0;
#X connect 15 0 14 0;
#X connect 15 1 14 1;
#X connect 16 0 29 0;
#X connect 17 0 18 0;
#X connect 18 0 15 0;
#X connect 18 0 24 1;
#X connect 19 0 18 1;
#X connect 20 0 16 1;
#X connect 21 0 26 0;
#X connect 22 0 23 0;
#X connect 22 1 25 0;
#X connect 23 0 16 1;
#X connect 24 0 113 0;
#X connect 25 0 29 0;
#X connect 25 0 20 0;
#X connect 25 1 27 0;
#X connect 26 0 24 0;
#X connect 27 0 113 0;
#X connect 28 0 7 0;
#X connect 28 1 3 0;
#X connect 29 0 21 0;
#X connect 29 1 17 0;
#X connect 30 0 36 0;
#X connect 31 0 41 0;
#X connect 32 0 42 0;
#X connect 33 0 43 0;
#X connect 34 0 37 0;
#X connect 35 0 34 1;
#X connect 35 0 33 1;
#X connect 35 0 32 1;
#X connect 35 0 31 1;
#X connect 35 0 30 1;
#X connect 36 0 39 0;
#X connect 37 0 38 0;
#X connect 38 0 44 0;
#X connect 39 0 40 0;
#X connect 40 0 45 0;
#X connect 41 0 47 0;
#X connect 42 0 53 0;
#X connect 43 0 55 0;
#X connect 44 0 61 0;
#X connect 45 0 69 0;
#X connect 46 0 45 1;
#X connect 47 0 69 0;
#X connect 48 0 47 1;
#X connect 49 0 46 0;
#X connect 50 0 48 0;
#X connect 51 0 46 0;
#X connect 52 0 48 0;
#X connect 53 0 69 0;
#X connect 54 0 53 1;
#X connect 55 0 69 0;
#X connect 56 0 55 1;
#X connect 57 0 54 0;
#X connect 58 0 56 0;
#X connect 59 0 54 0;
#X connect 60 0 56 0;
#X connect 61 0 69 0;
#X connect 62 0 61 1;
#X connect 63 0 62 0;
#X connect 64 0 62 0;
#X connect 65 0 66 0;
#X connect 65 1 35 0;
#X connect 66 0 49 0;
#X connect 66 0 50 0;
#X connect 66 0 57 0;
#X connect 66 0 58 0;
#X connect 66 0 63 0;
#X connect 66 0 132 0;
#X connect 66 1 63 0;
#X connect 66 1 58 0;
#X connect 66 1 57 0;
#X connect 66 1 50 0;
#X connect 66 1 51 0;
#X connect 66 2 63 0;
#X connect 66 2 58 0;
#X connect 66 2 57 0;
#X connect 66 2 49 0;
#X connect 66 2 52 0;
#X connect 66 3 63 0;
#X connect 66 3 58 0;
#X connect 66 3 49 0;
#X connect 66 3 50 0;
#X connect 66 3 59 0;
#X connect 66 4 63 0;
#X connect 66 4 49 0;
#X connect 66 4 50 0;
#X connect 66 4 57 0;
#X connect 66 4 60 0;
#X connect 66 5 49 0;
#X connect 66 5 50 0;
#X connect 66 5 57 0;
#X connect 66 5 58 0;
#X connect 66 5 64 0;
#X connect 67 0 68 0;
#X connect 68 0 69 1;
#X connect 69 0 99 0;
#X connect 69 0 100 0;
#X connect 69 0 101 0;
#X connect 69 0 102 0;
#X connect 69 0 103 0;
#X connect 69 0 104 0;
#X connect 69 0 105 0;
#X connect 70 0 125 0;
#X connect 71 0 70 1;
#X connect 72 0 126 0;
#X connect 73 0 72 1;
#X connect 74 0 71 0;
#X connect 75 0 73 0;
#X connect 76 0 71 0;
#X connect 77 0 73 0;
#X connect 78 0 127 0;
#X connect 79 0 78 1;
#X connect 80 0 128 0;
#X connect 81 0 80 1;
#X connect 82 0 79 0;
#X connect 83 0 81 0;
#X connect 84 0 79 0;
#X connect 85 0 81 0;
#X connect 86 0 129 0;
#X connect 87 0 86 1;
#X connect 88 0 87 0;
#X connect 89 0 87 0;
#X connect 90 0 75 0;
#X connect 90 0 82 0;
#X connect 90 0 83 0;
#X connect 90 0 88 0;
#X connect 90 0 93 0;
#X connect 90 0 97 0;
#X connect 90 0 76 0;
#X connect 90 1 82 0;
#X connect 90 1 83 0;
#X connect 90 1 88 0;
#X connect 90 1 93 0;
#X connect 90 1 97 0;
#X connect 90 1 74 0;
#X connect 90 1 77 0;
#X connect 90 2 83 0;
#X connect 90 2 88 0;
#X connect 90 2 93 0;
#X connect 90 2 97 0;
#X connect 90 2 74 0;
#X connect 90 2 75 0;
#X connect 90 2 84 0;
#X connect 90 3 88 0;
#X connect 90 3 93 0;
#X connect 90 3 97 0;
#X connect 90 3 74 0;
#X connect 90 3 75 0;
#X connect 90 3 82 0;
#X connect 90 3 85 0;
#X connect 90 4 93 0;
#X connect 90 4 97 0;
#X connect 90 4 74 0;
#X connect 90 4 75 0;
#X connect 90 4 82 0;
#X connect 90 4 83 0;
#X connect 90 4 89 0;
#X connect 90 5 97 0;
#X connect 90 5 74 0;
#X connect 90 5 75 0;
#X connect 90 5 82 0;
#X connect 90 5 83 0;
#X connect 90 5 88 0;
#X connect 90 5 94 0;
#X connect 90 6 74 0;
#X connect 90 6 75 0;
#X connect 90 6 82 0;
#X connect 90 6 83 0;
#X connect 90 6 88 0;
#X connect 90 6 93 0;
#X connect 90 6 98 0;
#X connect 91 0 130 0;
#X connect 92 0 91 1;
#X connect 93 0 92 0;
#X connect 94 0 92 0;
#X connect 95 0 131 0;
#X connect 96 0 95 1;
#X connect 97 0 96 0;
#X connect 98 0 96 0;
#X connect 99 0 106 0;
#X connect 100 0 107 0;
#X connect 101 0 108 0;
#X connect 102 0 109 0;
#X connect 103 0 110 0;
#X connect 104 0 111 0;
#X connect 105 0 95 0;
#X connect 106 0 70 0;
#X connect 107 0 72 0;
#X connect 108 0 78 0;
#X connect 109 0 80 0;
#X connect 110 0 86 0;
#X connect 111 0 91 0;
#X connect 112 0 122 0;
#X connect 113 0 121 0;
#X connect 114 0 34 0;
#X connect 114 0 33 0;
#X connect 114 0 32 0;
#X connect 114 0 31 0;
#X connect 114 0 30 0;
#X connect 115 0 22 0;
#X connect 115 0 9 0;
#X connect 116 0 65 0;
#X connect 117 0 3 1;
#X connect 117 0 5 0;
#X connect 118 0 17 1;
#X connect 118 0 19 0;
#X connect 119 0 13 1;
#X connect 120 0 27 1;
#X connect 123 0 67 0;
#X connect 124 0 90 0;
#X connect 132 0 97 0;
#X connect 132 0 93 0;
#X connect 132 0 88 0;
#X connect 132 0 83 0;
#X connect 132 0 82 0;
#X connect 132 0 75 0;
#X connect 132 0 74 0;
#X restore 269 455 pd LFO4;
#X obj 63 534 *~;
#X obj 63 609 output~;
#X obj 62 463 my-comp;
#X obj 758 597 s attack;
#X obj 978 597 s decay;
#X obj 1196 597 s sus;
#X obj 1445 597 s rel;
#X obj 837 252 pow 2;
#X obj 837 307 * 10000;
#X text 483 194 TIMBRE;
#X text 483 499 ADSR;
#X obj 483 555 s randEnv;
#X text 483 627 FILTER;
#X obj 483 657 r FilterMixer @hv_param 0 1 0;
#X obj 678 657 r LowPass @hv_param 0.11 1 1;
#X obj 873 657 r FeedbackLvl @hv_param 0 1 0;
#X obj 873 683 * 95;
#X obj 873 709 + 1;
#X obj 1080 683 * 100;
#X obj 1080 657 r FeedbackDelay @hv_param 0 1 0.3;
#X obj 1313 657 r HiPass @hv_param 0 1 0;
#X text 483 858 LFOS;
#X obj 483 966 s lfoRand-1;
#X obj 483 1075 s lfoRand-2;
#X obj 483 1187 s lfoRand-3;
#X obj 483 1301 s lfoRand-4;
#X obj 747 914 pow 2;
#X obj 747 940 * 10000;
#X obj 747 966 s lfoChangeRate-1;
#X obj 747 1023 pow 2;
#X obj 747 1049 * 10000;
#X obj 747 1135 pow 2;
#X obj 747 1161 * 10000;
#X obj 747 1243 pow 2;
#X obj 747 1269 * 10000;
#X obj 747 1295 s lfoChangeRate-4;
#X obj 747 1187 s lfoChangeRate-3;
#X obj 747 1075 s lfoChangeRate-2;
#X obj 1010 966 s lfoFreq-1;
#X obj 1010 1075 s lfoFreq-2;
#X obj 1010 1187 s lfoFreq-3;
#X obj 1010 1295 s lfoFreq-4;
#X obj 1245 914 * 2;
#X obj 1245 966 s lfoAmp-1;
#X obj 1245 1023 * 2;
#X obj 1245 1135 * 2;
#X obj 1245 1243 * 2;
#X obj 1245 1295 s lfoAmp-4;
#X obj 1245 1187 s lfoAmp-3;
#X obj 1245 1075 s lfoAmp-2;
#X obj 1471 966 s lfoWave-1;
#X obj 1471 1075 s lfoWave-2;
#X obj 1471 1187 s lfoWave-3;
#X obj 1471 1295 s lfoWave-4;
#X obj 1682 966 s lfoRoute-1;
#X obj 1682 1295 s lfoRoute-4;
#X obj 1682 1187 s lfoRoute-3;
#X obj 1682 1075 s lfoRoute-2;
#X obj 758 529 r Attack_ms @hv_param 10 210 30;
#X obj 978 529 r Decay_ms @hv_param 10 210 30;
#X obj 1445 529 r Release_ms @hv_param 10 510 30;
#X obj 837 278 + 0.04;
#X obj 1196 529 r Sustain_percent @hv_param 0 100 65;
#X obj 483 888 r RandomizeLFO1 @hv_param 0 1 0 bool;
#X obj 483 997 r RandomizeLFO2 @hv_param 0 1 0 bool;
#X obj 483 1109 r RandomizeLFO3 @hv_param 0 1 0 bool;
#X obj 483 1217 r RandomizeLFO4 @hv_param 0 1 0 bool;
#X obj 483 529 r RandomizeEnvelope @hv_param 0 1 0 bool;
#X obj 597 304 - 1;
#X obj 715 307 - 1;
#X obj 1682 1109 r LFO3Route @hv_param 1 7 1 int;
#X obj 1682 1217 r LFO4Route @hv_param 1 7 1 int;
#X obj 1682 997 r LFO2Route @hv_param 1 7 1 int;
#X obj 1682 914 - 1;
#X obj 1682 1023 - 1;
#X obj 1682 1135 - 1;
#X obj 1682 1243 - 1;
#X obj 1245 888 r LFO1Amplitude @hv_param 0 1 0.5;
#X obj 1245 1109 r LFO3Amplitude @hv_param 0 1 0.5;
#X obj 1245 997 r LFO2Amplitude @hv_param 0 1 0.5;
#X obj 1245 1217 r LFO4Amplitude @hv_param 0 1 0.5;
#X obj 1010 888 r LFO1Frequency @hv_param 0 20 10;
#X obj 1010 1109 r LFO3Frequency @hv_param 0 20 10;
#X obj 1010 997 r LFO2Frequency @hv_param 0 20 10;
#X obj 1010 1217 r LFO4Frequency @hv_param 0 20 10;
#X obj 1471 888 r LFO1Wave @hv_param 0 5 0 int;
#X obj 1471 997 r LFO2Wave @hv_param 0 5 0 int;
#X obj 1471 1109 r LFO3Wave @hv_param 0 5 0 int;
#X obj 1471 1217 r LFO4Wave @hv_param 0 5 0 int;
#X text 1471 867 off-sine-ramp-saw-triangle-square;
#X obj 1471 569 r releaseRand;
#X obj 1226 569 r sustainRand;
#X obj 997 569 r decayRand;
#X obj 779 569 r attackRand;
#X msg 483 278 \$1 10;
#X obj 483 304 line~;
#X obj 873 787 line~;
#X obj 873 813 s~ fbk;
#X obj 483 813 s~ filterMix;
#X obj 678 813 s~ lop4;
#X obj 483 787 line~;
#X msg 873 761 \$1 10;
#X msg 483 761 \$1 10;
#X obj 678 787 line~;
#X msg 678 761 \$1 10;
#X obj 678 683 pow 2;
#X obj 678 709 * 20000;
#X obj 1313 683 pow 3;
#X obj 1313 717 * 200;
#X obj 562 914 tgl 25 0 empty empty empty 17 7 0 10 #191919 #e1e1e1 #e1e1e1 0 1;
#X obj 822 914 hsl 128 17 0 1 0 0 empty empty empty -2 -8 0 10 #191919 #e1e1e1 #e1e1e1 0 1;
#X obj 1049 914 hsl 128 17 0 20 0 0 empty empty empty -2 -8 0 10 #191919 #e1e1e1 #e1e1e1 0 1;
#X floatatom 816 938 5 0 0 0 - - - 12;
#X floatatom 1043 938 5 0 0 0 - - - 12;
#X obj 1295 914 hsl 128 17 0 1 0 0 empty empty empty -2 -8 0 10 #191919 #e1e1e1 #e1e1e1 0 1;
#X floatatom 1289 938 5 0 0 0 - - - 12;
#X obj 1501 914 hradio 20 1 0 6 empty empty empty 0 -8 0 10 #191919 #e1e1e1 #e1e1e1 0;
#X obj 1733 914 hradio 20 1 0 8 empty empty empty 0 -8 0 10 #191919 #e1e1e1 #e1e1e1 0;
#X obj 562 1023 tgl 25 0 empty empty empty 17 7 0 10 #191919 #e1e1e1 #e1e1e1 0 1;
#X obj 822 1023 hsl 128 17 0 1 0 0 empty empty empty -2 -8 0 10 #191919 #e1e1e1 #e1e1e1 0 1;
#X obj 1049 1023 hsl 128 17 0 20 0 0 empty empty empty -2 -8 0 10 #191919 #e1e1e1 #e1e1e1 0 1;
#X floatatom 816 1047 5 0 0 0 - - - 12;
#X floatatom 1043 1047 5 0 0 0 - - - 12;
#X obj 1295 1023 hsl 128 17 0 1 0 0 empty empty empty -2 -8 0 10 #191919 #e1e1e1 #e1e1e1 0 1;
#X floatatom 1289 1047 5 0 0 0 - - - 12;
#X obj 1501 1023 hradio 20 1 0 6 empty empty empty 0 -8 0 10 #191919 #e1e1e1 #e1e1e1 0;
#X obj 1733 1023 hradio 20 1 0 7 empty empty empty 0 -8 0 10 #191919 #e1e1e1 #e1e1e1 0;
#X obj 562 1135 tgl 25 0 empty empty empty 17 7 0 10 #191919 #e1e1e1 #e1e1e1 0 1;
#X obj 822 1135 hsl 128 17 0 1 0 0 empty empty empty -2 -8 0 10 #191919 #e1e1e1 #e1e1e1 0 1;
#X obj 1049 1135 hsl 128 17 0 20 0 0 empty empty empty -2 -8 0 10 #191919 #e1e1e1 #e1e1e1 0 1;
#X floatatom 816 1159 5 0 0 0 - - - 12;
#X floatatom 1043 1159 5 0 0 0 - - - 12;
#X obj 1295 1135 hsl 128 17 0 1 0 0 empty empty empty -2 -8 0 10 #191919 #e1e1e1 #e1e1e1 0 1;
#X floatatom 1289 1159 5 0 0 0 - - - 12;
#X obj 1501 1135 hradio 20 1 0 6 empty empty empty 0 -8 0 10 #191919 #e1e1e1 #e1e1e1 0;
#X obj 1733 1135 hradio 20 1 0 7 empty empty empty 0 -8 0 10 #191919 #e1e1e1 #e1e1e1 0;
#X obj 562 1247 tgl 25 0 empty empty empty 17 7 0 10 #191919 #e1e1e1 #e1e1e1 0 1;
#X obj 822 1247 hsl 128 17 0 1 0 0 empty empty empty -2 -8 0 10 #191919 #e1e1e1 #e1e1e1 0 1;
#X obj 1049 1247 hsl 128 17 0 20 0 0 empty empty empty -2 -8 0 10 #191919 #e1e1e1 #e1e1e1 0 1;
#X floatatom 816 1271 5 0 0 0 - - - 12;
#X floatatom 1043 1271 5 0 0 0 - - - 12;
#X obj 1295 1247 hsl 128 17 0 1 0 0 empty empty empty -2 -8 0 10 #191919 #e1e1e1 #e1e1e1 0 1;
#X floatatom 1289 1271 5 0 0 0 - - - 12;
#X obj 1501 1247 hradio 20 1 0 6 empty empty empty 0 -8 0 10 #191919 #e1e1e1 #e1e1e1 0;
#X obj 1733 1247 hradio 20 1 0 7 empty empty empty 0 -8 0 10 #191919 #e1e1e1 #e1e1e1 0;
#X obj 511 709 hsl 128 17 0 1 0 0 empty empty empty -2 -8 0 10 #191919 #e1e1e1 #e1e1e1 0 1;
#X obj 725 733 hsl 128 17 0 1 0 0 empty empty empty -2 -8 0 10 #191919 #e1e1e1 #e1e1e1 0 1;
#X obj 943 725 hsl 128 17 0 1 0 0 empty empty empty -2 -8 0 10 #191919 #e1e1e1 #e1e1e1 0 1;
#X obj 1161 717 hsl 128 17 0 1 0 0 empty empty empty -2 -8 0 10 #191919 #e1e1e1 #e1e1e1 0 1;
#X obj 1379 709 hsl 128 17 0 1 0 0 empty empty empty -2 -8 0 10 #191919 #e1e1e1 #e1e1e1 0 1;
#X obj 1313 787 line~;
#X msg 1313 761 \$1 10;
#X obj 1313 813 s~ fbkHip;
#X obj 1080 787 line~;
#X msg 1080 761 \$1 10;
#X obj 1080 813 s~ fbkDel;
#X obj 747 888 r LFO1ChangeRate @hv_param 0.2 1 0.2;
#X obj 747 997 r LFO2ChangeRate @hv_param 0.2 1 0.2;
#X obj 747 1217 r LFO4ChangeRate @hv_param 0.2 1 0.2;
#X obj 747 1109 r LFO3ChangeRate @hv_param 0.2 1 0.2;
#X text 483 399 WS ENVELOPE;
#X obj 1682 888 r LFO1Route @hv_param 1 8 1 int;
#X floatatom 895 579 5 0 0 0 - - - 12;
#X floatatom 1121 574 5 0 0 0 - - - 12;
#X floatatom 1354 564 5 0 0 0 - - - 12;
#X obj 1754 472 tgl 25 0 empty empty empty 17 7 0 10 #191919 #e1e1e1 #e1e1e1 0 1;
#X obj 1640 426 r noSensitivity @hv_param 0 1 0 bool;
#X obj 1640 458 s no-sens;
#X msg 113 503 \$1 10;
#X obj 113 529 line~;
#X obj 62 327 notein;
#X obj 62 353 mono;
#X obj 62 379 pack;
#X obj 483 226 r \$0-WaveMixer;
#X obj 483 333 s~ \$0-waveMix;
#X obj 597 226 r \$0-InputWave1;
#X obj 597 333 s \$0-inputWave1;
#X obj 715 226 r \$0-InputWave2;
#X obj 715 333 s \$0-inputWave2;
#X obj 837 226 r \$0-ChangeRate;
#X obj 837 333 s \$0-change-rate;
#X obj 483 426 r \$0-RandomizeWF_Env;
#X obj 639 426 r \$0-RandomizeWF_Peak;
#X obj 483 458 s \$0-randWsEnv;
#X obj 639 458 s \$0-randWsPeak;
#X obj 805 426 r \$0-WS_peak;
#X obj 805 458 s \$0-wsPeak;
#X obj 913 426 r \$0-WS_attack;
#X obj 913 458 s \$0-wsAttack;
#X obj 1029 426 r \$0-WS_decay;
#X obj 1029 458 s \$0-wsDecay;
#X obj 1140 426 r \$0-WS_sustain;
#X obj 1140 458 s \$0-wsSustain;
#N canvas 0 0 450 300 (subpatch) 0;
#X array \$0-shapeFunction 25 float 1;
#A 0 0.030476 -0.563996 0.96 -0.516961 -0.719577 -0.0162467 -0.895385 0.239231 0.02 -0.228515 0.804332 -0.86 -0.74 0.663809 0.7 0.330168 -0.42 -0.86 0.4 -0.06 0.374159 -0.150483 0.137255 -0.66 -0.3;
#X coords 0 1 24 -1 112 81 1;
#X restore 195 183 graph;
#X obj 26 79 tgl 39 0 empty empty velocity\ off -5 -9 0 9 #191919 #e1e1e1 #e1e1e1 0 1;
#X obj 158 28 knob 60 0 1 0 0.5 empty empty #191919 #696969 #E1E1E1 1 0 0 0 1 270 0 0 0 empty empty 1 14 19 46 0 1 0 0;
#X obj 132 28 vradio 20 1 1 3 empty empty empty 0 -8 0 10 #191919 #e1e1e1 #e1e1e1 0;
#X text 99 27 sine;
#X text 100 48 saw;
#X text 80 69 triangle;
#X obj 225 28 vradio 20 1 1 3 empty empty empty 0 -8 0 10 #191919 #e1e1e1 #e1e1e1 3;
#X text 246 27 sine;
#X text 247 48 saw;
#X text 247 69 triangle;
#X obj 83 100 hsl 165 18 0 1 0 0 empty empty change\ rate 2 8 0 10 #191919 #e1e1e1 #e1e1e1 0 1;
#X text 157 7 wave mix;
#X floatatom 255 100 7 0 0 0 - - - 12;
#X floatatom 17 139 5 10 210 2 attack \$0-attackRand - 12;
#X floatatom 60 139 5 10 210 2 decay \$0-decayRand - 12;
#X floatatom 103 139 5 0 100 2 sustain \$0-sustainRand - 12;
#X floatatom 146 139 5 10 510 2 release \$0-releaseRand - 12;
#X obj 195 134 tgl 29 0 empty empty rand\ adsr -8 -8 0 10 #191919 #e1e1e1 #e1e1e1 0 1;
#X floatatom 17 198 5 0 100 2 ws\ peak \$0-wsPeakRand - 12;
#X floatatom 73 198 5 10 10000 2 ws\ attack \$0-wsAttackRand - 12;
#X floatatom 17 235 5 500 10000 2 ws\ decay \$0-wsDecayRand - 12;
#X floatatom 73 235 5 10 100 2 ws\ sustain \$0-wsSustainRand - 12;
#X obj 145 205 tgl 21 0 empty empty rand\ ws\ env -15 -8 0 10 #191919 #e1e1e1 #e1e1e1 0 1;
#X obj 145 242 tgl 21 0 empty empty rand\ ws\ peak -16 -8 0 10 #191919 #e1e1e1 #e1e1e1 0 1;
#X text 17 167 WAVESHAPE CONTROL;
#X obj 26 17 vradio 20 1 0 2 empty empty empty 0 -8 0 10 #191919 #e1e1e1 #e1e1e1 0;
#X text 50 16 mono;
#X text 50 38 poly;
#X connect 0 0 1 0;
#X connect 1 0 9 0;
#X connect 7 0 8 0;
#X connect 9 0 7 0;
#X connect 14 0 68 0;
#X connect 15 0 187 0;
#X connect 20 0 109 0;
#X connect 21 0 112 0;
#X connect 22 0 23 0;
#X connect 23 0 24 0;
#X connect 24 0 108 0;
#X connect 25 0 161 0;
#X connect 26 0 25 0;
#X connect 27 0 114 0;
#X connect 33 0 34 0;
#X connect 34 0 35 0;
#X connect 36 0 37 0;
#X connect 37 0 44 0;
#X connect 38 0 39 0;
#X connect 39 0 43 0;
#X connect 40 0 41 0;
#X connect 41 0 42 0;
#X connect 49 0 50 0;
#X connect 51 0 56 0;
#X connect 52 0 55 0;
#X connect 53 0 54 0;
#X connect 65 0 10 0;
#X connect 66 0 11 0;
#X connect 67 0 13 0;
#X connect 68 0 15 0;
#X connect 69 0 12 0;
#X connect 70 0 29 0;
#X connect 71 0 30 0;
#X connect 72 0 31 0;
#X connect 73 0 32 0;
#X connect 74 0 18 0;
#X connect 75 0 183 0;
#X connect 76 0 185 0;
#X connect 77 0 82 0;
#X connect 78 0 83 0;
#X connect 79 0 81 0;
#X connect 80 0 61 0;
#X connect 81 0 64 0;
#X connect 82 0 63 0;
#X connect 83 0 62 0;
#X connect 84 0 49 0;
#X connect 85 0 52 0;
#X connect 86 0 51 0;
#X connect 87 0 53 0;
#X connect 88 0 45 0;
#X connect 89 0 47 0;
#X connect 90 0 46 0;
#X connect 91 0 48 0;
#X connect 92 0 57 0;
#X connect 93 0 58 0;
#X connect 94 0 59 0;
#X connect 95 0 60 0;
#X connect 97 0 13 0;
#X connect 98 0 12 0;
#X connect 99 0 11 0;
#X connect 100 0 10 0;
#X connect 101 0 102 0;
#X connect 102 0 181 0;
#X connect 103 0 104 0;
#X connect 107 0 105 0;
#X connect 108 0 103 0;
#X connect 109 0 107 0;
#X connect 110 0 106 0;
#X connect 111 0 110 0;
#X connect 112 0 113 0;
#X connect 113 0 111 0;
#X connect 114 0 115 0;
#X connect 115 0 158 0;
#X connect 116 0 29 0;
#X connect 117 0 119 0;
#X connect 118 0 120 0;
#X connect 119 0 33 0;
#X connect 120 0 45 0;
#X connect 121 0 122 0;
#X connect 122 0 49 0;
#X connect 123 0 57 0;
#X connect 124 0 61 0;
#X connect 125 0 30 0;
#X connect 126 0 128 0;
#X connect 127 0 129 0;
#X connect 128 0 36 0;
#X connect 129 0 46 0;
#X connect 130 0 131 0;
#X connect 131 0 51 0;
#X connect 132 0 58 0;
#X connect 133 0 64 0;
#X connect 134 0 31 0;
#X connect 135 0 137 0;
#X connect 136 0 138 0;
#X connect 137 0 38 0;
#X connect 138 0 47 0;
#X connect 139 0 140 0;
#X connect 140 0 52 0;
#X connect 141 0 59 0;
#X connect 142 0 63 0;
#X connect 143 0 32 0;
#X connect 144 0 146 0;
#X connect 145 0 147 0;
#X connect 146 0 40 0;
#X connect 147 0 48 0;
#X connect 148 0 149 0;
#X connect 149 0 53 0;
#X connect 150 0 60 0;
#X connect 151 0 62 0;
#X connect 152 0 109 0;
#X connect 153 0 112 0;
#X connect 154 0 23 0;
#X connect 155 0 25 0;
#X connect 156 0 114 0;
#X connect 157 0 159 0;
#X connect 158 0 157 0;
#X connect 160 0 162 0;
#X connect 161 0 160 0;
#X connect 163 0 33 0;
#X connect 164 0 36 0;
#X connect 165 0 40 0;
#X connect 166 0 38 0;
#X connect 168 0 80 0;
#X connect 169 0 10 0;
#X connect 170 0 11 0;
#X connect 171 0 12 0;
#X connect 172 0 174 0;
#X connect 173 0 174 0;
#X connect 175 0 176 0;
#X connect 176 0 7 1;
#X connect 177 0 178 0;
#X connect 178 0 179 0;
#X connect 179 0 0 0;
#X connect 180 0 101 0;
#X connect 182 0 75 0;
#X connect 184 0 76 0;
#X connect 186 0 14 0;
#X connect 188 0 190 0;
#X connect 189 0 191 0;
#X connect 192 0 193 0;
#X connect 194 0 195 0;
#X connect 196 0 197 0;
#X connect 198 0 199 0;
