#N canvas 827 239 734 565 12;
#X obj 15 80 tgl 25 0 empty empty C 17 7 0 10 #ff0400 #e1e1e1 #e1e1e1 0 100;
#X obj 46 80 tgl 25 0 empty empty C# 17 7 0 10 #191919 #e1e1e1 #e1e1e1 0 100;
#X obj 77 80 tgl 25 0 empty empty D 17 7 0 10 #191919 #e1e1e1 #e1e1e1 0 100;
#X obj 108 80 tgl 25 0 empty empty D# 17 7 0 10 #191919 #e1e1e1 #e1e1e1 0 100;
#X obj 139 80 tgl 25 0 empty empty E 17 7 0 10 #191919 #e1e1e1 #e1e1e1 0 100;
#X obj 170 80 tgl 25 0 empty empty F 17 7 0 10 #191919 #e1e1e1 #e1e1e1 0 100;
#X obj 201 80 tgl 25 0 empty empty F# 17 7 0 10 #191919 #e1e1e1 #e1e1e1 0 100;
#X obj 232 80 tgl 25 0 empty empty G 17 7 0 10 #191919 #e1e1e1 #e1e1e1 0 100;
#X obj 263 80 tgl 25 0 empty empty G# 17 7 0 10 #191919 #e1e1e1 #e1e1e1 0 100;
#X obj 294 80 tgl 25 0 empty empty A 17 7 0 10 #191919 #e1e1e1 #e1e1e1 0 100;
#X obj 325 80 tgl 25 0 empty empty A# 17 7 0 10 #191919 #e1e1e1 #e1e1e1 0 100;
#X obj 356 80 tgl 25 0 empty empty B 17 7 0 10 #191919 #e1e1e1 #e1e1e1 0 100;
#X obj 644 411 list-wrandom;
#X obj 668 16 bng 25 250 50 0 empty empty empty 17 7 0 10 #191919 #e1e1e1 #e1e1e1;
#X floatatom 644 547 5 0 0 0 - - - 12;
#X floatatom 15 263 5 0 0 0 - - - 12;
#X obj 15 671 t f b;
#X floatatom 58 263 5 0 0 0 - - - 12;
#X obj 58 671 t f b;
#X floatatom 101 263 5 0 0 0 - - - 12;
#X obj 101 671 t f b;
#X floatatom 144 263 5 0 0 0 - - - 12;
#X obj 144 671 t f b;
#X floatatom 187 263 5 0 0 0 - - - 12;
#X obj 187 671 t f b;
#X floatatom 230 263 5 0 0 0 - - - 12;
#X obj 230 671 t f b;
#X floatatom 273 263 5 0 0 0 - - - 12;
#X obj 273 671 t f b;
#X floatatom 316 263 5 0 0 0 - - - 12;
#X obj 316 671 t f b;
#X floatatom 359 263 5 0 0 0 - - - 12;
#X obj 359 671 t f b;
#X floatatom 402 263 5 0 0 0 - - - 12;
#X obj 402 671 t f b;
#X floatatom 445 263 5 0 0 0 - - - 12;
#X obj 445 671 t f b;
#X floatatom 488 263 5 0 0 0 - - - 12;
#X obj 488 671 t f b;
#X obj 46 112 tgl 25 0 empty empty C# 17 7 0 10 #191919 #e1e1e1 #e1e1e1 0 100;
#X obj 77 112 tgl 25 0 empty empty D 17 7 0 10 #191919 #e1e1e1 #e1e1e1 0 100;
#X obj 108 112 tgl 25 0 empty empty D# 17 7 0 10 #191919 #e1e1e1 #e1e1e1 0 100;
#X obj 139 112 tgl 25 0 empty empty E 17 7 0 10 #191919 #e1e1e1 #e1e1e1 0 100;
#X obj 170 112 tgl 25 0 empty empty F 17 7 0 10 #191919 #e1e1e1 #e1e1e1 0 100;
#X obj 201 112 tgl 25 0 empty empty F# 17 7 0 10 #191919 #e1e1e1 #e1e1e1 0 100;
#X obj 232 112 tgl 25 0 empty empty G 17 7 0 10 #191919 #e1e1e1 #e1e1e1 0 100;
#X obj 263 112 tgl 25 0 empty empty G# 17 7 0 10 #191919 #e1e1e1 #e1e1e1 0 100;
#X obj 294 112 tgl 25 0 empty empty A 17 7 0 10 #191919 #e1e1e1 #e1e1e1 0 100;
#X obj 325 112 tgl 25 0 empty empty A# 17 7 0 10 #191919 #e1e1e1 #e1e1e1 0 100;
#X obj 356 112 tgl 25 0 empty empty B 17 7 0 10 #191919 #e1e1e1 #e1e1e1 0 100;
#X floatatom 15 287 5 0 0 0 - - - 12;
#X obj 40 735 t f b;
#X floatatom 58 287 5 0 0 0 - - - 12;
#X obj 83 735 t f b;
#X floatatom 101 287 5 0 0 0 - - - 12;
#X obj 126 735 t f b;
#X floatatom 144 287 5 0 0 0 - - - 12;
#X obj 169 735 t f b;
#X floatatom 187 287 5 0 0 0 - - - 12;
#X obj 212 735 t f b;
#X floatatom 230 287 5 0 0 0 - - - 12;
#X obj 255 735 t f b;
#X floatatom 273 287 5 0 0 0 - - - 12;
#X obj 298 735 t f b;
#X floatatom 316 287 5 0 0 0 - - - 12;
#X obj 341 735 t f b;
#X floatatom 359 287 5 0 0 0 - - - 12;
#X obj 384 735 t f b;
#X floatatom 402 287 5 0 0 0 - - - 12;
#X obj 427 735 t f b;
#X floatatom 445 287 5 0 0 0 - - - 12;
#X obj 470 735 t f b;
#X floatatom 488 287 5 0 0 0 - - - 12;
#X obj 513 735 t f b;
#X obj 15 112 tgl 25 0 empty empty C 17 7 0 10 #191919 #e1e1e1 #e1e1e1 0 100;
#X obj 46 144 tgl 25 0 empty empty C# 17 7 0 10 #191919 #e1e1e1 #e1e1e1 0 100;
#X obj 77 144 tgl 25 0 empty empty D 17 7 0 10 #191919 #e1e1e1 #e1e1e1 0 100;
#X obj 108 144 tgl 25 0 empty empty D# 17 7 0 10 #191919 #e1e1e1 #e1e1e1 0 100;
#X obj 139 144 tgl 25 0 empty empty E 17 7 0 10 #191919 #e1e1e1 #e1e1e1 0 100;
#X obj 170 144 tgl 25 0 empty empty F 17 7 0 10 #191919 #e1e1e1 #e1e1e1 0 100;
#X obj 201 144 tgl 25 0 empty empty F# 17 7 0 10 #191919 #e1e1e1 #e1e1e1 0 100;
#X obj 232 144 tgl 25 0 empty empty G 17 7 0 10 #191919 #e1e1e1 #e1e1e1 0 100;
#X obj 263 144 tgl 25 0 empty empty G# 17 7 0 10 #191919 #e1e1e1 #e1e1e1 0 100;
#X obj 294 144 tgl 25 0 empty empty A 17 7 0 10 #191919 #e1e1e1 #e1e1e1 0 100;
#X obj 325 144 tgl 25 0 empty empty A# 17 7 0 10 #191919 #e1e1e1 #e1e1e1 0 100;
#X obj 356 144 tgl 25 0 empty empty B 17 7 0 10 #191919 #e1e1e1 #e1e1e1 0 100;
#X floatatom 15 311 5 0 0 0 - - - 12;
#X obj 65 795 t f b;
#X floatatom 58 311 5 0 0 0 - - - 12;
#X obj 108 795 t f b;
#X floatatom 101 311 5 0 0 0 - - - 12;
#X obj 151 795 t f b;
#X floatatom 144 311 5 0 0 0 - - - 12;
#X obj 194 795 t f b;
#X floatatom 187 311 5 0 0 0 - - - 12;
#X obj 237 795 t f b;
#X floatatom 230 311 5 0 0 0 - - - 12;
#X obj 280 795 t f b;
#X floatatom 273 311 5 0 0 0 - - - 12;
#X obj 323 795 t f b;
#X floatatom 316 311 5 0 0 0 - - - 12;
#X obj 366 795 t f b;
#X floatatom 359 311 5 0 0 0 - - - 12;
#X obj 409 795 t f b;
#X floatatom 402 311 5 0 0 0 - - - 12;
#X obj 452 795 t f b;
#X floatatom 445 311 5 0 0 0 - - - 12;
#X obj 495 795 t f b;
#X floatatom 488 311 5 0 0 0 - - - 12;
#X obj 538 795 t f b;
#X obj 15 144 tgl 25 0 empty empty C 17 7 0 10 #191919 #e1e1e1 #e1e1e1 0 100;
#X obj 46 48 tgl 25 0 empty empty C# 17 7 0 10 #191919 #e1e1e1 #e1e1e1 0 100;
#X obj 77 48 tgl 25 0 empty empty D 17 7 0 10 #191919 #e1e1e1 #e1e1e1 0 100;
#X obj 108 48 tgl 25 0 empty empty D# 17 7 0 10 #191919 #e1e1e1 #e1e1e1 0 100;
#X obj 139 48 tgl 25 0 empty empty E 17 7 0 10 #191919 #e1e1e1 #e1e1e1 0 100;
#X obj 170 48 tgl 25 0 empty empty F 17 7 0 10 #191919 #e1e1e1 #e1e1e1 0 100;
#X obj 201 48 tgl 25 0 empty empty F# 17 7 0 10 #191919 #e1e1e1 #e1e1e1 0 100;
#X obj 232 48 tgl 25 0 empty empty G 17 7 0 10 #191919 #e1e1e1 #e1e1e1 0 100;
#X obj 263 48 tgl 25 0 empty empty G# 17 7 0 10 #191919 #e1e1e1 #e1e1e1 0 100;
#X obj 294 48 tgl 25 0 empty empty A 17 7 0 10 #191919 #e1e1e1 #e1e1e1 0 100;
#X obj 325 48 tgl 25 0 empty empty A# 17 7 0 10 #191919 #e1e1e1 #e1e1e1 0 100;
#X obj 356 48 tgl 25 0 empty empty B 17 7 0 10 #191919 #e1e1e1 #e1e1e1 0 100;
#X floatatom 15 239 5 0 0 0 - - - 12;
#X obj -10 611 t f b;
#X floatatom 58 239 5 0 0 0 - - - 12;
#X obj 33 611 t f b;
#X floatatom 101 239 5 0 0 0 - - - 12;
#X obj 76 611 t f b;
#X floatatom 144 239 5 0 0 0 - - - 12;
#X obj 119 611 t f b;
#X floatatom 187 239 5 0 0 0 - - - 12;
#X obj 162 611 t f b;
#X floatatom 230 239 5 0 0 0 - - - 12;
#X obj 205 611 t f b;
#X floatatom 273 239 5 0 0 0 - - - 12;
#X obj 248 611 t f b;
#X floatatom 316 239 5 0 0 0 - - - 12;
#X obj 291 611 t f b;
#X floatatom 359 239 5 0 0 0 - - - 12;
#X obj 334 611 t f b;
#X floatatom 402 239 5 0 0 0 - - - 12;
#X obj 377 611 t f b;
#X floatatom 445 239 5 0 0 0 - - - 12;
#X obj 420 611 t f b;
#X floatatom 488 239 5 0 0 0 - - - 12;
#X obj 463 611 t f b;
#X obj 15 48 tgl 25 0 empty empty C 17 7 0 10 #191919 #e1e1e1 #e1e1e1 0 100;
#X obj 46 16 tgl 25 0 empty empty C# 17 7 0 10 #191919 #e1e1e1 #e1e1e1 0 100;
#X obj 77 16 tgl 25 0 empty empty D 17 7 0 10 #191919 #e1e1e1 #e1e1e1 0 100;
#X obj 108 16 tgl 25 0 empty empty D# 17 7 0 10 #191919 #e1e1e1 #e1e1e1 0 100;
#X obj 139 16 tgl 25 0 empty empty E 17 7 0 10 #191919 #e1e1e1 #e1e1e1 0 100;
#X obj 170 16 tgl 25 0 empty empty F 17 7 0 10 #191919 #e1e1e1 #e1e1e1 0 100;
#X obj 201 16 tgl 25 0 empty empty F# 17 7 0 10 #191919 #e1e1e1 #e1e1e1 0 100;
#X obj 232 16 tgl 25 0 empty empty G 17 7 0 10 #191919 #e1e1e1 #e1e1e1 0 100;
#X obj 263 16 tgl 25 0 empty empty G# 17 7 0 10 #191919 #e1e1e1 #e1e1e1 0 100;
#X obj 294 16 tgl 25 0 empty empty A 17 7 0 10 #191919 #e1e1e1 #e1e1e1 0 100;
#X obj 325 16 tgl 25 0 empty empty A# 17 7 0 10 #191919 #e1e1e1 #e1e1e1 0 100;
#X obj 356 16 tgl 25 0 empty empty B 17 7 0 10 #191919 #e1e1e1 #e1e1e1 0 100;
#X floatatom 15 215 5 0 0 0 - - - 12;
#X obj -35 555 t f b;
#X floatatom 58 215 5 0 0 0 - - - 12;
#X obj 8 555 t f b;
#X floatatom 101 215 5 0 0 0 - - - 12;
#X obj 51 555 t f b;
#X floatatom 144 215 5 0 0 0 - - - 12;
#X obj 94 555 t f b;
#X floatatom 187 215 5 0 0 0 - - - 12;
#X obj 137 555 t f b;
#X floatatom 230 215 5 0 0 0 - - - 12;
#X obj 180 555 t f b;
#X floatatom 273 215 5 0 0 0 - - - 12;
#X obj 223 555 t f b;
#X floatatom 316 215 5 0 0 0 - - - 12;
#X obj 266 555 t f b;
#X floatatom 359 215 5 0 0 0 - - - 12;
#X obj 309 555 t f b;
#X floatatom 402 215 5 0 0 0 - - - 12;
#X obj 352 555 t f b;
#X floatatom 445 215 5 0 0 0 - - - 12;
#X obj 395 555 t f b;
#X floatatom 488 215 5 0 0 0 - - - 12;
#X obj 438 555 t f b;
#X obj 15 16 tgl 25 0 empty empty C 17 7 0 10 #191919 #e1e1e1 #e1e1e1 0 100;
#X obj 644 274 t b b;
#X floatatom 673 455 5 0 0 0 - - - 12;
#X msg -35 584 0;
#X msg 8 584 1;
#X msg 51 584 2;
#X msg 94 584 3;
#X msg 137 584 4;
#X msg 180 584 5;
#X msg 223 584 6;
#X msg 266 584 7;
#X msg 309 584 8;
#X msg 352 584 9;
#X msg 395 584 10;
#X msg 438 584 11;
#X msg -10 640 12;
#X msg 33 640 13;
#X msg 76 640 14;
#X msg 119 640 15;
#X msg 162 640 16;
#X msg 205 640 17;
#X msg 248 640 18;
#X msg 291 640 19;
#X msg 334 640 20;
#X msg 377 640 21;
#X msg 420 640 22;
#X msg 463 640 23;
#X msg 15 700 24;
#X msg 58 700 25;
#X msg 101 700 26;
#X msg 144 700 27;
#X msg 187 700 28;
#X msg 230 700 29;
#X msg 273 700 30;
#X msg 316 700 31;
#X msg 359 700 32;
#X msg 402 700 33;
#X msg 445 700 34;
#X msg 488 700 35;
#X msg 40 764 36;
#X msg 83 764 37;
#X msg 126 764 38;
#X msg 169 764 39;
#X msg 212 764 40;
#X msg 255 764 41;
#X msg 298 764 42;
#X msg 341 764 43;
#X msg 384 764 44;
#X msg 427 764 45;
#X msg 470 764 46;
#X msg 513 764 47;
#X msg 65 824 48;
#X msg 108 824 49;
#X msg 151 824 50;
#X msg 194 824 51;
#X msg 237 824 52;
#X msg 280 824 53;
#X msg 323 824 54;
#X msg 366 824 55;
#X msg 409 824 56;
#X msg 452 824 57;
#X msg 495 824 58;
#X msg 538 824 59;
#X obj 644 521 + 36;
#X obj 680 335 list-moses 1;
#X obj 1049 509 array define -yrange 0 100 \$0-prob 60;
#X obj 680 304 array get \$0-prob;
#N canvas 0 0 450 250 (subpatch) 0;
#X array \$0-notes 100 float 2;
#X coords 0 1 100 -1 200 140 1;
#X restore 987 164 graph;
#X connect 0 0 15 0;
#X connect 1 0 17 0;
#X connect 2 0 19 0;
#X connect 3 0 21 0;
#X connect 4 0 23 0;
#X connect 5 0 25 0;
#X connect 6 0 27 0;
#X connect 7 0 29 0;
#X connect 8 0 31 0;
#X connect 9 0 33 0;
#X connect 10 0 35 0;
#X connect 11 0 37 0;
#X connect 12 0 184 0;
#X connect 12 0 245 0;
#X connect 15 0 16 0;
#X connect 16 1 209 0;
#X connect 17 0 18 0;
#X connect 18 1 210 0;
#X connect 19 0 20 0;
#X connect 20 1 211 0;
#X connect 21 0 22 0;
#X connect 22 1 212 0;
#X connect 23 0 24 0;
#X connect 24 1 213 0;
#X connect 25 0 26 0;
#X connect 26 1 214 0;
#X connect 27 0 28 0;
#X connect 28 1 215 0;
#X connect 29 0 30 0;
#X connect 30 1 216 0;
#X connect 31 0 32 0;
#X connect 32 1 217 0;
#X connect 33 0 34 0;
#X connect 34 1 218 0;
#X connect 35 0 36 0;
#X connect 36 1 219 0;
#X connect 37 0 38 0;
#X connect 38 1 220 0;
#X connect 39 0 52 0;
#X connect 40 0 54 0;
#X connect 41 0 56 0;
#X connect 42 0 58 0;
#X connect 43 0 60 0;
#X connect 44 0 62 0;
#X connect 45 0 64 0;
#X connect 46 0 66 0;
#X connect 47 0 68 0;
#X connect 48 0 70 0;
#X connect 49 0 72 0;
#X connect 50 0 51 0;
#X connect 51 1 221 0;
#X connect 52 0 53 0;
#X connect 53 1 222 0;
#X connect 54 0 55 0;
#X connect 55 1 223 0;
#X connect 56 0 57 0;
#X connect 57 1 224 0;
#X connect 58 0 59 0;
#X connect 59 1 225 0;
#X connect 60 0 61 0;
#X connect 61 1 226 0;
#X connect 62 0 63 0;
#X connect 63 1 227 0;
#X connect 64 0 65 0;
#X connect 65 1 228 0;
#X connect 66 0 67 0;
#X connect 67 1 229 0;
#X connect 68 0 69 0;
#X connect 69 1 230 0;
#X connect 70 0 71 0;
#X connect 71 1 231 0;
#X connect 72 0 73 0;
#X connect 73 1 232 0;
#X connect 74 0 50 0;
#X connect 75 0 88 0;
#X connect 76 0 90 0;
#X connect 77 0 92 0;
#X connect 78 0 94 0;
#X connect 79 0 96 0;
#X connect 80 0 98 0;
#X connect 81 0 100 0;
#X connect 82 0 102 0;
#X connect 83 0 104 0;
#X connect 84 0 106 0;
#X connect 85 0 108 0;
#X connect 86 0 87 0;
#X connect 87 1 233 0;
#X connect 88 0 89 0;
#X connect 89 1 234 0;
#X connect 90 0 91 0;
#X connect 91 1 235 0;
#X connect 92 0 93 0;
#X connect 93 1 236 0;
#X connect 94 0 95 0;
#X connect 95 1 237 0;
#X connect 96 0 97 0;
#X connect 97 1 238 0;
#X connect 98 0 99 0;
#X connect 99 1 239 0;
#X connect 100 0 101 0;
#X connect 101 1 240 0;
#X connect 102 0 103 0;
#X connect 103 1 241 0;
#X connect 104 0 105 0;
#X connect 105 1 242 0;
#X connect 106 0 107 0;
#X connect 107 1 243 0;
#X connect 108 0 109 0;
#X connect 109 1 244 0;
#X connect 110 0 86 0;
#X connect 111 0 124 0;
#X connect 112 0 126 0;
#X connect 113 0 128 0;
#X connect 114 0 130 0;
#X connect 115 0 132 0;
#X connect 116 0 134 0;
#X connect 117 0 136 0;
#X connect 118 0 138 0;
#X connect 119 0 140 0;
#X connect 120 0 142 0;
#X connect 121 0 144 0;
#X connect 122 0 123 0;
#X connect 123 1 197 0;
#X connect 124 0 125 0;
#X connect 125 1 198 0;
#X connect 126 0 127 0;
#X connect 127 1 199 0;
#X connect 128 0 129 0;
#X connect 129 1 200 0;
#X connect 130 0 131 0;
#X connect 131 1 201 0;
#X connect 132 0 133 0;
#X connect 133 1 202 0;
#X connect 134 0 135 0;
#X connect 135 1 203 0;
#X connect 136 0 137 0;
#X connect 137 1 204 0;
#X connect 138 0 139 0;
#X connect 139 1 205 0;
#X connect 140 0 141 0;
#X connect 141 1 206 0;
#X connect 142 0 143 0;
#X connect 143 1 207 0;
#X connect 144 0 145 0;
#X connect 145 1 208 0;
#X connect 146 0 122 0;
#X connect 147 0 160 0;
#X connect 148 0 162 0;
#X connect 149 0 164 0;
#X connect 150 0 166 0;
#X connect 151 0 168 0;
#X connect 152 0 170 0;
#X connect 153 0 172 0;
#X connect 154 0 174 0;
#X connect 155 0 176 0;
#X connect 156 0 178 0;
#X connect 157 0 180 0;
#X connect 158 0 159 0;
#X connect 159 1 185 0;
#X connect 160 0 161 0;
#X connect 161 1 186 0;
#X connect 162 0 163 0;
#X connect 163 1 187 0;
#X connect 164 0 165 0;
#X connect 165 1 188 0;
#X connect 166 0 167 0;
#X connect 167 1 189 0;
#X connect 168 0 169 0;
#X connect 169 1 190 0;
#X connect 170 0 171 0;
#X connect 171 1 191 0;
#X connect 172 0 173 0;
#X connect 173 1 192 0;
#X connect 174 0 175 0;
#X connect 175 1 193 0;
#X connect 176 0 177 0;
#X connect 177 1 194 0;
#X connect 178 0 179 0;
#X connect 179 1 195 0;
#X connect 180 0 181 0;
#X connect 181 1 196 0;
#X connect 182 0 158 0;
#X connect 183 0 12 0;
#X connect 183 1 248 0;
#X connect 245 0 14 0;
#X connect 246 1 12 1;
#X connect 248 0 246 0;
#X coords 0 0 1 1 389 187 1 0 0;
