#N canvas 827 239 734 565 12;
#X obj -181 332 adc~;
#X obj -181 419 *~;
#X obj 59 179 hsl 77 18 0 1 0 0 empty empty input-vol -2 -8 0 10 #191919 #e1e1e1 #e1e1e1 0 1;
#X msg -131 393 \$1 10;
#X obj -131 419 line~;
#N canvas 0 50 450 300 vu 0;
#X obj 710 374 env~ 1024;
#X obj 812 356 abs~;
#X obj 812 458 snapshot~;
#X obj 812 501 rmstodb;
#X obj 615 263 inlet~;
#X obj 812 533 - 100;
#X obj 710 532 - 100;
#X obj 890 334 expr 1000 / $f1;
#X floatatom 890 362 5 0 0 0 - - - 0;
#X obj 812 391 slop~ 0 0 0 0 1e+09;
#X text 933 363 hz;
#X obj 710 416 t f b;
#X obj 890 263 loadbang;
#X msg 890 289 300;
#X text 680 319 from pd example inside vu-help.pd;
#X msg 852 289 0;
#X obj 710 558 outlet;
#X obj 812 559 outlet;
#X connect 0 0 11 0;
#X connect 1 0 9 0;
#X connect 2 0 3 0;
#X connect 3 0 5 0;
#X connect 4 0 0 0;
#X connect 4 0 1 0;
#X connect 5 0 17 0;
#X connect 6 0 16 0;
#X connect 7 0 8 0;
#X connect 8 0 9 3;
#X connect 9 0 2 0;
#X connect 11 0 6 0;
#X connect 11 1 2 0;
#X connect 12 0 13 0;
#X connect 12 0 15 0;
#X connect 13 0 7 0;
#X restore -131 455 pd vu;
#X obj 6 77 vu 20 120 empty input -1 -8 0 10 #404040 #e1e1e1 1 0;
#N canvas 0 0 450 250 (subpatch) 0;
#X array sample-1 480000 float 2;
#X coords 0 1 480000 -1 142 76 1;
#X restore 162 20 graph;
#N canvas 0 0 450 250 (subpatch) 0;
#X array sample-2 480000 float 2;
#X coords 0 1 480000 -1 142 76 1;
#X restore 352 20 graph;
#N canvas 0 0 450 250 (subpatch) 0;
#X array sample-3 480000 float 2;
#X coords 0 1 480000 -1 142 76 1;
#X restore 542 20 graph;
#N canvas 0 0 450 250 (subpatch) 0;
#X array sample-4 480000 float 2;
#X coords 0 1 480000 -1 142 74 1;
#X restore 728 20 graph;
#X obj -131 366 * 3;
#X obj 56 77 vradio 20 1 0 4 empty empty record\ to 0 -8 0 10 #191919 #e1e1e1 #e1e1e1 0;
#X text 77 76 sample 1;
#X text 77 98 sample 2;
#X text 77 120 sample 3;
#X text 77 138 sample 4;
#X obj 135 419 f 10;
#X obj 187 419 - 1;
#X obj 135 388 metro 1000;
#X obj 6 26 tgl 30 0 empty empty rec 5 -5 0 10 #191919 #e1e1e1 #e1e1e1 0 1;
#X floatatom 44 26 3 0 0 0 - - - 24;
#X msg 164 359 0;
#X obj 135 456 sel -1;
#X msg 187 456 10;
#X obj 162 332 sel 0;
#X obj 141 577 + 1;
#X obj 130 602 f;
#X obj 76 543 del 10005;
#X msg 92 572 stop;
#X obj 92 419 t f f;
#X obj 92 458 sel 1;
#X text 6 204 audio out;
#X obj -141 -102 loadbang;
#X msg -141 -76 0;
#X obj 92 486 t b b b b;
#X obj 11 612 writesf~;
#X msg 123 518 start;
#X obj 36 696 soundfiler;
#X obj -3 518 + 1;
#X obj -14 543 f;
#X msg 130 628 open -bytes 3 samples/sample-\$1.wav;
#X msg -58 656 read samples/sample-\$1.wav sample-\$1;
#X obj -153 555 loadbang;
#X obj -153 581 t b b b b;
#X msg -153 607 1;
#X msg -75 607 4;
#X msg -101 607 3;
#X msg -127 607 2;
#X msg -52 371 \; sample-1 normalize \; sample-2 normalize \; sample-3 normalize \; sample-4 normalize;
#X obj 165 96 hsl 136 9 0 1 0 0 empty empty empty 9 8 0 10 #191919 #e1e1e1 #e1e1e1 0 1;
#X obj 165 108 hsl 136 9 0 1 0 0 empty empty empty 9 8 0 10 #191919 #e1e1e1 #e1e1e1 0 1;
#X obj 165 123 hsl 136 9 0 1 0 0 empty empty empty 9 8 0 10 #191919 #ff0000 #e1e1e1 0 1;
#X obj 162 153 knob 38 -2 2 0 1 empty empty #191919 #696969 #E1E1E1 1 0 0 0 1 270 0 0 0 empty empty 1 12 10 29 0 1 0 0;
#X text 152 135 play spd;
#N canvas 0 0 450 250 (subpatch) 0;
#X array buffer-1 110189 float 2;
#X coords 0 1 110189 -1 92 52 1;
#X restore 907 20 graph;
#X obj 265 153 bng 38 250 50 0 empty empty send\ to\ buffer -10 -7 0 10 #191919 #e1e1e1 #e1e1e1;
#X obj 162 218 hradio 20 1 0 8 empty empty buffer\ to\ send 0 -8 0 14 #191919 #e1e1e1 #e1e1e1 0;
#X obj 162 271 + 1;
#X floatatom 306 173 2 0 0 0 - - - 12;
#X msg 268 271 1;
#N canvas 0 0 450 250 (subpatch) 0;
#X array buffer-5 43939 float 2;
#X coords 0 1 43939 -1 92 52 1;
#X restore 907 136 graph;
#X obj -30 332 loadbang;
#X obj 355 96 hsl 136 9 0 1 0 0 empty empty empty 9 8 0 10 #191919 #e1e1e1 #e1e1e1 0 1;
#X obj 355 108 hsl 136 9 0 1 0 0 empty empty empty 9 8 0 10 #191919 #e1e1e1 #e1e1e1 0 1;
#X obj 355 123 hsl 136 9 0 1 0 0 empty empty empty 9 8 0 10 #191919 #ff0000 #e1e1e1 0 1;
#X obj 352 153 knob 38 -2 2 0 1 empty empty #191919 #696969 #E1E1E1 1 0 0 0 1 270 0 0 0 empty empty 1 12 10 29 0 1 0 0;
#X text 342 135 play spd;
#X msg 407 271 1;
#X obj 455 153 bng 38 250 50 0 empty empty send\ to\ buffer -10 -7 0 10 #191919 #e1e1e1 #e1e1e1;
#X obj 352 218 hradio 20 1 0 8 empty empty buffer\ to\ send 0 -8 0 14 #191919 #e1e1e1 #e1e1e1 0;
#X obj 352 271 + 1;
#X floatatom 496 173 2 0 0 0 - - - 12;
#X obj 545 96 hsl 136 9 0 1 0 0 empty empty empty 9 8 0 10 #191919 #e1e1e1 #e1e1e1 0 1;
#X obj 545 108 hsl 136 9 0 1 0 0 empty empty empty 9 8 0 10 #191919 #e1e1e1 #e1e1e1 0 1;
#X obj 545 123 hsl 136 9 0 1 0 0 empty empty empty 9 8 0 10 #191919 #ff0000 #e1e1e1 0 1;
#X obj 542 153 knob 38 -2 2 0 1 empty empty #191919 #696969 #E1E1E1 1 0 0 0 1 270 0 0 0 empty empty 1 12 10 29 0 1 0 0;
#X text 532 135 play spd;
#X msg 597 271 1;
#X obj 645 153 bng 38 250 50 0 empty empty send\ to\ buffer -10 -7 0 10 #191919 #e1e1e1 #e1e1e1;
#X obj 542 218 hradio 20 1 0 8 empty empty buffer\ to\ send 0 -8 0 14 #191919 #e1e1e1 #e1e1e1 0;
#X obj 542 271 + 1;
#X floatatom 686 173 2 0 0 0 - - - 12;
#X obj 731 96 hsl 136 9 0 1 0 0 empty empty empty 9 8 0 10 #191919 #e1e1e1 #e1e1e1 0 1;
#X obj 731 108 hsl 136 9 0 1 0 0 empty empty empty 9 8 0 10 #191919 #e1e1e1 #e1e1e1 0 1;
#X obj 731 123 hsl 136 9 0 1 0 0 empty empty empty 9 8 0 10 #191919 #ff0000 #e1e1e1 0 1;
#X obj 728 153 knob 38 -2 2 0 1 empty empty #191919 #696969 #E1E1E1 1 0 0 0 1 270 0 0 0 empty empty 1 12 10 29 0 1 0 0;
#X text 718 135 play spd;
#X msg 783 271 1;
#X obj 831 153 bng 38 250 50 0 empty empty send\ to\ buffer -10 -7 0 10 #191919 #e1e1e1 #e1e1e1;
#X obj 728 218 hradio 20 1 0 8 empty empty buffer\ to\ send 0 -8 0 14 #191919 #e1e1e1 #e1e1e1 0;
#X obj 728 271 + 1;
#X floatatom 872 173 2 0 0 0 - - - 12;
#N canvas 0 50 450 300 createBuffer 0;
#X obj 129 117 t b f;
#X obj 129 154 -;
#X obj 129 256 expr 1 / $f1;
#X obj 129 282 * 0.1;
#X text 105 281 frame rate divided by frames on sample;
#X obj 51 67 t b f;
#X obj 51 93 *;
#X obj 51 214 phasor~;
#X obj 54 244 *~;
#X obj 54 282 +~;
#X obj 248 374 loadbang;
#X obj 248 436 snapshot~;
#X floatatom 48 121 5 0 0 0 - - - 12;
#X obj 248 410 metro 30;
#X obj 54 384 hip~ 5;
#X obj 54 311 *~ 480000;
#X obj 129 180 sel 0;
#X msg 895 454 \; buffer-\$1 resize \$2;
#X obj 895 421 pack;
#X obj 895 395 f;
#X obj 419 318 minimum;
#X obj 596 469 tabread;
#X msg 710 350 set sample-\$1;
#X obj 699 292 t b f;
#X obj 571 412 f;
#X obj 619 412 + 1;
#X obj 596 340 f;
#X obj 596 379 until;
#X obj 524 610 tabwrite;
#X msg 826 547 set buffer-\$1;
#X obj 637 547 + 1;
#X obj 579 507 t f b;
#X msg 419 445 0;
#X obj 589 547 f 0;
#X obj 685 243 t b f b;
#X obj 585 293 * 480000;
#X obj 419 350 * 480000;
#X obj 596 268 abs;
#X msg 378 473 \; buffer-\$1 normalize;
#X obj 378 445 f;
#X obj 36 35 inlet;
#X obj 88 35 inlet;
#X obj 248 507 outlet;
#X obj 266 35 inlet;
#X obj 207 35 inlet;
#X obj 140 35 inlet;
#X obj 50 507 outlet~;
#X text 36 12 pointA;
#X text 88 12 pointB;
#X text 140 12 playSpd;
#X text 207 12 toBuffer;
#X text 266 12 buffer;
#X obj 419 204 t b b;
#X obj 419 268 f;
#X obj 464 268 f;
#X obj 54 355 tabread4~ sample-4;
#X obj 321 35 inlet;
#X text 321 12 vol;
#X obj 54 410 *~;
#X msg 321 61 \$1 10;
#X obj 321 87 line~;
#X connect 0 0 1 0;
#X connect 0 1 1 1;
#X connect 0 1 9 1;
#X connect 1 0 8 1;
#X connect 1 0 16 0;
#X connect 2 0 3 0;
#X connect 3 0 6 0;
#X connect 5 0 6 0;
#X connect 5 1 6 1;
#X connect 6 0 12 0;
#X connect 7 0 8 0;
#X connect 8 0 9 0;
#X connect 9 0 11 0;
#X connect 9 0 15 0;
#X connect 10 0 13 0;
#X connect 11 0 42 0;
#X connect 12 0 7 0;
#X connect 13 0 11 0;
#X connect 14 0 58 0;
#X connect 15 0 55 0;
#X connect 16 1 2 0;
#X connect 16 1 37 0;
#X connect 18 0 17 0;
#X connect 19 0 18 0;
#X connect 19 0 29 0;
#X connect 20 0 36 0;
#X connect 21 0 31 0;
#X connect 22 0 21 0;
#X connect 23 0 26 0;
#X connect 23 1 22 0;
#X connect 24 0 25 0;
#X connect 24 0 21 0;
#X connect 25 0 24 1;
#X connect 26 0 27 0;
#X connect 27 0 24 0;
#X connect 29 0 28 0;
#X connect 30 0 33 1;
#X connect 31 0 28 0;
#X connect 31 1 33 0;
#X connect 32 0 33 1;
#X connect 33 0 30 0;
#X connect 33 0 28 1;
#X connect 34 0 32 0;
#X connect 34 0 39 0;
#X connect 34 0 20 0;
#X connect 34 0 52 0;
#X connect 34 1 23 0;
#X connect 34 2 19 0;
#X connect 35 0 18 1;
#X connect 35 0 26 1;
#X connect 36 0 24 1;
#X connect 37 0 35 0;
#X connect 39 0 38 0;
#X connect 40 0 0 0;
#X connect 40 0 20 0;
#X connect 40 0 53 0;
#X connect 41 0 1 0;
#X connect 41 0 54 0;
#X connect 43 0 19 1;
#X connect 43 0 39 1;
#X connect 44 0 34 0;
#X connect 45 0 5 0;
#X connect 52 0 53 0;
#X connect 52 1 54 0;
#X connect 53 0 20 0;
#X connect 54 0 20 1;
#X connect 55 0 14 0;
#X connect 56 0 59 0;
#X connect 58 0 46 0;
#X connect 59 0 60 0;
#X connect 60 0 58 1;
#X restore 813 380 pd createBuffer;
#N canvas 0 0 450 250 (subpatch) 0;
#X array buffer-2 73953 float 2;
#X coords 0 1 73953 -1 92 52 1;
#X restore 1009 20 graph;
#N canvas 0 0 450 250 (subpatch) 0;
#X array buffer-6 94704 float 2;
#X coords 0 1 94704 -1 92 52 1;
#X restore 1009 136 graph;
#N canvas 0 0 450 250 (subpatch) 0;
#X array buffer-3 73953 float 2;
#X coords 0 1 73953 -1 92 52 1;
#X restore 1111 20 graph;
#N canvas 0 0 450 250 (subpatch) 0;
#X array buffer-7 53265 float 2;
#X coords 0 1 53265 -1 92 52 1;
#X restore 1111 136 graph;
#N canvas 0 0 450 250 (subpatch) 0;
#X array buffer-4 103543 float 2;
#X coords 0 1 103543 -1 92 52 1;
#X restore 1213 20 graph;
#N canvas 0 0 450 250 (subpatch) 0;
#X array buffer-8 56223 float 2;
#X coords 0 1 56223 -1 92 52 1;
#X restore 1213 136 graph;
#X msg 458 271 2;
#X msg 648 271 3;
#X msg 834 271 4;
#N canvas 0 50 450 300 createBuffer 0;
#X obj 129 117 t b f;
#X obj 129 154 -;
#X obj 129 256 expr 1 / $f1;
#X obj 129 282 * 0.1;
#X text 105 281 frame rate divided by frames on sample;
#X obj 51 67 t b f;
#X obj 51 93 *;
#X obj 51 214 phasor~;
#X obj 54 244 *~;
#X obj 54 282 +~;
#X obj 248 374 loadbang;
#X obj 248 436 snapshot~;
#X floatatom 48 121 5 0 0 0 - - - 12;
#X obj 248 410 metro 30;
#X obj 54 384 hip~ 5;
#X obj 54 311 *~ 480000;
#X obj 129 180 sel 0;
#X msg 895 454 \; buffer-\$1 resize \$2;
#X obj 895 421 pack;
#X obj 895 395 f;
#X obj 419 318 minimum;
#X obj 596 469 tabread;
#X msg 710 350 set sample-\$1;
#X obj 699 292 t b f;
#X obj 571 412 f;
#X obj 619 412 + 1;
#X obj 596 340 f;
#X obj 596 379 until;
#X obj 524 610 tabwrite;
#X msg 826 547 set buffer-\$1;
#X obj 637 547 + 1;
#X obj 579 507 t f b;
#X msg 419 445 0;
#X obj 589 547 f 0;
#X obj 685 243 t b f b;
#X obj 585 293 * 480000;
#X obj 419 350 * 480000;
#X obj 585 256 abs;
#X msg 378 473 \; buffer-\$1 normalize;
#X obj 378 445 f;
#X obj 36 35 inlet;
#X obj 88 35 inlet;
#X obj 248 507 outlet;
#X obj 266 35 inlet;
#X obj 207 35 inlet;
#X obj 140 35 inlet;
#X obj 50 507 outlet~;
#X text 36 12 pointA;
#X text 88 12 pointB;
#X text 140 12 playSpd;
#X text 207 12 toBuffer;
#X text 266 12 buffer;
#X obj 419 204 t b b;
#X obj 419 268 f;
#X obj 464 268 f;
#X obj 54 355 tabread4~ sample-3;
#X obj 54 410 *~;
#X obj 321 35 inlet;
#X text 321 12 vol;
#X msg 335 75 \$1 10;
#X obj 335 101 line~;
#X connect 0 0 1 0;
#X connect 0 1 1 1;
#X connect 0 1 9 1;
#X connect 1 0 8 1;
#X connect 1 0 16 0;
#X connect 2 0 3 0;
#X connect 3 0 6 0;
#X connect 5 0 6 0;
#X connect 5 1 6 1;
#X connect 6 0 12 0;
#X connect 7 0 8 0;
#X connect 8 0 9 0;
#X connect 9 0 11 0;
#X connect 9 0 15 0;
#X connect 10 0 13 0;
#X connect 11 0 42 0;
#X connect 12 0 7 0;
#X connect 13 0 11 0;
#X connect 14 0 56 0;
#X connect 15 0 55 0;
#X connect 16 1 2 0;
#X connect 16 1 37 0;
#X connect 18 0 17 0;
#X connect 19 0 18 0;
#X connect 19 0 29 0;
#X connect 20 0 36 0;
#X connect 21 0 31 0;
#X connect 22 0 21 0;
#X connect 23 0 26 0;
#X connect 23 1 22 0;
#X connect 24 0 25 0;
#X connect 24 0 21 0;
#X connect 25 0 24 1;
#X connect 26 0 27 0;
#X connect 27 0 24 0;
#X connect 29 0 28 0;
#X connect 30 0 33 1;
#X connect 31 0 28 0;
#X connect 31 1 33 0;
#X connect 32 0 33 1;
#X connect 33 0 30 0;
#X connect 33 0 28 1;
#X connect 34 0 32 0;
#X connect 34 0 39 0;
#X connect 34 0 20 0;
#X connect 34 0 52 0;
#X connect 34 1 23 0;
#X connect 34 2 19 0;
#X connect 35 0 18 1;
#X connect 35 0 26 1;
#X connect 36 0 24 1;
#X connect 37 0 35 0;
#X connect 39 0 38 0;
#X connect 40 0 0 0;
#X connect 40 0 20 0;
#X connect 40 0 53 0;
#X connect 41 0 1 0;
#X connect 41 0 54 0;
#X connect 43 0 19 1;
#X connect 43 0 39 1;
#X connect 44 0 34 0;
#X connect 45 0 5 0;
#X connect 52 0 53 0;
#X connect 52 1 54 0;
#X connect 53 0 20 0;
#X connect 54 0 20 1;
#X connect 55 0 14 0;
#X connect 56 0 46 0;
#X connect 57 0 59 0;
#X connect 59 0 60 0;
#X connect 60 0 56 1;
#X restore 610 380 pd createBuffer;
#N canvas 0 50 450 300 createBuffer 0;
#X obj 129 117 t b f;
#X obj 129 154 -;
#X obj 129 256 expr 1 / $f1;
#X obj 129 282 * 0.1;
#X text 104 281 frame rate divided by frames on sample;
#X obj 51 67 t b f;
#X obj 51 93 *;
#X obj 51 214 phasor~;
#X obj 54 244 *~;
#X obj 54 282 +~;
#X obj 248 374 loadbang;
#X obj 248 436 snapshot~;
#X floatatom 48 121 5 0 0 0 - - - 12;
#X obj 248 410 metro 30;
#X obj 54 384 hip~ 5;
#X obj 54 311 *~ 480000;
#X obj 129 180 sel 0;
#X msg 895 454 \; buffer-\$1 resize \$2;
#X obj 895 421 pack;
#X obj 895 395 f;
#X obj 419 318 minimum;
#X obj 596 469 tabread;
#X msg 710 350 set sample-\$1;
#X obj 699 292 t b f;
#X obj 571 412 f;
#X obj 619 412 + 1;
#X obj 596 340 f;
#X obj 596 379 until;
#X obj 524 610 tabwrite;
#X msg 826 547 set buffer-\$1;
#X obj 637 547 + 1;
#X obj 579 507 t f b;
#X msg 419 445 0;
#X obj 589 547 f 0;
#X obj 685 243 t b f b;
#X obj 585 293 * 480000;
#X obj 419 350 * 480000;
#X obj 596 268 abs;
#X msg 378 473 \; buffer-\$1 normalize;
#X obj 378 445 f;
#X obj 36 35 inlet;
#X obj 88 35 inlet;
#X obj 248 507 outlet;
#X obj 266 35 inlet;
#X obj 207 35 inlet;
#X obj 140 35 inlet;
#X obj 50 507 outlet~;
#X text 36 12 pointA;
#X text 88 12 pointB;
#X text 140 12 playSpd;
#X text 207 12 toBuffer;
#X text 266 12 buffer;
#X obj 419 204 t b b;
#X obj 419 268 f;
#X obj 464 268 f;
#X obj 54 355 tabread4~ sample-2;
#X obj 54 410 *~;
#X obj 321 35 inlet;
#X text 321 12 vol;
#X msg 320 86 \$1 10;
#X obj 320 112 line~;
#X connect 0 0 1 0;
#X connect 0 1 1 1;
#X connect 0 1 9 1;
#X connect 1 0 8 1;
#X connect 1 0 16 0;
#X connect 2 0 3 0;
#X connect 3 0 6 0;
#X connect 5 0 6 0;
#X connect 5 1 6 1;
#X connect 6 0 12 0;
#X connect 7 0 8 0;
#X connect 8 0 9 0;
#X connect 9 0 11 0;
#X connect 9 0 15 0;
#X connect 10 0 13 0;
#X connect 11 0 42 0;
#X connect 12 0 7 0;
#X connect 13 0 11 0;
#X connect 14 0 56 0;
#X connect 15 0 55 0;
#X connect 16 1 2 0;
#X connect 16 1 37 0;
#X connect 18 0 17 0;
#X connect 19 0 18 0;
#X connect 19 0 29 0;
#X connect 20 0 36 0;
#X connect 21 0 31 0;
#X connect 22 0 21 0;
#X connect 23 0 26 0;
#X connect 23 1 22 0;
#X connect 24 0 25 0;
#X connect 24 0 21 0;
#X connect 25 0 24 1;
#X connect 26 0 27 0;
#X connect 27 0 24 0;
#X connect 29 0 28 0;
#X connect 30 0 33 1;
#X connect 31 0 28 0;
#X connect 31 1 33 0;
#X connect 32 0 33 1;
#X connect 33 0 30 0;
#X connect 33 0 28 1;
#X connect 34 0 32 0;
#X connect 34 0 39 0;
#X connect 34 0 20 0;
#X connect 34 0 52 0;
#X connect 34 1 23 0;
#X connect 34 2 19 0;
#X connect 35 0 18 1;
#X connect 35 0 26 1;
#X connect 36 0 24 1;
#X connect 37 0 35 0;
#X connect 39 0 38 0;
#X connect 40 0 0 0;
#X connect 40 0 20 0;
#X connect 40 0 53 0;
#X connect 41 0 1 0;
#X connect 41 0 54 0;
#X connect 43 0 19 1;
#X connect 43 0 39 1;
#X connect 44 0 34 0;
#X connect 45 0 5 0;
#X connect 52 0 53 0;
#X connect 52 1 54 0;
#X connect 53 0 20 0;
#X connect 54 0 20 1;
#X connect 55 0 14 0;
#X connect 56 0 46 0;
#X connect 57 0 59 0;
#X connect 59 0 60 0;
#X connect 60 0 56 1;
#X restore 407 380 pd createBuffer;
#N canvas 0 50 450 300 createBuffer 0;
#X obj 129 117 t b f;
#X obj 129 154 -;
#X obj 129 256 expr 1 / $f1;
#X obj 129 282 * 0.1;
#X text 105 281 frame rate divided by frames on sample;
#X obj 51 67 t b f;
#X obj 51 93 *;
#X obj 51 214 phasor~;
#X obj 54 244 *~;
#X obj 54 282 +~;
#X obj 248 374 loadbang;
#X obj 248 436 snapshot~;
#X floatatom 48 121 5 0 0 0 - - - 12;
#X obj 248 410 metro 30;
#X obj 54 355 tabread4~ sample-1;
#X obj 54 384 hip~ 5;
#X obj 54 311 *~ 480000;
#X obj 129 180 sel 0;
#X msg 895 454 \; buffer-\$1 resize \$2;
#X obj 895 421 pack;
#X obj 895 395 f;
#X obj 419 318 minimum;
#X obj 596 469 tabread;
#X msg 710 350 set sample-\$1;
#X obj 699 292 t b f;
#X obj 571 412 f;
#X obj 619 412 + 1;
#X obj 596 340 f;
#X obj 596 379 until;
#X obj 524 610 tabwrite;
#X msg 826 547 set buffer-\$1;
#X obj 637 547 + 1;
#X obj 579 507 t f b;
#X msg 419 445 0;
#X obj 589 547 f 0;
#X obj 685 243 t b f b;
#X obj 585 293 * 480000;
#X obj 419 350 * 480000;
#X obj 596 268 abs;
#X msg 378 473 \; buffer-\$1 normalize;
#X obj 378 445 f;
#X obj 36 35 inlet;
#X obj 88 35 inlet;
#X obj 248 507 outlet;
#X obj 266 35 inlet;
#X obj 207 35 inlet;
#X obj 140 35 inlet;
#X obj 50 507 outlet~;
#X text 36 12 pointA;
#X text 88 12 pointB;
#X text 140 12 playSpd;
#X text 207 12 toBuffer;
#X text 266 12 buffer;
#X obj 419 204 t b b;
#X obj 419 268 f;
#X obj 464 268 f;
#X obj 54 469 *~;
#X obj 320 35 inlet;
#X text 320 12 vol;
#X msg 315 75 \$1 10;
#X obj 315 101 line~;
#X connect 0 0 1 0;
#X connect 0 1 1 1;
#X connect 0 1 9 1;
#X connect 1 0 8 1;
#X connect 1 0 17 0;
#X connect 2 0 3 0;
#X connect 3 0 6 0;
#X connect 5 0 6 0;
#X connect 5 1 6 1;
#X connect 6 0 12 0;
#X connect 7 0 8 0;
#X connect 8 0 9 0;
#X connect 9 0 11 0;
#X connect 9 0 16 0;
#X connect 10 0 13 0;
#X connect 11 0 43 0;
#X connect 12 0 7 0;
#X connect 13 0 11 0;
#X connect 14 0 15 0;
#X connect 15 0 56 0;
#X connect 16 0 14 0;
#X connect 17 1 2 0;
#X connect 17 1 38 0;
#X connect 19 0 18 0;
#X connect 20 0 19 0;
#X connect 20 0 30 0;
#X connect 21 0 37 0;
#X connect 22 0 32 0;
#X connect 23 0 22 0;
#X connect 24 0 27 0;
#X connect 24 1 23 0;
#X connect 25 0 26 0;
#X connect 25 0 22 0;
#X connect 26 0 25 1;
#X connect 27 0 28 0;
#X connect 28 0 25 0;
#X connect 30 0 29 0;
#X connect 31 0 34 1;
#X connect 32 0 29 0;
#X connect 32 1 34 0;
#X connect 33 0 34 1;
#X connect 34 0 31 0;
#X connect 34 0 29 1;
#X connect 35 0 33 0;
#X connect 35 0 40 0;
#X connect 35 0 21 0;
#X connect 35 0 53 0;
#X connect 35 1 24 0;
#X connect 35 2 20 0;
#X connect 36 0 19 1;
#X connect 36 0 27 1;
#X connect 37 0 25 1;
#X connect 38 0 36 0;
#X connect 40 0 39 0;
#X connect 41 0 0 0;
#X connect 41 0 21 0;
#X connect 41 0 54 0;
#X connect 42 0 1 0;
#X connect 42 0 55 0;
#X connect 44 0 20 1;
#X connect 44 0 40 1;
#X connect 45 0 35 0;
#X connect 46 0 5 0;
#X connect 53 0 54 0;
#X connect 53 1 55 0;
#X connect 54 0 21 0;
#X connect 55 0 21 1;
#X connect 56 0 47 0;
#X connect 57 0 59 0;
#X connect 59 0 60 0;
#X connect 60 0 56 1;
#X restore 224 380 pd createBuffer;
#X obj 306 22 vsl 16 80 0 1 0 0 empty empty vol 0 -9 0 10 #191919 #e1e1e1 #e1e1e1 0 1;
#X obj 496 22 vsl 16 80 0 1 0 0 empty empty vol 0 -9 0 10 #191919 #e1e1e1 #e1e1e1 0 1;
#X obj 686 22 vsl 16 80 0 1 0 0 empty empty vol 0 -9 0 10 #191919 #e1e1e1 #e1e1e1 0 1;
#X obj 872 22 vsl 16 80 0 1 0 0 empty empty vol 0 -9 0 10 #191919 #e1e1e1 #e1e1e1 0 1;
#X obj 532 479 output~;
#X obj 306 112 tgl 20 0 empty empty mute 0 2 0 10 #191919 #e1e1e1 #e1e1e1 0 1;
#X obj 496 112 tgl 20 0 empty empty mute 0 2 0 10 #191919 #e1e1e1 #e1e1e1 0 1;
#X obj 686 112 tgl 20 0 empty empty mute 0 2 0 10 #191919 #e1e1e1 #e1e1e1 0 1;
#X obj 872 112 tgl 20 0 empty empty mute 0 2 0 10 #191919 #e1e1e1 #e1e1e1 0 1;
#X obj 307 353 f;
#X obj 490 353 f;
#X obj 693 353 f;
#X obj 896 353 f;
#X obj 343 353 sel 0 1;
#X msg 359 380 0;
#X obj 528 353 sel 0 1;
#X msg 544 380 0;
#X obj 733 353 sel 0 1;
#X msg 749 380 0;
#X obj 938 353 sel 0 1;
#X msg 954 380 0;
#X obj 453 436 *~ 1;
#X obj 1075 332 bng 25 250 50 0 empty empty play 3 -7 0 11 #191919 #e1e1e1 #e1e1e1;
#X obj 1108 332 knob 25 -2 2 0 1 empty empty #191919 #696969 #E1E1E1 1 0 0 0 1 270 0 0 0 empty empty 1 12 3 16 0 1 0 0;
#X text 1108 314 spd, f 4;
#X obj 1141 332 tgl 25 0 empty empty keep\ pitch -6 -6 0 10 #191919 #e1e1e1 #e1e1e1 0 1;
#X obj 1116 582 phasor~;
#X obj 1116 748 hip~ 5;
#X obj 1116 800 *~;
#X obj 1116 689 tabread4~ buffer-1;
#X obj 1078 363 hsl 86 9 0 1 0 0 empty empty vol 8 5 0 10 #191919 #e1e1e1 #e1e1e1 0 1;
#X obj 1078 311 hsl 86 8 0 1 0 0 empty empty empty 9 8 0 10 #191919 #ff0000 #e1e1e1 0 1;
#X msg 1160 774 \$1 10;
#X obj 1160 800 line~;
#X obj 1079 874 output~;
#X obj 1289 642 loadbang;
#X obj 1289 704 snapshot~;
#X obj 1289 678 metro 30;
#X obj 1102 445 expr 48000 / $f1;
#X obj 1116 486 *;
#X obj 1175 486 t b f;
#X obj 1116 642 *~;
#X obj 1102 419 arraysize buffer-1;
#X connect 0 0 1 0;
#X connect 1 0 5 0;
#X connect 1 0 36 0;
#X connect 2 0 11 0;
#X connect 3 0 4 0;
#X connect 4 0 1 1;
#X connect 5 0 6 0;
#X connect 5 1 6 1;
#X connect 11 0 3 0;
#X connect 12 0 26 0;
#X connect 12 0 39 0;
#X connect 17 0 18 0;
#X connect 17 0 21 0;
#X connect 18 0 23 0;
#X connect 19 0 17 0;
#X connect 20 0 30 0;
#X connect 21 0 25 0;
#X connect 22 0 20 0;
#X connect 23 0 24 0;
#X connect 23 1 17 1;
#X connect 24 0 17 1;
#X connect 25 0 22 0;
#X connect 26 0 27 1;
#X connect 27 0 41 0;
#X connect 28 0 29 0;
#X connect 28 0 40 0;
#X connect 29 0 36 0;
#X connect 30 0 31 0;
#X connect 30 1 19 0;
#X connect 31 0 35 0;
#X connect 33 0 34 0;
#X connect 34 0 12 0;
#X connect 34 0 90 0;
#X connect 34 0 80 0;
#X connect 34 0 70 0;
#X connect 34 0 57 0;
#X connect 35 0 49 0;
#X connect 35 1 28 0;
#X connect 35 2 37 0;
#X connect 35 3 27 0;
#X connect 37 0 36 0;
#X connect 39 0 40 1;
#X connect 40 0 42 0;
#X connect 41 0 36 0;
#X connect 42 0 38 0;
#X connect 43 0 44 0;
#X connect 44 0 45 0;
#X connect 44 1 48 0;
#X connect 44 2 47 0;
#X connect 44 3 46 0;
#X connect 45 0 42 0;
#X connect 46 0 42 0;
#X connect 47 0 42 0;
#X connect 48 0 42 0;
#X connect 50 0 105 0;
#X connect 51 0 105 1;
#X connect 53 0 105 2;
#X connect 56 0 60 0;
#X connect 57 0 58 0;
#X connect 58 0 59 0;
#X connect 58 0 105 4;
#X connect 60 0 105 3;
#X connect 62 0 49 0;
#X connect 63 0 104 0;
#X connect 64 0 104 1;
#X connect 66 0 104 2;
#X connect 68 0 66 0;
#X connect 69 0 100 0;
#X connect 70 0 71 0;
#X connect 71 0 72 0;
#X connect 71 0 104 4;
#X connect 73 0 103 0;
#X connect 74 0 103 1;
#X connect 76 0 103 2;
#X connect 78 0 76 0;
#X connect 79 0 101 0;
#X connect 80 0 81 0;
#X connect 81 0 82 0;
#X connect 81 0 103 4;
#X connect 83 0 93 0;
#X connect 84 0 93 1;
#X connect 86 0 93 2;
#X connect 88 0 86 0;
#X connect 89 0 102 0;
#X connect 90 0 91 0;
#X connect 91 0 92 0;
#X connect 91 0 93 4;
#X connect 93 0 127 0;
#X connect 93 1 85 0;
#X connect 100 0 104 3;
#X connect 101 0 103 3;
#X connect 102 0 93 3;
#X connect 103 0 127 0;
#X connect 103 1 75 0;
#X connect 104 0 127 0;
#X connect 104 1 65 0;
#X connect 105 0 127 0;
#X connect 105 1 52 0;
#X connect 106 0 115 0;
#X connect 107 0 116 0;
#X connect 108 0 117 0;
#X connect 109 0 118 0;
#X connect 111 0 119 0;
#X connect 112 0 121 0;
#X connect 113 0 123 0;
#X connect 114 0 125 0;
#X connect 115 0 105 5;
#X connect 116 0 104 5;
#X connect 117 0 103 5;
#X connect 118 0 93 5;
#X connect 119 0 115 0;
#X connect 119 1 120 0;
#X connect 120 0 105 5;
#X connect 121 0 116 0;
#X connect 121 1 122 0;
#X connect 122 0 104 5;
#X connect 123 0 117 0;
#X connect 123 1 124 0;
#X connect 124 0 103 5;
#X connect 125 0 118 0;
#X connect 125 1 126 0;
#X connect 126 0 93 5;
#X connect 127 0 110 0;
#X connect 128 0 148 0;
#X connect 129 0 146 0;
#X connect 132 0 142 0;
#X connect 132 0 147 0;
#X connect 133 0 134 0;
#X connect 134 0 140 0;
#X connect 135 0 133 0;
#X connect 136 0 138 0;
#X connect 138 0 139 0;
#X connect 139 0 134 1;
#X connect 141 0 143 0;
#X connect 142 0 137 0;
#X connect 143 0 142 0;
#X connect 144 0 145 0;
#X connect 145 0 132 0;
#X connect 146 0 145 0;
#X connect 146 1 145 1;
#X connect 147 0 135 0;
#X connect 148 0 144 0;
#X connect 148 0 147 1;
#X coords 0 0 1 1 1319 253 1 0 -1;
