#N canvas 827 239 734 565 12;
#X obj 337 222 adc~;
#X obj 337 309 *~;
#X obj 59 179 hsl 77 18 0 1 0 0 empty empty input-vol -2 -8 0 10 #191919 #e1e1e1 #e1e1e1 0 1;
#X msg 387 283 \$1 10;
#X obj 387 309 line~;
#N canvas 0 50 450 300 vu 0;
#X obj 710 374 env~ 1024;
#X obj 812 356 abs~;
#X obj 812 458 snapshot~;
#X obj 812 501 rmstodb;
#X obj 615 263 inlet~;
#X obj 812 533 - 100;
#X obj 710 532 - 100;
#X obj 890 334 expr 1000 / $f1;
#X floatatom 890 362 5 0 0 0 - - - 0;
#X obj 812 391 slop~ 0 0 0 0 1e+09;
#X text 933 363 hz;
#X obj 710 416 t f b;
#X obj 890 263 loadbang;
#X msg 890 289 300;
#X text 680 319 from pd example inside vu-help.pd;
#X msg 852 289 0;
#X obj 710 558 outlet;
#X obj 812 559 outlet;
#X connect 0 0 11 0;
#X connect 1 0 9 0;
#X connect 2 0 3 0;
#X connect 3 0 5 0;
#X connect 4 0 0 0;
#X connect 4 0 1 0;
#X connect 5 0 17 0;
#X connect 6 0 16 0;
#X connect 7 0 8 0;
#X connect 8 0 9 3;
#X connect 9 0 2 0;
#X connect 11 0 6 0;
#X connect 11 1 2 0;
#X connect 12 0 13 0;
#X connect 12 0 15 0;
#X connect 13 0 7 0;
#X restore 387 345 pd vu;
#X obj 6 77 vu 20 120 empty input -1 -8 0 10 #404040 #e1e1e1 1 0;
#N canvas 0 0 450 250 (subpatch) 0;
#X array sample-1 480000 float 2;
#X coords 0 1 480000 -1 142 76 1;
#X restore 152 26 graph;
#N canvas 0 0 450 250 (subpatch) 0;
#X array sample-2 480000 float 2;
#X coords 0 1 480000 -1 142 76 1;
#X restore 152 122 graph;
#N canvas 0 0 450 250 (subpatch) 0;
#X array sample-3 480000 float 2;
#X coords 0 1 480000 -1 142 76 1;
#X restore 302 26 graph;
#N canvas 0 0 450 250 (subpatch) 0;
#X array sample-4 480000 float 2;
#X coords 0 1 480000 -1 142 74 1;
#X restore 302 124 graph;
#X obj 387 256 * 3;
#X obj 56 77 vradio 20 1 0 4 empty empty record\ to 0 -8 0 10 #191919 #e1e1e1 #e1e1e1 0;
#X text 77 76 sample 1;
#X text 77 98 sample 2;
#X text 77 120 sample 3;
#X text 77 138 sample 4;
#X obj 424 583 tabwrite~;
#X obj 588 503 f 10;
#X obj 640 503 - 1;
#X obj 588 472 metro 1000;
#X obj 6 26 tgl 30 0 empty empty rec 5 -5 0 10 #191919 #e1e1e1 #e1e1e1 0 1;
#X floatatom 44 26 3 0 0 0 - - - 24;
#X msg 617 443 0;
#X obj 588 540 sel -1;
#X msg 640 540 10;
#X obj 615 416 sel 0;
#X obj 424 471 t b b;
#X obj 462 497 + 1;
#X obj 451 522 f;
#X msg 451 548 set sample-\$1;
#X obj 375 522 del 10005;
#X msg 375 548 stop;
#X obj 572 416 t f f;
#X obj 424 443 sel 1;
#X text 6 204 audio out;
#X obj 151 518 outlet~;
#X obj 511 85 loadbang;
#X msg 511 111 0;
#X obj 794 415 writesf~;
#X connect 0 0 1 0;
#X connect 1 0 5 0;
#X connect 1 0 17 0;
#X connect 1 0 36 0;
#X connect 2 0 11 0;
#X connect 3 0 4 0;
#X connect 4 0 1 1;
#X connect 5 0 6 0;
#X connect 5 1 6 1;
#X connect 11 0 3 0;
#X connect 12 0 28 0;
#X connect 18 0 19 0;
#X connect 18 0 22 0;
#X connect 19 0 24 0;
#X connect 20 0 18 0;
#X connect 21 0 33 0;
#X connect 22 0 26 0;
#X connect 23 0 21 0;
#X connect 24 0 25 0;
#X connect 24 1 18 1;
#X connect 25 0 18 1;
#X connect 26 0 23 0;
#X connect 27 0 17 0;
#X connect 27 0 31 0;
#X connect 27 1 29 0;
#X connect 28 0 29 1;
#X connect 29 0 30 0;
#X connect 30 0 17 0;
#X connect 31 0 32 0;
#X connect 32 0 17 0;
#X connect 33 0 34 0;
#X connect 33 1 20 0;
#X connect 34 0 27 0;
#X connect 37 0 38 0;
#X connect 38 0 12 0;
#X coords 0 0 1 1 454 223 1 0 0;
