#N canvas 827 239 734 565 12;
#X obj 151 317 adc~;
#X obj 151 404 *~;
#X obj 59 179 hsl 77 18 0 1 0 0 empty empty input-vol -2 -8 0 10 #191919 #e1e1e1 #e1e1e1 0 1;
#X msg 201 378 \$1 10;
#X obj 201 404 line~;
#N canvas 0 50 450 300 vu 0;
#X obj 710 374 env~ 1024;
#X obj 812 356 abs~;
#X obj 812 458 snapshot~;
#X obj 812 501 rmstodb;
#X obj 615 263 inlet~;
#X obj 812 533 - 100;
#X obj 710 532 - 100;
#X obj 890 334 expr 1000 / $f1;
#X floatatom 890 362 5 0 0 0 - - - 0;
#X obj 812 391 slop~ 0 0 0 0 1e+09;
#X text 933 363 hz;
#X obj 710 416 t f b;
#X obj 890 263 loadbang;
#X msg 890 289 300;
#X text 680 319 from pd example inside vu-help.pd;
#X msg 852 289 0;
#X obj 710 558 outlet;
#X obj 812 559 outlet;
#X connect 0 0 11 0;
#X connect 1 0 9 0;
#X connect 2 0 3 0;
#X connect 3 0 5 0;
#X connect 4 0 0 0;
#X connect 4 0 1 0;
#X connect 5 0 17 0;
#X connect 6 0 16 0;
#X connect 7 0 8 0;
#X connect 8 0 9 3;
#X connect 9 0 2 0;
#X connect 11 0 6 0;
#X connect 11 1 2 0;
#X connect 12 0 13 0;
#X connect 12 0 15 0;
#X connect 13 0 7 0;
#X restore 201 440 pd vu;
#X obj 6 77 vu 20 120 empty input -1 -8 0 10 #404040 #e1e1e1 1 0;
#N canvas 0 0 450 250 (subpatch) 0;
#X array sample-1 480000 float 2;
#X coords 0 1 480000 -1 142 76 1;
#X restore 367 26 graph;
#N canvas 0 0 450 250 (subpatch) 0;
#X array sample-2 480000 float 2;
#X coords 0 1 480000 -1 142 76 1;
#X restore 690 26 graph;
#N canvas 0 0 450 250 (subpatch) 0;
#X array sample-3 480000 float 2;
#X coords 0 1 480000 -1 142 76 1;
#X restore 539 26 graph;
#N canvas 0 0 450 250 (subpatch) 0;
#X array sample-4 480000 float 2;
#X coords 0 1 480000 -1 142 74 1;
#X restore 840 28 graph;
#X obj 201 351 * 3;
#X obj 56 77 vradio 20 1 0 4 empty empty record\ to 0 -8 0 10 #191919 #e1e1e1 #e1e1e1 0;
#X text 77 76 sample 1;
#X text 77 98 sample 2;
#X text 77 120 sample 3;
#X text 77 138 sample 4;
#X obj 588 503 f 10;
#X obj 640 503 - 1;
#X obj 588 472 metro 1000;
#X obj 6 26 tgl 30 0 empty empty rec 5 -5 0 10 #191919 #e1e1e1 #e1e1e1 0 1;
#X floatatom 44 26 3 0 0 0 - - - 24;
#X msg 617 443 0;
#X obj 588 540 sel -1;
#X msg 640 540 10;
#X obj 615 416 sel 0;
#X obj 473 562 + 1;
#X obj 462 587 f;
#X obj 408 528 del 10005;
#X msg 424 557 stop;
#X obj 572 416 t f f;
#X obj 424 443 sel 1;
#X text 6 204 audio out;
#X obj 151 713 outlet~;
#X obj -141 -102 loadbang;
#X msg -141 -76 0;
#X obj 424 471 t b b b b;
#X obj 343 597 writesf~;
#X msg 455 503 start;
#X obj 368 681 soundfiler;
#X obj 329 503 + 1;
#X obj 318 528 f;
#X floatatom 419 713 7 0 0 0 - - - 12;
#X listbox 486 713 16 0 0 0 - - - 0;
#X msg 462 613 open -bytes 3 samples/sample-\$1.wav;
#X msg 274 641 read samples/sample-\$1.wav sample-\$1;
#X obj 179 540 loadbang;
#X obj 179 566 t b b b b;
#X msg 179 592 1;
#X msg 257 592 4;
#X msg 231 592 3;
#X msg 205 592 2;
#X msg 302 351 \; sample-1 normalize \; sample-2 normalize \; sample-3 normalize \; sample-4 normalize;
#X obj 370 101 hsl 136 9 0 1 0 0 empty empty empty 9 8 0 10 #191919 #e1e1e1 #e1e1e1 0 1;
#X obj 370 115 hsl 136 9 0 1 0 0 empty empty empty 9 8 0 10 #191919 #e1e1e1 #e1e1e1 0 1;
#X obj 370 130 hsl 136 9 0 1 0 0 empty empty empty 9 8 0 10 #191919 #ff0000 #e1e1e1 0 1;
#X obj 367 159 knob 38 -2 2 0 0 empty empty #191919 #696969 #E1E1E1 1 0 0 0 1 270 0 0 0 empty empty 1 12 10 29 0 1 0 0;
#X text 357 141 play spd;
#X obj 830 346 t b f;
#X obj 830 383 -;
#X obj 830 485 expr 1 / $f1;
#X obj 830 511 * 0.1;
#X text 877 510 frame rate divided by frames on sample;
#X obj 752 296 t b f;
#X obj 752 322 *;
#X obj 752 443 phasor~;
#X obj 755 473 *~;
#X obj 755 511 +~;
#X obj 672 296 loadbang;
#X obj 672 358 snapshot~;
#X obj 755 650 output~;
#X floatatom 749 350 5 0 0 0 - - - 12;
#X obj 672 332 metro 30;
#X obj 755 584 tabread4~ sample-1;
#X msg 619 307 1;
#X obj 424 159 bng 38 250 50 0 empty empty res\ spd -5 -7 0 14 #191919 #e1e1e1 #e1e1e1;
#X obj 755 613 hip~ 5;
#X obj 755 540 *~ 480000;
#X obj 830 409 sel 0;
#X obj 1111 641 tabwrite~;
#N canvas 0 0 450 250 (subpatch) 0;
#X array buffer-1 50 float 2;
#X coords 0 1 50 -1 200 140 1;
#X restore 1087 231 graph;
#X msg 1124 577 \; buffer-\$1 resize \$2;
#X obj 1165 518 abs;
#X obj 1124 544 pack;
#X obj 533 159 bng 38 250 50 0 empty empty send\ to\ buffer -5 -7 0 14 #191919 #e1e1e1 #e1e1e1;
#X obj 681 159 hradio 20 1 0 8 empty empty buffer\ to\ send 0 -8 0 14 #191919 #e1e1e1 #e1e1e1 0;
#X obj 817 252 + 1;
#X floatatom 681 185 2 0 0 0 - - - 12;
#X obj 1124 518 f;
#X obj 1124 397 t b;
#X obj 1124 446 bng 25 250 50 0 empty empty empty 17 7 0 10 #191919 #e1e1e1 #e1e1e1;
#X connect 0 0 1 0;
#X connect 1 0 5 0;
#X connect 1 0 33 0;
#X connect 1 0 37 0;
#X connect 2 0 11 0;
#X connect 3 0 4 0;
#X connect 4 0 1 1;
#X connect 5 0 6 0;
#X connect 5 1 6 1;
#X connect 11 0 3 0;
#X connect 12 0 26 0;
#X connect 12 0 40 0;
#X connect 17 0 18 0;
#X connect 17 0 21 0;
#X connect 18 0 23 0;
#X connect 19 0 17 0;
#X connect 20 0 30 0;
#X connect 21 0 25 0;
#X connect 22 0 20 0;
#X connect 23 0 24 0;
#X connect 23 1 17 1;
#X connect 24 0 17 1;
#X connect 25 0 22 0;
#X connect 26 0 27 1;
#X connect 27 0 44 0;
#X connect 28 0 29 0;
#X connect 28 0 41 0;
#X connect 29 0 37 0;
#X connect 30 0 31 0;
#X connect 30 1 19 0;
#X connect 31 0 36 0;
#X connect 34 0 35 0;
#X connect 35 0 12 0;
#X connect 36 0 52 0;
#X connect 36 1 28 0;
#X connect 36 2 38 0;
#X connect 36 3 27 0;
#X connect 38 0 37 0;
#X connect 39 0 42 0;
#X connect 39 1 43 0;
#X connect 40 0 41 1;
#X connect 41 0 45 0;
#X connect 44 0 37 0;
#X connect 45 0 39 0;
#X connect 46 0 47 0;
#X connect 47 0 48 0;
#X connect 47 1 51 0;
#X connect 47 2 50 0;
#X connect 47 3 49 0;
#X connect 48 0 45 0;
#X connect 49 0 45 0;
#X connect 50 0 45 0;
#X connect 51 0 45 0;
#X connect 53 0 58 0;
#X connect 54 0 59 0;
#X connect 56 0 63 0;
#X connect 58 0 59 0;
#X connect 58 1 59 1;
#X connect 58 1 67 1;
#X connect 59 0 66 1;
#X connect 59 0 78 0;
#X connect 60 0 61 0;
#X connect 61 0 64 0;
#X connect 63 0 64 0;
#X connect 63 1 64 1;
#X connect 64 0 71 0;
#X connect 65 0 66 0;
#X connect 66 0 67 0;
#X connect 67 0 69 0;
#X connect 67 0 77 0;
#X connect 68 0 72 0;
#X connect 68 0 74 0;
#X connect 68 0 52 0;
#X connect 69 0 55 0;
#X connect 71 0 65 0;
#X connect 72 0 69 0;
#X connect 73 0 76 0;
#X connect 74 0 56 0;
#X connect 75 0 74 0;
#X connect 76 0 70 0;
#X connect 77 0 73 0;
#X connect 78 1 60 0;
#X connect 78 1 82 0;
#X connect 82 0 83 1;
#X connect 83 0 81 0;
#X connect 84 0 89 0;
#X connect 85 0 86 0;
#X connect 86 0 87 0;
#X connect 87 0 88 1;
#X connect 88 0 83 0;
#X connect 89 0 90 0;
#X connect 90 0 88 0;
#X coords 0 0 1 1 1202 229 1 0 0;
