#N canvas 827 239 734 565 12;
#X obj 341 571 delay;
#X obj 272 592 pack;
#X obj 341 608 f;
#X obj 539 321 + 10;
#X obj 667 321 + 10;
#X obj 907 321 + 10;
#X obj 587 132 spigot;
#X obj 272 541 t f b;
#X obj 299 567 f;
#X obj 594 517 sel 0;
#X obj 448 468 f;
#X obj 497 475 t b f;
#X obj 271 518 spigot;
#X obj 497 451 spigot;
#X obj 497 425 t f f;
#X obj 382 579 spigot;
#X obj 382 553 t f f;
#X obj 554 70 spigot;
#X obj 554 44 t f f;
#X obj 694 199 + 5;
#X obj 694 166 random 15;
#X obj 786 321 + 50;
#X text 564 428 APPLIES RANDOM CHANGES TO ADSR;
#X obj 582 166 t b b b b b;
#X obj 382 706 spigot;
#X obj 466 643 loadbang;
#X msg 466 669 1;
#X obj 594 543 t b b b;
#X msg 650 571 0;
#X msg 576 659 stop;
#X obj 636 652 f;
#X msg 636 687 0 \$1;
#X obj 271 492 t f f b;
#X obj 271 458 sel 0;
#X obj 382 526 sel 0;
#X obj 448 500 *;
#X obj 448 526 / 100;
#X obj 786 295 hv.drunk 45;
#X obj 907 295 hv.drunk 500;
#X obj 382 766 line~;
#X obj 441 836 s comp-adsr;
#X obj 441 770 line;
#X obj 456 617 pack;
#X obj 448 588 f;
#X obj 341 634 t b f;
#X obj 175 885 outlet~;
#X obj 554 96 bang;
#X obj 382 792 pow~ 2;
#X obj 441 796 pow 2;
#X floatatom 8 29 5 10 510 2 Attack \$0-attackRand \$0-attack 12;
#X floatatom 51 29 5 10 510 2 decay \$0-decayRand \$0-decay 12;
#X floatatom 95 29 5 0 95 2 sustain \$0-sustainRand \$0-sus 12;
#X floatatom 140 29 5 10 510 2 release \$0-releaseRand \$0-rel 12;
#X obj 279 -31 inlet~;
#X obj 392 -29 inlet;
#X obj 392 -3 s \$0-peak;
#X obj 539 346 s \$0-attackRand;
#X obj 667 344 s \$0-decayRand;
#X obj 786 345 s \$0-sustainRand;
#X obj 907 345 s \$0-releaseRand;
#X obj 271 429 r \$0-peak;
#X obj 497 375 r \$0-peak;
#X obj 448 407 r \$0-sus;
#X obj 359 475 r \$0-attack;
#X obj 594 461 r \$0-peak;
#X obj 674 461 r \$0-rel;
#X obj 382 500 r \$0-peak;
#X obj 314 541 r \$0-attack;
#X obj 497 588 r \$0-decay;
#X obj 175 850 *~;
#X obj 8 54 tgl 37 0 empty empty Randomize 42 7 0 10 #191919 #e1e1e1 #e1e1e1 0 1;
#X obj 408 199 loadbang;
#X msg 409 261 30;
#X msg 453 247 65;
#X obj 554 15 r \$0-peak;
#X obj 539 295 hv.drunk 500;
#X obj 667 295 hv.drunk 500;
#X connect 0 0 2 0;
#X connect 1 0 39 0;
#X connect 1 0 41 0;
#X connect 2 0 44 0;
#X connect 3 0 56 0;
#X connect 4 0 57 0;
#X connect 5 0 59 0;
#X connect 6 0 23 0;
#X connect 7 0 1 0;
#X connect 7 1 8 0;
#X connect 7 1 0 0;
#X connect 8 0 1 1;
#X connect 9 0 27 0;
#X connect 10 0 35 0;
#X connect 11 0 10 0;
#X connect 11 1 35 1;
#X connect 12 0 7 0;
#X connect 13 0 11 0;
#X connect 14 0 13 0;
#X connect 14 1 13 1;
#X connect 15 0 2 1;
#X connect 16 0 15 0;
#X connect 16 1 15 1;
#X connect 17 0 46 0;
#X connect 18 0 17 0;
#X connect 18 1 17 1;
#X connect 19 0 38 2;
#X connect 19 0 37 2;
#X connect 19 0 75 2;
#X connect 19 0 76 2;
#X connect 20 0 19 0;
#X connect 21 0 58 0;
#X connect 23 0 75 0;
#X connect 23 1 76 0;
#X connect 23 2 37 0;
#X connect 23 3 38 0;
#X connect 23 4 20 0;
#X connect 24 0 39 0;
#X connect 24 0 41 0;
#X connect 25 0 26 0;
#X connect 26 0 24 1;
#X connect 27 0 30 0;
#X connect 27 1 29 0;
#X connect 27 2 28 0;
#X connect 28 0 24 1;
#X connect 29 0 41 0;
#X connect 30 0 31 0;
#X connect 31 0 39 0;
#X connect 31 0 41 0;
#X connect 32 0 12 0;
#X connect 32 1 12 1;
#X connect 32 2 26 0;
#X connect 32 2 29 0;
#X connect 33 1 32 0;
#X connect 34 1 16 0;
#X connect 35 0 36 0;
#X connect 36 0 43 1;
#X connect 37 0 21 0;
#X connect 38 0 5 0;
#X connect 39 0 47 0;
#X connect 41 0 48 0;
#X connect 42 0 24 0;
#X connect 43 0 42 0;
#X connect 44 0 43 0;
#X connect 44 1 24 0;
#X connect 46 0 6 0;
#X connect 47 0 69 1;
#X connect 48 0 40 0;
#X connect 53 0 69 0;
#X connect 54 0 55 0;
#X connect 60 0 33 0;
#X connect 61 0 14 0;
#X connect 62 0 10 1;
#X connect 63 0 0 1;
#X connect 64 0 9 0;
#X connect 65 0 30 1;
#X connect 66 0 34 0;
#X connect 67 0 8 1;
#X connect 68 0 42 1;
#X connect 69 0 45 0;
#X connect 70 0 6 1;
#X connect 71 0 72 0;
#X connect 71 0 73 0;
#X connect 72 0 56 0;
#X connect 72 0 57 0;
#X connect 72 0 59 0;
#X connect 73 0 58 0;
#X connect 74 0 18 0;
#X connect 75 0 3 0;
#X connect 76 0 4 0;
#X coords 0 0 1 1 187 94 1 0 0;
