#N canvas 827 239 734 565 12;
#X obj 170 376 + 10;
#X obj 298 376 + 10;
#X obj 538 376 + 10;
#X obj 218 187 spigot;
#X obj 185 125 spigot;
#X obj 185 99 t f f;
#X obj 325 254 + 5;
#X obj 325 221 random 15;
#X obj 417 376 + 50;
#X obj 213 221 t b b b b b;
#X obj 417 350 hv.drunk 45;
#X obj 538 350 hv.drunk 500;
#X obj 185 151 bang;
#X obj 170 401 s \$0-attackRand;
#X obj 298 399 s \$0-decayRand;
#X obj 417 400 s \$0-sustainRand;
#X obj 538 400 s \$0-releaseRand;
#X obj 39 254 loadbang;
#X msg 40 316 30;
#X msg 84 302 65;
#X obj 170 350 hv.drunk 500;
#X obj 298 350 hv.drunk 500;
#X obj 314 120 r \$0-rand-adsr;
#X obj 185 57 inlet;
#X connect 0 0 13 0;
#X connect 1 0 14 0;
#X connect 2 0 16 0;
#X connect 3 0 9 0;
#X connect 4 0 12 0;
#X connect 5 0 4 0;
#X connect 5 1 4 1;
#X connect 6 0 11 2;
#X connect 6 0 10 2;
#X connect 6 0 20 2;
#X connect 6 0 21 2;
#X connect 7 0 6 0;
#X connect 8 0 15 0;
#X connect 9 0 20 0;
#X connect 9 1 21 0;
#X connect 9 2 10 0;
#X connect 9 3 11 0;
#X connect 9 4 7 0;
#X connect 10 0 8 0;
#X connect 11 0 2 0;
#X connect 12 0 3 0;
#X connect 17 0 18 0;
#X connect 17 0 19 0;
#X connect 18 0 13 0;
#X connect 18 0 14 0;
#X connect 18 0 16 0;
#X connect 19 0 15 0;
#X connect 20 0 0 0;
#X connect 21 0 1 0;
#X connect 22 0 3 1;
#X connect 23 0 5 0;
