#N canvas -2055 -519 1024 521 10;
#X msg 289 135 60000;
#X obj 309 160 /;
#X obj 282 195 metro;
#X text 13 -63 BPM;
#X obj 13 -42 inlet;
#X obj 282 220 bng 15 250 50 0 empty empty empty 17 7 0 10 #fcfcfc #000000 #000000;
#X obj 63 -42 inlet;
#X text 63 -63 ON/OFF;
#X obj 579 163 metro;
#X obj 606 137 / 8;
#X obj 547 147 tgl 15 0 empty empty empty 17 7 0 10 #fcfcfc #000000 #000000 0 1;
#X msg 953 112 31;
#X msg 922 113 15;
#X obj 644 157 counter 31;
#X obj 44 990 bng 15 250 50 0 empty empty empty 17 7 0 10 #fcfcfc #000000 #000000;
#X obj 406 739 bng 15 250 50 0 empty empty empty 17 7 0 10 #fcfcfc #000000 #000000;
#X obj 652 209 sel 0;
#X msg 858 113 7;
#X obj 527 1109 bng 69 250 50 0 empty empty empty 17 7 0 10 #80ff00 #000000 #000000;
#X obj 706 511 list-wrandom;
#X obj 685 652 f;
#X obj 314 -147 loadbang;
#X msg 314 -103 60;
#X obj 706 468 t b b;
#X obj 456 739 bng 15 250 50 0 empty empty empty 17 7 0 10 #fcfcfc #000000 #000000;
#X obj 503 739 bng 15 250 50 0 empty empty empty 17 7 0 10 #fcfcfc #000000 #000000;
#X obj 567 739 bng 15 250 50 0 empty empty empty 17 7 0 10 #fcfcfc #000000 #000000;
#X obj 24 925 spigot;
#X obj 66 990 tgl 15 0 empty empty empty 17 7 0 10 #fcfcfc #000000 #000000 0 1;
#X obj 389 989 bng 15 250 50 0 empty empty empty 17 7 0 10 #fcfcfc #000000 #000000;
#X obj 367 920 spigot;
#X obj 422 989 tgl 15 0 empty empty empty 17 7 0 10 #fcfcfc #000000 #000000 0 1;
#X text 397 876 8th;
#X obj 369 945 sel 0 4 7;
#X obj 24 950 sel 0 31;
#X obj 158 984 bng 15 250 50 0 empty empty empty 17 7 0 10 #fcfcfc #000000 #000000;
#X obj 136 919 spigot;
#X obj 191 984 tgl 15 0 empty empty empty 17 7 0 10 #fcfcfc #000000 #000000 0 1;
#X obj 138 944 sel 0 15;
#X text 53 878 whole;
#X text 154 875 half;
#X obj 265 984 bng 15 250 50 0 empty empty empty 17 7 0 10 #fcfcfc #000000 #000000;
#X obj 243 919 spigot;
#X obj 298 984 tgl 15 0 empty empty empty 17 7 0 10 #fcfcfc #000000 #000000 0 1;
#X text 261 875 quarter;
#X obj 502 988 bng 15 250 50 0 empty empty empty 17 7 0 10 #fcfcfc #000000 #000000;
#X obj 480 919 spigot;
#X obj 535 988 tgl 15 0 empty empty empty 17 7 0 10 #fcfcfc #000000 #000000 0 1;
#X text 510 875 16th;
#X obj 606 740 bng 15 250 50 0 empty empty empty 17 7 0 10 #fcfcfc #000000 #000000;
#X obj 482 944 sel 0 2 4 6 7;
#X obj 649 741 bng 15 250 50 0 empty empty empty 17 7 0 10 #fcfcfc #000000 #000000;
#X obj 596 919 spigot;
#X obj 670 915 tgl 15 0 empty empty empty 17 7 0 10 #fcfcfc #000000 #000000 0 1;
#X text 626 875 32nd;
#X obj 615 999 t b b;
#X obj 679 1009 bng 15 250 50 0 empty empty empty 17 7 0 10 #fcfcfc #000000 #000000;
#X obj 245 944 sel 0 7;
#X obj 597 946 sel 0 1 2 3 4 5 6 7;
#X obj 695 741 bng 15 250 50 0 empty empty empty 17 7 0 10 #fcfcfc #000000 #000000;
#X obj 755 979 bng 15 250 50 0 empty empty empty 17 7 0 10 #fcfcfc #000000 #000000;
#X obj 733 910 spigot;
#X obj 788 979 tgl 15 0 empty empty empty 17 7 0 10 #fcfcfc #000000 #000000 0 1;
#X text 763 866 8-q-8;
#X obj 735 935 sel 0 4 12 15;
#X obj 862 968 bng 15 250 50 0 empty empty empty 17 7 0 10 #fcfcfc #000000 #000000;
#X obj 840 899 spigot;
#X obj 895 968 tgl 15 0 empty empty empty 17 7 0 10 #fcfcfc #000000 #000000 0 1;
#X text 870 855 8-16-16;
#X obj 842 924 sel 0 4 6 7;
#X obj 981 958 bng 15 250 50 0 empty empty empty 17 7 0 10 #fcfcfc #000000 #000000;
#X obj 959 889 spigot;
#X obj 1014 958 tgl 15 0 empty empty empty 17 7 0 10 #fcfcfc #000000 #000000 0 1;
#X obj 961 914 sel 0 2 4 7;
#X text 989 845 16-16-8;
#X obj 748 742 bng 15 250 50 0 empty empty empty 17 7 0 10 #fcfcfc #000000 #000000;
#X obj 815 743 bng 15 250 50 0 empty empty empty 17 7 0 10 #fcfcfc #000000 #000000;
#X obj 527 1208 outlet;
#X obj 1101 950 bng 15 250 50 0 empty empty empty 17 7 0 10 #fcfcfc #000000 #000000;
#X obj 1079 881 spigot;
#X obj 1134 950 tgl 15 0 empty empty empty 17 7 0 10 #fcfcfc #000000 #000000 0 1;
#X text 1109 837 16-8-16;
#X obj 881 745 bng 15 250 50 0 empty empty empty 17 7 0 10 #fcfcfc #000000 #000000;
#X obj 1081 906 sel 0 2 6 7;
#X obj 1202 871 spigot;
#X obj 1276 867 tgl 15 0 empty empty empty 17 7 0 10 #fcfcfc #000000 #000000 0 1;
#X obj 1212 958 t b b;
#X obj 1270 958 bng 15 250 50 0 empty empty empty 17 7 0 10 #fcfcfc #000000 #000000;
#X text 1232 827 8-32;
#X obj 1203 898 sel 0 4 5 6 7;
#X obj 1012 744 bng 15 250 50 0 empty empty empty 17 7 0 10 #fcfcfc #000000 #000000;
#X obj 256 1182 bng 15 250 50 0 empty empty empty 17 7 0 10 #fcfcfc #000000 #000000;
#X obj 234 1113 spigot;
#X obj 314 1176 tgl 15 0 empty empty empty 17 7 0 10 #fcfcfc #000000 #000000 0 1;
#X text 264 1069 32-8;
#X obj 236 1138 sel 0 1 2 3 4 7;
#X obj 1091 744 bng 15 250 50 0 empty empty empty 17 7 0 10 #fcfcfc #000000 #000000;
#X msg 826 46 8;
#X msg 528 -10 6;
#X msg 825 113 5;
#X msg 890 113 11;
#X obj 906 1170 tgl 15 0 empty empty empty 17 7 0 10 #fcfcfc #000000 #000000 0 1;
#X text 883 1050 trip1;
#X obj 920 1147 r trip1;
#X obj 1193 744 bng 15 250 50 0 empty empty empty 17 7 0 10 #fcfcfc #000000 #000000;
#X obj 857 1151 bng 15 250 50 0 empty empty empty 17 7 0 10 #fcfcfc #000000 #000000;
#X obj 853 1090 spigot;
#X obj 906 1170 tgl 15 0 empty empty empty 17 7 0 10 #fcfcfc #000000 #000000 0 1;
#X text 883 1050 trip1;
#X obj 853 1119 sel 0 4 8 11;
#X obj 1018 1163 bng 15 250 50 0 empty empty empty 17 7 0 10 #fcfcfc #000000 #000000;
#X obj 996 1094 spigot;
#X obj 1051 1163 tgl 15 0 empty empty empty 17 7 0 10 #fcfcfc #000000 #000000 0 1;
#X text 1026 1050 trip2;
#X obj 998 1119 sel 0 2 4 5;
#X obj 1270 744 bng 15 250 50 0 empty empty empty 17 7 0 10 #fcfcfc #000000 #000000;
#X obj 1144 1070 spigot;
#X obj 1218 1066 tgl 15 0 empty empty empty 17 7 0 10 #fcfcfc #000000 #000000 0 1;
#X obj 1163 1140 t b b;
#X obj 1196 1172 bng 15 250 50 0 empty empty empty 17 7 0 10 #fcfcfc #000000 #000000;
#X text 1174 1026 sext;
#X obj 1145 1097 sel 0 1 2 3 4 5;
#X obj 1345 730 bng 15 250 50 0 empty empty empty 17 7 0 10 #fcfcfc #000000 #000000;
#X obj 590 1186 outlet;
#X text 198 -63 INSERT PROBABILITIES HERE;
#X obj 169 -42 inlet;
#X obj -24 160 s \$0-tempo-storp;
#X obj 334 188 s \$0-metro-ms;
#X obj 204 171 r \$0-tempo-storp;
#X obj 478 -56 r \$0-trip1;
#X obj 547 -56 r \$0-trip2;
#X obj 616 -56 r \$0-sext;
#X obj 679 -56 r \$0-quarter;
#X obj 760 -56 r \$0-8th;
#X obj 817 -56 r \$0-16th;
#X obj 880 -56 r \$0-32nd;
#X obj 943 -56 r \$0-8-16-16;
#X obj 1024 -56 r \$0-16-16-8;
#X obj 886 -29 r \$0-16-8-16;
#X obj 891 -2 r \$0-8-32;
#X obj 892 23 r \$0-32-8;
#X obj 628 -11 r \$0-whole;
#X obj 617 20 r \$0-8-q-8;
#X obj 609 45 r \$0-half;
#X obj 811 82 r \$0-max5;
#X obj 874 82 r \$0-max7;
#X obj 937 82 r \$0-max11;
#X obj 1006 82 r \$0-max15;
#X obj 1075 82 r \$0-max31;
#X obj 580 71 r \$0-metro-ms;
#X obj 468 84 r \$0-tempo-storp;
#X obj 561 208 s \$0-attack;
#X obj 184 797 s \$0-max31;
#X obj 269 797 s \$0-max15;
#X obj 354 797 s \$0-max7;
#X obj 433 797 s \$0-max7;
#X obj 512 797 s \$0-max7;
#X obj 591 797 s \$0-max7;
#X obj 670 797 s \$0-max15;
#X obj 755 797 s \$0-max7;
#X obj 834 797 s \$0-max7;
#X obj 913 797 s \$0-max7;
#X obj 991 797 s \$0-max7;
#X obj 1107 803 s \$0-max7;
#X obj 1211 803 s \$0-max11;
#X obj 1301 803 s \$0-max5;
#X obj 1385 791 s \$0-max5;
#X obj 236 774 s \$0-whole;
#X obj 309 774 s \$0-half;
#X obj 376 774 s \$0-quarter;
#X obj 461 774 s \$0-8th;
#X obj 522 774 s \$0-16th;
#X obj 589 774 s \$0-32nd;
#X obj 656 774 s \$0-8-q-8;
#X obj 729 774 s \$0-8-16-16;
#X obj 814 774 s \$0-16-16-8;
#X obj 899 774 s \$0-16-8-16;
#X obj 1086 780 s \$0-32-8;
#X obj 1178 780 s \$0-trip1;
#X obj 1256 780 s \$0-trip2;
#X obj 1334 768 s \$0-sext;
#X obj 1278 841 r \$0-8-32;
#X obj 1148 927 r \$0-16-8-16;
#X obj 1028 935 r \$0-16-16-8;
#X obj 909 945 r \$0-8-16-16;
#X obj 802 956 r \$0-8-q-8;
#X obj 672 889 r \$0-32nd;
#X obj 549 965 r \$0-16th;
#X obj 431 961 r \$0-8th;
#X obj 301 960 r \$0-quarter;
#X obj 196 958 r \$0-half;
#X obj 85 968 r \$0-whole;
#X obj 24 898 r \$0-attack;
#X obj 136 895 r \$0-attack;
#X obj 243 895 r \$0-attack;
#X obj 367 896 r \$0-attack;
#X obj 480 895 r \$0-attack;
#X obj 596 895 r \$0-attack;
#X obj 733 886 r \$0-attack;
#X obj 840 875 r \$0-attack;
#X obj 959 865 r \$0-attack;
#X obj 1079 857 r \$0-attack;
#X obj 1202 847 r \$0-attack;
#X obj 1220 1040 r \$0-sext;
#X obj 1144 1046 r \$0-attack;
#X obj 996 1070 r \$0-attack;
#X obj 1065 1140 r \$0-trip2;
#X obj 920 1147 r \$0-trip1;
#X obj 853 1070 r \$0-attack;
#X obj 234 1089 r \$0-attack;
#X obj 344 1153 r \$0-32-8;
#X obj 565 117 t f b;
#X obj 6 16 tgl 25 0 empty empty onoff 1 7 0 10 #191919 #e1e1e1 #e1e1e1 0 1;
#X obj 48 16 bng 25 250 50 0 empty empty lineup 0 7 0 10 #191919 #e1e1e1 #e1e1e1;
#X text 349 -3 list;
#N canvas 0 0 450 250 (subpatch) 0;
#X array \$0-list 15 float 2;
#X coords 0 100 15 0 112 72 1;
#X restore 80 20 graph;
#X obj 6 66 bng 25 250 50 0 empty empty out 0 7 0 10 #191919 #e1e1e1 #e1e1e1;
#X floatatom 36 45 5 0 0 0 bpm - - 12;
#X text 169 -63 list;
#X obj 63 71 bng 16 250 50 0 empty empty load 0 7 0 10 #191919 #e1e1e1 #e1e1e1;
#X obj 796 157 array get \$0-list;
#X obj 1240 71 list-drip;
#X obj 1240 97 t f b;
#X obj 1276 128 f 0;
#X obj 1316 128 + 1;
#X msg 1302 71 0;
#X obj 1240 163 tabwrite \$0-list;
#X text 1168 -173 medium;
#X msg 806 -172 0 5.6 12.5 32 58 83 95.8 98.6 95.8 83 58 32 19 12.5 5.6 0;
#X text 1188 -136 slow;
#X text 1137 -204 fast;
#X msg 770 -219 0 2.8 5.5 12.5 16.7 34.7 48.6 59 69 80.5 87.5 91.7 94 96 100;
#X msg 826 -135 100 96 94 91.7 87.5 80.5 69 59 48.6 34.7 16.7 12.5 5.5 2.8 0;
#X obj 198 31 vradio 20 1 0 3 empty empty pressets 0 -8 0 10 #191919 #e1e1e1 #e1e1e1 0;
#X text 219 30 fast;
#X text 219 51 med;
#X text 219 72 slow;
#X obj 41 71 bng 16 250 50 0 empty empty rand -4 8 0 10 #191919 #e1e1e1 #e1e1e1;
#X obj 806 -261 sel 0 1 2;
#X msg 21 220 15;
#X obj 21 246 until;
#X obj 21 297 random 101;
#X obj 21 323 list-extend;
#X obj -8 195 t b b b;
#X obj 159 116 t b b;
#X obj 1240 -11 t b l b l;
#X obj 289 116 t b b f;
#X obj 219 123 spigot;
#X msg 349 -103 1;
#X obj 643 1186 outlet;
#X text 643 1207 plug to bpm of next;
#X obj 644 181 spigot;
#X text 706 444 normal;
#X obj 915 329 random 4;
#X obj 915 352 + 2;
#X obj 915 379 until;
#X obj 915 433 list-extend;
#X obj 915 406 list-wrandom;
#X obj 709 264 spigot;
#X text 948 299 obstinado;
#X obj 893 503 list-dripslow;
#X obj 982 503 t b b;
#X obj 867 264 spigot;
#X obj 953 157 sel 0 1 2;
#X obj 1185 362 + 3;
#X obj 1185 337 random 4;
#X obj 1185 387 until;
#X obj 1185 468 list-extend;
#X obj 1185 503 list-rev;
#X obj 1270 468 list-extend;
#X obj 1355 316 t b b;
#X text 1167 279 tattarrattat;
#X obj 1100 632 list-dripslow;
#X obj 1175 655 t b b;
#X obj 1100 264 spigot;
#X obj 1034 189 t b b;
#X obj 1185 413 list-wrandom;
#X msg 1131 226 0;
#X msg 1163 226 1;
#X msg 890 233 0;
#X msg 922 233 1;
#X msg 739 233 0;
#X msg 771 233 1;
#X obj 263 31 vradio 20 1 0 3 empty empty algorithm 0 -8 0 10 #191919 #e1e1e1 #e1e1e1 0;
#X text 284 30 normal;
#X text 284 51 obstinado;
#X text 284 72 tattarrattat;
#X msg 394 -98 0;
#X obj 1051 1185 sel 1;
#X msg 1088 1185 0;
#X obj 906 1196 sel 1;
#X msg 943 1196 0;
#X obj 1134 979 sel 1;
#X msg 1171 979 0;
#X obj 1004 988 sel 1;
#X msg 1041 988 0;
#X obj 885 999 sel 1;
#X msg 922 999 0;
#X obj 784 1009 sel 1;
#X msg 821 1009 0;
#X obj 523 1009 sel 1;
#X msg 560 1009 0;
#X obj 431 1016 sel 1;
#X msg 468 1016 0;
#X obj 299 1020 sel 1;
#X msg 336 1020 0;
#X obj 172 1011 sel 1;
#X msg 209 1011 0;
#X obj 57 1019 sel 1;
#X msg 94 1019 0;
#X obj 314 1208 sel 1;
#X msg 351 1208 0;
#X obj 1000 774 s \$0-8-32;
#X obj 686 679 sel 0 1 2 3 4 5 6 7 8 9 10 11 12 13 14;
#X obj 968 189 t b b b;
#X obj 349 52 bng 18 250 50 0 empty empty empty 17 7 0 10 #191919 #e1e1e1 #e1e1e1;
#X obj 353 73 bng 18 250 50 0 empty empty empty 17 7 0 10 #191919 #e1e1e1 #e1e1e1;
#X msg 413 59 1;
#X msg 414 84 2;
#X obj 1185 439 t l l;
#X obj 1185 541 list-extend;
#X obj 1167 309 t b b b;
#X obj -154 350 sel 0;
#X obj 756 468 list store;
#X obj 6 353 list store;
#X connect 0 0 1 0;
#X connect 1 0 2 1;
#X connect 1 0 127 0;
#X connect 2 0 5 0;
#X connect 4 0 217 0;
#X connect 5 0 123 0;
#X connect 6 0 212 0;
#X connect 8 0 13 0;
#X connect 9 0 8 1;
#X connect 10 0 8 0;
#X connect 11 0 13 4;
#X connect 12 0 13 4;
#X connect 13 0 251 0;
#X connect 13 3 258 0;
#X connect 13 3 262 0;
#X connect 13 3 274 0;
#X connect 14 0 18 0;
#X connect 15 0 152 0;
#X connect 15 0 167 0;
#X connect 16 0 20 0;
#X connect 17 0 13 4;
#X connect 18 0 216 0;
#X connect 19 0 20 1;
#X connect 20 0 313 0;
#X connect 21 0 22 0;
#X connect 21 0 248 0;
#X connect 21 0 287 0;
#X connect 22 0 217 0;
#X connect 23 0 19 0;
#X connect 23 1 323 0;
#X connect 24 0 153 0;
#X connect 24 0 168 0;
#X connect 25 0 154 0;
#X connect 25 0 169 0;
#X connect 26 0 155 0;
#X connect 26 0 170 0;
#X connect 27 0 34 0;
#X connect 28 0 27 1;
#X connect 28 0 308 0;
#X connect 29 0 18 0;
#X connect 30 0 33 0;
#X connect 31 0 30 1;
#X connect 31 0 302 0;
#X connect 33 0 29 0;
#X connect 33 1 29 0;
#X connect 33 2 31 0;
#X connect 34 0 14 0;
#X connect 34 1 28 0;
#X connect 35 0 18 0;
#X connect 36 0 38 0;
#X connect 37 0 36 1;
#X connect 37 0 306 0;
#X connect 38 0 35 0;
#X connect 38 1 37 0;
#X connect 41 0 18 0;
#X connect 42 0 57 0;
#X connect 43 0 42 1;
#X connect 43 0 304 0;
#X connect 45 0 18 0;
#X connect 46 0 50 0;
#X connect 47 0 46 1;
#X connect 47 0 300 0;
#X connect 49 0 156 0;
#X connect 49 0 171 0;
#X connect 50 0 45 0;
#X connect 50 1 45 0;
#X connect 50 2 45 0;
#X connect 50 3 45 0;
#X connect 50 4 47 0;
#X connect 51 0 157 0;
#X connect 51 0 172 0;
#X connect 52 0 58 0;
#X connect 53 0 52 1;
#X connect 55 0 53 0;
#X connect 55 1 56 0;
#X connect 56 0 18 0;
#X connect 57 0 41 0;
#X connect 57 1 43 0;
#X connect 58 0 55 0;
#X connect 58 1 56 0;
#X connect 58 2 56 0;
#X connect 58 3 56 0;
#X connect 58 4 56 0;
#X connect 58 5 56 0;
#X connect 58 6 56 0;
#X connect 58 7 56 0;
#X connect 59 0 158 0;
#X connect 59 0 173 0;
#X connect 60 0 18 0;
#X connect 61 0 64 0;
#X connect 62 0 61 1;
#X connect 62 0 298 0;
#X connect 64 0 60 0;
#X connect 64 1 60 0;
#X connect 64 2 60 0;
#X connect 64 3 62 0;
#X connect 65 0 18 0;
#X connect 66 0 69 0;
#X connect 67 0 66 1;
#X connect 67 0 296 0;
#X connect 69 0 65 0;
#X connect 69 1 65 0;
#X connect 69 2 65 0;
#X connect 69 3 67 0;
#X connect 70 0 18 0;
#X connect 71 0 73 0;
#X connect 72 0 71 1;
#X connect 72 0 294 0;
#X connect 73 0 70 0;
#X connect 73 1 70 0;
#X connect 73 2 70 0;
#X connect 73 3 72 0;
#X connect 75 0 159 0;
#X connect 75 0 174 0;
#X connect 76 0 160 0;
#X connect 76 0 175 0;
#X connect 78 0 18 0;
#X connect 79 0 83 0;
#X connect 80 0 79 1;
#X connect 80 0 292 0;
#X connect 82 0 161 0;
#X connect 82 0 176 0;
#X connect 83 0 78 0;
#X connect 83 1 78 0;
#X connect 83 2 78 0;
#X connect 83 3 80 0;
#X connect 84 0 89 0;
#X connect 85 0 84 1;
#X connect 86 0 85 0;
#X connect 86 1 87 0;
#X connect 87 0 18 0;
#X connect 89 0 86 0;
#X connect 89 1 87 0;
#X connect 89 2 87 0;
#X connect 89 3 87 0;
#X connect 89 4 87 0;
#X connect 90 0 162 0;
#X connect 90 0 312 0;
#X connect 91 0 18 0;
#X connect 92 0 95 0;
#X connect 93 0 92 1;
#X connect 93 0 310 0;
#X connect 95 0 91 0;
#X connect 95 1 91 0;
#X connect 95 2 91 0;
#X connect 95 3 91 0;
#X connect 95 4 91 0;
#X connect 95 5 93 0;
#X connect 96 0 163 0;
#X connect 96 0 177 0;
#X connect 97 0 9 1;
#X connect 98 0 9 1;
#X connect 99 0 13 4;
#X connect 100 0 13 4;
#X connect 103 0 101 0;
#X connect 104 0 164 0;
#X connect 104 0 178 0;
#X connect 105 0 18 0;
#X connect 106 0 109 0;
#X connect 107 0 290 0;
#X connect 107 0 106 1;
#X connect 109 0 105 0;
#X connect 109 1 105 0;
#X connect 109 2 105 0;
#X connect 109 3 107 0;
#X connect 110 0 18 0;
#X connect 111 0 114 0;
#X connect 112 0 111 1;
#X connect 112 0 288 0;
#X connect 114 0 110 0;
#X connect 114 1 110 0;
#X connect 114 2 110 0;
#X connect 114 3 112 0;
#X connect 115 0 165 0;
#X connect 115 0 179 0;
#X connect 116 0 121 0;
#X connect 117 0 116 1;
#X connect 118 0 117 0;
#X connect 118 1 119 0;
#X connect 119 0 18 0;
#X connect 121 0 118 0;
#X connect 121 1 119 0;
#X connect 121 2 119 0;
#X connect 121 3 119 0;
#X connect 121 4 119 0;
#X connect 121 5 119 0;
#X connect 122 0 166 0;
#X connect 122 0 180 0;
#X connect 125 0 245 0;
#X connect 128 0 2 0;
#X connect 129 0 98 0;
#X connect 130 0 98 0;
#X connect 131 0 98 0;
#X connect 132 0 97 0;
#X connect 133 0 97 0;
#X connect 134 0 97 0;
#X connect 135 0 97 0;
#X connect 136 0 97 0;
#X connect 137 0 97 0;
#X connect 138 0 97 0;
#X connect 139 0 97 0;
#X connect 140 0 97 0;
#X connect 141 0 97 0;
#X connect 142 0 97 0;
#X connect 143 0 97 0;
#X connect 144 0 99 0;
#X connect 145 0 17 0;
#X connect 146 0 100 0;
#X connect 147 0 12 0;
#X connect 148 0 11 0;
#X connect 149 0 9 0;
#X connect 150 0 211 0;
#X connect 181 0 85 0;
#X connect 182 0 80 0;
#X connect 183 0 72 0;
#X connect 184 0 67 0;
#X connect 185 0 62 0;
#X connect 186 0 53 0;
#X connect 187 0 47 0;
#X connect 188 0 31 0;
#X connect 189 0 43 0;
#X connect 190 0 37 0;
#X connect 191 0 28 0;
#X connect 192 0 27 0;
#X connect 193 0 36 0;
#X connect 194 0 42 0;
#X connect 195 0 30 0;
#X connect 196 0 46 0;
#X connect 197 0 52 0;
#X connect 198 0 61 0;
#X connect 199 0 66 0;
#X connect 200 0 71 0;
#X connect 201 0 79 0;
#X connect 202 0 84 0;
#X connect 203 0 117 0;
#X connect 204 0 116 0;
#X connect 205 0 111 0;
#X connect 206 0 112 0;
#X connect 207 0 107 0;
#X connect 208 0 106 0;
#X connect 209 0 92 0;
#X connect 210 0 93 0;
#X connect 211 0 10 0;
#X connect 211 1 13 2;
#X connect 212 0 126 0;
#X connect 212 0 247 1;
#X connect 212 0 251 1;
#X connect 213 0 217 0;
#X connect 216 0 77 0;
#X connect 217 0 322 0;
#X connect 219 0 244 0;
#X connect 220 0 257 1;
#X connect 220 0 19 1;
#X connect 220 0 276 1;
#X connect 220 0 323 1;
#X connect 221 0 222 0;
#X connect 222 0 226 0;
#X connect 222 1 223 0;
#X connect 223 0 224 0;
#X connect 223 0 226 1;
#X connect 224 0 223 1;
#X connect 225 0 223 1;
#X connect 228 0 245 0;
#X connect 231 0 245 0;
#X connect 232 0 245 0;
#X connect 233 0 238 0;
#X connect 237 0 243 0;
#X connect 238 0 231 0;
#X connect 238 1 228 0;
#X connect 238 2 232 0;
#X connect 239 0 240 0;
#X connect 240 0 241 0;
#X connect 241 0 242 0;
#X connect 242 0 324 1;
#X connect 243 0 242 1;
#X connect 243 1 324 0;
#X connect 243 2 239 0;
#X connect 244 0 213 0;
#X connect 244 1 220 0;
#X connect 245 0 217 0;
#X connect 245 1 257 1;
#X connect 245 1 19 1;
#X connect 245 1 276 1;
#X connect 245 1 323 1;
#X connect 245 2 225 0;
#X connect 245 3 221 0;
#X connect 246 0 0 0;
#X connect 246 1 247 0;
#X connect 246 1 13 3;
#X connect 246 2 1 1;
#X connect 247 0 2 0;
#X connect 248 0 233 0;
#X connect 251 0 151 0;
#X connect 251 0 16 0;
#X connect 253 0 254 0;
#X connect 254 0 255 0;
#X connect 255 0 257 0;
#X connect 256 0 260 1;
#X connect 257 0 256 0;
#X connect 258 0 23 0;
#X connect 260 0 20 1;
#X connect 260 1 261 0;
#X connect 261 0 260 0;
#X connect 261 1 256 0;
#X connect 262 0 260 0;
#X connect 263 0 282 0;
#X connect 263 0 279 0;
#X connect 263 0 277 0;
#X connect 263 1 314 0;
#X connect 263 2 275 0;
#X connect 264 0 266 0;
#X connect 265 0 264 0;
#X connect 266 0 276 0;
#X connect 267 0 268 0;
#X connect 268 0 320 0;
#X connect 269 0 320 1;
#X connect 270 0 265 0;
#X connect 270 1 269 1;
#X connect 270 1 267 1;
#X connect 272 0 20 1;
#X connect 272 1 273 0;
#X connect 273 0 272 0;
#X connect 273 1 270 0;
#X connect 274 0 272 0;
#X connect 275 0 278 0;
#X connect 275 0 279 0;
#X connect 275 0 281 0;
#X connect 275 1 321 0;
#X connect 276 0 319 0;
#X connect 277 0 274 1;
#X connect 278 0 274 1;
#X connect 279 0 262 1;
#X connect 280 0 262 1;
#X connect 281 0 258 1;
#X connect 282 0 258 1;
#X connect 283 0 263 0;
#X connect 287 0 283 0;
#X connect 288 0 289 0;
#X connect 289 0 114 0;
#X connect 290 0 291 0;
#X connect 291 0 109 0;
#X connect 292 0 293 0;
#X connect 293 0 83 0;
#X connect 294 0 295 0;
#X connect 295 0 73 0;
#X connect 296 0 297 0;
#X connect 297 0 69 0;
#X connect 298 0 299 0;
#X connect 299 0 64 0;
#X connect 300 0 301 0;
#X connect 301 0 50 0;
#X connect 302 0 303 0;
#X connect 303 0 33 0;
#X connect 304 0 305 0;
#X connect 305 0 57 0;
#X connect 306 0 307 0;
#X connect 307 0 38 0;
#X connect 308 0 309 0;
#X connect 309 0 34 0;
#X connect 310 0 311 0;
#X connect 311 0 95 0;
#X connect 313 0 15 0;
#X connect 313 1 24 0;
#X connect 313 2 25 0;
#X connect 313 3 26 0;
#X connect 313 4 49 0;
#X connect 313 5 51 0;
#X connect 313 6 59 0;
#X connect 313 7 75 0;
#X connect 313 8 76 0;
#X connect 313 9 82 0;
#X connect 313 10 90 0;
#X connect 313 11 96 0;
#X connect 313 12 104 0;
#X connect 313 13 115 0;
#X connect 313 14 122 0;
#X connect 314 0 280 0;
#X connect 314 0 281 0;
#X connect 314 0 277 0;
#X connect 314 1 253 0;
#X connect 314 2 256 1;
#X connect 315 0 317 0;
#X connect 316 0 318 0;
#X connect 317 0 263 0;
#X connect 318 0 263 0;
#X connect 319 0 267 0;
#X connect 319 1 269 0;
#X connect 320 0 272 1;
#X connect 321 0 272 0;
#X connect 321 1 265 0;
#X connect 321 2 267 1;
#X connect 321 2 269 1;
#X connect 321 2 320 1;
#X connect 322 1 246 0;
#X connect 322 1 249 0;
#X connect 323 0 19 1;
#X connect 324 0 245 0;
#X coords 0 0 1 1 373 97 1 0 1;
