#N canvas 1208 -8 2067 1116 10;
#X obj -11 -37 inlet;
#X obj 148 375 /;
#X obj 148 320 t b f;
#X obj 121 403 metro;
#X msg 148 345 60000;
#X obj 149 428 + 1;
#X floatatom 121 453 5 0 0 0 - - - 0;
#X msg 166 265 60;
#X floatatom 276 587 5 0 0 0 - - - 0;
#X obj 344 499 + 1;
#X floatatom 316 524 5 0 0 0 - - - 0;
#X obj 121 480 ==;
#X obj 121 505 sel 0 1;
#X obj 121 428 f 0;
#X msg 263 400 0;
#X text 363 589 n(n+1)/2 + 1;
#X obj 316 560 expr $f1 * ($f1 + 1) / 2;
#X obj 316 499 f 0;
#X obj 316 587 + 1;
#X obj 140 530 t b b;
#X obj 263 375 sel 0 1;
#X obj 52 279 t f f;
#X obj 2 14 tgl 25 0 empty empty empty 17 7 0 10 #191919 #e1e1e1 #e1e1e1 0 1;
#X floatatom 31 25 5 0 0 2 bpm - - 10;
#X obj 189 209 loadbang;
#X obj 78 -37 inlet;
#X obj 2 86 bng 25 250 50 0 empty empty out 5 7 0 10 #191919 #e1e1e1 #e1e1e1;
#X obj 36 86 bng 25 250 50 0 empty empty beat 3 7 0 10 #191919 #e1e1e1 #e1e1e1;
#X obj -7 668 outlet;
#X obj 2 48 bng 25 250 50 0 empty empty reset 2 7 0 10 #191919 #e1e1e1 #e1e1e1;
#X obj 43 668 outlet;
#X obj -67 92 t b b;
#X floatatom 31 57 5 1 8 2 factor - - 10;
#X obj 111 231 *;
#X obj 139 156 t b f;
#X msg 213 254 1;
#X obj 78 148 sel 0;
#X connect 0 0 23 0;
#X connect 1 0 3 1;
#X connect 2 0 4 0;
#X connect 2 1 1 1;
#X connect 3 0 13 0;
#X connect 3 0 27 0;
#X connect 4 0 1 0;
#X connect 5 0 13 1;
#X connect 6 0 11 0;
#X connect 7 0 23 0;
#X connect 8 0 11 1;
#X connect 9 0 17 1;
#X connect 10 0 16 0;
#X connect 11 0 12 0;
#X connect 12 1 19 0;
#X connect 13 0 5 0;
#X connect 13 0 6 0;
#X connect 14 0 13 1;
#X connect 14 0 17 1;
#X connect 16 0 8 0;
#X connect 17 0 9 0;
#X connect 17 0 10 0;
#X connect 18 0 8 0;
#X connect 19 0 17 0;
#X connect 19 1 26 0;
#X connect 20 0 14 0;
#X connect 20 1 17 0;
#X connect 21 0 3 0;
#X connect 21 1 20 0;
#X connect 22 0 21 0;
#X connect 23 0 36 0;
#X connect 24 0 7 0;
#X connect 24 0 35 0;
#X connect 25 0 22 0;
#X connect 26 0 28 0;
#X connect 27 0 30 0;
#X connect 29 0 31 0;
#X connect 31 0 22 0;
#X connect 31 1 22 0;
#X connect 32 0 34 0;
#X connect 33 0 2 0;
#X connect 34 0 33 0;
#X connect 34 1 33 1;
#X connect 35 0 32 0;
#X connect 36 1 33 0;
#X coords 0 0 1 1 66 116 1 0 0;
