#N canvas 827 239 734 565 12;
#N canvas 0 0 450 300 (subpatch) 0;
#X array \$0-shapeFunction 25 float 1;
#A 0 0.66 0.447891 0.26359 0.14 0.547685 0.310752 0.7 -0.107071 -0.78 0.386999 -0.0631915 -0.129938 0.105599 -0.14 -0.217753 -0.58 -0.374232 0.395755 0.44 0.363188 -0.4 0.484557 -0.96 0.412045 -0.6;
#X coords 0 1 24 -1 112 81 1;
#X restore 186 188 graph;
#X obj 17 84 tgl 39 0 empty empty velocity\ off -5 -9 0 9 #191919 #e1e1e1 #e1e1e1 0 1;
#X obj 149 33 knob 60 0 1 0 0.5 empty empty #191919 #696969 #E1E1E1 1 0 0 0 1 270 0 0 0 empty empty 1 14 19 46 0 1 0 0;
#X obj 123 33 vradio 20 1 1 3 empty empty empty 0 -8 0 10 #191919 #e1e1e1 #e1e1e1 0;
#X text 90 32 sine;
#X text 91 53 saw;
#X text 71 74 triangle;
#X obj 216 33 vradio 20 1 1 3 empty empty empty 0 -8 0 10 #191919 #e1e1e1 #e1e1e1 1;
#X text 237 32 sine;
#X text 238 53 saw;
#X text 238 74 triangle;
#X obj 74 105 hsl 165 18 0 1 0 0 empty empty change\ rate 2 8 0 10 #191919 #e1e1e1 #e1e1e1 0 1;
#X text 148 12 wave mix;
#X floatatom 246 105 7 0 0 0 - - - 12;
#X floatatom 8 144 5 10 210 2 attack \$0-attackRand - 12;
#X floatatom 51 144 5 10 210 2 decay \$0-decayRand - 12;
#X floatatom 94 144 5 0 100 2 sustain \$0-sustainRand - 12;
#X floatatom 137 144 5 10 510 2 release \$0-releaseRand - 12;
#X obj 186 139 tgl 29 0 empty empty rand\ adsr -8 -8 0 10 #191919 #e1e1e1 #e1e1e1 0 1;
#X floatatom 8 203 5 0 100 2 ws\ peak \$0-wsPeakRand - 12;
#X floatatom 64 203 5 10 10000 2 ws\ attack \$0-wsAttackRand - 12;
#X floatatom 8 240 5 500 10000 2 ws\ decay \$0-wsDecayRand - 12;
#X floatatom 64 240 5 10 100 2 ws\ sustain \$0-wsSustainRand - 12;
#X obj 136 210 tgl 21 0 empty empty rand\ ws\ env -15 -8 0 10 #191919 #e1e1e1 #e1e1e1 0 1;
#X obj 136 247 tgl 21 0 empty empty rand\ ws\ peak -16 -8 0 10 #191919 #e1e1e1 #e1e1e1 0 1;
#X text 8 172 WAVESHAPE CONTROL;
#X obj 17 22 vradio 20 1 0 2 empty empty empty 0 -8 0 10 #191919 #e1e1e1 #e1e1e1 0;
#X text 41 21 mono;
#X text 41 43 poly;
#X obj -255 374 loadbang;
#X obj -255 400 f \$0;
#X obj 488 601 diceTone-origin;
#X obj -43 -37 inlet;
#X obj -80 264 spigot;
#X msg -55 236 0;
#X msg -29 236 1;
#X obj -207 264 spigot;
#X msg -156 236 0;
#X msg -130 236 1;
#X obj -89 157 sel 0 1;
#X obj -207 290 mono;
#X obj -207 316 pack;
#X obj -80 316 pack f f f;
#X obj -80 290 poly 4 1;
#X msg -99 236 stop;
#X msg -202 236 flush;
#X obj -59 186 t b b;
#X obj -115 186 t b b;
#X obj -151 -24 r notes;
#X obj 8 318 knob 49 0 1 0 0 empty empty #191919 #696969 #E1E1E1 1 0 0 0 1 270 0 0 0 empty empty 1 14 13 38 0 1 0 0;
#X text 8 276 FILTER;
#X text 8 298 filter mix;
#X obj 83 318 hsl 128 17 0.11 1 0 0 empty empty low\ pass -2 -5 0 10 #191919 #e1e1e1 #e1e1e1 0 1;
#X obj 521 -70 loadbang;
#X msg 228 -58 1;
#X obj 83 350 hsl 128 17 0 1 0 1 empty empty feedback -2 -5 0 10 #191919 #e1e1e1 #e1e1e1 0 1;
#X obj 222 350 hsl 128 17 0 1 0 1 empty empty feedback\ delay -2 -5 0 10 #191919 #e1e1e1 #e1e1e1 3810 1;
#X msg 119 -58 0;
#X msg 185 -58 0.3;
#X obj 225 318 hsl 128 17 0 1 0 1 empty empty hi\ pass -2 -5 0 10 #191919 #e1e1e1 #e1e1e1 0 1;
#X text 400 6 LFO1;
#X obj 400 33 tgl 49 0 empty empty rand 17 7 0 10 #191919 #e1e1e1 #e1e1e1 0 1;
#X obj 406 96 hsl 76 8 0.2 1 0 0 empty empty change\ rate -2 -5 0 10 #191919 #e1e1e1 #e1e1e1 0 1;
#X obj 403 132 hsl 76 8 0 20 0 1 empty empty freq -2 -5 0 10 #191919 #e1e1e1 #e1e1e1 3750 1;
#X obj 403 167 hsl 76 8 0 1 0 1 empty empty amp -2 -5 0 10 #191919 #e1e1e1 #e1e1e1 3750 1;
#X msg 303 -34 0.2;
#X msg 400 -34 10;
#X msg 345 -34 0.5;
#X floatatom 402 105 6 0 0 0 - - - 8;
#X floatatom 402 173 6 0 0 0 - - - 8;
#X floatatom 402 139 6 0 0 0 - - - 8;
#X obj 488 33 vradio 20 1 0 6 empty empty wave 0 -8 0 10 #191919 #e1e1e1 #e1e1e1 0;
#X obj 563 33 vradio 20 1 0 8 empty empty modulate -10 -8 0 10 #191919 #e1e1e1 #e1e1e1 0;
#X text 509 32 off;
#X text 509 54 sine;
#X text 509 74 ramp;
#X text 509 95 saw;
#X text 509 115 triangle;
#X text 509 134 square;
#X text 584 32 wave mix;
#X text 584 54 filter mix;
#X text 583 74 low pass;
#X text 583 95 feedback;
#X text 583 115 delay;
#X text 583 134 hi pass;
#X text 583 154 pitch;
#X text 583 174 waveshape;
#X obj 404 226 tgl 49 0 empty empty rand 17 7 0 10 #191919 #e1e1e1 #e1e1e1 0 1;
#X obj 407 289 hsl 76 8 0.2 1 0 0 empty empty change\ rate -2 -5 0 10 #191919 #e1e1e1 #e1e1e1 0 1;
#X obj 407 325 hsl 76 8 0 20 0 1 empty empty freq -2 -5 0 10 #191919 #e1e1e1 #e1e1e1 3750 1;
#X obj 407 360 hsl 76 8 0 1 0 1 empty empty amp -2 -5 0 10 #191919 #e1e1e1 #e1e1e1 3750 1;
#X floatatom 406 298 6 0 0 0 - - - 8;
#X floatatom 406 366 6 0 0 0 - - - 8;
#X floatatom 406 332 6 0 0 0 - - - 8;
#X obj 492 226 vradio 20 1 0 6 empty empty wave 0 -8 0 10 #191919 #e1e1e1 #e1e1e1 0;
#X obj 567 226 vradio 20 1 0 8 empty empty modulate -10 -8 0 10 #191919 #e1e1e1 #e1e1e1 0;
#X text 513 225 off;
#X text 513 247 sine;
#X text 513 267 ramp;
#X text 513 288 saw;
#X text 513 308 triangle;
#X text 513 327 square;
#X text 588 225 wave mix;
#X text 588 247 filter mix;
#X text 587 267 low pass;
#X text 587 288 feedback;
#X text 587 308 delay;
#X text 587 327 hi pass;
#X text 587 347 pitch;
#X text 587 367 waveshape;
#X obj 675 39 tgl 49 0 empty empty rand 17 7 0 10 #191919 #e1e1e1 #e1e1e1 0 1;
#X obj 678 102 hsl 76 8 0.2 1 0 0 empty empty change\ rate -2 -5 0 10 #191919 #e1e1e1 #e1e1e1 0 1;
#X obj 678 138 hsl 76 8 0 20 0 1 empty empty freq -2 -5 0 10 #191919 #e1e1e1 #e1e1e1 3750 1;
#X obj 678 173 hsl 76 8 0 1 0 1 empty empty amp -2 -5 0 10 #191919 #e1e1e1 #e1e1e1 3750 1;
#X floatatom 677 111 6 0 0 0 - - - 8;
#X floatatom 677 179 6 0 0 0 - - - 8;
#X floatatom 677 145 6 0 0 0 - - - 8;
#X obj 763 39 vradio 20 1 0 6 empty empty wave 0 -8 0 10 #191919 #e1e1e1 #e1e1e1 0;
#X obj 838 39 vradio 20 1 0 8 empty empty modulate -10 -8 0 10 #191919 #e1e1e1 #e1e1e1 0;
#X text 784 38 off;
#X text 784 60 sine;
#X text 784 80 ramp;
#X text 784 101 saw;
#X text 784 121 triangle;
#X text 784 140 square;
#X text 859 38 wave mix;
#X text 859 60 filter mix;
#X text 858 80 low pass;
#X text 858 101 feedback;
#X text 858 121 delay;
#X text 858 140 hi pass;
#X text 858 160 pitch;
#X text 858 180 waveshape;
#X obj 675 226 tgl 49 0 empty empty rand 17 7 0 10 #191919 #e1e1e1 #e1e1e1 0 1;
#X obj 678 289 hsl 76 8 0.2 1 0 0 empty empty change\ rate -2 -5 0 10 #191919 #e1e1e1 #e1e1e1 0 1;
#X obj 678 325 hsl 76 8 0 20 0 1 empty empty freq -2 -5 0 10 #191919 #e1e1e1 #e1e1e1 3750 1;
#X obj 678 360 hsl 76 8 0 1 0 1 empty empty amp -2 -5 0 10 #191919 #e1e1e1 #e1e1e1 3750 1;
#X floatatom 677 298 6 0 0 0 - - - 8;
#X floatatom 677 366 6 0 0 0 - - - 8;
#X floatatom 677 332 6 0 0 0 - - - 8;
#X obj 763 226 vradio 20 1 0 6 empty empty wave 0 -8 0 10 #191919 #e1e1e1 #e1e1e1 0;
#X obj 838 226 vradio 20 1 0 8 empty empty modulate -10 -8 0 10 #191919 #e1e1e1 #e1e1e1 0;
#X text 784 225 off;
#X text 784 247 sine;
#X text 784 267 ramp;
#X text 784 288 saw;
#X text 784 308 triangle;
#X text 784 327 square;
#X text 859 225 wave mix;
#X text 859 247 filter mix;
#X text 858 267 low pass;
#X text 858 288 feedback;
#X text 858 308 delay;
#X text 858 327 hi pass;
#X text 858 347 pitch;
#X text 858 367 waveshape;
#X text 404 199 LFO2;
#X text 675 12 LFO3;
#X text 675 199 LFO4;
#X obj -300 399 bng 25 250 50 0 empty empty empty 17 7 0 10 #191919 #e1e1e1 #e1e1e1;
#X obj 8 388 vu 19 80 empty L -1 -8 0 10 #404040 #e1e1e1 1 0;
#X obj 330 1288 *~;
#X obj 362 419 knob 34 -1 1 0 0 empty empty #191919 #696969 #E1E1E1 1 0 0 0 1 270 0 0 0 empty empty 2 12 8 24 0 1 0 0;
#X text 362 396 pan, f 4;
#X obj 439 1117 + 1;
#X obj 439 1143 / 2;
#X msg 439 1171 \$1 10;
#X obj 439 1197 line~;
#X obj 341 1183 *~ -1;
#X obj 341 1209 +~ 1;
#X obj 330 1239 *~;
#X obj 408 1239 *~;
#X text 486 1132 panning;
#X obj 408 1288 *~;
#N canvas 0 50 450 300 vu 0;
#X obj 710 374 env~ 1024;
#X obj 812 356 abs~;
#X obj 812 458 snapshot~;
#X obj 812 501 rmstodb;
#X obj 615 263 inlet~;
#X obj 812 533 - 100;
#X obj 710 532 - 100;
#X obj 890 334 expr 1000 / $f1;
#X floatatom 890 362 5 0 0 0 - - - 0;
#X obj 812 391 slop~ 0 0 0 0 1e+09;
#X text 933 363 hz;
#X obj 710 416 t f b;
#X obj 890 263 loadbang;
#X msg 890 289 300;
#X text 680 319 from pd example inside vu-help.pd;
#X msg 852 289 0;
#X obj 710 558 outlet;
#X obj 812 559 outlet;
#X connect 0 0 11 0;
#X connect 1 0 9 0;
#X connect 2 0 3 0;
#X connect 3 0 5 0;
#X connect 4 0 0 0;
#X connect 4 0 1 0;
#X connect 5 0 17 0;
#X connect 6 0 16 0;
#X connect 7 0 8 0;
#X connect 8 0 9 3;
#X connect 9 0 2 0;
#X connect 11 0 6 0;
#X connect 11 1 2 0;
#X connect 12 0 13 0;
#X connect 12 0 15 0;
#X connect 13 0 7 0;
#X restore 355 1408 pd vu;
#N canvas 0 50 450 300 vu 0;
#X obj 710 374 env~ 1024;
#X obj 812 356 abs~;
#X obj 812 458 snapshot~;
#X obj 812 501 rmstodb;
#X obj 615 263 inlet~;
#X obj 812 533 - 100;
#X obj 710 532 - 100;
#X obj 890 334 expr 1000 / $f1;
#X floatatom 890 362 5 0 0 0 - - - 0;
#X obj 812 391 slop~ 0 0 0 0 1e+09;
#X text 933 363 hz;
#X obj 710 416 t f b;
#X obj 890 263 loadbang;
#X msg 890 289 300;
#X text 680 319 from pd example inside vu-help.pd;
#X msg 852 289 0;
#X obj 710 558 outlet;
#X obj 812 559 outlet;
#X connect 0 0 11 0;
#X connect 1 0 9 0;
#X connect 2 0 3 0;
#X connect 3 0 5 0;
#X connect 4 0 0 0;
#X connect 4 0 1 0;
#X connect 5 0 17 0;
#X connect 6 0 16 0;
#X connect 7 0 8 0;
#X connect 8 0 9 3;
#X connect 9 0 2 0;
#X connect 11 0 6 0;
#X connect 11 1 2 0;
#X connect 12 0 13 0;
#X connect 12 0 15 0;
#X connect 13 0 7 0;
#X restore 433 1408 pd vu;
#X obj 90 388 vu 19 80 empty R -1 -8 0 10 #404040 #e1e1e1 1 0;
#X msg 486 1239 \$1 10;
#X obj 486 1265 line~;
#X obj 330 1365 *~;
#X obj 417 1365 *~;
#X msg 550 1258 \$1 10;
#X obj 550 1284 line~;
#X obj 309 419 tgl 34 1 empty empty mute -1 -10 0 14 #191919 #e1e1e1 #e1e1e1 0 1;
#X obj 569 1223 sel 0 1;
#X msg 601 1249 0;
#X msg 569 1249 1;
#X obj 167 419 hsl 121 34 0 1 0 0 empty empty gain -2 -8 0 10 #191919 #e1e1e1 #e1e1e1 0 1;
#X obj 395 1048 *~;
#X obj 432 419 hradio 34 1 1 6 empty empty f-mod 0 -8 0 14 #191919 #e1e1e1 #e1e1e1 0;
#X text 439 448 off;
#X text 469 448 sine;
#X text 502 448 ramp;
#X text 539 448 saw;
#X text 569 448 trian;
#X text 604 448 sqr;
#X floatatom 637 423 4 0 0 0 - - - 24;
#X obj 304 1048 *~;
#N canvas 0 50 450 300 f-mod 0;
#X text 137 66 f-mod;
#X obj 181 97 hv.lfo sine;
#X obj 260 97 hv.lfo ramp;
#X obj 348 97 hv.lfo saw;
#X obj 433 97 hv.lfo triangle;
#X obj 535 97 hv.lfo square;
#X msg 725 97 0;
#X obj 181 127 sig~;
#X obj 260 127 sig~;
#X obj 348 127 sig~;
#X obj 433 127 sig~;
#X obj 535 127 sig~;
#X obj 181 286 *~;
#X obj 209 257 line~;
#X obj 260 286 *~;
#X obj 288 257 line~;
#X msg 209 199 0 10;
#X msg 288 199 0 10;
#X msg 220 224 1 10;
#X msg 299 224 1 10;
#X obj 348 286 *~;
#X obj 376 257 line~;
#X obj 427 286 *~;
#X obj 455 257 line~;
#X msg 376 199 0 10;
#X msg 455 199 0 10;
#X msg 387 224 1 10;
#X msg 466 224 1 10;
#X obj 535 286 *~;
#X obj 563 257 line~;
#X msg 563 199 0 10;
#X msg 574 224 1 10;
#X obj 666 156 t f b;
#X obj 666 182 sel 0 1 2 3 4 5;
#X msg 134 97 1;
#X obj 131 128 sig~;
#X obj 119 286 *~;
#X obj 131 257 line~;
#X msg 157 182 0 10;
#X msg 174 209 1 10;
#X obj 23 115 loadbang;
#X obj 112 428 outlet~;
#X obj 666 30 inlet;
#X obj 311 14 inlet;
#X connect 1 0 7 0;
#X connect 2 0 8 0;
#X connect 3 0 9 0;
#X connect 4 0 10 0;
#X connect 5 0 11 0;
#X connect 6 0 5 1;
#X connect 6 0 4 1;
#X connect 6 0 3 1;
#X connect 6 0 1 1;
#X connect 6 0 2 1;
#X connect 7 0 12 0;
#X connect 8 0 14 0;
#X connect 9 0 20 0;
#X connect 10 0 22 0;
#X connect 11 0 28 0;
#X connect 12 0 41 0;
#X connect 13 0 12 1;
#X connect 14 0 41 0;
#X connect 15 0 14 1;
#X connect 16 0 13 0;
#X connect 17 0 15 0;
#X connect 18 0 13 0;
#X connect 19 0 15 0;
#X connect 20 0 41 0;
#X connect 21 0 20 1;
#X connect 22 0 41 0;
#X connect 23 0 22 1;
#X connect 24 0 21 0;
#X connect 25 0 23 0;
#X connect 26 0 21 0;
#X connect 27 0 23 0;
#X connect 28 0 41 0;
#X connect 29 0 28 1;
#X connect 30 0 29 0;
#X connect 31 0 29 0;
#X connect 32 0 33 0;
#X connect 32 1 6 0;
#X connect 33 0 17 0;
#X connect 33 0 25 0;
#X connect 33 0 30 0;
#X connect 33 0 16 0;
#X connect 33 0 24 0;
#X connect 33 0 39 0;
#X connect 33 1 30 0;
#X connect 33 1 25 0;
#X connect 33 1 24 0;
#X connect 33 1 17 0;
#X connect 33 1 18 0;
#X connect 33 1 38 0;
#X connect 33 2 30 0;
#X connect 33 2 25 0;
#X connect 33 2 24 0;
#X connect 33 2 16 0;
#X connect 33 2 19 0;
#X connect 33 2 38 0;
#X connect 33 3 30 0;
#X connect 33 3 25 0;
#X connect 33 3 26 0;
#X connect 33 3 16 0;
#X connect 33 3 17 0;
#X connect 33 3 38 0;
#X connect 33 4 30 0;
#X connect 33 4 16 0;
#X connect 33 4 17 0;
#X connect 33 4 24 0;
#X connect 33 4 27 0;
#X connect 33 4 38 0;
#X connect 33 5 16 0;
#X connect 33 5 17 0;
#X connect 33 5 24 0;
#X connect 33 5 25 0;
#X connect 33 5 31 0;
#X connect 33 5 38 0;
#X connect 34 0 35 0;
#X connect 35 0 36 0;
#X connect 36 0 41 0;
#X connect 37 0 36 1;
#X connect 38 0 37 0;
#X connect 39 0 37 0;
#X connect 40 0 34 0;
#X connect 42 0 5 0;
#X connect 42 0 4 0;
#X connect 42 0 3 0;
#X connect 42 0 2 0;
#X connect 42 0 1 0;
#X connect 43 0 32 0;
#X restore 304 996 pd f-mod;
#X obj 330 1459 outlet~;
#X obj 417 1459 outlet~;
#X msg 102 726 all \$1;
#X msg 148 726 all \$1;
#X msg 194 726 all \$1;
#X msg 240 726 all \$1;
#X msg 286 726 all \$1;
#X msg 332 726 all \$1;
#X msg 378 726 all \$1;
#X msg 424 726 all \$1;
#X msg 470 726 all \$1;
#X msg 1167 772 all \$1;
#X msg 1213 772 all \$1;
#X msg 1259 772 all \$1;
#X msg 1305 772 all \$1;
#X msg 1351 772 all \$1;
#X msg 1397 772 all \$1;
#X msg 1443 772 all \$1;
#X msg 1489 772 all \$1;
#X msg 1535 772 all \$1;
#X msg 1581 772 all \$1;
#X msg 516 726 all \$1;
#X msg 562 726 all \$1;
#X msg 608 726 all \$1;
#X msg 654 726 all \$1;
#X msg 702 726 all \$1;
#X msg 748 726 all \$1;
#X msg 794 726 all \$1;
#X msg 840 726 all \$1;
#X msg 886 726 all \$1;
#X msg 932 726 all \$1;
#X msg 1627 772 all \$1;
#X msg 1673 772 all \$1;
#X msg 1719 772 all \$1;
#X msg 1765 772 all \$1;
#X msg 1811 772 all \$1;
#X msg 1857 772 all \$1;
#X msg 1903 772 all \$1;
#X msg 1949 772 all \$1;
#X msg 1995 772 all \$1;
#X msg 2041 772 all \$1;
#X msg 2088 772 all \$1;
#X msg 2134 772 all \$1;
#X msg 2180 772 all \$1;
#X msg 980 726 all \$1;
#X msg 1026 726 all \$1;
#X msg 1072 726 all \$1;
#X msg 1123 772 all \$1;
#X obj 1009 881 clone -s 1 diceTone-origin 4;
#X connect 1 0 31 12;
#X connect 1 0 222 0;
#X connect 2 0 31 2;
#X connect 2 0 202 0;
#X connect 3 0 31 3;
#X connect 3 0 203 0;
#X connect 7 0 31 4;
#X connect 7 0 204 0;
#X connect 11 0 31 5;
#X connect 11 0 13 0;
#X connect 11 0 205 0;
#X connect 14 0 31 14;
#X connect 14 0 224 0;
#X connect 15 0 31 15;
#X connect 15 0 225 0;
#X connect 16 0 31 16;
#X connect 16 0 226 0;
#X connect 17 0 31 17;
#X connect 17 0 227 0;
#X connect 18 0 31 13;
#X connect 18 0 223 0;
#X connect 19 0 31 8;
#X connect 19 0 208 0;
#X connect 20 0 31 9;
#X connect 20 0 209 0;
#X connect 21 0 31 10;
#X connect 21 0 220 0;
#X connect 22 0 31 11;
#X connect 22 0 221 0;
#X connect 23 0 31 6;
#X connect 23 0 206 0;
#X connect 24 0 31 7;
#X connect 24 0 207 0;
#X connect 26 0 39 0;
#X connect 29 0 30 0;
#X connect 30 0 31 1;
#X connect 30 0 201 0;
#X connect 31 0 188 0;
#X connect 31 0 197 0;
#X connect 32 0 36 0;
#X connect 32 0 33 0;
#X connect 33 0 43 0;
#X connect 34 0 33 1;
#X connect 35 0 33 1;
#X connect 36 0 40 0;
#X connect 37 0 36 1;
#X connect 38 0 36 1;
#X connect 39 0 47 0;
#X connect 39 1 46 0;
#X connect 40 0 41 0;
#X connect 40 1 41 1;
#X connect 41 0 31 0;
#X connect 42 0 247 0;
#X connect 43 0 42 0;
#X connect 43 1 42 1;
#X connect 43 2 42 2;
#X connect 44 0 43 0;
#X connect 45 0 40 0;
#X connect 46 0 45 0;
#X connect 46 1 35 0;
#X connect 46 1 37 0;
#X connect 47 0 44 0;
#X connect 47 1 38 0;
#X connect 47 1 34 0;
#X connect 48 0 36 0;
#X connect 48 0 33 0;
#X connect 49 0 31 18;
#X connect 49 0 228 0;
#X connect 52 0 31 19;
#X connect 52 0 229 0;
#X connect 53 0 54 0;
#X connect 53 0 58 0;
#X connect 53 0 65 0;
#X connect 53 0 66 0;
#X connect 53 0 67 0;
#X connect 53 0 57 0;
#X connect 54 0 52 0;
#X connect 54 0 7 0;
#X connect 55 0 31 20;
#X connect 55 0 243 0;
#X connect 56 0 31 21;
#X connect 56 0 244 0;
#X connect 57 0 55 0;
#X connect 57 0 3 0;
#X connect 57 0 26 0;
#X connect 57 0 189 0;
#X connect 57 0 59 0;
#X connect 58 0 56 0;
#X connect 59 0 31 22;
#X connect 59 0 245 0;
#X connect 61 0 31 23;
#X connect 61 0 246 0;
#X connect 62 0 68 0;
#X connect 63 0 70 0;
#X connect 64 0 69 0;
#X connect 65 0 88 0;
#X connect 65 0 111 0;
#X connect 65 0 62 0;
#X connect 65 0 134 0;
#X connect 65 0 11 0;
#X connect 66 0 63 0;
#X connect 66 0 89 0;
#X connect 66 0 112 0;
#X connect 66 0 135 0;
#X connect 67 0 64 0;
#X connect 67 0 90 0;
#X connect 67 0 113 0;
#X connect 67 0 136 0;
#X connect 68 0 31 24;
#X connect 68 0 210 0;
#X connect 69 0 31 26;
#X connect 69 0 212 0;
#X connect 70 0 31 25;
#X connect 70 0 211 0;
#X connect 71 0 31 27;
#X connect 71 0 213 0;
#X connect 72 0 31 28;
#X connect 72 0 214 0;
#X connect 87 0 31 29;
#X connect 87 0 215 0;
#X connect 88 0 91 0;
#X connect 89 0 93 0;
#X connect 90 0 92 0;
#X connect 91 0 31 30;
#X connect 91 0 216 0;
#X connect 92 0 31 32;
#X connect 92 0 218 0;
#X connect 93 0 31 31;
#X connect 93 0 217 0;
#X connect 94 0 31 33;
#X connect 94 0 219 0;
#X connect 95 0 31 34;
#X connect 95 0 230 0;
#X connect 110 0 31 35;
#X connect 110 0 231 0;
#X connect 111 0 114 0;
#X connect 112 0 116 0;
#X connect 113 0 115 0;
#X connect 114 0 31 36;
#X connect 114 0 232 0;
#X connect 115 0 31 38;
#X connect 115 0 234 0;
#X connect 116 0 31 37;
#X connect 116 0 233 0;
#X connect 117 0 31 39;
#X connect 117 0 235 0;
#X connect 118 0 31 40;
#X connect 118 0 236 0;
#X connect 133 0 31 41;
#X connect 133 0 237 0;
#X connect 134 0 137 0;
#X connect 135 0 139 0;
#X connect 136 0 138 0;
#X connect 137 0 31 42;
#X connect 137 0 238 0;
#X connect 138 0 31 44;
#X connect 138 0 240 0;
#X connect 139 0 31 43;
#X connect 139 0 239 0;
#X connect 140 0 31 45;
#X connect 140 0 241 0;
#X connect 141 0 31 46;
#X connect 141 0 242 0;
#X connect 159 0 30 0;
#X connect 161 0 179 0;
#X connect 162 0 164 0;
#X connect 164 0 165 0;
#X connect 165 0 166 0;
#X connect 166 0 167 0;
#X connect 167 0 168 0;
#X connect 167 0 171 1;
#X connect 168 0 169 0;
#X connect 169 0 170 1;
#X connect 170 0 161 0;
#X connect 171 0 173 0;
#X connect 173 0 180 0;
#X connect 174 0 160 0;
#X connect 174 1 160 1;
#X connect 175 0 176 0;
#X connect 175 1 176 1;
#X connect 177 0 178 0;
#X connect 178 0 173 1;
#X connect 178 0 161 1;
#X connect 179 0 174 0;
#X connect 179 0 199 0;
#X connect 180 0 175 0;
#X connect 180 0 200 0;
#X connect 181 0 182 0;
#X connect 182 0 179 1;
#X connect 182 0 180 1;
#X connect 183 0 184 0;
#X connect 184 0 186 0;
#X connect 184 1 185 0;
#X connect 185 0 181 0;
#X connect 186 0 181 0;
#X connect 187 0 177 0;
#X connect 188 0 171 0;
#X connect 189 0 198 0;
#X connect 196 0 198 1;
#X connect 197 0 168 0;
#X connect 197 0 170 0;
#X connect 198 0 188 1;
#X connect 198 0 197 1;
#X connect 201 0 247 1;
#X connect 202 0 247 2;
#X connect 203 0 247 3;
#X connect 204 0 247 4;
#X connect 205 0 247 5;
#X connect 206 0 247 6;
#X connect 207 0 247 7;
#X connect 208 0 247 8;
#X connect 209 0 247 9;
#X connect 210 0 247 24;
#X connect 211 0 247 25;
#X connect 212 0 247 26;
#X connect 213 0 247 27;
#X connect 214 0 247 28;
#X connect 215 0 247 29;
#X connect 216 0 247 30;
#X connect 217 0 247 31;
#X connect 218 0 247 32;
#X connect 219 0 247 33;
#X connect 220 0 247 10;
#X connect 221 0 247 11;
#X connect 222 0 247 12;
#X connect 223 0 247 13;
#X connect 224 0 247 14;
#X connect 225 0 247 15;
#X connect 226 0 247 16;
#X connect 227 0 247 17;
#X connect 228 0 247 18;
#X connect 229 0 247 19;
#X connect 230 0 247 34;
#X connect 231 0 247 35;
#X connect 232 0 247 36;
#X connect 233 0 247 37;
#X connect 234 0 247 38;
#X connect 235 0 247 39;
#X connect 236 0 247 40;
#X connect 237 0 247 41;
#X connect 238 0 247 42;
#X connect 239 0 247 43;
#X connect 240 0 247 44;
#X connect 241 0 247 45;
#X connect 242 0 247 46;
#X connect 243 0 247 20;
#X connect 244 0 247 21;
#X connect 245 0 247 22;
#X connect 246 0 247 23;
#X connect 247 0 188 0;
#X connect 247 0 197 0;
#X coords 0 0 1 1 933 477 1 1 0;
