#N canvas 827 239 734 565 12;
#X obj 318 101 pow 2;
#X obj 318 156 * 10000;
#X text 177 12 TIMBRE;
#X text 794 12 ADSR;
#X text 1098 12 FILTER;
#X obj 1134 300 * 95;
#X obj 1134 326 + 1;
#X obj 1226 68 * 100;
#X text 1334 12 LFOS;
#X obj 1344 101 pow 2;
#X obj 1344 127 * 10000;
#X obj 1617 101 pow 2;
#X obj 1617 127 * 10000;
#X obj 1867 94 pow 2;
#X obj 1867 120 * 10000;
#X obj 2123 94 pow 2;
#X obj 2123 120 * 10000;
#X obj 1459 68 * 2;
#X obj 1730 68 * 2;
#X obj 1974 68 * 2;
#X obj 2189 94 * 2;
#X obj 318 127 + 0.04;
#X obj 1543 68 - 1;
#X obj 1808 68 - 1;
#X obj 2055 75 - 1;
#X obj 2241 172 - 1;
#X msg 177 96 \$1 10;
#X obj 177 122 line~;
#X obj 1134 378 line~;
#X obj 1098 94 line~;
#X msg 1134 352 \$1 10;
#X msg 1098 68 \$1 10;
#X obj 1114 229 line~;
#X msg 1114 203 \$1 10;
#X obj 1114 151 pow 2;
#X obj 1114 177 * 20000;
#X obj 1218 220 pow 3;
#X obj 1218 246 * 200;
#X obj 1218 299 line~;
#X msg 1218 273 \$1 10;
#X obj 1226 120 line~;
#X msg 1226 94 \$1 10;
#X text 440 12 WS ENVELOPE;
#X obj 177 151 s~ \$0-waveMix;
#X obj 197 224 s \$0-inputWave1;
#X obj 272 294 s \$0-inputWave2;
#X obj 318 182 s \$0-change-rate;
#X obj 440 71 s \$0-randWsEnv;
#X obj 466 101 s \$0-randWsPeak;
#X obj 561 71 s \$0-wsPeak;
#X obj 593 101 s \$0-wsAttack;
#X obj 660 71 s \$0-wsDecay;
#X obj 587 133 s \$0-wsSustain;
#X obj 177 44 inlet;
#X obj 220 44 inlet;
#X obj 272 44 inlet;
#X obj 318 44 inlet;
#X obj 440 39 inlet;
#X obj 488 39 inlet;
#X obj 533 39 inlet;
#X obj 577 39 inlet;
#X obj 614 39 inlet;
#X obj 660 39 inlet;
#X obj 707 39 inlet;
#X obj 697 101 s \$0-no-sens;
#X obj 960 42 inlet;
#X obj 916 42 inlet;
#X obj 874 42 inlet;
#X obj 833 42 inlet;
#X obj 794 42 inlet;
#X obj 794 101 s \$0-randEnv;
#X obj 806 151 s \$0-attack;
#X obj 895 151 s \$0-decay;
#X obj 903 101 s \$0-sus;
#X obj 979 101 r \$0-releaseRand;
#X obj 891 71 r \$0-sustainRand;
#X obj 951 125 r \$0-decayRand;
#X obj 833 125 r \$0-attackRand;
#X obj 1098 42 inlet;
#X obj 1142 42 inlet;
#X obj 1184 42 inlet;
#X obj 1226 42 inlet;
#X obj 1266 42 inlet;
#X obj 1098 120 s~ \$0-filterMix;
#X obj 1114 255 s~ \$0-lop4;
#X obj 1134 404 s~ \$0-fbk;
#X obj 1226 172 s~ \$0-fbkDel;
#X obj 1218 325 s~ \$0-fbkHip;
#X obj 1334 42 inlet;
#X obj 1376 42 inlet;
#X obj 1416 42 inlet;
#X obj 1459 42 inlet;
#X obj 1500 42 inlet;
#X obj 1543 42 inlet;
#X obj 1334 68 s \$0-lfoRand-1;
#X obj 1344 153 s \$0-lfoChangeRate-1;
#X obj 1356 188 s \$0-lfoFreq-1;
#X obj 1459 94 s \$0-lfoAmp-1;
#X obj 1500 120 s \$0-lfoWave-1;
#X obj 1500 144 s \$0-lfoRoute-1;
#X obj 1609 68 s \$0-lfoRand-2;
#X obj 1617 153 s \$0-lfoChangeRate-2;
#X obj 1633 188 s \$0-lfoFreq-2;
#X obj 1879 172 s \$0-lfoFreq-3;
#X obj 1867 146 s \$0-lfoChangeRate-3;
#X obj 1857 68 s \$0-lfoRand-3;
#X obj 2123 68 s \$0-lfoRand-4;
#X obj 2123 146 s \$0-lfoChangeRate-4;
#X obj 2133 172 s \$0-lfoFreq-4;
#X obj 2148 199 s \$0-lfoRoute-4;
#X obj 2234 94 s \$0-lfoWave-4;
#X obj 2189 120 s \$0-lfoAmp-4;
#X obj 1974 94 s \$0-lfoAmp-3;
#X obj 1986 120 s \$0-lfoWave-3;
#X obj 2015 153 s \$0-lfoRoute-3;
#X obj 1739 188 s \$0-lfoRoute-2;
#X obj 1747 94 s \$0-lfoWave-2;
#X obj 1730 120 s \$0-lfoAmp-2;
#X obj 1609 42 inlet;
#X obj 1648 42 inlet;
#X obj 1688 42 inlet;
#X obj 1730 42 inlet;
#X obj 1770 42 inlet;
#X obj 1808 42 inlet;
#X obj 2030 42 inlet;
#X obj 2071 42 inlet;
#X obj 2295 42 inlet;
#X obj 2333 42 inlet;
#X obj 2252 42 inlet;
#X obj 1986 42 inlet;
#X obj 1941 42 inlet;
#X obj 2164 42 inlet;
#X obj 2206 42 inlet;
#X obj 1900 42 inlet;
#X obj 1857 42 inlet;
#X obj 2123 42 inlet;
#X obj 22 44 inlet;
#X text 22 12 MISC;
#X text 13 65 notein;
#X obj 70 44 inlet;
#X obj 70 79 s \$0-arrayId;
#N canvas 0 50 450 300 syn 1;
#X obj 540 724 +~ 1;
#X obj 540 666 *~;
#X obj 590 594 *~;
#X obj 635 594 *~;
#X obj 700 1279 outlet~;
#X obj 539 749 *~ 15;
#N canvas 0 50 450 300 waveGen1 0;
#X obj 47 314 *~;
#X msg 69 247 1 20;
#X obj 47 364 outlet~;
#X obj 47 27 inlet~;
#X obj 163 113 hv.osc~ saw;
#X obj 47 113 hv.osc~ sine;
#X obj 161 314 *~;
#X msg 176 247 1 20;
#X msg 219 247 0 20;
#X obj 267 314 *~;
#X msg 287 247 1 20;
#X msg 335 247 0 20;
#X floatatom 183 183 5 0 0 0 - - - 12;
#X obj 183 206 sel 0 1 2;
#X obj 69 278 line~;
#X obj 176 278 line~;
#X obj 287 278 line~;
#X msg 115 247 0 20;
#X obj 296 113 phasor~;
#X obj 296 142 -~ 0.5;
#X obj 296 202 *~ 2;
#X obj 296 172 abs~;
#X text 296 89 triangle;
#X obj 183 155 r \$0-inputWave1;
#X connect 0 0 2 0;
#X connect 1 0 14 0;
#X connect 3 0 5 0;
#X connect 3 0 4 0;
#X connect 3 0 18 0;
#X connect 4 0 6 0;
#X connect 5 0 0 0;
#X connect 6 0 2 0;
#X connect 7 0 15 0;
#X connect 8 0 15 0;
#X connect 9 0 2 0;
#X connect 10 0 16 0;
#X connect 11 0 16 0;
#X connect 12 0 13 0;
#X connect 13 0 1 0;
#X connect 13 0 8 0;
#X connect 13 0 11 0;
#X connect 13 1 7 0;
#X connect 13 1 17 0;
#X connect 13 1 11 0;
#X connect 13 2 10 0;
#X connect 13 2 8 0;
#X connect 13 2 17 0;
#X connect 14 0 0 1;
#X connect 15 0 6 1;
#X connect 16 0 9 1;
#X connect 17 0 14 0;
#X connect 18 0 19 0;
#X connect 19 0 21 0;
#X connect 20 0 9 0;
#X connect 21 0 20 0;
#X connect 23 0 12 0;
#X restore 590 497 pd waveGen1;
#N canvas 0 50 450 300 waveGen2 0;
#X obj 47 314 *~;
#X msg 69 247 1 20;
#X obj 47 364 outlet~;
#X obj 47 27 inlet~;
#X obj 163 113 hv.osc~ saw;
#X obj 47 113 hv.osc~ sine;
#X obj 161 314 *~;
#X msg 176 247 1 20;
#X msg 219 247 0 20;
#X obj 267 314 *~;
#X msg 287 247 1 20;
#X msg 335 247 0 20;
#X floatatom 183 183 5 0 0 0 - - - 12;
#X obj 183 206 sel 0 1 2;
#X obj 69 278 line~;
#X obj 176 278 line~;
#X obj 287 278 line~;
#X msg 115 247 0 20;
#X obj 296 113 phasor~;
#X obj 296 142 -~ 0.5;
#X obj 296 202 *~ 2;
#X obj 296 172 abs~;
#X text 296 89 triangle;
#X obj 183 155 r \$0-inputWave2;
#X connect 0 0 2 0;
#X connect 1 0 14 0;
#X connect 3 0 5 0;
#X connect 3 0 4 0;
#X connect 3 0 18 0;
#X connect 4 0 6 0;
#X connect 5 0 0 0;
#X connect 6 0 2 0;
#X connect 7 0 15 0;
#X connect 8 0 15 0;
#X connect 9 0 2 0;
#X connect 10 0 16 0;
#X connect 11 0 16 0;
#X connect 12 0 13 0;
#X connect 13 0 1 0;
#X connect 13 0 8 0;
#X connect 13 0 11 0;
#X connect 13 1 7 0;
#X connect 13 1 17 0;
#X connect 13 1 11 0;
#X connect 13 2 10 0;
#X connect 13 2 8 0;
#X connect 13 2 17 0;
#X connect 14 0 0 1;
#X connect 15 0 6 1;
#X connect 16 0 9 1;
#X connect 17 0 14 0;
#X connect 18 0 19 0;
#X connect 19 0 21 0;
#X connect 20 0 9 0;
#X connect 21 0 20 0;
#X connect 23 0 12 0;
#X restore 685 497 pd waveGen2;
#X text 600 919 antialliasing filter;
#X obj 486 505 +~;
#X obj 490 536 *~ -1;
#X obj 490 562 +~ 1;
#X obj 700 1126 *~;
#X obj 511 1081 hv.hip~;
#X obj 511 1046 hv.hip~;
#X obj 511 1011 hv.hip~;
#X obj 511 976 hv.hip~;
#X obj 490 588 clip~ 0 1;
#X obj 623 545 clip~ 0 1;
#N canvas 0 50 450 300 myEnvelope 0;
#X obj 160 601 delay;
#X obj 91 622 pack;
#X obj 160 638 f;
#X obj 357 316 + 10;
#X obj 454 314 + 10;
#X obj 666 314 + 10;
#X obj 405 127 spigot;
#X obj 91 571 t f b;
#X obj 118 597 f;
#X obj 413 547 sel 0;
#X obj 267 498 f;
#X obj 316 505 t b f;
#X obj 90 548 spigot;
#X obj 316 481 spigot;
#X obj 316 455 t f f;
#X obj 201 609 spigot;
#X obj 201 583 t f f;
#X obj 372 65 spigot;
#X obj 372 39 t f f;
#X obj 512 194 + 5;
#X obj 512 161 random 15;
#X obj 545 314 + 50;
#X text 383 458 APPLIES RANDOM CHANGES TO ADSR;
#X obj 400 161 t b b b b b;
#X obj 201 736 spigot;
#X obj 285 673 loadbang;
#X msg 285 699 1;
#X obj 413 573 t b b b;
#X msg 469 601 0;
#X msg 395 689 stop;
#X obj 455 682 f;
#X msg 455 717 0 \$1;
#X obj 90 522 t f f b;
#X obj 90 488 sel 0;
#X obj 201 556 sel 0;
#X obj 267 530 *;
#X obj 267 556 / 100;
#X obj 357 290 hv.drunk 200;
#X obj 454 289 hv.drunk 200;
#X obj 545 288 hv.drunk 45;
#X obj 666 288 hv.drunk 500;
#X obj 201 796 line~;
#X obj 260 800 line;
#X obj 275 647 pack;
#X obj 267 618 f;
#X obj 160 664 t b f;
#X obj 201 913 outlet~;
#X obj 372 91 bang;
#X obj 201 822 pow~ 2;
#X obj 260 826 pow 2;
#X obj 372 10 r \$0-peak;
#X obj 428 59 r \$0-randEnv;
#X obj 90 459 r \$0-peak;
#X obj 133 571 r \$0-attack;
#X obj 178 505 r \$0-attack;
#X obj 201 530 r \$0-peak;
#X obj 316 405 r \$0-peak;
#X obj 267 437 r \$0-sus;
#X obj 316 618 r \$0-decay;
#X obj 413 491 r \$0-peak;
#X obj 493 491 r \$0-rel;
#X obj 260 866 s \$0-comp-adsr;
#X msg 980 314 65;
#X obj 653 408 s;
#X obj 560 408 s;
#X obj 455 408 s;
#X obj 346 377 s;
#X msg 357 349 symbol \$1-attackRand;
#X msg 466 377 symbol \$1-decayRand;
#X msg 571 349 symbol \$1-sustainRand;
#X msg 664 377 symbol \$1-releaseRand;
#X msg 909 314 10;
#X msg 945 314 10;
#X msg 1019 314 500;
#X obj 949 236 r \$0-arrayId;
#X obj 949 266 t b f;
#X connect 0 0 2 0;
#X connect 1 0 41 0;
#X connect 1 0 42 0;
#X connect 2 0 45 0;
#X connect 3 0 66 0;
#X connect 4 0 65 0;
#X connect 5 0 63 0;
#X connect 6 0 23 0;
#X connect 7 0 1 0;
#X connect 7 1 8 0;
#X connect 7 1 0 0;
#X connect 8 0 1 1;
#X connect 9 0 27 0;
#X connect 10 0 35 0;
#X connect 11 0 10 0;
#X connect 11 1 35 1;
#X connect 12 0 7 0;
#X connect 13 0 11 0;
#X connect 14 0 13 0;
#X connect 14 1 13 1;
#X connect 15 0 2 1;
#X connect 16 0 15 0;
#X connect 16 1 15 1;
#X connect 17 0 47 0;
#X connect 18 0 17 0;
#X connect 18 1 17 1;
#X connect 19 0 37 2;
#X connect 19 0 38 2;
#X connect 19 0 39 2;
#X connect 19 0 40 2;
#X connect 20 0 19 0;
#X connect 21 0 64 0;
#X connect 23 0 37 0;
#X connect 23 1 38 0;
#X connect 23 2 39 0;
#X connect 23 3 40 0;
#X connect 23 4 20 0;
#X connect 24 0 41 0;
#X connect 24 0 42 0;
#X connect 25 0 26 0;
#X connect 26 0 24 1;
#X connect 27 0 30 0;
#X connect 27 1 29 0;
#X connect 27 2 28 0;
#X connect 28 0 24 1;
#X connect 29 0 42 0;
#X connect 30 0 31 0;
#X connect 31 0 41 0;
#X connect 31 0 42 0;
#X connect 32 0 12 0;
#X connect 32 1 12 1;
#X connect 32 2 26 0;
#X connect 32 2 29 0;
#X connect 33 1 32 0;
#X connect 34 1 16 0;
#X connect 35 0 36 0;
#X connect 36 0 44 1;
#X connect 37 0 3 0;
#X connect 38 0 4 0;
#X connect 39 0 21 0;
#X connect 40 0 5 0;
#X connect 41 0 48 0;
#X connect 42 0 49 0;
#X connect 43 0 24 0;
#X connect 44 0 43 0;
#X connect 45 0 44 0;
#X connect 45 1 24 0;
#X connect 47 0 6 0;
#X connect 48 0 46 0;
#X connect 49 0 61 0;
#X connect 50 0 18 0;
#X connect 51 0 6 1;
#X connect 52 0 33 0;
#X connect 53 0 8 1;
#X connect 54 0 0 1;
#X connect 55 0 34 0;
#X connect 56 0 14 0;
#X connect 57 0 10 1;
#X connect 58 0 43 1;
#X connect 59 0 9 0;
#X connect 60 0 30 1;
#X connect 62 0 64 0;
#X connect 67 0 66 1;
#X connect 68 0 65 1;
#X connect 69 0 64 1;
#X connect 70 0 63 1;
#X connect 71 0 66 0;
#X connect 72 0 65 0;
#X connect 73 0 63 0;
#X connect 74 0 75 0;
#X connect 75 0 71 0;
#X connect 75 0 72 0;
#X connect 75 0 62 0;
#X connect 75 0 73 0;
#X connect 75 1 70 0;
#X connect 75 1 69 0;
#X connect 75 1 68 0;
#X connect 75 1 67 0;
#X restore 733 1081 pd myEnvelope;
#X text 916 266 Controls the envelope of the waveshaping modulation;
#X obj 972 489 pack;
#X obj 1025 399 del;
#X obj 905 399 f;
#X obj 994 366 t f f;
#X obj 1071 489 pack;
#X obj 1071 431 f;
#X obj 1117 365 / 100;
#X obj 1071 457 *;
#X obj 861 330 sel 0;
#X obj 922 572 line~;
#X obj 972 515 spigot;
#X obj 876 366 t b f;
#X msg 863 399 0;
#X obj 802 935 random 100;
#X obj 802 989 / 50;
#X obj 802 1014 - 1;
#X obj 907 1212 line;
#X obj 920 1077 delay;
#X obj 920 1048 t b f;
#X obj 802 883 t b b b;
#X obj 921 1111 spigot;
#X obj 1013 958 t f f;
#X obj 907 1162 pack f f f;
#X msg 907 1187 \$1 \, \$2 \$3;
#X obj 908 935 random 500;
#X obj 907 981 + 100;
#X obj 885 882 / 10;
#X obj 1013 934 random 25;
#X text 751 786 CREATES RANDOM CHANGES TO SHAPING FUNCTION;
#X msg 980 1087 1;
#X obj 1177 528 + 10;
#X obj 1177 413 spigot;
#X obj 1382 330 spigot;
#X obj 1382 304 t f f;
#X obj 1599 447 + 5;
#X obj 1382 413 spigot;
#X obj 1177 502 hv.drunk 9980;
#X obj 1286 502 hv.drunk 9500;
#X obj 1286 527 + 500;
#X obj 1391 528 + 10;
#X obj 1391 502 hv.drunk 90;
#X obj 1177 447 t b b b;
#X obj 1382 356 t b b b;
#X obj 1554 447 * 15;
#X obj 1580 413 random 20;
#X text 1354 277 Randomizes it;
#X obj 1021 602 loadbang;
#X obj 848 571 sel 0 1;
#X obj 742 694 *~;
#X obj 782 660 line~;
#X msg 796 629 1 10;
#X msg 782 602 0 10;
#X obj 928 694 *~;
#X obj 968 660 line~;
#X msg 982 629 1 10;
#X msg 968 602 0 10;
#X obj 725 577 clip~ 0.1 1;
#X obj 562 259 / 127;
#X msg 512 259 \$1 10;
#X obj 512 294 line~;
#X obj 512 322 +~;
#X obj 512 348 mtof~;
#X obj 590 356 -~ 5;
#X obj 922 598 pow~ 2;
#X obj 710 207 sel 0 1;
#X obj 641 250 spigot;
#X msg 693 259 0;
#X msg 693 231 1;
#X obj 609 181 loadbang;
#X obj 720 287 spigot;
#X msg 772 296 0;
#X msg 772 268 1;
#X msg 725 399 1;
#X obj 722 366 bng 25 250 50 0 empty empty empty 17 7 0 10 #191919 #e1e1e1 #e1e1e1;
#X msg 693 399 0;
#X obj 720 313 sel 0;
#X obj 789 406 sqrt;
#X obj 512 181 inlet;
#X obj 512 222 unpack;
#X msg 1204 760 set \$1-shapeFunction;
#X obj 710 181 r \$0-no-sens;
#X obj 802 465 s \$0-peak;
#X obj 590 382 s~ \$0-filterFreq;
#X obj 562 311 r~ \$0-lfoPitchMaster;
#X obj 486 432 r~ \$0-waveMix;
#X obj 512 457 r~ \$0-lfoWaveMixMaster;
#X obj 861 268 r \$0-peak;
#X obj 916 304 r \$0-wsPeak;
#X obj 1012 304 r \$0-wsAttack;
#X obj 1056 330 r \$0-wsSustain;
#X obj 1154 304 r \$0-wsDecay;
#X obj 1243 413 r \$0-randWsEnv;
#X obj 1441 413 r \$0-randWsPeak;
#X obj 725 551 r~ \$0-lfoWsMaster;
#X obj 848 545 r \$0-wsCtl;
#X obj 1204 685 r \$0-arrayId;
#X obj 605 970 r~ \$0-filterFreq;
#X obj 910 833 r \$0-change-rate;
#X obj 916 330 / 100;
#X msg 1758 425 30;
#X msg 1794 425 1000;
#X msg 1846 425 65;
#X msg 1885 425 100;
#X obj 1486 647 s;
#X obj 1393 647 s;
#X obj 1288 647 s;
#X obj 1179 647 s;
#X msg 1190 588 symbol \$1-wsAttackRand;
#X msg 1299 616 symbol \$1-wsDecayRand;
#X msg 1404 588 symbol \$1-wsSustainRand;
#X msg 1497 616 symbol \$1-wsPeakRand;
#X obj 1755 324 r \$0-arrayId;
#X obj 525 849 tabread~;
#X obj 1013 986 tabread;
#X obj 906 1263 tabwrite;
#X obj 1204 711 t f b;
#X obj 1755 350 t b f;
#X obj 1484 502 hv.drunk 50;
#X obj 1484 528 + 50;
#X obj 1484 554 abs;
#X connect 0 0 5 0;
#X connect 1 0 0 0;
#X connect 2 0 1 0;
#X connect 3 0 1 0;
#X connect 5 0 133 0;
#X connect 6 0 2 0;
#X connect 7 0 3 0;
#X connect 9 0 10 0;
#X connect 9 0 18 0;
#X connect 10 0 11 0;
#X connect 11 0 17 0;
#X connect 12 0 4 0;
#X connect 13 0 12 0;
#X connect 14 0 13 0;
#X connect 15 0 14 0;
#X connect 16 0 15 0;
#X connect 17 0 2 1;
#X connect 18 0 3 1;
#X connect 19 0 12 1;
#X connect 21 0 31 0;
#X connect 22 0 26 0;
#X connect 23 0 21 0;
#X connect 24 0 21 1;
#X connect 24 1 22 1;
#X connect 25 0 31 0;
#X connect 26 0 28 0;
#X connect 27 0 28 1;
#X connect 28 0 25 0;
#X connect 29 0 33 0;
#X connect 29 1 32 0;
#X connect 30 0 84 0;
#X connect 31 0 30 0;
#X connect 32 0 23 0;
#X connect 32 0 22 0;
#X connect 32 1 31 1;
#X connect 33 0 31 1;
#X connect 34 0 35 0;
#X connect 35 0 36 0;
#X connect 36 0 43 1;
#X connect 37 0 135 0;
#X connect 38 0 41 0;
#X connect 39 0 38 0;
#X connect 39 1 38 1;
#X connect 40 0 34 0;
#X connect 40 1 45 0;
#X connect 40 2 48 0;
#X connect 41 0 40 0;
#X connect 42 0 134 0;
#X connect 42 1 135 1;
#X connect 43 0 44 0;
#X connect 44 0 37 0;
#X connect 45 0 46 0;
#X connect 46 0 39 0;
#X connect 46 0 43 2;
#X connect 47 0 46 1;
#X connect 48 0 42 0;
#X connect 50 0 41 1;
#X connect 51 0 127 0;
#X connect 52 0 62 0;
#X connect 53 0 63 0;
#X connect 54 0 53 0;
#X connect 54 1 53 1;
#X connect 55 0 61 2;
#X connect 56 0 138 0;
#X connect 57 0 51 0;
#X connect 58 0 59 0;
#X connect 59 0 126 0;
#X connect 60 0 125 0;
#X connect 61 0 60 0;
#X connect 62 0 57 0;
#X connect 62 1 58 0;
#X connect 62 2 61 0;
#X connect 63 0 52 0;
#X connect 63 1 56 0;
#X connect 63 2 65 0;
#X connect 64 0 58 2;
#X connect 64 0 57 2;
#X connect 64 0 138 2;
#X connect 65 0 64 0;
#X connect 65 0 55 0;
#X connect 67 0 75 0;
#X connect 68 0 71 0;
#X connect 68 0 76 0;
#X connect 68 1 75 0;
#X connect 68 1 72 0;
#X connect 69 0 1 1;
#X connect 70 0 69 1;
#X connect 71 0 70 0;
#X connect 72 0 70 0;
#X connect 73 0 1 1;
#X connect 74 0 73 1;
#X connect 75 0 74 0;
#X connect 76 0 74 0;
#X connect 77 0 69 0;
#X connect 78 0 86 0;
#X connect 78 0 90 0;
#X connect 79 0 80 0;
#X connect 80 0 81 0;
#X connect 81 0 82 0;
#X connect 82 0 6 0;
#X connect 82 0 7 0;
#X connect 82 0 83 0;
#X connect 83 0 103 0;
#X connect 84 0 73 0;
#X connect 85 0 88 0;
#X connect 85 0 91 0;
#X connect 85 1 92 0;
#X connect 85 1 87 0;
#X connect 86 0 97 0;
#X connect 87 0 86 1;
#X connect 88 0 86 1;
#X connect 89 0 88 0;
#X connect 90 0 96 0;
#X connect 91 0 90 1;
#X connect 92 0 90 1;
#X connect 93 0 102 0;
#X connect 94 0 93 0;
#X connect 95 0 102 0;
#X connect 96 0 95 0;
#X connect 96 1 94 0;
#X connect 97 0 102 0;
#X connect 98 0 99 0;
#X connect 99 0 79 0;
#X connect 99 1 78 0;
#X connect 100 0 133 0;
#X connect 100 0 134 0;
#X connect 100 0 135 0;
#X connect 101 0 85 0;
#X connect 104 0 81 1;
#X connect 105 0 9 0;
#X connect 106 0 9 1;
#X connect 107 0 29 0;
#X connect 107 0 54 0;
#X connect 108 0 119 0;
#X connect 109 0 24 0;
#X connect 110 0 27 0;
#X connect 111 0 25 1;
#X connect 112 0 52 1;
#X connect 113 0 56 1;
#X connect 114 0 77 0;
#X connect 115 0 68 0;
#X connect 116 0 136 0;
#X connect 117 0 16 1;
#X connect 117 0 15 1;
#X connect 117 0 14 1;
#X connect 117 0 13 1;
#X connect 118 0 45 1;
#X connect 118 0 47 0;
#X connect 119 0 26 1;
#X connect 119 0 23 1;
#X connect 120 0 127 0;
#X connect 121 0 126 0;
#X connect 122 0 125 0;
#X connect 123 0 124 0;
#X connect 128 0 127 1;
#X connect 129 0 126 1;
#X connect 130 0 125 1;
#X connect 131 0 124 1;
#X connect 132 0 137 0;
#X connect 133 0 16 0;
#X connect 134 0 43 0;
#X connect 136 0 100 0;
#X connect 136 1 50 0;
#X connect 136 1 40 0;
#X connect 137 0 123 0;
#X connect 137 0 122 0;
#X connect 137 0 121 0;
#X connect 137 0 120 0;
#X connect 137 1 131 0;
#X connect 137 1 129 0;
#X connect 137 1 128 0;
#X connect 137 1 130 0;
#X connect 138 0 139 0;
#X connect 139 0 140 0;
#X connect 140 0 124 0;
#X restore 120 519 pd syn;
#N canvas 0 50 450 300 naiveFilter 0;
#X obj 267 222 *~;
#X obj 71 903 outlet~;
#X obj 71 29 inlet~;
#X obj 71 753 *~;
#X obj 172 753 *~;
#X obj 71 805 *~ 1;
#X obj 71 843 *~ 0.5;
#X obj 402 199 +~;
#X obj 402 222 clip~ 0 99;
#X obj 324 222 /~ 100;
#X obj 342 441 +~;
#X obj 109 633 +~;
#X obj 109 686 *~ -1;
#X obj 109 712 +~ 1;
#X obj 267 413 hv.hip~;
#X obj 267 527 hv.lop~;
#X obj 267 501 hv.lop~;
#X obj 267 475 hv.lop~;
#X obj 267 449 hv.lop~;
#X obj 303 370 pow~ 2;
#X obj 303 342 +~;
#X obj 267 128 +~;
#X obj 267 75 r~ \$0-fbkDel;
#X obj 374 75 r~ \$0-lfoDelMaster;
#X obj 430 161 r~ \$0-fbk;
#X obj 507 161 r~ \$0-lfoFeedMaster;
#X obj 267 161 delread4~ \$0-naive 0;
#X obj 303 307 r~ \$0-fbkHip;
#X obj 413 307 r~ \$0-lfoHipMaster;
#X obj 413 399 r~ \$0-lfoLopMaster;
#X obj 324 399 r~ \$0-lop4;
#X obj 342 601 delwrite~ \$0-naive 1000;
#X obj 135 585 r~ \$0-lfoFilterMixMaster;
#X obj 109 560 r~ \$0-filterMix;
#X connect 0 0 14 0;
#X connect 2 0 3 0;
#X connect 2 0 14 0;
#X connect 3 0 5 0;
#X connect 4 0 5 0;
#X connect 5 0 6 0;
#X connect 6 0 1 0;
#X connect 7 0 8 0;
#X connect 8 0 9 0;
#X connect 9 0 0 1;
#X connect 10 0 15 1;
#X connect 10 0 16 1;
#X connect 10 0 17 1;
#X connect 10 0 18 1;
#X connect 11 0 4 1;
#X connect 11 0 12 0;
#X connect 12 0 13 0;
#X connect 13 0 3 1;
#X connect 14 0 18 0;
#X connect 15 0 4 0;
#X connect 15 0 31 0;
#X connect 16 0 15 0;
#X connect 17 0 16 0;
#X connect 18 0 17 0;
#X connect 19 0 14 1;
#X connect 20 0 19 0;
#X connect 21 0 26 0;
#X connect 22 0 21 0;
#X connect 23 0 21 1;
#X connect 24 0 7 0;
#X connect 25 0 7 1;
#X connect 26 0 0 0;
#X connect 27 0 20 0;
#X connect 28 0 20 1;
#X connect 29 0 10 1;
#X connect 30 0 10 0;
#X connect 32 0 11 1;
#X connect 33 0 11 0;
#X restore 120 557 pd naiveFilter;
#N canvas 0 50 450 300 lfoMixer 0;
#X obj 21 58 +~;
#X obj 256 58 +~;
#X obj 492 66 +~;
#X obj 722 58 +~;
#X obj 947 58 +~;
#X obj 1120 58 +~;
#X obj 1292 58 +~;
#X obj 1471 58 +~;
#X obj 21 84 +~;
#X obj 492 92 +~;
#X obj 947 84 +~;
#X obj 1292 84 +~;
#X obj 699 316 +~;
#X obj 886 316 +~;
#X obj 699 342 +~;
#X obj 21 316 +~;
#X obj 185 316 +~;
#X obj 355 316 +~;
#X obj 522 316 +~;
#X obj 21 342 +~;
#X obj 355 342 +~;
#X obj 21 32 r~ \$0-lfoWaveMix-1;
#X obj 136 32 r~ \$0-lfoWaveMix-2;
#X obj 256 32 r~ \$0-lfoWaveMix-3;
#X obj 374 32 r~ \$0-lfoWaveMix-4;
#X obj 492 32 r~ \$0-lfoFilterMix-1;
#X obj 604 32 r~ \$0-lfoFilterMix-2;
#X obj 722 32 r~ \$0-lfoFilterMix-3;
#X obj 834 32 r~ \$0-lfoFilterMix-4;
#X obj 947 32 r~ \$0-lfoLop-1;
#X obj 1036 32 r~ \$0-lfoLop-2;
#X obj 1120 32 r~ \$0-lfoLop-3;
#X obj 1208 32 r~ \$0-lfoLop-4;
#X obj 1292 32 r~ \$0-lfoFeed-1;
#X obj 1378 32 r~ \$0-lfoFeed-2;
#X obj 1471 32 r~ \$0-lfoFeed-3;
#X obj 1565 32 r~ \$0-lfoFeed-4;
#X obj 1292 118 s~ \$0-lfoFeedMaster;
#X obj 947 118 s~ \$0-lfoLopMaster;
#X obj 492 139 s~ \$0-lfoFilterMixMaster;
#X obj 21 118 s~ \$0-lfoWaveMixMaster;
#X obj 21 376 s~ \$0-lfoDelMaster;
#X obj 355 376 s~ \$0-lfoHipMaster;
#X obj 699 376 s~ \$0-lfoPitchMaster;
#X obj 1073 376 s~ \$0-lfoWsMaster;
#X obj 1073 290 r~ \$0-lfoWs-1;
#X obj 978 290 r~ \$0-lfoPitch-4;
#X obj 886 290 r~ \$0-lfoPitch-3;
#X obj 791 290 r~ \$0-lfoPitch-2;
#X obj 699 290 r~ \$0-lfoPitch-1;
#X obj 604 290 r~ \$0-lfoHip-4;
#X obj 522 290 r~ \$0-lfoHip-3;
#X obj 436 290 r~ \$0-lfoHip-2;
#X obj 355 290 r~ \$0-lfoHip-1;
#X obj 265 290 r~ \$0-lfoDel-4;
#X obj 185 290 r~ \$0-lfoDel-3;
#X obj 99 290 r~ \$0-lfoDel-2;
#X obj 21 290 r~ \$0-lfoDel-1;
#X connect 0 0 8 0;
#X connect 1 0 8 1;
#X connect 2 0 9 0;
#X connect 3 0 9 1;
#X connect 4 0 10 0;
#X connect 5 0 10 1;
#X connect 6 0 11 0;
#X connect 7 0 11 1;
#X connect 8 0 40 0;
#X connect 9 0 39 0;
#X connect 10 0 38 0;
#X connect 11 0 37 0;
#X connect 12 0 14 0;
#X connect 13 0 14 1;
#X connect 14 0 43 0;
#X connect 15 0 19 0;
#X connect 16 0 19 1;
#X connect 17 0 20 0;
#X connect 18 0 20 1;
#X connect 19 0 41 0;
#X connect 20 0 42 0;
#X connect 21 0 0 0;
#X connect 22 0 0 1;
#X connect 23 0 1 0;
#X connect 24 0 1 1;
#X connect 25 0 2 0;
#X connect 26 0 2 1;
#X connect 27 0 3 0;
#X connect 28 0 3 1;
#X connect 29 0 4 0;
#X connect 30 0 4 1;
#X connect 31 0 5 0;
#X connect 32 0 5 1;
#X connect 33 0 6 0;
#X connect 34 0 6 1;
#X connect 35 0 7 0;
#X connect 36 0 7 1;
#X connect 45 0 44 0;
#X connect 46 0 13 1;
#X connect 47 0 13 0;
#X connect 48 0 12 1;
#X connect 49 0 12 0;
#X connect 50 0 18 1;
#X connect 51 0 18 0;
#X connect 52 0 17 1;
#X connect 53 0 17 0;
#X connect 54 0 16 1;
#X connect 55 0 16 0;
#X connect 56 0 15 1;
#X connect 57 0 15 0;
#X restore 403 557 pd lfoMixer;
#N canvas 0 50 450 300 LFO1 0;
#X obj 1008 342 delay;
#X obj 1008 313 t b f;
#X obj 1009 376 spigot;
#X obj 996 200 random 500;
#X obj 995 246 + 100;
#X obj 996 148 / 10;
#X msg 1068 352 1;
#X obj 890 200 random 2000;
#X obj 890 232 / 100;
#X obj 890 66 sel 0 1;
#X msg 1068 324 0;
#X obj 890 429 pack f f;
#X obj 928 93 t b b;
#X obj 840 237 f;
#X obj 1304 329 delay;
#X obj 1304 300 t b f;
#X obj 1305 363 spigot;
#X obj 1292 187 random 500;
#X obj 1291 233 + 100;
#X obj 1292 135 / 10;
#X msg 1364 339 1;
#X obj 1186 187 random 2000;
#X obj 1186 53 sel 0 1;
#X msg 1364 311 0;
#X obj 1186 416 pack f f;
#X obj 1224 80 t b b;
#X obj 1186 219 / 1000;
#X obj 1142 246 f;
#X obj 890 148 t b b;
#X obj 1186 135 t b b;
#X obj 28 106 hv.lfo sine;
#X obj 107 106 hv.lfo ramp;
#X obj 195 106 hv.lfo saw;
#X obj 280 106 hv.lfo triangle;
#X obj 382 106 hv.lfo square;
#X msg 499 14 0;
#X obj 28 132 * -1;
#X obj 28 158 + 1;
#X obj 28 184 sig~;
#X obj 107 184 sig~;
#X obj 195 184 sig~;
#X obj 280 184 sig~;
#X obj 382 184 sig~;
#X obj 28 315 *~;
#X obj 56 286 line~;
#X obj 107 315 *~;
#X obj 135 286 line~;
#X msg 56 228 0 10;
#X msg 135 228 0 10;
#X msg 67 253 1 10;
#X msg 146 253 1 10;
#X obj 195 315 *~;
#X obj 223 286 line~;
#X obj 274 315 *~;
#X obj 302 286 line~;
#X msg 223 228 0 10;
#X msg 302 228 0 10;
#X msg 234 253 1 10;
#X msg 313 253 1 10;
#X obj 382 315 *~;
#X obj 410 286 line~;
#X msg 410 228 0 10;
#X msg 421 253 1 10;
#X obj 653 80 t f b;
#X obj 653 106 sel 0 1 2 3 4 5;
#X msg 524 326 \$1 10;
#X obj 524 352 line~;
#X obj 28 369 *~;
#X obj 28 744 *~;
#X obj 56 715 line~;
#X obj 155 744 *~;
#X obj 183 715 line~;
#X msg 56 657 0 10;
#X msg 183 657 0 10;
#X msg 67 682 1 10;
#X msg 194 682 1 10;
#X obj 277 744 *~;
#X obj 305 715 line~;
#X obj 369 744 *~;
#X obj 397 715 line~;
#X msg 305 657 0 10;
#X msg 397 657 0 10;
#X msg 316 682 1 10;
#X msg 408 682 1 10;
#X obj 485 744 *~;
#X obj 513 715 line~;
#X msg 513 657 0 10;
#X msg 524 682 1 10;
#X obj 584 744 *~;
#X obj 612 715 line~;
#X msg 612 657 0 10;
#X msg 623 682 1 10;
#X obj 669 744 *~;
#X obj 697 715 line~;
#X msg 697 657 0 10;
#X msg 708 682 1 10;
#X obj 155 461 *~ 2;
#X obj 584 461 *~ 46;
#X obj 669 461 *~ -0.5;
#X obj 155 487 -~ 1;
#X obj 584 487 -~ 23;
#X obj 890 511 line;
#X obj 1186 511 line;
#X obj 767 594 del 100;
#X obj 802 537 f;
#X obj 485 461 *~ 20;
#X obj 485 487 -~ 10;
#X obj 369 461 *~ 40;
#X obj 369 487 -~ 20;
#X obj 277 461 *~ 2000;
#X obj 277 487 -~ 1000;
#X obj 277 513 abs~;
#X obj 541 573 sel 0 1 2 3 4 5 6 7;
#X obj 778 744 *~;
#X obj 806 715 line~;
#X msg 806 657 0 10;
#X msg 817 682 1 10;
#X msg 936 682 0;
#X msg 965 682 1;
#X obj 398 14 r \$0-lfoFreq-1;
#X obj 524 300 r \$0-lfoAmp-1;
#X obj 28 773 s~ \$0-lfoWaveMix-1;
#X obj 155 773 s~ \$0-lfoFilterMix-1;
#X obj 277 773 s~ \$0-lfoLop-1;
#X obj 369 773 s~ \$0-lfoFeed-1;
#X obj 485 772 s~ \$0-lfoDel-1;
#X obj 584 772 s~ \$0-lfoHip-1;
#X obj 669 772 s~ \$0-lfoPitch-1;
#X obj 778 772 s~ \$0-lfoWs-1;
#X obj 934 744 s \$0-wsCtl;
#X obj 541 544 r \$0-lfoRoute-1;
#X obj 653 54 r \$0-lfoWave-1;
#X obj 890 537 s \$0-lfoFreq-1;
#X obj 1186 537 s \$0-lfoAmp-1;
#X obj 890 14 r \$0-lfoRand-1;
#X obj 996 66 r \$0-lfoChangeRate-1;
#X obj 1078 187 r \$0-lfoAmp-1;
#X obj 788 200 r \$0-lfoFreq-1;
#X obj 1292 72 r \$0-lfoChangeRate-1;
#X connect 0 0 2 0;
#X connect 1 0 0 0;
#X connect 1 1 0 1;
#X connect 2 0 28 0;
#X connect 3 0 4 0;
#X connect 4 0 1 0;
#X connect 4 0 11 1;
#X connect 5 0 4 1;
#X connect 6 0 2 1;
#X connect 7 0 8 0;
#X connect 8 0 11 0;
#X connect 9 0 10 0;
#X connect 9 1 12 0;
#X connect 10 0 2 1;
#X connect 11 0 101 0;
#X connect 12 0 28 0;
#X connect 12 0 6 0;
#X connect 12 1 13 0;
#X connect 13 0 101 0;
#X connect 14 0 16 0;
#X connect 15 0 14 0;
#X connect 15 1 14 1;
#X connect 16 0 29 0;
#X connect 17 0 18 0;
#X connect 18 0 15 0;
#X connect 18 0 24 1;
#X connect 19 0 18 1;
#X connect 20 0 16 1;
#X connect 21 0 26 0;
#X connect 22 0 23 0;
#X connect 22 1 25 0;
#X connect 23 0 16 1;
#X connect 24 0 102 0;
#X connect 25 0 29 0;
#X connect 25 0 20 0;
#X connect 25 1 27 0;
#X connect 26 0 24 0;
#X connect 27 0 102 0;
#X connect 28 0 7 0;
#X connect 28 1 3 0;
#X connect 29 0 21 0;
#X connect 29 1 17 0;
#X connect 30 0 36 0;
#X connect 31 0 39 0;
#X connect 32 0 40 0;
#X connect 33 0 41 0;
#X connect 34 0 42 0;
#X connect 35 0 34 1;
#X connect 35 0 33 1;
#X connect 35 0 32 1;
#X connect 35 0 31 1;
#X connect 35 0 30 1;
#X connect 36 0 37 0;
#X connect 37 0 38 0;
#X connect 38 0 43 0;
#X connect 39 0 45 0;
#X connect 40 0 51 0;
#X connect 41 0 53 0;
#X connect 42 0 59 0;
#X connect 43 0 67 0;
#X connect 44 0 43 1;
#X connect 45 0 67 0;
#X connect 46 0 45 1;
#X connect 47 0 44 0;
#X connect 48 0 46 0;
#X connect 49 0 44 0;
#X connect 50 0 46 0;
#X connect 51 0 67 0;
#X connect 52 0 51 1;
#X connect 53 0 67 0;
#X connect 54 0 53 1;
#X connect 55 0 52 0;
#X connect 56 0 54 0;
#X connect 57 0 52 0;
#X connect 58 0 54 0;
#X connect 59 0 67 0;
#X connect 60 0 59 1;
#X connect 61 0 60 0;
#X connect 62 0 60 0;
#X connect 63 0 64 0;
#X connect 63 1 35 0;
#X connect 64 0 47 0;
#X connect 64 0 48 0;
#X connect 64 0 55 0;
#X connect 64 0 56 0;
#X connect 64 0 61 0;
#X connect 64 0 103 0;
#X connect 64 1 61 0;
#X connect 64 1 56 0;
#X connect 64 1 55 0;
#X connect 64 1 48 0;
#X connect 64 1 49 0;
#X connect 64 1 104 0;
#X connect 64 2 61 0;
#X connect 64 2 56 0;
#X connect 64 2 55 0;
#X connect 64 2 47 0;
#X connect 64 2 50 0;
#X connect 64 2 104 0;
#X connect 64 3 61 0;
#X connect 64 3 56 0;
#X connect 64 3 47 0;
#X connect 64 3 48 0;
#X connect 64 3 57 0;
#X connect 64 3 104 0;
#X connect 64 4 61 0;
#X connect 64 4 47 0;
#X connect 64 4 48 0;
#X connect 64 4 55 0;
#X connect 64 4 58 0;
#X connect 64 4 104 0;
#X connect 64 5 47 0;
#X connect 64 5 48 0;
#X connect 64 5 55 0;
#X connect 64 5 56 0;
#X connect 64 5 62 0;
#X connect 64 5 104 0;
#X connect 65 0 66 0;
#X connect 66 0 67 1;
#X connect 67 0 96 0;
#X connect 67 0 97 0;
#X connect 67 0 98 0;
#X connect 67 0 105 0;
#X connect 67 0 107 0;
#X connect 67 0 109 0;
#X connect 67 0 68 0;
#X connect 67 0 113 0;
#X connect 68 0 121 0;
#X connect 69 0 68 1;
#X connect 70 0 122 0;
#X connect 71 0 70 1;
#X connect 72 0 69 0;
#X connect 73 0 71 0;
#X connect 74 0 69 0;
#X connect 75 0 71 0;
#X connect 76 0 123 0;
#X connect 77 0 76 1;
#X connect 78 0 124 0;
#X connect 79 0 78 1;
#X connect 80 0 77 0;
#X connect 81 0 79 0;
#X connect 82 0 77 0;
#X connect 83 0 79 0;
#X connect 84 0 125 0;
#X connect 85 0 84 1;
#X connect 86 0 85 0;
#X connect 87 0 85 0;
#X connect 88 0 126 0;
#X connect 89 0 88 1;
#X connect 90 0 89 0;
#X connect 91 0 89 0;
#X connect 92 0 127 0;
#X connect 93 0 92 1;
#X connect 94 0 93 0;
#X connect 95 0 93 0;
#X connect 96 0 99 0;
#X connect 97 0 100 0;
#X connect 98 0 92 0;
#X connect 99 0 70 0;
#X connect 100 0 88 0;
#X connect 101 0 132 0;
#X connect 102 0 133 0;
#X connect 103 0 94 0;
#X connect 103 0 90 0;
#X connect 103 0 86 0;
#X connect 103 0 81 0;
#X connect 103 0 80 0;
#X connect 103 0 73 0;
#X connect 103 0 72 0;
#X connect 103 0 115 0;
#X connect 104 0 112 0;
#X connect 105 0 106 0;
#X connect 106 0 84 0;
#X connect 107 0 108 0;
#X connect 108 0 78 0;
#X connect 109 0 110 0;
#X connect 110 0 111 0;
#X connect 111 0 76 0;
#X connect 112 0 73 0;
#X connect 112 0 80 0;
#X connect 112 0 81 0;
#X connect 112 0 86 0;
#X connect 112 0 90 0;
#X connect 112 0 94 0;
#X connect 112 0 74 0;
#X connect 112 0 115 0;
#X connect 112 0 118 0;
#X connect 112 1 80 0;
#X connect 112 1 81 0;
#X connect 112 1 86 0;
#X connect 112 1 90 0;
#X connect 112 1 94 0;
#X connect 112 1 72 0;
#X connect 112 1 75 0;
#X connect 112 1 115 0;
#X connect 112 1 118 0;
#X connect 112 2 81 0;
#X connect 112 2 86 0;
#X connect 112 2 90 0;
#X connect 112 2 94 0;
#X connect 112 2 72 0;
#X connect 112 2 73 0;
#X connect 112 2 82 0;
#X connect 112 2 115 0;
#X connect 112 2 118 0;
#X connect 112 3 86 0;
#X connect 112 3 90 0;
#X connect 112 3 94 0;
#X connect 112 3 72 0;
#X connect 112 3 73 0;
#X connect 112 3 80 0;
#X connect 112 3 83 0;
#X connect 112 3 115 0;
#X connect 112 3 118 0;
#X connect 112 4 90 0;
#X connect 112 4 94 0;
#X connect 112 4 72 0;
#X connect 112 4 73 0;
#X connect 112 4 80 0;
#X connect 112 4 81 0;
#X connect 112 4 87 0;
#X connect 112 4 115 0;
#X connect 112 4 118 0;
#X connect 112 5 94 0;
#X connect 112 5 72 0;
#X connect 112 5 73 0;
#X connect 112 5 80 0;
#X connect 112 5 81 0;
#X connect 112 5 86 0;
#X connect 112 5 91 0;
#X connect 112 5 115 0;
#X connect 112 5 118 0;
#X connect 112 6 72 0;
#X connect 112 6 73 0;
#X connect 112 6 80 0;
#X connect 112 6 81 0;
#X connect 112 6 86 0;
#X connect 112 6 90 0;
#X connect 112 6 95 0;
#X connect 112 6 115 0;
#X connect 112 6 118 0;
#X connect 112 7 116 0;
#X connect 112 7 94 0;
#X connect 112 7 90 0;
#X connect 112 7 86 0;
#X connect 112 7 81 0;
#X connect 112 7 80 0;
#X connect 112 7 73 0;
#X connect 112 7 72 0;
#X connect 112 7 117 0;
#X connect 113 0 128 0;
#X connect 114 0 113 1;
#X connect 115 0 114 0;
#X connect 116 0 114 0;
#X connect 117 0 129 0;
#X connect 118 0 129 0;
#X connect 119 0 34 0;
#X connect 119 0 33 0;
#X connect 119 0 32 0;
#X connect 119 0 31 0;
#X connect 119 0 30 0;
#X connect 120 0 65 0;
#X connect 130 0 104 1;
#X connect 130 0 112 0;
#X connect 131 0 63 0;
#X connect 134 0 22 0;
#X connect 134 0 9 0;
#X connect 135 0 3 1;
#X connect 135 0 5 0;
#X connect 136 0 27 1;
#X connect 137 0 13 1;
#X connect 138 0 17 1;
#X connect 138 0 19 0;
#X restore 259 544 pd LFO1;
#N canvas 0 50 450 300 LFO2 0;
#X obj 1008 342 delay;
#X obj 1008 313 t b f;
#X obj 1009 376 spigot;
#X obj 996 200 random 500;
#X obj 995 246 + 100;
#X obj 996 148 / 10;
#X msg 1068 352 1;
#X obj 890 200 random 2000;
#X obj 890 232 / 100;
#X obj 890 66 sel 0 1;
#X msg 1068 324 0;
#X obj 890 429 pack f f;
#X obj 928 93 t b b;
#X obj 840 237 f;
#X obj 1304 329 delay;
#X obj 1304 300 t b f;
#X obj 1305 363 spigot;
#X obj 1292 187 random 500;
#X obj 1291 233 + 100;
#X obj 1292 135 / 10;
#X msg 1364 339 1;
#X obj 1186 187 random 2000;
#X obj 1186 53 sel 0 1;
#X msg 1364 311 0;
#X obj 1186 416 pack f f;
#X obj 1224 80 t b b;
#X obj 1186 219 / 1000;
#X obj 1142 246 f;
#X obj 890 148 t b b;
#X obj 1186 135 t b b;
#X obj 28 106 hv.lfo sine;
#X obj 107 106 hv.lfo ramp;
#X obj 195 106 hv.lfo saw;
#X obj 280 106 hv.lfo triangle;
#X obj 382 106 hv.lfo square;
#X msg 499 14 0;
#X obj 28 132 * -1;
#X obj 382 132 * -1;
#X obj 382 158 + 1;
#X obj 28 158 + 1;
#X obj 28 184 sig~;
#X obj 107 184 sig~;
#X obj 195 184 sig~;
#X obj 280 184 sig~;
#X obj 382 184 sig~;
#X obj 28 315 *~;
#X obj 56 286 line~;
#X obj 107 315 *~;
#X obj 135 286 line~;
#X msg 56 228 0 10;
#X msg 135 228 0 10;
#X msg 67 253 1 10;
#X msg 146 253 1 10;
#X obj 195 315 *~;
#X obj 223 286 line~;
#X obj 274 315 *~;
#X obj 302 286 line~;
#X msg 223 228 0 10;
#X msg 302 228 0 10;
#X msg 234 253 1 10;
#X msg 313 253 1 10;
#X obj 382 315 *~;
#X obj 410 286 line~;
#X msg 410 228 0 10;
#X msg 421 253 1 10;
#X obj 653 80 t f b;
#X obj 653 106 sel 0 1 2 3 4 5;
#X msg 524 326 \$1 10;
#X obj 524 352 line~;
#X obj 28 369 *~;
#X obj 28 744 *~;
#X obj 56 715 line~;
#X obj 155 744 *~;
#X obj 183 715 line~;
#X msg 56 657 0 10;
#X msg 183 657 0 10;
#X msg 67 682 1 10;
#X msg 194 682 1 10;
#X obj 277 744 *~;
#X obj 305 715 line~;
#X obj 369 744 *~;
#X obj 397 715 line~;
#X msg 305 657 0 10;
#X msg 397 657 0 10;
#X msg 316 682 1 10;
#X msg 408 682 1 10;
#X obj 485 744 *~;
#X obj 513 715 line~;
#X msg 513 657 0 10;
#X msg 524 682 1 10;
#X obj 541 576 sel 0 1 2 3 4 5 6;
#X obj 584 744 *~;
#X obj 612 715 line~;
#X msg 612 657 0 10;
#X msg 623 682 1 10;
#X obj 669 744 *~;
#X obj 697 715 line~;
#X msg 697 657 0 10;
#X msg 708 682 1 10;
#X obj 28 461 *~ 2;
#X obj 155 461 *~ 2;
#X obj 277 461 *~ 46;
#X obj 369 461 *~ 20;
#X obj 485 461 *~ 20;
#X obj 584 461 *~ 46;
#X obj 669 461 *~ -0.5;
#X obj 28 490 -~ 1;
#X obj 155 487 -~ 1;
#X obj 277 487 -~ 23;
#X obj 369 487 -~ 10;
#X obj 485 487 -~ 10;
#X obj 584 487 -~ 23;
#X obj 890 511 line;
#X obj 1186 511 line;
#X obj 748 572 del 100;
#X obj 398 14 r \$0-lfoFreq-2;
#X obj 653 54 r \$0-lfoWave-2;
#X obj 524 300 r \$0-lfoAmp-2;
#X obj 541 544 r \$0-lfoRoute-2;
#X obj 28 773 s~ \$0-lfoWaveMix-2;
#X obj 155 773 s~ \$0-lfoFilterMix-2;
#X obj 277 773 s~ \$0-lfoLop-2;
#X obj 369 773 s~ \$0-lfoFeed-2;
#X obj 485 772 s~ \$0-lfoDel-2;
#X obj 584 772 s~ \$0-lfoHip-2;
#X obj 669 772 s~ \$0-lfoPitch-2;
#X obj 890 14 r \$0-lfoRand-2;
#X obj 1292 72 r \$0-lfoChangeRate-2;
#X obj 996 66 r \$0-lfoChangeRate-2;
#X obj 789 200 r \$0-lfoFreq-2;
#X obj 1082 187 r \$0-lfoAmp-2;
#X obj 1186 537 s \$0-lfoAmp-2;
#X obj 890 537 s \$0-lfoFreq-2;
#X connect 0 0 2 0;
#X connect 1 0 0 0;
#X connect 1 1 0 1;
#X connect 2 0 28 0;
#X connect 3 0 4 0;
#X connect 4 0 1 0;
#X connect 4 0 11 1;
#X connect 5 0 4 1;
#X connect 6 0 2 1;
#X connect 7 0 8 0;
#X connect 8 0 11 0;
#X connect 9 0 10 0;
#X connect 9 1 12 0;
#X connect 10 0 2 1;
#X connect 11 0 112 0;
#X connect 12 0 28 0;
#X connect 12 0 6 0;
#X connect 12 1 13 0;
#X connect 13 0 112 0;
#X connect 14 0 16 0;
#X connect 15 0 14 0;
#X connect 15 1 14 1;
#X connect 16 0 29 0;
#X connect 17 0 18 0;
#X connect 18 0 15 0;
#X connect 18 0 24 1;
#X connect 19 0 18 1;
#X connect 20 0 16 1;
#X connect 21 0 26 0;
#X connect 22 0 23 0;
#X connect 22 1 25 0;
#X connect 23 0 16 1;
#X connect 24 0 113 0;
#X connect 25 0 29 0;
#X connect 25 0 20 0;
#X connect 25 1 27 0;
#X connect 26 0 24 0;
#X connect 27 0 113 0;
#X connect 28 0 7 0;
#X connect 28 1 3 0;
#X connect 29 0 21 0;
#X connect 29 1 17 0;
#X connect 30 0 36 0;
#X connect 31 0 41 0;
#X connect 32 0 42 0;
#X connect 33 0 43 0;
#X connect 34 0 37 0;
#X connect 35 0 34 1;
#X connect 35 0 33 1;
#X connect 35 0 32 1;
#X connect 35 0 31 1;
#X connect 35 0 30 1;
#X connect 36 0 39 0;
#X connect 37 0 38 0;
#X connect 38 0 44 0;
#X connect 39 0 40 0;
#X connect 40 0 45 0;
#X connect 41 0 47 0;
#X connect 42 0 53 0;
#X connect 43 0 55 0;
#X connect 44 0 61 0;
#X connect 45 0 69 0;
#X connect 46 0 45 1;
#X connect 47 0 69 0;
#X connect 48 0 47 1;
#X connect 49 0 46 0;
#X connect 50 0 48 0;
#X connect 51 0 46 0;
#X connect 52 0 48 0;
#X connect 53 0 69 0;
#X connect 54 0 53 1;
#X connect 55 0 69 0;
#X connect 56 0 55 1;
#X connect 57 0 54 0;
#X connect 58 0 56 0;
#X connect 59 0 54 0;
#X connect 60 0 56 0;
#X connect 61 0 69 0;
#X connect 62 0 61 1;
#X connect 63 0 62 0;
#X connect 64 0 62 0;
#X connect 65 0 66 0;
#X connect 65 1 35 0;
#X connect 66 0 49 0;
#X connect 66 0 50 0;
#X connect 66 0 57 0;
#X connect 66 0 58 0;
#X connect 66 0 63 0;
#X connect 66 0 114 0;
#X connect 66 1 63 0;
#X connect 66 1 58 0;
#X connect 66 1 57 0;
#X connect 66 1 50 0;
#X connect 66 1 51 0;
#X connect 66 2 63 0;
#X connect 66 2 58 0;
#X connect 66 2 57 0;
#X connect 66 2 49 0;
#X connect 66 2 52 0;
#X connect 66 3 63 0;
#X connect 66 3 58 0;
#X connect 66 3 49 0;
#X connect 66 3 50 0;
#X connect 66 3 59 0;
#X connect 66 4 63 0;
#X connect 66 4 49 0;
#X connect 66 4 50 0;
#X connect 66 4 57 0;
#X connect 66 4 60 0;
#X connect 66 5 49 0;
#X connect 66 5 50 0;
#X connect 66 5 57 0;
#X connect 66 5 58 0;
#X connect 66 5 64 0;
#X connect 67 0 68 0;
#X connect 68 0 69 1;
#X connect 69 0 99 0;
#X connect 69 0 100 0;
#X connect 69 0 101 0;
#X connect 69 0 102 0;
#X connect 69 0 103 0;
#X connect 69 0 104 0;
#X connect 69 0 105 0;
#X connect 70 0 119 0;
#X connect 71 0 70 1;
#X connect 72 0 120 0;
#X connect 73 0 72 1;
#X connect 74 0 71 0;
#X connect 75 0 73 0;
#X connect 76 0 71 0;
#X connect 77 0 73 0;
#X connect 78 0 121 0;
#X connect 79 0 78 1;
#X connect 80 0 122 0;
#X connect 81 0 80 1;
#X connect 82 0 79 0;
#X connect 83 0 81 0;
#X connect 84 0 79 0;
#X connect 85 0 81 0;
#X connect 86 0 123 0;
#X connect 87 0 86 1;
#X connect 88 0 87 0;
#X connect 89 0 87 0;
#X connect 90 0 75 0;
#X connect 90 0 82 0;
#X connect 90 0 83 0;
#X connect 90 0 88 0;
#X connect 90 0 93 0;
#X connect 90 0 97 0;
#X connect 90 0 76 0;
#X connect 90 1 82 0;
#X connect 90 1 83 0;
#X connect 90 1 88 0;
#X connect 90 1 93 0;
#X connect 90 1 97 0;
#X connect 90 1 74 0;
#X connect 90 1 77 0;
#X connect 90 2 83 0;
#X connect 90 2 88 0;
#X connect 90 2 93 0;
#X connect 90 2 97 0;
#X connect 90 2 74 0;
#X connect 90 2 75 0;
#X connect 90 2 84 0;
#X connect 90 3 88 0;
#X connect 90 3 93 0;
#X connect 90 3 97 0;
#X connect 90 3 74 0;
#X connect 90 3 75 0;
#X connect 90 3 82 0;
#X connect 90 3 85 0;
#X connect 90 4 93 0;
#X connect 90 4 97 0;
#X connect 90 4 74 0;
#X connect 90 4 75 0;
#X connect 90 4 82 0;
#X connect 90 4 83 0;
#X connect 90 4 89 0;
#X connect 90 5 97 0;
#X connect 90 5 74 0;
#X connect 90 5 75 0;
#X connect 90 5 82 0;
#X connect 90 5 83 0;
#X connect 90 5 88 0;
#X connect 90 5 94 0;
#X connect 90 6 74 0;
#X connect 90 6 75 0;
#X connect 90 6 82 0;
#X connect 90 6 83 0;
#X connect 90 6 88 0;
#X connect 90 6 93 0;
#X connect 90 6 98 0;
#X connect 91 0 124 0;
#X connect 92 0 91 1;
#X connect 93 0 92 0;
#X connect 94 0 92 0;
#X connect 95 0 125 0;
#X connect 96 0 95 1;
#X connect 97 0 96 0;
#X connect 98 0 96 0;
#X connect 99 0 106 0;
#X connect 100 0 107 0;
#X connect 101 0 108 0;
#X connect 102 0 109 0;
#X connect 103 0 110 0;
#X connect 104 0 111 0;
#X connect 105 0 95 0;
#X connect 106 0 70 0;
#X connect 107 0 72 0;
#X connect 108 0 78 0;
#X connect 109 0 80 0;
#X connect 110 0 86 0;
#X connect 111 0 91 0;
#X connect 112 0 132 0;
#X connect 113 0 131 0;
#X connect 114 0 97 0;
#X connect 114 0 93 0;
#X connect 114 0 88 0;
#X connect 114 0 83 0;
#X connect 114 0 82 0;
#X connect 114 0 75 0;
#X connect 114 0 74 0;
#X connect 115 0 34 0;
#X connect 115 0 33 0;
#X connect 115 0 32 0;
#X connect 115 0 31 0;
#X connect 115 0 30 0;
#X connect 116 0 65 0;
#X connect 117 0 67 0;
#X connect 118 0 90 0;
#X connect 126 0 22 0;
#X connect 126 0 9 0;
#X connect 127 0 17 1;
#X connect 127 0 19 0;
#X connect 128 0 3 1;
#X connect 128 0 5 0;
#X connect 129 0 13 1;
#X connect 130 0 27 1;
#X restore 327 544 pd LFO2;
#N canvas 0 50 450 300 LFO3 0;
#X obj 1008 342 delay;
#X obj 1008 313 t b f;
#X obj 1009 376 spigot;
#X obj 996 200 random 500;
#X obj 995 246 + 100;
#X obj 996 148 / 10;
#X msg 1068 352 1;
#X obj 890 200 random 2000;
#X obj 890 232 / 100;
#X obj 890 66 sel 0 1;
#X msg 1068 324 0;
#X obj 890 429 pack f f;
#X obj 928 93 t b b;
#X obj 840 237 f;
#X obj 1304 329 delay;
#X obj 1304 300 t b f;
#X obj 1305 363 spigot;
#X obj 1292 187 random 500;
#X obj 1291 233 + 100;
#X obj 1292 135 / 10;
#X msg 1364 339 1;
#X obj 1186 187 random 2000;
#X obj 1186 53 sel 0 1;
#X msg 1364 311 0;
#X obj 1186 416 pack f f;
#X obj 1224 80 t b b;
#X obj 1186 219 / 1000;
#X obj 1142 246 f;
#X obj 890 148 t b b;
#X obj 1186 135 t b b;
#X obj 28 106 hv.lfo sine;
#X obj 107 106 hv.lfo ramp;
#X obj 195 106 hv.lfo saw;
#X obj 280 106 hv.lfo triangle;
#X obj 382 106 hv.lfo square;
#X msg 499 14 0;
#X obj 28 132 * -1;
#X obj 382 132 * -1;
#X obj 382 158 + 1;
#X obj 28 158 + 1;
#X obj 28 184 sig~;
#X obj 107 184 sig~;
#X obj 195 184 sig~;
#X obj 280 184 sig~;
#X obj 382 184 sig~;
#X obj 28 315 *~;
#X obj 56 286 line~;
#X obj 107 315 *~;
#X obj 135 286 line~;
#X msg 56 228 0 10;
#X msg 135 228 0 10;
#X msg 67 253 1 10;
#X msg 146 253 1 10;
#X obj 195 315 *~;
#X obj 223 286 line~;
#X obj 274 315 *~;
#X obj 302 286 line~;
#X msg 223 228 0 10;
#X msg 302 228 0 10;
#X msg 234 253 1 10;
#X msg 313 253 1 10;
#X obj 382 315 *~;
#X obj 410 286 line~;
#X msg 410 228 0 10;
#X msg 421 253 1 10;
#X obj 653 80 t f b;
#X obj 653 106 sel 0 1 2 3 4 5;
#X msg 524 326 \$1 10;
#X obj 524 352 line~;
#X obj 28 369 *~;
#X obj 28 744 *~;
#X obj 56 715 line~;
#X obj 155 744 *~;
#X obj 183 715 line~;
#X msg 56 657 0 10;
#X msg 183 657 0 10;
#X msg 67 682 1 10;
#X msg 194 682 1 10;
#X obj 277 744 *~;
#X obj 305 715 line~;
#X obj 369 744 *~;
#X obj 397 715 line~;
#X msg 305 657 0 10;
#X msg 397 657 0 10;
#X msg 316 682 1 10;
#X msg 408 682 1 10;
#X obj 485 744 *~;
#X obj 513 715 line~;
#X msg 513 657 0 10;
#X msg 524 682 1 10;
#X obj 541 576 sel 0 1 2 3 4 5 6;
#X obj 584 744 *~;
#X obj 612 715 line~;
#X msg 612 657 0 10;
#X msg 623 682 1 10;
#X obj 669 744 *~;
#X obj 697 715 line~;
#X msg 697 657 0 10;
#X msg 708 682 1 10;
#X obj 28 461 *~ 2;
#X obj 155 461 *~ 2;
#X obj 277 461 *~ 46;
#X obj 369 461 *~ 20;
#X obj 485 461 *~ 20;
#X obj 584 461 *~ 46;
#X obj 669 461 *~ -0.5;
#X obj 28 490 -~ 1;
#X obj 155 487 -~ 1;
#X obj 277 487 -~ 23;
#X obj 369 487 -~ 10;
#X obj 485 487 -~ 10;
#X obj 584 487 -~ 23;
#X obj 890 511 line;
#X obj 1186 511 line;
#X obj 709 580 del 100;
#X obj 398 14 r \$0-lfoFreq-3;
#X obj 653 54 r \$0-lfoWave-3;
#X obj 524 300 r \$0-lfoAmp-3;
#X obj 541 544 r \$0-lfoRoute-3;
#X obj 28 773 s~ \$0-lfoWaveMix-3;
#X obj 155 773 s~ \$0-lfoFilterMix-3;
#X obj 277 773 s~ \$0-lfoLop-3;
#X obj 369 773 s~ \$0-lfoFeed-3;
#X obj 485 772 s~ \$0-lfoDel-3;
#X obj 584 772 s~ \$0-lfoHip-3;
#X obj 669 772 s~ \$0-lfoPitch-3;
#X obj 878 14 r \$0-lfoRand-3;
#X obj 1292 72 r \$0-lfoChangeRate-3;
#X obj 996 66 r \$0-lfoChangeRate-3;
#X obj 890 537 s \$0-lfoFreq-3;
#X obj 1186 537 s \$0-lfoAmp-3;
#X obj 812 200 r \$0-lfoFreq-3;
#X obj 1106 187 r \$0-lfoAmp-3;
#X connect 0 0 2 0;
#X connect 1 0 0 0;
#X connect 1 1 0 1;
#X connect 2 0 28 0;
#X connect 3 0 4 0;
#X connect 4 0 1 0;
#X connect 4 0 11 1;
#X connect 5 0 4 1;
#X connect 6 0 2 1;
#X connect 7 0 8 0;
#X connect 8 0 11 0;
#X connect 9 0 10 0;
#X connect 9 1 12 0;
#X connect 10 0 2 1;
#X connect 11 0 112 0;
#X connect 12 0 28 0;
#X connect 12 0 6 0;
#X connect 12 1 13 0;
#X connect 13 0 112 0;
#X connect 14 0 16 0;
#X connect 15 0 14 0;
#X connect 15 1 14 1;
#X connect 16 0 29 0;
#X connect 17 0 18 0;
#X connect 18 0 15 0;
#X connect 18 0 24 1;
#X connect 19 0 18 1;
#X connect 20 0 16 1;
#X connect 21 0 26 0;
#X connect 22 0 23 0;
#X connect 22 1 25 0;
#X connect 23 0 16 1;
#X connect 24 0 113 0;
#X connect 25 0 29 0;
#X connect 25 0 20 0;
#X connect 25 1 27 0;
#X connect 26 0 24 0;
#X connect 27 0 113 0;
#X connect 28 0 7 0;
#X connect 28 1 3 0;
#X connect 29 0 21 0;
#X connect 29 1 17 0;
#X connect 30 0 36 0;
#X connect 31 0 41 0;
#X connect 32 0 42 0;
#X connect 33 0 43 0;
#X connect 34 0 37 0;
#X connect 35 0 34 1;
#X connect 35 0 33 1;
#X connect 35 0 32 1;
#X connect 35 0 31 1;
#X connect 35 0 30 1;
#X connect 36 0 39 0;
#X connect 37 0 38 0;
#X connect 38 0 44 0;
#X connect 39 0 40 0;
#X connect 40 0 45 0;
#X connect 41 0 47 0;
#X connect 42 0 53 0;
#X connect 43 0 55 0;
#X connect 44 0 61 0;
#X connect 45 0 69 0;
#X connect 46 0 45 1;
#X connect 47 0 69 0;
#X connect 48 0 47 1;
#X connect 49 0 46 0;
#X connect 50 0 48 0;
#X connect 51 0 46 0;
#X connect 52 0 48 0;
#X connect 53 0 69 0;
#X connect 54 0 53 1;
#X connect 55 0 69 0;
#X connect 56 0 55 1;
#X connect 57 0 54 0;
#X connect 58 0 56 0;
#X connect 59 0 54 0;
#X connect 60 0 56 0;
#X connect 61 0 69 0;
#X connect 62 0 61 1;
#X connect 63 0 62 0;
#X connect 64 0 62 0;
#X connect 65 0 66 0;
#X connect 65 1 35 0;
#X connect 66 0 49 0;
#X connect 66 0 50 0;
#X connect 66 0 57 0;
#X connect 66 0 58 0;
#X connect 66 0 63 0;
#X connect 66 0 114 0;
#X connect 66 1 63 0;
#X connect 66 1 58 0;
#X connect 66 1 57 0;
#X connect 66 1 50 0;
#X connect 66 1 51 0;
#X connect 66 2 63 0;
#X connect 66 2 58 0;
#X connect 66 2 57 0;
#X connect 66 2 49 0;
#X connect 66 2 52 0;
#X connect 66 3 63 0;
#X connect 66 3 58 0;
#X connect 66 3 49 0;
#X connect 66 3 50 0;
#X connect 66 3 59 0;
#X connect 66 4 63 0;
#X connect 66 4 49 0;
#X connect 66 4 50 0;
#X connect 66 4 57 0;
#X connect 66 4 60 0;
#X connect 66 5 49 0;
#X connect 66 5 50 0;
#X connect 66 5 57 0;
#X connect 66 5 58 0;
#X connect 66 5 64 0;
#X connect 67 0 68 0;
#X connect 68 0 69 1;
#X connect 69 0 99 0;
#X connect 69 0 100 0;
#X connect 69 0 101 0;
#X connect 69 0 102 0;
#X connect 69 0 103 0;
#X connect 69 0 104 0;
#X connect 69 0 105 0;
#X connect 70 0 119 0;
#X connect 71 0 70 1;
#X connect 72 0 120 0;
#X connect 73 0 72 1;
#X connect 74 0 71 0;
#X connect 75 0 73 0;
#X connect 76 0 71 0;
#X connect 77 0 73 0;
#X connect 78 0 121 0;
#X connect 79 0 78 1;
#X connect 80 0 122 0;
#X connect 81 0 80 1;
#X connect 82 0 79 0;
#X connect 83 0 81 0;
#X connect 84 0 79 0;
#X connect 85 0 81 0;
#X connect 86 0 123 0;
#X connect 87 0 86 1;
#X connect 88 0 87 0;
#X connect 89 0 87 0;
#X connect 90 0 75 0;
#X connect 90 0 82 0;
#X connect 90 0 83 0;
#X connect 90 0 88 0;
#X connect 90 0 93 0;
#X connect 90 0 97 0;
#X connect 90 0 76 0;
#X connect 90 1 82 0;
#X connect 90 1 83 0;
#X connect 90 1 88 0;
#X connect 90 1 93 0;
#X connect 90 1 97 0;
#X connect 90 1 74 0;
#X connect 90 1 77 0;
#X connect 90 2 83 0;
#X connect 90 2 88 0;
#X connect 90 2 93 0;
#X connect 90 2 97 0;
#X connect 90 2 74 0;
#X connect 90 2 75 0;
#X connect 90 2 84 0;
#X connect 90 3 88 0;
#X connect 90 3 93 0;
#X connect 90 3 97 0;
#X connect 90 3 74 0;
#X connect 90 3 75 0;
#X connect 90 3 82 0;
#X connect 90 3 85 0;
#X connect 90 4 93 0;
#X connect 90 4 97 0;
#X connect 90 4 74 0;
#X connect 90 4 75 0;
#X connect 90 4 82 0;
#X connect 90 4 83 0;
#X connect 90 4 89 0;
#X connect 90 5 97 0;
#X connect 90 5 74 0;
#X connect 90 5 75 0;
#X connect 90 5 82 0;
#X connect 90 5 83 0;
#X connect 90 5 88 0;
#X connect 90 5 94 0;
#X connect 90 6 74 0;
#X connect 90 6 75 0;
#X connect 90 6 82 0;
#X connect 90 6 83 0;
#X connect 90 6 88 0;
#X connect 90 6 93 0;
#X connect 90 6 98 0;
#X connect 91 0 124 0;
#X connect 92 0 91 1;
#X connect 93 0 92 0;
#X connect 94 0 92 0;
#X connect 95 0 125 0;
#X connect 96 0 95 1;
#X connect 97 0 96 0;
#X connect 98 0 96 0;
#X connect 99 0 106 0;
#X connect 100 0 107 0;
#X connect 101 0 108 0;
#X connect 102 0 109 0;
#X connect 103 0 110 0;
#X connect 104 0 111 0;
#X connect 105 0 95 0;
#X connect 106 0 70 0;
#X connect 107 0 72 0;
#X connect 108 0 78 0;
#X connect 109 0 80 0;
#X connect 110 0 86 0;
#X connect 111 0 91 0;
#X connect 112 0 129 0;
#X connect 113 0 130 0;
#X connect 114 0 97 0;
#X connect 114 0 93 0;
#X connect 114 0 88 0;
#X connect 114 0 83 0;
#X connect 114 0 82 0;
#X connect 114 0 75 0;
#X connect 114 0 74 0;
#X connect 115 0 34 0;
#X connect 115 0 33 0;
#X connect 115 0 32 0;
#X connect 115 0 31 0;
#X connect 115 0 30 0;
#X connect 116 0 65 0;
#X connect 117 0 67 0;
#X connect 118 0 90 0;
#X connect 126 0 22 0;
#X connect 126 0 9 0;
#X connect 127 0 17 1;
#X connect 127 0 19 0;
#X connect 128 0 3 1;
#X connect 128 0 5 0;
#X connect 131 0 13 1;
#X connect 132 0 27 1;
#X restore 259 568 pd LFO3;
#N canvas 0 50 450 300 LFO4 0;
#X obj 1008 342 delay;
#X obj 1008 313 t b f;
#X obj 1009 376 spigot;
#X obj 996 200 random 500;
#X obj 995 246 + 100;
#X obj 996 148 / 10;
#X msg 1068 352 1;
#X obj 890 200 random 2000;
#X obj 890 232 / 100;
#X obj 890 66 sel 0 1;
#X msg 1068 324 0;
#X obj 890 429 pack f f;
#X obj 928 93 t b b;
#X obj 840 237 f;
#X obj 1304 329 delay;
#X obj 1304 300 t b f;
#X obj 1305 363 spigot;
#X obj 1292 187 random 500;
#X obj 1291 233 + 100;
#X obj 1292 135 / 10;
#X msg 1364 339 1;
#X obj 1186 187 random 2000;
#X obj 1186 53 sel 0 1;
#X msg 1364 311 0;
#X obj 1186 416 pack f f;
#X obj 1224 80 t b b;
#X obj 1186 219 / 1000;
#X obj 1142 246 f;
#X obj 890 148 t b b;
#X obj 1186 135 t b b;
#X obj 28 106 hv.lfo sine;
#X obj 107 106 hv.lfo ramp;
#X obj 195 106 hv.lfo saw;
#X obj 280 106 hv.lfo triangle;
#X obj 382 106 hv.lfo square;
#X msg 499 14 0;
#X obj 28 132 * -1;
#X obj 382 132 * -1;
#X obj 382 158 + 1;
#X obj 28 158 + 1;
#X obj 28 184 sig~;
#X obj 107 184 sig~;
#X obj 195 184 sig~;
#X obj 280 184 sig~;
#X obj 382 184 sig~;
#X obj 28 315 *~;
#X obj 56 286 line~;
#X obj 107 315 *~;
#X obj 135 286 line~;
#X msg 56 228 0 10;
#X msg 135 228 0 10;
#X msg 67 253 1 10;
#X msg 146 253 1 10;
#X obj 195 315 *~;
#X obj 223 286 line~;
#X obj 274 315 *~;
#X obj 302 286 line~;
#X msg 223 228 0 10;
#X msg 302 228 0 10;
#X msg 234 253 1 10;
#X msg 313 253 1 10;
#X obj 382 315 *~;
#X obj 410 286 line~;
#X msg 410 228 0 10;
#X msg 421 253 1 10;
#X obj 653 80 t f b;
#X obj 653 106 sel 0 1 2 3 4 5;
#X msg 524 326 \$1 10;
#X obj 524 352 line~;
#X obj 28 369 *~;
#X obj 28 744 *~;
#X obj 56 715 line~;
#X obj 155 744 *~;
#X obj 183 715 line~;
#X msg 56 657 0 10;
#X msg 183 657 0 10;
#X msg 67 682 1 10;
#X msg 194 682 1 10;
#X obj 277 744 *~;
#X obj 305 715 line~;
#X obj 369 744 *~;
#X obj 397 715 line~;
#X msg 305 657 0 10;
#X msg 397 657 0 10;
#X msg 316 682 1 10;
#X msg 408 682 1 10;
#X obj 485 744 *~;
#X obj 513 715 line~;
#X msg 513 657 0 10;
#X msg 524 682 1 10;
#X obj 541 576 sel 0 1 2 3 4 5 6;
#X obj 584 744 *~;
#X obj 612 715 line~;
#X msg 612 657 0 10;
#X msg 623 682 1 10;
#X obj 669 744 *~;
#X obj 697 715 line~;
#X msg 697 657 0 10;
#X msg 708 682 1 10;
#X obj 28 461 *~ 2;
#X obj 155 461 *~ 2;
#X obj 277 461 *~ 46;
#X obj 369 461 *~ 20;
#X obj 485 461 *~ 20;
#X obj 584 461 *~ 46;
#X obj 669 461 *~ -0.5;
#X obj 28 490 -~ 1;
#X obj 155 487 -~ 1;
#X obj 277 487 -~ 23;
#X obj 369 487 -~ 10;
#X obj 485 487 -~ 10;
#X obj 584 487 -~ 23;
#X obj 890 511 line;
#X obj 1186 511 line;
#X obj 1186 537 s lfoAmp-4;
#X obj 737 578 del 100;
#X obj 398 14 r \$0-lfoFreq-4;
#X obj 653 54 r \$0-lfoWave-4;
#X obj 524 300 r \$0-lfoAmp-4;
#X obj 541 544 r \$0-lfoRoute-4;
#X obj 28 773 s~ \$0-lfoWaveMix-4;
#X obj 155 773 s~ \$0-lfoFilterMix-4;
#X obj 277 773 s~ \$0-lfoLop-4;
#X obj 369 773 s~ \$0-lfoFeed-4;
#X obj 485 772 s~ \$0-lfoDel-4;
#X obj 584 772 s~ \$0-lfoHip-4;
#X obj 669 772 s~ \$0-lfoPitch-4;
#X obj 890 14 r \$0-lfoRand-4;
#X obj 1292 72 r \$0-lfoChangeRate-4;
#X obj 996 66 r \$0-lfoChangeRate-4;
#X obj 812 200 r \$0-lfoFreq-4;
#X obj 1106 187 r \$0-lfoAmp-4;
#X obj 890 537 s \$0-lfoFreq-4;
#X connect 0 0 2 0;
#X connect 1 0 0 0;
#X connect 1 1 0 1;
#X connect 2 0 28 0;
#X connect 3 0 4 0;
#X connect 4 0 1 0;
#X connect 4 0 11 1;
#X connect 5 0 4 1;
#X connect 6 0 2 1;
#X connect 7 0 8 0;
#X connect 8 0 11 0;
#X connect 9 0 10 0;
#X connect 9 1 12 0;
#X connect 10 0 2 1;
#X connect 11 0 112 0;
#X connect 12 0 28 0;
#X connect 12 0 6 0;
#X connect 12 1 13 0;
#X connect 13 0 112 0;
#X connect 14 0 16 0;
#X connect 15 0 14 0;
#X connect 15 1 14 1;
#X connect 16 0 29 0;
#X connect 17 0 18 0;
#X connect 18 0 15 0;
#X connect 18 0 24 1;
#X connect 19 0 18 1;
#X connect 20 0 16 1;
#X connect 21 0 26 0;
#X connect 22 0 23 0;
#X connect 22 1 25 0;
#X connect 23 0 16 1;
#X connect 24 0 113 0;
#X connect 25 0 29 0;
#X connect 25 0 20 0;
#X connect 25 1 27 0;
#X connect 26 0 24 0;
#X connect 27 0 113 0;
#X connect 28 0 7 0;
#X connect 28 1 3 0;
#X connect 29 0 21 0;
#X connect 29 1 17 0;
#X connect 30 0 36 0;
#X connect 31 0 41 0;
#X connect 32 0 42 0;
#X connect 33 0 43 0;
#X connect 34 0 37 0;
#X connect 35 0 34 1;
#X connect 35 0 33 1;
#X connect 35 0 32 1;
#X connect 35 0 31 1;
#X connect 35 0 30 1;
#X connect 36 0 39 0;
#X connect 37 0 38 0;
#X connect 38 0 44 0;
#X connect 39 0 40 0;
#X connect 40 0 45 0;
#X connect 41 0 47 0;
#X connect 42 0 53 0;
#X connect 43 0 55 0;
#X connect 44 0 61 0;
#X connect 45 0 69 0;
#X connect 46 0 45 1;
#X connect 47 0 69 0;
#X connect 48 0 47 1;
#X connect 49 0 46 0;
#X connect 50 0 48 0;
#X connect 51 0 46 0;
#X connect 52 0 48 0;
#X connect 53 0 69 0;
#X connect 54 0 53 1;
#X connect 55 0 69 0;
#X connect 56 0 55 1;
#X connect 57 0 54 0;
#X connect 58 0 56 0;
#X connect 59 0 54 0;
#X connect 60 0 56 0;
#X connect 61 0 69 0;
#X connect 62 0 61 1;
#X connect 63 0 62 0;
#X connect 64 0 62 0;
#X connect 65 0 66 0;
#X connect 65 1 35 0;
#X connect 66 0 49 0;
#X connect 66 0 50 0;
#X connect 66 0 57 0;
#X connect 66 0 58 0;
#X connect 66 0 63 0;
#X connect 66 0 115 0;
#X connect 66 1 63 0;
#X connect 66 1 58 0;
#X connect 66 1 57 0;
#X connect 66 1 50 0;
#X connect 66 1 51 0;
#X connect 66 2 63 0;
#X connect 66 2 58 0;
#X connect 66 2 57 0;
#X connect 66 2 49 0;
#X connect 66 2 52 0;
#X connect 66 3 63 0;
#X connect 66 3 58 0;
#X connect 66 3 49 0;
#X connect 66 3 50 0;
#X connect 66 3 59 0;
#X connect 66 4 63 0;
#X connect 66 4 49 0;
#X connect 66 4 50 0;
#X connect 66 4 57 0;
#X connect 66 4 60 0;
#X connect 66 5 49 0;
#X connect 66 5 50 0;
#X connect 66 5 57 0;
#X connect 66 5 58 0;
#X connect 66 5 64 0;
#X connect 67 0 68 0;
#X connect 68 0 69 1;
#X connect 69 0 99 0;
#X connect 69 0 100 0;
#X connect 69 0 101 0;
#X connect 69 0 102 0;
#X connect 69 0 103 0;
#X connect 69 0 104 0;
#X connect 69 0 105 0;
#X connect 70 0 120 0;
#X connect 71 0 70 1;
#X connect 72 0 121 0;
#X connect 73 0 72 1;
#X connect 74 0 71 0;
#X connect 75 0 73 0;
#X connect 76 0 71 0;
#X connect 77 0 73 0;
#X connect 78 0 122 0;
#X connect 79 0 78 1;
#X connect 80 0 123 0;
#X connect 81 0 80 1;
#X connect 82 0 79 0;
#X connect 83 0 81 0;
#X connect 84 0 79 0;
#X connect 85 0 81 0;
#X connect 86 0 124 0;
#X connect 87 0 86 1;
#X connect 88 0 87 0;
#X connect 89 0 87 0;
#X connect 90 0 75 0;
#X connect 90 0 82 0;
#X connect 90 0 83 0;
#X connect 90 0 88 0;
#X connect 90 0 93 0;
#X connect 90 0 97 0;
#X connect 90 0 76 0;
#X connect 90 1 82 0;
#X connect 90 1 83 0;
#X connect 90 1 88 0;
#X connect 90 1 93 0;
#X connect 90 1 97 0;
#X connect 90 1 74 0;
#X connect 90 1 77 0;
#X connect 90 2 83 0;
#X connect 90 2 88 0;
#X connect 90 2 93 0;
#X connect 90 2 97 0;
#X connect 90 2 74 0;
#X connect 90 2 75 0;
#X connect 90 2 84 0;
#X connect 90 3 88 0;
#X connect 90 3 93 0;
#X connect 90 3 97 0;
#X connect 90 3 74 0;
#X connect 90 3 75 0;
#X connect 90 3 82 0;
#X connect 90 3 85 0;
#X connect 90 4 93 0;
#X connect 90 4 97 0;
#X connect 90 4 74 0;
#X connect 90 4 75 0;
#X connect 90 4 82 0;
#X connect 90 4 83 0;
#X connect 90 4 89 0;
#X connect 90 5 97 0;
#X connect 90 5 74 0;
#X connect 90 5 75 0;
#X connect 90 5 82 0;
#X connect 90 5 83 0;
#X connect 90 5 88 0;
#X connect 90 5 94 0;
#X connect 90 6 74 0;
#X connect 90 6 75 0;
#X connect 90 6 82 0;
#X connect 90 6 83 0;
#X connect 90 6 88 0;
#X connect 90 6 93 0;
#X connect 90 6 98 0;
#X connect 91 0 125 0;
#X connect 92 0 91 1;
#X connect 93 0 92 0;
#X connect 94 0 92 0;
#X connect 95 0 126 0;
#X connect 96 0 95 1;
#X connect 97 0 96 0;
#X connect 98 0 96 0;
#X connect 99 0 106 0;
#X connect 100 0 107 0;
#X connect 101 0 108 0;
#X connect 102 0 109 0;
#X connect 103 0 110 0;
#X connect 104 0 111 0;
#X connect 105 0 95 0;
#X connect 106 0 70 0;
#X connect 107 0 72 0;
#X connect 108 0 78 0;
#X connect 109 0 80 0;
#X connect 110 0 86 0;
#X connect 111 0 91 0;
#X connect 112 0 132 0;
#X connect 113 0 114 0;
#X connect 115 0 97 0;
#X connect 115 0 93 0;
#X connect 115 0 88 0;
#X connect 115 0 83 0;
#X connect 115 0 82 0;
#X connect 115 0 75 0;
#X connect 115 0 74 0;
#X connect 116 0 34 0;
#X connect 116 0 33 0;
#X connect 116 0 32 0;
#X connect 116 0 31 0;
#X connect 116 0 30 0;
#X connect 117 0 65 0;
#X connect 118 0 67 0;
#X connect 119 0 90 0;
#X connect 127 0 22 0;
#X connect 127 0 9 0;
#X connect 128 0 17 1;
#X connect 128 0 19 0;
#X connect 129 0 3 1;
#X connect 129 0 5 0;
#X connect 130 0 13 1;
#X connect 131 0 27 1;
#X restore 327 568 pd LFO4;
#X obj 120 635 my-comp;
#X obj 120 695 outlet~;
#X obj 988 151 s \$0-rel;
#X obj 163 603 r \$0-comp-adsr;
#X connect 0 0 21 0;
#X connect 1 0 46 0;
#X connect 5 0 6 0;
#X connect 6 0 30 0;
#X connect 7 0 41 0;
#X connect 9 0 10 0;
#X connect 10 0 95 0;
#X connect 11 0 12 0;
#X connect 12 0 101 0;
#X connect 13 0 14 0;
#X connect 14 0 104 0;
#X connect 15 0 16 0;
#X connect 16 0 107 0;
#X connect 17 0 97 0;
#X connect 18 0 117 0;
#X connect 19 0 112 0;
#X connect 20 0 111 0;
#X connect 21 0 1 0;
#X connect 22 0 99 0;
#X connect 23 0 115 0;
#X connect 24 0 114 0;
#X connect 25 0 109 0;
#X connect 26 0 27 0;
#X connect 27 0 43 0;
#X connect 28 0 85 0;
#X connect 29 0 83 0;
#X connect 30 0 28 0;
#X connect 31 0 29 0;
#X connect 32 0 84 0;
#X connect 33 0 32 0;
#X connect 34 0 35 0;
#X connect 35 0 33 0;
#X connect 36 0 37 0;
#X connect 37 0 39 0;
#X connect 38 0 87 0;
#X connect 39 0 38 0;
#X connect 40 0 86 0;
#X connect 41 0 40 0;
#X connect 53 0 26 0;
#X connect 54 0 44 0;
#X connect 55 0 45 0;
#X connect 56 0 0 0;
#X connect 57 0 47 0;
#X connect 58 0 48 0;
#X connect 59 0 49 0;
#X connect 60 0 50 0;
#X connect 61 0 51 0;
#X connect 62 0 52 0;
#X connect 63 0 64 0;
#X connect 65 0 150 0;
#X connect 66 0 73 0;
#X connect 67 0 72 0;
#X connect 68 0 71 0;
#X connect 69 0 70 0;
#X connect 74 0 150 0;
#X connect 75 0 73 0;
#X connect 76 0 72 0;
#X connect 77 0 71 0;
#X connect 78 0 31 0;
#X connect 79 0 34 0;
#X connect 80 0 5 0;
#X connect 81 0 7 0;
#X connect 82 0 36 0;
#X connect 88 0 94 0;
#X connect 89 0 9 0;
#X connect 90 0 96 0;
#X connect 91 0 17 0;
#X connect 92 0 98 0;
#X connect 93 0 22 0;
#X connect 118 0 100 0;
#X connect 119 0 11 0;
#X connect 120 0 102 0;
#X connect 121 0 18 0;
#X connect 122 0 116 0;
#X connect 123 0 23 0;
#X connect 124 0 113 0;
#X connect 125 0 24 0;
#X connect 126 0 110 0;
#X connect 127 0 25 0;
#X connect 128 0 20 0;
#X connect 129 0 19 0;
#X connect 130 0 103 0;
#X connect 131 0 15 0;
#X connect 132 0 108 0;
#X connect 133 0 13 0;
#X connect 134 0 105 0;
#X connect 135 0 106 0;
#X connect 136 0 141 0;
#X connect 139 0 140 0;
#X connect 141 0 142 0;
#X connect 142 0 148 0;
#X connect 148 0 149 0;
#X connect 151 0 148 1;
