#N canvas 827 239 734 565 12;
#X obj 345 695 +~ 1;
#X obj 345 655 *~;
#X obj 395 565 *~;
#X obj 440 565 *~;
#X obj 505 1250 outlet~;
#X obj 344 720 *~ 15;
#N canvas 0 50 450 300 waveGen1 0;
#X obj 47 314 *~;
#X msg 69 247 1 20;
#X obj 47 364 outlet~;
#X obj 47 27 inlet~;
#X obj 163 113 hv.osc~ saw;
#X obj 47 113 hv.osc~ sine;
#X obj 161 314 *~;
#X msg 176 247 1 20;
#X msg 219 247 0 20;
#X obj 267 314 *~;
#X msg 287 247 1 20;
#X msg 335 247 0 20;
#X floatatom 183 183 5 0 0 0 - - - 12;
#X obj 183 206 sel 0 1 2;
#X obj 69 278 line~;
#X obj 176 278 line~;
#X obj 287 278 line~;
#X msg 115 247 0 20;
#X obj 296 113 phasor~;
#X obj 296 142 -~ 0.5;
#X obj 296 202 *~ 2;
#X obj 296 172 abs~;
#X text 296 89 triangle;
#X obj 183 155 r \$0-inputWave1;
#X connect 0 0 2 0;
#X connect 1 0 14 0;
#X connect 3 0 5 0;
#X connect 3 0 4 0;
#X connect 3 0 18 0;
#X connect 4 0 6 0;
#X connect 5 0 0 0;
#X connect 6 0 2 0;
#X connect 7 0 15 0;
#X connect 8 0 15 0;
#X connect 9 0 2 0;
#X connect 10 0 16 0;
#X connect 11 0 16 0;
#X connect 12 0 13 0;
#X connect 13 0 1 0;
#X connect 13 0 8 0;
#X connect 13 0 11 0;
#X connect 13 1 7 0;
#X connect 13 1 17 0;
#X connect 13 1 11 0;
#X connect 13 2 10 0;
#X connect 13 2 8 0;
#X connect 13 2 17 0;
#X connect 14 0 0 1;
#X connect 15 0 6 1;
#X connect 16 0 9 1;
#X connect 17 0 14 0;
#X connect 18 0 19 0;
#X connect 19 0 21 0;
#X connect 20 0 9 0;
#X connect 21 0 20 0;
#X connect 23 0 12 0;
#X restore 395 468 pd waveGen1;
#N canvas 0 50 450 300 waveGen2 0;
#X obj 47 314 *~;
#X msg 69 247 1 20;
#X obj 47 364 outlet~;
#X obj 47 27 inlet~;
#X obj 163 113 hv.osc~ saw;
#X obj 47 113 hv.osc~ sine;
#X obj 161 314 *~;
#X msg 176 247 1 20;
#X msg 219 247 0 20;
#X obj 267 314 *~;
#X msg 287 247 1 20;
#X msg 335 247 0 20;
#X floatatom 183 183 5 0 0 0 - - - 12;
#X obj 183 206 sel 0 1 2;
#X obj 69 278 line~;
#X obj 176 278 line~;
#X obj 287 278 line~;
#X msg 115 247 0 20;
#X obj 296 113 phasor~;
#X obj 296 142 -~ 0.5;
#X obj 296 202 *~ 2;
#X obj 296 172 abs~;
#X text 296 89 triangle;
#X obj 183 155 r \$0-inputWave2;
#X connect 0 0 2 0;
#X connect 1 0 14 0;
#X connect 3 0 5 0;
#X connect 3 0 4 0;
#X connect 3 0 18 0;
#X connect 4 0 6 0;
#X connect 5 0 0 0;
#X connect 6 0 2 0;
#X connect 7 0 15 0;
#X connect 8 0 15 0;
#X connect 9 0 2 0;
#X connect 10 0 16 0;
#X connect 11 0 16 0;
#X connect 12 0 13 0;
#X connect 13 0 1 0;
#X connect 13 0 8 0;
#X connect 13 0 11 0;
#X connect 13 1 7 0;
#X connect 13 1 17 0;
#X connect 13 1 11 0;
#X connect 13 2 10 0;
#X connect 13 2 8 0;
#X connect 13 2 17 0;
#X connect 14 0 0 1;
#X connect 15 0 6 1;
#X connect 16 0 9 1;
#X connect 17 0 14 0;
#X connect 18 0 19 0;
#X connect 19 0 21 0;
#X connect 20 0 9 0;
#X connect 21 0 20 0;
#X connect 23 0 12 0;
#X restore 490 468 pd waveGen2;
#X text 405 890 antialliasing filter;
#X obj 291 476 +~;
#X obj 295 507 *~ -1;
#X obj 295 533 +~ 1;
#X obj 505 1097 *~;
#X obj 316 1052 hv.hip~;
#X obj 316 1017 hv.hip~;
#X obj 316 982 hv.hip~;
#X obj 316 947 hv.hip~;
#X obj 295 559 clip~ 0 1;
#X obj 428 516 clip~ 0 1;
#N canvas 0 50 450 300 myEnvelope 0;
#X obj 160 601 delay;
#X obj 91 622 pack;
#X obj 160 638 f;
#X obj 358 351 + 10;
#X obj 455 349 + 10;
#X obj 667 349 + 10;
#X obj 406 162 spigot;
#X obj 91 571 t f b;
#X obj 118 597 f;
#X obj 413 547 sel 0;
#X obj 267 498 f;
#X obj 316 505 t b f;
#X obj 90 548 spigot;
#X obj 316 481 spigot;
#X obj 316 455 t f f;
#X obj 201 609 spigot;
#X obj 201 583 t f f;
#X obj 373 100 spigot;
#X obj 373 74 t f f;
#X obj 513 229 + 5;
#X obj 513 196 random 15;
#X obj 546 349 + 50;
#X text 383 458 APPLIES RANDOM CHANGES TO ADSR;
#X obj 401 196 t b b b b b;
#X obj 201 736 spigot;
#X obj 285 673 loadbang;
#X msg 285 699 1;
#X obj 413 573 t b b b;
#X msg 469 601 0;
#X msg 395 689 stop;
#X obj 455 682 f;
#X msg 455 717 0 \$1;
#X obj 90 522 t f f b;
#X obj 90 488 sel 0;
#X obj 201 556 sel 0;
#X obj 267 530 *;
#X obj 267 556 / 100;
#X obj 358 325 hv.drunk 200;
#X obj 455 324 hv.drunk 200;
#X obj 546 323 hv.drunk 45;
#X obj 667 323 hv.drunk 500;
#X obj 201 796 line~;
#X obj 260 866 s comp-adsr;
#X obj 260 800 line;
#X obj 275 647 pack;
#X obj 267 618 f;
#X obj 160 664 t b f;
#X obj 201 913 outlet~;
#X obj 373 126 bang;
#X obj 201 822 pow~ 2;
#X obj 260 826 pow 2;
#X obj 884 229 loadbang;
#X msg 834 257 30;
#X msg 862 285 65;
#X obj 429 94 r \$0-randEnv;
#X obj 373 45 r \$0-peak;
#X obj 493 491 r \$0-rel;
#X obj 413 491 r \$0-peak;
#X obj 316 618 r \$0-decay;
#X obj 316 405 r \$0-peak;
#X obj 267 437 r \$0-sus;
#X obj 178 505 r \$0-attack;
#X obj 201 530 r \$0-peak;
#X obj 90 459 r \$0-peak;
#X obj 133 571 r \$0-attack;
#X obj 884 255 del 100;
#X obj 862 57 inlet;
#X msg 791 100 symbol \$1-attackRand;
#X msg 801 126 symbol \$1-decayRand;
#X msg 811 152 symbol \$1-sustainRand;
#X msg 821 178 symbol \$1-releaseRand;
#X obj 667 373 s;
#X obj 559 373 s;
#X obj 455 373 s;
#X obj 358 373 s;
#X connect 0 0 2 0;
#X connect 1 0 41 0;
#X connect 1 0 43 0;
#X connect 2 0 46 0;
#X connect 3 0 74 0;
#X connect 4 0 73 0;
#X connect 5 0 71 0;
#X connect 6 0 23 0;
#X connect 7 0 1 0;
#X connect 7 1 8 0;
#X connect 7 1 0 0;
#X connect 8 0 1 1;
#X connect 9 0 27 0;
#X connect 10 0 35 0;
#X connect 11 0 10 0;
#X connect 11 1 35 1;
#X connect 12 0 7 0;
#X connect 13 0 11 0;
#X connect 14 0 13 0;
#X connect 14 1 13 1;
#X connect 15 0 2 1;
#X connect 16 0 15 0;
#X connect 16 1 15 1;
#X connect 17 0 48 0;
#X connect 18 0 17 0;
#X connect 18 1 17 1;
#X connect 19 0 37 2;
#X connect 19 0 38 2;
#X connect 19 0 39 2;
#X connect 19 0 40 2;
#X connect 20 0 19 0;
#X connect 21 0 72 0;
#X connect 23 0 37 0;
#X connect 23 1 38 0;
#X connect 23 2 39 0;
#X connect 23 3 40 0;
#X connect 23 4 20 0;
#X connect 24 0 41 0;
#X connect 24 0 43 0;
#X connect 25 0 26 0;
#X connect 26 0 24 1;
#X connect 27 0 30 0;
#X connect 27 1 29 0;
#X connect 27 2 28 0;
#X connect 28 0 24 1;
#X connect 29 0 43 0;
#X connect 30 0 31 0;
#X connect 31 0 41 0;
#X connect 31 0 43 0;
#X connect 32 0 12 0;
#X connect 32 1 12 1;
#X connect 32 2 26 0;
#X connect 32 2 29 0;
#X connect 33 1 32 0;
#X connect 34 1 16 0;
#X connect 35 0 36 0;
#X connect 36 0 45 1;
#X connect 37 0 3 0;
#X connect 38 0 4 0;
#X connect 39 0 21 0;
#X connect 40 0 5 0;
#X connect 41 0 49 0;
#X connect 43 0 50 0;
#X connect 44 0 24 0;
#X connect 45 0 44 0;
#X connect 46 0 45 0;
#X connect 46 1 24 0;
#X connect 48 0 6 0;
#X connect 49 0 47 0;
#X connect 50 0 42 0;
#X connect 51 0 65 0;
#X connect 52 0 71 0;
#X connect 52 0 73 0;
#X connect 52 0 74 0;
#X connect 53 0 72 0;
#X connect 54 0 6 1;
#X connect 55 0 18 0;
#X connect 56 0 30 1;
#X connect 57 0 9 0;
#X connect 58 0 44 1;
#X connect 59 0 14 0;
#X connect 60 0 10 1;
#X connect 61 0 0 1;
#X connect 62 0 34 0;
#X connect 63 0 33 0;
#X connect 64 0 8 1;
#X connect 65 0 53 0;
#X connect 65 0 52 0;
#X connect 66 0 67 0;
#X connect 66 0 68 0;
#X connect 66 0 69 0;
#X connect 66 0 70 0;
#X connect 67 0 74 1;
#X connect 68 0 73 1;
#X connect 69 0 72 1;
#X connect 70 0 71 1;
#X restore 516 1038 pd myEnvelope;
#X text 721 237 Controls the envelope of the waveshaping modulation;
#X obj 777 460 pack;
#X obj 830 370 del;
#X obj 735 377 f;
#X obj 799 337 t f f;
#X obj 876 460 pack;
#X obj 876 402 f;
#X obj 922 336 / 100;
#X obj 876 428 *;
#X obj 666 301 sel 0;
#X obj 680 591 line~;
#X obj 777 499 spigot;
#X obj 681 337 t b f;
#X msg 668 370 0;
#X obj 982 499 + 10;
#X obj 982 384 spigot;
#X obj 1187 301 spigot;
#X obj 1187 275 t f f;
#X obj 1404 418 + 5;
#X obj 1187 384 spigot;
#X obj 982 473 hv.drunk 9980;
#X obj 1091 473 hv.drunk 9500;
#X obj 1091 498 + 500;
#X obj 1196 499 + 10;
#X obj 1196 473 hv.drunk 90;
#X obj 982 418 t b b b;
#X obj 1187 327 t b b b;
#X obj 1361 418 * 15;
#X obj 1361 384 random 20;
#X obj 1289 473 hv.drunk 1000;
#X obj 1289 499 / 1000;
#X text 1159 248 Randomizes it;
#X obj 826 573 loadbang;
#X obj 653 542 sel 0 1;
#X obj 547 665 *~;
#X obj 587 631 line~;
#X msg 601 600 1 10;
#X msg 587 573 0 10;
#X obj 733 665 *~;
#X obj 773 631 line~;
#X msg 787 600 1 10;
#X msg 773 573 0 10;
#X obj 653 516 r wsCtl;
#X obj 530 548 clip~ 0.1 1;
#X obj 367 230 / 127;
#X msg 317 230 \$1 10;
#X obj 317 265 line~;
#X obj 317 319 mtof~;
#X obj 395 327 -~ 5;
#X obj 680 622 pow~ 2;
#X obj 515 178 sel 0 1;
#X obj 446 221 spigot;
#X msg 498 230 0;
#X msg 498 202 1;
#X obj 414 152 loadbang;
#X obj 525 258 spigot;
#X msg 577 267 0;
#X msg 577 239 1;
#X msg 530 370 1;
#X obj 527 337 bng 25 250 50 0 empty empty empty 17 7 0 10 #191919 #e1e1e1 #e1e1e1;
#X msg 498 370 0;
#X obj 525 284 sel 0;
#X obj 594 377 sqrt;
#X obj 530 522 r lfoWsMaster;
#X obj 317 428 r lfoWaveMixMaster;
#X msg 405 772 set \$1-shapeFunction;
#X msg 141 73 \$1 10;
#X obj 141 99 line~;
#X obj 824 99 / 100;
#X obj 52 44 inlet;
#X obj 52 91 unpack;
#X obj 141 44 inlet;
#X obj 234 59 inlet;
#X obj 294 59 inlet;
#X obj 359 59 inlet;
#X obj 410 59 inlet;
#X obj 454 59 inlet;
#X obj 531 59 inlet;
#X obj 628 59 inlet;
#X obj 746 59 inlet;
#X obj 824 59 inlet;
#X obj 898 59 inlet;
#X obj 981 59 inlet;
#X obj 1061 59 inlet;
#X obj 1167 59 inlet;
#X obj 1276 59 inlet;
#X obj 1389 59 inlet;
#X obj 721 275 r \$0-wsPeak;
#X obj 1025 275 r \$0-wsDecay;
#X obj 910 275 r \$0-wsSustain;
#X obj 812 275 r \$0-wsAttack;
#X obj 1246 384 r \$0-randWsPeak;
#X obj 1048 384 r \$0-randWsEnv;
#X obj 515 152 r \$0-no-sens;
#X obj 607 436 s \$0-peak;
#X obj 666 239 r \$0-peak;
#X obj 410 941 r~ \$0-filterFreq;
#X obj 395 353 s~ \$0-filterFreq;
#X obj 291 403 r~ \$0-waveMix;
#X obj 1276 125 s \$0-randWsEnv;
#X obj 1167 125 s \$0-randWsPeak;
#X obj 1061 125 s \$0-wsSustain;
#X obj 981 125 s \$0-wsDecay;
#X obj 898 125 s \$0-wsAttack;
#X obj 824 125 s \$0-wsPeak;
#X obj 746 125 s \$0-no-sens;
#X obj 628 125 s \$0-inputWave2;
#X obj 531 125 s \$0-inputWave1;
#X obj 454 125 s \$0-randEnv;
#X obj 410 125 s \$0-rel;
#X obj 359 125 s \$0-sus;
#X obj 234 125 s \$0-attack;
#X obj 294 125 s \$0-decay;
#X obj 141 125 s~ \$0-waveMix;
#X obj 1661 310 loadbang;
#X msg 1551 327 100;
#X msg 1569 353 30;
#X msg 1633 403 3500;
#X msg 1587 377 75;
#X obj 982 530 s;
#X obj 1091 528 s;
#X obj 1202 530 s;
#X obj 1316 529 s;
#X msg 1508 175 symbol \$1-wsAttackRand;
#X msg 1526 200 symbol \$1-wsDecayRand;
#X msg 1544 229 symbol \$1-wsSustainRand;
#X msg 1562 258 symbol \$1-wsPeakRand;
#X obj 1661 336 del 100;
#X obj 330 820 tabread~;
#X connect 0 0 5 0;
#X connect 1 0 0 0;
#X connect 2 0 1 0;
#X connect 3 0 1 0;
#X connect 5 0 148 0;
#X connect 6 0 2 0;
#X connect 7 0 3 0;
#X connect 9 0 10 0;
#X connect 9 0 18 0;
#X connect 10 0 11 0;
#X connect 11 0 17 0;
#X connect 12 0 4 0;
#X connect 13 0 12 0;
#X connect 14 0 13 0;
#X connect 15 0 14 0;
#X connect 16 0 15 0;
#X connect 17 0 2 1;
#X connect 18 0 3 1;
#X connect 19 0 12 1;
#X connect 21 0 31 0;
#X connect 22 0 26 0;
#X connect 23 0 21 0;
#X connect 24 0 21 1;
#X connect 24 1 22 1;
#X connect 25 0 31 0;
#X connect 26 0 28 0;
#X connect 27 0 28 1;
#X connect 28 0 25 0;
#X connect 29 0 33 0;
#X connect 29 1 32 0;
#X connect 30 0 69 0;
#X connect 31 0 30 0;
#X connect 32 0 22 0;
#X connect 32 0 23 0;
#X connect 32 1 31 1;
#X connect 33 0 31 1;
#X connect 34 0 139 0;
#X connect 35 0 45 0;
#X connect 36 0 46 0;
#X connect 37 0 36 0;
#X connect 37 1 36 1;
#X connect 38 0 44 2;
#X connect 39 0 49 0;
#X connect 40 0 34 0;
#X connect 41 0 42 0;
#X connect 42 0 140 0;
#X connect 43 0 141 0;
#X connect 44 0 43 0;
#X connect 45 0 40 0;
#X connect 45 1 41 0;
#X connect 45 2 44 0;
#X connect 46 0 35 0;
#X connect 46 1 39 0;
#X connect 46 2 48 0;
#X connect 47 0 41 2;
#X connect 47 0 40 2;
#X connect 47 0 49 2;
#X connect 48 0 38 0;
#X connect 48 0 47 0;
#X connect 49 0 50 0;
#X connect 50 0 142 0;
#X connect 52 0 60 0;
#X connect 53 0 56 0;
#X connect 53 0 61 0;
#X connect 53 1 60 0;
#X connect 53 1 57 0;
#X connect 54 0 1 1;
#X connect 55 0 54 1;
#X connect 56 0 55 0;
#X connect 57 0 55 0;
#X connect 58 0 1 1;
#X connect 59 0 58 1;
#X connect 60 0 59 0;
#X connect 61 0 59 0;
#X connect 62 0 53 0;
#X connect 63 0 54 0;
#X connect 64 0 71 0;
#X connect 64 0 75 0;
#X connect 65 0 66 0;
#X connect 66 0 67 0;
#X connect 67 0 6 0;
#X connect 67 0 7 0;
#X connect 67 0 68 0;
#X connect 68 0 117 0;
#X connect 69 0 58 0;
#X connect 70 0 73 0;
#X connect 70 0 76 0;
#X connect 70 1 77 0;
#X connect 70 1 72 0;
#X connect 71 0 82 0;
#X connect 72 0 71 1;
#X connect 73 0 71 1;
#X connect 74 0 73 0;
#X connect 75 0 81 0;
#X connect 76 0 75 1;
#X connect 77 0 75 1;
#X connect 78 0 114 0;
#X connect 79 0 78 0;
#X connect 80 0 114 0;
#X connect 81 0 80 0;
#X connect 81 1 79 0;
#X connect 82 0 114 0;
#X connect 85 0 148 0;
#X connect 86 0 87 0;
#X connect 87 0 133 0;
#X connect 88 0 124 0;
#X connect 89 0 90 0;
#X connect 90 0 65 0;
#X connect 90 1 64 0;
#X connect 91 0 86 0;
#X connect 92 0 131 0;
#X connect 93 0 132 0;
#X connect 94 0 130 0;
#X connect 95 0 129 0;
#X connect 96 0 128 0;
#X connect 97 0 127 0;
#X connect 98 0 126 0;
#X connect 99 0 125 0;
#X connect 100 0 88 0;
#X connect 101 0 123 0;
#X connect 102 0 122 0;
#X connect 103 0 121 0;
#X connect 104 0 120 0;
#X connect 105 0 119 0;
#X connect 106 0 85 0;
#X connect 106 0 143 0;
#X connect 106 0 144 0;
#X connect 106 0 145 0;
#X connect 106 0 146 0;
#X connect 106 0 19 0;
#X connect 107 0 26 1;
#X connect 107 0 23 1;
#X connect 108 0 25 1;
#X connect 109 0 27 0;
#X connect 110 0 24 0;
#X connect 111 0 39 1;
#X connect 112 0 35 1;
#X connect 113 0 70 0;
#X connect 115 0 29 0;
#X connect 115 0 37 0;
#X connect 116 0 16 1;
#X connect 116 0 15 1;
#X connect 116 0 14 1;
#X connect 116 0 13 1;
#X connect 118 0 9 0;
#X connect 134 0 147 0;
#X connect 135 0 142 0;
#X connect 136 0 139 0;
#X connect 137 0 140 0;
#X connect 138 0 141 0;
#X connect 143 0 139 1;
#X connect 144 0 140 1;
#X connect 145 0 141 1;
#X connect 146 0 142 1;
#X connect 147 0 138 0;
#X connect 147 0 136 0;
#X connect 147 0 135 0;
#X connect 147 0 137 0;
#X connect 148 0 16 0;
