#N canvas 827 239 734 565 12;
#X obj 336 672 diceTone-origin;
#X obj 336 698 outlet~;
#X obj 613 158 random 100;
#X obj 613 212 / 50;
#X obj 613 237 - 1;
#X obj 718 435 line;
#X obj 731 300 delay;
#X obj 731 271 t b f;
#X obj 613 106 t b b b;
#X obj 732 334 spigot;
#X obj 824 181 t f f;
#X obj 718 385 pack f f f;
#X msg 718 410 \$1 \, \$2 \$3;
#X obj 719 158 random 500;
#X obj 718 204 + 100;
#X obj 696 105 / 10;
#X obj 824 157 random 25;
#X text 562 9 CREATES RANDOM CHANGES TO SHAPING FUNCTION;
#X obj 613 49 loadbang;
#X msg 791 310 1;
#N canvas 0 0 450 300 (subpatch) 0;
#X array \$0-shapeFunction 25 float 1;
#A 0 0.216079 0.92 -0.54 -0.196935 0.22 -0.64298 -0.6 -0.18 0.437929 -0.539956 0.16 -0.52 -0.368004 -0.0963813 -0.14 0.12 0.500587 0.422694 -0.295247 -0.758267 0.770394 -0.928235 -0.26 0.369239 0.08;
#X coords 0 1 24 -1 112 81 1;
#X restore 185 190 graph;
#X obj 16 86 tgl 39 0 empty empty velocity\ off -5 -9 0 9 #191919 #e1e1e1 #e1e1e1 0 1;
#X obj 148 35 knob 60 0 1 0 0.5 empty empty #191919 #696969 #E1E1E1 1 0 0 0 1 270 0 0 0 empty empty 1 14 19 46 0 1 0 0;
#X obj 122 35 vradio 20 1 1 3 empty empty empty 0 -8 0 10 #191919 #e1e1e1 #e1e1e1 0;
#X text 89 34 sine;
#X text 90 55 saw;
#X text 70 76 triangle;
#X obj 215 35 vradio 20 1 1 3 empty empty empty 0 -8 0 10 #191919 #e1e1e1 #e1e1e1 3;
#X text 236 34 sine;
#X text 237 55 saw;
#X text 237 76 triangle;
#X obj 73 107 hsl 165 18 0 1 0 0 empty empty change\ rate 2 8 0 10 #191919 #e1e1e1 #e1e1e1 0 1;
#X text 147 14 wave mix;
#X floatatom 245 107 7 0 0 0 - - - 12;
#X floatatom 7 146 5 10 210 2 attack \$0-attackRand - 12;
#X floatatom 50 146 5 10 210 2 decay \$0-decayRand - 12;
#X floatatom 93 146 5 0 100 2 sustain \$0-sustainRand - 12;
#X floatatom 136 146 5 10 510 2 release \$0-releaseRand - 12;
#X obj 185 141 tgl 29 0 empty empty rand\ adsr -8 -8 0 10 #191919 #e1e1e1 #e1e1e1 0 1;
#X floatatom 7 205 5 0 100 2 ws\ peak \$0-wsPeakRand - 12;
#X floatatom 63 205 5 10 10000 2 ws\ attack \$0-wsAttackRand - 12;
#X floatatom 7 242 5 500 10000 2 ws\ decay \$0-wsDecayRand - 12;
#X floatatom 63 242 5 10 100 2 ws\ sustain \$0-wsSustainRand - 12;
#X obj 135 212 tgl 21 0 empty empty rand\ ws\ env -15 -8 0 10 #191919 #e1e1e1 #e1e1e1 0 1;
#X obj 135 249 tgl 21 0 empty empty rand\ ws\ peak -16 -8 0 10 #191919 #e1e1e1 #e1e1e1 0 1;
#X text 7 174 WAVESHAPE CONTROL;
#X obj 718 472 tabwrite \$0-shapeFunction;
#X obj 824 209 tabread \$0-shapeFunction;
#X obj 554 284 f \$0;
#X obj -93 -10 inlet;
#X obj 744 96 * 10000;
#X obj 744 67 + 0.04;
#X obj 526 416 pow 2;
#X obj 526 471 * 10000;
#X obj 526 442 + 0.04;
#X obj 508 -72 loadbang;
#X msg 426 -32 0.2;
#X obj 16 24 vradio 20 1 0 2 empty empty empty 0 -8 0 10 #191919 #e1e1e1 #e1e1e1 0;
#X text 40 23 mono;
#X text 40 45 poly;
#X msg 402 -60 0;
#X msg 481 18 3;
#X floatatom 575 335 5 0 0 0 - - - 12;
#X obj -102 184 spigot;
#X msg -77 156 0;
#X msg -51 156 1;
#X obj -229 184 spigot;
#X msg -178 156 0;
#X msg -152 156 1;
#X obj -111 77 sel 0 1;
#X obj -229 210 mono;
#X obj -229 236 pack;
#X obj -102 236 pack f f f;
#X obj -102 210 poly 4 1;
#X msg -121 156 stop;
#X msg -224 156 flush;
#X obj -81 106 t b b;
#X obj -137 106 t b b;
#X obj -82 672 clone -s 1 diceTone-origin 4;
#X msg -209 556 all \$1;
#X msg -152 556 all \$1;
#X msg -95 556 all \$1;
#X msg -42 556 all \$1;
#X msg 15 556 all \$1;
#X msg 72 556 all \$1;
#X msg 125 556 all \$1;
#X msg 171 556 all \$1;
#X msg -175 589 all \$1;
#X msg -118 589 all \$1;
#X msg -61 589 all \$1;
#X msg -8 589 all \$1;
#X msg 49 589 all \$1;
#X msg 106 589 all \$1;
#X msg 159 589 all \$1;
#X msg 205 589 all \$1;
#X obj -246 9 r notes;
#X connect 0 0 1 0;
#X connect 2 0 3 0;
#X connect 3 0 4 0;
#X connect 4 0 11 1;
#X connect 5 0 46 0;
#X connect 6 0 9 0;
#X connect 7 0 6 0;
#X connect 7 1 6 1;
#X connect 8 0 2 0;
#X connect 8 1 13 0;
#X connect 8 2 16 0;
#X connect 9 0 8 0;
#X connect 10 0 47 0;
#X connect 10 1 46 1;
#X connect 11 0 12 0;
#X connect 12 0 5 0;
#X connect 13 0 14 0;
#X connect 14 0 7 0;
#X connect 14 0 11 2;
#X connect 15 0 14 1;
#X connect 16 0 10 0;
#X connect 18 0 19 0;
#X connect 18 0 8 0;
#X connect 18 0 48 0;
#X connect 19 0 9 1;
#X connect 21 0 87 0;
#X connect 21 0 0 9;
#X connect 22 0 79 0;
#X connect 22 0 0 1;
#X connect 23 0 85 0;
#X connect 23 0 0 7;
#X connect 27 0 86 0;
#X connect 27 0 0 8;
#X connect 31 0 51 0;
#X connect 31 0 52 0;
#X connect 34 0 80 0;
#X connect 34 0 0 2;
#X connect 35 0 81 0;
#X connect 35 0 0 3;
#X connect 36 0 82 0;
#X connect 36 0 0 4;
#X connect 37 0 83 0;
#X connect 37 0 0 5;
#X connect 38 0 84 0;
#X connect 38 0 0 6;
#X connect 39 0 88 0;
#X connect 39 0 0 10;
#X connect 40 0 89 0;
#X connect 40 0 0 11;
#X connect 41 0 90 0;
#X connect 41 0 0 12;
#X connect 42 0 91 0;
#X connect 42 0 0 13;
#X connect 43 0 93 0;
#X connect 43 0 0 15;
#X connect 44 0 92 0;
#X connect 44 0 0 14;
#X connect 47 0 11 0;
#X connect 48 0 62 0;
#X connect 48 0 94 0;
#X connect 48 0 0 16;
#X connect 49 0 66 0;
#X connect 49 0 63 0;
#X connect 50 0 13 1;
#X connect 50 0 15 0;
#X connect 51 0 50 0;
#X connect 52 0 54 0;
#X connect 53 0 33 0;
#X connect 54 0 53 0;
#X connect 55 0 56 0;
#X connect 55 0 60 0;
#X connect 55 0 61 0;
#X connect 56 0 31 0;
#X connect 57 0 69 0;
#X connect 60 0 23 0;
#X connect 60 0 57 0;
#X connect 60 0 21 0;
#X connect 60 0 38 0;
#X connect 60 0 43 0;
#X connect 60 0 44 0;
#X connect 61 0 27 0;
#X connect 63 0 73 0;
#X connect 64 0 63 1;
#X connect 65 0 63 1;
#X connect 66 0 70 0;
#X connect 67 0 66 1;
#X connect 68 0 66 1;
#X connect 69 0 77 0;
#X connect 69 1 76 0;
#X connect 70 0 71 0;
#X connect 70 1 71 1;
#X connect 71 0 0 0;
#X connect 72 0 78 0;
#X connect 73 0 72 0;
#X connect 73 1 72 1;
#X connect 73 2 72 2;
#X connect 74 0 73 0;
#X connect 75 0 70 0;
#X connect 76 0 75 0;
#X connect 76 1 65 0;
#X connect 76 1 67 0;
#X connect 77 0 74 0;
#X connect 77 1 68 0;
#X connect 77 1 64 0;
#X connect 78 0 1 0;
#X connect 79 0 78 1;
#X connect 80 0 78 2;
#X connect 81 0 78 3;
#X connect 82 0 78 4;
#X connect 83 0 78 5;
#X connect 84 0 78 6;
#X connect 85 0 78 7;
#X connect 86 0 78 8;
#X connect 87 0 78 9;
#X connect 88 0 78 10;
#X connect 89 0 78 11;
#X connect 90 0 78 12;
#X connect 91 0 78 13;
#X connect 92 0 78 14;
#X connect 93 0 78 15;
#X connect 94 0 78 16;
#X connect 95 0 63 0;
#X connect 95 0 66 0;
#X coords 0 0 1 1 308 281 1 0 0;
