#N canvas 827 239 734 565 12;
#X obj 704 222 /;
#X obj 704 167 t b f;
#X obj 677 250 metro;
#X msg 704 192 60000;
#X obj 677 275 f 0;
#X obj 705 275 + 1;
#X obj 677 353 % 5;
#X obj 398 736 outlet;
#X text 387 756 downbeat;
#X obj 468 737 outlet;
#X text 468 756 otherbeats;
#X obj 657 167 sel 0;
#X msg 666 193 0;
#X obj 726 382 + 0;
#X text 124 -56 offfset;
#X obj 124 -35 inlet;
#X obj 596 -23 random 15;
#X obj 598 2 + 1;
#X obj 779 403 *;
#X obj 779 430 % 5;
#X obj 779 455 <;
#X obj 779 480 sel 1;
#X obj 574 731 outlet;
#X text 574 756 euclidean;
#X obj 674 737 outlet;
#X text 674 762 nohits;
#X obj 544 -23 - 1;
#X obj 478 -64 random 14;
#X obj 478 -39 + 3;
#X obj 596 -64 t b f b;
#X obj 433 -89 loadbang;
#X msg 433 -64 60;
#X obj 677 447 sel 0;
#X text 14 -56 BPM;
#X obj 14 -35 inlet;
#X obj 67 -35 inlet;
#X text 67 -56 ON/OFF;
#X obj 7 18 tgl 25 0 empty empty onoff 1 7 0 10 #191919 #e1e1e1 #e1e1e1 0 1;
#X obj 49 18 bng 25 250 50 0 empty empty lineup 0 7 0 10 #191919 #e1e1e1 #e1e1e1;
#X obj 7 90 bng 25 250 50 0 empty empty downbeat -9 7 0 10 #191919 #e1e1e1 #e1e1e1;
#X floatatom 105 25 5 1 0 0 bpm - - 12;
#X floatatom 105 58 5 1 16 0 hits - - 12;
#X floatatom 37 58 5 3 17 0 beats - - 12;
#X obj 257 531 >;
#X obj 257 496 t b f;
#X obj 197 573 spigot;
#X obj 257 573 spigot;
#X obj 47 90 bng 25 250 50 0 empty empty empty 0 7 0 10 #191919 #e1e1e1 #e1e1e1;
#X obj 90 90 bng 25 250 50 0 empty empty hits 4 7 0 10 #191919 #e1e1e1 #e1e1e1;
#X obj 130 90 bng 25 250 50 0 empty empty no\ hits -2 7 0 10 #191919 #e1e1e1 #e1e1e1;
#X obj 531 90 sel 0;
#X connect 0 0 2 1;
#X connect 1 0 3 0;
#X connect 1 0 12 0;
#X connect 1 1 0 1;
#X connect 2 0 4 0;
#X connect 3 0 0 0;
#X connect 4 0 5 0;
#X connect 4 0 6 0;
#X connect 5 0 4 1;
#X connect 6 0 13 0;
#X connect 6 0 32 0;
#X connect 11 0 12 0;
#X connect 12 0 4 1;
#X connect 13 0 18 0;
#X connect 15 0 13 1;
#X connect 16 0 17 0;
#X connect 17 0 41 0;
#X connect 18 0 19 0;
#X connect 19 0 20 0;
#X connect 20 0 21 0;
#X connect 21 0 48 0;
#X connect 21 1 49 0;
#X connect 26 0 29 0;
#X connect 27 0 28 0;
#X connect 28 0 26 0;
#X connect 28 0 42 0;
#X connect 29 0 16 0;
#X connect 29 1 16 1;
#X connect 30 0 31 0;
#X connect 30 0 27 0;
#X connect 31 0 40 0;
#X connect 32 0 39 0;
#X connect 32 1 47 0;
#X connect 34 0 40 0;
#X connect 35 0 37 0;
#X connect 37 0 11 0;
#X connect 37 0 2 0;
#X connect 38 0 40 0;
#X connect 39 0 7 0;
#X connect 40 0 50 0;
#X connect 41 0 45 0;
#X connect 41 0 18 1;
#X connect 41 0 43 0;
#X connect 41 0 20 1;
#X connect 42 0 44 0;
#X connect 42 0 46 0;
#X connect 42 0 6 1;
#X connect 42 0 19 1;
#X connect 43 0 45 1;
#X connect 43 0 46 1;
#X connect 44 0 43 0;
#X connect 44 1 43 1;
#X connect 45 0 42 0;
#X connect 46 0 41 0;
#X connect 47 0 9 0;
#X connect 48 0 22 0;
#X connect 49 0 24 0;
#X connect 50 1 1 0;
#X coords 0 0 1 1 161 119 1 0 0;
