#N canvas 827 239 734 565 12;
#X obj 510 387 soundfiler;
#X floatatom 510 412 17 0 0 0 - - - 0;
#N canvas 0 0 450 300 (subpatch) 0;
#X array grainSample1 540000 float 0;
#X coords 0 1 539999 -1 200 140 1;
#X restore 488 42 graph;
#X obj 240 32 vradio 20 0 0 5 empty empty sample 0 -8 0 10 #fcfcfc #000000 #fcfcfc 0;
#X msg 510 235 bell.wav;
#X obj 510 306 symbol;
#X obj 420 692 *~;
#X text 470 554 Start;
#X floatatom 421 555 7 0 0 0 - - - 0;
#X obj 420 502 metro 100;
#X obj 420 527 random 540000;
#X obj 579 694 *~;
#X text 629 556 Start;
#X floatatom 580 557 7 0 0 0 - - - 0;
#X obj 579 504 metro 100;
#X obj 579 529 random 540000;
#X text 447 473 L;
#X text 608 479 R;
#X msg 421 579 next \$1;
#X msg 580 581 next \$1;
#X obj 421 1073 outlet~;
#X obj 580 1069 outlet~;
#X obj 602 667 vline~;
#X msg 604 640 1 10 \, 0 200 25;
#X obj 338 866 *~;
#X obj 694 884 *~;
#X obj 349 772 * 10;
#X obj 678 788 * 10;
#X obj 472 726 delwrite~ grain-L 1000;
#X obj 619 725 delwrite~ grain-R 1000;
#X obj 427 841 delread~ grain-L 0;
#X obj 551 841 delread~ grain-R 0;
#X obj 347 605 f;
#X obj 707 605 f;
#X obj 347 630 s grain1randL;
#X obj 707 630 s grain1randR;
#X msg 470 358 read -resize samples/\$1 grainSample1;
#X obj 421 602 clone myGrain 32;
#X obj 580 614 clone myGrain 32;
#X obj 22 100 bng 39 250 50 0 empty empty hit 12 -7 0 14 #191919 #e1e1e1 #e1e1e1;
#X text 264 111 sampler;
#X text 264 49 poly;
#X text 264 71 talker;
#X text 264 93 swarm;
#X text 264 31 bell;
#X msg 525 260 poly.wav;
#X msg 541 285 talker.wav;
#X msg 559 306 swarm.wav;
#X obj 12 -70 inlet;
#X obj 328 41 vradio 20 0 0 4 empty empty env 0 -8 0 10 #fcfcfc #000000 #fcfcfc 0;
#X text 352 40 saw;
#X text 352 58 invSaw;
#X text 352 80 ramp;
#X text 352 102 crown;
#X obj 79 39 knob 39 50 170 0 110 empty empty #191919 #696969 #E1E1E1 1 0 0 0 0 270 0 0 50 empty empty 0 12 6 -15 0 1 0 0;
#X text 69 21 grain dur;
#X obj 79 100 knob 39 0.1 2.5 0 1.3 empty empty #191919 #696969 #E1E1E1 1 0 0 0 0 270 0 0 0.1 empty empty 0 12 6 -15 0 1 0 0;
#X text 68 82 grain spd;
#X msg 56 324 all \$1;
#X msg 113 324 all \$1;
#X msg 170 324 all \$1;
#X obj 138 39 knob 39 0 100 0 50 empty empty #191919 #696969 #E1E1E1 1 0 0 0 0 270 0 0 50 empty empty 0 12 6 -15 0 1 0 0;
#X text 141 20 del L;
#X obj 186 39 knob 39 0 100 0 50 empty empty #191919 #696969 #E1E1E1 1 0 0 0 0 270 0 0 50 empty empty 0 12 6 -15 0 1 0 0;
#X text 186 20 del R;
#X obj 138 100 knob 39 0.1 0.8 0 0.45 empty empty #191919 #696969 #E1E1E1 1 0 0 0 0 270 0 0 0.8 empty empty 0 12 6 -15 0 1 0 0;
#X text 138 81 fbk L;
#X obj 186 100 knob 39 0.1 0.8 0 0.45 empty empty #191919 #696969 #E1E1E1 1 0 0 0 0 270 0 0 0.8 empty empty 0 12 6 -15 0 1 0 0;
#X text 186 81 fbk R;
#X obj 22 39 tgl 39 0 empty empty on/off 1 -8 0 14 #191919 #e1e1e1 #e1e1e1 0 1;
#X obj 775 16 loadbang;
#X msg 775 42 0;
#X obj 761 323 int;
#X obj 722 358 f;
#X obj 510 210 sel 0 1 2 3 4;
#X obj 846 466 spigot;
#X msg 846 295 0;
#X msg 873 313 1;
#X obj 795 243 t b b b;
#X msg 655 424 480000;
#X obj 510 437 t f b;
#X msg 761 536 all \$1;
#X msg 678 480 grainSample1;
#X msg 750 390 sample-\$1;
#X obj 765 510 symbol;
#X msg 736 185 1;
#X msg 761 185 2;
#X msg 786 185 3;
#X msg 811 185 4;
#X obj 264 131 bng 22 250 50 0 empty empty 1 9 13 0 17 #191919 #e1e1e1 #e1e1e1;
#X obj 294 131 bng 22 250 50 0 empty empty 2 9 13 0 17 #191919 #e1e1e1 #e1e1e1;
#X obj 323 131 bng 22 250 50 0 empty empty 3 9 13 0 17 #191919 #e1e1e1 #e1e1e1;
#X obj 350 131 bng 22 250 50 0 empty empty 4 9 13 0 17 #191919 #e1e1e1 #e1e1e1;
#X connect 0 0 1 0;
#X connect 1 0 80 0;
#X connect 3 0 74 0;
#X connect 4 0 5 0;
#X connect 5 0 36 0;
#X connect 6 0 28 0;
#X connect 6 0 20 0;
#X connect 8 0 18 0;
#X connect 8 0 32 1;
#X connect 9 0 10 0;
#X connect 10 0 8 0;
#X connect 11 0 29 0;
#X connect 11 0 21 0;
#X connect 13 0 19 0;
#X connect 13 0 33 1;
#X connect 14 0 15 0;
#X connect 15 0 13 0;
#X connect 18 0 37 0;
#X connect 19 0 38 0;
#X connect 22 0 11 1;
#X connect 22 0 6 1;
#X connect 23 0 22 0;
#X connect 24 0 28 0;
#X connect 25 0 29 0;
#X connect 26 0 30 0;
#X connect 27 0 31 0;
#X connect 30 0 24 0;
#X connect 30 0 20 0;
#X connect 31 0 25 0;
#X connect 31 0 21 0;
#X connect 32 0 34 0;
#X connect 33 0 35 0;
#X connect 36 0 0 0;
#X connect 37 0 6 0;
#X connect 38 0 11 0;
#X connect 39 0 23 0;
#X connect 39 0 32 0;
#X connect 39 0 33 0;
#X connect 45 0 5 0;
#X connect 46 0 5 0;
#X connect 47 0 5 0;
#X connect 48 0 39 0;
#X connect 49 0 60 0;
#X connect 54 0 58 0;
#X connect 56 0 59 0;
#X connect 58 0 37 1;
#X connect 58 0 38 1;
#X connect 59 0 37 2;
#X connect 59 0 38 2;
#X connect 60 0 37 3;
#X connect 60 0 38 3;
#X connect 61 0 26 0;
#X connect 63 0 27 0;
#X connect 65 0 24 1;
#X connect 67 0 25 1;
#X connect 69 0 9 0;
#X connect 69 0 14 0;
#X connect 70 0 71 0;
#X connect 70 0 89 0;
#X connect 71 0 49 0;
#X connect 71 0 3 0;
#X connect 72 0 83 0;
#X connect 72 0 73 1;
#X connect 73 0 83 0;
#X connect 74 0 4 0;
#X connect 74 0 76 0;
#X connect 74 1 45 0;
#X connect 74 1 76 0;
#X connect 74 2 46 0;
#X connect 74 2 76 0;
#X connect 74 3 47 0;
#X connect 74 3 76 0;
#X connect 74 4 78 0;
#X connect 75 0 84 0;
#X connect 76 0 75 1;
#X connect 77 0 75 1;
#X connect 78 0 73 0;
#X connect 78 1 77 0;
#X connect 78 2 79 0;
#X connect 79 0 15 1;
#X connect 79 0 10 1;
#X connect 80 0 15 1;
#X connect 80 0 10 1;
#X connect 80 1 82 0;
#X connect 81 0 38 4;
#X connect 81 0 37 4;
#X connect 82 0 84 0;
#X connect 83 0 75 0;
#X connect 84 0 81 0;
#X connect 85 0 72 0;
#X connect 86 0 72 0;
#X connect 87 0 72 0;
#X connect 88 0 72 0;
#X connect 89 0 85 0;
#X connect 90 0 86 0;
#X connect 91 0 88 0;
#X connect 92 0 88 0;
#X coords 0 0 1 1 409 158 1 0 1;
