#N canvas 827 239 734 565 12;
#X obj 410 239 adc~;
#X obj 410 326 *~;
#X msg 460 300 \$1 10;
#X obj 460 326 line~;
#N canvas 0 50 450 300 vu 0;
#X obj 710 374 env~ 1024;
#X obj 812 356 abs~;
#X obj 812 458 snapshot~;
#X obj 812 501 rmstodb;
#X obj 615 263 inlet~;
#X obj 812 533 - 100;
#X obj 710 532 - 100;
#X obj 890 334 expr 1000 / $f1;
#X floatatom 890 362 5 0 0 0 - - - 0;
#X obj 812 391 slop~ 0 0 0 0 1e+09;
#X text 933 363 hz;
#X obj 710 416 t f b;
#X obj 890 263 loadbang;
#X msg 890 289 300;
#X text 680 319 from pd example inside vu-help.pd;
#X msg 852 289 0;
#X obj 710 558 outlet;
#X obj 812 559 outlet;
#X connect 0 0 11 0;
#X connect 1 0 9 0;
#X connect 2 0 3 0;
#X connect 3 0 5 0;
#X connect 4 0 0 0;
#X connect 4 0 1 0;
#X connect 5 0 17 0;
#X connect 6 0 16 0;
#X connect 7 0 8 0;
#X connect 8 0 9 3;
#X connect 9 0 2 0;
#X connect 11 0 6 0;
#X connect 11 1 2 0;
#X connect 12 0 13 0;
#X connect 12 0 15 0;
#X connect 13 0 7 0;
#X restore -59 -38 pd vu;
#X obj 460 273 * 3;
#X obj 8 25 vu 20 120 empty mic 3 -8 0 10 #404040 #e1e1e1 1 0;
#X obj 55 27 vsl 19 97 0 1 0 0 empty empty mic\ vol -5 -11 0 10 #191919 #e1e1e1 #e1e1e1 0 1;
#X floatatom 52 127 4 0 0 0 - - - 12;
#X obj 24 418 outlet~;
#X text 24 444 mic out;
#X floatatom 101 92 4 0 0 2 note - - 12;
#X floatatom 101 123 4 0 0 2 vel - - 12;
#X obj 126 419 outlet;
#X text 126 445 note/vel;
#X obj 352 -70 notein;
#X obj 352 -12 pack;
#X text 101 9 MIDI;
#X obj 157 32 knob 18 0 127 0 0 empty empty #191919 #696969 #E1E1E1 1 0 0 0 1 270 0 0 0 empty empty 0 12 6 -15 0 1 0 0;
#X obj 180 32 knob 18 0 127 0 0 empty empty #191919 #696969 #E1E1E1 1 0 0 0 1 270 0 0 0 empty empty 0 12 6 -15 0 1 0 0;
#X obj 203 32 knob 18 0 127 0 0 empty empty #191919 #696969 #E1E1E1 1 0 0 0 1 270 0 0 0 empty empty 0 12 6 -15 0 1 0 0;
#X obj 226 32 knob 18 0 127 0 0 empty empty #191919 #696969 #E1E1E1 1 0 0 0 1 270 0 0 0 empty empty 0 12 6 -15 0 1 0 0;
#X obj 249 32 knob 18 0 127 0 0 empty empty #191919 #696969 #E1E1E1 1 0 0 0 1 270 0 0 0 empty empty 0 12 6 -15 0 1 0 0;
#X obj 272 32 knob 18 0 127 0 0 empty empty #191919 #696969 #E1E1E1 1 0 0 0 1 270 0 0 0 empty empty 0 12 6 -15 0 1 0 0;
#X obj 295 32 knob 18 0 127 0 0 empty empty #191919 #696969 #E1E1E1 1 0 0 0 1 270 0 0 0 empty empty 0 12 6 -15 0 1 0 0;
#X obj 318 32 knob 18 0 127 0 0 empty empty #191919 #696969 #E1E1E1 1 0 0 0 1 270 0 0 0 empty empty 0 12 6 -15 0 1 0 0;
#X obj 157 56 knob 18 0 127 0 0 empty empty #191919 #696969 #E1E1E1 1 0 0 0 1 270 0 0 0 empty empty 0 12 6 -15 0 1 0 0;
#X obj 180 56 knob 18 0 127 0 0 empty empty #191919 #696969 #E1E1E1 1 0 0 0 1 270 0 0 0 empty empty 0 12 6 -15 0 1 0 0;
#X obj 203 56 knob 18 0 127 0 0 empty empty #191919 #696969 #E1E1E1 1 0 0 0 1 270 0 0 0 empty empty 0 12 6 -15 0 1 0 0;
#X obj 226 56 knob 18 0 127 0 0 empty empty #191919 #696969 #E1E1E1 1 0 0 0 1 270 0 0 0 empty empty 0 12 6 -15 0 1 0 0;
#X obj 249 56 knob 18 0 127 0 0 empty empty #191919 #696969 #E1E1E1 1 0 0 0 1 270 0 0 0 empty empty 0 12 6 -15 0 1 0 0;
#X obj 272 56 knob 18 0 127 0 0 empty empty #191919 #696969 #E1E1E1 1 0 0 0 1 270 0 0 0 empty empty 0 12 6 -15 0 1 0 0;
#X obj 295 56 knob 18 0 127 0 0 empty empty #191919 #696969 #E1E1E1 1 0 0 0 1 270 0 0 0 empty empty 0 12 6 -15 0 1 0 0;
#X obj 318 56 knob 18 0 127 0 0 empty empty #191919 #696969 #E1E1E1 1 0 0 0 1 270 0 0 0 empty empty 0 12 6 -15 0 1 0 0;
#X obj 140 32 bng 18 250 50 0 empty empty empty 17 7 0 10 #191919 #e1e1e1 #e1e1e1;
#X obj 140 56 bng 18 250 50 0 empty empty empty 17 7 0 10 #191919 #e1e1e1 #e1e1e1;
#X obj 0 -38 bendin;
#X obj 101 34 vsl 12 37 0 16383 0 0 empty empty empty 0 -9 0 10 #191919 #e1e1e1 #e1e1e1 0 1;
#X obj 119 34 vsl 12 37 0 127 0 0 empty empty empty 0 -9 0 10 #191919 #e1e1e1 #e1e1e1 0 1;
#X obj 140 92 bng 18 250 50 0 empty empty empty 17 7 0 10 #191919 #e1e1e1 #e1e1e1;
#X obj 140 123 bng 18 250 50 0 empty empty empty 17 7 0 10 #191919 #e1e1e1 #e1e1e1;
#X obj 165 92 bng 18 250 50 0 empty empty empty 17 7 0 10 #191919 #e1e1e1 #e1e1e1;
#X obj 165 123 bng 18 250 50 0 empty empty empty 17 7 0 10 #191919 #e1e1e1 #e1e1e1;
#X obj 190 92 bng 18 250 50 0 empty empty empty 17 7 0 10 #191919 #e1e1e1 #e1e1e1;
#X obj 190 123 bng 18 250 50 0 empty empty empty 17 7 0 10 #191919 #e1e1e1 #e1e1e1;
#X obj 215 92 bng 18 250 50 0 empty empty empty 17 7 0 10 #191919 #e1e1e1 #e1e1e1;
#X obj 215 123 bng 18 250 50 0 empty empty empty 17 7 0 10 #191919 #e1e1e1 #e1e1e1;
#X obj 240 92 bng 18 250 50 0 empty empty empty 17 7 0 10 #191919 #e1e1e1 #e1e1e1;
#X obj 240 123 bng 18 250 50 0 empty empty empty 17 7 0 10 #191919 #e1e1e1 #e1e1e1;
#X obj 265 92 bng 18 250 50 0 empty empty empty 17 7 0 10 #191919 #e1e1e1 #e1e1e1;
#X obj 265 123 bng 18 250 50 0 empty empty empty 17 7 0 10 #191919 #e1e1e1 #e1e1e1;
#X obj 290 92 bng 18 250 50 0 empty empty empty 17 7 0 10 #191919 #e1e1e1 #e1e1e1;
#X obj 290 123 bng 18 250 50 0 empty empty empty 17 7 0 10 #191919 #e1e1e1 #e1e1e1;
#X obj 318 92 bng 18 250 50 0 empty empty empty 17 7 0 10 #191919 #e1e1e1 #e1e1e1;
#X obj 318 123 bng 18 250 50 0 empty empty empty 17 7 0 10 #191919 #e1e1e1 #e1e1e1;
#X obj 62 -38 mono;
#X obj 352 56 s notes;
#X connect 0 0 1 0;
#X connect 1 0 9 0;
#X connect 1 0 4 0;
#X connect 2 0 3 0;
#X connect 3 0 1 1;
#X connect 4 0 6 0;
#X connect 4 1 6 1;
#X connect 5 0 2 0;
#X connect 7 0 8 0;
#X connect 8 0 5 0;
#X connect 15 0 16 0;
#X connect 15 1 16 1;
#X connect 16 0 13 0;
#X connect 16 0 55 0;
#X connect 16 0 56 0;
#X connect 36 0 37 0;
#X connect 55 0 11 0;
#X connect 55 1 12 0;
#X coords 0 0 1 1 345 154 1 0 0;
