#N canvas 827 239 734 565 12;
#X obj 44 28 vu 20 120 empty L -1 -8 0 10 #404040 #e1e1e1 1 0;
#X obj 285 10 inlet~;
#X obj 10 30 vsl 23 115 0 1 0 0 empty empty gain 0 -9 0 10 #191919 #e1e1e1 #e1e1e1 0 1;
#X obj 274 229 *~;
#X obj 10 170 knob 54 -1 1 0 0 empty empty #191919 #696969 #E1E1E1 1 0 0 0 1 270 0 0 0 empty empty 2 12 6 -15 0 1 0 0;
#X text 22 155 pan, f 4;
#X obj 383 58 + 1;
#X obj 383 84 / 2;
#X msg 383 112 \$1 10;
#X obj 383 138 line~;
#X obj 285 124 *~ -1;
#X obj 285 150 +~ 1;
#X obj 274 180 *~;
#X obj 352 180 *~;
#X text 363 27 panning;
#X obj 352 229 *~;
#X obj 274 393 outlet~;
#X obj 352 393 outlet~;
#N canvas 0 50 450 300 vu 0;
#X obj 710 374 env~ 1024;
#X obj 812 356 abs~;
#X obj 812 458 snapshot~;
#X obj 812 501 rmstodb;
#X obj 615 263 inlet~;
#X obj 812 533 - 100;
#X obj 710 532 - 100;
#X obj 890 334 expr 1000 / $f1;
#X floatatom 890 362 5 0 0 0 - - - 0;
#X obj 812 391 slop~ 0 0 0 0 1e+09;
#X text 933 363 hz;
#X obj 710 416 t f b;
#X obj 890 263 loadbang;
#X msg 890 289 300;
#X text 680 319 from pd example inside vu-help.pd;
#X msg 852 289 0;
#X obj 710 558 outlet;
#X obj 812 559 outlet;
#X connect 0 0 11 0;
#X connect 1 0 9 0;
#X connect 2 0 3 0;
#X connect 3 0 5 0;
#X connect 4 0 0 0;
#X connect 4 0 1 0;
#X connect 5 0 17 0;
#X connect 6 0 16 0;
#X connect 7 0 8 0;
#X connect 8 0 9 3;
#X connect 9 0 2 0;
#X connect 11 0 6 0;
#X connect 11 1 2 0;
#X connect 12 0 13 0;
#X connect 12 0 15 0;
#X connect 13 0 7 0;
#X restore 299 349 pd vu;
#N canvas 0 50 450 300 vu 0;
#X obj 710 374 env~ 1024;
#X obj 812 356 abs~;
#X obj 812 458 snapshot~;
#X obj 812 501 rmstodb;
#X obj 615 263 inlet~;
#X obj 812 533 - 100;
#X obj 710 532 - 100;
#X obj 890 334 expr 1000 / $f1;
#X floatatom 890 362 5 0 0 0 - - - 0;
#X obj 812 391 slop~ 0 0 0 0 1e+09;
#X text 933 363 hz;
#X obj 710 416 t f b;
#X obj 890 263 loadbang;
#X msg 890 289 300;
#X text 680 319 from pd example inside vu-help.pd;
#X msg 852 289 0;
#X obj 710 558 outlet;
#X obj 812 559 outlet;
#X connect 0 0 11 0;
#X connect 1 0 9 0;
#X connect 2 0 3 0;
#X connect 3 0 5 0;
#X connect 4 0 0 0;
#X connect 4 0 1 0;
#X connect 5 0 17 0;
#X connect 6 0 16 0;
#X connect 7 0 8 0;
#X connect 8 0 9 3;
#X connect 9 0 2 0;
#X connect 11 0 6 0;
#X connect 11 1 2 0;
#X connect 12 0 13 0;
#X connect 12 0 15 0;
#X connect 13 0 7 0;
#X restore 377 349 pd vu;
#X obj 100 28 vu 20 120 empty R -1 -8 0 10 #404040 #e1e1e1 1 0;
#X obj 352 10 inlet~;
#X msg 430 180 \$1 10;
#X obj 430 206 line~;
#X obj 274 306 *~;
#X obj 352 306 *~;
#X msg 507 272 \$1 10;
#X obj 507 298 line~;
#X obj 83 170 tgl 54 1 empty empty mute 11 -6 0 14 #191919 #e1e1e1 #e1e1e1 0 1;
#X obj 83 278 sel 0 1;
#X msg 115 304 0;
#X msg 83 304 1;
#X connect 1 0 12 0;
#X connect 2 0 22 0;
#X connect 3 0 24 0;
#X connect 4 0 6 0;
#X connect 6 0 7 0;
#X connect 7 0 8 0;
#X connect 8 0 9 0;
#X connect 9 0 10 0;
#X connect 9 0 13 1;
#X connect 10 0 11 0;
#X connect 11 0 12 1;
#X connect 12 0 3 0;
#X connect 13 0 15 0;
#X connect 15 0 25 0;
#X connect 18 0 0 0;
#X connect 18 1 0 1;
#X connect 19 0 20 0;
#X connect 19 1 20 1;
#X connect 21 0 13 0;
#X connect 22 0 23 0;
#X connect 23 0 15 1;
#X connect 23 0 3 1;
#X connect 24 0 16 0;
#X connect 24 0 18 0;
#X connect 25 0 17 0;
#X connect 25 0 19 0;
#X connect 26 0 27 0;
#X connect 27 0 25 1;
#X connect 27 0 24 1;
#X connect 28 0 29 0;
#X connect 29 0 31 0;
#X connect 29 1 30 0;
#X connect 30 0 26 0;
#X connect 31 0 26 0;
#X coords 0 0 1 1 151 230 1 0 0;
