#N struct 1009-f float x;
#N canvas 827 239 734 565 12;
#X obj 8 336 samph;
#X obj 935 1278 simph;
#X obj 946 182 grains;
#X obj 934 455 noiseMachine;
#X obj 1086 487 noiseOsc;
#X obj 22 692 sampler;
#X obj 48 1820 vocoder-bus;
#X obj 485 513 inputs;
#X obj 48 1318 dicetone;
#X text -432 651 - other noty synths -;
#X text -432 669 implement LFOs;
#X text -432 685 add compressors;
#X text -432 721 - non noty -;
#X text -432 737 check and compare with features from notys and see what is fitting for each;
#X obj 8 144 notifier;
#X obj 1444 237 notifier;
#X obj 934 24 algorhythm;
#X obj 396 15 euclidean;
#X obj 568 15 bakery;
#X obj 659 15 primes;
#X text -433 814 - streaming -;
#X text -433 833 test everything;
#X text -433 924 substitute [l] by list store;
#X text -433 941 arraySize object not supported \, figure it out;
#X text -433 908 - bitwig adapt -;
#X text -433 850 make EQ and adapt compressor;
#X text -410 587 [r notes] AND input for NOTES ON SYNTHS;
#X connect 7 0 5 0;
#X connect 8 0 6 0;
#X connect 14 0 0 0;
#X connect 15 0 1 0;
#X connect 16 0 15 0;
