#N canvas 827 239 734 565 12;
#X obj 580 1095 output~;
#X obj 39 675 levels;
#X obj 686 256 notein;
#X obj 686 282 pack;
#X obj 39 379 samph;
#X obj 374 379 diceTone;
#X obj 374 675 levels;
#X obj 691 379 simph;
#X obj 691 675 levels;
#X obj 968 379 grains;
#X obj 968 675 levelsStr;
#X obj 1388 379 noiseMachine;
#X obj 1388 675 levels;
#X obj 1564 379 noiseOsc;
#X obj 1564 675 levels;
#X obj 18 15 sampler;
#X connect 1 0 0 0;
#X connect 1 1 0 1;
#X connect 2 0 3 0;
#X connect 2 1 3 1;
#X connect 3 0 5 0;
#X connect 3 0 7 0;
#X connect 3 0 4 0;
#X connect 4 0 1 0;
#X connect 5 0 6 0;
#X connect 7 0 8 0;
#X connect 9 0 10 0;
#X connect 9 1 10 1;
#X connect 10 0 0 0;
#X connect 10 1 0 1;
#X connect 11 0 12 0;
#X connect 12 0 0 0;
#X connect 12 1 0 1;
#X connect 13 0 14 0;
