#N struct 1928-f float x;
#N canvas 827 239 734 565 12;
#X obj -141 599 output~;
#X obj 4 1037 levels;
#X obj 4 748 samph;
#X obj 340 748 diceTone;
#X obj 340 1037 levels;
#X obj 657 748 simph;
#X obj 657 1044 levels;
#X obj 937 748 grains;
#X obj 937 1044 levelsStr;
#X obj 1354 748 noiseMachine;
#X obj 1341 1051 levels;
#X obj 1501 748 noiseOsc;
#X obj 1501 1051 levels;
#X obj 4 181 sampler;
#X obj 4 502 levelsStr;
#X obj 552 576 vocoder-bus;
#X obj 188 576 vocoder-bus;
#X obj 4 5 inputs;
#X obj 121 1314 *~ 1;
#X obj 219 1314 *~ 1;
#X obj 373 -17 notifier;
#X obj 373 -67 bng 25 250 50 0 empty empty empty 17 7 0 10 #191919 #e1e1e1 #e1e1e1;
#X connect 1 0 18 0;
#X connect 1 1 19 0;
#X connect 2 0 1 0;
#X connect 3 0 4 0;
#X connect 4 0 18 0;
#X connect 4 1 19 0;
#X connect 5 0 6 0;
#X connect 5 0 16 0;
#X connect 6 0 18 0;
#X connect 6 1 19 0;
#X connect 7 0 8 0;
#X connect 7 0 16 1;
#X connect 7 1 8 1;
#X connect 8 0 18 0;
#X connect 8 1 19 0;
#X connect 9 0 10 0;
#X connect 10 0 18 0;
#X connect 10 1 19 0;
#X connect 11 0 12 0;
#X connect 12 0 18 0;
#X connect 12 1 19 0;
#X connect 13 0 14 0;
#X connect 13 1 14 1;
#X connect 13 3 16 4;
#X connect 13 5 16 5;
#X connect 14 0 0 0;
#X connect 14 1 0 1;
#X connect 15 0 0 1;
#X connect 16 0 0 0;
#X connect 17 0 13 0;
#X connect 17 0 0 0;
#X connect 17 0 0 1;
#X connect 18 0 0 0;
#X connect 19 0 0 1;
#X connect 20 0 3 0;
#X connect 21 0 20 0;
