#N canvas 827 239 734 565 12;
#X obj 493 232 adc~;
#X obj 493 407 *~;
#X obj 585 280 hsl 128 17 0 5 0 0 empty empty empty -2 -8 0 10 #191919 #e1e1e1 #e1e1e1 0 1;
#X msg 582 304 \$1 10;
#X obj 582 330 line~;
#X obj 493 433 output~;
#X connect 0 0 1 0;
#X connect 1 0 5 0;
#X connect 2 0 3 0;
#X connect 3 0 4 0;
#X connect 4 0 1 1;
