#N canvas 827 239 734 565 12;
#X obj 391 150 notein;
#X obj 391 179 pack;
#X obj 3 21 vradio 20 1 0 2 empty empty empty 0 -8 0 10 #191919 #e1e1e1 #e1e1e1 0;
#X text 25 42 poly;
#X obj 390 255 spigot;
#X text 25 20 mono (only left inlet active);
#X obj 463 150 sel 0 1;
#X obj 446 255 spigot;
#X obj 390 281 mono;
#X obj 446 281 poly 4 1;
#X msg 416 224 0;
#X msg 441 224 1;
#X msg 472 224 0;
#X msg 497 224 1;
#X obj 446 307 pack f f f;
#X obj 390 307 pack;
#X obj 446 333 route 1 2 3 4;
#X obj 390 383 outlet;
#X obj 462 383 outlet;
#X obj 513 383 outlet;
#X obj 566 383 outlet;
#X connect 0 0 1 0;
#X connect 0 1 1 1;
#X connect 1 0 4 0;
#X connect 1 0 7 0;
#X connect 2 0 6 0;
#X connect 4 0 8 0;
#X connect 6 0 11 0;
#X connect 6 0 12 0;
#X connect 6 1 13 0;
#X connect 6 1 10 0;
#X connect 7 0 9 0;
#X connect 8 0 15 0;
#X connect 8 1 15 1;
#X connect 9 0 14 0;
#X connect 9 1 14 1;
#X connect 9 2 14 2;
#X connect 10 0 4 1;
#X connect 11 0 4 1;
#X connect 12 0 7 1;
#X connect 13 0 7 1;
#X connect 14 0 16 0;
#X connect 15 0 17 0;
#X connect 16 0 17 0;
#X connect 16 1 18 0;
#X connect 16 2 19 0;
#X connect 16 3 20 0;
#X coords 0 0 1 1 196 72 1 0 0;
