#N canvas 148 44 1220 762 10;
#X obj 184 74 env~ 1024;
#X obj 223 339 dbtorms;
#X msg 187 138 1;
#X obj 24 314 *~;
#X msg 269 173 10;
#X obj 184 15 inlet~;
#X obj 24 389 outlet~;
#X msg 24 148 23.22;
#X obj 213 45 delwrite~ \$0-comp 100;
#X obj 184 108 moses 5;
#X obj 320 90 loadbang;
#X obj 46 222 pack;
#X obj 65 250 pack;
#X obj 223 308 + 100;
#X obj 407 71 * 100;
#X obj 407 129 log;
#X obj 407 101 + 1;
#X msg 456 101 101;
#X obj 456 127 log;
#X obj 407 162 /;
#X obj 407 195 * 100;
#X obj 223 173 -;
#X obj 223 207 /;
#X obj 223 138 t f f;
#X obj 223 243 -;
#X obj 223 275 +;
#X obj 24 349 *~ 1;
#X obj 24 173 delread~ \$0-comp 0;
#X obj 39 278 line~;
#X msg 102 222 10;
#X obj 407 15 inlet;
#X connect 0 0 9 0;
#X connect 1 0 12 0;
#X connect 2 0 11 0;
#X connect 3 0 26 0;
#X connect 4 0 22 1;
#X connect 5 0 0 0;
#X connect 5 0 8 0;
#X connect 7 0 27 0;
#X connect 9 0 2 0;
#X connect 9 1 23 0;
#X connect 10 0 4 0;
#X connect 10 0 29 0;
#X connect 10 0 17 0;
#X connect 10 0 7 0;
#X connect 11 0 28 0;
#X connect 12 0 28 0;
#X connect 13 0 1 0;
#X connect 14 0 16 0;
#X connect 15 0 19 0;
#X connect 16 0 15 0;
#X connect 17 0 18 0;
#X connect 18 0 19 1;
#X connect 19 0 20 0;
#X connect 20 0 21 1;
#X connect 20 0 25 1;
#X connect 21 0 22 0;
#X connect 22 0 24 0;
#X connect 23 0 21 0;
#X connect 23 1 24 1;
#X connect 24 0 25 0;
#X connect 25 0 13 0;
#X connect 26 0 6 0;
#X connect 27 0 3 0;
#X connect 28 0 3 1;
#X connect 29 0 12 1;
#X connect 29 0 11 1;
#X connect 30 0 14 0;
