#N canvas 827 239 734 565 12;
#X obj 54 30 inlet;
#X obj 424 404 table \$0-weights;
#X obj 154 215 s \$0-weights;
#X obj 154 162 change -1;
#X msg 154 187 resize \$1;
#X obj 76 212 f;
#X obj 76 237 until;
#X obj 54 359 f;
#X obj 76 302 f 0;
#X obj 102 302 + 1;
#X obj 127 333 tabread \$0-weights;
#X msg 92 276 0;
#X obj 54 152 t b b b a;
#X obj 54 428 outlet;
#X obj 124 187 + 1;
#X obj 127 363 <=;
#X obj 107 393 select 0;
#X obj 154 137 r \$0-len;
#X obj 54 122 * 0.0001;
#X obj 271 30 inlet;
#X msg 403 98 0;
#X obj 271 55 t a b a;
#X obj 271 205 f 0;
#X obj 299 205 + 1;
#X obj 271 292 s \$0-weights;
#X msg 404 205 normalize 1;
#X obj 496 117 s \$0-len;
#X obj 487 144 outlet;
#X obj 487 91 list length;
#X obj 331 205 +;
#X obj 362 205 f;
#X obj 271 237 pack 0 0;
#X obj 271 157 t b a;
#X obj 271 132 list-drip;
#X obj 54 98 drunk 10000;
#X connect 0 0 34 0;
#X connect 3 0 4 0;
#X connect 3 0 14 0;
#X connect 4 0 2 0;
#X connect 5 0 6 0;
#X connect 6 0 8 0;
#X connect 7 0 13 0;
#X connect 8 0 10 0;
#X connect 8 0 7 1;
#X connect 8 0 9 0;
#X connect 9 0 8 1;
#X connect 10 0 15 0;
#X connect 11 0 8 1;
#X connect 12 0 7 0;
#X connect 12 1 5 0;
#X connect 12 2 11 0;
#X connect 12 3 15 1;
#X connect 14 0 5 1;
#X connect 15 0 16 0;
#X connect 16 0 6 1;
#X connect 17 0 3 0;
#X connect 18 0 12 0;
#X connect 19 0 21 0;
#X connect 20 0 22 1;
#X connect 20 0 29 1;
#X connect 21 0 33 0;
#X connect 21 1 20 0;
#X connect 21 2 28 0;
#X connect 22 0 23 0;
#X connect 22 0 31 0;
#X connect 23 0 22 1;
#X connect 25 0 24 0;
#X connect 28 0 26 0;
#X connect 28 0 27 0;
#X connect 29 0 30 0;
#X connect 29 0 31 1;
#X connect 30 0 29 1;
#X connect 31 0 24 0;
#X connect 32 0 22 0;
#X connect 32 1 29 0;
#X connect 33 0 32 0;
#X connect 33 1 25 0;
#X connect 34 0 18 0;
