#N canvas 827 239 734 565 12;
#X obj 604 795 bp~;
#X obj 604 899 clip~ -1 1;
#X floatatom 73 414 5 0 0 0 - - - 0;
#X obj 73 488 *~;
#X obj 111 318 + 100;
#X obj 73 437 osc~;
#X obj 73 318 + 100;
#X obj 73 342 pack;
#X obj 30 258 bng 15 250 50 0 empty empty empty 17 7 0 10 #fcfcfc #000000 #000000;
#X obj 30 317 t f b;
#X obj 30 292 random 19000;
#X obj 111 293 random 5000;
#X msg 73 366 \$1 \$2;
#X obj 73 390 line;
#X floatatom 185 315 5 0 0 0 - - - 0;
#X obj 185 362 *~;
#X obj 223 219 + 100;
#X obj 185 338 osc~;
#X obj 185 219 + 100;
#X obj 185 243 pack;
#X obj 142 159 bng 15 250 50 0 empty empty empty 17 7 0 10 #fcfcfc #000000 #000000;
#X obj 142 218 t f b;
#X obj 142 193 random 19000;
#X obj 223 194 random 5000;
#X msg 185 267 \$1 \$2;
#X obj 185 291 line;
#X floatatom 277 414 5 0 0 0 - - - 0;
#X obj 277 461 *~;
#X obj 315 318 + 100;
#X obj 277 437 osc~;
#X obj 277 318 + 100;
#X obj 277 342 pack;
#X obj 234 258 bng 15 250 50 0 empty empty empty 17 7 0 10 #fcfcfc #000000 #000000;
#X obj 234 317 t f b;
#X obj 234 292 random 19000;
#X obj 315 293 random 5000;
#X msg 277 366 \$1 \$2;
#X obj 277 390 line;
#X floatatom 389 318 5 0 0 0 - - - 0;
#X obj 389 365 *~;
#X obj 427 222 + 100;
#X obj 389 341 osc~;
#X obj 389 222 + 100;
#X obj 389 246 pack;
#X obj 346 162 bng 15 250 50 0 empty empty empty 17 7 0 10 #fcfcfc #000000 #000000;
#X obj 346 221 t f b;
#X obj 346 196 random 19000;
#X obj 427 197 random 5000;
#X msg 389 270 \$1 \$2;
#X obj 389 294 line;
#X floatatom 474 416 5 0 0 0 - - - 0;
#X obj 474 463 *~;
#X obj 512 320 + 100;
#X obj 474 439 osc~;
#X obj 474 320 + 100;
#X obj 474 344 pack;
#X obj 431 260 bng 15 250 50 0 empty empty empty 17 7 0 10 #fcfcfc #000000 #000000;
#X obj 431 319 t f b;
#X obj 431 294 random 19000;
#X obj 512 295 random 5000;
#X msg 474 368 \$1 \$2;
#X obj 474 392 line;
#X floatatom 587 319 5 0 0 0 - - - 0;
#X obj 587 366 *~;
#X obj 625 223 + 100;
#X obj 587 342 osc~;
#X obj 587 223 + 100;
#X obj 587 247 pack;
#X obj 544 163 bng 15 250 50 0 empty empty empty 17 7 0 10 #fcfcfc #000000 #000000;
#X obj 544 222 t f b;
#X obj 544 197 random 19000;
#X obj 625 198 random 5000;
#X msg 587 271 \$1 \$2;
#X obj 587 295 line;
#X floatatom 672 417 5 0 0 0 - - - 0;
#X obj 672 464 *~;
#X obj 710 321 + 100;
#X obj 672 440 osc~;
#X obj 672 321 + 100;
#X obj 672 345 pack;
#X obj 629 261 bng 15 250 50 0 empty empty empty 17 7 0 10 #fcfcfc #000000 #000000;
#X obj 629 320 t f b;
#X obj 629 295 random 19000;
#X obj 710 296 random 5000;
#X msg 672 369 \$1 \$2;
#X obj 672 393 line;
#X floatatom 784 320 5 0 0 0 - - - 0;
#X obj 784 367 *~;
#X obj 822 224 + 100;
#X obj 784 343 osc~;
#X obj 784 224 + 100;
#X obj 784 248 pack;
#X obj 741 164 bng 15 250 50 0 empty empty empty 17 7 0 10 #fcfcfc #000000 #000000;
#X obj 741 223 t f b;
#X obj 741 198 random 19000;
#X obj 822 199 random 5000;
#X msg 784 272 \$1 \$2;
#X obj 784 296 line;
#X floatatom 867 418 5 0 0 0 - - - 0;
#X obj 867 465 *~;
#X obj 905 322 + 100;
#X obj 867 441 osc~;
#X obj 867 322 + 100;
#X obj 867 346 pack;
#X obj 824 262 bng 15 250 50 0 empty empty empty 17 7 0 10 #fcfcfc #000000 #000000;
#X obj 824 321 t f b;
#X obj 824 296 random 19000;
#X obj 905 297 random 5000;
#X msg 867 370 \$1 \$2;
#X obj 867 394 line;
#X obj 604 934 *~;
#X obj 694 855 line;
#X obj 800 745 sel 0 1;
#X msg 800 770 0 100;
#X msg 819 794 1 30;
#X obj 742 51 sel 0 1 2 3 4 5 6 7 8;
#X obj 7 20 bng 25 250 50 0 empty empty empty 17 7 0 10 #191919 #e1e1e1 #e1e1e1;
#X obj 762 -37 random 9;
#X obj 7 -62 inlet;
#X obj 40 20 tgl 25 0 empty empty on/off 1 -2 0 10 #191919 #e1e1e1 #e1e1e1 0 1;
#X obj 7 63 vsl 25 71 5000 20000 0 0 empty empty bp-freq -5 -8 0 10 #191919 #e1e1e1 #e1e1e1 0 1;
#X obj 40 65 vsl 25 71 0 51 0 0 empty empty Q 4 -9 0 10 #191919 #e1e1e1 #e1e1e1 0 1;
#X obj 604 960 outlet~;
#X obj 10 157 hsl 53 17 1 100 1 0 empty empty depth -2 -8 0 10 #191919 #e1e1e1 #e1e1e1 0 1;
#X obj 947 476 line~;
#X msg 947 450 \$1 10;
#X obj -100 112 loadbang;
#X msg -100 138 50;
#X obj 604 821 *~ 0.8;
#X connect 0 0 128 0;
#X connect 1 0 110 0;
#X connect 2 0 5 0;
#X connect 3 0 0 0;
#X connect 4 0 7 1;
#X connect 5 0 3 0;
#X connect 6 0 7 0;
#X connect 7 0 12 0;
#X connect 8 0 10 0;
#X connect 9 0 6 0;
#X connect 9 1 11 0;
#X connect 10 0 9 0;
#X connect 11 0 4 0;
#X connect 12 0 13 0;
#X connect 13 0 2 0;
#X connect 14 0 17 0;
#X connect 15 0 3 1;
#X connect 16 0 19 1;
#X connect 17 0 15 0;
#X connect 18 0 19 0;
#X connect 19 0 24 0;
#X connect 20 0 22 0;
#X connect 21 0 18 0;
#X connect 21 1 23 0;
#X connect 22 0 21 0;
#X connect 23 0 16 0;
#X connect 24 0 25 0;
#X connect 25 0 14 0;
#X connect 26 0 29 0;
#X connect 27 0 15 1;
#X connect 28 0 31 1;
#X connect 29 0 27 0;
#X connect 30 0 31 0;
#X connect 31 0 36 0;
#X connect 32 0 34 0;
#X connect 33 0 30 0;
#X connect 33 1 35 0;
#X connect 34 0 33 0;
#X connect 35 0 28 0;
#X connect 36 0 37 0;
#X connect 37 0 26 0;
#X connect 38 0 41 0;
#X connect 39 0 27 1;
#X connect 40 0 43 1;
#X connect 41 0 39 0;
#X connect 42 0 43 0;
#X connect 43 0 48 0;
#X connect 44 0 46 0;
#X connect 45 0 42 0;
#X connect 45 1 47 0;
#X connect 46 0 45 0;
#X connect 47 0 40 0;
#X connect 48 0 49 0;
#X connect 49 0 38 0;
#X connect 50 0 53 0;
#X connect 51 0 39 1;
#X connect 52 0 55 1;
#X connect 53 0 51 0;
#X connect 54 0 55 0;
#X connect 55 0 60 0;
#X connect 56 0 58 0;
#X connect 57 0 54 0;
#X connect 57 1 59 0;
#X connect 58 0 57 0;
#X connect 59 0 52 0;
#X connect 60 0 61 0;
#X connect 61 0 50 0;
#X connect 62 0 65 0;
#X connect 63 0 51 1;
#X connect 64 0 67 1;
#X connect 65 0 63 0;
#X connect 66 0 67 0;
#X connect 67 0 72 0;
#X connect 68 0 70 0;
#X connect 69 0 66 0;
#X connect 69 1 71 0;
#X connect 70 0 69 0;
#X connect 71 0 64 0;
#X connect 72 0 73 0;
#X connect 73 0 62 0;
#X connect 74 0 77 0;
#X connect 75 0 63 1;
#X connect 76 0 79 1;
#X connect 77 0 75 0;
#X connect 78 0 79 0;
#X connect 79 0 84 0;
#X connect 80 0 82 0;
#X connect 81 0 78 0;
#X connect 81 1 83 0;
#X connect 82 0 81 0;
#X connect 83 0 76 0;
#X connect 84 0 85 0;
#X connect 85 0 74 0;
#X connect 86 0 89 0;
#X connect 87 0 75 1;
#X connect 88 0 91 1;
#X connect 89 0 87 0;
#X connect 90 0 91 0;
#X connect 91 0 96 0;
#X connect 92 0 94 0;
#X connect 93 0 90 0;
#X connect 93 1 95 0;
#X connect 94 0 93 0;
#X connect 95 0 88 0;
#X connect 96 0 97 0;
#X connect 97 0 86 0;
#X connect 98 0 101 0;
#X connect 99 0 87 1;
#X connect 100 0 103 1;
#X connect 101 0 99 0;
#X connect 102 0 103 0;
#X connect 103 0 108 0;
#X connect 104 0 106 0;
#X connect 105 0 102 0;
#X connect 105 1 107 0;
#X connect 106 0 105 0;
#X connect 107 0 100 0;
#X connect 108 0 109 0;
#X connect 109 0 98 0;
#X connect 110 0 122 0;
#X connect 111 0 110 1;
#X connect 112 0 113 0;
#X connect 112 1 114 0;
#X connect 113 0 111 0;
#X connect 114 0 111 0;
#X connect 115 0 8 0;
#X connect 115 1 20 0;
#X connect 115 2 32 0;
#X connect 115 3 44 0;
#X connect 115 4 56 0;
#X connect 115 5 68 0;
#X connect 115 6 80 0;
#X connect 115 7 92 0;
#X connect 115 8 104 0;
#X connect 116 0 117 0;
#X connect 117 0 115 0;
#X connect 118 0 116 0;
#X connect 119 0 112 0;
#X connect 120 0 0 1;
#X connect 121 0 0 2;
#X connect 123 0 125 0;
#X connect 124 0 99 1;
#X connect 125 0 124 0;
#X connect 126 0 127 0;
#X connect 127 0 123 0;
#X connect 128 0 1 0;
#X coords 0 0 1 1 75 180 1 0 0;
