#N canvas 827 239 734 565 12;
#X obj 48 618 soundfiler;
#X obj 48 368 sel 0 1 2 3;
#X msg 48 393 bell.wav;
#X obj 48 516 symbol;
#N canvas 0 0 450 300 (subpatch) 0;
#X array \$0-shapeSample 540000 float 0;
#X coords 0 1 539999 -1 200 140 1;
#X restore 210 308 graph;
#X floatatom 514 432 5 0 0 0 - - - 0;
#X obj 514 456 mtof;
#X floatatom 514 481 5 0 0 0 - - - 0;
#X obj 514 505 phasor~;
#X obj 514 530 *~ 100;
#X obj 514 387 + 5;
#X obj 514 362 random 115;
#X floatatom 613 403 5 0 0 0 - - - 0;
#X obj 612 426 * 1000;
#X obj 609 351 random 34;
#X obj 609 376 + 20;
#X obj 514 782 outlet~;
#X obj 514 555 tabread4~ \$0-shapeSample;
#X obj 687 392 s nmData;
#X obj 621 476 r phaRes;
#X msg 63 418 poly.wav;
#X msg 79 443 talker.wav;
#X msg 97 464 swarm.wav;
#X obj 7 59 vradio 20 0 0 5 empty empty sample 0 -8 0 10 #fcfcfc #000000 #fcfcfc 0;
#X text 31 138 sampler;
#X text 31 76 poly;
#X text 31 98 talker;
#X text 31 120 swarm;
#X text 31 58 bell;
#X obj 198 476 loadbang;
#X obj 198 502 f \$0;
#X floatatom 198 528 5 0 0 0 - - - 12;
#X obj 48 542 pack s f;
#X msg 48 587 read -resize samples/\$1 \$2-shapeSample;
#X obj 7 18 bng 25 250 50 0 empty empty empty 17 7 0 10 #191919 #e1e1e1 #e1e1e1;
#X obj 21 -49 inlet;
#X obj 38 18 tgl 25 0 empty empty onoff 17 4 0 10 #191919 #e1e1e1 #e1e1e1 0 1;
#X obj 508 703 *~;
#X msg 609 645 \$1 10;
#X obj 609 671 line~;
#X obj 517 278 t b b;
#X connect 1 0 2 0;
#X connect 1 1 20 0;
#X connect 1 2 21 0;
#X connect 1 3 22 0;
#X connect 2 0 3 0;
#X connect 3 0 32 0;
#X connect 5 0 6 0;
#X connect 6 0 7 0;
#X connect 7 0 8 0;
#X connect 8 0 9 0;
#X connect 9 0 17 0;
#X connect 10 0 5 0;
#X connect 11 0 10 0;
#X connect 12 0 13 0;
#X connect 13 0 9 1;
#X connect 14 0 15 0;
#X connect 14 0 18 0;
#X connect 15 0 12 0;
#X connect 17 0 37 0;
#X connect 19 0 8 1;
#X connect 20 0 3 0;
#X connect 21 0 3 0;
#X connect 22 0 3 0;
#X connect 23 0 1 0;
#X connect 29 0 30 0;
#X connect 30 0 31 0;
#X connect 31 0 32 1;
#X connect 32 0 33 0;
#X connect 33 0 0 0;
#X connect 34 0 40 0;
#X connect 35 0 34 0;
#X connect 36 0 38 0;
#X connect 37 0 16 0;
#X connect 38 0 39 0;
#X connect 39 0 37 1;
#X connect 40 0 11 0;
#X connect 40 1 14 0;
#X coords 0 0 1 1 86 164 1 0 0;
