#N canvas 827 239 734 565 12;
#N canvas 0 0 450 300 (subpatch) 0;
#X array \$0-shapeSample 540000 float 0;
#X coords 0 1 539999 -1 200 140 1;
#X restore 332 16 graph;
#X obj 692 243 phasor~;
#X obj 692 125 + 5;
#X obj 692 100 random 115;
#X obj 787 139 * 1000;
#X obj 787 89 random 34;
#X obj 787 114 + 20;
#X obj 692 520 outlet~;
#X obj 692 293 tabread4~ \$0-shapeSample;
#X obj 7 59 vradio 20 0 0 5 empty empty sample 0 -8 0 10 #fcfcfc #000000 #fcfcfc 0;
#X text 31 138 sampler;
#X text 31 76 poly;
#X text 31 98 talker;
#X text 31 120 swarm;
#X text 31 58 bell;
#X obj 7 18 bng 25 250 50 0 empty empty empty 17 7 0 10 #191919 #e1e1e1 #e1e1e1;
#X obj 21 -49 inlet;
#X obj 38 18 tgl 25 0 empty empty onoff 17 4 0 10 #191919 #e1e1e1 #e1e1e1 0 1;
#X obj 686 441 *~;
#X msg 787 383 \$1 10;
#X obj 787 409 line~;
#X obj 695 16 t b b;
#X obj 31 160 bng 22 250 50 0 empty empty 1 9 13 0 17 #191919 #e1e1e1 #e1e1e1;
#X obj 56 160 bng 22 250 50 0 empty empty 2 9 13 0 17 #191919 #e1e1e1 #e1e1e1;
#X obj 80 160 bng 22 250 50 0 empty empty 3 9 13 0 17 #191919 #e1e1e1 #e1e1e1;
#X obj 105 160 bng 22 250 50 0 empty empty 4 9 13 0 17 #191919 #e1e1e1 #e1e1e1;
#X obj 312 942 soundfiler;
#X msg 281 634 bell.wav;
#X obj 267 705 symbol;
#X msg 296 659 poly.wav;
#X msg 312 684 talker.wav;
#X msg 330 705 swarm.wav;
#X obj 281 583 sel 0 1 2 3 4;
#X obj 516 941 f \$0;
#X obj 587 634 int;
#X obj 534 747 f;
#X obj 587 829 spigot;
#X msg 619 727 0;
#X msg 575 727 1;
#X msg 575 941 set sample-\$1;
#X obj 454 695 t b b;
#X obj 617 779 t f f;
#X msg 516 853 0;
#X msg 476 853 1;
#X obj 424 864 spigot;
#X msg 372 306 1;
#X msg 397 306 2;
#X msg 422 306 3;
#X msg 447 306 4;
#X obj 443 779 t s b b;
#X obj 395 817 pack s f;
#X msg 516 975 set \$1-shapeSample;
#X msg 312 906 read -resize samples/\$1 \$2-shapeSample;
#X obj 575 38 loadbang;
#X msg 575 64 1;
#X obj 790 227 line~;
#X obj 692 268 *~;
#X msg 611 75 100;
#X msg 790 194 \$1 50;
#X obj 611 194 line~;
#X msg 611 163 \$1 50;
#X obj 692 194 mtof~;
#X obj 85 21 vsl 17 128 0 120 0 0 empty empty empty 0 -9 0 10 #191919 #e1e1e1 #e1e1e1 0 1;
#X obj 111 21 vsl 17 128 0 54000 0 0 empty empty empty 0 -9 0 10 #191919 #e1e1e1 #e1e1e1 0 1;
#X connect 1 0 56 0;
#X connect 2 0 62 0;
#X connect 3 0 2 0;
#X connect 4 0 63 0;
#X connect 5 0 6 0;
#X connect 6 0 4 0;
#X connect 8 0 18 0;
#X connect 9 0 32 0;
#X connect 15 0 21 0;
#X connect 16 0 15 0;
#X connect 17 0 19 0;
#X connect 18 0 7 0;
#X connect 19 0 20 0;
#X connect 20 0 18 1;
#X connect 21 0 3 0;
#X connect 21 1 5 0;
#X connect 22 0 45 0;
#X connect 23 0 46 0;
#X connect 24 0 47 0;
#X connect 25 0 48 0;
#X connect 27 0 28 0;
#X connect 28 0 49 0;
#X connect 29 0 28 0;
#X connect 30 0 28 0;
#X connect 31 0 28 0;
#X connect 32 0 27 0;
#X connect 32 0 37 0;
#X connect 32 1 29 0;
#X connect 32 1 37 0;
#X connect 32 2 30 0;
#X connect 32 2 37 0;
#X connect 32 3 31 0;
#X connect 32 3 37 0;
#X connect 32 4 40 0;
#X connect 33 0 51 0;
#X connect 33 0 50 1;
#X connect 34 0 36 0;
#X connect 34 0 35 1;
#X connect 35 0 36 0;
#X connect 36 0 39 0;
#X connect 37 0 41 0;
#X connect 38 0 36 1;
#X connect 39 0 8 0;
#X connect 40 0 35 0;
#X connect 40 1 38 0;
#X connect 40 1 42 0;
#X connect 41 1 36 1;
#X connect 42 0 44 1;
#X connect 43 0 44 1;
#X connect 44 0 52 0;
#X connect 45 0 34 0;
#X connect 46 0 34 0;
#X connect 47 0 34 0;
#X connect 48 0 34 0;
#X connect 49 0 50 0;
#X connect 49 1 43 0;
#X connect 49 2 33 0;
#X connect 50 0 44 0;
#X connect 51 0 8 0;
#X connect 52 0 26 0;
#X connect 53 0 54 0;
#X connect 53 0 57 0;
#X connect 54 0 22 0;
#X connect 54 0 9 0;
#X connect 55 0 56 1;
#X connect 56 0 8 0;
#X connect 57 0 63 0;
#X connect 58 0 55 0;
#X connect 59 0 61 0;
#X connect 60 0 59 0;
#X connect 61 0 1 0;
#X connect 62 0 60 0;
#X connect 63 0 58 0;
#X coords 0 0 1 1 138 212 1 0 0;
