#N struct 1009-f float x;
#N canvas 827 239 734 565 12;
#X obj 46 4 bng 11 250 50 0 empty empty empty 17 7 0 10 #191919 #e1e1e1 #e1e1e1;
#X obj 39 151 tgl 25 0 empty empty C# 17 7 0 10 #191919 #e1e1e1 #e1e1e1 0 1;
#X obj 70 151 tgl 25 0 empty empty D 17 7 0 10 #191919 #e1e1e1 #e1e1e1 0 1;
#X obj 101 151 tgl 25 0 empty empty D# 17 7 0 10 #191919 #e1e1e1 #e1e1e1 0 1;
#X obj 132 151 tgl 25 0 empty empty E 17 7 0 10 #191919 #e1e1e1 #e1e1e1 0 1;
#X obj 163 151 tgl 25 0 empty empty F 17 7 0 10 #191919 #e1e1e1 #e1e1e1 0 1;
#X obj 194 151 tgl 25 0 empty empty F# 17 7 0 10 #191919 #e1e1e1 #e1e1e1 0 1;
#X obj 225 151 tgl 25 0 empty empty G 17 7 0 10 #191919 #e1e1e1 #e1e1e1 0 1;
#X obj 256 151 tgl 25 0 empty empty G# 17 7 0 10 #191919 #e1e1e1 #e1e1e1 0 1;
#X obj 287 151 tgl 25 0 empty empty A 17 7 0 10 #191919 #e1e1e1 #e1e1e1 0 1;
#X obj 318 151 tgl 25 0 empty empty A# 17 7 0 10 #191919 #e1e1e1 #e1e1e1 0 1;
#X obj 349 151 tgl 25 0 empty empty B 17 7 0 10 #191919 #e1e1e1 #e1e1e1 0 1;
#X obj 8 151 tgl 25 0 empty empty C 17 7 0 10 #191919 #e1e1e1 #e1e1e1 0 1;
#X obj 172 551 list-extend;
#X obj 68 624 list-find;
#X obj 46 707 list-delete;
#X obj 172 579 list-sort asc;
#X obj 68 551 t f b;
#X obj 68 650 t b f;
#X obj 464 356 t b l l;
#X obj 493 390 list length;
#X obj 462 516 list-idx;
#X obj 462 427 random;
#X obj 462 458 t b f;
#X obj 462 542 + 36;
#X floatatom 492 119 5 0 0 2 note - - 12;
#N canvas 0 50 450 300 notySel5 0;
#X obj 28 157 sel 0 1;
#X obj 85 157 sel 0 1;
#X obj 142 157 sel 0 1;
#X obj 199 157 sel 0 1;
#X obj 256 157 sel 0 1;
#X obj 313 157 sel 0 1;
#X obj 370 157 sel 0 1;
#X obj 427 157 sel 0 1;
#X obj 484 157 sel 0 1;
#X obj 541 157 sel 0 1;
#X obj 598 157 sel 0 1;
#X obj 655 157 sel 0 1;
#X msg 685 184 59;
#X msg 655 184 59;
#X msg 628 184 58;
#X msg 598 184 58;
#X msg 571 184 57;
#X msg 541 184 57;
#X msg 514 184 56;
#X msg 457 184 55;
#X msg 427 184 55;
#X msg 400 184 54;
#X msg 370 184 54;
#X msg 343 184 53;
#X msg 313 184 53;
#X msg 286 184 52;
#X msg 256 184 52;
#X msg 229 184 51;
#X msg 199 184 51;
#X msg 172 184 50;
#X msg 142 184 50;
#X msg 115 184 49;
#X msg 85 184 49;
#X msg 28 184 48;
#X msg 58 184 48;
#X msg 484 184 56;
#X obj 28 37 inlet;
#X obj 71 37 inlet;
#X obj 114 37 inlet;
#X obj 157 37 inlet;
#X obj 200 37 inlet;
#X obj 243 37 inlet;
#X obj 286 37 inlet;
#X obj 329 37 inlet;
#X obj 372 37 inlet;
#X obj 415 37 inlet;
#X obj 458 37 inlet;
#X obj 501 37 inlet;
#X obj 59 269 outlet;
#X obj 670 269 outlet;
#X connect 0 0 33 0;
#X connect 0 1 34 0;
#X connect 1 0 32 0;
#X connect 1 1 31 0;
#X connect 2 0 30 0;
#X connect 2 1 29 0;
#X connect 3 0 28 0;
#X connect 3 1 27 0;
#X connect 4 0 26 0;
#X connect 4 1 25 0;
#X connect 5 0 24 0;
#X connect 5 1 23 0;
#X connect 6 0 22 0;
#X connect 6 1 21 0;
#X connect 7 0 20 0;
#X connect 7 1 19 0;
#X connect 8 0 35 0;
#X connect 8 1 18 0;
#X connect 9 0 17 0;
#X connect 9 1 16 0;
#X connect 10 0 15 0;
#X connect 10 1 14 0;
#X connect 11 0 13 0;
#X connect 11 1 12 0;
#X connect 12 0 49 0;
#X connect 13 0 48 0;
#X connect 14 0 49 0;
#X connect 15 0 48 0;
#X connect 16 0 49 0;
#X connect 17 0 48 0;
#X connect 18 0 49 0;
#X connect 19 0 49 0;
#X connect 20 0 48 0;
#X connect 21 0 49 0;
#X connect 22 0 48 0;
#X connect 23 0 49 0;
#X connect 24 0 48 0;
#X connect 25 0 49 0;
#X connect 26 0 48 0;
#X connect 27 0 49 0;
#X connect 28 0 48 0;
#X connect 29 0 49 0;
#X connect 30 0 48 0;
#X connect 31 0 49 0;
#X connect 32 0 48 0;
#X connect 33 0 48 0;
#X connect 34 0 49 0;
#X connect 35 0 48 0;
#X connect 36 0 0 0;
#X connect 37 0 1 0;
#X connect 38 0 2 0;
#X connect 39 0 3 0;
#X connect 40 0 4 0;
#X connect 41 0 5 0;
#X connect 42 0 6 0;
#X connect 43 0 7 0;
#X connect 44 0 8 0;
#X connect 45 0 9 0;
#X connect 46 0 10 0;
#X connect 47 0 11 0;
#X restore -1 402 pd notySel5;
#X obj 379 23 vradio 20 1 1 2 empty empty empty 0 -8 0 10 #191919 #e1e1e1 #e1e1e1 0;
#X text 399 44 random;
#X text 399 22 drunk;
#X obj 349 274 + 1;
#X obj 349 300 gate 2;
#X obj 349 364 t b l l;
#X obj 378 390 list length;
#X obj 347 516 list-idx;
#X obj 347 458 t b f;
#X obj 347 542 + 36;
#X obj 666 23 loadbang;
#X msg 666 49 3;
#X obj 349 427 hv.drunk;
#X obj 39 119 tgl 25 0 empty empty C# 17 7 0 10 #191919 #e1e1e1 #e1e1e1 0 1;
#X obj 70 119 tgl 25 0 empty empty D 17 7 0 10 #191919 #e1e1e1 #e1e1e1 0 1;
#X obj 101 119 tgl 25 0 empty empty D# 17 7 0 10 #191919 #e1e1e1 #e1e1e1 0 1;
#X obj 132 119 tgl 25 0 empty empty E 17 7 0 10 #191919 #e1e1e1 #e1e1e1 0 1;
#X obj 163 119 tgl 25 0 empty empty F 17 7 0 10 #191919 #e1e1e1 #e1e1e1 0 1;
#X obj 194 119 tgl 25 0 empty empty F# 17 7 0 10 #191919 #e1e1e1 #e1e1e1 0 1;
#X obj 225 119 tgl 25 0 empty empty G 17 7 0 10 #191919 #e1e1e1 #e1e1e1 0 1;
#X obj 256 119 tgl 25 0 empty empty G# 17 7 0 10 #191919 #e1e1e1 #e1e1e1 0 1;
#X obj 287 119 tgl 25 0 empty empty A 17 7 0 10 #191919 #e1e1e1 #e1e1e1 0 1;
#X obj 318 119 tgl 25 0 empty empty A# 17 7 0 10 #191919 #e1e1e1 #e1e1e1 0 1;
#X obj 349 119 tgl 25 0 empty empty B 17 7 0 10 #191919 #e1e1e1 #e1e1e1 0 1;
#X obj 8 119 tgl 25 0 empty empty C 17 7 0 10 #191919 #e1e1e1 #e1e1e1 0 1;
#N canvas 0 50 450 300 notySel4 0;
#X obj 28 157 sel 0 1;
#X obj 85 157 sel 0 1;
#X obj 142 157 sel 0 1;
#X obj 199 157 sel 0 1;
#X obj 256 157 sel 0 1;
#X obj 313 157 sel 0 1;
#X obj 370 157 sel 0 1;
#X obj 427 157 sel 0 1;
#X obj 484 157 sel 0 1;
#X obj 541 157 sel 0 1;
#X obj 598 157 sel 0 1;
#X obj 655 157 sel 0 1;
#X obj 28 37 inlet;
#X obj 71 37 inlet;
#X obj 114 37 inlet;
#X obj 157 37 inlet;
#X obj 200 37 inlet;
#X obj 243 37 inlet;
#X obj 286 37 inlet;
#X obj 329 37 inlet;
#X obj 372 37 inlet;
#X obj 415 37 inlet;
#X obj 458 37 inlet;
#X obj 501 37 inlet;
#X obj 59 269 outlet;
#X obj 670 269 outlet;
#X msg 685 184 47;
#X msg 655 184 47;
#X msg 628 184 46;
#X msg 598 184 46;
#X msg 571 184 45;
#X msg 541 184 45;
#X msg 514 184 44;
#X msg 484 184 44;
#X msg 457 184 43;
#X msg 427 184 43;
#X msg 400 184 42;
#X msg 370 184 42;
#X msg 343 184 41;
#X msg 313 184 41;
#X msg 286 184 40;
#X msg 256 184 40;
#X msg 229 184 39;
#X msg 199 184 39;
#X msg 172 184 38;
#X msg 142 184 38;
#X msg 115 184 37;
#X msg 85 184 37;
#X msg 58 184 36;
#X msg 28 184 36;
#X connect 0 0 49 0;
#X connect 0 1 48 0;
#X connect 1 0 47 0;
#X connect 1 1 46 0;
#X connect 2 0 45 0;
#X connect 2 1 44 0;
#X connect 3 0 43 0;
#X connect 3 1 42 0;
#X connect 4 0 41 0;
#X connect 4 1 40 0;
#X connect 5 0 39 0;
#X connect 5 1 38 0;
#X connect 6 0 37 0;
#X connect 6 1 36 0;
#X connect 7 0 35 0;
#X connect 7 1 34 0;
#X connect 8 0 33 0;
#X connect 8 1 32 0;
#X connect 9 0 31 0;
#X connect 9 1 30 0;
#X connect 10 0 29 0;
#X connect 10 1 28 0;
#X connect 11 0 27 0;
#X connect 11 1 26 0;
#X connect 12 0 0 0;
#X connect 13 0 1 0;
#X connect 14 0 2 0;
#X connect 15 0 3 0;
#X connect 16 0 4 0;
#X connect 17 0 5 0;
#X connect 18 0 6 0;
#X connect 19 0 7 0;
#X connect 20 0 8 0;
#X connect 21 0 9 0;
#X connect 22 0 10 0;
#X connect 23 0 11 0;
#X connect 26 0 25 0;
#X connect 27 0 24 0;
#X connect 28 0 25 0;
#X connect 29 0 24 0;
#X connect 30 0 25 0;
#X connect 31 0 24 0;
#X connect 32 0 25 0;
#X connect 33 0 24 0;
#X connect 34 0 25 0;
#X connect 35 0 24 0;
#X connect 36 0 25 0;
#X connect 37 0 24 0;
#X connect 38 0 25 0;
#X connect 39 0 24 0;
#X connect 40 0 25 0;
#X connect 41 0 24 0;
#X connect 42 0 25 0;
#X connect 43 0 24 0;
#X connect 44 0 25 0;
#X connect 45 0 24 0;
#X connect 46 0 25 0;
#X connect 47 0 24 0;
#X connect 48 0 25 0;
#X connect 49 0 24 0;
#X restore -26 370 pd notySel4;
#X obj 39 87 tgl 25 0 empty empty C# 17 7 0 10 #191919 #e1e1e1 #e1e1e1 0 1;
#X obj 70 87 tgl 25 0 empty empty D 17 7 0 10 #191919 #e1e1e1 #e1e1e1 0 1;
#X obj 101 87 tgl 25 0 empty empty D# 17 7 0 10 #191919 #e1e1e1 #e1e1e1 0 1;
#X obj 132 87 tgl 25 0 empty empty E 17 7 0 10 #191919 #e1e1e1 #e1e1e1 0 1;
#X obj 163 87 tgl 25 0 empty empty F 17 7 0 10 #191919 #e1e1e1 #e1e1e1 0 1;
#X obj 194 87 tgl 25 0 empty empty F# 17 7 0 10 #191919 #e1e1e1 #e1e1e1 0 1;
#X obj 225 87 tgl 25 0 empty empty G 17 7 0 10 #191919 #e1e1e1 #e1e1e1 0 1;
#X obj 256 87 tgl 25 0 empty empty G# 17 7 0 10 #191919 #e1e1e1 #e1e1e1 0 1;
#X obj 287 87 tgl 25 0 empty empty A 17 7 0 10 #191919 #e1e1e1 #e1e1e1 0 1;
#X obj 318 87 tgl 25 0 empty empty A# 17 7 0 10 #191919 #e1e1e1 #e1e1e1 0 1;
#X obj 349 87 tgl 25 0 empty empty B 17 7 0 10 #191919 #e1e1e1 #e1e1e1 0 1;
#X obj 8 87 tgl 25 0 empty empty C 17 7 0 10 #ff1500 #e1e1e1 #e1e1e1 0 1;
#N canvas 0 50 450 300 notySel3 0;
#X obj 28 157 sel 0 1;
#X obj 85 157 sel 0 1;
#X obj 142 157 sel 0 1;
#X obj 199 157 sel 0 1;
#X obj 256 157 sel 0 1;
#X obj 313 157 sel 0 1;
#X obj 370 157 sel 0 1;
#X obj 427 157 sel 0 1;
#X obj 484 157 sel 0 1;
#X obj 541 157 sel 0 1;
#X obj 598 157 sel 0 1;
#X obj 655 157 sel 0 1;
#X obj 28 37 inlet;
#X obj 71 37 inlet;
#X obj 114 37 inlet;
#X obj 157 37 inlet;
#X obj 200 37 inlet;
#X obj 243 37 inlet;
#X obj 286 37 inlet;
#X obj 329 37 inlet;
#X obj 372 37 inlet;
#X obj 415 37 inlet;
#X obj 458 37 inlet;
#X obj 501 37 inlet;
#X obj 59 269 outlet;
#X obj 670 269 outlet;
#X msg 685 184 35;
#X msg 655 184 35;
#X msg 628 184 34;
#X msg 598 184 34;
#X msg 571 184 33;
#X msg 541 184 33;
#X msg 514 184 32;
#X msg 484 184 32;
#X msg 457 184 31;
#X msg 427 184 31;
#X msg 400 184 30;
#X msg 370 184 30;
#X msg 343 184 29;
#X msg 313 184 29;
#X msg 286 184 28;
#X msg 256 184 28;
#X msg 229 184 27;
#X msg 199 184 27;
#X msg 172 184 26;
#X msg 142 184 26;
#X msg 115 184 25;
#X msg 85 184 25;
#X msg 58 184 24;
#X msg 28 184 24;
#X connect 0 0 49 0;
#X connect 0 1 48 0;
#X connect 1 0 47 0;
#X connect 1 1 46 0;
#X connect 2 0 45 0;
#X connect 2 1 44 0;
#X connect 3 0 43 0;
#X connect 3 1 42 0;
#X connect 4 0 41 0;
#X connect 4 1 40 0;
#X connect 5 0 39 0;
#X connect 5 1 38 0;
#X connect 6 0 37 0;
#X connect 6 1 36 0;
#X connect 7 0 35 0;
#X connect 7 1 34 0;
#X connect 8 0 33 0;
#X connect 8 1 32 0;
#X connect 9 0 31 0;
#X connect 9 1 30 0;
#X connect 10 0 29 0;
#X connect 10 1 28 0;
#X connect 11 0 27 0;
#X connect 11 1 26 0;
#X connect 12 0 0 0;
#X connect 13 0 1 0;
#X connect 14 0 2 0;
#X connect 15 0 3 0;
#X connect 16 0 4 0;
#X connect 17 0 5 0;
#X connect 18 0 6 0;
#X connect 19 0 7 0;
#X connect 20 0 8 0;
#X connect 21 0 9 0;
#X connect 22 0 10 0;
#X connect 23 0 11 0;
#X connect 26 0 25 0;
#X connect 27 0 24 0;
#X connect 28 0 25 0;
#X connect 29 0 24 0;
#X connect 30 0 25 0;
#X connect 31 0 24 0;
#X connect 32 0 25 0;
#X connect 33 0 24 0;
#X connect 34 0 25 0;
#X connect 35 0 24 0;
#X connect 36 0 25 0;
#X connect 37 0 24 0;
#X connect 38 0 25 0;
#X connect 39 0 24 0;
#X connect 40 0 25 0;
#X connect 41 0 24 0;
#X connect 42 0 25 0;
#X connect 43 0 24 0;
#X connect 44 0 25 0;
#X connect 45 0 24 0;
#X connect 46 0 25 0;
#X connect 47 0 24 0;
#X connect 48 0 25 0;
#X connect 49 0 24 0;
#X restore -51 338 pd notySel3;
#X obj 39 55 tgl 25 0 empty empty C# 17 7 0 10 #191919 #e1e1e1 #e1e1e1 0 1;
#X obj 70 55 tgl 25 0 empty empty D 17 7 0 10 #191919 #e1e1e1 #e1e1e1 0 1;
#X obj 101 55 tgl 25 0 empty empty D# 17 7 0 10 #191919 #e1e1e1 #e1e1e1 0 1;
#X obj 132 55 tgl 25 0 empty empty E 17 7 0 10 #191919 #e1e1e1 #e1e1e1 0 1;
#X obj 163 55 tgl 25 0 empty empty F 17 7 0 10 #191919 #e1e1e1 #e1e1e1 0 1;
#X obj 194 55 tgl 25 0 empty empty F# 17 7 0 10 #191919 #e1e1e1 #e1e1e1 0 1;
#X obj 225 55 tgl 25 0 empty empty G 17 7 0 10 #191919 #e1e1e1 #e1e1e1 0 1;
#X obj 256 55 tgl 25 0 empty empty G# 17 7 0 10 #191919 #e1e1e1 #e1e1e1 0 1;
#X obj 287 55 tgl 25 0 empty empty A 17 7 0 10 #191919 #e1e1e1 #e1e1e1 0 1;
#X obj 318 55 tgl 25 0 empty empty A# 17 7 0 10 #191919 #e1e1e1 #e1e1e1 0 1;
#X obj 349 55 tgl 25 0 empty empty B 17 7 0 10 #191919 #e1e1e1 #e1e1e1 0 1;
#X obj 8 55 tgl 25 0 empty empty C 17 7 0 10 #191919 #e1e1e1 #e1e1e1 0 1;
#N canvas 0 50 450 300 notySel2 0;
#X obj 28 157 sel 0 1;
#X obj 85 157 sel 0 1;
#X obj 142 157 sel 0 1;
#X obj 199 157 sel 0 1;
#X obj 256 157 sel 0 1;
#X obj 313 157 sel 0 1;
#X obj 370 157 sel 0 1;
#X obj 427 157 sel 0 1;
#X obj 484 157 sel 0 1;
#X obj 541 157 sel 0 1;
#X obj 598 157 sel 0 1;
#X obj 655 157 sel 0 1;
#X obj 28 37 inlet;
#X obj 71 37 inlet;
#X obj 114 37 inlet;
#X obj 157 37 inlet;
#X obj 200 37 inlet;
#X obj 243 37 inlet;
#X obj 286 37 inlet;
#X obj 329 37 inlet;
#X obj 372 37 inlet;
#X obj 415 37 inlet;
#X obj 458 37 inlet;
#X obj 501 37 inlet;
#X obj 59 269 outlet;
#X obj 670 269 outlet;
#X msg 685 184 23;
#X msg 655 184 23;
#X msg 628 184 22;
#X msg 598 184 22;
#X msg 571 184 21;
#X msg 541 184 21;
#X msg 514 184 20;
#X msg 484 184 20;
#X msg 457 184 19;
#X msg 427 184 19;
#X msg 400 184 18;
#X msg 370 184 18;
#X msg 343 184 17;
#X msg 313 184 17;
#X msg 286 184 16;
#X msg 256 184 16;
#X msg 229 184 15;
#X msg 199 184 15;
#X msg 172 184 14;
#X msg 142 184 14;
#X msg 115 184 13;
#X msg 85 184 13;
#X msg 58 184 12;
#X msg 28 184 12;
#X connect 0 0 49 0;
#X connect 0 1 48 0;
#X connect 1 0 47 0;
#X connect 1 1 46 0;
#X connect 2 0 45 0;
#X connect 2 1 44 0;
#X connect 3 0 43 0;
#X connect 3 1 42 0;
#X connect 4 0 41 0;
#X connect 4 1 40 0;
#X connect 5 0 39 0;
#X connect 5 1 38 0;
#X connect 6 0 37 0;
#X connect 6 1 36 0;
#X connect 7 0 35 0;
#X connect 7 1 34 0;
#X connect 8 0 33 0;
#X connect 8 1 32 0;
#X connect 9 0 31 0;
#X connect 9 1 30 0;
#X connect 10 0 29 0;
#X connect 10 1 28 0;
#X connect 11 0 27 0;
#X connect 11 1 26 0;
#X connect 12 0 0 0;
#X connect 13 0 1 0;
#X connect 14 0 2 0;
#X connect 15 0 3 0;
#X connect 16 0 4 0;
#X connect 17 0 5 0;
#X connect 18 0 6 0;
#X connect 19 0 7 0;
#X connect 20 0 8 0;
#X connect 21 0 9 0;
#X connect 22 0 10 0;
#X connect 23 0 11 0;
#X connect 26 0 25 0;
#X connect 27 0 24 0;
#X connect 28 0 25 0;
#X connect 29 0 24 0;
#X connect 30 0 25 0;
#X connect 31 0 24 0;
#X connect 32 0 25 0;
#X connect 33 0 24 0;
#X connect 34 0 25 0;
#X connect 35 0 24 0;
#X connect 36 0 25 0;
#X connect 37 0 24 0;
#X connect 38 0 25 0;
#X connect 39 0 24 0;
#X connect 40 0 25 0;
#X connect 41 0 24 0;
#X connect 42 0 25 0;
#X connect 43 0 24 0;
#X connect 44 0 25 0;
#X connect 45 0 24 0;
#X connect 46 0 25 0;
#X connect 47 0 24 0;
#X connect 48 0 25 0;
#X connect 49 0 24 0;
#X restore -76 306 pd notySel2;
#X obj 39 23 tgl 25 0 empty empty C# 17 7 0 10 #191919 #e1e1e1 #e1e1e1 0 1;
#X obj 70 23 tgl 25 0 empty empty D 17 7 0 10 #191919 #e1e1e1 #e1e1e1 0 1;
#X obj 101 23 tgl 25 0 empty empty D# 17 7 0 10 #191919 #e1e1e1 #e1e1e1 0 1;
#X obj 132 23 tgl 25 0 empty empty E 17 7 0 10 #191919 #e1e1e1 #e1e1e1 0 1;
#X obj 163 23 tgl 25 0 empty empty F 17 7 0 10 #191919 #e1e1e1 #e1e1e1 0 1;
#X obj 194 23 tgl 25 0 empty empty F# 17 7 0 10 #191919 #e1e1e1 #e1e1e1 0 1;
#X obj 225 23 tgl 25 0 empty empty G 17 7 0 10 #191919 #e1e1e1 #e1e1e1 0 1;
#X obj 256 23 tgl 25 0 empty empty G# 17 7 0 10 #191919 #e1e1e1 #e1e1e1 0 1;
#X obj 287 23 tgl 25 0 empty empty A 17 7 0 10 #191919 #e1e1e1 #e1e1e1 0 1;
#X obj 318 23 tgl 25 0 empty empty A# 17 7 0 10 #191919 #e1e1e1 #e1e1e1 0 1;
#X obj 349 23 tgl 25 0 empty empty B 17 7 0 10 #191919 #e1e1e1 #e1e1e1 0 1;
#X obj 8 23 tgl 25 0 empty empty C 17 7 0 10 #191919 #e1e1e1 #e1e1e1 0 1;
#N canvas 0 50 450 300 notySel1 0;
#X obj 28 157 sel 0 1;
#X obj 85 157 sel 0 1;
#X obj 142 157 sel 0 1;
#X obj 199 157 sel 0 1;
#X obj 256 157 sel 0 1;
#X obj 313 157 sel 0 1;
#X obj 370 157 sel 0 1;
#X obj 427 157 sel 0 1;
#X obj 484 157 sel 0 1;
#X obj 541 157 sel 0 1;
#X obj 598 157 sel 0 1;
#X obj 655 157 sel 0 1;
#X obj 28 37 inlet;
#X obj 71 37 inlet;
#X obj 114 37 inlet;
#X obj 157 37 inlet;
#X obj 200 37 inlet;
#X obj 243 37 inlet;
#X obj 286 37 inlet;
#X obj 329 37 inlet;
#X obj 372 37 inlet;
#X obj 415 37 inlet;
#X obj 458 37 inlet;
#X obj 501 37 inlet;
#X obj 59 269 outlet;
#X obj 670 269 outlet;
#X msg 685 184 11;
#X msg 655 184 11;
#X msg 628 184 10;
#X msg 598 184 10;
#X msg 571 184 9;
#X msg 541 184 9;
#X msg 514 184 8;
#X msg 484 184 8;
#X msg 457 184 7;
#X msg 427 184 7;
#X msg 400 184 6;
#X msg 370 184 6;
#X msg 343 184 5;
#X msg 313 184 5;
#X msg 286 184 4;
#X msg 256 184 4;
#X msg 229 184 3;
#X msg 199 184 3;
#X msg 172 184 2;
#X msg 142 184 2;
#X msg 115 184 1;
#X msg 85 184 1;
#X msg 58 184 0;
#X msg 28 184 0;
#X connect 0 0 49 0;
#X connect 0 1 48 0;
#X connect 1 0 47 0;
#X connect 1 1 46 0;
#X connect 2 0 45 0;
#X connect 2 1 44 0;
#X connect 3 0 43 0;
#X connect 3 1 42 0;
#X connect 4 0 41 0;
#X connect 4 1 40 0;
#X connect 5 0 39 0;
#X connect 5 1 38 0;
#X connect 6 0 37 0;
#X connect 6 1 36 0;
#X connect 7 0 35 0;
#X connect 7 1 34 0;
#X connect 8 0 33 0;
#X connect 8 1 32 0;
#X connect 9 0 31 0;
#X connect 9 1 30 0;
#X connect 10 0 29 0;
#X connect 10 1 28 0;
#X connect 11 0 27 0;
#X connect 11 1 26 0;
#X connect 12 0 0 0;
#X connect 13 0 1 0;
#X connect 14 0 2 0;
#X connect 15 0 3 0;
#X connect 16 0 4 0;
#X connect 17 0 5 0;
#X connect 18 0 6 0;
#X connect 19 0 7 0;
#X connect 20 0 8 0;
#X connect 21 0 9 0;
#X connect 22 0 10 0;
#X connect 23 0 11 0;
#X connect 26 0 25 0;
#X connect 27 0 24 0;
#X connect 28 0 25 0;
#X connect 29 0 24 0;
#X connect 30 0 25 0;
#X connect 31 0 24 0;
#X connect 32 0 25 0;
#X connect 33 0 24 0;
#X connect 34 0 25 0;
#X connect 35 0 24 0;
#X connect 36 0 25 0;
#X connect 37 0 24 0;
#X connect 38 0 25 0;
#X connect 39 0 24 0;
#X connect 40 0 25 0;
#X connect 41 0 24 0;
#X connect 42 0 25 0;
#X connect 43 0 24 0;
#X connect 44 0 25 0;
#X connect 45 0 24 0;
#X connect 46 0 25 0;
#X connect 47 0 24 0;
#X connect 48 0 25 0;
#X connect 49 0 24 0;
#X restore -101 274 pd notySel1;
#X obj 446 16 bng 25 250 50 0 empty empty clear 17 7 0 10 #191919 #e1e1e1 #e1e1e1;
#X msg 132 -100 0;
#X obj 492 16 bng 25 250 50 0 empty empty expand 7 7 0 10 #191919 #e1e1e1 #e1e1e1;
#X obj 60 -144 f;
#X obj 102 -144 f;
#X obj 144 -144 f;
#X obj 186 -144 f;
#X obj 228 -144 f;
#X obj 270 -144 f;
#X obj -192 -144 f;
#X obj -150 -144 f;
#X obj -108 -144 f;
#X obj -66 -144 f;
#X obj -24 -144 f;
#X obj 18 -144 f;
#X obj -173 -216 inlet;
#X obj 412 675 + 150;
#X floatatom 492 158 5 0 0 2 vel - - 12;
#X obj 287 600 f;
#X obj 412 649 hv.drunk 1000;
#X obj 440 249 pack;
#X obj 628 740 outlet;
#X obj 141 815 print posPipe;
#X obj 384 579 t b b f b;
#X msg 31 600 0;
#X obj 229 643 pipe f 0 1000;
#X obj 382 79 hsl 128 17 0 10000 0 0 empty empty max\ length\ (ms) -2 -8 0 10 #191919 #e1e1e1 #e1e1e1 0 1;
#X floatatom 379 97 9 0 0 0 - - - 10;
#X msg 709 58 5000;
#X text 379 118 vel min/max;
#X text 620 184 add adaptative min max velocity so they dont cross values;
#X floatatom 384 141 5 0 127 0 - - - 12;
#X floatatom 423 141 5 0 127 0 - - - 12;
#X obj 915 551 >;
#X obj 915 516 t b f;
#X obj 855 593 spigot;
#X obj 915 593 spigot;
#X msg 573 33 50;
#X obj 909 318 drunk;
#X obj 529 624 drunkard;
#X msg 603 540 step 10;
#X obj 603 507 loadbang;
#X msg 611 33 127;
#X obj 88 593 list store;
#X obj 38 676 list store;
#X obj 347 486 list store;
#X obj 349 338 list store;
#X obj 464 330 list store;
#X obj 462 486 list store;
#X connect 0 0 31 1;
#X connect 1 0 26 1;
#X connect 2 0 26 2;
#X connect 3 0 26 3;
#X connect 4 0 26 4;
#X connect 5 0 26 5;
#X connect 6 0 26 6;
#X connect 7 0 26 7;
#X connect 8 0 26 8;
#X connect 9 0 26 9;
#X connect 10 0 26 10;
#X connect 11 0 26 11;
#X connect 12 0 26 0;
#X connect 13 0 16 0;
#X connect 14 0 18 0;
#X connect 15 0 13 1;
#X connect 15 0 135 1;
#X connect 15 0 136 1;
#X connect 15 0 138 1;
#X connect 15 0 139 1;
#X connect 16 0 135 1;
#X connect 16 0 136 1;
#X connect 16 0 138 1;
#X connect 16 0 139 1;
#X connect 17 0 14 0;
#X connect 17 0 25 0;
#X connect 17 1 116 0;
#X connect 17 1 135 0;
#X connect 18 0 136 0;
#X connect 18 1 15 1;
#X connect 19 0 22 0;
#X connect 19 1 140 1;
#X connect 19 2 20 0;
#X connect 20 0 22 1;
#X connect 21 0 24 0;
#X connect 22 0 23 0;
#X connect 23 0 140 0;
#X connect 23 1 21 1;
#X connect 24 0 115 0;
#X connect 25 0 112 0;
#X connect 26 0 17 0;
#X connect 26 1 13 0;
#X connect 27 0 30 0;
#X connect 30 0 31 0;
#X connect 31 0 138 0;
#X connect 31 1 139 0;
#X connect 32 0 39 0;
#X connect 32 1 137 1;
#X connect 32 2 33 0;
#X connect 33 0 39 1;
#X connect 34 0 36 0;
#X connect 35 0 137 0;
#X connect 35 1 34 1;
#X connect 36 0 115 0;
#X connect 37 0 38 0;
#X connect 37 0 120 0;
#X connect 37 0 134 0;
#X connect 37 0 129 0;
#X connect 38 0 39 2;
#X connect 39 0 35 0;
#X connect 40 0 52 1;
#X connect 41 0 52 2;
#X connect 42 0 52 3;
#X connect 43 0 52 4;
#X connect 44 0 52 5;
#X connect 45 0 52 6;
#X connect 46 0 52 7;
#X connect 47 0 52 8;
#X connect 48 0 52 9;
#X connect 49 0 52 10;
#X connect 50 0 52 11;
#X connect 51 0 52 0;
#X connect 52 0 17 0;
#X connect 52 1 13 0;
#X connect 53 0 65 1;
#X connect 53 0 102 1;
#X connect 54 0 65 2;
#X connect 54 0 103 1;
#X connect 55 0 65 3;
#X connect 55 0 104 1;
#X connect 56 0 65 4;
#X connect 56 0 105 1;
#X connect 57 0 65 5;
#X connect 57 0 106 1;
#X connect 58 0 65 6;
#X connect 58 0 95 1;
#X connect 59 0 65 7;
#X connect 59 0 96 1;
#X connect 60 0 65 8;
#X connect 60 0 97 1;
#X connect 61 0 65 9;
#X connect 61 0 98 1;
#X connect 62 0 65 10;
#X connect 62 0 99 1;
#X connect 63 0 65 11;
#X connect 63 0 100 1;
#X connect 64 0 65 0;
#X connect 64 0 101 1;
#X connect 65 0 17 0;
#X connect 65 1 13 0;
#X connect 66 0 78 1;
#X connect 67 0 78 2;
#X connect 68 0 78 3;
#X connect 69 0 78 4;
#X connect 70 0 78 5;
#X connect 71 0 78 6;
#X connect 72 0 78 7;
#X connect 73 0 78 8;
#X connect 74 0 78 9;
#X connect 75 0 78 10;
#X connect 76 0 78 11;
#X connect 77 0 78 0;
#X connect 78 0 17 0;
#X connect 78 1 13 0;
#X connect 79 0 91 1;
#X connect 80 0 91 2;
#X connect 81 0 91 3;
#X connect 82 0 91 4;
#X connect 83 0 91 5;
#X connect 84 0 91 6;
#X connect 85 0 91 7;
#X connect 86 0 91 8;
#X connect 87 0 91 9;
#X connect 88 0 91 10;
#X connect 89 0 91 11;
#X connect 90 0 91 0;
#X connect 91 0 17 0;
#X connect 91 1 13 0;
#X connect 92 0 93 0;
#X connect 93 0 89 0;
#X connect 93 0 76 0;
#X connect 93 0 75 0;
#X connect 93 0 88 0;
#X connect 93 0 62 0;
#X connect 93 0 63 0;
#X connect 93 0 61 0;
#X connect 93 0 74 0;
#X connect 93 0 87 0;
#X connect 93 0 48 0;
#X connect 93 0 49 0;
#X connect 93 0 50 0;
#X connect 93 0 47 0;
#X connect 93 0 60 0;
#X connect 93 0 73 0;
#X connect 93 0 86 0;
#X connect 93 0 46 0;
#X connect 93 0 59 0;
#X connect 93 0 72 0;
#X connect 93 0 85 0;
#X connect 93 0 58 0;
#X connect 93 0 71 0;
#X connect 93 0 84 0;
#X connect 93 0 6 0;
#X connect 93 0 7 0;
#X connect 93 0 8 0;
#X connect 93 0 9 0;
#X connect 93 0 10 0;
#X connect 93 0 11 0;
#X connect 93 0 5 0;
#X connect 93 0 44 0;
#X connect 93 0 57 0;
#X connect 93 0 70 0;
#X connect 93 0 83 0;
#X connect 93 0 4 0;
#X connect 93 0 43 0;
#X connect 93 0 56 0;
#X connect 93 0 69 0;
#X connect 93 0 82 0;
#X connect 93 0 3 0;
#X connect 93 0 42 0;
#X connect 93 0 55 0;
#X connect 93 0 68 0;
#X connect 93 0 81 0;
#X connect 93 0 2 0;
#X connect 93 0 41 0;
#X connect 93 0 54 0;
#X connect 93 0 67 0;
#X connect 93 0 80 0;
#X connect 93 0 1 0;
#X connect 93 0 40 0;
#X connect 93 0 53 0;
#X connect 93 0 66 0;
#X connect 93 0 79 0;
#X connect 93 0 12 0;
#X connect 93 0 51 0;
#X connect 93 0 64 0;
#X connect 93 0 77 0;
#X connect 93 0 90 0;
#X connect 94 0 100 0;
#X connect 94 0 99 0;
#X connect 94 0 98 0;
#X connect 94 0 97 0;
#X connect 94 0 96 0;
#X connect 94 0 95 0;
#X connect 94 0 106 0;
#X connect 94 0 105 0;
#X connect 94 0 104 0;
#X connect 94 0 103 0;
#X connect 94 0 102 0;
#X connect 94 0 101 0;
#X connect 95 0 84 0;
#X connect 95 0 71 0;
#X connect 95 0 45 0;
#X connect 95 0 6 0;
#X connect 96 0 85 0;
#X connect 96 0 72 0;
#X connect 96 0 46 0;
#X connect 96 0 7 0;
#X connect 97 0 86 0;
#X connect 97 0 73 0;
#X connect 97 0 47 0;
#X connect 97 0 8 0;
#X connect 98 0 87 0;
#X connect 98 0 74 0;
#X connect 98 0 9 0;
#X connect 98 0 48 0;
#X connect 99 0 88 0;
#X connect 99 0 75 0;
#X connect 99 0 10 0;
#X connect 99 0 49 0;
#X connect 100 0 89 0;
#X connect 100 0 76 0;
#X connect 100 0 11 0;
#X connect 100 0 50 0;
#X connect 101 0 90 0;
#X connect 101 0 77 0;
#X connect 101 0 12 0;
#X connect 101 0 51 0;
#X connect 102 0 79 0;
#X connect 102 0 66 0;
#X connect 102 0 1 0;
#X connect 102 0 40 0;
#X connect 103 0 80 0;
#X connect 103 0 67 0;
#X connect 103 0 41 0;
#X connect 103 0 2 0;
#X connect 104 0 81 0;
#X connect 104 0 68 0;
#X connect 104 0 3 0;
#X connect 104 0 42 0;
#X connect 105 0 82 0;
#X connect 105 0 69 0;
#X connect 105 0 4 0;
#X connect 105 0 43 0;
#X connect 106 0 83 0;
#X connect 106 0 70 0;
#X connect 106 0 44 0;
#X connect 106 0 5 0;
#X connect 107 0 0 0;
#X connect 108 0 117 2;
#X connect 109 0 112 1;
#X connect 110 0 117 0;
#X connect 111 0 108 0;
#X connect 112 0 113 0;
#X connect 115 0 110 0;
#X connect 115 1 111 0;
#X connect 115 2 110 1;
#X connect 115 2 25 0;
#X connect 115 3 131 0;
#X connect 116 0 109 0;
#X connect 117 0 25 0;
#X connect 117 1 109 0;
#X connect 118 0 111 1;
#X connect 118 0 119 0;
#X connect 120 0 118 0;
#X connect 123 0 125 0;
#X connect 123 0 127 0;
#X connect 123 0 131 1;
#X connect 124 0 126 0;
#X connect 124 0 128 0;
#X connect 124 0 131 2;
#X connect 125 0 128 1;
#X connect 125 0 127 1;
#X connect 126 0 125 0;
#X connect 126 1 125 1;
#X connect 127 0 124 0;
#X connect 128 0 123 0;
#X connect 129 0 123 0;
#X connect 131 0 109 0;
#X connect 132 0 131 0;
#X connect 133 0 132 0;
#X connect 134 0 124 0;
#X connect 135 0 14 1;
#X connect 136 0 15 0;
#X connect 137 0 34 0;
#X connect 138 0 32 0;
#X connect 139 0 19 0;
#X connect 140 0 21 0;
#X coords 0 0 1 1 536 185 1 0 0;
