#N struct 1778-f float x;
#N canvas 827 239 734 565 12;
#X obj 15 80 tgl 25 0 empty empty C 17 7 0 10 #ff0400 #e1e1e1 #e1e1e1 0 1;
#X obj 46 80 tgl 25 0 empty empty C# 17 7 0 10 #191919 #e1e1e1 #e1e1e1 0 1;
#X obj 77 80 tgl 25 0 empty empty D 17 7 0 10 #191919 #e1e1e1 #e1e1e1 0 1;
#X obj 108 80 tgl 25 0 empty empty D# 17 7 0 10 #191919 #e1e1e1 #e1e1e1 0 1;
#X obj 139 80 tgl 25 0 empty empty E 17 7 0 10 #191919 #e1e1e1 #e1e1e1 0 1;
#X obj 170 80 tgl 25 0 empty empty F 17 7 0 10 #191919 #e1e1e1 #e1e1e1 0 1;
#X obj 201 80 tgl 25 0 empty empty F# 17 7 0 10 #191919 #e1e1e1 #e1e1e1 0 1;
#X obj 232 80 tgl 25 0 empty empty G 17 7 0 10 #191919 #e1e1e1 #e1e1e1 0 1;
#X obj 263 80 tgl 25 0 empty empty G# 17 7 0 10 #191919 #e1e1e1 #e1e1e1 0 1;
#X obj 294 80 tgl 25 0 empty empty A 17 7 0 10 #191919 #e1e1e1 #e1e1e1 0 1;
#X obj 325 80 tgl 25 0 empty empty A# 17 7 0 10 #191919 #e1e1e1 #e1e1e1 0 1;
#X obj 356 80 tgl 25 0 empty empty B 17 7 0 10 #191919 #e1e1e1 #e1e1e1 0 1;
#X obj 668 16 bng 25 250 50 0 empty empty empty 17 7 0 10 #191919 #e1e1e1 #e1e1e1;
#X obj 46 48 tgl 25 0 empty empty C# 17 7 0 10 #191919 #e1e1e1 #e1e1e1 0 1;
#X obj 77 48 tgl 25 0 empty empty D 17 7 0 10 #191919 #e1e1e1 #e1e1e1 0 1;
#X obj 108 48 tgl 25 0 empty empty D# 17 7 0 10 #191919 #e1e1e1 #e1e1e1 0 1;
#X obj 139 48 tgl 25 0 empty empty E 17 7 0 10 #191919 #e1e1e1 #e1e1e1 0 1;
#X obj 170 48 tgl 25 0 empty empty F 17 7 0 10 #191919 #e1e1e1 #e1e1e1 0 1;
#X obj 201 48 tgl 25 0 empty empty F# 17 7 0 10 #191919 #e1e1e1 #e1e1e1 0 1;
#X obj 232 48 tgl 25 0 empty empty G 17 7 0 10 #191919 #e1e1e1 #e1e1e1 0 1;
#X obj 263 48 tgl 25 0 empty empty G# 17 7 0 10 #191919 #e1e1e1 #e1e1e1 0 1;
#X obj 294 48 tgl 25 0 empty empty A 17 7 0 10 #191919 #e1e1e1 #e1e1e1 0 1;
#X obj 325 48 tgl 25 0 empty empty A# 17 7 0 10 #191919 #e1e1e1 #e1e1e1 0 1;
#X obj 356 48 tgl 25 0 empty empty B 17 7 0 10 #191919 #e1e1e1 #e1e1e1 0 1;
#X obj 15 48 tgl 25 0 empty empty C 17 7 0 10 #191919 #e1e1e1 #e1e1e1 0 1;
#X obj 46 16 tgl 25 0 empty empty C# 17 7 0 10 #191919 #e1e1e1 #e1e1e1 0 1;
#X obj 77 16 tgl 25 0 empty empty D 17 7 0 10 #191919 #e1e1e1 #e1e1e1 0 1;
#X obj 108 16 tgl 25 0 empty empty D# 17 7 0 10 #191919 #e1e1e1 #e1e1e1 0 1;
#X obj 139 16 tgl 25 0 empty empty E 17 7 0 10 #191919 #e1e1e1 #e1e1e1 0 1;
#X obj 170 16 tgl 25 0 empty empty F 17 7 0 10 #191919 #e1e1e1 #e1e1e1 0 1;
#X obj 201 16 tgl 25 0 empty empty F# 17 7 0 10 #191919 #e1e1e1 #e1e1e1 0 1;
#X obj 232 16 tgl 25 0 empty empty G 17 7 0 10 #191919 #e1e1e1 #e1e1e1 0 1;
#X obj 263 16 tgl 25 0 empty empty G# 17 7 0 10 #191919 #e1e1e1 #e1e1e1 0 1;
#X obj 294 16 tgl 25 0 empty empty A 17 7 0 10 #191919 #e1e1e1 #e1e1e1 0 1;
#X obj 325 16 tgl 25 0 empty empty A# 17 7 0 10 #191919 #e1e1e1 #e1e1e1 0 1;
#X obj 356 16 tgl 25 0 empty empty B 17 7 0 10 #191919 #e1e1e1 #e1e1e1 0 1;
#X obj 15 16 tgl 25 0 empty empty C 17 7 0 10 #191919 #e1e1e1 #e1e1e1 0 1;
#X obj 46 144 tgl 25 0 empty empty C# 17 7 0 10 #191919 #e1e1e1 #e1e1e1 0 1;
#X obj 77 144 tgl 25 0 empty empty D 17 7 0 10 #191919 #e1e1e1 #e1e1e1 0 1;
#X obj 108 144 tgl 25 0 empty empty D# 17 7 0 10 #191919 #e1e1e1 #e1e1e1 0 1;
#X obj 139 144 tgl 25 0 empty empty E 17 7 0 10 #191919 #e1e1e1 #e1e1e1 0 1;
#X obj 170 144 tgl 25 0 empty empty F 17 7 0 10 #191919 #e1e1e1 #e1e1e1 0 1;
#X obj 201 144 tgl 25 0 empty empty F# 17 7 0 10 #191919 #e1e1e1 #e1e1e1 0 1;
#X obj 232 144 tgl 25 0 empty empty G 17 7 0 10 #191919 #e1e1e1 #e1e1e1 0 1;
#X obj 263 144 tgl 25 0 empty empty G# 17 7 0 10 #191919 #e1e1e1 #e1e1e1 0 1;
#X obj 294 144 tgl 25 0 empty empty A 17 7 0 10 #191919 #e1e1e1 #e1e1e1 0 1;
#X obj 325 144 tgl 25 0 empty empty A# 17 7 0 10 #191919 #e1e1e1 #e1e1e1 0 1;
#X obj 356 144 tgl 25 0 empty empty B 17 7 0 10 #191919 #e1e1e1 #e1e1e1 0 1;
#X obj 15 144 tgl 25 0 empty empty C 17 7 0 10 #191919 #e1e1e1 #e1e1e1 0 1;
#X obj 46 112 tgl 25 0 empty empty C# 17 7 0 10 #191919 #e1e1e1 #e1e1e1 0 1;
#X obj 77 112 tgl 25 0 empty empty D 17 7 0 10 #191919 #e1e1e1 #e1e1e1 0 1;
#X obj 108 112 tgl 25 0 empty empty D# 17 7 0 10 #191919 #e1e1e1 #e1e1e1 0 1;
#X obj 139 112 tgl 25 0 empty empty E 17 7 0 10 #191919 #e1e1e1 #e1e1e1 0 1;
#X obj 170 112 tgl 25 0 empty empty F 17 7 0 10 #191919 #e1e1e1 #e1e1e1 0 1;
#X obj 201 112 tgl 25 0 empty empty F# 17 7 0 10 #191919 #e1e1e1 #e1e1e1 0 1;
#X obj 232 112 tgl 25 0 empty empty G 17 7 0 10 #191919 #e1e1e1 #e1e1e1 0 1;
#X obj 263 112 tgl 25 0 empty empty G# 17 7 0 10 #191919 #e1e1e1 #e1e1e1 0 1;
#X obj 294 112 tgl 25 0 empty empty A 17 7 0 10 #191919 #e1e1e1 #e1e1e1 0 1;
#X obj 325 112 tgl 25 0 empty empty A# 17 7 0 10 #191919 #e1e1e1 #e1e1e1 0 1;
#X obj 356 112 tgl 25 0 empty empty B 17 7 0 10 #191919 #e1e1e1 #e1e1e1 0 1;
#X obj 15 112 tgl 25 0 empty empty C 17 7 0 10 #191919 #e1e1e1 #e1e1e1 0 1;
#X obj 172 551 list-extend;
#X obj 68 624 list-find;
#X obj 46 707 list-delete;
#X obj 172 579 list-sort asc;
#X obj 68 551 t f b;
#X obj 88 593 l;
#X obj 38 676 l;
#X obj 68 650 t b f;
#X floatatom -13 628 5 0 0 0 - - - 12;
#X obj 467 605 t b l l;
#X obj 496 639 list length;
#X obj 465 809 list-idx;
#X obj 465 779 l;
#X obj 465 676 random;
#X obj 465 707 t b f;
#X obj 465 835 + 36;
#X floatatom 416 102 5 0 0 0 - - - 12;
#X obj 467 579 l;
#X obj 215 729 print myList;
#N canvas 0 50 450 300 notySel5 0;
#X obj 28 157 sel 0 1;
#X obj 85 157 sel 0 1;
#X obj 142 157 sel 0 1;
#X obj 199 157 sel 0 1;
#X obj 256 157 sel 0 1;
#X obj 313 157 sel 0 1;
#X obj 370 157 sel 0 1;
#X obj 427 157 sel 0 1;
#X obj 484 157 sel 0 1;
#X obj 541 157 sel 0 1;
#X obj 598 157 sel 0 1;
#X obj 655 157 sel 0 1;
#X msg 685 184 59;
#X msg 655 184 59;
#X msg 628 184 58;
#X msg 598 184 58;
#X msg 571 184 57;
#X msg 541 184 57;
#X msg 514 184 56;
#X msg 457 184 55;
#X msg 427 184 55;
#X msg 400 184 54;
#X msg 370 184 54;
#X msg 343 184 53;
#X msg 313 184 53;
#X msg 286 184 52;
#X msg 256 184 52;
#X msg 229 184 51;
#X msg 199 184 51;
#X msg 172 184 50;
#X msg 142 184 50;
#X msg 115 184 49;
#X msg 85 184 49;
#X msg 28 184 48;
#X msg 58 184 48;
#X msg 484 184 56;
#X obj 28 37 inlet;
#X obj 71 37 inlet;
#X obj 114 37 inlet;
#X obj 157 37 inlet;
#X obj 200 37 inlet;
#X obj 243 37 inlet;
#X obj 286 37 inlet;
#X obj 329 37 inlet;
#X obj 372 37 inlet;
#X obj 415 37 inlet;
#X obj 458 37 inlet;
#X obj 501 37 inlet;
#X obj 59 269 outlet;
#X obj 670 269 outlet;
#X connect 0 0 33 0;
#X connect 0 1 34 0;
#X connect 1 0 32 0;
#X connect 1 1 31 0;
#X connect 2 0 30 0;
#X connect 2 1 29 0;
#X connect 3 0 28 0;
#X connect 3 1 27 0;
#X connect 4 0 26 0;
#X connect 4 1 25 0;
#X connect 5 0 24 0;
#X connect 5 1 23 0;
#X connect 6 0 22 0;
#X connect 6 1 21 0;
#X connect 7 0 20 0;
#X connect 7 1 19 0;
#X connect 8 0 35 0;
#X connect 8 1 18 0;
#X connect 9 0 17 0;
#X connect 9 1 16 0;
#X connect 10 0 15 0;
#X connect 10 1 14 0;
#X connect 11 0 13 0;
#X connect 11 1 12 0;
#X connect 12 0 49 0;
#X connect 13 0 48 0;
#X connect 14 0 49 0;
#X connect 15 0 48 0;
#X connect 16 0 49 0;
#X connect 17 0 48 0;
#X connect 18 0 49 0;
#X connect 19 0 49 0;
#X connect 20 0 48 0;
#X connect 21 0 49 0;
#X connect 22 0 48 0;
#X connect 23 0 49 0;
#X connect 24 0 48 0;
#X connect 25 0 49 0;
#X connect 26 0 48 0;
#X connect 27 0 49 0;
#X connect 28 0 48 0;
#X connect 29 0 49 0;
#X connect 30 0 48 0;
#X connect 31 0 49 0;
#X connect 32 0 48 0;
#X connect 33 0 48 0;
#X connect 34 0 49 0;
#X connect 35 0 48 0;
#X connect 36 0 0 0;
#X connect 37 0 1 0;
#X connect 38 0 2 0;
#X connect 39 0 3 0;
#X connect 40 0 4 0;
#X connect 41 0 5 0;
#X connect 42 0 6 0;
#X connect 43 0 7 0;
#X connect 44 0 8 0;
#X connect 45 0 9 0;
#X connect 46 0 10 0;
#X connect 47 0 11 0;
#X restore -1 402 pd notySel5;
#X text 769 41 expand to all octaves;
#X text 769 67 create parameters note length and velocity;
#X text 769 15 create DRUNK option;
#X text 769 93 maybe notifier is a better name;
#X connect 12 0 78 0;
#X connect 37 0 80 1;
#X connect 38 0 80 2;
#X connect 39 0 80 3;
#X connect 40 0 80 4;
#X connect 41 0 80 5;
#X connect 42 0 80 6;
#X connect 43 0 80 7;
#X connect 44 0 80 8;
#X connect 45 0 80 9;
#X connect 46 0 80 10;
#X connect 47 0 80 11;
#X connect 48 0 80 0;
#X connect 61 0 64 0;
#X connect 62 0 68 0;
#X connect 62 0 69 0;
#X connect 63 0 61 1;
#X connect 63 0 66 1;
#X connect 63 0 67 1;
#X connect 63 0 78 1;
#X connect 63 0 79 0;
#X connect 64 0 66 1;
#X connect 64 0 67 1;
#X connect 64 0 78 1;
#X connect 64 0 79 0;
#X connect 65 0 62 0;
#X connect 65 1 66 0;
#X connect 66 0 62 1;
#X connect 67 0 63 0;
#X connect 68 0 67 0;
#X connect 68 1 63 1;
#X connect 70 0 74 0;
#X connect 70 1 73 1;
#X connect 70 2 71 0;
#X connect 71 0 74 1;
#X connect 72 0 76 0;
#X connect 73 0 72 0;
#X connect 74 0 75 0;
#X connect 75 0 73 0;
#X connect 75 1 72 1;
#X connect 76 0 77 0;
#X connect 78 0 70 0;
#X connect 80 0 65 0;
#X connect 80 1 61 0;
#X coords 0 0 1 1 531 335 1 0 0;
