#N canvas 827 239 734 565 12;
#X msg 618 100 2 3 5 7 11 13 17 19 23 29 31 37 41 43 47 53 59 61 67 71 73 79 83 89 97;
#X obj 4 -35 inlet;
#X obj 6 15 tgl 25 0 empty empty empty 17 7 0 10 #191919 #e1e1e1 #e1e1e1 0 1;
#X obj 47 -35 inlet;
#X obj 4 85 bng 25 250 50 0 empty empty out 5 7 0 10 #191919 #e1e1e1 #e1e1e1;
#X obj 88 85 bng 25 250 50 0 empty empty beat 3 7 0 10 #191919 #e1e1e1 #e1e1e1;
#X obj 6 49 bng 25 250 50 0 empty empty align 2 7 0 10 #191919 #e1e1e1 #e1e1e1;
#X obj 157 374 /;
#X obj 130 402 metro;
#X msg 157 344 60000;
#X msg 189 264 60;
#X obj 61 278 t f f;
#X floatatom 40 24 5 0 0 2 bpm - - 10;
#X obj 198 208 loadbang;
#X floatatom 81 24 5 1 8 2 factor - - 10;
#X obj 148 202 *;
#X obj 148 155 t b f;
#X msg 222 253 1;
#X obj 272 374 sel 0;
#X obj 64 49 bng 25 250 50 0 empty empty next 3 7 0 10 #191919 #e1e1e1 #e1e1e1;
#X obj 40 49 bng 25 250 50 0 empty empty prev 1 7 0 10 #191919 #e1e1e1 #e1e1e1;
#X obj 618 142 list-idx;
#X floatatom 40 79 5 0 0 0 - - - 12;
#X obj 591 -80 loadbang;
#X msg 620 15 3;
#X obj 465 -100 bng 25 250 50 0 empty empty empty 17 7 0 10 #191919 #e1e1e1 #e1e1e1;
#X obj 618 42 count 24;
#X obj 341 168 t b b;
#X obj 456 168 t b b;
#X msg 469 193 up;
#X msg 354 193 down;
#X obj 618 68 t b f;
#X obj 130 440 count 5;
#X msg 265 264 up;
#X msg 272 399 reset;
#X obj 4 550 outlet;
#X obj 61 550 outlet;
#X obj 130 466 sel 0;
#X msg 203 440 max \$1;
#X obj 208 397 - 1;
#X floatatom 279 507 5 0 0 0 - - - 12;
#X obj 301 455 print;
#X obj 154 303 t b b b f;
#X msg 130 344 0;
#X msg 77 426 set \$1;
#X msg 40 344 1;
#X obj 141 7 sel 0;
#X obj 40 370 spigot;
#X connect 0 0 21 0;
#X connect 1 0 12 0;
#X connect 2 0 11 0;
#X connect 3 0 2 0;
#X connect 4 0 35 0;
#X connect 5 0 36 0;
#X connect 6 0 12 0;
#X connect 7 0 8 1;
#X connect 8 0 32 0;
#X connect 8 0 5 0;
#X connect 9 0 7 0;
#X connect 10 0 12 0;
#X connect 11 0 8 0;
#X connect 11 1 18 0;
#X connect 11 1 47 1;
#X connect 12 0 46 0;
#X connect 13 0 17 0;
#X connect 13 0 33 0;
#X connect 13 0 10 0;
#X connect 14 0 16 0;
#X connect 15 0 42 0;
#X connect 16 0 15 0;
#X connect 16 1 15 1;
#X connect 17 0 14 0;
#X connect 18 0 34 0;
#X connect 19 0 28 0;
#X connect 20 0 27 0;
#X connect 21 0 22 0;
#X connect 22 0 39 0;
#X connect 23 0 24 0;
#X connect 24 0 26 0;
#X connect 25 0 24 0;
#X connect 26 0 31 0;
#X connect 27 0 26 0;
#X connect 27 1 30 0;
#X connect 28 0 26 0;
#X connect 28 1 29 0;
#X connect 29 0 26 0;
#X connect 30 0 26 0;
#X connect 31 0 0 0;
#X connect 31 1 21 1;
#X connect 32 0 37 0;
#X connect 32 0 40 0;
#X connect 33 0 32 0;
#X connect 34 0 32 0;
#X connect 37 0 4 0;
#X connect 38 0 41 0;
#X connect 38 0 32 0;
#X connect 39 0 38 0;
#X connect 42 0 45 0;
#X connect 42 1 43 0;
#X connect 42 2 9 0;
#X connect 42 3 7 1;
#X connect 43 0 8 0;
#X connect 43 0 44 0;
#X connect 44 0 32 0;
#X connect 45 0 47 0;
#X connect 46 1 15 0;
#X connect 47 0 8 0;
#X coords 0 0 1 1 122 115 1 0 0;
