#N canvas 827 239 734 565 12;
#N canvas 0 0 450 250 (subpatch) 0;
#X array sample-1 480000 float 2;
#X coords 0 1 480000 -1 142 76 1;
#X restore 162 74 graph;
#N canvas 0 0 450 250 (subpatch) 0;
#X array sample-2 480000 float 2;
#X coords 0 1 480000 -1 142 76 1;
#X restore 352 74 graph;
#N canvas 0 0 450 250 (subpatch) 0;
#X array sample-3 480000 float 2;
#X coords 0 1 480000 -1 142 76 1;
#X restore 542 74 graph;
#N canvas 0 0 450 250 (subpatch) 0;
#X array sample-4 480000 float 2;
#X coords 0 1 480000 -1 142 74 1;
#X restore 728 74 graph;
#X obj 56 131 vradio 20 1 0 4 empty empty to: 0 -8 0 10 #191919 #e1e1e1 #e1e1e1 0;
#X text 77 130 sample 1;
#X text 77 152 sample 2;
#X text 77 174 sample 3;
#X text 77 192 sample 4;
#X obj 6 80 tgl 30 0 empty empty rec 5 -5 0 10 #191919 #e1e1e1 #e1e1e1 0 1;
#X floatatom 38 80 3 0 0 0 - - - 24;
#X msg -215 129 0;
#X obj -217 102 sel 0;
#X obj -141 -98 loadbang;
#X msg -141 -72 0;
#X obj 165 150 hsl 136 9 0 1 0 0 empty empty empty 9 8 0 10 #191919 #e1e1e1 #e1e1e1 0 1;
#X obj 165 162 hsl 136 9 0 1 0 0 empty empty empty 9 8 0 10 #191919 #e1e1e1 #e1e1e1 0 1;
#X obj 165 177 hsl 136 9 0 1 0 0 empty empty empty 9 8 0 10 #191919 #ff0000 #e1e1e1 0 1;
#X obj 162 207 knob 38 -2 2 0 1 empty empty #191919 #696969 #E1E1E1 1 0 0 0 1 270 0 0 0 empty empty 1 12 10 29 0 1 0 0;
#X text 152 189 play spd;
#N canvas 0 0 450 250 (subpatch) 0;
#X array buffer-1 39216 float 2;
#X coords 0 1 39216 -1 92 52 1;
#X restore 907 74 graph;
#X obj 223 207 bng 38 250 50 0 empty empty send\ to\ buffer -10 -7 0 10 #191919 #e1e1e1 #e1e1e1;
#X obj 162 272 hradio 20 1 0 8 empty empty buffer\ to\ send 0 -8 0 14 #191919 #e1e1e1 #e1e1e1 0;
#X obj 162 521 + 1;
#X floatatom 253 242 2 0 0 0 - - - 12;
#X msg 268 521 1;
#N canvas 0 0 450 250 (subpatch) 0;
#X array buffer-5 32455 float 2;
#X coords 0 1 32455 -1 92 52 1;
#X restore 907 207 graph;
#X obj 355 150 hsl 136 9 0 1 0 0 empty empty empty 9 8 0 10 #191919 #e1e1e1 #e1e1e1 0 1;
#X obj 355 162 hsl 136 9 0 1 0 0 empty empty empty 9 8 0 10 #191919 #e1e1e1 #e1e1e1 0 1;
#X obj 355 177 hsl 136 9 0 1 0 0 empty empty empty 9 8 0 10 #191919 #ff0000 #e1e1e1 0 1;
#X obj 352 207 knob 38 -2 2 0 1 empty empty #191919 #696969 #E1E1E1 1 0 0 0 1 270 0 0 0 empty empty 1 12 10 29 0 1 0 0;
#X text 342 189 play spd;
#X obj 413 207 bng 38 250 50 0 empty empty send\ to\ buffer -10 -7 0 10 #191919 #e1e1e1 #e1e1e1;
#X obj 352 272 hradio 20 1 0 8 empty empty buffer\ to\ send 0 -8 0 14 #191919 #e1e1e1 #e1e1e1 0;
#X obj 352 521 + 1;
#X floatatom 443 242 2 0 0 0 - - - 12;
#X obj 545 150 hsl 136 9 0 1 0 0 empty empty empty 9 8 0 10 #191919 #e1e1e1 #e1e1e1 0 1;
#X obj 545 162 hsl 136 9 0 1 0 0 empty empty empty 9 8 0 10 #191919 #e1e1e1 #e1e1e1 0 1;
#X obj 545 177 hsl 136 9 0 1 0 0 empty empty empty 9 8 0 10 #191919 #ff0000 #e1e1e1 0 1;
#X obj 542 207 knob 38 -2 2 0 1 empty empty #191919 #696969 #E1E1E1 1 0 0 0 1 270 0 0 0 empty empty 1 12 10 29 0 1 0 0;
#X text 532 189 play spd;
#X obj 603 207 bng 38 250 50 0 empty empty send\ to\ buffer -10 -7 0 10 #191919 #e1e1e1 #e1e1e1;
#X obj 542 272 hradio 20 1 0 8 empty empty buffer\ to\ send 0 -8 0 14 #191919 #e1e1e1 #e1e1e1 0;
#X obj 542 521 + 1;
#X floatatom 633 242 2 0 0 0 - - - 12;
#X obj 731 150 hsl 136 9 0 1 0 0 empty empty empty 9 8 0 10 #191919 #e1e1e1 #e1e1e1 0 1;
#X obj 731 162 hsl 136 9 0 1 0 0 empty empty empty 9 8 0 10 #191919 #e1e1e1 #e1e1e1 0 1;
#X obj 731 177 hsl 136 9 0 1 0 0 empty empty empty 9 8 0 10 #191919 #ff0000 #e1e1e1 0 1;
#X obj 728 207 knob 38 -2 2 0 1 empty empty #191919 #696969 #E1E1E1 1 0 0 0 1 270 0 0 0 empty empty 1 12 10 29 0 1 0 0;
#X text 718 189 play spd;
#X msg 783 521 1;
#X obj 789 207 bng 38 250 50 0 empty empty send\ to\ buffer -10 -7 0 10 #191919 #e1e1e1 #e1e1e1;
#X obj 728 272 hradio 20 1 0 8 empty empty buffer\ to\ send 0 -8 0 14 #191919 #e1e1e1 #e1e1e1 0;
#X obj 728 521 + 1;
#X floatatom 819 242 2 0 0 0 - - - 12;
#N canvas 0 50 450 300 createBuffer 0;
#X obj 129 117 t b f;
#X obj 129 154 -;
#X obj 129 256 expr 1 / $f1;
#X obj 129 282 * 0.1;
#X text 105 281 frame rate divided by frames on sample;
#X obj 51 67 t b f;
#X obj 51 93 *;
#X obj 51 214 phasor~;
#X obj 54 244 *~;
#X obj 54 282 +~;
#X obj 248 374 loadbang;
#X obj 248 436 snapshot~;
#X floatatom 48 121 5 0 0 0 - - - 12;
#X obj 248 410 metro 30;
#X obj 54 384 hip~ 5;
#X obj 54 311 *~ 480000;
#X obj 129 180 sel 0;
#X msg 895 454 \; buffer-\$1 resize \$2;
#X obj 895 421 pack;
#X obj 895 395 f;
#X obj 419 318 minimum;
#X obj 596 469 tabread;
#X msg 710 350 set sample-\$1;
#X obj 699 292 t b f;
#X obj 571 412 f;
#X obj 619 412 + 1;
#X obj 596 340 f;
#X obj 596 379 until;
#X obj 524 610 tabwrite;
#X msg 826 547 set buffer-\$1;
#X obj 637 547 + 1;
#X obj 579 507 t f b;
#X msg 419 445 0;
#X obj 589 547 f 0;
#X obj 685 243 t b f b;
#X obj 585 293 * 480000;
#X obj 419 350 * 480000;
#X obj 596 268 abs;
#X msg 378 473 \; buffer-\$1 normalize;
#X obj 378 445 f;
#X obj 36 35 inlet;
#X obj 88 35 inlet;
#X obj 248 507 outlet;
#X obj 266 35 inlet;
#X obj 207 35 inlet;
#X obj 140 35 inlet;
#X obj 50 507 outlet~;
#X text 36 12 pointA;
#X text 88 12 pointB;
#X text 140 12 playSpd;
#X text 207 12 toBuffer;
#X text 266 12 buffer;
#X obj 419 204 t b b;
#X obj 419 268 f;
#X obj 464 268 f;
#X obj 54 355 tabread4~ sample-4;
#X obj 321 35 inlet;
#X text 321 12 vol;
#X obj 54 410 *~;
#X msg 321 61 \$1 10;
#X obj 321 87 line~;
#X connect 0 0 1 0;
#X connect 0 1 1 1;
#X connect 0 1 9 1;
#X connect 1 0 8 1;
#X connect 1 0 16 0;
#X connect 2 0 3 0;
#X connect 3 0 6 0;
#X connect 5 0 6 0;
#X connect 5 1 6 1;
#X connect 6 0 12 0;
#X connect 7 0 8 0;
#X connect 8 0 9 0;
#X connect 9 0 11 0;
#X connect 9 0 15 0;
#X connect 10 0 13 0;
#X connect 11 0 42 0;
#X connect 12 0 7 0;
#X connect 13 0 11 0;
#X connect 14 0 58 0;
#X connect 15 0 55 0;
#X connect 16 1 2 0;
#X connect 16 1 37 0;
#X connect 18 0 17 0;
#X connect 19 0 18 0;
#X connect 19 0 29 0;
#X connect 20 0 36 0;
#X connect 21 0 31 0;
#X connect 22 0 21 0;
#X connect 23 0 26 0;
#X connect 23 1 22 0;
#X connect 24 0 25 0;
#X connect 24 0 21 0;
#X connect 25 0 24 1;
#X connect 26 0 27 0;
#X connect 27 0 24 0;
#X connect 29 0 28 0;
#X connect 30 0 33 1;
#X connect 31 0 28 0;
#X connect 31 1 33 0;
#X connect 32 0 33 1;
#X connect 33 0 30 0;
#X connect 33 0 28 1;
#X connect 34 0 32 0;
#X connect 34 0 39 0;
#X connect 34 0 20 0;
#X connect 34 0 52 0;
#X connect 34 1 23 0;
#X connect 34 2 19 0;
#X connect 35 0 18 1;
#X connect 35 0 26 1;
#X connect 36 0 24 1;
#X connect 37 0 35 0;
#X connect 39 0 38 0;
#X connect 40 0 0 0;
#X connect 40 0 20 0;
#X connect 40 0 53 0;
#X connect 41 0 1 0;
#X connect 41 0 54 0;
#X connect 43 0 19 1;
#X connect 43 0 39 1;
#X connect 44 0 34 0;
#X connect 45 0 5 0;
#X connect 52 0 53 0;
#X connect 52 1 54 0;
#X connect 53 0 20 0;
#X connect 54 0 20 1;
#X connect 55 0 14 0;
#X connect 56 0 59 0;
#X connect 58 0 46 0;
#X connect 59 0 60 0;
#X connect 60 0 58 1;
#X restore 813 584 pd createBuffer;
#N canvas 0 0 450 250 (subpatch) 0;
#X array buffer-2 51377 float 2;
#X coords 0 1 51377 -1 92 52 1;
#X restore 1009 74 graph;
#N canvas 0 0 450 250 (subpatch) 0;
#X array buffer-6 114929 float 2;
#X coords 0 1 114929 -1 92 52 1;
#X restore 1009 207 graph;
#N canvas 0 0 450 250 (subpatch) 0;
#X array buffer-3 54097 float 2;
#X coords 0 1 54097 -1 92 52 1;
#X restore 1111 74 graph;
#N canvas 0 0 450 250 (subpatch) 0;
#X array buffer-7 118309 float 2;
#X coords 0 1 118309 -1 92 52 1;
#X restore 1111 207 graph;
#N canvas 0 0 450 250 (subpatch) 0;
#X array buffer-4 51377 float 2;
#X coords 0 1 51377 -1 92 52 1;
#X restore 1213 74 graph;
#N canvas 0 0 450 250 (subpatch) 0;
#X array buffer-8 81126 float 2;
#X coords 0 1 81126 -1 92 52 1;
#X restore 1213 207 graph;
#X msg 458 521 2;
#X msg 648 521 3;
#X msg 834 521 4;
#N canvas 0 50 450 300 createBuffer 0;
#X obj 129 117 t b f;
#X obj 129 154 -;
#X obj 129 256 expr 1 / $f1;
#X obj 129 282 * 0.1;
#X text 105 281 frame rate divided by frames on sample;
#X obj 51 67 t b f;
#X obj 51 93 *;
#X obj 51 214 phasor~;
#X obj 54 244 *~;
#X obj 54 282 +~;
#X obj 248 374 loadbang;
#X obj 248 436 snapshot~;
#X floatatom 48 121 5 0 0 0 - - - 12;
#X obj 248 410 metro 30;
#X obj 54 384 hip~ 5;
#X obj 54 311 *~ 480000;
#X obj 129 180 sel 0;
#X msg 895 454 \; buffer-\$1 resize \$2;
#X obj 895 421 pack;
#X obj 895 395 f;
#X obj 419 318 minimum;
#X obj 596 469 tabread;
#X msg 710 350 set sample-\$1;
#X obj 699 292 t b f;
#X obj 571 412 f;
#X obj 619 412 + 1;
#X obj 596 340 f;
#X obj 596 379 until;
#X obj 524 610 tabwrite;
#X msg 826 547 set buffer-\$1;
#X obj 637 547 + 1;
#X obj 579 507 t f b;
#X msg 419 445 0;
#X obj 589 547 f 0;
#X obj 685 243 t b f b;
#X obj 585 293 * 480000;
#X obj 419 350 * 480000;
#X obj 585 256 abs;
#X msg 378 473 \; buffer-\$1 normalize;
#X obj 378 445 f;
#X obj 36 35 inlet;
#X obj 88 35 inlet;
#X obj 248 507 outlet;
#X obj 266 35 inlet;
#X obj 207 35 inlet;
#X obj 140 35 inlet;
#X obj 50 507 outlet~;
#X text 36 12 pointA;
#X text 88 12 pointB;
#X text 140 12 playSpd;
#X text 207 12 toBuffer;
#X text 266 12 buffer;
#X obj 419 204 t b b;
#X obj 419 268 f;
#X obj 464 268 f;
#X obj 54 355 tabread4~ sample-3;
#X obj 54 410 *~;
#X obj 321 35 inlet;
#X text 321 12 vol;
#X msg 335 75 \$1 10;
#X obj 335 101 line~;
#X connect 0 0 1 0;
#X connect 0 1 1 1;
#X connect 0 1 9 1;
#X connect 1 0 8 1;
#X connect 1 0 16 0;
#X connect 2 0 3 0;
#X connect 3 0 6 0;
#X connect 5 0 6 0;
#X connect 5 1 6 1;
#X connect 6 0 12 0;
#X connect 7 0 8 0;
#X connect 8 0 9 0;
#X connect 9 0 11 0;
#X connect 9 0 15 0;
#X connect 10 0 13 0;
#X connect 11 0 42 0;
#X connect 12 0 7 0;
#X connect 13 0 11 0;
#X connect 14 0 56 0;
#X connect 15 0 55 0;
#X connect 16 1 2 0;
#X connect 16 1 37 0;
#X connect 18 0 17 0;
#X connect 19 0 18 0;
#X connect 19 0 29 0;
#X connect 20 0 36 0;
#X connect 21 0 31 0;
#X connect 22 0 21 0;
#X connect 23 0 26 0;
#X connect 23 1 22 0;
#X connect 24 0 25 0;
#X connect 24 0 21 0;
#X connect 25 0 24 1;
#X connect 26 0 27 0;
#X connect 27 0 24 0;
#X connect 29 0 28 0;
#X connect 30 0 33 1;
#X connect 31 0 28 0;
#X connect 31 1 33 0;
#X connect 32 0 33 1;
#X connect 33 0 30 0;
#X connect 33 0 28 1;
#X connect 34 0 32 0;
#X connect 34 0 39 0;
#X connect 34 0 20 0;
#X connect 34 0 52 0;
#X connect 34 1 23 0;
#X connect 34 2 19 0;
#X connect 35 0 18 1;
#X connect 35 0 26 1;
#X connect 36 0 24 1;
#X connect 37 0 35 0;
#X connect 39 0 38 0;
#X connect 40 0 0 0;
#X connect 40 0 20 0;
#X connect 40 0 53 0;
#X connect 41 0 1 0;
#X connect 41 0 54 0;
#X connect 43 0 19 1;
#X connect 43 0 39 1;
#X connect 44 0 34 0;
#X connect 45 0 5 0;
#X connect 52 0 53 0;
#X connect 52 1 54 0;
#X connect 53 0 20 0;
#X connect 54 0 20 1;
#X connect 55 0 14 0;
#X connect 56 0 46 0;
#X connect 57 0 59 0;
#X connect 59 0 60 0;
#X connect 60 0 56 1;
#X restore 610 584 pd createBuffer;
#N canvas 0 50 450 300 createBuffer 0;
#X obj 129 117 t b f;
#X obj 129 154 -;
#X obj 129 256 expr 1 / $f1;
#X obj 129 282 * 0.1;
#X text 104 281 frame rate divided by frames on sample;
#X obj 51 67 t b f;
#X obj 51 93 *;
#X obj 51 214 phasor~;
#X obj 54 244 *~;
#X obj 54 282 +~;
#X obj 248 374 loadbang;
#X obj 248 436 snapshot~;
#X floatatom 48 121 5 0 0 0 - - - 12;
#X obj 248 410 metro 30;
#X obj 54 384 hip~ 5;
#X obj 54 311 *~ 480000;
#X obj 129 180 sel 0;
#X msg 895 454 \; buffer-\$1 resize \$2;
#X obj 895 421 pack;
#X obj 895 395 f;
#X obj 419 318 minimum;
#X obj 596 469 tabread;
#X msg 710 350 set sample-\$1;
#X obj 699 292 t b f;
#X obj 571 412 f;
#X obj 619 412 + 1;
#X obj 596 340 f;
#X obj 596 379 until;
#X obj 524 610 tabwrite;
#X msg 826 547 set buffer-\$1;
#X obj 637 547 + 1;
#X obj 579 507 t f b;
#X msg 419 445 0;
#X obj 589 547 f 0;
#X obj 685 243 t b f b;
#X obj 585 293 * 480000;
#X obj 419 350 * 480000;
#X obj 596 268 abs;
#X msg 378 473 \; buffer-\$1 normalize;
#X obj 378 445 f;
#X obj 36 35 inlet;
#X obj 88 35 inlet;
#X obj 248 507 outlet;
#X obj 266 35 inlet;
#X obj 207 35 inlet;
#X obj 140 35 inlet;
#X obj 50 507 outlet~;
#X text 36 12 pointA;
#X text 88 12 pointB;
#X text 140 12 playSpd;
#X text 207 12 toBuffer;
#X text 266 12 buffer;
#X obj 419 204 t b b;
#X obj 419 268 f;
#X obj 464 268 f;
#X obj 54 355 tabread4~ sample-2;
#X obj 54 410 *~;
#X obj 321 35 inlet;
#X text 321 12 vol;
#X msg 320 86 \$1 10;
#X obj 320 112 line~;
#X connect 0 0 1 0;
#X connect 0 1 1 1;
#X connect 0 1 9 1;
#X connect 1 0 8 1;
#X connect 1 0 16 0;
#X connect 2 0 3 0;
#X connect 3 0 6 0;
#X connect 5 0 6 0;
#X connect 5 1 6 1;
#X connect 6 0 12 0;
#X connect 7 0 8 0;
#X connect 8 0 9 0;
#X connect 9 0 11 0;
#X connect 9 0 15 0;
#X connect 10 0 13 0;
#X connect 11 0 42 0;
#X connect 12 0 7 0;
#X connect 13 0 11 0;
#X connect 14 0 56 0;
#X connect 15 0 55 0;
#X connect 16 1 2 0;
#X connect 16 1 37 0;
#X connect 18 0 17 0;
#X connect 19 0 18 0;
#X connect 19 0 29 0;
#X connect 20 0 36 0;
#X connect 21 0 31 0;
#X connect 22 0 21 0;
#X connect 23 0 26 0;
#X connect 23 1 22 0;
#X connect 24 0 25 0;
#X connect 24 0 21 0;
#X connect 25 0 24 1;
#X connect 26 0 27 0;
#X connect 27 0 24 0;
#X connect 29 0 28 0;
#X connect 30 0 33 1;
#X connect 31 0 28 0;
#X connect 31 1 33 0;
#X connect 32 0 33 1;
#X connect 33 0 30 0;
#X connect 33 0 28 1;
#X connect 34 0 32 0;
#X connect 34 0 39 0;
#X connect 34 0 20 0;
#X connect 34 0 52 0;
#X connect 34 1 23 0;
#X connect 34 2 19 0;
#X connect 35 0 18 1;
#X connect 35 0 26 1;
#X connect 36 0 24 1;
#X connect 37 0 35 0;
#X connect 39 0 38 0;
#X connect 40 0 0 0;
#X connect 40 0 20 0;
#X connect 40 0 53 0;
#X connect 41 0 1 0;
#X connect 41 0 54 0;
#X connect 43 0 19 1;
#X connect 43 0 39 1;
#X connect 44 0 34 0;
#X connect 45 0 5 0;
#X connect 52 0 53 0;
#X connect 52 1 54 0;
#X connect 53 0 20 0;
#X connect 54 0 20 1;
#X connect 55 0 14 0;
#X connect 56 0 46 0;
#X connect 57 0 59 0;
#X connect 59 0 60 0;
#X connect 60 0 56 1;
#X restore 407 584 pd createBuffer;
#N canvas 0 50 450 300 createBuffer 0;
#X obj 129 117 t b f;
#X obj 129 154 -;
#X obj 129 256 expr 1 / $f1;
#X obj 129 282 * 0.1;
#X text 105 281 frame rate divided by frames on sample;
#X obj 51 67 t b f;
#X obj 51 93 *;
#X obj 51 214 phasor~;
#X obj 54 244 *~;
#X obj 54 282 +~;
#X obj 248 374 loadbang;
#X obj 248 436 snapshot~;
#X floatatom 48 121 5 0 0 0 - - - 12;
#X obj 248 410 metro 30;
#X obj 54 355 tabread4~ sample-1;
#X obj 54 384 hip~ 5;
#X obj 54 311 *~ 480000;
#X obj 129 180 sel 0;
#X msg 895 454 \; buffer-\$1 resize \$2;
#X obj 895 421 pack;
#X obj 895 395 f;
#X obj 419 318 minimum;
#X obj 596 469 tabread;
#X msg 710 350 set sample-\$1;
#X obj 699 292 t b f;
#X obj 571 412 f;
#X obj 619 412 + 1;
#X obj 596 340 f;
#X obj 596 379 until;
#X obj 524 610 tabwrite;
#X msg 826 547 set buffer-\$1;
#X obj 637 547 + 1;
#X obj 579 507 t f b;
#X msg 419 445 0;
#X obj 589 547 f 0;
#X obj 685 243 t b f b;
#X obj 585 293 * 480000;
#X obj 419 350 * 480000;
#X obj 596 268 abs;
#X msg 378 473 \; buffer-\$1 normalize;
#X obj 378 445 f;
#X obj 36 35 inlet;
#X obj 88 35 inlet;
#X obj 248 507 outlet;
#X obj 266 35 inlet;
#X obj 207 35 inlet;
#X obj 140 35 inlet;
#X obj 50 507 outlet~;
#X text 36 12 pointA;
#X text 88 12 pointB;
#X text 140 12 playSpd;
#X text 207 12 toBuffer;
#X text 266 12 buffer;
#X obj 419 204 t b b;
#X obj 419 268 f;
#X obj 464 268 f;
#X obj 54 469 *~;
#X obj 320 35 inlet;
#X text 320 12 vol;
#X msg 315 75 \$1 10;
#X obj 315 101 line~;
#X connect 0 0 1 0;
#X connect 0 1 1 1;
#X connect 0 1 9 1;
#X connect 1 0 8 1;
#X connect 1 0 17 0;
#X connect 2 0 3 0;
#X connect 3 0 6 0;
#X connect 5 0 6 0;
#X connect 5 1 6 1;
#X connect 6 0 12 0;
#X connect 7 0 8 0;
#X connect 8 0 9 0;
#X connect 9 0 11 0;
#X connect 9 0 16 0;
#X connect 10 0 13 0;
#X connect 11 0 43 0;
#X connect 12 0 7 0;
#X connect 13 0 11 0;
#X connect 14 0 15 0;
#X connect 15 0 56 0;
#X connect 16 0 14 0;
#X connect 17 1 2 0;
#X connect 17 1 38 0;
#X connect 19 0 18 0;
#X connect 20 0 19 0;
#X connect 20 0 30 0;
#X connect 21 0 37 0;
#X connect 22 0 32 0;
#X connect 23 0 22 0;
#X connect 24 0 27 0;
#X connect 24 1 23 0;
#X connect 25 0 26 0;
#X connect 25 0 22 0;
#X connect 26 0 25 1;
#X connect 27 0 28 0;
#X connect 28 0 25 0;
#X connect 30 0 29 0;
#X connect 31 0 34 1;
#X connect 32 0 29 0;
#X connect 32 1 34 0;
#X connect 33 0 34 1;
#X connect 34 0 31 0;
#X connect 34 0 29 1;
#X connect 35 0 33 0;
#X connect 35 0 40 0;
#X connect 35 0 21 0;
#X connect 35 0 53 0;
#X connect 35 1 24 0;
#X connect 35 2 20 0;
#X connect 36 0 19 1;
#X connect 36 0 27 1;
#X connect 37 0 25 1;
#X connect 38 0 36 0;
#X connect 40 0 39 0;
#X connect 41 0 0 0;
#X connect 41 0 21 0;
#X connect 41 0 54 0;
#X connect 42 0 1 0;
#X connect 42 0 55 0;
#X connect 44 0 20 1;
#X connect 44 0 40 1;
#X connect 45 0 35 0;
#X connect 46 0 5 0;
#X connect 53 0 54 0;
#X connect 53 1 55 0;
#X connect 54 0 21 0;
#X connect 55 0 21 1;
#X connect 56 0 47 0;
#X connect 57 0 59 0;
#X connect 59 0 60 0;
#X connect 60 0 56 1;
#X restore 224 584 pd createBuffer;
#X obj 306 76 vsl 16 80 0 1 0 0 empty empty vol 0 -9 0 10 #191919 #e1e1e1 #e1e1e1 0 1;
#X obj 496 76 vsl 16 80 0 1 0 0 empty empty vol 0 -9 0 10 #191919 #e1e1e1 #e1e1e1 0 1;
#X obj 686 76 vsl 16 80 0 1 0 0 empty empty vol 0 -9 0 10 #191919 #e1e1e1 #e1e1e1 0 1;
#X obj 872 76 vsl 16 80 0 1 0 0 empty empty vol 0 -9 0 10 #191919 #e1e1e1 #e1e1e1 0 1;
#X obj 306 166 tgl 20 0 empty empty mute 0 2 0 10 #191919 #e1e1e1 #e1e1e1 0 1;
#X obj 496 166 tgl 20 0 empty empty mute 0 2 0 10 #191919 #e1e1e1 #e1e1e1 0 1;
#X obj 686 166 tgl 20 0 empty empty mute 0 2 0 10 #191919 #e1e1e1 #e1e1e1 0 1;
#X obj 872 166 tgl 20 0 empty empty mute 0 2 0 10 #191919 #e1e1e1 #e1e1e1 0 1;
#X obj 307 557 f;
#X obj 490 557 f;
#X obj 693 557 f;
#X obj 896 557 f;
#X obj 343 557 sel 0 1;
#X msg 359 584 0;
#X obj 528 557 sel 0 1;
#X msg 544 584 0;
#X obj 733 557 sel 0 1;
#X msg 749 584 0;
#X obj 938 557 sel 0 1;
#X msg 954 584 0;
#X obj 907 146 bng 25 250 50 0 empty empty play 3 -7 0 11 #191919 #e1e1e1 #e1e1e1;
#X obj 940 146 knob 25 -2 2 0 1 empty empty #191919 #696969 #E1E1E1 1 0 0 0 1 270 0 0 0 empty empty 1 12 3 16 0 1 0 0;
#X text 940 128 spd, f 4;
#X obj 910 177 hsl 86 9 0 1 0 0 empty empty vol 8 5 0 10 #191919 #e1e1e1 #e1e1e1 0 1;
#X obj 910 125 hsl 86 8 0 1 0 0 empty empty empty 9 8 0 10 #191919 #ff0000 #e1e1e1 0 1;
#N canvas 0 50 450 300 playBuffer 0;
#X obj 256 438 hip~ 5;
#X obj 256 490 *~;
#X obj 256 406 tabread4~ buffer-1;
#X obj 300 490 line~;
#X obj 313 438 f;
#X obj 3 375 loadbang;
#X obj 3 438 snapshot~;
#X msg 170 473 0;
#X obj 299 297 t b f;
#X obj 323 346 *;
#X obj 256 346 phasor~;
#X obj 256 379 *~;
#X obj 348 297 expr 48000 / $f1;
#X obj 34 335 tgl 25 0 empty empty empty 17 7 0 10 #191919 #e1e1e1 #e1e1e1 0 1;
#X obj 467 89 t b b b b;
#X msg 516 117 0;
#X obj 3 406 metro 10;
#X obj 168 446 del;
#X obj 204 304 / 48;
#X msg 300 464 \$1 10;
#X obj 164 346 /;
#X msg 528 156 stop;
#X obj 152 276 sel 0;
#X obj 164 304 t b f;
#X obj 164 372 abs;
#X obj 405 33 inlet;
#X obj 333 33 inlet;
#X obj 261 33 inlet;
#X obj 256 516 outlet~;
#X obj 389 516 outlet;
#X obj 259 251 expr size("buffer-1");
#X connect 0 0 1 0;
#X connect 1 0 28 0;
#X connect 2 0 0 0;
#X connect 3 0 1 1;
#X connect 4 0 19 0;
#X connect 5 0 16 0;
#X connect 6 0 29 0;
#X connect 7 0 10 0;
#X connect 7 0 19 0;
#X connect 8 0 9 0;
#X connect 8 1 9 1;
#X connect 9 0 10 0;
#X connect 10 0 6 0;
#X connect 10 0 11 0;
#X connect 11 0 2 0;
#X connect 12 0 9 0;
#X connect 13 0 16 0;
#X connect 14 0 17 0;
#X connect 14 1 4 0;
#X connect 14 2 30 0;
#X connect 14 3 15 0;
#X connect 14 3 21 0;
#X connect 15 0 10 1;
#X connect 16 0 6 0;
#X connect 17 0 7 0;
#X connect 18 0 20 0;
#X connect 19 0 3 0;
#X connect 20 0 24 0;
#X connect 21 0 17 0;
#X connect 22 1 23 0;
#X connect 23 0 20 0;
#X connect 23 1 20 1;
#X connect 24 0 17 1;
#X connect 25 0 4 0;
#X connect 26 0 8 0;
#X connect 26 0 22 0;
#X connect 27 0 14 0;
#X connect 30 0 12 0;
#X connect 30 0 11 1;
#X connect 30 0 18 0;
#X restore 1017 557 pd playBuffer;
#X obj 1009 146 bng 25 250 50 0 empty empty play 3 -7 0 11 #191919 #e1e1e1 #e1e1e1;
#X obj 1042 146 knob 25 -2 2 0 1 empty empty #191919 #696969 #E1E1E1 1 0 0 0 1 270 0 0 0 empty empty 1 12 3 16 0 1 0 0;
#X text 1042 128 spd, f 4;
#X obj 1012 177 hsl 86 9 0 1 0 0 empty empty vol 8 5 0 10 #191919 #e1e1e1 #e1e1e1 0 1;
#X obj 1012 125 hsl 86 8 0 1 0 0 empty empty empty 9 8 0 10 #191919 #ff0000 #e1e1e1 0 1;
#N canvas 0 50 450 300 playBuffer 0;
#X obj 256 438 hip~ 5;
#X obj 256 490 *~;
#X obj 300 490 line~;
#X obj 313 438 f;
#X obj 3 375 loadbang;
#X obj 3 438 snapshot~;
#X msg 170 473 0;
#X obj 299 297 t b f;
#X obj 323 346 *;
#X obj 256 346 phasor~;
#X obj 256 379 *~;
#X obj 348 297 expr 48000 / $f1;
#X obj 34 335 tgl 25 0 empty empty empty 17 7 0 10 #191919 #e1e1e1 #e1e1e1 0 1;
#X obj 467 89 t b b b b;
#X msg 516 117 0;
#X obj 3 406 metro 10;
#X obj 168 446 del;
#X obj 204 304 / 48;
#X msg 300 464 \$1 10;
#X obj 164 346 /;
#X msg 528 156 stop;
#X obj 152 276 sel 0;
#X obj 164 304 t b f;
#X obj 164 372 abs;
#X obj 405 33 inlet;
#X obj 333 33 inlet;
#X obj 261 33 inlet;
#X obj 256 516 outlet~;
#X obj 389 516 outlet;
#X obj 256 406 tabread4~ buffer-2;
#X obj 259 251 expr size("buffer-2");
#X connect 0 0 1 0;
#X connect 1 0 27 0;
#X connect 2 0 1 1;
#X connect 3 0 18 0;
#X connect 4 0 15 0;
#X connect 5 0 28 0;
#X connect 6 0 9 0;
#X connect 6 0 18 0;
#X connect 7 0 8 0;
#X connect 7 1 8 1;
#X connect 8 0 9 0;
#X connect 9 0 5 0;
#X connect 9 0 10 0;
#X connect 10 0 29 0;
#X connect 11 0 8 0;
#X connect 12 0 15 0;
#X connect 13 0 16 0;
#X connect 13 1 3 0;
#X connect 13 2 30 0;
#X connect 13 3 14 0;
#X connect 13 3 20 0;
#X connect 14 0 9 1;
#X connect 15 0 5 0;
#X connect 16 0 6 0;
#X connect 17 0 19 0;
#X connect 18 0 2 0;
#X connect 19 0 23 0;
#X connect 20 0 16 0;
#X connect 21 1 22 0;
#X connect 22 0 19 0;
#X connect 22 1 19 1;
#X connect 23 0 16 1;
#X connect 24 0 3 0;
#X connect 25 0 7 0;
#X connect 25 0 21 0;
#X connect 26 0 13 0;
#X connect 29 0 0 0;
#X connect 30 0 11 0;
#X connect 30 0 10 1;
#X connect 30 0 17 0;
#X restore 1119 557 pd playBuffer;
#X obj 1111 146 bng 25 250 50 0 empty empty play 3 -7 0 11 #191919 #e1e1e1 #e1e1e1;
#X obj 1144 146 knob 25 -2 2 0 1 empty empty #191919 #696969 #E1E1E1 1 0 0 0 1 270 0 0 0 empty empty 1 12 3 16 0 1 0 0;
#X text 1144 128 spd, f 4;
#X obj 1114 177 hsl 86 9 0 1 0 0 empty empty vol 8 5 0 10 #191919 #e1e1e1 #e1e1e1 0 1;
#X obj 1114 125 hsl 86 8 0 1 0 0 empty empty empty 9 8 0 10 #191919 #ff0000 #e1e1e1 0 1;
#N canvas 0 50 450 300 playBuffer 0;
#X obj 256 438 hip~ 5;
#X obj 256 490 *~;
#X obj 300 490 line~;
#X obj 313 438 f;
#X obj 3 375 loadbang;
#X obj 3 438 snapshot~;
#X msg 170 473 0;
#X obj 299 297 t b f;
#X obj 323 346 *;
#X obj 256 346 phasor~;
#X obj 256 379 *~;
#X obj 348 297 expr 48000 / $f1;
#X obj 34 335 tgl 25 0 empty empty empty 17 7 0 10 #191919 #e1e1e1 #e1e1e1 0 1;
#X obj 467 89 t b b b b;
#X msg 516 117 0;
#X obj 3 406 metro 10;
#X obj 168 446 del;
#X obj 204 304 / 48;
#X msg 300 464 \$1 10;
#X obj 164 346 /;
#X msg 528 156 stop;
#X obj 152 276 sel 0;
#X obj 164 304 t b f;
#X obj 164 372 abs;
#X obj 405 33 inlet;
#X obj 333 33 inlet;
#X obj 261 33 inlet;
#X obj 256 516 outlet~;
#X obj 389 516 outlet;
#X obj 256 406 tabread4~ buffer-3;
#X obj 259 251 expr size("buffer-3");
#X connect 0 0 1 0;
#X connect 1 0 27 0;
#X connect 2 0 1 1;
#X connect 3 0 18 0;
#X connect 4 0 15 0;
#X connect 5 0 28 0;
#X connect 6 0 9 0;
#X connect 6 0 18 0;
#X connect 7 0 8 0;
#X connect 7 1 8 1;
#X connect 8 0 9 0;
#X connect 9 0 5 0;
#X connect 9 0 10 0;
#X connect 10 0 29 0;
#X connect 11 0 8 0;
#X connect 12 0 15 0;
#X connect 13 0 16 0;
#X connect 13 1 3 0;
#X connect 13 2 30 0;
#X connect 13 3 14 0;
#X connect 13 3 20 0;
#X connect 14 0 9 1;
#X connect 15 0 5 0;
#X connect 16 0 6 0;
#X connect 17 0 19 0;
#X connect 18 0 2 0;
#X connect 19 0 23 0;
#X connect 20 0 16 0;
#X connect 21 1 22 0;
#X connect 22 0 19 0;
#X connect 22 1 19 1;
#X connect 23 0 16 1;
#X connect 24 0 3 0;
#X connect 25 0 7 0;
#X connect 25 0 21 0;
#X connect 26 0 13 0;
#X connect 29 0 0 0;
#X connect 30 0 11 0;
#X connect 30 0 10 1;
#X connect 30 0 17 0;
#X restore 1221 557 pd playBuffer;
#X obj 1213 146 bng 25 250 50 0 empty empty play 3 -7 0 11 #191919 #e1e1e1 #e1e1e1;
#X obj 1246 146 knob 25 -2 2 0 1 empty empty #191919 #696969 #E1E1E1 1 0 0 0 1 270 0 0 0 empty empty 1 12 3 16 0 1 0 0;
#X text 1246 128 spd, f 4;
#X obj 1216 177 hsl 86 9 0 1 0 0 empty empty vol 8 5 0 10 #191919 #e1e1e1 #e1e1e1 0 1;
#X obj 1216 125 hsl 86 8 0 1 0 0 empty empty empty 9 8 0 10 #191919 #ff0000 #e1e1e1 0 1;
#N canvas 0 50 450 300 playBuffer 0;
#X obj 256 438 hip~ 5;
#X obj 256 490 *~;
#X obj 300 490 line~;
#X obj 313 438 f;
#X obj 3 375 loadbang;
#X obj 3 438 snapshot~;
#X msg 170 473 0;
#X obj 299 297 t b f;
#X obj 323 346 *;
#X obj 256 346 phasor~;
#X obj 256 379 *~;
#X obj 348 297 expr 48000 / $f1;
#X obj 34 335 tgl 25 0 empty empty empty 17 7 0 10 #191919 #e1e1e1 #e1e1e1 0 1;
#X obj 467 89 t b b b b;
#X msg 516 117 0;
#X obj 3 406 metro 10;
#X obj 168 446 del;
#X obj 204 304 / 48;
#X msg 300 464 \$1 10;
#X obj 164 346 /;
#X msg 528 156 stop;
#X obj 152 276 sel 0;
#X obj 164 304 t b f;
#X obj 164 372 abs;
#X obj 405 33 inlet;
#X obj 333 33 inlet;
#X obj 261 33 inlet;
#X obj 256 516 outlet~;
#X obj 389 516 outlet;
#X obj 256 406 tabread4~ buffer-4;
#X obj 259 251 expr size("buffer-4");
#X connect 0 0 1 0;
#X connect 1 0 27 0;
#X connect 2 0 1 1;
#X connect 3 0 18 0;
#X connect 4 0 15 0;
#X connect 5 0 28 0;
#X connect 6 0 9 0;
#X connect 6 0 18 0;
#X connect 7 0 8 0;
#X connect 7 1 8 1;
#X connect 8 0 9 0;
#X connect 9 0 5 0;
#X connect 9 0 10 0;
#X connect 10 0 29 0;
#X connect 11 0 8 0;
#X connect 12 0 15 0;
#X connect 13 0 16 0;
#X connect 13 1 3 0;
#X connect 13 2 30 0;
#X connect 13 3 14 0;
#X connect 13 3 20 0;
#X connect 14 0 9 1;
#X connect 15 0 5 0;
#X connect 16 0 6 0;
#X connect 17 0 19 0;
#X connect 18 0 2 0;
#X connect 19 0 23 0;
#X connect 20 0 16 0;
#X connect 21 1 22 0;
#X connect 22 0 19 0;
#X connect 22 1 19 1;
#X connect 23 0 16 1;
#X connect 24 0 3 0;
#X connect 25 0 7 0;
#X connect 25 0 21 0;
#X connect 26 0 13 0;
#X connect 29 0 0 0;
#X connect 30 0 11 0;
#X connect 30 0 10 1;
#X connect 30 0 17 0;
#X restore 1323 557 pd playBuffer;
#X obj 907 282 bng 25 250 50 0 empty empty play 3 -7 0 11 #191919 #e1e1e1 #e1e1e1;
#X obj 940 282 knob 25 -2 2 0 1 empty empty #191919 #696969 #E1E1E1 1 0 0 0 1 270 0 0 0 empty empty 1 12 3 16 0 1 0 0;
#X text 940 264 spd, f 4;
#X obj 910 313 hsl 86 9 0 1 0 0 empty empty vol 8 5 0 10 #191919 #e1e1e1 #e1e1e1 0 1;
#X obj 910 261 hsl 86 8 0 1 0 0 empty empty empty 9 8 0 10 #191919 #ff0000 #e1e1e1 0 1;
#N canvas 0 50 450 300 playBuffer 0;
#X obj 256 438 hip~ 5;
#X obj 256 490 *~;
#X obj 300 490 line~;
#X obj 313 438 f;
#X obj 3 375 loadbang;
#X obj 3 438 snapshot~;
#X msg 170 473 0;
#X obj 299 297 t b f;
#X obj 323 346 *;
#X obj 256 346 phasor~;
#X obj 256 379 *~;
#X obj 348 297 expr 48000 / $f1;
#X obj 34 335 tgl 25 0 empty empty empty 17 7 0 10 #191919 #e1e1e1 #e1e1e1 0 1;
#X obj 467 89 t b b b b;
#X msg 516 117 0;
#X obj 3 406 metro 10;
#X obj 168 446 del;
#X obj 204 304 / 48;
#X msg 300 464 \$1 10;
#X obj 164 346 /;
#X msg 528 156 stop;
#X obj 152 276 sel 0;
#X obj 164 304 t b f;
#X obj 164 372 abs;
#X obj 405 33 inlet;
#X obj 333 33 inlet;
#X obj 261 33 inlet;
#X obj 256 516 outlet~;
#X obj 389 516 outlet;
#X obj 256 406 tabread4~ buffer-5;
#X obj 259 251 expr size("buffer-5");
#X connect 0 0 1 0;
#X connect 1 0 27 0;
#X connect 2 0 1 1;
#X connect 3 0 18 0;
#X connect 4 0 15 0;
#X connect 5 0 28 0;
#X connect 6 0 9 0;
#X connect 6 0 18 0;
#X connect 7 0 8 0;
#X connect 7 1 8 1;
#X connect 8 0 9 0;
#X connect 9 0 5 0;
#X connect 9 0 10 0;
#X connect 10 0 29 0;
#X connect 11 0 8 0;
#X connect 12 0 15 0;
#X connect 13 0 16 0;
#X connect 13 1 3 0;
#X connect 13 2 30 0;
#X connect 13 3 14 0;
#X connect 13 3 20 0;
#X connect 14 0 9 1;
#X connect 15 0 5 0;
#X connect 16 0 6 0;
#X connect 17 0 19 0;
#X connect 18 0 2 0;
#X connect 19 0 23 0;
#X connect 20 0 16 0;
#X connect 21 1 22 0;
#X connect 22 0 19 0;
#X connect 22 1 19 1;
#X connect 23 0 16 1;
#X connect 24 0 3 0;
#X connect 25 0 7 0;
#X connect 25 0 21 0;
#X connect 26 0 13 0;
#X connect 29 0 0 0;
#X connect 30 0 11 0;
#X connect 30 0 10 1;
#X connect 30 0 17 0;
#X restore 1017 693 pd playBuffer;
#X obj 1009 282 bng 25 250 50 0 empty empty play 3 -7 0 11 #191919 #e1e1e1 #e1e1e1;
#X obj 1042 282 knob 25 -2 2 0 1 empty empty #191919 #696969 #E1E1E1 1 0 0 0 1 270 0 0 0 empty empty 1 12 3 16 0 1 0 0;
#X text 1042 264 spd, f 4;
#X obj 1012 313 hsl 86 9 0 1 0 0 empty empty vol 8 5 0 10 #191919 #e1e1e1 #e1e1e1 0 1;
#X obj 1012 261 hsl 86 8 0 1 0 0 empty empty empty 9 8 0 10 #191919 #ff0000 #e1e1e1 0 1;
#N canvas 0 50 450 300 playBuffer 0;
#X obj 256 438 hip~ 5;
#X obj 256 490 *~;
#X obj 300 490 line~;
#X obj 313 438 f;
#X obj 3 375 loadbang;
#X obj 3 438 snapshot~;
#X msg 170 473 0;
#X obj 299 297 t b f;
#X obj 323 346 *;
#X obj 256 346 phasor~;
#X obj 256 379 *~;
#X obj 348 297 expr 48000 / $f1;
#X obj 34 335 tgl 25 0 empty empty empty 17 7 0 10 #191919 #e1e1e1 #e1e1e1 0 1;
#X obj 467 89 t b b b b;
#X msg 516 117 0;
#X obj 3 406 metro 10;
#X obj 168 446 del;
#X obj 204 304 / 48;
#X msg 300 464 \$1 10;
#X obj 164 346 /;
#X msg 528 156 stop;
#X obj 152 276 sel 0;
#X obj 164 304 t b f;
#X obj 164 372 abs;
#X obj 405 33 inlet;
#X obj 333 33 inlet;
#X obj 261 33 inlet;
#X obj 256 516 outlet~;
#X obj 389 516 outlet;
#X obj 256 406 tabread4~ buffer-6;
#X obj 259 251 expr size("buffer-6");
#X connect 0 0 1 0;
#X connect 1 0 27 0;
#X connect 2 0 1 1;
#X connect 3 0 18 0;
#X connect 4 0 15 0;
#X connect 5 0 28 0;
#X connect 6 0 9 0;
#X connect 6 0 18 0;
#X connect 7 0 8 0;
#X connect 7 1 8 1;
#X connect 8 0 9 0;
#X connect 9 0 5 0;
#X connect 9 0 10 0;
#X connect 10 0 29 0;
#X connect 11 0 8 0;
#X connect 12 0 15 0;
#X connect 13 0 16 0;
#X connect 13 1 3 0;
#X connect 13 2 30 0;
#X connect 13 3 14 0;
#X connect 13 3 20 0;
#X connect 14 0 9 1;
#X connect 15 0 5 0;
#X connect 16 0 6 0;
#X connect 17 0 19 0;
#X connect 18 0 2 0;
#X connect 19 0 23 0;
#X connect 20 0 16 0;
#X connect 21 1 22 0;
#X connect 22 0 19 0;
#X connect 22 1 19 1;
#X connect 23 0 16 1;
#X connect 24 0 3 0;
#X connect 25 0 7 0;
#X connect 25 0 21 0;
#X connect 26 0 13 0;
#X connect 29 0 0 0;
#X connect 30 0 11 0;
#X connect 30 0 10 1;
#X connect 30 0 17 0;
#X restore 1119 693 pd playBuffer;
#X obj 1111 282 bng 25 250 50 0 empty empty play 3 -7 0 11 #191919 #e1e1e1 #e1e1e1;
#X obj 1144 282 knob 25 -2 2 0 1 empty empty #191919 #696969 #E1E1E1 1 0 0 0 1 270 0 0 0 empty empty 1 12 3 16 0 1 0 0;
#X text 1144 264 spd, f 4;
#X obj 1114 313 hsl 86 9 0 1 0 0 empty empty vol 8 5 0 10 #191919 #e1e1e1 #e1e1e1 0 1;
#X obj 1114 261 hsl 86 8 0 1 0 0 empty empty empty 9 8 0 10 #191919 #ff0000 #e1e1e1 0 1;
#N canvas 0 50 450 300 playBuffer 0;
#X obj 256 438 hip~ 5;
#X obj 256 490 *~;
#X obj 300 490 line~;
#X obj 313 438 f;
#X obj 3 375 loadbang;
#X obj 3 438 snapshot~;
#X msg 170 473 0;
#X obj 299 297 t b f;
#X obj 323 346 *;
#X obj 256 346 phasor~;
#X obj 256 379 *~;
#X obj 348 297 expr 48000 / $f1;
#X obj 34 335 tgl 25 0 empty empty empty 17 7 0 10 #191919 #e1e1e1 #e1e1e1 0 1;
#X obj 467 89 t b b b b;
#X msg 516 117 0;
#X obj 3 406 metro 10;
#X obj 168 446 del;
#X obj 204 304 / 48;
#X msg 300 464 \$1 10;
#X obj 164 346 /;
#X msg 528 156 stop;
#X obj 152 276 sel 0;
#X obj 164 304 t b f;
#X obj 164 372 abs;
#X obj 405 33 inlet;
#X obj 333 33 inlet;
#X obj 261 33 inlet;
#X obj 256 516 outlet~;
#X obj 389 516 outlet;
#X obj 256 406 tabread4~ buffer-7;
#X obj 259 251 expr size("buffer-7");
#X connect 0 0 1 0;
#X connect 1 0 27 0;
#X connect 2 0 1 1;
#X connect 3 0 18 0;
#X connect 4 0 15 0;
#X connect 5 0 28 0;
#X connect 6 0 9 0;
#X connect 6 0 18 0;
#X connect 7 0 8 0;
#X connect 7 1 8 1;
#X connect 8 0 9 0;
#X connect 9 0 5 0;
#X connect 9 0 10 0;
#X connect 10 0 29 0;
#X connect 11 0 8 0;
#X connect 12 0 15 0;
#X connect 13 0 16 0;
#X connect 13 1 3 0;
#X connect 13 2 30 0;
#X connect 13 3 14 0;
#X connect 13 3 20 0;
#X connect 14 0 9 1;
#X connect 15 0 5 0;
#X connect 16 0 6 0;
#X connect 17 0 19 0;
#X connect 18 0 2 0;
#X connect 19 0 23 0;
#X connect 20 0 16 0;
#X connect 21 1 22 0;
#X connect 22 0 19 0;
#X connect 22 1 19 1;
#X connect 23 0 16 1;
#X connect 24 0 3 0;
#X connect 25 0 7 0;
#X connect 25 0 21 0;
#X connect 26 0 13 0;
#X connect 29 0 0 0;
#X connect 30 0 11 0;
#X connect 30 0 10 1;
#X connect 30 0 17 0;
#X restore 1221 693 pd playBuffer;
#X obj 1213 282 bng 25 250 50 0 empty empty play 3 -7 0 11 #191919 #e1e1e1 #e1e1e1;
#X obj 1246 282 knob 25 -2 2 0 1 empty empty #191919 #696969 #E1E1E1 1 0 0 0 1 270 0 0 0 empty empty 1 12 3 16 0 1 0 0;
#X text 1246 264 spd, f 4;
#X obj 1216 313 hsl 86 9 0 1 0 0 empty empty vol 8 5 0 10 #191919 #e1e1e1 #e1e1e1 0 1;
#X obj 1216 261 hsl 86 8 0 1 0 0 empty empty empty 9 8 0 10 #191919 #ff0000 #e1e1e1 0 1;
#N canvas 0 50 450 300 playBuffer 0;
#X obj 256 438 hip~ 5;
#X obj 256 490 *~;
#X obj 300 490 line~;
#X obj 313 438 f;
#X obj 3 375 loadbang;
#X obj 3 438 snapshot~;
#X msg 170 473 0;
#X obj 299 297 t b f;
#X obj 323 346 *;
#X obj 256 346 phasor~;
#X obj 256 379 *~;
#X obj 348 297 expr 48000 / $f1;
#X obj 34 335 tgl 25 0 empty empty empty 17 7 0 10 #191919 #e1e1e1 #e1e1e1 0 1;
#X obj 467 89 t b b b b;
#X msg 516 117 0;
#X obj 3 406 metro 10;
#X obj 168 446 del;
#X obj 204 304 / 48;
#X msg 300 464 \$1 10;
#X obj 164 346 /;
#X msg 528 156 stop;
#X obj 152 276 sel 0;
#X obj 164 304 t b f;
#X obj 164 372 abs;
#X obj 405 33 inlet;
#X obj 333 33 inlet;
#X obj 261 33 inlet;
#X obj 256 516 outlet~;
#X obj 389 516 outlet;
#X obj 256 406 tabread4~ buffer-8;
#X obj 259 251 expr size("buffer-8");
#X connect 0 0 1 0;
#X connect 1 0 27 0;
#X connect 2 0 1 1;
#X connect 3 0 18 0;
#X connect 4 0 15 0;
#X connect 5 0 28 0;
#X connect 6 0 9 0;
#X connect 6 0 18 0;
#X connect 7 0 8 0;
#X connect 7 1 8 1;
#X connect 8 0 9 0;
#X connect 9 0 5 0;
#X connect 9 0 10 0;
#X connect 10 0 29 0;
#X connect 11 0 8 0;
#X connect 12 0 15 0;
#X connect 13 0 16 0;
#X connect 13 1 3 0;
#X connect 13 2 30 0;
#X connect 13 3 14 0;
#X connect 13 3 20 0;
#X connect 14 0 9 1;
#X connect 15 0 5 0;
#X connect 16 0 6 0;
#X connect 17 0 19 0;
#X connect 18 0 2 0;
#X connect 19 0 23 0;
#X connect 20 0 16 0;
#X connect 21 1 22 0;
#X connect 22 0 19 0;
#X connect 22 1 19 1;
#X connect 23 0 16 1;
#X connect 24 0 3 0;
#X connect 25 0 7 0;
#X connect 25 0 21 0;
#X connect 26 0 13 0;
#X connect 29 0 0 0;
#X connect 30 0 11 0;
#X connect 30 0 10 1;
#X connect 30 0 17 0;
#X restore 1323 693 pd playBuffer;
#X obj 1069 -126 random 1000;
#X obj 1069 -100 + 100;
#X obj 6 242 tgl 25 0 empty empty empty 17 7 0 10 #191919 #e1e1e1 #e1e1e1 0 1;
#X obj 983 -126 random 8;
#X obj 983 -74 + 1;
#X obj 983 -152 metro 400;
#X obj 983 -48 sel 1 2 3 4 5 6 7 8;
#X obj 9 276 hsl 127 16 150 5000 0 0 empty empty density 16 8 0 13 #191919 #e1e1e1 #e1e1e1 0 1;
#X obj 1171 -122 / 10;
#X obj 105 80 bng 30 250 50 0 empty empty open 1 -7 0 10 #191919 #e1e1e1 #e1e1e1;
#X text 6 226 cloud mode;
#X obj 38 250 tgl 17 0 empty empty random\ parameters 17 7 0 10 #191919 #e1e1e1 #e1e1e1 0 1;
#X obj 51 297 bng 25 250 50 0 empty empty randomize\ parameters 17 7 0 10 #191919 #e1e1e1 #e1e1e1;
#X obj 1280 -74 spigot;
#X obj 1386 -86 random 4000;
#X obj 1386 -60 / 1000;
#X obj 1386 -34 - 2;
#X obj 1481 -60 + 30;
#X obj 1481 -86 random 70;
#X obj 1481 23 gate 8;
#X obj 1656 -86 f 0;
#X obj 1699 -86 + 1;
#X obj 1656 -60 mod 8;
#X obj 1656 -34 + 1;
#X obj 1384 -155 until;
#X msg 1386 -181 8;
#X obj 1332 23 gate 8;
#X obj 1481 -34 / 100;
#X obj 983 -100 t f f;
#X floatatom 6 295 5 0 0 0 - - - 12;
#X msg 111 -55 800;
#N canvas 0 50 450 300 recorder 1;
#X obj 744 431 *~;
#X msg 794 405 \$1 10;
#X obj 794 431 line~;
#X obj 794 325 * 3;
#X obj 368 269 f 10;
#X obj 420 269 - 1;
#X obj 368 238 metro 1000;
#X obj 368 306 sel -1;
#X msg 420 306 10;
#X obj 434 384 + 1;
#X obj 423 409 f;
#X obj 309 393 del 10005;
#X msg 325 422 stop;
#X obj 325 269 t f f;
#X obj 325 308 sel 1;
#X obj 244 462 writesf~;
#X msg 356 368 start;
#X obj 269 546 soundfiler;
#X obj 230 368 + 1;
#X obj 219 393 f;
#X msg 363 478 open -bytes 3 samples/sample-\$1.wav;
#X msg 175 506 read samples/sample-\$1.wav sample-\$1;
#X obj 80 405 loadbang;
#X obj 80 431 t b b b b;
#X msg 80 457 1;
#X msg 158 457 4;
#X msg 132 457 3;
#X msg 106 457 2;
#X msg 181 221 \; sample-1 normalize \; sample-2 normalize \; sample-3 normalize \; sample-4 normalize;
#X obj 203 182 loadbang;
#X obj 325 336 t b b b b;
#X obj 423 435 t f f;
#X msg 437 506 \; sample-\$1 resize 480000;
#X obj 483 350 openpanel;
#X obj 569 325 + 1;
#X obj 558 350 f;
#X msg 483 431 read -resize \$1 sample-\$2;
#X obj 483 325 t b b;
#X obj 483 376 symbol;
#X obj 483 405 pack s f;
#X obj 218 81 inlet;
#X obj 218 107 + 1;
#X text 226 60 to;
#X obj 280 81 inlet;
#X obj 402 644 outlet;
#X text 402 619 counter out;
#X obj 110 75 inlet;
#X text 98 56 rec onoff;
#X obj 166 81 inlet;
#X text 166 56 open;
#X obj 26 75 inlet~;
#X text 268 62 vol boost;
#X obj 794 351 + 1;
#X obj 93 221 sel 0;
#X connect 0 0 15 0;
#X connect 1 0 2 0;
#X connect 2 0 0 1;
#X connect 3 0 52 0;
#X connect 4 0 5 0;
#X connect 4 0 44 0;
#X connect 5 0 7 0;
#X connect 6 0 4 0;
#X connect 7 0 8 0;
#X connect 7 1 4 1;
#X connect 8 0 4 1;
#X connect 9 0 10 1;
#X connect 10 0 31 0;
#X connect 11 0 12 0;
#X connect 11 0 19 0;
#X connect 12 0 15 0;
#X connect 13 0 14 0;
#X connect 13 1 6 0;
#X connect 14 0 30 0;
#X connect 16 0 15 0;
#X connect 18 0 19 1;
#X connect 19 0 21 0;
#X connect 20 0 15 0;
#X connect 21 0 17 0;
#X connect 22 0 23 0;
#X connect 23 0 24 0;
#X connect 23 1 27 0;
#X connect 23 2 26 0;
#X connect 23 3 25 0;
#X connect 24 0 21 0;
#X connect 25 0 21 0;
#X connect 26 0 21 0;
#X connect 27 0 21 0;
#X connect 29 0 28 0;
#X connect 30 1 11 0;
#X connect 30 2 16 0;
#X connect 30 3 10 0;
#X connect 31 0 20 0;
#X connect 31 1 32 0;
#X connect 33 0 38 0;
#X connect 34 0 35 1;
#X connect 35 0 39 1;
#X connect 36 0 17 0;
#X connect 37 0 33 0;
#X connect 37 1 35 0;
#X connect 38 0 39 0;
#X connect 39 0 36 0;
#X connect 40 0 41 0;
#X connect 41 0 35 1;
#X connect 41 0 10 1;
#X connect 41 0 19 1;
#X connect 43 0 3 0;
#X connect 46 0 13 0;
#X connect 46 0 53 0;
#X connect 48 0 37 0;
#X connect 50 0 0 0;
#X connect 52 0 1 0;
#X connect 53 0 28 0;
#X restore -252 209 pd recorder;
#X obj 277 207 knob 38 -1 1 0 0 empty empty #191919 #696969 #E1E1E1 1 0 0 0 1 270 0 0 0 empty empty 2 12 6 -15 0 1 0 0;
#X obj 277 667 + 1;
#X obj 277 693 / 2;
#X msg 277 720 \$1 10;
#X obj 277 746 line~;
#X obj 233 720 *~ -1;
#X obj 233 746 +~ 1;
#X obj 222 776 *~;
#X obj 266 776 *~;
#X text 286 189 pan;
#X obj 478 207 knob 38 -1 1 0 0 empty empty #191919 #696969 #E1E1E1 1 0 0 0 1 270 0 0 0 empty empty 2 12 6 -15 0 1 0 0;
#X obj 478 667 + 1;
#X obj 478 693 / 2;
#X msg 478 720 \$1 10;
#X obj 478 746 line~;
#X obj 434 720 *~ -1;
#X obj 434 746 +~ 1;
#X obj 423 776 *~;
#X obj 467 776 *~;
#X text 487 189 pan;
#X obj 668 207 knob 38 -1 1 0 0 empty empty #191919 #696969 #E1E1E1 1 0 0 0 1 270 0 0 0 empty empty 2 12 6 -15 0 1 0 0;
#X obj 668 667 + 1;
#X obj 668 693 / 2;
#X msg 668 720 \$1 10;
#X obj 668 746 line~;
#X obj 624 720 *~ -1;
#X obj 624 746 +~ 1;
#X obj 613 776 *~;
#X obj 657 776 *~;
#X text 677 189 pan;
#X obj 854 207 knob 38 -1 1 0 0 empty empty #191919 #696969 #E1E1E1 1 0 0 0 1 270 0 0 0 empty empty 2 12 6 -15 0 1 0 0;
#X obj 854 667 + 1;
#X obj 854 693 / 2;
#X msg 854 720 \$1 10;
#X obj 854 746 line~;
#X obj 810 720 *~ -1;
#X obj 810 746 +~ 1;
#X obj 799 776 *~;
#X obj 843 776 *~;
#X text 863 189 pan;
#X obj 973 146 knob 25 -1 1 0 0 empty empty #191919 #696969 #E1E1E1 1 0 0 0 1 270 0 0 0 empty empty 2 12 6 -15 0 1 0 0;
#X obj 989 769 + 1;
#X obj 989 795 / 2;
#X msg 989 822 \$1 10;
#X obj 989 848 line~;
#X obj 945 822 *~ -1;
#X obj 945 848 +~ 1;
#X obj 934 878 *~;
#X obj 978 878 *~;
#X text 973 128 pan, f 4;
#X obj 1075 146 knob 25 -1 1 0 0 empty empty #191919 #696969 #E1E1E1 1 0 0 0 1 270 0 0 0 empty empty 2 12 6 -15 0 1 0 0;
#X obj 1091 769 + 1;
#X obj 1091 795 / 2;
#X msg 1091 822 \$1 10;
#X obj 1091 848 line~;
#X obj 1047 822 *~ -1;
#X obj 1047 848 +~ 1;
#X obj 1036 878 *~;
#X obj 1080 878 *~;
#X text 1075 128 pan, f 4;
#X obj 1177 146 knob 25 -1 1 0 0 empty empty #191919 #696969 #E1E1E1 1 0 0 0 1 270 0 0 0 empty empty 2 12 6 -15 0 1 0 0;
#X obj 1193 769 + 1;
#X obj 1193 795 / 2;
#X msg 1193 822 \$1 10;
#X obj 1193 848 line~;
#X obj 1149 822 *~ -1;
#X obj 1149 848 +~ 1;
#X obj 1138 878 *~;
#X obj 1182 878 *~;
#X text 1177 128 pan, f 4;
#X obj 1279 146 knob 25 -1 1 0 0 empty empty #191919 #696969 #E1E1E1 1 0 0 0 1 270 0 0 0 empty empty 2 12 6 -15 0 1 0 0;
#X obj 1295 769 + 1;
#X obj 1295 795 / 2;
#X msg 1295 822 \$1 10;
#X obj 1295 848 line~;
#X obj 1251 822 *~ -1;
#X obj 1251 848 +~ 1;
#X obj 1240 878 *~;
#X obj 1284 878 *~;
#X text 1279 128 pan, f 4;
#X obj 973 282 knob 25 -1 1 0 0 empty empty #191919 #696969 #E1E1E1 1 0 0 0 1 270 0 0 0 empty empty 2 12 6 -15 0 1 0 0;
#X obj 1405 769 + 1;
#X obj 1405 795 / 2;
#X msg 1405 822 \$1 10;
#X obj 1405 848 line~;
#X obj 1361 822 *~ -1;
#X obj 1361 848 +~ 1;
#X obj 1350 878 *~;
#X obj 1394 878 *~;
#X text 973 264 pan, f 4;
#X obj 1075 282 knob 25 -1 1 0 0 empty empty #191919 #696969 #E1E1E1 1 0 0 0 1 270 0 0 0 empty empty 2 12 6 -15 0 1 0 0;
#X obj 1507 769 + 1;
#X obj 1507 795 / 2;
#X msg 1507 822 \$1 10;
#X obj 1507 848 line~;
#X obj 1463 822 *~ -1;
#X obj 1463 848 +~ 1;
#X obj 1452 878 *~;
#X obj 1496 878 *~;
#X text 1075 264 pan, f 4;
#X obj 1177 282 knob 25 -1 1 0 0 empty empty #191919 #696969 #E1E1E1 1 0 0 0 1 270 0 0 0 empty empty 2 12 6 -15 0 1 0 0;
#X obj 1609 769 + 1;
#X obj 1609 795 / 2;
#X msg 1609 822 \$1 10;
#X obj 1609 848 line~;
#X obj 1565 822 *~ -1;
#X obj 1565 848 +~ 1;
#X obj 1554 878 *~;
#X obj 1598 878 *~;
#X text 1177 264 pan, f 4;
#X obj 1279 282 knob 25 -1 1 0 0 empty empty #191919 #696969 #E1E1E1 1 0 0 0 1 270 0 0 0 empty empty 2 12 6 -15 0 1 0 0;
#X obj 1711 769 + 1;
#X obj 1711 795 / 2;
#X msg 1711 822 \$1 10;
#X obj 1711 848 line~;
#X obj 1667 822 *~ -1;
#X obj 1667 848 +~ 1;
#X obj 1656 878 *~;
#X obj 1700 878 *~;
#X text 1279 264 pan, f 4;
#X obj 1634 23 gate 8;
#X obj 1384 -129 t b b b b;
#X obj 1565 -86 random 200;
#X obj 1565 -60 / 100;
#X obj 1565 -34 - 1;
#X obj 1280 -48 t b b b f;
#X obj 90 1016 *~ 1;
#X obj 24 1016 *~ 1;
#X obj 344 1789 outlet~;
#X obj 410 1789 outlet~;
#X obj 480 1789 outlet~;
#X obj 546 1789 outlet~;
#X text 173 401 sample-1;
#X obj 801 1789 outlet~;
#X obj 867 1789 outlet~;
#X obj 937 1789 outlet~;
#X obj 1003 1789 outlet~;
#X obj 1067 1789 outlet~;
#X obj 1133 1789 outlet~;
#X obj 1203 1789 outlet~;
#X obj 1269 1789 outlet~;
#X text 281 401 sample-2;
#X text 371 400 sample-3;
#X text 474 400 sample-4;
#X text 601 400 buffer-1;
#X text 707 400 buffer-2;
#X text 805 400 buffer-3;
#X text 905 400 buffer-4;
#X text 1287 400 buffer-8;
#X text 1211 400 buffer-7;
#X text 1109 400 buffer-6;
#X text 1011 400 buffer-5;
#X obj -252 -98 inlet~;
#X obj 6 133 vsl 39 75 0 1 0 0 empty empty vol\ boost 0 9 0 10 #191919 #e1e1e1 #e1e1e1 0 1;
#X obj 15 339 vu 19 80 empty L -1 -8 0 10 #404040 #e1e1e1 1 0;
#X obj -246 1422 *~;
#X obj 373 341 knob 34 -1 1 0 0 empty empty #191919 #696969 #E1E1E1 1 0 0 0 1 270 0 0 0 empty empty 2 12 8 24 0 1 0 0;
#X text 373 319 pan, f 4;
#X obj -137 1251 + 1;
#X obj -137 1277 / 2;
#X msg -137 1305 \$1 10;
#X obj -137 1331 line~;
#X obj -235 1317 *~ -1;
#X obj -235 1343 +~ 1;
#X obj -246 1373 *~;
#X obj -168 1373 *~;
#X text -90 1266 panning;
#X obj -168 1422 *~;
#X obj 110 1789 outlet~;
#X obj 188 1789 outlet~;
#N canvas 0 50 450 300 vu 0;
#X obj 710 374 env~ 1024;
#X obj 812 356 abs~;
#X obj 812 458 snapshot~;
#X obj 812 501 rmstodb;
#X obj 615 263 inlet~;
#X obj 812 533 - 100;
#X obj 710 532 - 100;
#X obj 890 334 expr 1000 / $f1;
#X floatatom 890 362 5 0 0 0 - - - 0;
#X obj 812 391 slop~ 0 0 0 0 1e+09;
#X text 933 363 hz;
#X obj 710 416 t f b;
#X obj 890 263 loadbang;
#X msg 890 289 300;
#X text 680 319 from pd example inside vu-help.pd;
#X msg 852 289 0;
#X obj 710 558 outlet;
#X obj 812 559 outlet;
#X connect 0 0 11 0;
#X connect 1 0 9 0;
#X connect 2 0 3 0;
#X connect 3 0 5 0;
#X connect 4 0 0 0;
#X connect 4 0 1 0;
#X connect 5 0 17 0;
#X connect 6 0 16 0;
#X connect 7 0 8 0;
#X connect 8 0 9 3;
#X connect 9 0 2 0;
#X connect 11 0 6 0;
#X connect 11 1 2 0;
#X connect 12 0 13 0;
#X connect 12 0 15 0;
#X connect 13 0 7 0;
#X restore -221 1542 pd vu;
#N canvas 0 50 450 300 vu 0;
#X obj 710 374 env~ 1024;
#X obj 812 356 abs~;
#X obj 812 458 snapshot~;
#X obj 812 501 rmstodb;
#X obj 615 263 inlet~;
#X obj 812 533 - 100;
#X obj 710 532 - 100;
#X obj 890 334 expr 1000 / $f1;
#X floatatom 890 362 5 0 0 0 - - - 0;
#X obj 812 391 slop~ 0 0 0 0 1e+09;
#X text 933 363 hz;
#X obj 710 416 t f b;
#X obj 890 263 loadbang;
#X msg 890 289 300;
#X text 680 319 from pd example inside vu-help.pd;
#X msg 852 289 0;
#X obj 710 558 outlet;
#X obj 812 559 outlet;
#X connect 0 0 11 0;
#X connect 1 0 9 0;
#X connect 2 0 3 0;
#X connect 3 0 5 0;
#X connect 4 0 0 0;
#X connect 4 0 1 0;
#X connect 5 0 17 0;
#X connect 6 0 16 0;
#X connect 7 0 8 0;
#X connect 8 0 9 3;
#X connect 9 0 2 0;
#X connect 11 0 6 0;
#X connect 11 1 2 0;
#X connect 12 0 13 0;
#X connect 12 0 15 0;
#X connect 13 0 7 0;
#X restore -143 1542 pd vu;
#X obj 97 339 vu 19 80 empty R -1 -8 0 10 #404040 #e1e1e1 1 0;
#X msg -90 1373 \$1 10;
#X obj -90 1399 line~;
#X obj -246 1499 *~;
#X obj -159 1499 *~;
#X msg -26 1392 \$1 10;
#X obj -26 1418 line~;
#X obj 320 341 tgl 34 1 empty empty mute -1 -10 0 14 #191919 #e1e1e1 #e1e1e1 0 1;
#X obj -7 1357 sel 0 1;
#X msg 25 1383 0;
#X msg -7 1383 1;
#X obj 178 341 hsl 121 34 0 1 0 0 empty empty gain -2 -8 0 10 #191919 #e1e1e1 #e1e1e1 0 1;
#X obj -181 1182 *~;
#X obj 443 341 hradio 34 1 1 6 empty empty f-mod 0 -8 0 14 #191919 #e1e1e1 #e1e1e1 0;
#X text 449 376 off;
#X text 479 376 sine;
#X text 512 376 ramp;
#X text 549 376 saw;
#X text 579 376 trian;
#X text 614 376 sqr;
#X floatatom 648 345 4 0 0 0 - - - 24;
#X obj -272 1182 *~;
#N canvas 0 50 450 300 naiveFilter 0;
#X obj 267 347 *~;
#X obj 71 1028 outlet~;
#X obj 71 29 inlet~;
#X obj 71 878 *~;
#X obj 172 878 *~;
#X obj 71 930 *~ 1;
#X obj 71 968 *~ 0.5;
#X obj 402 347 clip~ 0 99;
#X obj 324 347 /~ 100;
#X obj 109 811 *~ -1;
#X obj 109 837 +~ 1;
#X obj 267 538 hv.hip~;
#X obj 267 652 hv.lop~;
#X obj 267 626 hv.lop~;
#X obj 267 600 hv.lop~;
#X obj 267 574 hv.lop~;
#X obj 303 495 pow~ 2;
#X text 392 8 del;
#X text 439 8 fbk;
#X text 333 8 hip;
#X text 219 8 mix;
#X text 268 8 lop;
#X obj 169 229 line~;
#X obj 259 229 line~;
#X obj 307 229 line~;
#X obj 355 229 line~;
#X obj 402 229 line~;
#X msg 169 200 \$1 10;
#X msg 259 200 \$1 10;
#X msg 307 200 \$1 10;
#X msg 355 200 \$1 10;
#X msg 402 200 \$1 10;
#X obj 382 29 inlet;
#X obj 429 29 inlet;
#X obj 324 29 inlet;
#X obj 259 29 inlet;
#X obj 210 29 inlet;
#X obj 259 62 pow 2;
#X obj 259 88 * 20000;
#X obj 324 62 pow 3;
#X obj 324 88 * 200;
#X obj 429 62 * 95;
#X obj 429 88 + 1;
#X obj 382 62 * 100;
#X obj 727 347 *~;
#X obj 531 1028 outlet~;
#X obj 119 29 inlet~;
#X obj 531 878 *~;
#X obj 632 878 *~;
#X obj 531 930 *~ 1;
#X obj 531 968 *~ 0.5;
#X obj 862 347 clip~ 0 99;
#X obj 784 347 /~ 100;
#X obj 569 811 *~ -1;
#X obj 569 837 +~ 1;
#X obj 727 538 hv.hip~;
#X obj 727 652 hv.lop~;
#X obj 727 626 hv.lop~;
#X obj 727 600 hv.lop~;
#X obj 727 574 hv.lop~;
#X obj 763 495 pow~ 2;
#X obj 342 726 delwrite~ \$0-naiveL 1000;
#X obj 267 286 delread4~ \$0-naiveL 0;
#X obj 727 286 delread4~ \$0-naiveR 0;
#X obj 802 726 delwrite~ \$0-naiveR 1000;
#X connect 0 0 11 0;
#X connect 2 0 3 0;
#X connect 2 0 11 0;
#X connect 3 0 5 0;
#X connect 4 0 5 0;
#X connect 5 0 6 0;
#X connect 6 0 1 0;
#X connect 7 0 8 0;
#X connect 8 0 0 1;
#X connect 9 0 10 0;
#X connect 10 0 3 1;
#X connect 11 0 15 0;
#X connect 12 0 4 0;
#X connect 12 0 61 0;
#X connect 13 0 12 0;
#X connect 14 0 13 0;
#X connect 15 0 14 0;
#X connect 16 0 11 1;
#X connect 22 0 4 1;
#X connect 22 0 9 0;
#X connect 22 0 53 0;
#X connect 22 0 48 1;
#X connect 23 0 12 1;
#X connect 23 0 13 1;
#X connect 23 0 14 1;
#X connect 23 0 15 1;
#X connect 23 0 57 1;
#X connect 23 0 58 1;
#X connect 23 0 59 1;
#X connect 23 0 56 1;
#X connect 24 0 16 0;
#X connect 24 0 60 0;
#X connect 25 0 62 0;
#X connect 25 0 63 0;
#X connect 26 0 7 0;
#X connect 26 0 51 0;
#X connect 27 0 22 0;
#X connect 28 0 23 0;
#X connect 29 0 24 0;
#X connect 30 0 25 0;
#X connect 31 0 26 0;
#X connect 32 0 43 0;
#X connect 33 0 41 0;
#X connect 34 0 39 0;
#X connect 35 0 37 0;
#X connect 36 0 27 0;
#X connect 37 0 38 0;
#X connect 38 0 28 0;
#X connect 39 0 40 0;
#X connect 40 0 29 0;
#X connect 41 0 42 0;
#X connect 42 0 31 0;
#X connect 43 0 30 0;
#X connect 44 0 55 0;
#X connect 46 0 47 0;
#X connect 46 0 55 0;
#X connect 47 0 49 0;
#X connect 48 0 49 0;
#X connect 49 0 50 0;
#X connect 50 0 45 0;
#X connect 51 0 52 0;
#X connect 52 0 44 1;
#X connect 53 0 54 0;
#X connect 54 0 47 1;
#X connect 55 0 59 0;
#X connect 56 0 48 0;
#X connect 56 0 64 0;
#X connect 57 0 56 0;
#X connect 58 0 57 0;
#X connect 59 0 58 0;
#X connect 60 0 55 1;
#X connect 62 0 0 0;
#X connect 63 0 44 0;
#X restore -246 1651 pd naiveFilter;
#X obj 762 342 knob 49 0 1 0 0 empty empty #191919 #696969 #E1E1E1 1 0 0 0 1 270 0 0 0 empty empty 1 14 13 38 0 1 0 0;
#X text 758 322 filter mix;
#X obj 822 342 hsl 128 17 0.11 1 0 0 empty empty low\ pass -2 -5 0 10 #191919 #e1e1e1 #e1e1e1 0 1;
#X obj 822 374 hsl 128 17 0 1 0 1 empty empty feedback -2 -5 0 10 #191919 #e1e1e1 #e1e1e1 0 1;
#X obj 961 374 hsl 128 17 0 1 0 1 empty empty feedback\ delay -2 -5 0 10 #191919 #e1e1e1 #e1e1e1 3810 1;
#X obj 961 342 hsl 128 17 0 1 0 1 empty empty hi\ pass -2 -5 0 10 #191919 #e1e1e1 #e1e1e1 0 1;
#X msg 246 -78 1;
#X msg 303 -84 0.3;
#N canvas 0 50 450 300 f-mod 0;
#X text 137 66 f-mod;
#X obj 181 97 hv.lfo sine;
#X obj 260 97 hv.lfo ramp;
#X obj 348 97 hv.lfo saw;
#X obj 433 97 hv.lfo triangle;
#X obj 535 97 hv.lfo square;
#X msg 725 97 0;
#X obj 181 127 sig~;
#X obj 260 127 sig~;
#X obj 348 127 sig~;
#X obj 433 127 sig~;
#X obj 535 127 sig~;
#X obj 181 286 *~;
#X obj 209 257 line~;
#X obj 260 286 *~;
#X obj 288 257 line~;
#X msg 209 199 0 10;
#X msg 288 199 0 10;
#X msg 220 224 1 10;
#X msg 299 224 1 10;
#X obj 348 286 *~;
#X obj 376 257 line~;
#X obj 427 286 *~;
#X obj 455 257 line~;
#X msg 376 199 0 10;
#X msg 455 199 0 10;
#X msg 387 224 1 10;
#X msg 466 224 1 10;
#X obj 535 286 *~;
#X obj 563 257 line~;
#X msg 563 199 0 10;
#X msg 574 224 1 10;
#X obj 666 156 t f b;
#X obj 666 182 sel 0 1 2 3 4 5;
#X msg 134 97 1;
#X obj 131 128 sig~;
#X obj 119 286 *~;
#X obj 131 257 line~;
#X msg 157 182 0 10;
#X msg 174 209 1 10;
#X obj 23 115 loadbang;
#X obj 112 428 outlet~;
#X obj 666 30 inlet;
#X obj 311 14 inlet;
#X connect 1 0 7 0;
#X connect 2 0 8 0;
#X connect 3 0 9 0;
#X connect 4 0 10 0;
#X connect 5 0 11 0;
#X connect 6 0 5 1;
#X connect 6 0 4 1;
#X connect 6 0 3 1;
#X connect 6 0 1 1;
#X connect 6 0 2 1;
#X connect 7 0 12 0;
#X connect 8 0 14 0;
#X connect 9 0 20 0;
#X connect 10 0 22 0;
#X connect 11 0 28 0;
#X connect 12 0 41 0;
#X connect 13 0 12 1;
#X connect 14 0 41 0;
#X connect 15 0 14 1;
#X connect 16 0 13 0;
#X connect 17 0 15 0;
#X connect 18 0 13 0;
#X connect 19 0 15 0;
#X connect 20 0 41 0;
#X connect 21 0 20 1;
#X connect 22 0 41 0;
#X connect 23 0 22 1;
#X connect 24 0 21 0;
#X connect 25 0 23 0;
#X connect 26 0 21 0;
#X connect 27 0 23 0;
#X connect 28 0 41 0;
#X connect 29 0 28 1;
#X connect 30 0 29 0;
#X connect 31 0 29 0;
#X connect 32 0 33 0;
#X connect 32 1 6 0;
#X connect 33 0 17 0;
#X connect 33 0 25 0;
#X connect 33 0 30 0;
#X connect 33 0 16 0;
#X connect 33 0 24 0;
#X connect 33 0 39 0;
#X connect 33 1 30 0;
#X connect 33 1 25 0;
#X connect 33 1 24 0;
#X connect 33 1 17 0;
#X connect 33 1 18 0;
#X connect 33 1 38 0;
#X connect 33 2 30 0;
#X connect 33 2 25 0;
#X connect 33 2 24 0;
#X connect 33 2 16 0;
#X connect 33 2 19 0;
#X connect 33 2 38 0;
#X connect 33 3 30 0;
#X connect 33 3 25 0;
#X connect 33 3 26 0;
#X connect 33 3 16 0;
#X connect 33 3 17 0;
#X connect 33 3 38 0;
#X connect 33 4 30 0;
#X connect 33 4 16 0;
#X connect 33 4 17 0;
#X connect 33 4 24 0;
#X connect 33 4 27 0;
#X connect 33 4 38 0;
#X connect 33 5 16 0;
#X connect 33 5 17 0;
#X connect 33 5 24 0;
#X connect 33 5 25 0;
#X connect 33 5 31 0;
#X connect 33 5 38 0;
#X connect 34 0 35 0;
#X connect 35 0 36 0;
#X connect 36 0 41 0;
#X connect 37 0 36 1;
#X connect 38 0 37 0;
#X connect 39 0 37 0;
#X connect 40 0 34 0;
#X connect 42 0 5 0;
#X connect 42 0 4 0;
#X connect 42 0 3 0;
#X connect 42 0 2 0;
#X connect 42 0 1 0;
#X connect 43 0 32 0;
#X restore -272 1130 pd f-mod;
#X connect 4 0 167 3;
#X connect 9 0 167 1;
#X connect 10 0 12 0;
#X connect 11 0 9 0;
#X connect 12 0 11 0;
#X connect 13 0 14 0;
#X connect 13 0 166 0;
#X connect 13 0 369 0;
#X connect 13 0 370 0;
#X connect 14 0 4 0;
#X connect 14 0 52 0;
#X connect 14 0 42 0;
#X connect 14 0 33 0;
#X connect 14 0 22 0;
#X connect 14 0 366 0;
#X connect 14 0 368 0;
#X connect 14 0 353 0;
#X connect 14 0 321 0;
#X connect 15 0 67 0;
#X connect 16 0 67 1;
#X connect 18 0 67 2;
#X connect 21 0 25 0;
#X connect 22 0 23 0;
#X connect 23 0 24 0;
#X connect 23 0 67 4;
#X connect 25 0 67 3;
#X connect 27 0 66 0;
#X connect 28 0 66 1;
#X connect 30 0 66 2;
#X connect 32 0 62 0;
#X connect 33 0 34 0;
#X connect 34 0 35 0;
#X connect 34 0 66 4;
#X connect 36 0 65 0;
#X connect 37 0 65 1;
#X connect 39 0 65 2;
#X connect 41 0 63 0;
#X connect 42 0 43 0;
#X connect 43 0 44 0;
#X connect 43 0 65 4;
#X connect 45 0 55 0;
#X connect 46 0 55 1;
#X connect 48 0 55 2;
#X connect 50 0 48 0;
#X connect 51 0 64 0;
#X connect 52 0 53 0;
#X connect 53 0 54 0;
#X connect 53 0 55 4;
#X connect 55 0 206 0;
#X connect 55 0 205 0;
#X connect 55 0 299 0;
#X connect 55 1 47 0;
#X connect 62 0 66 3;
#X connect 63 0 65 3;
#X connect 64 0 55 3;
#X connect 65 0 196 0;
#X connect 65 0 195 0;
#X connect 65 0 298 0;
#X connect 65 1 38 0;
#X connect 66 0 186 0;
#X connect 66 0 185 0;
#X connect 66 0 297 0;
#X connect 66 1 29 0;
#X connect 67 0 175 0;
#X connect 67 0 176 0;
#X connect 67 0 296 0;
#X connect 67 1 17 0;
#X connect 68 0 76 0;
#X connect 69 0 77 0;
#X connect 70 0 78 0;
#X connect 71 0 79 0;
#X connect 72 0 80 0;
#X connect 73 0 82 0;
#X connect 74 0 84 0;
#X connect 75 0 86 0;
#X connect 76 0 67 5;
#X connect 77 0 66 5;
#X connect 78 0 65 5;
#X connect 79 0 55 5;
#X connect 80 0 76 0;
#X connect 80 1 81 0;
#X connect 81 0 67 5;
#X connect 82 0 77 0;
#X connect 82 1 83 0;
#X connect 83 0 66 5;
#X connect 84 0 78 0;
#X connect 84 1 85 0;
#X connect 85 0 65 5;
#X connect 86 0 79 0;
#X connect 86 1 87 0;
#X connect 87 0 55 5;
#X connect 88 0 93 0;
#X connect 89 0 93 1;
#X connect 91 0 93 2;
#X connect 93 0 215 0;
#X connect 93 0 216 0;
#X connect 93 0 301 0;
#X connect 93 1 92 0;
#X connect 94 0 99 0;
#X connect 95 0 99 1;
#X connect 97 0 99 2;
#X connect 99 0 225 0;
#X connect 99 0 226 0;
#X connect 99 0 302 0;
#X connect 99 1 98 0;
#X connect 100 0 105 0;
#X connect 101 0 105 1;
#X connect 103 0 105 2;
#X connect 105 0 235 0;
#X connect 105 0 236 0;
#X connect 105 0 303 0;
#X connect 105 1 104 0;
#X connect 106 0 111 0;
#X connect 107 0 111 1;
#X connect 109 0 111 2;
#X connect 111 0 245 0;
#X connect 111 0 246 0;
#X connect 111 0 304 0;
#X connect 111 1 110 0;
#X connect 112 0 117 0;
#X connect 113 0 117 1;
#X connect 115 0 117 2;
#X connect 117 0 255 0;
#X connect 117 0 256 0;
#X connect 117 0 305 0;
#X connect 117 1 116 0;
#X connect 118 0 123 0;
#X connect 119 0 123 1;
#X connect 121 0 123 2;
#X connect 123 0 265 0;
#X connect 123 0 266 0;
#X connect 123 0 306 0;
#X connect 123 1 122 0;
#X connect 124 0 129 0;
#X connect 125 0 129 1;
#X connect 127 0 129 2;
#X connect 129 0 275 0;
#X connect 129 0 276 0;
#X connect 129 0 307 0;
#X connect 129 1 128 0;
#X connect 130 0 135 0;
#X connect 131 0 135 1;
#X connect 133 0 135 2;
#X connect 135 0 285 0;
#X connect 135 0 286 0;
#X connect 135 0 308 0;
#X connect 135 1 134 0;
#X connect 136 0 137 0;
#X connect 137 0 141 1;
#X connect 138 0 141 0;
#X connect 139 0 164 0;
#X connect 140 0 142 0;
#X connect 141 0 136 0;
#X connect 141 0 139 0;
#X connect 142 0 88 0;
#X connect 142 1 94 0;
#X connect 142 2 100 0;
#X connect 142 3 106 0;
#X connect 142 4 112 0;
#X connect 142 5 118 0;
#X connect 142 6 124 0;
#X connect 142 7 130 0;
#X connect 143 0 165 0;
#X connect 144 0 137 1;
#X connect 145 0 167 2;
#X connect 147 0 149 1;
#X connect 148 0 161 0;
#X connect 149 0 293 0;
#X connect 150 0 151 0;
#X connect 151 0 152 0;
#X connect 152 0 162 1;
#X connect 153 0 163 0;
#X connect 154 0 153 0;
#X connect 155 0 91 0;
#X connect 155 1 97 0;
#X connect 155 2 103 0;
#X connect 155 3 109 0;
#X connect 155 4 115 0;
#X connect 155 5 121 0;
#X connect 155 6 127 0;
#X connect 155 7 133 0;
#X connect 156 0 157 0;
#X connect 156 0 158 0;
#X connect 157 0 156 1;
#X connect 158 0 159 0;
#X connect 159 0 155 0;
#X connect 159 0 162 0;
#X connect 159 0 288 0;
#X connect 160 0 289 0;
#X connect 161 0 160 0;
#X connect 162 0 89 0;
#X connect 162 1 95 0;
#X connect 162 2 101 0;
#X connect 162 3 107 0;
#X connect 162 4 113 0;
#X connect 162 5 119 0;
#X connect 162 6 125 0;
#X connect 162 7 131 0;
#X connect 163 0 155 1;
#X connect 164 0 140 0;
#X connect 164 1 149 0;
#X connect 165 0 136 1;
#X connect 165 0 144 0;
#X connect 166 0 143 0;
#X connect 167 0 10 0;
#X connect 168 0 169 0;
#X connect 169 0 170 0;
#X connect 170 0 171 0;
#X connect 171 0 172 0;
#X connect 172 0 173 0;
#X connect 172 0 176 1;
#X connect 173 0 174 0;
#X connect 174 0 175 1;
#X connect 175 0 295 0;
#X connect 176 0 294 0;
#X connect 178 0 179 0;
#X connect 179 0 180 0;
#X connect 180 0 181 0;
#X connect 181 0 182 0;
#X connect 182 0 183 0;
#X connect 182 0 186 1;
#X connect 183 0 184 0;
#X connect 184 0 185 1;
#X connect 185 0 295 0;
#X connect 186 0 294 0;
#X connect 188 0 189 0;
#X connect 189 0 190 0;
#X connect 190 0 191 0;
#X connect 191 0 192 0;
#X connect 192 0 193 0;
#X connect 192 0 196 1;
#X connect 193 0 194 0;
#X connect 194 0 195 1;
#X connect 195 0 295 0;
#X connect 196 0 294 0;
#X connect 198 0 199 0;
#X connect 199 0 200 0;
#X connect 200 0 201 0;
#X connect 201 0 202 0;
#X connect 202 0 203 0;
#X connect 202 0 206 1;
#X connect 203 0 204 0;
#X connect 204 0 205 1;
#X connect 205 0 295 0;
#X connect 206 0 294 0;
#X connect 208 0 209 0;
#X connect 209 0 210 0;
#X connect 210 0 211 0;
#X connect 211 0 212 0;
#X connect 212 0 213 0;
#X connect 212 0 216 1;
#X connect 213 0 214 0;
#X connect 214 0 215 1;
#X connect 215 0 295 0;
#X connect 216 0 294 0;
#X connect 218 0 219 0;
#X connect 219 0 220 0;
#X connect 220 0 221 0;
#X connect 221 0 222 0;
#X connect 222 0 223 0;
#X connect 222 0 226 1;
#X connect 223 0 224 0;
#X connect 224 0 225 1;
#X connect 225 0 295 0;
#X connect 226 0 294 0;
#X connect 228 0 229 0;
#X connect 229 0 230 0;
#X connect 230 0 231 0;
#X connect 231 0 232 0;
#X connect 232 0 233 0;
#X connect 232 0 236 1;
#X connect 233 0 234 0;
#X connect 234 0 235 1;
#X connect 235 0 295 0;
#X connect 236 0 294 0;
#X connect 238 0 239 0;
#X connect 239 0 240 0;
#X connect 240 0 241 0;
#X connect 241 0 242 0;
#X connect 242 0 243 0;
#X connect 242 0 246 1;
#X connect 243 0 244 0;
#X connect 244 0 245 1;
#X connect 245 0 295 0;
#X connect 246 0 294 0;
#X connect 248 0 249 0;
#X connect 249 0 250 0;
#X connect 250 0 251 0;
#X connect 251 0 252 0;
#X connect 252 0 253 0;
#X connect 252 0 256 1;
#X connect 253 0 254 0;
#X connect 254 0 255 1;
#X connect 255 0 295 0;
#X connect 256 0 294 0;
#X connect 258 0 259 0;
#X connect 259 0 260 0;
#X connect 260 0 261 0;
#X connect 261 0 262 0;
#X connect 262 0 263 0;
#X connect 262 0 266 1;
#X connect 263 0 264 0;
#X connect 264 0 265 1;
#X connect 265 0 295 0;
#X connect 266 0 294 0;
#X connect 268 0 269 0;
#X connect 269 0 270 0;
#X connect 270 0 271 0;
#X connect 271 0 272 0;
#X connect 272 0 273 0;
#X connect 272 0 276 1;
#X connect 273 0 274 0;
#X connect 274 0 275 1;
#X connect 275 0 295 0;
#X connect 276 0 294 0;
#X connect 278 0 279 0;
#X connect 279 0 280 0;
#X connect 280 0 281 0;
#X connect 281 0 282 0;
#X connect 282 0 283 0;
#X connect 282 0 286 1;
#X connect 283 0 284 0;
#X connect 284 0 285 1;
#X connect 285 0 295 0;
#X connect 286 0 294 0;
#X connect 288 0 208 0;
#X connect 288 1 218 0;
#X connect 288 2 228 0;
#X connect 288 3 238 0;
#X connect 288 4 248 0;
#X connect 288 5 258 0;
#X connect 288 6 268 0;
#X connect 288 7 278 0;
#X connect 289 0 150 0;
#X connect 289 1 154 0;
#X connect 289 2 290 0;
#X connect 289 3 156 0;
#X connect 290 0 291 0;
#X connect 291 0 292 0;
#X connect 292 0 288 1;
#X connect 293 0 150 0;
#X connect 293 1 154 0;
#X connect 293 2 290 0;
#X connect 293 3 159 0;
#X connect 294 0 352 0;
#X connect 295 0 361 0;
#X connect 320 0 167 0;
#X connect 321 0 167 4;
#X connect 323 0 343 0;
#X connect 324 0 326 0;
#X connect 326 0 327 0;
#X connect 327 0 328 0;
#X connect 328 0 329 0;
#X connect 329 0 330 0;
#X connect 329 0 333 1;
#X connect 330 0 331 0;
#X connect 331 0 332 1;
#X connect 332 0 323 0;
#X connect 333 0 335 0;
#X connect 335 0 344 0;
#X connect 338 0 322 0;
#X connect 338 1 322 1;
#X connect 339 0 340 0;
#X connect 339 1 340 1;
#X connect 341 0 342 0;
#X connect 342 0 335 1;
#X connect 342 0 323 1;
#X connect 343 0 338 0;
#X connect 343 0 362 0;
#X connect 344 0 339 0;
#X connect 344 0 362 1;
#X connect 345 0 346 0;
#X connect 346 0 343 1;
#X connect 346 0 344 1;
#X connect 347 0 348 0;
#X connect 348 0 350 0;
#X connect 348 1 349 0;
#X connect 349 0 345 0;
#X connect 350 0 345 0;
#X connect 351 0 341 0;
#X connect 352 0 333 0;
#X connect 353 0 371 0;
#X connect 360 0 371 1;
#X connect 361 0 332 0;
#X connect 362 0 336 0;
#X connect 362 1 337 0;
#X connect 363 0 362 2;
#X connect 365 0 362 3;
#X connect 366 0 362 6;
#X connect 367 0 362 5;
#X connect 368 0 362 4;
#X connect 369 0 365 0;
#X connect 370 0 367 0;
#X connect 371 0 352 1;
#X connect 371 0 361 1;
#X coords 0 0 1 1 1345 380 1 0 44;
