#N canvas 827 239 734 565 12;
#X obj 450 199 osc~;
#X obj 526 194 phasor~;
#X obj 526 390 *~;
#X obj 602 389 *~;
#X obj 452 390 *~;
#X obj 603 192 phasor~;
#X obj 603 216 -~ 0.5;
#X obj 603 241 abs~;
#X obj 603 266 *~ 4;
#X obj 603 291 -~ 1;
#X obj 541 369 line;
#X msg 541 321 0;
#X msg 541 346 \$1 10;
#X msg 573 321 1;
#X obj 617 367 line;
#X msg 617 319 0;
#X msg 617 344 \$1 10;
#X msg 649 319 1;
#X obj 467 369 line;
#X msg 467 321 0;
#X msg 467 346 \$1 10;
#X msg 499 321 1;
#X obj 467 293 sel 0 1 2;
#X obj 668 217 osc~;
#X obj 744 212 phasor~;
#X obj 744 408 *~;
#X obj 820 407 *~;
#X obj 670 408 *~;
#X obj 821 210 phasor~;
#X obj 821 234 -~ 0.5;
#X obj 821 259 abs~;
#X obj 821 284 *~ 4;
#X obj 821 309 -~ 1;
#X obj 759 387 line;
#X msg 759 339 0;
#X msg 759 364 \$1 10;
#X msg 791 339 1;
#X obj 835 385 line;
#X msg 835 337 0;
#X msg 835 362 \$1 10;
#X msg 868 337 1;
#X obj 685 387 line;
#X msg 685 339 0;
#X msg 685 364 \$1 10;
#X msg 717 339 1;
#X obj 685 311 sel 0 1 2;
#X obj 884 213 osc~;
#X obj 960 208 phasor~;
#X obj 960 404 *~;
#X obj 1036 403 *~;
#X obj 886 404 *~;
#X obj 1037 206 phasor~;
#X obj 1037 230 -~ 0.5;
#X obj 1037 255 abs~;
#X obj 1037 280 *~ 4;
#X obj 1037 305 -~ 1;
#X obj 975 383 line;
#X msg 975 335 0;
#X msg 975 360 \$1 10;
#X msg 1007 335 1;
#X obj 1051 381 line;
#X msg 1051 333 0;
#X msg 1051 358 \$1 10;
#X msg 1083 333 1;
#X obj 901 383 line;
#X msg 901 335 0;
#X msg 901 360 \$1 10;
#X msg 933 335 1;
#X obj 901 307 sel 0 1 2;
#X obj 886 188 * 2;
#X obj 670 192 * 1.02;
#X obj 1114 218 osc~;
#X obj 1190 213 phasor~;
#X obj 1190 409 *~;
#X obj 1266 408 *~;
#X obj 1116 409 *~;
#X obj 1267 211 phasor~;
#X obj 1267 235 -~ 0.5;
#X obj 1267 260 abs~;
#X obj 1267 285 *~ 4;
#X obj 1267 310 -~ 1;
#X obj 1205 388 line;
#X msg 1205 340 0;
#X msg 1205 365 \$1 10;
#X msg 1237 340 1;
#X obj 1281 386 line;
#X msg 1281 338 0;
#X msg 1281 363 \$1 10;
#X msg 1313 338 1;
#X obj 1131 388 line;
#X msg 1131 340 0;
#X msg 1131 365 \$1 10;
#X msg 1163 340 1;
#X obj 1131 312 sel 0 1 2;
#X obj 303 199 noise~;
#X obj 303 224 bp~;
#X obj 303 248 *~ 50;
#X obj 1116 192 * 2.002;
#X obj 453 429 *~ 0.4;
#X obj 685 459 *~ 0.2;
#X obj 887 446 *~ 0.3;
#X obj 1116 493 *~ 0.2;
#X obj 303 381 clip~ -0.3 0.3;
#X obj 612 627 clip~ -1 1;
#X obj 612 723 outlet~;
#X obj 109 -52 inlet;
#X obj 393 530 *~;
#X obj 596 -29 inlet;
#X obj 649 -29 inlet;
#X obj 702 -29 inlet;
#X obj 755 -29 inlet;
#X obj 808 -29 inlet;
#X obj 109 52 mtof;
#X obj 109 -12 unpack;
#X obj 222 12 / 127;
#N canvas 0 50 450 300 adsr 0;
#X obj 179 629 delay;
#X obj 110 650 pack;
#X obj 179 666 f;
#X obj 110 599 t f b;
#X obj 137 625 f;
#X obj 432 575 sel 0;
#X obj 286 526 f;
#X obj 335 533 t b f;
#X obj 109 576 spigot;
#X obj 335 509 spigot;
#X obj 335 483 t f f;
#X obj 220 637 spigot;
#X obj 220 611 t f f;
#X text 402 486 APPLIES RANDOM CHANGES TO ADSR;
#X obj 220 764 spigot;
#X obj 304 701 loadbang;
#X msg 304 727 1;
#X obj 432 601 t b b b;
#X msg 488 629 0;
#X msg 414 717 stop;
#X obj 474 710 f;
#X msg 474 745 0 \$1;
#X obj 109 550 t f f b;
#X obj 109 516 sel 0;
#X obj 220 584 sel 0;
#X obj 286 558 *;
#X obj 286 584 / 100;
#X obj 220 824 line~;
#X obj 279 894 s comp-adsr;
#X obj 279 828 line;
#X obj 294 675 pack;
#X obj 286 646 f;
#X obj 179 692 t b f;
#X obj 13 943 outlet~;
#X obj 220 850 pow~ 2;
#X obj 279 854 pow 2;
#X obj 117 27 inlet~;
#X obj 109 487 r \$0-peak;
#X obj 335 433 r \$0-peak;
#X obj 286 465 r \$0-sus;
#X obj 197 533 r \$0-attack;
#X obj 432 519 r \$0-peak;
#X obj 512 519 r \$0-rel;
#X obj 220 558 r \$0-peak;
#X obj 152 599 r \$0-attack;
#X obj 335 646 r \$0-decay;
#X obj 13 908 *~;
#X floatatom 371 855 5 0 0 0 - - - 12;
#X connect 0 0 2 0;
#X connect 1 0 27 0;
#X connect 1 0 29 0;
#X connect 2 0 32 0;
#X connect 3 0 1 0;
#X connect 3 1 4 0;
#X connect 3 1 0 0;
#X connect 4 0 1 1;
#X connect 5 0 17 0;
#X connect 6 0 25 0;
#X connect 7 0 6 0;
#X connect 7 1 25 1;
#X connect 8 0 3 0;
#X connect 9 0 7 0;
#X connect 10 0 9 0;
#X connect 10 1 9 1;
#X connect 11 0 2 1;
#X connect 12 0 11 0;
#X connect 12 1 11 1;
#X connect 14 0 27 0;
#X connect 14 0 29 0;
#X connect 15 0 16 0;
#X connect 16 0 14 1;
#X connect 17 0 20 0;
#X connect 17 1 19 0;
#X connect 17 2 18 0;
#X connect 18 0 14 1;
#X connect 19 0 29 0;
#X connect 20 0 21 0;
#X connect 21 0 27 0;
#X connect 21 0 29 0;
#X connect 22 0 8 0;
#X connect 22 1 8 1;
#X connect 22 2 16 0;
#X connect 22 2 19 0;
#X connect 23 1 22 0;
#X connect 24 1 12 0;
#X connect 25 0 26 0;
#X connect 26 0 31 1;
#X connect 27 0 34 0;
#X connect 29 0 35 0;
#X connect 30 0 14 0;
#X connect 31 0 30 0;
#X connect 32 0 31 0;
#X connect 32 1 14 0;
#X connect 34 0 46 1;
#X connect 35 0 28 0;
#X connect 35 0 47 0;
#X connect 36 0 46 0;
#X connect 37 0 23 0;
#X connect 38 0 10 0;
#X connect 39 0 6 1;
#X connect 40 0 0 1;
#X connect 41 0 5 0;
#X connect 42 0 20 1;
#X connect 43 0 24 0;
#X connect 44 0 4 1;
#X connect 45 0 30 1;
#X connect 46 0 33 0;
#X restore 642 670 pd adsr;
#X obj 222 65 s \$0-peak;
#X obj 222 38 sqrt;
#X obj 925 13 s \$0-attack;
#X obj 1016 13 s \$0-decay;
#X obj 1106 13 s \$0-sus;
#X obj 1186 13 s \$0-rel;
#X obj 925 -29 inlet;
#X obj 993 -29 inlet;
#X obj 1059 -29 inlet;
#X obj 1133 -27 inlet;
#X obj 612 564 *~;
#X obj 612 590 *~ 1;
#X obj 853 -29 inlet;
#N canvas 0 50 450 300 adsr2 0;
#X obj 179 629 delay;
#X obj 110 650 pack;
#X obj 179 666 f;
#X obj 110 599 t f b;
#X obj 137 625 f;
#X obj 432 575 sel 0;
#X obj 286 526 f;
#X obj 335 533 t b f;
#X obj 109 576 spigot;
#X obj 335 509 spigot;
#X obj 335 483 t f f;
#X obj 220 637 spigot;
#X obj 220 611 t f f;
#X text 402 486 APPLIES RANDOM CHANGES TO ADSR;
#X obj 220 764 spigot;
#X obj 304 701 loadbang;
#X msg 304 727 1;
#X obj 432 601 t b b b;
#X msg 488 629 0;
#X msg 414 717 stop;
#X obj 474 710 f;
#X msg 474 745 0 \$1;
#X obj 109 550 t f f b;
#X obj 109 516 sel 0;
#X obj 220 584 sel 0;
#X obj 286 558 *;
#X obj 286 584 / 100;
#X obj 220 824 line~;
#X obj 279 828 line;
#X obj 294 675 pack;
#X obj 286 646 f;
#X obj 179 692 t b f;
#X obj 13 943 outlet~;
#X obj 220 850 pow~ 2;
#X obj 279 854 pow 2;
#X obj 117 27 inlet~;
#X obj 13 908 *~;
#X floatatom 371 855 5 0 0 0 - - - 12;
#X obj 286 465 r \$0-sus2;
#X obj 512 519 r \$0-rel2;
#X obj 197 533 r \$0-attack2;
#X obj 335 646 r \$0-decay2;
#X obj 152 599 r \$0-attack2;
#X obj 279 894 s comp-adsr2;
#X obj 109 487 r \$0-peak;
#X obj 335 433 r \$0-peak;
#X obj 220 558 r \$0-peak;
#X obj 432 519 r \$0-peak;
#X connect 0 0 2 0;
#X connect 1 0 27 0;
#X connect 1 0 28 0;
#X connect 2 0 31 0;
#X connect 3 0 1 0;
#X connect 3 1 4 0;
#X connect 3 1 0 0;
#X connect 4 0 1 1;
#X connect 5 0 17 0;
#X connect 6 0 25 0;
#X connect 7 0 6 0;
#X connect 7 1 25 1;
#X connect 8 0 3 0;
#X connect 9 0 7 0;
#X connect 10 0 9 0;
#X connect 10 1 9 1;
#X connect 11 0 2 1;
#X connect 12 0 11 0;
#X connect 12 1 11 1;
#X connect 14 0 27 0;
#X connect 14 0 28 0;
#X connect 15 0 16 0;
#X connect 16 0 14 1;
#X connect 17 0 20 0;
#X connect 17 1 19 0;
#X connect 17 2 18 0;
#X connect 18 0 14 1;
#X connect 19 0 28 0;
#X connect 20 0 21 0;
#X connect 21 0 27 0;
#X connect 21 0 28 0;
#X connect 22 0 8 0;
#X connect 22 1 8 1;
#X connect 22 2 16 0;
#X connect 22 2 19 0;
#X connect 23 1 22 0;
#X connect 24 1 12 0;
#X connect 25 0 26 0;
#X connect 26 0 30 1;
#X connect 27 0 33 0;
#X connect 28 0 34 0;
#X connect 29 0 14 0;
#X connect 30 0 29 0;
#X connect 31 0 30 0;
#X connect 31 1 14 0;
#X connect 33 0 36 1;
#X connect 34 0 37 0;
#X connect 34 0 43 0;
#X connect 35 0 36 0;
#X connect 36 0 32 0;
#X connect 38 0 6 1;
#X connect 39 0 20 1;
#X connect 40 0 0 1;
#X connect 41 0 29 1;
#X connect 42 0 4 1;
#X connect 44 0 23 0;
#X connect 45 0 10 0;
#X connect 46 0 24 0;
#X connect 47 0 5 0;
#X restore 343 482 pd adsr2;
#X obj 1259 -27 inlet;
#X obj 1327 -27 inlet;
#X obj 1393 -27 inlet;
#X obj 1467 -25 inlet;
#X obj 1259 15 s \$0-attack2;
#X obj 1350 15 s \$0-decay2;
#X obj 1440 15 s \$0-sus2;
#X obj 1520 15 s \$0-rel2;
#X obj 1566 -25 inlet;
#X connect 0 0 4 0;
#X connect 1 0 2 0;
#X connect 2 0 98 0;
#X connect 3 0 98 0;
#X connect 4 0 98 0;
#X connect 5 0 6 0;
#X connect 6 0 7 0;
#X connect 7 0 8 0;
#X connect 8 0 9 0;
#X connect 9 0 3 0;
#X connect 10 0 2 1;
#X connect 11 0 12 0;
#X connect 12 0 10 0;
#X connect 13 0 12 0;
#X connect 14 0 3 1;
#X connect 15 0 16 0;
#X connect 16 0 14 0;
#X connect 17 0 16 0;
#X connect 18 0 4 1;
#X connect 19 0 20 0;
#X connect 20 0 18 0;
#X connect 21 0 20 0;
#X connect 22 0 21 0;
#X connect 22 0 11 0;
#X connect 22 0 15 0;
#X connect 22 1 13 0;
#X connect 22 1 19 0;
#X connect 22 1 15 0;
#X connect 22 2 17 0;
#X connect 22 2 11 0;
#X connect 22 2 19 0;
#X connect 23 0 27 0;
#X connect 24 0 25 0;
#X connect 25 0 99 0;
#X connect 26 0 99 0;
#X connect 27 0 99 0;
#X connect 28 0 29 0;
#X connect 29 0 30 0;
#X connect 30 0 31 0;
#X connect 31 0 32 0;
#X connect 32 0 26 0;
#X connect 33 0 25 1;
#X connect 34 0 35 0;
#X connect 35 0 33 0;
#X connect 36 0 35 0;
#X connect 37 0 26 1;
#X connect 38 0 39 0;
#X connect 39 0 37 0;
#X connect 40 0 39 0;
#X connect 41 0 27 1;
#X connect 42 0 43 0;
#X connect 43 0 41 0;
#X connect 44 0 43 0;
#X connect 45 0 44 0;
#X connect 45 0 34 0;
#X connect 45 0 38 0;
#X connect 45 1 36 0;
#X connect 45 1 42 0;
#X connect 45 1 38 0;
#X connect 45 2 40 0;
#X connect 45 2 34 0;
#X connect 45 2 42 0;
#X connect 46 0 50 0;
#X connect 47 0 48 0;
#X connect 48 0 100 0;
#X connect 49 0 100 0;
#X connect 50 0 100 0;
#X connect 51 0 52 0;
#X connect 52 0 53 0;
#X connect 53 0 54 0;
#X connect 54 0 55 0;
#X connect 55 0 49 0;
#X connect 56 0 48 1;
#X connect 57 0 58 0;
#X connect 58 0 56 0;
#X connect 59 0 58 0;
#X connect 60 0 49 1;
#X connect 61 0 62 0;
#X connect 62 0 60 0;
#X connect 63 0 62 0;
#X connect 64 0 50 1;
#X connect 65 0 66 0;
#X connect 66 0 64 0;
#X connect 67 0 66 0;
#X connect 68 0 67 0;
#X connect 68 0 57 0;
#X connect 68 0 61 0;
#X connect 68 1 59 0;
#X connect 68 1 65 0;
#X connect 68 1 61 0;
#X connect 68 2 63 0;
#X connect 68 2 57 0;
#X connect 68 2 65 0;
#X connect 69 0 46 0;
#X connect 69 0 47 0;
#X connect 69 0 51 0;
#X connect 70 0 23 0;
#X connect 70 0 24 0;
#X connect 70 0 28 0;
#X connect 71 0 75 0;
#X connect 72 0 73 0;
#X connect 73 0 101 0;
#X connect 74 0 101 0;
#X connect 75 0 101 0;
#X connect 76 0 77 0;
#X connect 77 0 78 0;
#X connect 78 0 79 0;
#X connect 79 0 80 0;
#X connect 80 0 74 0;
#X connect 81 0 73 1;
#X connect 82 0 83 0;
#X connect 83 0 81 0;
#X connect 84 0 83 0;
#X connect 85 0 74 1;
#X connect 86 0 87 0;
#X connect 87 0 85 0;
#X connect 88 0 87 0;
#X connect 89 0 75 1;
#X connect 90 0 91 0;
#X connect 91 0 89 0;
#X connect 92 0 91 0;
#X connect 93 0 92 0;
#X connect 93 0 82 0;
#X connect 93 0 86 0;
#X connect 93 1 84 0;
#X connect 93 1 90 0;
#X connect 93 1 86 0;
#X connect 93 2 88 0;
#X connect 93 2 82 0;
#X connect 93 2 90 0;
#X connect 94 0 95 0;
#X connect 95 0 96 0;
#X connect 96 0 102 0;
#X connect 97 0 71 0;
#X connect 97 0 72 0;
#X connect 97 0 76 0;
#X connect 98 0 126 0;
#X connect 99 0 126 0;
#X connect 100 0 126 0;
#X connect 101 0 126 0;
#X connect 102 0 129 0;
#X connect 103 0 115 0;
#X connect 105 0 113 0;
#X connect 106 0 104 0;
#X connect 107 0 22 0;
#X connect 108 0 45 0;
#X connect 109 0 68 0;
#X connect 110 0 93 0;
#X connect 111 0 106 1;
#X connect 112 0 0 0;
#X connect 112 0 1 0;
#X connect 112 0 5 0;
#X connect 112 0 70 0;
#X connect 112 0 69 0;
#X connect 112 0 97 0;
#X connect 112 0 95 1;
#X connect 113 0 112 0;
#X connect 113 1 114 0;
#X connect 114 0 117 0;
#X connect 115 0 104 0;
#X connect 117 0 116 0;
#X connect 122 0 118 0;
#X connect 123 0 119 0;
#X connect 124 0 120 0;
#X connect 125 0 121 0;
#X connect 126 0 127 0;
#X connect 127 0 103 0;
#X connect 128 0 126 1;
#X connect 129 0 106 0;
#X connect 130 0 134 0;
#X connect 131 0 135 0;
#X connect 132 0 136 0;
#X connect 133 0 137 0;
#X connect 138 0 95 2;
