#N canvas 827 239 734 565 12;
#X obj 112 27 vradio 20 1 0 3 empty empty wv1 0 -8 0 10 #191919 #e1e1e1 #e1e1e1 0;
#X obj 236 187 vsl 23 32 0 2 0 0 empty empty lvl 6 -9 0 10 #191919 #e1e1e1 #e1e1e1 0 1;
#X obj 140 27 vradio 20 1 0 3 empty empty wv2 0 -8 0 10 #191919 #e1e1e1 #e1e1e1 0;
#X obj 168 27 vradio 20 1 0 3 empty empty wv3 0 -8 0 10 #191919 #e1e1e1 #e1e1e1 0;
#X obj 196 27 vradio 20 1 0 3 empty empty wv4 0 -8 0 10 #191919 #e1e1e1 #e1e1e1 0;
#X obj 305 823 simph-origin;
#X obj -29 -42 inlet;
#X obj -66 259 spigot;
#X msg -41 231 0;
#X msg -15 231 1;
#X obj -193 259 spigot;
#X msg -142 231 0;
#X msg -116 231 1;
#X obj -75 152 sel 0 1;
#X obj -259 297 mono;
#X obj -193 311 pack;
#X obj -66 311 pack f f f;
#X obj -66 285 poly 4 1;
#N canvas 0 50 450 300 adsr-random 0;
#X obj 153 343 + 10;
#X obj 281 343 + 10;
#X obj 521 343 + 10;
#X obj 201 154 spigot;
#X obj 168 92 spigot;
#X obj 168 66 t f f;
#X obj 308 221 + 5;
#X obj 308 188 random 15;
#X obj 400 343 + 50;
#X obj 196 188 t b b b b b;
#X obj 400 317 hv.drunk 45;
#X obj 521 317 hv.drunk 500;
#X obj 168 118 bang;
#X obj 153 368 s \$0-attackRand;
#X obj 281 366 s \$0-decayRand;
#X obj 400 367 s \$0-sustainRand;
#X obj 521 367 s \$0-releaseRand;
#X obj 22 221 loadbang;
#X msg 23 283 30;
#X msg 67 269 65;
#X obj 153 317 hv.drunk 500;
#X obj 281 317 hv.drunk 500;
#X obj 297 87 r \$0-rand-adsr;
#X obj 168 7 inlet;
#X connect 0 0 13 0;
#X connect 1 0 14 0;
#X connect 2 0 16 0;
#X connect 3 0 9 0;
#X connect 4 0 12 0;
#X connect 5 0 4 0;
#X connect 5 1 4 1;
#X connect 6 0 11 2;
#X connect 6 0 10 2;
#X connect 6 0 20 2;
#X connect 6 0 21 2;
#X connect 7 0 6 0;
#X connect 8 0 15 0;
#X connect 9 0 20 0;
#X connect 9 1 21 0;
#X connect 9 2 10 0;
#X connect 9 3 11 0;
#X connect 9 4 7 0;
#X connect 10 0 8 0;
#X connect 11 0 2 0;
#X connect 12 0 3 0;
#X connect 17 0 18 0;
#X connect 17 0 19 0;
#X connect 18 0 13 0;
#X connect 18 0 14 0;
#X connect 18 0 16 0;
#X connect 19 0 15 0;
#X connect 20 0 0 0;
#X connect 21 0 1 0;
#X connect 22 0 3 1;
#X connect 23 0 5 0;
#X restore -382 269 pd adsr-random;
#X msg -85 231 stop;
#X msg -188 231 flush;
#X obj -45 181 t b b;
#X obj -101 181 t b b;
#X obj 8 26 vradio 20 1 0 2 empty empty empty 0 -8 0 10 #191919 #e1e1e1 #e1e1e1 0;
#X text 32 25 mono;
#X text 32 47 poly;
#X floatatom 8 131 5 10 510 2 Attack \$0-attackRand - 12;
#X floatatom 51 131 5 10 510 2 decay \$0-decayRand - 12;
#X floatatom 95 131 5 0 95 2 sustain \$0-sustainRand - 12;
#X floatatom 140 131 5 10 510 2 release \$0-releaseRand - 12;
#X obj 189 121 tgl 37 0 \$0-rand-adsr empty randomize -5 -7 0 10 #191919 #e1e1e1 #e1e1e1 0 1;
#X text 79 26 sine;
#X text 80 47 saw;
#X text 60 68 triangle;
#X obj -109 823 clone -s 1 simph-origin 4;
#X obj 749 -58 loadbang;
#X msg 749 -32 1;
#X obj 236 125 vsl 23 32 0 1 0 0 empty empty lvl 6 -9 0 10 #191919 #e1e1e1 #e1e1e1 0 1;
#X text 8 95 note adsr;
#X floatatom 8 195 5 10 510 2 Attack \$0-attackRand2 - 12;
#X floatatom 51 195 5 10 510 2 decay \$0-decayRand2 - 12;
#X floatatom 95 195 5 0 95 2 sustain \$0-sustainRand2 - 12;
#X floatatom 140 195 5 10 510 2 release \$0-releaseRand2 - 12;
#X text 8 159 noise adsr;
#X obj 189 185 tgl 37 0 \$0-rand-adsr2 empty randomize -5 -7 0 10 #191919 #e1e1e1 #e1e1e1 0 1;
#X obj 225 38 tgl 34 0 empty empty link\ adsr 2 -7 0 10 #191919 #e1e1e1 #e1e1e1 0 1;
#X obj 751 119 spigot;
#X obj 815 119 spigot;
#X obj 879 119 spigot;
#X obj 943 119 spigot;
#X obj 820 12 sel 1;
#X obj 751 161 s \$0-attackRand2;
#X obj 879 159 s \$0-decayRand2;
#X obj 998 160 s \$0-sustainRand2;
#X obj 1119 160 s \$0-releaseRand2;
#X obj 835 40 s \$0-attackRand;
#X obj 963 38 s \$0-decayRand;
#X obj 1082 39 s \$0-sustainRand;
#X obj 1203 39 s \$0-releaseRand;
#N canvas 0 50 450 300 adsr-random2 0;
#X obj 153 343 + 10;
#X obj 281 343 + 10;
#X obj 521 343 + 10;
#X obj 201 154 spigot;
#X obj 168 92 spigot;
#X obj 168 66 t f f;
#X obj 308 221 + 5;
#X obj 308 188 random 15;
#X obj 400 343 + 50;
#X obj 196 188 t b b b b b;
#X obj 400 317 hv.drunk 45;
#X obj 521 317 hv.drunk 500;
#X obj 168 118 bang;
#X obj 22 221 loadbang;
#X msg 23 283 30;
#X msg 67 269 65;
#X obj 153 317 hv.drunk 500;
#X obj 281 317 hv.drunk 500;
#X obj 168 7 inlet;
#X obj 297 87 r \$0-rand-adsr2;
#X obj 521 367 s \$0-releaseRand2;
#X obj 400 367 s \$0-sustainRand2;
#X obj 281 366 s \$0-decayRand2;
#X obj 153 368 s \$0-attackRand2;
#X connect 0 0 23 0;
#X connect 1 0 22 0;
#X connect 2 0 20 0;
#X connect 3 0 9 0;
#X connect 4 0 12 0;
#X connect 5 0 4 0;
#X connect 5 1 4 1;
#X connect 6 0 11 2;
#X connect 6 0 10 2;
#X connect 6 0 16 2;
#X connect 6 0 17 2;
#X connect 7 0 6 0;
#X connect 8 0 21 0;
#X connect 9 0 16 0;
#X connect 9 1 17 0;
#X connect 9 2 10 0;
#X connect 9 3 11 0;
#X connect 9 4 7 0;
#X connect 10 0 8 0;
#X connect 11 0 2 0;
#X connect 12 0 3 0;
#X connect 13 0 14 0;
#X connect 13 0 15 0;
#X connect 14 0 20 0;
#X connect 14 0 22 0;
#X connect 14 0 23 0;
#X connect 15 0 21 0;
#X connect 16 0 0 0;
#X connect 17 0 1 0;
#X connect 18 0 5 0;
#X connect 19 0 3 1;
#X restore -390 231 pd adsr-random2;
#X floatatom 140 223 5 4 50 1 noise\ color \$0-noisecolor - 12;
#X obj 11 223 hsl 119 17 4 50 0 1 \$0-noisecolor empty empty -2 -8 0 10 #191919 #e1e1e1 #e1e1e1 0 1;
#X msg -206 759 all \$1;
#X msg -149 759 all \$1;
#X msg -89 759 all \$1;
#X msg -39 759 all \$1;
#X msg 18 759 all \$1;
#X msg 75 759 all \$1;
#X msg 128 759 all \$1;
#X msg -177 786 all \$1;
#X msg -120 786 all \$1;
#X msg -63 786 all \$1;
#X msg -10 786 all \$1;
#X msg 47 786 all \$1;
#X msg 104 786 all \$1;
#X msg 157 786 all \$1;
#X msg 183 759 all \$1;
#X msg 710 -43 0;
#X obj -209 -26 r notes;
#X obj 17 269 vu 19 80 empty L -1 -8 0 10 #404040 #e1e1e1 1 0;
#X obj 490 1168 *~;
#X obj 158 315 knob 34 -1 1 0 0 empty empty #191919 #696969 #E1E1E1 1 0 0 0 1 270 0 0 0 empty empty 2 12 8 24 0 1 0 0;
#X text 162 296 pan, f 4;
#X obj 599 997 + 1;
#X obj 599 1023 / 2;
#X msg 599 1051 \$1 10;
#X obj 599 1077 line~;
#X obj 501 1063 *~ -1;
#X obj 501 1089 +~ 1;
#X obj 490 1119 *~;
#X obj 568 1119 *~;
#X text 646 1012 panning;
#X obj 568 1168 *~;
#N canvas 0 50 450 300 vu 0;
#X obj 710 374 env~ 1024;
#X obj 812 356 abs~;
#X obj 812 458 snapshot~;
#X obj 812 501 rmstodb;
#X obj 615 263 inlet~;
#X obj 812 533 - 100;
#X obj 710 532 - 100;
#X obj 890 334 expr 1000 / $f1;
#X floatatom 890 362 5 0 0 0 - - - 0;
#X obj 812 391 slop~ 0 0 0 0 1e+09;
#X text 933 363 hz;
#X obj 710 416 t f b;
#X obj 890 263 loadbang;
#X msg 890 289 300;
#X text 680 319 from pd example inside vu-help.pd;
#X msg 852 289 0;
#X obj 710 558 outlet;
#X obj 812 559 outlet;
#X connect 0 0 11 0;
#X connect 1 0 9 0;
#X connect 2 0 3 0;
#X connect 3 0 5 0;
#X connect 4 0 0 0;
#X connect 4 0 1 0;
#X connect 5 0 17 0;
#X connect 6 0 16 0;
#X connect 7 0 8 0;
#X connect 8 0 9 3;
#X connect 9 0 2 0;
#X connect 11 0 6 0;
#X connect 11 1 2 0;
#X connect 12 0 13 0;
#X connect 12 0 15 0;
#X connect 13 0 7 0;
#X restore 515 1288 pd vu;
#N canvas 0 50 450 300 vu 0;
#X obj 710 374 env~ 1024;
#X obj 812 356 abs~;
#X obj 812 458 snapshot~;
#X obj 812 501 rmstodb;
#X obj 615 263 inlet~;
#X obj 812 533 - 100;
#X obj 710 532 - 100;
#X obj 890 334 expr 1000 / $f1;
#X floatatom 890 362 5 0 0 0 - - - 0;
#X obj 812 391 slop~ 0 0 0 0 1e+09;
#X text 933 363 hz;
#X obj 710 416 t f b;
#X obj 890 263 loadbang;
#X msg 890 289 300;
#X text 680 319 from pd example inside vu-help.pd;
#X msg 852 289 0;
#X obj 710 558 outlet;
#X obj 812 559 outlet;
#X connect 0 0 11 0;
#X connect 1 0 9 0;
#X connect 2 0 3 0;
#X connect 3 0 5 0;
#X connect 4 0 0 0;
#X connect 4 0 1 0;
#X connect 5 0 17 0;
#X connect 6 0 16 0;
#X connect 7 0 8 0;
#X connect 8 0 9 3;
#X connect 9 0 2 0;
#X connect 11 0 6 0;
#X connect 11 1 2 0;
#X connect 12 0 13 0;
#X connect 12 0 15 0;
#X connect 13 0 7 0;
#X restore 593 1288 pd vu;
#X obj 60 269 vu 19 80 empty R -1 -8 0 10 #404040 #e1e1e1 1 0;
#X msg 658 1104 \$1 10;
#X obj 658 1130 line~;
#X obj 490 1245 *~;
#X obj 577 1245 *~;
#X msg 710 1138 \$1 10;
#X obj 710 1164 line~;
#X obj 105 315 tgl 34 1 empty empty mute -1 -10 0 14 #191919 #e1e1e1 #e1e1e1 0 1;
#X obj 719 1063 sel 0 1;
#X msg 751 1089 0;
#X msg 719 1089 1;
#X obj 108 269 hsl 124 23 0 1 0 0 empty empty gain -2 -8 0 10 #191919 #e1e1e1 #e1e1e1 0 1;
#X obj 464 928 *~;
#N canvas 0 50 450 300 naiveFilter 0;
#X obj 267 347 *~;
#X obj 71 1028 outlet~;
#X obj 71 29 inlet~;
#X obj 71 878 *~;
#X obj 172 878 *~;
#X obj 71 930 *~ 1;
#X obj 71 968 *~ 0.5;
#X obj 402 347 clip~ 0 99;
#X obj 324 347 /~ 100;
#X obj 109 811 *~ -1;
#X obj 109 837 +~ 1;
#X obj 267 538 hv.hip~;
#X obj 267 652 hv.lop~;
#X obj 267 626 hv.lop~;
#X obj 267 600 hv.lop~;
#X obj 267 574 hv.lop~;
#X obj 303 495 pow~ 2;
#X text 392 8 del;
#X text 439 8 fbk;
#X text 333 8 hip;
#X text 219 8 mix;
#X text 268 8 lop;
#X obj 169 229 line~;
#X obj 259 229 line~;
#X obj 307 229 line~;
#X obj 355 229 line~;
#X obj 402 229 line~;
#X msg 169 200 \$1 10;
#X msg 259 200 \$1 10;
#X msg 307 200 \$1 10;
#X msg 355 200 \$1 10;
#X msg 402 200 \$1 10;
#X obj 382 29 inlet;
#X obj 429 29 inlet;
#X obj 324 29 inlet;
#X obj 259 29 inlet;
#X obj 210 29 inlet;
#X obj 259 62 pow 2;
#X obj 259 88 * 20000;
#X obj 324 62 pow 3;
#X obj 324 88 * 200;
#X obj 429 62 * 95;
#X obj 429 88 + 1;
#X obj 382 62 * 100;
#X obj 727 347 *~;
#X obj 531 1028 outlet~;
#X obj 119 29 inlet~;
#X obj 531 878 *~;
#X obj 632 878 *~;
#X obj 531 930 *~ 1;
#X obj 531 968 *~ 0.5;
#X obj 862 347 clip~ 0 99;
#X obj 784 347 /~ 100;
#X obj 569 811 *~ -1;
#X obj 569 837 +~ 1;
#X obj 727 538 hv.hip~;
#X obj 727 652 hv.lop~;
#X obj 727 626 hv.lop~;
#X obj 727 600 hv.lop~;
#X obj 727 574 hv.lop~;
#X obj 763 495 pow~ 2;
#X obj 342 726 delwrite~ \$0-naiveL 1000;
#X obj 267 286 delread4~ \$0-naiveL 0;
#X obj 727 286 delread4~ \$0-naiveR 0;
#X obj 802 726 delwrite~ \$0-naiveR 1000;
#X connect 0 0 11 0;
#X connect 2 0 3 0;
#X connect 2 0 11 0;
#X connect 3 0 5 0;
#X connect 4 0 5 0;
#X connect 5 0 6 0;
#X connect 6 0 1 0;
#X connect 7 0 8 0;
#X connect 8 0 0 1;
#X connect 9 0 10 0;
#X connect 10 0 3 1;
#X connect 11 0 15 0;
#X connect 12 0 4 0;
#X connect 12 0 61 0;
#X connect 13 0 12 0;
#X connect 14 0 13 0;
#X connect 15 0 14 0;
#X connect 16 0 11 1;
#X connect 22 0 4 1;
#X connect 22 0 9 0;
#X connect 22 0 53 0;
#X connect 22 0 48 1;
#X connect 23 0 12 1;
#X connect 23 0 13 1;
#X connect 23 0 14 1;
#X connect 23 0 15 1;
#X connect 23 0 57 1;
#X connect 23 0 58 1;
#X connect 23 0 59 1;
#X connect 23 0 56 1;
#X connect 24 0 16 0;
#X connect 24 0 60 0;
#X connect 25 0 62 0;
#X connect 25 0 63 0;
#X connect 26 0 7 0;
#X connect 26 0 51 0;
#X connect 27 0 22 0;
#X connect 28 0 23 0;
#X connect 29 0 24 0;
#X connect 30 0 25 0;
#X connect 31 0 26 0;
#X connect 32 0 43 0;
#X connect 33 0 41 0;
#X connect 34 0 39 0;
#X connect 35 0 37 0;
#X connect 36 0 27 0;
#X connect 37 0 38 0;
#X connect 38 0 28 0;
#X connect 39 0 40 0;
#X connect 40 0 29 0;
#X connect 41 0 42 0;
#X connect 42 0 31 0;
#X connect 43 0 30 0;
#X connect 44 0 55 0;
#X connect 46 0 47 0;
#X connect 46 0 55 0;
#X connect 47 0 49 0;
#X connect 48 0 49 0;
#X connect 49 0 50 0;
#X connect 50 0 45 0;
#X connect 51 0 52 0;
#X connect 52 0 44 1;
#X connect 53 0 54 0;
#X connect 54 0 47 1;
#X connect 55 0 59 0;
#X connect 56 0 48 0;
#X connect 56 0 64 0;
#X connect 57 0 56 0;
#X connect 58 0 57 0;
#X connect 59 0 58 0;
#X connect 60 0 55 1;
#X connect 62 0 0 0;
#X connect 63 0 44 0;
#X restore 490 1397 pd naiveFilter;
#X obj 276 38 knob 49 0 1 0 0 empty empty #191919 #696969 #E1E1E1 1 0 0 0 1 270 0 0 0 empty empty 1 14 13 38 0 1 0 0;
#X text 276 20 filter mix;
#X obj 279 100 hsl 87 18 0.11 1 0 0 empty empty low\ pass -2 -5 0 10 #191919 #e1e1e1 #e1e1e1 0 1;
#X obj 279 164 hsl 87 18 0 1 0 1 empty empty feedback -2 -5 0 10 #191919 #e1e1e1 #e1e1e1 0 1;
#X obj 278 195 hsl 87 18 0 1 0 1 empty empty feedback\ delay -2 -5 0 10 #191919 #e1e1e1 #e1e1e1 8600 1;
#X obj 279 131 hsl 87 18 0 1 0 1 empty empty hi\ pass -2 -5 0 10 #191919 #e1e1e1 #e1e1e1 0 1;
#N canvas 0 50 450 300 f-mod 0;
#X text 137 66 f-mod;
#X obj 181 97 hv.lfo sine;
#X obj 260 97 hv.lfo ramp;
#X obj 348 97 hv.lfo saw;
#X obj 433 97 hv.lfo triangle;
#X obj 535 97 hv.lfo square;
#X msg 725 97 0;
#X obj 181 127 sig~;
#X obj 260 127 sig~;
#X obj 348 127 sig~;
#X obj 433 127 sig~;
#X obj 535 127 sig~;
#X obj 181 286 *~;
#X obj 209 257 line~;
#X obj 260 286 *~;
#X obj 288 257 line~;
#X msg 209 199 0 10;
#X msg 288 199 0 10;
#X msg 220 224 1 10;
#X msg 299 224 1 10;
#X obj 348 286 *~;
#X obj 376 257 line~;
#X obj 427 286 *~;
#X obj 455 257 line~;
#X msg 376 199 0 10;
#X msg 455 199 0 10;
#X msg 387 224 1 10;
#X msg 466 224 1 10;
#X obj 535 286 *~;
#X obj 563 257 line~;
#X msg 563 199 0 10;
#X msg 574 224 1 10;
#X obj 666 156 t f b;
#X obj 666 182 sel 0 1 2 3 4 5;
#X msg 134 97 1;
#X obj 131 128 sig~;
#X obj 119 286 *~;
#X obj 131 257 line~;
#X msg 157 182 0 10;
#X msg 174 209 1 10;
#X obj 23 115 loadbang;
#X obj 112 428 outlet~;
#X obj 666 30 inlet;
#X obj 311 14 inlet;
#X connect 1 0 7 0;
#X connect 2 0 8 0;
#X connect 3 0 9 0;
#X connect 4 0 10 0;
#X connect 5 0 11 0;
#X connect 6 0 5 1;
#X connect 6 0 4 1;
#X connect 6 0 3 1;
#X connect 6 0 1 1;
#X connect 6 0 2 1;
#X connect 7 0 12 0;
#X connect 8 0 14 0;
#X connect 9 0 20 0;
#X connect 10 0 22 0;
#X connect 11 0 28 0;
#X connect 12 0 41 0;
#X connect 13 0 12 1;
#X connect 14 0 41 0;
#X connect 15 0 14 1;
#X connect 16 0 13 0;
#X connect 17 0 15 0;
#X connect 18 0 13 0;
#X connect 19 0 15 0;
#X connect 20 0 41 0;
#X connect 21 0 20 1;
#X connect 22 0 41 0;
#X connect 23 0 22 1;
#X connect 24 0 21 0;
#X connect 25 0 23 0;
#X connect 26 0 21 0;
#X connect 27 0 23 0;
#X connect 28 0 41 0;
#X connect 29 0 28 1;
#X connect 30 0 29 0;
#X connect 31 0 29 0;
#X connect 32 0 33 0;
#X connect 32 1 6 0;
#X connect 33 0 17 0;
#X connect 33 0 25 0;
#X connect 33 0 30 0;
#X connect 33 0 16 0;
#X connect 33 0 24 0;
#X connect 33 0 39 0;
#X connect 33 1 30 0;
#X connect 33 1 25 0;
#X connect 33 1 24 0;
#X connect 33 1 17 0;
#X connect 33 1 18 0;
#X connect 33 1 38 0;
#X connect 33 2 30 0;
#X connect 33 2 25 0;
#X connect 33 2 24 0;
#X connect 33 2 16 0;
#X connect 33 2 19 0;
#X connect 33 2 38 0;
#X connect 33 3 30 0;
#X connect 33 3 25 0;
#X connect 33 3 26 0;
#X connect 33 3 16 0;
#X connect 33 3 17 0;
#X connect 33 3 38 0;
#X connect 33 4 30 0;
#X connect 33 4 16 0;
#X connect 33 4 17 0;
#X connect 33 4 24 0;
#X connect 33 4 27 0;
#X connect 33 4 38 0;
#X connect 33 5 16 0;
#X connect 33 5 17 0;
#X connect 33 5 24 0;
#X connect 33 5 25 0;
#X connect 33 5 31 0;
#X connect 33 5 38 0;
#X connect 34 0 35 0;
#X connect 35 0 36 0;
#X connect 36 0 41 0;
#X connect 37 0 36 1;
#X connect 38 0 37 0;
#X connect 39 0 37 0;
#X connect 40 0 34 0;
#X connect 42 0 5 0;
#X connect 42 0 4 0;
#X connect 42 0 3 0;
#X connect 42 0 2 0;
#X connect 42 0 1 0;
#X connect 43 0 32 0;
#X restore 684 853 pd f-mod;
#X obj 276 229 vradio 20 0 0 6 empty empty f-mod 0 -8 0 10 #fcfcfc #000000 #fcfcfc 0;
#X text 299 229 off;
#X text 299 247 sine;
#X text 299 269 ramp;
#X text 299 291 saw;
#X text 299 330 sqr;
#X text 299 309 trian;
#X obj 490 1423 outlet~;
#X obj 551 1423 outlet~;
#X msg 835 -32 0.3;
#X floatatom 330 230 5 0 0 2 freq - - 12;
#X connect 0 0 62 0;
#X connect 0 0 5 1;
#X connect 1 0 64 0;
#X connect 1 0 5 5;
#X connect 2 0 69 0;
#X connect 2 0 5 2;
#X connect 3 0 63 0;
#X connect 3 0 5 3;
#X connect 4 0 70 0;
#X connect 4 0 5 4;
#X connect 5 0 107 0;
#X connect 6 0 10 0;
#X connect 6 0 7 0;
#X connect 7 0 17 0;
#X connect 8 0 7 1;
#X connect 9 0 7 1;
#X connect 10 0 14 0;
#X connect 11 0 10 1;
#X connect 12 0 10 1;
#X connect 13 0 22 0;
#X connect 13 1 21 0;
#X connect 14 0 15 0;
#X connect 14 1 15 1;
#X connect 14 1 18 0;
#X connect 14 1 59 0;
#X connect 15 0 5 0;
#X connect 16 0 34 0;
#X connect 17 0 16 0;
#X connect 17 1 16 1;
#X connect 17 2 16 2;
#X connect 17 2 18 0;
#X connect 17 2 59 0;
#X connect 19 0 17 0;
#X connect 20 0 14 0;
#X connect 21 0 20 0;
#X connect 21 1 9 0;
#X connect 21 1 11 0;
#X connect 22 0 19 0;
#X connect 22 1 12 0;
#X connect 22 1 8 0;
#X connect 23 0 13 0;
#X connect 26 0 46 0;
#X connect 26 0 65 0;
#X connect 26 0 5 7;
#X connect 27 0 47 0;
#X connect 27 0 72 0;
#X connect 27 0 5 8;
#X connect 28 0 48 0;
#X connect 28 0 66 0;
#X connect 28 0 5 9;
#X connect 29 0 49 0;
#X connect 29 0 73 0;
#X connect 29 0 5 10;
#X connect 34 0 107 0;
#X connect 35 0 36 0;
#X connect 35 0 77 0;
#X connect 35 0 125 0;
#X connect 36 0 4 0;
#X connect 36 0 3 0;
#X connect 36 0 2 0;
#X connect 36 0 0 0;
#X connect 36 0 45 0;
#X connect 36 0 37 0;
#X connect 36 0 1 0;
#X connect 36 0 111 0;
#X connect 37 0 71 0;
#X connect 37 0 5 6;
#X connect 39 0 67 0;
#X connect 39 0 5 11;
#X connect 40 0 74 0;
#X connect 40 0 5 12;
#X connect 41 0 68 0;
#X connect 41 0 5 13;
#X connect 42 0 75 0;
#X connect 42 0 5 14;
#X connect 45 0 46 1;
#X connect 45 0 47 1;
#X connect 45 0 48 1;
#X connect 45 0 49 1;
#X connect 45 0 50 0;
#X connect 46 0 51 0;
#X connect 47 0 52 0;
#X connect 48 0 53 0;
#X connect 49 0 54 0;
#X connect 50 0 55 0;
#X connect 50 0 56 0;
#X connect 50 0 57 0;
#X connect 50 0 58 0;
#X connect 60 0 76 0;
#X connect 60 0 5 15;
#X connect 62 0 34 1;
#X connect 63 0 34 3;
#X connect 64 0 34 5;
#X connect 65 0 34 7;
#X connect 66 0 34 9;
#X connect 67 0 34 11;
#X connect 68 0 34 13;
#X connect 69 0 34 2;
#X connect 70 0 34 4;
#X connect 71 0 34 6;
#X connect 72 0 34 8;
#X connect 73 0 34 10;
#X connect 74 0 34 12;
#X connect 75 0 34 14;
#X connect 76 0 34 15;
#X connect 77 0 23 0;
#X connect 77 0 112 0;
#X connect 77 0 114 0;
#X connect 77 0 116 0;
#X connect 78 0 10 0;
#X connect 78 0 7 0;
#X connect 80 0 98 0;
#X connect 81 0 83 0;
#X connect 83 0 84 0;
#X connect 84 0 85 0;
#X connect 85 0 86 0;
#X connect 86 0 87 0;
#X connect 86 0 90 1;
#X connect 87 0 88 0;
#X connect 88 0 89 1;
#X connect 89 0 80 0;
#X connect 90 0 92 0;
#X connect 92 0 99 0;
#X connect 93 0 79 0;
#X connect 93 1 79 1;
#X connect 94 0 95 0;
#X connect 94 1 95 1;
#X connect 96 0 97 0;
#X connect 97 0 92 1;
#X connect 97 0 80 1;
#X connect 98 0 93 0;
#X connect 98 0 108 0;
#X connect 99 0 94 0;
#X connect 99 0 108 1;
#X connect 100 0 101 0;
#X connect 101 0 98 1;
#X connect 101 0 99 1;
#X connect 102 0 103 0;
#X connect 103 0 105 0;
#X connect 103 1 104 0;
#X connect 104 0 100 0;
#X connect 105 0 100 0;
#X connect 106 0 96 0;
#X connect 107 0 89 0;
#X connect 107 0 90 0;
#X connect 108 0 123 0;
#X connect 108 1 124 0;
#X connect 109 0 108 2;
#X connect 111 0 108 3;
#X connect 112 0 108 5;
#X connect 113 0 108 6;
#X connect 114 0 108 4;
#X connect 115 0 107 1;
#X connect 116 0 115 0;
#X connect 125 0 113 0;
#X connect 126 0 115 1;
#X coords 0 0 1 1 376 358 1 0 2;
