#N canvas 827 239 734 565 12;
#X obj 112 27 vradio 20 1 0 3 empty empty wv1 0 -8 0 10 #191919 #e1e1e1 #e1e1e1 0;
#X obj 236 187 vsl 23 32 0 2 0 0 empty empty lvl 6 -9 0 10 #191919 #e1e1e1 #e1e1e1 0 1;
#X obj 140 27 vradio 20 1 0 3 empty empty wv2 0 -8 0 10 #191919 #e1e1e1 #e1e1e1 0;
#X obj 168 27 vradio 20 1 0 3 empty empty wv3 0 -8 0 10 #191919 #e1e1e1 #e1e1e1 0;
#X obj 196 27 vradio 20 1 0 3 empty empty wv4 0 -8 0 10 #191919 #e1e1e1 #e1e1e1 0;
#X obj 305 444 simph-origin;
#X obj -29 -42 inlet;
#X obj -66 259 spigot;
#X msg -41 231 0;
#X msg -15 231 1;
#X obj -193 259 spigot;
#X msg -142 231 0;
#X msg -116 231 1;
#X obj -75 152 sel 0 1;
#X obj -259 297 mono;
#X obj -193 311 pack;
#X obj -66 311 pack f f f;
#X obj -66 285 poly 4 1;
#N canvas 0 50 450 300 adsr-random 0;
#X obj 153 343 + 10;
#X obj 281 343 + 10;
#X obj 521 343 + 10;
#X obj 201 154 spigot;
#X obj 168 92 spigot;
#X obj 168 66 t f f;
#X obj 308 221 + 5;
#X obj 308 188 random 15;
#X obj 400 343 + 50;
#X obj 196 188 t b b b b b;
#X obj 400 317 hv.drunk 45;
#X obj 521 317 hv.drunk 500;
#X obj 168 118 bang;
#X obj 153 368 s \$0-attackRand;
#X obj 281 366 s \$0-decayRand;
#X obj 400 367 s \$0-sustainRand;
#X obj 521 367 s \$0-releaseRand;
#X obj 22 221 loadbang;
#X msg 23 283 30;
#X msg 67 269 65;
#X obj 153 317 hv.drunk 500;
#X obj 281 317 hv.drunk 500;
#X obj 297 87 r \$0-rand-adsr;
#X obj 168 7 inlet;
#X connect 0 0 13 0;
#X connect 1 0 14 0;
#X connect 2 0 16 0;
#X connect 3 0 9 0;
#X connect 4 0 12 0;
#X connect 5 0 4 0;
#X connect 5 1 4 1;
#X connect 6 0 11 2;
#X connect 6 0 10 2;
#X connect 6 0 20 2;
#X connect 6 0 21 2;
#X connect 7 0 6 0;
#X connect 8 0 15 0;
#X connect 9 0 20 0;
#X connect 9 1 21 0;
#X connect 9 2 10 0;
#X connect 9 3 11 0;
#X connect 9 4 7 0;
#X connect 10 0 8 0;
#X connect 11 0 2 0;
#X connect 12 0 3 0;
#X connect 17 0 18 0;
#X connect 17 0 19 0;
#X connect 18 0 13 0;
#X connect 18 0 14 0;
#X connect 18 0 16 0;
#X connect 19 0 15 0;
#X connect 20 0 0 0;
#X connect 21 0 1 0;
#X connect 22 0 3 1;
#X connect 23 0 5 0;
#X restore 51 349 pd adsr-random;
#X msg -85 231 stop;
#X msg -188 231 flush;
#X obj -45 181 t b b;
#X obj -101 181 t b b;
#X obj 174 596 outlet~;
#X obj 8 26 vradio 20 1 0 2 empty empty empty 0 -8 0 10 #191919 #e1e1e1 #e1e1e1 0;
#X text 32 25 mono;
#X text 32 47 poly;
#X floatatom 8 131 5 10 510 2 Attack \$0-attackRand - 12;
#X floatatom 51 131 5 10 510 2 decay \$0-decayRand - 12;
#X floatatom 95 131 5 0 95 2 sustain \$0-sustainRand - 12;
#X floatatom 140 131 5 10 510 2 release \$0-releaseRand - 12;
#X obj 189 121 tgl 37 0 \$0-rand-adsr empty randomize -5 -7 0 10 #191919 #e1e1e1 #e1e1e1 0 1;
#X text 79 26 sine;
#X text 80 47 saw;
#X text 60 68 triangle;
#X obj -109 473 clone -s 1 simph-origin 4;
#X obj 380 12 loadbang;
#X msg 380 38 1;
#X obj 236 125 vsl 23 32 0 1 0 0 empty empty lvl 6 -9 0 10 #191919 #e1e1e1 #e1e1e1 0 1;
#X text 8 95 note adsr;
#X floatatom 8 195 5 10 510 2 Attack \$0-attackRand2 - 12;
#X floatatom 51 195 5 10 510 2 decay \$0-decayRand2 - 12;
#X floatatom 95 195 5 0 95 2 sustain \$0-sustainRand2 - 12;
#X floatatom 140 195 5 10 510 2 release \$0-releaseRand2 - 12;
#X text 8 159 noise adsr;
#X obj 189 185 tgl 37 0 \$0-rand-adsr2 empty randomize -5 -7 0 10 #191919 #e1e1e1 #e1e1e1 0 1;
#X obj 225 38 tgl 34 0 empty empty link\ adsr 2 -7 0 10 #191919 #e1e1e1 #e1e1e1 0 1;
#X obj 382 189 spigot;
#X obj 446 189 spigot;
#X obj 510 189 spigot;
#X obj 574 189 spigot;
#X obj 451 82 sel 1;
#X obj 382 231 s \$0-attackRand2;
#X obj 510 229 s \$0-decayRand2;
#X obj 629 230 s \$0-sustainRand2;
#X obj 750 230 s \$0-releaseRand2;
#X obj 466 110 s \$0-attackRand;
#X obj 594 108 s \$0-decayRand;
#X obj 713 109 s \$0-sustainRand;
#X obj 834 109 s \$0-releaseRand;
#N canvas 0 50 450 300 adsr-random2 0;
#X obj 153 343 + 10;
#X obj 281 343 + 10;
#X obj 521 343 + 10;
#X obj 201 154 spigot;
#X obj 168 92 spigot;
#X obj 168 66 t f f;
#X obj 308 221 + 5;
#X obj 308 188 random 15;
#X obj 400 343 + 50;
#X obj 196 188 t b b b b b;
#X obj 400 317 hv.drunk 45;
#X obj 521 317 hv.drunk 500;
#X obj 168 118 bang;
#X obj 22 221 loadbang;
#X msg 23 283 30;
#X msg 67 269 65;
#X obj 153 317 hv.drunk 500;
#X obj 281 317 hv.drunk 500;
#X obj 168 7 inlet;
#X obj 297 87 r \$0-rand-adsr2;
#X obj 521 367 s \$0-releaseRand2;
#X obj 400 367 s \$0-sustainRand2;
#X obj 281 366 s \$0-decayRand2;
#X obj 153 368 s \$0-attackRand2;
#X connect 0 0 23 0;
#X connect 1 0 22 0;
#X connect 2 0 20 0;
#X connect 3 0 9 0;
#X connect 4 0 12 0;
#X connect 5 0 4 0;
#X connect 5 1 4 1;
#X connect 6 0 11 2;
#X connect 6 0 10 2;
#X connect 6 0 16 2;
#X connect 6 0 17 2;
#X connect 7 0 6 0;
#X connect 8 0 21 0;
#X connect 9 0 16 0;
#X connect 9 1 17 0;
#X connect 9 2 10 0;
#X connect 9 3 11 0;
#X connect 9 4 7 0;
#X connect 10 0 8 0;
#X connect 11 0 2 0;
#X connect 12 0 3 0;
#X connect 13 0 14 0;
#X connect 13 0 15 0;
#X connect 14 0 20 0;
#X connect 14 0 22 0;
#X connect 14 0 23 0;
#X connect 15 0 21 0;
#X connect 16 0 0 0;
#X connect 17 0 1 0;
#X connect 18 0 5 0;
#X connect 19 0 3 1;
#X restore 43 311 pd adsr-random2;
#X floatatom 140 223 5 4 50 1 noise\ color \$0-noisecolor - 12;
#X obj 11 223 hsl 119 17 4 50 0 1 \$0-noisecolor empty empty -2 -8 0 10 #191919 #e1e1e1 #e1e1e1 0 1;
#X msg -206 409 all \$1;
#X msg -149 409 all \$1;
#X msg -89 409 all \$1;
#X msg -39 409 all \$1;
#X msg 18 409 all \$1;
#X msg 75 409 all \$1;
#X msg 128 409 all \$1;
#X msg -177 436 all \$1;
#X msg -120 436 all \$1;
#X msg -63 436 all \$1;
#X msg -10 436 all \$1;
#X msg 47 436 all \$1;
#X msg 104 436 all \$1;
#X msg 157 436 all \$1;
#X msg 183 409 all \$1;
#X msg 341 27 0;
#X obj -209 -26 r notes;
#X connect 0 0 5 1;
#X connect 0 0 63 0;
#X connect 1 0 5 5;
#X connect 1 0 65 0;
#X connect 2 0 5 2;
#X connect 2 0 70 0;
#X connect 3 0 5 3;
#X connect 3 0 64 0;
#X connect 4 0 5 4;
#X connect 4 0 71 0;
#X connect 5 0 23 0;
#X connect 6 0 10 0;
#X connect 6 0 7 0;
#X connect 7 0 17 0;
#X connect 8 0 7 1;
#X connect 9 0 7 1;
#X connect 10 0 14 0;
#X connect 11 0 10 1;
#X connect 12 0 10 1;
#X connect 13 0 22 0;
#X connect 13 1 21 0;
#X connect 14 0 15 0;
#X connect 14 1 15 1;
#X connect 14 1 18 0;
#X connect 14 1 60 0;
#X connect 15 0 5 0;
#X connect 16 0 35 0;
#X connect 17 0 16 0;
#X connect 17 1 16 1;
#X connect 17 2 16 2;
#X connect 17 2 18 0;
#X connect 17 2 60 0;
#X connect 19 0 17 0;
#X connect 20 0 14 0;
#X connect 21 0 20 0;
#X connect 21 1 9 0;
#X connect 21 1 11 0;
#X connect 22 0 19 0;
#X connect 22 1 12 0;
#X connect 22 1 8 0;
#X connect 24 0 13 0;
#X connect 27 0 5 7;
#X connect 27 0 47 0;
#X connect 27 0 66 0;
#X connect 28 0 5 8;
#X connect 28 0 48 0;
#X connect 28 0 73 0;
#X connect 29 0 5 9;
#X connect 29 0 49 0;
#X connect 29 0 67 0;
#X connect 30 0 5 10;
#X connect 30 0 50 0;
#X connect 30 0 74 0;
#X connect 35 0 23 0;
#X connect 36 0 37 0;
#X connect 36 0 78 0;
#X connect 37 0 4 0;
#X connect 37 0 3 0;
#X connect 37 0 2 0;
#X connect 37 0 0 0;
#X connect 37 0 46 0;
#X connect 37 0 38 0;
#X connect 37 0 1 0;
#X connect 38 0 5 6;
#X connect 38 0 72 0;
#X connect 40 0 5 11;
#X connect 40 0 68 0;
#X connect 41 0 5 12;
#X connect 41 0 75 0;
#X connect 42 0 5 13;
#X connect 42 0 69 0;
#X connect 43 0 5 14;
#X connect 43 0 76 0;
#X connect 46 0 47 1;
#X connect 46 0 48 1;
#X connect 46 0 49 1;
#X connect 46 0 50 1;
#X connect 46 0 51 0;
#X connect 47 0 52 0;
#X connect 48 0 53 0;
#X connect 49 0 54 0;
#X connect 50 0 55 0;
#X connect 51 0 56 0;
#X connect 51 0 57 0;
#X connect 51 0 58 0;
#X connect 51 0 59 0;
#X connect 61 0 77 0;
#X connect 61 0 5 15;
#X connect 63 0 35 1;
#X connect 64 0 35 3;
#X connect 65 0 35 5;
#X connect 66 0 35 7;
#X connect 67 0 35 9;
#X connect 68 0 35 11;
#X connect 69 0 35 13;
#X connect 70 0 35 2;
#X connect 71 0 35 4;
#X connect 72 0 35 6;
#X connect 73 0 35 8;
#X connect 74 0 35 10;
#X connect 75 0 35 12;
#X connect 76 0 35 14;
#X connect 77 0 35 15;
#X connect 78 0 24 0;
#X connect 79 0 10 0;
#X connect 79 0 7 0;
#X coords 0 0 1 1 269 247 1 0 2;
