#N canvas 0 0 1370 858 10;
#X obj 64 550 +~ 1;
#X obj 36 7 notein;
#X obj 64 521 *~;
#X obj 114 420 *~;
#X obj 159 420 *~;
#X obj 224 1105 outlet~;
#X obj 63 575 *~ 15;
#N canvas 0 50 450 300 waveGen1 0;
#X obj 47 314 *~;
#X msg 69 247 1 20;
#X obj 47 364 outlet~;
#X obj 47 27 inlet~;
#X obj 163 113 hv.osc~ saw;
#X obj 47 113 hv.osc~ sine;
#X obj 161 314 *~;
#X msg 176 247 1 20;
#X msg 219 247 0 20;
#X obj 267 314 *~;
#X msg 287 247 1 20;
#X msg 335 247 0 20;
#X obj 183 155 r inputWave1;
#X floatatom 183 183 5 0 0 0 - - - 12;
#X obj 183 206 sel 0 1 2;
#X obj 69 278 line~;
#X obj 176 278 line~;
#X obj 287 278 line~;
#X msg 115 247 0 20;
#X obj 296 113 phasor~;
#X obj 296 142 -~ 0.5;
#X obj 296 202 *~ 2;
#X obj 296 172 abs~;
#X text 296 89 triangle;
#X connect 0 0 2 0;
#X connect 1 0 15 0;
#X connect 3 0 5 0;
#X connect 3 0 4 0;
#X connect 3 0 19 0;
#X connect 4 0 6 0;
#X connect 5 0 0 0;
#X connect 6 0 2 0;
#X connect 7 0 16 0;
#X connect 8 0 16 0;
#X connect 9 0 2 0;
#X connect 10 0 17 0;
#X connect 11 0 17 0;
#X connect 12 0 13 0;
#X connect 13 0 14 0;
#X connect 14 0 1 0;
#X connect 14 0 8 0;
#X connect 14 0 11 0;
#X connect 14 1 7 0;
#X connect 14 1 18 0;
#X connect 14 1 11 0;
#X connect 14 2 10 0;
#X connect 14 2 8 0;
#X connect 14 2 18 0;
#X connect 15 0 0 1;
#X connect 16 0 6 1;
#X connect 17 0 9 1;
#X connect 18 0 15 0;
#X connect 19 0 20 0;
#X connect 20 0 22 0;
#X connect 21 0 9 0;
#X connect 22 0 21 0;
#X restore 114 323 pd waveGen1;
#N canvas 0 50 450 300 waveGen2 0;
#X obj 47 314 *~;
#X msg 69 247 1 20;
#X obj 47 364 outlet~;
#X obj 47 27 inlet~;
#X obj 163 113 hv.osc~ saw;
#X obj 47 113 hv.osc~ sine;
#X obj 161 314 *~;
#X msg 176 247 1 20;
#X msg 219 247 0 20;
#X obj 267 314 *~;
#X msg 287 247 1 20;
#X msg 335 247 0 20;
#X floatatom 183 183 5 0 0 0 - - - 12;
#X obj 183 206 sel 0 1 2;
#X obj 69 278 line~;
#X obj 176 278 line~;
#X obj 287 278 line~;
#X msg 115 247 0 20;
#X obj 296 113 phasor~;
#X obj 296 142 -~ 0.5;
#X obj 296 202 *~ 2;
#X obj 296 172 abs~;
#X text 296 89 triangle;
#X obj 183 155 r inputWave2;
#X connect 0 0 2 0;
#X connect 1 0 14 0;
#X connect 3 0 5 0;
#X connect 3 0 4 0;
#X connect 3 0 18 0;
#X connect 4 0 6 0;
#X connect 5 0 0 0;
#X connect 6 0 2 0;
#X connect 7 0 15 0;
#X connect 8 0 15 0;
#X connect 9 0 2 0;
#X connect 10 0 16 0;
#X connect 11 0 16 0;
#X connect 12 0 13 0;
#X connect 13 0 1 0;
#X connect 13 0 8 0;
#X connect 13 0 11 0;
#X connect 13 1 7 0;
#X connect 13 1 17 0;
#X connect 13 1 11 0;
#X connect 13 2 10 0;
#X connect 13 2 8 0;
#X connect 13 2 17 0;
#X connect 14 0 0 1;
#X connect 15 0 6 1;
#X connect 16 0 9 1;
#X connect 17 0 14 0;
#X connect 18 0 19 0;
#X connect 19 0 21 0;
#X connect 20 0 9 0;
#X connect 21 0 20 0;
#X connect 23 0 12 0;
#X restore 209 323 pd waveGen2;
#X text 124 745 antialliasing filter;
#X obj 10 258 r~ waveMix;
#X obj 36 283 r~ lfoWaveMixMaster;
#X obj 10 331 +~;
#X obj 14 362 *~ -1;
#X obj 14 388 +~ 1;
#X obj 224 952 *~;
#X obj 49 675 tabread~ shapeFunction;
#X obj 35 907 hv.hip~;
#X obj 35 872 hv.hip~;
#X obj 35 837 hv.hip~;
#X obj 35 802 hv.hip~;
#X obj 129 796 r~ filterFreq;
#X obj 14 414 clip~ 0 1;
#X obj 147 371 clip~ 0 1;
#N canvas 0 50 450 300 myEnvelope 1;
#X obj 160 601 delay;
#X obj 91 622 pack;
#X obj 160 638 f;
#X obj 358 351 + 10;
#X obj 455 349 + 10;
#X obj 667 349 + 10;
#X obj 406 162 spigot;
#X obj 91 571 t f b;
#X obj 118 597 f;
#X obj 90 459 r peak;
#X obj 133 571 r attack;
#X obj 316 618 r decay;
#X obj 267 437 r sus;
#X obj 493 491 r rel;
#X obj 413 547 sel 0;
#X obj 178 505 r attack;
#X obj 267 498 f;
#X obj 316 505 t b f;
#X obj 90 548 spigot;
#X obj 316 405 r peak;
#X obj 316 481 spigot;
#X obj 316 455 t f f;
#X obj 201 530 r peak;
#X obj 201 609 spigot;
#X obj 201 583 t f f;
#X obj 373 45 r peak;
#X obj 373 100 spigot;
#X obj 373 74 t f f;
#X obj 413 491 r peak;
#X obj 513 229 + 5;
#X obj 513 196 random 15;
#X obj 546 349 + 50;
#X text 383 458 APPLIES RANDOM CHANGES TO ADSR;
#X obj 401 196 t b b b b b;
#X obj 201 736 spigot;
#X obj 285 673 loadbang;
#X msg 285 699 1;
#X obj 413 573 t b b b;
#X msg 469 601 0;
#X msg 395 689 stop;
#X obj 455 682 f;
#X msg 455 717 0 \$1;
#X obj 90 522 t f f b;
#X obj 90 488 sel 0;
#X obj 201 556 sel 0;
#X obj 429 94 r randEnv;
#X obj 267 530 *;
#X obj 267 556 / 100;
#X obj 358 325 hv.drunk 200;
#X obj 455 324 hv.drunk 200;
#X obj 546 323 hv.drunk 45;
#X obj 667 323 hv.drunk 500;
#X obj 667 373 s releaseRand;
#X obj 546 373 s sustainRand;
#X obj 455 373 s decayRand;
#X obj 358 376 s attackRand;
#X obj 201 796 line~;
#X obj 260 866 s comp-adsr;
#X obj 260 800 line;
#X obj 275 647 pack;
#X obj 267 618 f;
#X obj 160 664 t b f;
#X obj 201 913 outlet~;
#X obj 373 126 bang;
#X obj 201 822 pow~ 2;
#X obj 260 826 pow 2;
#X connect 0 0 2 0;
#X connect 1 0 56 0;
#X connect 1 0 58 0;
#X connect 2 0 61 0;
#X connect 3 0 55 0;
#X connect 4 0 54 0;
#X connect 5 0 52 0;
#X connect 6 0 33 0;
#X connect 7 0 1 0;
#X connect 7 1 8 0;
#X connect 7 1 0 0;
#X connect 8 0 1 1;
#X connect 9 0 43 0;
#X connect 10 0 8 1;
#X connect 11 0 59 1;
#X connect 12 0 16 1;
#X connect 13 0 40 1;
#X connect 14 0 37 0;
#X connect 15 0 0 1;
#X connect 16 0 46 0;
#X connect 17 0 16 0;
#X connect 17 1 46 1;
#X connect 18 0 7 0;
#X connect 19 0 21 0;
#X connect 20 0 17 0;
#X connect 21 0 20 0;
#X connect 21 1 20 1;
#X connect 22 0 44 0;
#X connect 23 0 2 1;
#X connect 24 0 23 0;
#X connect 24 1 23 1;
#X connect 25 0 27 0;
#X connect 26 0 63 0;
#X connect 27 0 26 0;
#X connect 27 1 26 1;
#X connect 28 0 14 0;
#X connect 29 0 48 2;
#X connect 29 0 49 2;
#X connect 29 0 50 2;
#X connect 29 0 51 2;
#X connect 30 0 29 0;
#X connect 31 0 53 0;
#X connect 33 0 48 0;
#X connect 33 1 49 0;
#X connect 33 2 50 0;
#X connect 33 3 51 0;
#X connect 33 4 30 0;
#X connect 34 0 56 0;
#X connect 34 0 58 0;
#X connect 35 0 36 0;
#X connect 36 0 34 1;
#X connect 37 0 40 0;
#X connect 37 1 39 0;
#X connect 37 2 38 0;
#X connect 38 0 34 1;
#X connect 39 0 58 0;
#X connect 40 0 41 0;
#X connect 41 0 56 0;
#X connect 41 0 58 0;
#X connect 42 0 18 0;
#X connect 42 1 18 1;
#X connect 42 2 36 0;
#X connect 42 2 39 0;
#X connect 43 1 42 0;
#X connect 44 1 24 0;
#X connect 45 0 6 1;
#X connect 46 0 47 0;
#X connect 47 0 60 1;
#X connect 48 0 3 0;
#X connect 49 0 4 0;
#X connect 50 0 31 0;
#X connect 51 0 5 0;
#X connect 56 0 64 0;
#X connect 58 0 65 0;
#X connect 59 0 34 0;
#X connect 60 0 59 0;
#X connect 61 0 60 0;
#X connect 61 1 34 0;
#X connect 63 0 6 0;
#X connect 64 0 62 0;
#X connect 65 0 57 0;
#X restore 257 907 pd myEnvelope;
#X text 440 92 Controls the envelope of the waveshaping modulation;
#X obj 496 315 pack;
#X obj 549 225 del;
#X obj 440 130 r wsPeak;
#X obj 511 130 r wsAttack;
#X obj 429 225 f;
#X obj 385 94 r peak;
#X obj 518 192 t f f;
#X obj 681 130 r wsDecay;
#X obj 595 315 pack;
#X obj 595 130 r wsSustain;
#X obj 595 257 f;
#X obj 641 191 / 100;
#X obj 595 283 *;
#X obj 385 156 sel 0;
#X obj 446 398 line~;
#X obj 496 341 spigot;
#X obj 400 192 t b f;
#X msg 387 225 0;
#X obj 326 761 random 100;
#X obj 326 815 / 50;
#X obj 326 840 - 1;
#X obj 431 1038 line;
#X obj 444 903 delay;
#X obj 444 874 t b f;
#X obj 326 709 t b b b;
#X obj 445 937 spigot;
#X obj 537 784 t f f;
#X obj 431 988 pack f f f;
#X msg 431 1013 \$1 \, \$2 \$3;
#X obj 432 761 random 500;
#X obj 431 807 + 100;
#X obj 409 708 / 10;
#X obj 537 760 random 25;
#X obj 434 659 r change-rate;
#X text 275 612 CREATES RANDOM CHANGES TO SHAPING FUNCTION;
#X obj 326 652 loadbang;
#X msg 504 913 1;
#X obj 537 812 tabread shapeFunction;
#X obj 430 1089 tabwrite shapeFunction;
#X obj 701 354 + 10;
#X obj 701 239 spigot;
#X obj 906 156 spigot;
#X obj 906 130 t f f;
#X obj 1123 273 + 5;
#X obj 906 239 spigot;
#X obj 767 239 r randWsEnv;
#X obj 701 385 s wsAttack;
#X obj 915 384 s wsSustain;
#X obj 810 383 s wsDecay;
#X obj 701 328 hv.drunk 9980;
#X obj 810 328 hv.drunk 9500;
#X obj 810 353 + 500;
#X obj 915 354 + 10;
#X obj 915 328 hv.drunk 90;
#X obj 701 273 t b b b;
#X obj 906 182 t b b b;
#X obj 1080 273 * 15;
#X obj 1080 239 random 20;
#X obj 1008 384 s wsPeak;
#X obj 965 239 r randWsPeak;
#X obj 1008 328 hv.drunk 1000;
#X obj 1008 354 / 1000;
#X text 878 103 Randomizes it;
#X obj 545 428 loadbang;
#X obj 372 397 sel 0 1;
#X obj 266 520 *~;
#X obj 306 486 line~;
#X msg 320 455 1 10;
#X msg 306 428 0 10;
#X obj 452 520 *~;
#X obj 492 486 line~;
#X msg 506 455 1 10;
#X msg 492 428 0 10;
#X obj 372 371 r wsCtl;
#X obj 249 377 r~ lfoWsMaster;
#X obj 249 403 clip~ 0.1 1;
#X obj 86 85 / 127;
#X obj 326 291 s peak;
#X obj 86 137 r~ lfoPitchMaster;
#X msg 36 85 \$1 10;
#X obj 36 120 line~;
#X obj 36 148 +~;
#X obj 36 174 mtof~;
#X obj 114 182 -~ 5;
#X obj 114 208 s~ filterFreq;
#X obj 446 424 pow~ 2;
#X obj 234 7 r no-sens;
#X obj 234 33 sel 0 1;
#X obj 165 76 spigot;
#X msg 217 85 0;
#X msg 217 57 1, f 3;
#X obj 133 7 loadbang;
#X obj 244 113 spigot;
#X msg 296 122 0;
#X msg 296 94 1;
#X msg 249 225 1;
#X obj 246 192 bng 25 250 50 0 empty empty empty 17 7 0 10 #191919 #e1e1e1 #e1e1e1;
#X msg 217 225 0;
#X obj 244 139 sel 0;
#X obj 36 48 myMono;
#X obj 313 232 sqrt;
#X connect 0 0 6 0;
#X connect 1 0 125 0;
#X connect 1 1 125 1;
#X connect 2 0 0 0;
#X connect 3 0 2 0;
#X connect 4 0 2 0;
#X connect 6 0 16 0;
#X connect 7 0 3 0;
#X connect 8 0 4 0;
#X connect 10 0 12 0;
#X connect 11 0 12 1;
#X connect 12 0 13 0;
#X connect 12 0 23 0;
#X connect 13 0 14 0;
#X connect 14 0 22 0;
#X connect 15 0 5 0;
#X connect 16 0 20 0;
#X connect 17 0 15 0;
#X connect 18 0 17 0;
#X connect 19 0 18 0;
#X connect 20 0 19 0;
#X connect 21 0 20 1;
#X connect 21 0 19 1;
#X connect 21 0 18 1;
#X connect 21 0 17 1;
#X connect 22 0 3 1;
#X connect 23 0 4 1;
#X connect 24 0 15 1;
#X connect 26 0 41 0;
#X connect 27 0 36 0;
#X connect 28 0 30 1;
#X connect 28 0 36 1;
#X connect 29 0 32 0;
#X connect 30 0 26 0;
#X connect 31 0 39 0;
#X connect 31 0 68 0;
#X connect 32 0 26 1;
#X connect 32 1 27 1;
#X connect 33 0 34 1;
#X connect 34 0 41 0;
#X connect 35 0 37 0;
#X connect 36 0 38 0;
#X connect 37 0 38 1;
#X connect 38 0 34 0;
#X connect 39 0 43 0;
#X connect 39 1 42 0;
#X connect 40 0 111 0;
#X connect 41 0 40 0;
#X connect 42 0 30 0;
#X connect 42 0 27 0;
#X connect 42 1 41 1;
#X connect 43 0 41 1;
#X connect 44 0 45 0;
#X connect 45 0 46 0;
#X connect 46 0 53 1;
#X connect 47 0 64 0;
#X connect 48 0 51 0;
#X connect 49 0 48 0;
#X connect 49 1 48 1;
#X connect 50 0 44 0;
#X connect 50 1 55 0;
#X connect 50 2 58 0;
#X connect 51 0 50 0;
#X connect 52 0 63 0;
#X connect 52 1 64 1;
#X connect 53 0 54 0;
#X connect 54 0 47 0;
#X connect 55 0 56 0;
#X connect 56 0 49 0;
#X connect 56 0 53 2;
#X connect 57 0 56 1;
#X connect 58 0 52 0;
#X connect 59 0 55 1;
#X connect 59 0 57 0;
#X connect 61 0 62 0;
#X connect 61 0 50 0;
#X connect 62 0 51 1;
#X connect 63 0 53 0;
#X connect 65 0 72 0;
#X connect 66 0 80 0;
#X connect 67 0 81 0;
#X connect 68 0 67 0;
#X connect 68 1 67 1;
#X connect 69 0 79 2;
#X connect 70 0 86 0;
#X connect 71 0 66 1;
#X connect 75 0 65 0;
#X connect 76 0 77 0;
#X connect 77 0 74 0;
#X connect 78 0 73 0;
#X connect 79 0 78 0;
#X connect 80 0 75 0;
#X connect 80 1 76 0;
#X connect 80 2 79 0;
#X connect 81 0 66 0;
#X connect 81 1 70 0;
#X connect 81 2 83 0;
#X connect 82 0 76 2;
#X connect 82 0 75 2;
#X connect 82 0 86 2;
#X connect 83 0 69 0;
#X connect 83 0 82 0;
#X connect 85 0 70 1;
#X connect 86 0 87 0;
#X connect 87 0 84 0;
#X connect 89 0 97 0;
#X connect 90 0 93 0;
#X connect 90 0 98 0;
#X connect 90 1 97 0;
#X connect 90 1 94 0;
#X connect 91 0 2 1;
#X connect 92 0 91 1;
#X connect 93 0 92 0;
#X connect 94 0 92 0;
#X connect 95 0 2 1;
#X connect 96 0 95 1;
#X connect 97 0 96 0;
#X connect 98 0 96 0;
#X connect 99 0 90 0;
#X connect 100 0 101 0;
#X connect 101 0 91 0;
#X connect 102 0 114 0;
#X connect 102 0 118 0;
#X connect 104 0 107 1;
#X connect 105 0 106 0;
#X connect 106 0 107 0;
#X connect 107 0 108 0;
#X connect 108 0 7 0;
#X connect 108 0 8 0;
#X connect 108 0 109 0;
#X connect 109 0 110 0;
#X connect 111 0 95 0;
#X connect 112 0 113 0;
#X connect 113 0 116 0;
#X connect 113 0 119 0;
#X connect 113 1 120 0;
#X connect 113 1 115 0;
#X connect 114 0 126 0;
#X connect 115 0 114 1;
#X connect 116 0 114 1;
#X connect 117 0 116 0;
#X connect 118 0 124 0;
#X connect 119 0 118 1;
#X connect 120 0 118 1;
#X connect 121 0 103 0;
#X connect 122 0 121 0;
#X connect 123 0 103 0;
#X connect 124 0 123 0;
#X connect 124 1 122 0;
#X connect 125 0 105 0;
#X connect 125 1 102 0;
#X connect 126 0 103 0;
