#N canvas 827 239 734 565 12;
#X obj 5 16 tgl 25 0 empty empty src1 1 7 0 14 #191919 #e1e1e1 #e1e1e1 0 1;
#X obj 5 50 knob 25 0 1 0 0 empty empty #191919 #696969 #E1E1E1 1 0 0 0 1 270 0 0 0 empty empty 0 12 6 -15 0 1 0 0;
#X obj 5 212 *~;
#X obj 5 238 *~;
#X msg 48 186 \$1 10;
#X obj 48 212 line~;
#X msg 48 238 \$1 10;
#X obj 48 264 line~;
#X obj 5 152 inlet~;
#X obj 39 16 tgl 25 0 empty empty src2 1 7 0 14 #191919 #e1e1e1 #e1e1e1 0 1;
#X obj 39 50 knob 25 0 1 0 0 empty empty #191919 #696969 #E1E1E1 1 0 0 0 1 270 0 0 0 empty empty 0 12 6 -15 0 1 0 0;
#X obj 169 212 *~;
#X obj 169 238 *~;
#X msg 212 186 \$1 10;
#X obj 212 212 line~;
#X msg 212 238 \$1 10;
#X obj 212 264 line~;
#X obj 169 152 inlet~;
#X obj 74 16 tgl 25 0 empty empty src3 1 7 0 14 #191919 #e1e1e1 #e1e1e1 0 1;
#X obj 74 50 knob 25 0 1 0 0 empty empty #191919 #696969 #E1E1E1 1 0 0 0 1 270 0 0 0 empty empty 0 12 6 -15 0 1 0 0;
#X obj 333 212 *~;
#X obj 333 238 *~;
#X msg 376 186 \$1 10;
#X obj 376 212 line~;
#X msg 376 238 \$1 10;
#X obj 376 264 line~;
#X obj 333 152 inlet~;
#X obj 109 16 tgl 25 0 empty empty src4 1 7 0 14 #191919 #e1e1e1 #e1e1e1 0 1;
#X obj 109 50 knob 25 0 1 0 0 empty empty #191919 #696969 #E1E1E1 1 0 0 0 1 270 0 0 0 empty empty 0 12 6 -15 0 1 0 0;
#X obj 497 212 *~;
#X obj 497 238 *~;
#X msg 540 186 \$1 10;
#X obj 540 212 line~;
#X msg 540 238 \$1 10;
#X obj 540 264 line~;
#X obj 497 152 inlet~;
#X obj 161 16 tgl 25 0 empty empty ctl1 1 7 0 14 #191919 #e1e1e1 #e1e1e1 0 1;
#X obj 161 50 knob 25 0 1 0 0 empty empty #191919 #696969 #E1E1E1 1 0 0 0 1 270 0 0 0 empty empty 0 12 6 -15 0 1 0 0;
#X obj 701 218 *~;
#X obj 701 244 *~;
#X msg 744 192 \$1 10;
#X obj 744 218 line~;
#X msg 744 244 \$1 10;
#X obj 744 270 line~;
#X obj 701 158 inlet~;
#X obj 195 16 tgl 25 0 empty empty ctl2 1 7 0 14 #191919 #e1e1e1 #e1e1e1 0 1;
#X obj 195 50 knob 25 0 1 0 0 empty empty #191919 #696969 #E1E1E1 1 0 0 0 1 270 0 0 0 empty empty 0 12 6 -15 0 1 0 0;
#X obj 865 218 *~;
#X obj 865 244 *~;
#X msg 908 192 \$1 10;
#X obj 908 218 line~;
#X msg 908 244 \$1 10;
#X obj 908 270 line~;
#X obj 865 158 inlet~;
#X obj 231 16 tgl 25 0 empty empty ctl3 1 7 0 14 #191919 #e1e1e1 #e1e1e1 0 1;
#X obj 231 50 knob 25 0 1 0 0 empty empty #191919 #696969 #E1E1E1 1 0 0 0 1 270 0 0 0 empty empty 0 12 6 -15 0 1 0 0;
#X obj 1029 218 *~;
#X obj 1029 244 *~;
#X msg 1072 192 \$1 10;
#X obj 1072 218 line~;
#X msg 1072 244 \$1 10;
#X obj 1072 270 line~;
#X obj 1029 158 inlet~;
#X obj 266 16 tgl 25 0 empty empty ctl4 1 7 0 14 #191919 #e1e1e1 #e1e1e1 0 1;
#X obj 266 50 knob 25 0 1 0 0 empty empty #191919 #696969 #E1E1E1 1 0 0 0 1 270 0 0 0 empty empty 0 12 6 -15 0 1 0 0;
#X obj 1193 218 *~;
#X obj 1193 244 *~;
#X msg 1236 192 \$1 10;
#X obj 1236 218 line~;
#X msg 1236 244 \$1 10;
#X obj 1236 270 line~;
#X obj 1193 158 inlet~;
#X floatatom 300 36 5 0 0 2 Q - - 12;
#X obj 453 16 loadbang;
#X msg 453 42 50;
#X obj 321 479 outlet~;
#X obj 321 390 *~ 1;
#X obj 369 390 *~ 1;
#X obj 321 441 vocoder~ 16 50;
#X connect 0 0 4 0;
#X connect 1 0 6 0;
#X connect 2 0 3 0;
#X connect 3 0 76 0;
#X connect 4 0 5 0;
#X connect 5 0 2 1;
#X connect 6 0 7 0;
#X connect 7 0 3 1;
#X connect 8 0 2 0;
#X connect 9 0 13 0;
#X connect 10 0 15 0;
#X connect 11 0 12 0;
#X connect 12 0 76 0;
#X connect 13 0 14 0;
#X connect 14 0 11 1;
#X connect 15 0 16 0;
#X connect 16 0 12 1;
#X connect 17 0 11 0;
#X connect 18 0 22 0;
#X connect 19 0 24 0;
#X connect 20 0 21 0;
#X connect 21 0 76 0;
#X connect 22 0 23 0;
#X connect 23 0 20 1;
#X connect 24 0 25 0;
#X connect 25 0 21 1;
#X connect 26 0 20 0;
#X connect 27 0 31 0;
#X connect 28 0 33 0;
#X connect 29 0 30 0;
#X connect 30 0 76 0;
#X connect 31 0 32 0;
#X connect 32 0 29 1;
#X connect 33 0 34 0;
#X connect 34 0 30 1;
#X connect 35 0 29 0;
#X connect 36 0 40 0;
#X connect 37 0 42 0;
#X connect 38 0 39 0;
#X connect 39 0 77 0;
#X connect 40 0 41 0;
#X connect 41 0 38 1;
#X connect 42 0 43 0;
#X connect 43 0 39 1;
#X connect 44 0 38 0;
#X connect 45 0 49 0;
#X connect 46 0 51 0;
#X connect 47 0 48 0;
#X connect 48 0 77 0;
#X connect 49 0 50 0;
#X connect 50 0 47 1;
#X connect 51 0 52 0;
#X connect 52 0 48 1;
#X connect 53 0 47 0;
#X connect 54 0 58 0;
#X connect 55 0 60 0;
#X connect 56 0 57 0;
#X connect 57 0 77 0;
#X connect 58 0 59 0;
#X connect 59 0 56 1;
#X connect 60 0 61 0;
#X connect 61 0 57 1;
#X connect 62 0 56 0;
#X connect 63 0 67 0;
#X connect 64 0 69 0;
#X connect 65 0 66 0;
#X connect 66 0 77 0;
#X connect 67 0 68 0;
#X connect 68 0 65 1;
#X connect 69 0 70 0;
#X connect 70 0 66 1;
#X connect 71 0 65 0;
#X connect 72 0 78 2;
#X connect 73 0 74 0;
#X connect 74 0 72 0;
#X connect 76 0 78 0;
#X connect 77 0 78 1;
#X connect 78 0 75 0;
#X coords 0 0 1 1 341 81 1 0 0;
