#N canvas 827 239 734 565 12;
#X msg 104 103 bang;
#X floatatom 70 198 5 0 0 0 - - - 0;
#X obj 62 269 tabread \$0-rand;
#X obj 62 247 t a a;
#X obj 62 102 until;
#X obj 62 294 + 0.001;
#X obj 62 318 tabwrite \$0-rand;
#X msg 188 38 bang;
#X obj 188 64 list-random 10 10;
#X msg 62 76 1000;
#X msg 105 127 seed 12123;
#X floatatom 141 197 5 0 0 1 length - - 0;
#N canvas 0 0 450 300 (subpatch) 0;
#X array \$0-rand 10 float 0;
#X coords 0 1 9 0 200 140 1;
#X restore 247 200 graph;
#N canvas 0 0 450 300 (subpatch) 0;
#X array \$0-dist 10 float 0;
#X coords 0 1 9 0 200 140 1;
#X restore 247 200 graph;
#X obj 188 127 t a a;
#X msg 254 95 3 8 0 2 3 5 1 4 7 2;
#X msg 196 95 1 0 0 1;
#N canvas 0 0 450 300 write-to-tables 0;
#X obj 227 103 list-len;
#X obj 308 180 s \$0-rand;
#X obj 115 103 list prepend 0;
#X obj 115 128 s \$0-dist;
#X obj 93 256 s \$0-dist;
#X msg 308 158 resize \$1 \, const 0;
#X msg 93 155 normalize 1;
#X msg 227 159 resize \$1;
#X obj 93 55 t b a a;
#X obj 93 33 inlet;
#X connect 0 0 7 0;
#X connect 0 0 5 0;
#X connect 2 0 3 0;
#X connect 5 0 1 0;
#X connect 6 0 4 0;
#X connect 7 0 4 0;
#X connect 8 0 6 0;
#X connect 8 1 2 0;
#X connect 8 2 0 0;
#X connect 9 0 8 0;
#X restore 218 154 pd write-to-tables;
#X msg 401 95 10 20 70;
#X msg 101 77 100;
#X obj 62 170 list-wrandom;
#X connect 0 0 20 0;
#X connect 2 0 5 0;
#X connect 3 0 2 0;
#X connect 3 1 6 1;
#X connect 4 0 20 0;
#X connect 5 0 6 0;
#X connect 7 0 8 0;
#X connect 8 0 14 0;
#X connect 9 0 4 0;
#X connect 10 0 20 0;
#X connect 14 0 20 1;
#X connect 14 1 17 0;
#X connect 15 0 14 0;
#X connect 16 0 14 0;
#X connect 18 0 14 0;
#X connect 19 0 4 0;
#X connect 20 0 1 0;
#X connect 20 0 3 0;
#X connect 20 1 11 0;
